<svg id="Layer_1" data-name="Layer 1" xmlns="http://www.w3.org/2000/svg" xmlns:xlink="http://www.w3.org/1999/xlink" viewBox="0 0 943.3 750"><defs><style>.cls-1,.cls-4,.cls-5,.cls-6{fill:none;}.cls-2{clip-path:url(#clip-path);}.cls-3{fill:#231815;}.cls-4{stroke:#231815;stroke-width:0.5px;}.cls-5{stroke:#433f3f;}.cls-6{stroke:#fff;stroke-width:4.04px;}.cls-7{font-size:17px;font-family:NotoSansCJKkr-Light-KSCpc-EUC-H, Noto Sans CJK KR;}.cls-8{letter-spacing:-0.02em;}.cls-9{letter-spacing:0em;}.cls-10{letter-spacing:-0.01em;}.cls-11{letter-spacing:-0.01em;}.cls-12{letter-spacing:0.02em;}.cls-13{letter-spacing:-0.01em;}.cls-14{letter-spacing:-0.02em;}</style><clipPath id="clip-path"><rect class="cls-1" width="951.7" height="460.4"/></clipPath></defs><title>SAN대지 16</title><g class="cls-2"><path class="cls-3" d="M26.57,134.56l-.67-.84-9.46,5.43L7,133.72l-.67.84,10.14,5.8Zm-14-9.69h1v-2.94h-1Zm5.38-13.1-2.41.11-3,.1-3,.07-2.41,0,.08,1.07,2.37,0,3-.07,3-.08q1.47,0,2.42-.1Zm-1.79-2.24q-1.51-.48-2.91-1t-2.88-1.19L10,108.47q1.43.62,2.88,1.13t2.88,1Zm11.06,7.56H22.57l-.53.5.53.59,4.65.06ZM21.53,129.3h1V106h-1ZM9.28,119.19A3.15,3.15,0,0,0,10,120.3a3.8,3.8,0,0,0,1.2.8,4.09,4.09,0,0,0,1.64.31,4.09,4.09,0,0,0,1.64-.31,3.81,3.81,0,0,0,1.2-.8,3.17,3.17,0,0,0,.73-1.11,3.31,3.31,0,0,0,0-2.46,3.19,3.19,0,0,0-.73-1.11,3.85,3.85,0,0,0-1.2-.8,4.11,4.11,0,0,0-1.64-.31,4.11,4.11,0,0,0-1.64.31,3.83,3.83,0,0,0-1.2.8,3.16,3.16,0,0,0-.73,1.11,3.31,3.31,0,0,0,0,2.46m1-2.06a2.36,2.36,0,0,1,.5-.78,2.77,2.77,0,0,1,.85-.59,3,3,0,0,1,1.25-.24,3,3,0,0,1,1.25.24,2.79,2.79,0,0,1,.85.59,2.36,2.36,0,0,1,.5.78,2.11,2.11,0,0,1,0,1.65,2.47,2.47,0,0,1-1.36,1.39,3.12,3.12,0,0,1-1.25.22,3.11,3.11,0,0,1-1.25-.22,2.47,2.47,0,0,1-1.36-1.39,2.11,2.11,0,0,1,0-1.65m9.66,6.26q-2.1.36-3.89.6t-3.51.41q-1.72.17-3.5.28t-3.88.2L5.35,126q2.07-.09,3.85-.21t3.49-.32q1.71-.19,3.47-.43l3.84-.55Zm-7.24-39a4.19,4.19,0,0,0,1.11,1.39,5.18,5.18,0,0,0,1.65.9,6.45,6.45,0,0,0,4,0,5.2,5.2,0,0,0,1.65-.9,4.22,4.22,0,0,0,1.11-1.39,4.18,4.18,0,0,0,0-3.6,4.23,4.23,0,0,0-1.11-1.39,5.2,5.2,0,0,0-1.65-.9,6.43,6.43,0,0,0-4,0,5.18,5.18,0,0,0-1.65.9,4.21,4.21,0,0,0-1.11,1.39,4.18,4.18,0,0,0,0,3.6m1-3.16a3.1,3.1,0,0,1,.89-1,4.33,4.33,0,0,1,1.33-.67,5.64,5.64,0,0,1,3.24,0,4.15,4.15,0,0,1,1.31.67,3.33,3.33,0,0,1,.89,1,3,3,0,0,1,0,2.73,3.32,3.32,0,0,1-.89,1,4.16,4.16,0,0,1-1.31.67,5.67,5.67,0,0,1-3.24,0A4.34,4.34,0,0,1,14.51,85a3.09,3.09,0,0,1-.89-1,3.07,3.07,0,0,1,0-2.73m7.91,19.22h1V90.3h-1Zm-7.59-7.78a19.47,19.47,0,0,1-1.62,3.64,21.72,21.72,0,0,1-2.41,3.42l1,.59a27.28,27.28,0,0,0,2.39-3.56A21.38,21.38,0,0,0,15,93Zm8.62-2.83Q20.33,90,18,90l-4.68.13q-2.34.06-4.63.09t-4.42,0l.11,1.09,4.4-.06,4.59-.08L18,91.11l4.56-.17ZM7.28,63.64a16.29,16.29,0,0,0,4.33-5A20.47,20.47,0,0,0,13.72,52l-1-.2a27.14,27.14,0,0,1-.77,3.44,15,15,0,0,1-1.18,2.86A13.45,13.45,0,0,1,9,60.55,17.78,17.78,0,0,1,6.61,62.8Zm11.2-1.9-4.84-4.31-.7.81q1.18,1,2.32,2.09t2.41,2.25Zm3.05,4.84h1V50h-1ZM24.11,70l-2.72.17q-1.6.08-3.28.13l-3.29.06q-1.61,0-2.79,0V71.4q1.15.06,2.76,0l3.3-.06q1.69,0,3.29-.11t2.72-.15ZM12,71.11h1V64.9H12ZM27.22,58.57H22.57l-.53.5.53.59,4.65.06ZM16.44,41.24,6.3,47l.67.84,9.46-5.43,9.46,5.43.67-.84Z"/><path class="cls-3" d="M55.83,224a2.9,2.9,0,0,0,.61.92,2.88,2.88,0,0,0,2,.84,2.83,2.83,0,0,0,1.11-.22,2.9,2.9,0,0,0,.92-4.7,2.88,2.88,0,0,0-4.07,0,2.92,2.92,0,0,0-.61,3.16m4,.2a1.92,1.92,0,0,1-2.65,0,1.88,1.88,0,0,1,0-2.63,1.92,1.92,0,0,1,2.65,0,1.88,1.88,0,0,1,0,2.63M42.25,206.44h1V195.52h-1Zm7.36-1.93q-1.91.53-3.63.87t-3.74.53v1q2-.2,3.85-.52t3.74-.85ZM57.23,200h-5v1.09h5ZM51.55,210.5h1V191.65h-1Zm5,2.8h1V190h-1ZM62.22,170H57.57l-.53.5.53.59,4.65.06Zm-19.38,1.15a4.46,4.46,0,0,0,1,1.41,4.93,4.93,0,0,0,1.47,1,4.43,4.43,0,0,0,3.52,0,4.92,4.92,0,0,0,1.47-1,4.46,4.46,0,0,0,1-1.41,4.33,4.33,0,0,0,0-3.47,4.48,4.48,0,0,0-1-1.41,5,5,0,0,0-1.47-1,4.43,4.43,0,0,0-3.52,0,5,5,0,0,0-1.47,1,4.48,4.48,0,0,0-1,1.41,4.34,4.34,0,0,0,0,3.47m1-3.07a3.59,3.59,0,0,1,1.88-1.86,3.53,3.53,0,0,1,2.76,0,3.59,3.59,0,0,1,1.88,1.86,3.28,3.28,0,0,1,0,2.66,3.62,3.62,0,0,1-.76,1.11,3.58,3.58,0,0,1-1.12.76,3.53,3.53,0,0,1-2.76,0,3.58,3.58,0,0,1-1.12-.76,3.62,3.62,0,0,1-.76-1.11,3.29,3.29,0,0,1,0-2.66M59.11,182q-1.12.08-2.73.17t-3.33.13l-3.35.06q-1.62,0-2.8,0v1.09q1.15.06,2.77,0l3.35-.06q1.72,0,3.35-.11t2.74-.15ZM46.9,183.11h1v-5.94h-1Zm9.63-4.54h1V162h-1ZM40,143.33q2.63,0,5.39,0l5.53-.1q2.77-.06,5.5-.15l5.28-.21,0,1.09q-2.52.11-5.24.2l-5.46.15-5.5.11q-2.76,0-5.36,0Zm5.18-6a12.33,12.33,0,0,0,5.53-3.89,14.45,14.45,0,0,0,2.79-6.16l-1-.25a13.57,13.57,0,0,1-2.58,5.81,12,12,0,0,1-5.24,3.6Zm14.39-1.18L53.34,132l-.56.92,1.46,1q.78.52,1.58,1.08l1.6,1.13,1.5,1.08ZM41.75,111.38a16.14,16.14,0,0,0,4.52-5.19,20.48,20.48,0,0,0,2.17-6.82l-1-.2a25.09,25.09,0,0,1-.76,3.5,14.93,14.93,0,0,1-1.25,3,14.7,14.7,0,0,1-1.83,2.59,16.89,16.89,0,0,1-2.52,2.3ZM53.23,110l-4.54-4.7-.73.76q1.09,1.12,2.18,2.27t2.27,2.44Zm5.88,7.56q-1.12.08-2.74.17t-3.35.13l-3.36.06q-1.64,0-2.81,0V119q1.15.06,2.79,0L53,119q1.74,0,3.36-.11t2.74-.15ZM57,103.37H51.83v1.09H57ZM46.84,118.72h1v-5.94h-1Zm9.69-4.54h1V97.58h-1ZM48.59,85.1A4.72,4.72,0,0,0,50.12,84a5,5,0,0,0,1-1.64,5.92,5.92,0,0,0,0-4,4.94,4.94,0,0,0-1-1.64,4.67,4.67,0,0,0-3.52-1.51,4.74,4.74,0,0,0-2,.41,4.68,4.68,0,0,0-1.53,1.11,4.94,4.94,0,0,0-1,1.64,5.93,5.93,0,0,0,0,4,5,5,0,0,0,1,1.64,4.91,4.91,0,0,0,5.5,1.11m-.41-8.57a3.64,3.64,0,0,1,1.21.88,3.85,3.85,0,0,1,.77,1.32,5.07,5.07,0,0,1,0,3.25,3.86,3.86,0,0,1-.77,1.32,3.67,3.67,0,0,1-1.21.88,4,4,0,0,1-3.15,0,3.69,3.69,0,0,1-1.21-.88A3.84,3.84,0,0,1,43.05,82a5.07,5.07,0,0,1,0-3.25,3.84,3.84,0,0,1,.77-1.32A3.66,3.66,0,0,1,45,76.53a4,4,0,0,1,3.15,0M56.53,92.9h1V69.58h-1ZM53.17,57.37q-1.09.17-2.35.32L48.29,58l-2.53.22q-1.26.1-2.38.13V52.83h-1v6.58q1.15,0,2.56-.12l2.9-.22q1.48-.12,2.91-.29t2.58-.33Zm-1.65-5.43q-2.21.19-4.63.25l-4.55.08v1.09q2.1,0,4.55-.1t4.63-.21Zm-1,.56h1V46.87h-1Zm1-6.1q-2.32.13-4.77.18l-4.63.08.08,1.09,4.61-.08q2.42-.06,4.72-.17Zm10.7,5.74H57.57l-.53.5.53.59,4.65.06ZM56.53,64.9h1V41.58h-1Z"/><line class="cls-4" x1="92.96" y1="40.4" x2="92.96" y2="460.4"/><line class="cls-4" y1="0.25" x2="943.31" y2="0.25"/></g><line class="cls-5" x1="121.46" y1="227.74" x2="503.58" y2="227.74"/><line class="cls-5" x1="561.19" y1="227.74" x2="943.31" y2="227.74"/><g class="cls-2"><path class="cls-3" d="M429.95,183.32q3.57,0,7.32-.06l7.51-.13q3.76-.08,7.47-.21t7.16-.29l0,1.48q-3.42.15-7.11.27l-7.41.21q-3.72.1-7.47.15t-7.28.06Zm7-8.13a16.72,16.72,0,0,0,7.51-5.28,19.6,19.6,0,0,0,3.78-8.36l-1.37-.34a18.41,18.41,0,0,1-3.5,7.88,16.22,16.22,0,0,1-7.11,4.88Zm19.53-1.6-8.44-5.7-.76,1.25,2,1.31q1.06.7,2.15,1.46l2.17,1.54,2,1.46ZM432.34,140a21.87,21.87,0,0,0,6.14-7,27.76,27.76,0,0,0,2.95-9.25l-1.37-.27a33.8,33.8,0,0,1-1,4.75,20.18,20.18,0,0,1-1.69,4,19.85,19.85,0,0,1-2.49,3.51,22.77,22.77,0,0,1-3.42,3.12Zm15.58-1.82-6.16-6.38-1,1q1.48,1.52,3,3.08t3.08,3.31Zm8,10.26q-1.52.11-3.72.23t-4.54.17q-2.34.06-4.56.08t-3.82-.06v1.48q1.56.08,3.78.06t4.58-.08q2.36-.06,4.56-.15t3.72-.21Zm-2.85-19.3h-7v1.48h7Zm-13.79,20.82h1.41v-8.06h-1.41Zm13.15-6.16h1.41V121.23H452.4ZM441.63,104.3a6.37,6.37,0,0,0,2.08-1.5,6.71,6.71,0,0,0,1.34-2.22,8,8,0,0,0,0-5.43,6.73,6.73,0,0,0-1.34-2.22,6.51,6.51,0,0,0-9.55,0,6.71,6.71,0,0,0-1.35,2.22,8,8,0,0,0,0,5.43,6.69,6.69,0,0,0,1.35,2.22,6.35,6.35,0,0,0,2.08,1.5,6.84,6.84,0,0,0,5.38,0m-.55-11.63a5,5,0,0,1,1.64,1.2,5.23,5.23,0,0,1,1,1.79,6.89,6.89,0,0,1,0,4.41,5.22,5.22,0,0,1-1,1.79,5,5,0,0,1-1.64,1.2,5.44,5.44,0,0,1-4.27,0,5,5,0,0,1-1.64-1.2,5.22,5.22,0,0,1-1-1.79,6.89,6.89,0,0,1,0-4.41,5.23,5.23,0,0,1,1-1.79,5,5,0,0,1,1.64-1.2,5.44,5.44,0,0,1,4.27,0m11.33,22.21h1.41V83.23H452.4Zm-4.56-48.22q-1.48.23-3.19.44t-3.44.38q-1.73.17-3.44.3t-3.23.17V60.5h-1.41v8.93q1.56,0,3.48-.16l3.93-.3q2-.17,4-.39t3.5-.44Zm-2.24-7.37q-3,.27-6.29.34t-6.17.11v1.48q2.85,0,6.17-.13t6.29-.28ZM444.2,60h1.41V52.41H444.2Zm1.41-8.28q-3.15.17-6.48.24t-6.29.1l.11,1.48q3,0,6.25-.11t6.4-.23Zm14.52,7.79h-6.31l-.72.68.72.8,6.31.08ZM452.4,76.88h1.41V45.23H452.4Z"/><path class="cls-3" d="M480.25,146.88h1.41v-4h-1.41Zm7.3-17.78q-1.29.07-3.27.15l-4.12.13-4.12.09q-2,0-3.27,0l.11,1.45q1.25,0,3.21,0l4.07-.1,4.1-.11q2-.06,3.29-.13Zm-2.43-3q-2.05-.64-4-1.39t-3.91-1.61l-.53,1.56q1.94.84,3.91,1.54t3.91,1.35Zm15,10.26h-6.31l-.72.68.72.8,6.31.08Zm-7.71,16.57h1.41V121.23h-1.41Zm-16.62-13.72a4.28,4.28,0,0,0,1,1.5,5.16,5.16,0,0,0,1.63,1.08,6.12,6.12,0,0,0,4.45,0,5.17,5.17,0,0,0,1.63-1.08,4.3,4.3,0,0,0,1-1.5,4.49,4.49,0,0,0,0-3.34,4.32,4.32,0,0,0-1-1.5,5.2,5.2,0,0,0-1.63-1.08,6.12,6.12,0,0,0-4.45,0,5.19,5.19,0,0,0-1.63,1.08,4.29,4.29,0,0,0-1,1.5,4.49,4.49,0,0,0,0,3.34m1.31-2.79a3.2,3.2,0,0,1,.68-1.06,3.78,3.78,0,0,1,1.16-.8,4.59,4.59,0,0,1,3.38,0,3.79,3.79,0,0,1,1.16.8,3.2,3.2,0,0,1,.68,1.06,2.87,2.87,0,0,1,0,2.24,3.35,3.35,0,0,1-1.84,1.88,4.85,4.85,0,0,1-3.38,0,3.35,3.35,0,0,1-1.16-.8,3.39,3.39,0,0,1-.68-1.08,2.87,2.87,0,0,1,0-2.24m13.11,8.49q-2.85.5-5.28.82t-4.77.55q-2.34.23-4.75.38t-5.26.27l.3,1.48q2.81-.12,5.23-.29t4.73-.43q2.32-.25,4.71-.58l5.21-.75ZM480.38,92a5.71,5.71,0,0,0,1.5,1.89,7,7,0,0,0,2.24,1.22,8.76,8.76,0,0,0,5.47,0,7.07,7.07,0,0,0,2.24-1.22,5.73,5.73,0,0,0,1.5-1.89,5.68,5.68,0,0,0,0-4.88,5.74,5.74,0,0,0-1.5-1.89A7.08,7.08,0,0,0,489.59,84a8.74,8.74,0,0,0-5.47,0,7.06,7.06,0,0,0-2.24,1.22,5.72,5.72,0,0,0-1.5,1.89,5.68,5.68,0,0,0,0,4.88m1.29-4.29a4.21,4.21,0,0,1,1.21-1.42,5.89,5.89,0,0,1,1.8-.91,7.65,7.65,0,0,1,4.39,0,5.62,5.62,0,0,1,1.78.91,4.51,4.51,0,0,1,1.21,1.42,4,4,0,0,1,0,3.71,4.5,4.5,0,0,1-1.21,1.42,5.62,5.62,0,0,1-1.78.91,7.68,7.68,0,0,1-4.39,0,5.89,5.89,0,0,1-1.8-.91,4.2,4.2,0,0,1-1.21-1.42,4.17,4.17,0,0,1,0-3.71m10.74,26.08h1.41V99.95h-1.41Zm-10.3-10.56a26.4,26.4,0,0,1-2.2,4.94,29.48,29.48,0,0,1-3.27,4.64l1.29.8a37.13,37.13,0,0,0,3.25-4.83,29,29,0,0,0,2.3-5.09Zm11.7-3.84q-3,.16-6.21.26l-6.35.18q-3.17.08-6.29.12t-6,0l.15,1.48,6-.08q3.08,0,6.23-.11t6.31-.19l6.19-.23ZM473.06,63.77a22.1,22.1,0,0,0,5.87-6.84,27.78,27.78,0,0,0,2.87-9l-1.37-.27a36.78,36.78,0,0,1-1,4.67,20.35,20.35,0,0,1-1.6,3.88,18.3,18.3,0,0,1-2.36,3.36,24.1,24.1,0,0,1-3.29,3.06Zm15.2-2.58-6.57-5.85-.95,1.1q1.6,1.41,3.15,2.83t3.27,3.06Zm4.14,6.57h1.41V45.23h-1.41Zm3.5,4.64q-1.52.11-3.69.23t-4.45.17q-2.28.06-4.46.08t-3.78-.06V74.3q1.56.07,3.74.06t4.48-.08q2.3-.06,4.46-.15t3.69-.21Zm-16.38,1.52h1.41V65.48h-1.41Zm20.6-17h-6.31l-.72.68.72.8,6.31.08Z"/><path class="cls-3" d="M869.07,183.32q3.57,0,7.32-.06l7.51-.13q3.76-.08,7.47-.21t7.16-.29l0,1.48q-3.42.15-7.11.27l-7.41.21q-3.72.1-7.47.15t-7.28.06Zm7-8.13a16.72,16.72,0,0,0,7.51-5.28,19.61,19.61,0,0,0,3.78-8.36L886,161.2a18.42,18.42,0,0,1-3.5,7.88,16.22,16.22,0,0,1-7.11,4.88Zm19.53-1.6-8.44-5.7-.76,1.25,2,1.31q1.06.7,2.15,1.46l2.17,1.54,2,1.46ZM871.47,140a21.89,21.89,0,0,0,6.14-7,27.8,27.8,0,0,0,2.95-9.25l-1.37-.27a34.09,34.09,0,0,1-1,4.75,20.29,20.29,0,0,1-1.69,4A19.9,19.9,0,0,1,874,135.7a22.77,22.77,0,0,1-3.42,3.12ZM887,138.14l-6.16-6.38-1,1q1.48,1.52,3,3.08t3.08,3.31Zm8,10.26q-1.52.11-3.72.23t-4.54.17q-2.34.06-4.56.08t-3.82-.06v1.48q1.56.08,3.78.06t4.58-.08q2.35-.06,4.56-.15t3.72-.21Zm-2.85-19.3h-7v1.48h7Zm-13.79,20.82h1.41v-8.06h-1.41Zm13.15-6.16h1.41V121.23h-1.41ZM880.75,104.3a6.36,6.36,0,0,0,2.08-1.5,6.71,6.71,0,0,0,1.35-2.22,8,8,0,0,0,0-5.43,6.73,6.73,0,0,0-1.35-2.22,6.51,6.51,0,0,0-9.55,0,6.73,6.73,0,0,0-1.35,2.22,8,8,0,0,0,0,5.43,6.71,6.71,0,0,0,1.35,2.22,6.67,6.67,0,0,0,7.46,1.5m-.55-11.63a5,5,0,0,1,1.64,1.2,5.22,5.22,0,0,1,1,1.79,6.87,6.87,0,0,1,0,4.41,5.21,5.21,0,0,1-1,1.79,5,5,0,0,1-1.64,1.2,5.44,5.44,0,0,1-4.27,0,5,5,0,0,1-1.64-1.2,5.22,5.22,0,0,1-1-1.79,6.89,6.89,0,0,1,0-4.41,5.23,5.23,0,0,1,1-1.79,5,5,0,0,1,1.64-1.2,5.44,5.44,0,0,1,4.27,0m11.34,22.21h1.41V83.23h-1.41ZM887,66.66q-1.48.23-3.19.44t-3.44.38q-1.73.17-3.44.3t-3.23.17V60.5h-1.41v8.93q1.56,0,3.48-.16l3.93-.3q2-.17,4-.39t3.5-.44Zm-2.24-7.37q-3,.27-6.29.34t-6.17.11v1.48q2.85,0,6.17-.13t6.29-.28Zm-1.41.76h1.41V52.41h-1.41Zm1.41-8.28q-3.16.17-6.48.24t-6.29.1l.11,1.48q3,0,6.25-.11t6.4-.23Zm14.52,7.79h-6.31l-.72.68.72.8,6.31.08Zm-7.71,17.33h1.41V45.23h-1.41Z"/><path class="cls-3" d="M919.37,146.88h1.41v-4h-1.41Zm7.3-17.78q-1.29.07-3.27.15l-4.12.13-4.12.09q-2,0-3.27,0L912,131q1.25,0,3.21,0l4.07-.1,4.1-.11q2-.06,3.29-.13Zm-2.43-3q-2.05-.64-4-1.39t-3.91-1.61l-.53,1.56q1.94.84,3.91,1.54t3.91,1.35Zm15,10.26h-6.31l-.72.68.72.8,6.31.08Zm-7.71,16.57h1.41V121.23h-1.41ZM914.9,139.16a4.28,4.28,0,0,0,1,1.5,5.16,5.16,0,0,0,1.63,1.08,6.12,6.12,0,0,0,4.45,0,5.17,5.17,0,0,0,1.63-1.08,4.3,4.3,0,0,0,1-1.5,4.49,4.49,0,0,0,0-3.34,4.32,4.32,0,0,0-1-1.5,5.2,5.2,0,0,0-1.63-1.08,6.12,6.12,0,0,0-4.45,0,5.19,5.19,0,0,0-1.63,1.08,4.29,4.29,0,0,0-1,1.5,4.49,4.49,0,0,0,0,3.34m1.31-2.79a3.2,3.2,0,0,1,.68-1.06,3.78,3.78,0,0,1,1.16-.8,4.59,4.59,0,0,1,3.38,0,3.79,3.79,0,0,1,1.16.8,3.2,3.2,0,0,1,.68,1.06,2.87,2.87,0,0,1,0,2.24,3.35,3.35,0,0,1-1.84,1.88,4.85,4.85,0,0,1-3.38,0,3.35,3.35,0,0,1-1.16-.8,3.39,3.39,0,0,1-.68-1.08,2.87,2.87,0,0,1,0-2.24m13.11,8.49q-2.85.5-5.28.82t-4.77.55q-2.34.23-4.75.38t-5.26.27l.3,1.48q2.81-.12,5.23-.29t4.73-.43q2.32-.25,4.71-.58l5.21-.75ZM919.5,92a5.71,5.71,0,0,0,1.5,1.89,7.06,7.06,0,0,0,2.24,1.22,8.76,8.76,0,0,0,5.47,0A7.07,7.07,0,0,0,931,93.84a5.73,5.73,0,0,0,1.5-1.89,5.68,5.68,0,0,0,0-4.88,5.74,5.74,0,0,0-1.5-1.89A7.08,7.08,0,0,0,928.72,84a8.75,8.75,0,0,0-5.47,0A7.07,7.07,0,0,0,921,85.19a5.72,5.72,0,0,0-1.5,1.89,5.68,5.68,0,0,0,0,4.88m1.29-4.29A4.21,4.21,0,0,1,922,86.24a5.88,5.88,0,0,1,1.8-.91,7.65,7.65,0,0,1,4.39,0,5.62,5.62,0,0,1,1.78.91,4.51,4.51,0,0,1,1.21,1.42,4,4,0,0,1,0,3.71A4.5,4.5,0,0,1,930,92.79a5.62,5.62,0,0,1-1.78.91,7.68,7.68,0,0,1-4.39,0,5.88,5.88,0,0,1-1.8-.91,4.2,4.2,0,0,1-1.21-1.42,4.17,4.17,0,0,1,0-3.71m10.74,26.08h1.41V99.95h-1.41Zm-10.3-10.56a26.4,26.4,0,0,1-2.2,4.94,29.49,29.49,0,0,1-3.27,4.64l1.29.8a37.12,37.12,0,0,0,3.25-4.83,29,29,0,0,0,2.3-5.09Zm11.7-3.84q-3,.16-6.21.26l-6.35.18q-3.17.08-6.29.12t-6,0l.15,1.48,6-.08q3.08,0,6.23-.11t6.31-.19l6.19-.23ZM912.19,63.77a22.1,22.1,0,0,0,5.87-6.84,27.78,27.78,0,0,0,2.87-9l-1.37-.27a36.79,36.79,0,0,1-1,4.67,20.35,20.35,0,0,1-1.6,3.88,18.3,18.3,0,0,1-2.36,3.36,24.1,24.1,0,0,1-3.29,3.06Zm15.2-2.58-6.57-5.85-.95,1.1q1.6,1.41,3.15,2.83t3.27,3.06Zm4.14,6.57h1.41V45.23h-1.41ZM935,72.4q-1.52.11-3.69.23t-4.45.17q-2.28.06-4.46.08t-3.78-.06V74.3q1.56.07,3.74.06t4.48-.08q2.3-.06,4.46-.15t3.69-.21Zm-16.38,1.52h1.41V65.48h-1.41Zm20.6-17h-6.31l-.72.68.72.8,6.31.08Z"/><path class="cls-3" d="M666.87,186a76.09,76.09,0,0,0,39.89-39.89,73.61,73.61,0,0,0,0-57.85,76.09,76.09,0,0,0-39.89-39.89,73.61,73.61,0,0,0-57.85,0,76.09,76.09,0,0,0-39.89,39.89,73.61,73.61,0,0,0,0,57.85A76.09,76.09,0,0,0,609,186a73.61,73.61,0,0,0,57.85,0M664.45,54.07A69.32,69.32,0,0,1,701,90.66a67.31,67.31,0,0,1,0,53,69.32,69.32,0,0,1-36.59,36.59,67.31,67.31,0,0,1-53,0,69.32,69.32,0,0,1-36.59-36.59,67.3,67.3,0,0,1,0-53,69.32,69.32,0,0,1,36.59-36.59,67.31,67.31,0,0,1,53,0m-49,38.63,4.27,5,17.67-13.59v71.25h7.18V75h-6.18Z"/><path class="cls-6" d="M666.87,186a76.09,76.09,0,0,0,39.89-39.89,73.61,73.61,0,0,0,0-57.85,76.09,76.09,0,0,0-39.89-39.89,73.61,73.61,0,0,0-57.85,0,76.09,76.09,0,0,0-39.89,39.89,73.61,73.61,0,0,0,0,57.85A76.09,76.09,0,0,0,609,186a73.61,73.61,0,0,0,57.85,0ZM664.45,54.07A69.32,69.32,0,0,1,701,90.66a67.31,67.31,0,0,1,0,53,69.32,69.32,0,0,1-36.59,36.59,67.31,67.31,0,0,1-53,0,69.32,69.32,0,0,1-36.59-36.59,67.3,67.3,0,0,1,0-53,69.32,69.32,0,0,1,36.59-36.59,67.31,67.31,0,0,1,53,0Zm-49,38.63,4.27,5,17.67-13.59v71.25h7.18V75h-6.18Z"/><path class="cls-3" d="M227.75,186a76.09,76.09,0,0,0,39.89-39.89,73.61,73.61,0,0,0,0-57.85,76.09,76.09,0,0,0-39.89-39.89,73.61,73.61,0,0,0-57.85,0A76.09,76.09,0,0,0,130,88.24a73.63,73.63,0,0,0,0,57.85A76.09,76.09,0,0,0,169.9,186a73.61,73.61,0,0,0,57.85,0M225.32,54.07a69.33,69.33,0,0,1,36.59,36.59,67.31,67.31,0,0,1,0,53,69.32,69.32,0,0,1-36.59,36.59,67.32,67.32,0,0,1-53,0,69.32,69.32,0,0,1-36.59-36.59,67.32,67.32,0,0,1,0-53,69.32,69.32,0,0,1,36.59-36.59,67.31,67.31,0,0,1,53,0M182.71,102q0-8.74,4.46-13.3t12.62-4.56q8.15,0,12.62,4.37t4.46,11.74A16.84,16.84,0,0,1,213.09,111a81.57,81.57,0,0,1-9.42,9.8l-28.54,25.82v6.79H226v-7.57H186l22.6-20.27a81.27,81.27,0,0,0,10.91-12,22.06,22.06,0,0,0,4.54-13.32,25.77,25.77,0,0,0-1.55-8.88A20.72,20.72,0,0,0,217.87,84a22,22,0,0,0-7.64-5,28,28,0,0,0-10.54-1.84q-11.8,0-18.27,7T174.95,102Z"/><path class="cls-6" d="M227.75,186a76.09,76.09,0,0,0,39.89-39.89,73.61,73.61,0,0,0,0-57.85,76.09,76.09,0,0,0-39.89-39.89,73.61,73.61,0,0,0-57.85,0A76.09,76.09,0,0,0,130,88.24a73.63,73.63,0,0,0,0,57.85A76.09,76.09,0,0,0,169.9,186a73.61,73.61,0,0,0,57.85,0ZM225.32,54.07a69.33,69.33,0,0,1,36.59,36.59,67.31,67.31,0,0,1,0,53,69.32,69.32,0,0,1-36.59,36.59,67.32,67.32,0,0,1-53,0,69.32,69.32,0,0,1-36.59-36.59,67.32,67.32,0,0,1,0-53,69.32,69.32,0,0,1,36.59-36.59,67.31,67.31,0,0,1,53,0ZM182.71,102q0-8.74,4.46-13.3t12.62-4.56q8.15,0,12.62,4.37t4.46,11.74A16.84,16.84,0,0,1,213.09,111a81.57,81.57,0,0,1-9.42,9.8l-28.54,25.82v6.79H226v-7.57H186l22.6-20.27a81.27,81.27,0,0,0,10.91-12,22.06,22.06,0,0,0,4.54-13.32,25.77,25.77,0,0,0-1.55-8.88A20.72,20.72,0,0,0,217.87,84a22,22,0,0,0-7.64-5,28,28,0,0,0-10.54-1.84q-11.8,0-18.27,7T174.95,102Z"/></g><text class="cls-7" transform="translate(121.46 282.45)">상업적인 인쇄, 출판, 전자출판, 웹 이미지와 CI, BI, <tspan x="0" y="26">간판, 영상, 디바이스, 게임, 애플리케이션, 웹폰트, </tspan><tspan x="0" y="52">상업용 2차 제작물 등에 사용하실 수 있습니다. </tspan><tspan x="0" y="104">*단, 서버 등을 통한 재판매는 제외합니다.</tspan><tspan x="0" y="130">*글꼴은 마켓히읗(h</tspan><tspan class="cls-8" x="136.15" y="130">t</tspan><tspan class="cls-9" x="141.76" y="130">tp://mar</tspan><tspan class="cls-10" x="206.45" y="130">k</tspan><tspan class="cls-11" x="215.05" y="130">e</tspan><tspan x="224.01" y="130">thiu</tspan><tspan class="cls-12" x="254.4" y="130">t</tspan><tspan class="cls-13" x="260.68" y="130">.</tspan><tspan class="cls-14" x="264.71" y="130">c</tspan><tspan x="272.83" y="130">om/)에서 </tspan><tspan x="0" y="156" xml:space="preserve"> 구입하실 수 있습니다.</tspan></text><text class="cls-7" transform="translate(561.19 282.45)">상업적인 인쇄, 출판, 웹 이미지에 <tspan x="0" y="26">사용하실 수 있습니다.</tspan></text></svg>