<?xml version="1.0" encoding="utf-8"?>
<!-- Generator: Adobe Illustrator 22.0.1, SVG Export Plug-In . SVG Version: 6.00 Build 0)  -->
<svg version="1.1" id="Layer_1" xmlns="http://www.w3.org/2000/svg" xmlns:xlink="http://www.w3.org/1999/xlink" x="0px" y="0px"
	 viewBox="0 0 943.3 663.9" style="enable-background:new 0 0 943.3 663.9;" xml:space="preserve">
<style type="text/css">
	.st0{fill:#433F3F;}
	.st1{fill:#FFFFFF;}
</style>
<title>columns-gif</title>
<g>
	<g>
		<rect x="0.2" y="342.7" class="st0" width="298.6" height="298.6"/>
	</g>
	<g>
		<rect x="322.4" y="22.7" class="st0" width="298.6" height="298.6"/>
	</g>
	<g>
		<rect x="0.2" y="22.7" class="st0" width="298.6" height="298.6"/>
	</g>
	<g>
		<rect x="644.6" y="342.7" class="st0" width="298.6" height="298.6"/>
	</g>
	<g>
		<g>
			<rect x="644.6" y="342.7" class="st0" width="298.6" height="298.6"/>
		</g>
	</g>
	<g>
		<rect x="644.6" y="22.7" class="st0" width="298.6" height="298.6"/>
	</g>
	<g>
		<g>
			<rect x="644.6" y="22.7" class="st0" width="298.6" height="298.6"/>
		</g>
	</g>
	<g>
		<rect x="322.4" y="342.7" class="st0" width="298.6" height="298.6"/>
	</g>
	<g>
		<g>
			<rect x="322.4" y="342.7" class="st0" width="298.6" height="298.6"/>
		</g>
	</g>
	<g>
		<path class="st1" d="M138.2,486c-2.6-1.7-5.2-3.4-7.7-5.2c-2.5-1.8-4.7-3.8-6.7-6c-2-2.2-3.5-4.6-4.7-7.2c-1.2-2.6-1.8-5.6-1.8-9
			c0-4.5,1-8.6,3-12.4c2-3.8,4.8-7.2,8.5-10c3.6-2.9,7.9-5.1,13-6.7c5-1.6,10.5-2.4,16.5-2.4c6,0,11.5,0.8,16.5,2.4
			c5,1.6,9.3,3.8,13,6.7c3.6,2.9,6.5,6.2,8.6,10c2.1,3.8,3.1,8,3.1,12.4c0,8.4-2.7,15.9-8.2,22.5c-5.4,6.6-13,12.2-22.8,16.6l-7.5-5
			c9.1-4,16.3-8.9,21.7-14.5c5.4-5.6,8.2-12.1,8.2-19.3c0-3.1-0.8-6-2.4-8.9c-1.6-2.9-3.9-5.4-6.8-7.6c-2.9-2.2-6.4-4-10.3-5.2
			c-4-1.3-8.3-1.9-13.1-1.9c-4.7,0-9.1,0.6-13.1,1.9c-4,1.3-7.4,3-10.3,5.2c-2.9,2.2-5.2,4.8-6.8,7.6c-1.6,2.9-2.4,5.8-2.4,8.9
			c0,2.8,0.7,5.3,2.1,7.5c1.4,2.2,3.2,4.3,5.3,6.3c2.2,2,4.5,3.7,7.1,5.3c2.6,1.6,5.1,3.2,7.6,4.7l28.8,17.8c3.1,2,6,4,8.9,6.1
			c2.9,2.1,5.4,4.4,7.5,6.9c2.2,2.5,3.9,5.2,5.1,8c1.3,2.9,1.9,6,1.9,9.5c0,4.6-1.1,8.9-3.4,12.9c-2.3,4-5.4,7.4-9.4,10.2
			s-8.6,5.1-14,6.8c-5.4,1.7-11.1,2.5-17.2,2.5c-6.1,0-11.9-0.8-17.2-2.4c-5.4-1.6-10.1-3.8-14.1-6.7c-4-2.9-7.2-6.3-9.5-10.2
			c-2.3-4-3.4-8.3-3.4-12.9c0-4.5,0.8-8.8,2.5-13s4-8.1,7.1-11.8c3.1-3.7,6.6-7.1,10.7-10.2c4-3.1,8.5-5.9,13.4-8.3l7.9,5
			c-4.5,2-8.7,4.3-12.7,7c-4,2.7-7.6,5.7-10.7,9c-3.1,3.3-5.5,6.8-7.2,10.6c-1.7,3.8-2.6,7.6-2.6,11.5c0,3.5,1,6.7,3.1,9.7
			c2.1,3,4.8,5.6,8.2,7.7c3.3,2.2,7.2,3.8,11.5,5c4.3,1.2,8.7,1.8,13.2,1.8c4.5,0,8.8-0.6,13.1-1.9c4.2-1.3,8-3,11.4-5.1
			c3.3-2.2,6-4.7,8-7.7c2-3,3-6.2,3-9.7c0-2.6-0.8-5.2-2.3-7.6c-1.5-2.4-3.5-4.8-5.9-7.1c-2.4-2.3-5-4.5-7.9-6.5
			c-2.9-2-5.8-3.9-8.6-5.5L138.2,486z"/>
	</g>
	<g>
		<path class="st1" d="M471.9,248.8c-11,0-21.4-2.1-31.1-6.4c-9.8-4.3-18.3-10-25.6-17.3c-7.3-7.3-13.1-15.8-17.3-25.6
			c-4.3-9.8-6.4-20.1-6.4-31.1c0-11,2.1-21.4,6.4-31.1c4.2-9.8,10-18.3,17.3-25.6c7.3-7.3,15.8-13.1,25.6-17.3
			c9.8-4.2,20.1-6.4,31.1-6.4c11,0,21.4,2.1,31.1,6.4c9.8,4.3,18.3,10,25.6,17.3c7.3,7.3,13.1,15.9,17.3,25.6
			c4.2,9.8,6.4,20.1,6.4,31.1c0,11-2.1,21.4-6.4,31.1c-4.3,9.8-10,18.3-17.3,25.6c-7.3,7.3-15.9,13.1-25.6,17.3
			C493.3,246.7,482.9,248.8,471.9,248.8z M471.9,94.5c-10,0-19.5,2-28.5,5.9c-9,3.9-16.8,9.2-23.5,15.9c-6.7,6.7-12,14.5-15.9,23.5
			c-3.9,9-5.9,18.5-5.9,28.5c0,10,2,19.5,5.9,28.5c3.9,9,9.2,16.8,15.9,23.5c6.7,6.7,14.5,12,23.5,15.9c9,3.9,18.5,5.9,28.5,5.9
			c10,0,19.5-2,28.5-5.9c9-3.9,16.8-9.2,23.5-15.9c6.7-6.7,12-14.5,15.9-23.5c3.9-9,5.9-18.5,5.9-28.5c0-10-2-19.5-5.9-28.5
			c-3.9-9-9.2-16.8-15.9-23.5c-6.7-6.7-14.5-12-23.5-15.9C491.4,96.5,481.9,94.5,471.9,94.5z M484.4,167.8c4.5,1.1,8.2,3.6,11.3,7.3
			c3.1,3.8,4.6,8.2,4.6,13.2c0,2.9-0.5,5.8-1.6,8.6c-1,2.8-2.7,5.3-4.9,7.6c-2.2,2.3-5.1,4.2-8.6,5.6c-3.5,1.4-7.6,2.1-12.3,2.1
			c-8.6,0-15.4-1.9-20.4-5.6c-4.9-3.8-8.4-8.6-10.3-14.6l7.9-2.7c1.4,4.9,4,8.6,7.9,11.1c3.9,2.5,8.8,3.8,14.8,3.8
			c6.1,0,10.8-1.6,14.1-4.8c3.3-3.2,4.9-6.9,4.9-11c0-4.4-1.8-8.3-5.5-11.5c-3.7-3.3-9.3-4.9-16.8-4.9h-9v-7.5h9
			c7.5,0,13.1-1.4,16.8-4.3c3.7-2.9,5.5-6.5,5.5-10.8c0-4.1-1.6-7.8-4.9-11.1c-3.3-3.4-8-5.1-14.1-5.1c-5.2,0-9.2,1.2-12.1,3.7
			c-2.9,2.4-5.2,5.7-6.7,9.7l-7.9-2.7c1-2.5,2.2-4.9,3.7-7.1c1.5-2.2,3.3-4.2,5.4-6c2.2-1.8,4.7-3.2,7.5-4.2c2.9-1,6.2-1.5,10.1-1.5
			c4.7,0,8.8,0.7,12.3,2.2c3.5,1.5,6.3,3.4,8.6,5.7c2.2,2.3,3.9,4.9,4.9,7.8c1,2.9,1.6,5.7,1.6,8.5c0,4.9-1.5,8.9-4.6,12.2
			c-3.1,3.2-6.8,5.4-11.3,6.5V167.8z"/>
	</g>
	<g>
		<path class="st1" d="M200.2,179.8c-11.1,0.4-22.5,0.8-34.1,1.3c-11.6,0.4-23.1,0.8-34.7,1c-11.6,0.3-23,0.5-34.3,0.6
			c-11.3,0.1-22.2,0.3-32.8,0.4l-0.8-8.2c10.6,0,21.6-0.1,33-0.2c11.4-0.2,23-0.4,34.6-0.7c11.6-0.3,23.3-0.6,34.9-1
			c11.6-0.4,23-0.9,34.2-1.5V179.8z M105.1,251.9c7.1-1.8,13.5-4,19.2-6.7c5.7-2.6,10.8-5.9,15.2-9.6c4.4-3.8,8.2-8.2,11.4-13.2
			c3.2-5,5.9-10.8,7.9-17.3l7.5,1.9c-4.2,13.8-11.1,25-20.9,33.5c-9.8,8.6-22,14.7-36.8,18.3L105.1,251.9z M137.3,188.8
			c-1.4,6.3-3.3,11.9-5.9,17c-2.5,5.1-5.6,9.8-9.4,14.1l-6.9-4.6c3.6-4,6.6-8.3,8.9-12.6s4.1-9.6,5.5-15.6L137.3,188.8z M200.2,98.9
			c-5.7,0.3-12.2,0.6-19.5,0.8c-7.3,0.3-14.8,0.5-22.4,0.7c-7.6,0.2-14.9,0.4-22,0.5c-7.1,0.1-13.4,0.2-18.8,0.2l-0.6-8.2
			c5.4,0,11.7-0.1,18.9-0.3c7.2-0.2,14.6-0.4,22.3-0.6c7.7-0.2,15.2-0.4,22.6-0.7c7.4-0.3,13.9-0.5,19.6-0.8V98.9z M200.2,125.5
			c-5.7,0.3-12.1,0.6-19.2,0.8c-7.1,0.3-14.4,0.5-21.7,0.7c-7.4,0.2-14.6,0.4-21.5,0.5c-7,0.1-13,0.2-18.2,0.2v-8.2
			c5.3,0,11.4-0.1,18.4-0.2c7-0.1,14.1-0.3,21.5-0.5c7.4-0.2,14.6-0.4,21.7-0.7c7.1-0.3,13.4-0.6,19-1V125.5z M119.6,123.6h7.7v27
			h-7.7V123.6z M204.8,152.6c-5.6,0.4-12.1,0.8-19.5,1.1c-7.5,0.3-15.1,0.6-23,0.8c-7.9,0.2-15.5,0.3-23,0.4c-7.5,0.1-14,0-19.8-0.3
			v-8.2c5.9,0.3,12.5,0.4,20,0.3c7.5-0.1,15.1-0.2,23-0.4c7.9-0.2,15.5-0.5,22.9-0.9c7.4-0.4,13.9-0.8,19.4-1.3V152.6z M211.9,259.4
			c-7.4-4.7-15.2-9.6-23.4-14.6c-8.2-5-15.9-9.5-23-13.6l4.2-7.1l47.2,28L211.9,259.4z M192.5,94.3h7.7v27h-7.7V94.3z M192.5,175
			h7.7v38.2h-7.7V175z"/>
	</g>
	<g>
		<path class="st1" d="M844.7,488.3c-11.1,0.4-22.5,0.8-34.1,1.3c-11.6,0.4-23.1,0.8-34.7,1c-11.6,0.3-23,0.5-34.3,0.6
			c-11.3,0.1-22.2,0.3-32.8,0.4l-0.8-8.2c10.6,0,21.6-0.1,33-0.2c11.4-0.2,23-0.4,34.6-0.7c11.6-0.3,23.3-0.6,34.9-1
			c11.6-0.4,23-0.9,34.2-1.5V488.3z M744.8,465.3c7.2-3.6,13-7,17.2-10.1c4.2-3.1,8-6.7,11.2-10.8c3.2-3.8,6-8.2,8.4-13.2
			c2.4-5,4.7-11.4,6.9-19l-7.5-2.1c-2.1,7.4-4.1,13.2-6.2,17.5c-2,4.3-4.4,8-7,11.4c-1.4,1.8-2.9,3.5-4.5,5.1
			c-1.6,1.6-3.4,3.2-5.5,4.8c-2.1,1.6-4.5,3.2-7.2,4.8c-2.7,1.6-5.9,3.3-9.5,5.1L744.8,465.3z M785.5,495.4
			c-1.4,6.6-3.7,12.9-6.9,19c-3.2,6.1-7.1,11.6-11.7,16.5l-6.9-4.2c4.9-5.3,8.7-10.6,11.5-15.8c2.8-5.2,4.9-11,6.3-17.2L785.5,495.4
			z M792.5,578.5c-4.5-1.2-8.5-2.9-12-5.2c-3.5-2.3-6.2-5.2-8.3-8.7c-2-3.5-3-7.6-3-12.2c0-4.6,1-8.7,3-12.2c2-3.5,4.8-6.4,8.3-8.7
			c3.5-2.3,7.5-4.1,12-5.2c4.5-1.2,9.3-1.8,14.3-1.8s9.8,0.6,14.3,1.8c4.5,1.2,8.5,2.9,12,5.2c3.5,2.3,6.2,5.2,8.3,8.7
			c2,3.5,3,7.6,3,12.2c0,4.6-1,8.7-3,12.2c-2,3.5-4.8,6.4-8.3,8.7c-3.5,2.3-7.5,4.1-12,5.2c-4.5,1.2-9.3,1.8-14.3,1.8
			S797,579.7,792.5,578.5z M818.1,571c3.6-0.8,6.8-1.9,9.6-3.4c2.8-1.5,5-3.5,6.6-6c1.6-2.5,2.4-5.5,2.4-9.1c0-3.5-0.8-6.5-2.4-9
			c-1.6-2.6-3.8-4.6-6.6-6.1c-2.8-1.5-6-2.7-9.6-3.4c-3.6-0.8-7.4-1.1-11.3-1.1c-4,0-7.8,0.4-11.4,1.1c-3.6,0.8-6.7,1.9-9.5,3.4
			c-2.8,1.5-5,3.6-6.6,6.1c-1.6,2.6-2.4,5.6-2.4,9c0,3.6,0.8,6.7,2.4,9.1c1.6,2.5,3.8,4.5,6.6,6c2.8,1.5,6,2.7,9.5,3.4
			c3.6,0.8,7.3,1.1,11.4,1.1C810.7,572.1,814.5,571.7,818.1,571z M805.4,443.8l-18.2-10.2l-3.8,6.7l15.5,9L805.4,443.8z
			 M790.5,467.8c7.2-3.6,13.1-7.2,17.6-10.7c4.5-3.5,8.4-7.3,11.9-11.5c3.2-3.8,6-8.3,8.5-13.5c2.4-5.2,4.8-11.7,7-19.3l-7.5-2.1
			c-2.1,7.4-4.2,13.3-6.3,17.7s-4.5,8.3-7.1,11.6c-2.9,3.8-6.4,7.4-10.6,10.8c-4.1,3.4-9.9,6.9-17.2,10.6L790.5,467.8z M866.4,460.1
			L831.7,439l-4.2,7.1c5.4,3.2,11.2,6.7,17.2,10.5c6.1,3.8,11.7,7.5,17,11.1L866.4,460.1z M836.9,483.5h7.7v39.3h-7.7V483.5z"/>
	</g>
	<g>
		<path class="st1" d="M708,169.8c13.1,0,26.8-0.1,41.2-0.3c14.3-0.2,28.7-0.5,43.2-0.8c14.4-0.3,28.7-0.8,42.8-1.4
			c14.1-0.6,27.6-1.3,40.2-2.1l-0.2,8.2c-12.5,0.8-25.8,1.5-39.9,2.1c-14.1,0.6-28.3,1-42.6,1.4c-14.4,0.3-28.7,0.6-42.9,0.8
			c-14.3,0.2-27.9,0.3-40.9,0.3L708,169.8z M795.1,204.3c-7.8,0.3-15.7,0.5-23.8,0.6c-8.1,0.1-14.9,0.2-20.5,0.2l-0.6-8.2
			c3.1,0,6.5,0,10.2-0.1c3.8-0.1,7.7-0.1,11.7-0.2c4-0.1,8-0.1,12-0.2c4-0.1,7.6-0.2,11-0.3V204.3z M848.8,110.2
			c-3.9,0.1-8.5,0.3-13.9,0.5c-5.4,0.2-11,0.4-16.9,0.5c-5.9,0.1-12,0.3-18.3,0.5c-6.3,0.2-12.4,0.3-18.3,0.4
			c-5.9,0.1-11.5,0.2-16.6,0.3c-5.2,0.1-9.6,0.2-13.4,0.2l-0.6-8.2c5.7,0,12.9-0.1,21.5-0.3c8.6-0.2,17.6-0.4,27-0.6
			c9.3-0.2,18.4-0.5,27.3-0.8c8.8-0.3,16.3-0.6,22.3-0.9V110.2z M795.1,229.3c-7.8,0.3-15.6,0.5-23.3,0.6c-7.7,0.1-14.4,0.2-20,0.2
			l-0.6-8.2c3.1,0,6.4,0,10.1-0.1c3.7-0.1,7.5-0.1,11.4-0.2c3.9-0.1,7.8-0.1,11.6-0.2c3.8-0.1,7.4-0.2,10.8-0.3V229.3z M751.2,222
			l7.7,2.1v29.3h-7.7V222z M799.3,252.5c-7.8,1.8-15.8,3.1-24,4c-8.2,0.8-16.2,1.2-24,1v-8.2c7.7,0.1,15.4-0.2,23.3-1
			c7.9-0.8,15.4-2.1,22.7-3.8L799.3,252.5z M803.2,159.3c-4.4,0-8.6-0.4-12.4-1.2c-3.8-0.8-7.2-2.1-10-3.7c-2.8-1.7-5.1-3.7-6.8-6.1
			c-1.7-2.4-2.5-5.2-2.5-8.4c0-3.2,0.8-6,2.5-8.4c1.7-2.4,3.9-4.5,6.8-6.1c2.8-1.7,6.2-2.9,10-3.7c3.8-0.8,8-1.2,12.4-1.2
			c4.4,0,8.6,0.4,12.4,1.2c3.8,0.8,7.2,2.1,10,3.7c2.8,1.7,5.1,3.7,6.8,6.1c1.7,2.4,2.5,5.2,2.5,8.4c0,3.2-0.8,6-2.5,8.4
			c-1.7,2.4-3.9,4.5-6.8,6.1c-2.8,1.7-6.2,2.9-10,3.7C811.7,158.9,807.6,159.3,803.2,159.3z M803.2,127.8c-6.7,0-12.4,0.8-17,2.5
			c-4.6,1.7-6.9,4.8-6.9,9.5c0,4.6,2.3,7.8,6.9,9.5c4.6,1.7,10.3,2.5,17,2.5c6.7,0,12.4-0.8,17-2.5c4.6-1.7,6.9-4.8,6.9-9.5
			c0-4.6-2.3-7.8-6.9-9.5C815.5,128.6,809.9,127.8,803.2,127.8z M826.5,93.3c-7.4-0.4-15-1-22.8-1.9c-7.8-0.8-15.4-1.8-23-2.9
			l0.6-9.2c8,1.4,15.7,2.5,23.2,3.4c7.5,0.9,15.2,1.6,23.2,2L826.5,93.3z M787.4,198.8h7.7v28.4h-7.7V198.8z M799.3,173.1h7.7V194
			h-7.7V173.1z M807.9,197.4c7.8-0.1,15-0.3,21.6-0.5c6.6-0.2,13.5-0.5,20.8-0.9v8.4c-7.1,0.3-14,0.5-20.8,0.7
			c-6.8,0.2-13.8,0.4-21.2,0.5L807.9,197.4z M807.9,197.4l7.7,4v53.1h-7.7V197.4z M807.9,248.4c7.8-0.1,15.7-0.3,23.7-0.5
			c8-0.2,15.6-0.5,22.9-0.9v8.4c-7.1,0.3-14.8,0.5-23,0.7c-8.2,0.2-16.1,0.4-23.6,0.5V248.4z M822.9,222.7c4.5-0.1,9-0.3,13.5-0.5
			c4.5-0.2,8.8-0.5,12.9-0.7v8.4c-4,0.3-8.4,0.5-13.1,0.6c-4.7,0.1-9.1,0.3-13.3,0.4V222.7z"/>
	</g>
	<g>
		<path class="st1" d="M396.8,499.2c3.9-5.2,7.3-10.2,10.2-15c2.9-4.9,5.5-9.8,7.7-14.8c2.2-5,4.1-10.2,5.5-15.7s2.7-11.4,3.7-18
			l8.2,0.4c-2,13-5.3,24.9-10,35.7c-4.7,10.9-10.9,21.5-18.6,32L396.8,499.2z M447.4,438.6c-4.3,0.3-8.3,0.5-11.9,0.7
			c-3.6,0.2-7.2,0.3-10.7,0.4c-3.5,0.1-7,0.1-10.4,0.2c-3.5,0.1-7.2,0.1-11.3,0.1l-0.6-8.2c4.2,0,8.1,0,11.7-0.1
			c3.6-0.1,7.2-0.2,10.7-0.3c3.5-0.1,7-0.3,10.7-0.5c3.6-0.2,7.6-0.4,11.9-0.6V438.6z M444.9,488.9c-3.1-4.3-5.8-8.2-8.3-11.7
			c-2.4-3.5-5.1-7-7.8-10.7l5.9-5l14.8,20.3L444.9,488.9z M522.4,528.7c-5.2,0.3-11.2,0.5-18.2,0.6c-7,0.1-14.1,0.2-21.4,0.3
			c-7.3,0.1-14.4,0.1-21.3,0.2c-6.9,0.1-12.9,0.1-17.9,0.1L443,522c5.2,0,11.2,0,18.2-0.1c7-0.1,14.1-0.1,21.5-0.2
			c7.4-0.1,14.6-0.2,21.6-0.4c7-0.2,13.1-0.5,18.1-0.7V528.7z M443,522h7.7v43.1l-7.7,2.1V522z M522.4,572.3H443v-8.2h79.4V572.3z
			 M444.7,500.2c3.6-5.2,6.9-10.2,9.7-15.2c2.9-4.9,5.3-10,7.4-15.3c2.1-5.2,3.8-10.7,5.1-16.5c1.3-5.8,2.4-12,3.2-18.7l8.2,0.4
			c-1.5,13.5-4.6,25.9-9.1,37.1c-4.5,11.2-10.5,22.1-17.9,32.7L444.7,500.2z M496.3,437.5c-4.3,0.3-8.3,0.5-11.8,0.7
			s-7,0.3-10.2,0.4c-3.3,0.1-6.6,0.1-10,0.2c-3.4,0.1-7.1,0.1-11.2,0.1l-0.6-8.2c4.2,0,8,0,11.5-0.1c3.5-0.1,6.9-0.2,10.2-0.3
			c3.3-0.1,6.8-0.3,10.3-0.5c3.6-0.2,7.5-0.4,11.8-0.6V437.5z M494.9,502.1c-3.9-5.6-7.4-10.5-10.5-14.8c-3.1-4.3-6.6-9.2-10.7-14.6
			l6.3-5l21.3,29.7L494.9,502.1z M514.7,407.2h7.7v97.6h-7.7V407.2z M514.7,525.9h7.7v42.6h-7.7V525.9z"/>
	</g>
</g>
</svg>
