<svg xmlns="http://www.w3.org/2000/svg" xmlns:xlink="http://www.w3.org/1999/xlink" viewBox="0 0 943.31 540.6"><defs><style>.cls-1,.cls-4,.cls-7{fill:none;}.cls-2{clip-path:url(#clip-path);}.cls-3{fill:#231916;}.cls-4{stroke:#231916;stroke-width:0.3px;}.cls-5{fill:#44403f;}.cls-6{fill:#fff;}.cls-7{stroke:#fff;}</style><clipPath id="clip-path"><rect class="cls-1" width="943.31" height="540.6"/></clipPath></defs><title>columns-5</title><g id="Layer_2" data-name="Layer 2"><g id="Layer_1-2" data-name="Layer 1"><g class="cls-2"><path class="cls-3" d="M696.93,383.46a2.09,2.09,0,0,0,.43.66,2.12,2.12,0,0,0,.66.44,2,2,0,0,0,.8.16,1.92,1.92,0,0,0,.79-.16,2,2,0,0,0,1.1-1.1,2.08,2.08,0,0,0,0-1.6,2,2,0,0,0-1.1-1.1,1.92,1.92,0,0,0-.79-.16,2,2,0,0,0-.8.16,2.12,2.12,0,0,0-.66.44,2.09,2.09,0,0,0-.43.66,2.08,2.08,0,0,0,0,1.6m2.83.14a1.37,1.37,0,0,1-1.89,0,1.35,1.35,0,0,1,0-1.88,1.37,1.37,0,0,1,1.89,0,1.33,1.33,0,0,1,0,1.88M693.55,363c-.91.06-1.88.11-2.92.15s-2,0-2.9,0V364h1.4l1.49,0,1.5-.05,1.43-.07Zm1.54,6.34a15.91,15.91,0,0,1-3.45.92,22,22,0,0,1-3.87.24l0,.74a22.39,22.39,0,0,0,4-.28,18.92,18.92,0,0,0,3.6-.92Zm-7.36,1.88.74-.2V363.8h-.74ZM701.49,367h-3.32l-.38.36.38.42,3.32,0Zm-4.06,8.82h.74V359.14h-.74Zm-2.16-26.62a31.37,31.37,0,0,1-3.56.88,29.29,29.29,0,0,1-3.88.44l0,.74a29.22,29.22,0,0,0,4-.46c1.26-.24,2.48-.53,3.67-.88Zm-7.48,2,.74-.2v-8h-.74Zm9.64,4.58h.74V339.14h-.74Zm1.92-31.74-4.16-2.16-.36.68,2,1.07,2.07,1.13Zm-9.68.8a8.35,8.35,0,0,0,3.57-2.1,7.59,7.59,0,0,0,1.91-3.56l-.72-.18a9.51,9.51,0,0,1-.7,1.85,5.77,5.77,0,0,1-1,1.43,6.93,6.93,0,0,1-1.45,1.08,11.3,11.3,0,0,1-1.91.82Zm8.5,10.4h-7.42v-.78h7.42Zm0-3.28q-.75,0-1.71.06l-2,0-2,0h-1.68v-.76h1.7l2,0,2-.06,1.7-.07Zm0,2.82h-.74v-5.64h.74Zm-7.42-5.34h.74v5.44h-.74Zm-5.66-2.5,3.94,0,4.13-.08c1.38,0,2.74-.08,4.1-.13s2.63-.12,3.85-.2l0,.78c-1.2.08-2.48.15-3.82.2s-2.71.1-4.08.13l-4.11.08-3.91,0Zm6.22-26.2q-.82-.22-1.59-.48c-.52-.17-1.05-.37-1.61-.58l-.24.8q.78.28,1.59.54c.54.17,1.07.33,1.61.48Zm-.68,8a2.41,2.41,0,0,0,1.35-1.28,2.27,2.27,0,0,0,0-1.82,2.41,2.41,0,0,0-1.35-1.28,2.81,2.81,0,0,0-1.06-.19,2.78,2.78,0,0,0-1.06.19,2.45,2.45,0,0,0-.82.52,2.22,2.22,0,0,0-.53.76,2.27,2.27,0,0,0,0,1.82,2.22,2.22,0,0,0,.53.76,2.45,2.45,0,0,0,.82.52,2.78,2.78,0,0,0,1.06.19,2.81,2.81,0,0,0,1.06-.19m.31-3.35a1.62,1.62,0,0,1,0,2.32,1.86,1.86,0,0,1-1.37.5,1.83,1.83,0,0,1-1.37-.5,1.62,1.62,0,0,1,0-2.32,1.83,1.83,0,0,1,1.37-.5,1.86,1.86,0,0,1,1.37.5m1.59-3.08c-.43,0-.93.05-1.49.06l-1.75,0-1.75,0h-1.47l.06.76h1.46l1.72,0,1.73,0,1.49,0Zm1.68,6H695v-8h-.74Zm3.72-4.2h-3.24v.76h3.24Zm-.48,4.62h.74v-9.58h-.74Zm-3.1,4.24-2-1.36-.4.6,1.86,1.28Zm-6.3,1.88a6.73,6.73,0,0,0,2.79-1.94,7.18,7.18,0,0,0,1.39-3l-.76-.16a9.93,9.93,0,0,1-.49,1.56,4.9,4.9,0,0,1-.74,1.21,5.32,5.32,0,0,1-1.09.95,8.82,8.82,0,0,1-1.54.78Zm12.34-.38-3.2-2.26-.44.64.83.58.71.52.72.54.86.64Zm-7.06.7A6.72,6.72,0,0,0,696,313a7.8,7.8,0,0,0,1.25-3.12l-.76-.16a11,11,0,0,1-.42,1.58,5.88,5.88,0,0,1-.68,1.32,5.56,5.56,0,0,1-1,1.09,7.46,7.46,0,0,1-1.45.89ZM692,282.72c-.86.07-1.66.11-2.42.13s-1.56,0-2.4,0v.78l2.39,0c.75,0,1.56-.05,2.43-.1Zm5.68,3.7h-3.2v.78h3.2Zm-10.5,4.48h.74v-7.8h-.74Zm6.82,2.9h.74V280.34H694Zm-1.64-4.26q-1.37.38-2.55.6a26,26,0,0,1-2.63.34v.76c1-.09,1.88-.21,2.72-.36s1.71-.35,2.62-.6Zm5.14,6.26h.74V279.14h-.74Zm-3.62-33c-1.11.07-2.21.12-3.31.15s-2.17.06-3.21.07l.06.78c.93,0,1.9,0,2.9-.07l2.92-.11Zm-7,9.2a12.34,12.34,0,0,0,2.38-1.59,14.91,14.91,0,0,0,2.08-2.13,11.32,11.32,0,0,0,.84-1.25c.26-.46.51-.93.73-1.41a14.34,14.34,0,0,0,.57-1.44c.16-.48.28-.94.38-1.38l-.9.26a12.1,12.1,0,0,1-.78,2.37,11.31,11.31,0,0,1-1.46,2.41,13.32,13.32,0,0,1-2,2,12.69,12.69,0,0,1-2.26,1.48Zm10.58,3.76h.74V259.14h-.74Zm-9.9-33.66a11,11,0,0,0,4-2.74,8.86,8.86,0,0,0,2.16-4.1l-.92.26a7,7,0,0,1-.69,1.84,8.38,8.38,0,0,1-1.22,1.65,10.28,10.28,0,0,1-1.69,1.41,10.39,10.39,0,0,1-2.1,1.08Zm11.74,5.8-1.94.12q-1.14.06-2.34.09l-2.35,0c-.77,0-1.43,0-2,0v.78c.54,0,1.2,0,2,0l2.36,0,2.35-.08c.76,0,1.4-.07,1.94-.11Zm-8.62.6h.74v-2.88h-.74Zm7.52-3.48c-.54,0-1.13.07-1.79.09l-2,.07-2,0-1.73,0v.78l1.71,0,2,0,2-.07,1.81-.08Zm-.74.38h.74v-3h-.74Zm.74-3.34-1.85.07-2.09.07-2.06,0-1.78,0,.06.78,1.77,0,2-.05,2.07-.07,1.84-.08Zm-4.48-6.8-1.57.07-1.47,0-1.44,0h-1.5l.06.78,2.63,0c.82,0,1.7,0,2.65-.08Zm3.74,6.12h.74v-8.28h-.74Zm-2.1-18.24a31.56,31.56,0,0,1-3.54.88,28.79,28.79,0,0,1-3.86.44l0,.74a28.74,28.74,0,0,0,4-.46c1.24-.24,2.46-.53,3.65-.88Zm-7.44,2,.74-.2v-8h-.74Zm13.6-4.34h-3.32l-.38.36.38.42,3.32,0Zm-4.06,8.92h.74V213.14h-.74ZM694.53,201h3.34v-.78h-3.34Zm.24,3.56c-.52.08-1.08.16-1.66.23l-1.78.2-1.78.16q-.88.08-1.68.09v-4h-.74V206c.54,0,1.15,0,1.82-.09l2-.15,2-.21c.67-.07,1.28-.15,1.83-.23Zm2.66,5.26h.74V193.14h-.74Zm-3.88-9.26q-1.59.14-3.24.18l-3.18.06v.78c1,0,2.06,0,3.18-.07s2.2-.08,3.24-.15Zm-.74.4h.74V196.8h-.74Zm.74-4.48c-1.11.06-2.22.1-3.34.12l-3.24.06.06.78,3.22-.06,3.3-.12ZM685.69,187l3.83,0,3.93-.08c1.3,0,2.6-.08,3.9-.13s2.54-.12,3.74-.2l0-.78c-1.22.08-2.47.15-3.77.2s-2.61.1-3.93.13l-3.95.08-3.85,0Zm13-6.1-1.89.12c-.73,0-1.47.07-2.23.09l-2.24,0c-.74,0-1.38,0-1.94,0v.78q.81,0,1.92,0l2.25,0,2.24-.08c.72,0,1.35-.07,1.89-.11Zm-.24-5.3c-.31,0-.68.05-1.1.06l-1.39,0-1.55,0-1.54,0h-2.48v.78h1.75l2.26,0,2.27-.05c.73,0,1.32,0,1.78-.07Zm-8.06,6.3.74-.2v-5.52h-.74Zm-3.9-21.88a10,10,0,0,0,2-1.8,13,13,0,0,0,2.62-4.87,12.72,12.72,0,0,0,.47-2.71l-.78.26a11.18,11.18,0,0,1-.44,2.38,12.66,12.66,0,0,1-1,2.32,11.66,11.66,0,0,1-1.47,2.1,10.64,10.64,0,0,1-1.92,1.7Zm5.1-9.36c-.84,0-1.7.07-2.57.09l-2.55.05.06.76,2.36,0,2.42-.07Zm3.22,3.9h-3.2v.78h3.2Zm-.48,7.2H695V148.34h-.74Zm3.16,2h.74V147.14h-.74Zm-5.34-23.69a2.87,2.87,0,0,0,.93-.65,3.09,3.09,0,0,0,.57-.92,2.91,2.91,0,0,0,0-2.12,3.09,3.09,0,0,0-.57-.92,2.87,2.87,0,0,0-.93-.65,3.08,3.08,0,0,0-1.28-.25,3,3,0,0,0-1.28.25,2.67,2.67,0,0,0-.93.65,2.74,2.74,0,0,0-.57.92,2.91,2.91,0,0,0,0,2.12,2.74,2.74,0,0,0,.57.92,2.67,2.67,0,0,0,.93.65,3,3,0,0,0,1.28.25,3.08,3.08,0,0,0,1.28-.25m-2.28-.66a2,2,0,0,1-.69-.5,2.21,2.21,0,0,1-.41-.69,2.07,2.07,0,0,1-.14-.78,2.29,2.29,0,0,1,.55-1.47,2,2,0,0,1,.69-.5,2.35,2.35,0,0,1,1-.19,2.4,2.4,0,0,1,1,.19,2,2,0,0,1,.7.5,2.34,2.34,0,0,1,.41.7,2.37,2.37,0,0,1,.14.77,2.29,2.29,0,0,1-.14.78,2.42,2.42,0,0,1-.41.69,2,2,0,0,1-.7.5,2.4,2.4,0,0,1-1,.19,2.35,2.35,0,0,1-1-.19m11.66-4.37h-3.32l-.38.36.38.42,3.32,0Zm-6.82-2.88-1.79.08-2.3.08-2.3,0-1.79,0,.06.78h1.09l1.4,0,1.55,0,1.56,0,1.41-.05,1.11-.05ZM693,130c-.72-.23-1.42-.47-2.08-.73s-1.36-.54-2.06-.85l-.28.82c.68.29,1.36.56,2.06.81s1.38.48,2.06.71Zm4.44,13.84h.74V127.14h-.74Zm-10-26.46a13.78,13.78,0,0,0,4.1-3.38,13.19,13.19,0,0,0,1.41-2.14,10.89,10.89,0,0,0,.89-2.36l-.92.26a9.66,9.66,0,0,1-2,3.92,13.74,13.74,0,0,1-3.94,3.12Zm6.4-7.88-1.57.07-1.47,0-1.44,0h-1.5l.06.78,2.63,0c.82,0,1.7,0,2.65-.08Zm-1.64,12a3,3,0,0,0,.67,1,3,3,0,0,0,1,.66,3.3,3.3,0,0,0,1.27.24,3.38,3.38,0,0,0,1.27-.24,3.2,3.2,0,0,0,1-.66,3.12,3.12,0,0,0,.67-1,3,3,0,0,0,0-2.37,3.16,3.16,0,0,0-.67-1,3.2,3.2,0,0,0-1-.66,3.38,3.38,0,0,0-1.27-.24,3.3,3.3,0,0,0-1.27.24,3,3,0,0,0-1.69,1.64,3,3,0,0,0,0,2.37m.68-2.1a2.13,2.13,0,0,1,.51-.74,2.69,2.69,0,0,1,.77-.5,2.43,2.43,0,0,1,1-.19,2.38,2.38,0,0,1,1,.19,2.56,2.56,0,0,1,.77.5,2.16,2.16,0,0,1,.52.74,2.39,2.39,0,0,1,0,1.82,2.16,2.16,0,0,1-.52.74,2.56,2.56,0,0,1-.77.5,2.38,2.38,0,0,1-1,.19,2.43,2.43,0,0,1-1-.19,2.69,2.69,0,0,1-.77-.5,2.13,2.13,0,0,1-.51-.74,2.39,2.39,0,0,1,0-1.82m8.66-7.23h-3.32l-.38.36.38.42,3.32,0Zm-4.06,4.14h.74v-9.08h-.74Zm-4-27.38h4.4v-.78h-4.4Zm0-4.14-1.44.08-1.54.06-1.55,0h-1.43v.76h1.42l1.54,0,1.55,0,1.45-.07Zm.9,7.34c-.56.17-1.11.32-1.63.44s-1.07.21-1.61.28-1.11.11-1.69.13-1.21,0-1.89,0l0,.74a26.69,26.69,0,0,0,3.68-.15,21.36,21.36,0,0,0,3.38-.69Zm-6.86,1.58.74-.2v-8h-.74Zm10,4.18h.74V81.14h-.74Z"/><path class="cls-3" d="M721.75,393a3.36,3.36,0,0,0,1.1-.79,3.46,3.46,0,0,0,.71-1.17,4.21,4.21,0,0,0,0-2.86,3.46,3.46,0,0,0-.71-1.17,3.36,3.36,0,0,0-1.1-.79,3.42,3.42,0,0,0-1.41-.29,3.47,3.47,0,0,0-1.42.29,3.36,3.36,0,0,0-1.1.79,3.44,3.44,0,0,0-.7,1.17,4.21,4.21,0,0,0,0,2.86,3.44,3.44,0,0,0,.7,1.17,3.36,3.36,0,0,0,1.1.79,3.47,3.47,0,0,0,1.42.29,3.42,3.42,0,0,0,1.41-.29m-.29-6.12a2.46,2.46,0,0,1,.86.63,2.7,2.7,0,0,1,.56.94,3.64,3.64,0,0,1,0,2.32,2.7,2.7,0,0,1-.56.94,2.46,2.46,0,0,1-.86.63,2.7,2.7,0,0,1-1.12.23,2.75,2.75,0,0,1-1.13-.23,2.55,2.55,0,0,1-.86-.63,2.68,2.68,0,0,1-.55-.94,3.64,3.64,0,0,1,0-2.32,2.68,2.68,0,0,1,.55-.94,2.55,2.55,0,0,1,.86-.63,2.75,2.75,0,0,1,1.13-.23,2.7,2.7,0,0,1,1.12.23m6,11.69h.74V381.86h-.74Zm-10.56-26.8A11.6,11.6,0,0,0,720.1,368a14.82,14.82,0,0,0,1.55-4.87l-.72-.14a19.84,19.84,0,0,1-.54,2.5,11.23,11.23,0,0,1-.89,2.13,10.86,10.86,0,0,1-1.31,1.85,12.51,12.51,0,0,1-1.8,1.64Zm8.2-1-3.24-3.36-.52.54q.78.8,1.56,1.62l1.62,1.74Zm4.2,5.4-2,.12c-.78,0-1.57.07-2.39.09l-2.4,0q-1.17,0-2,0v.78c.54,0,1.21,0,2,0l2.41,0,2.4-.08c.77,0,1.42-.07,2-.11ZM727.77,366h-3.7v.78h3.7Zm-7.26,11h.74v-4.24h-.74Zm6.92-3.24h.74V361.86h-.74Zm-12.26-22,3.91,0,4.11-.08c1.37,0,2.73-.08,4.08-.13s2.62-.12,3.82-.2l0-.78c-1.22.08-2.5.15-3.85.2s-2.72.1-4.1.13l-4.13.08-3.94,0Zm5.4,5.65.74-.2v-3.79h-.74Zm7.6-4.13c-.48,0-1.06,0-1.73.07l-2.07,0-2.06,0h-1.74l.06.76h1.71l2,0,2,0q1,0,1.74-.06Zm-.74,4.28h.74v-3.76h-.74Zm.74-.42h-7.6v.78h7.6Zm.5-9.12-1.87.12c-.72,0-1.45.07-2.21.09l-2.22,0q-1.08,0-1.92,0V349c.54,0,1.18,0,1.9,0l2.22,0,2.22-.08c.72,0,1.34-.07,1.88-.11Zm-8.22.6h.74v-2.84h-.74Zm7.78-3.44q-.81.06-1.83.09l-2.1.07-2.08,0-1.77,0v.78l1.75,0,2.08-.05,2.1-.07,1.85-.08Zm-.74.38h.74v-2.84h-.74Zm.74-3.18-1.89.07-2.18.07-2.15.05-1.82,0,.06.78,1.81,0,2.13-.05,2.16-.07,1.88-.08Zm-2.8-9.73a3.23,3.23,0,0,0,1-.62,3.06,3.06,0,0,0,.68-.89,2.56,2.56,0,0,0,.25-1.09,2.53,2.53,0,0,0-.25-1.09,2.93,2.93,0,0,0-.68-.89,3.23,3.23,0,0,0-1-.62,3.32,3.32,0,0,0-1.23-.23,3.41,3.41,0,0,0-1.24.23,3.35,3.35,0,0,0-1,.62,2.9,2.9,0,0,0-.67.89A2.39,2.39,0,0,0,721,330a2.42,2.42,0,0,0,.25,1.09,3,3,0,0,0,.67.89,3.35,3.35,0,0,0,1,.62,3.41,3.41,0,0,0,1.24.23,3.32,3.32,0,0,0,1.23-.23m-.28-4.56a2.14,2.14,0,0,1,.77.43,2.06,2.06,0,0,1,.52.68,2,2,0,0,1,0,1.7,2.16,2.16,0,0,1-.52.68,2.3,2.3,0,0,1-.77.43,3,3,0,0,1-.95.15,3,3,0,0,1-1-.15,2.35,2.35,0,0,1-.76-.43,2.29,2.29,0,0,1-.51-.68,2,2,0,0,1,0-1.7,2.1,2.1,0,0,1,1.27-1.11,3,3,0,0,1,1-.15,3,3,0,0,1,.95.15m1.4-5.27c-.75-.09-1.5-.21-2.25-.35s-1.51-.3-2.27-.49l-.12.86c.72.16,1.47.31,2.25.44s1.51.25,2.21.34Zm2.06,2.16-1.35.05-1.64,0-1.79.06-1.77,0-1.61,0-1.3,0,.06.78,1.29,0,1.6,0,1.76,0,1.78-.05,1.64-.05,1.33-.05Zm-12.92,11,3.83,0,3.93-.08c1.3,0,2.6-.08,3.9-.13s2.54-.12,3.74-.2l0-.78c-1.22.08-2.47.15-3.77.2s-2.61.1-3.93.13l-3.95.08-3.85,0Zm1.7-24a14.13,14.13,0,0,0,4.11-3.32,11.23,11.23,0,0,0,2.29-4.46l-.92.26a9.3,9.3,0,0,1-2,3.87,14.15,14.15,0,0,1-3.94,3.07Zm6.4-7.78-1.57.07-1.47.05-1.44,0h-1.5l.06.78,2.63,0c.82,0,1.7,0,2.65-.08Zm7.7,3h-3.32l-.38.36.38.42,3.32,0Zm-4.06,4.12h.74v-9.46h-.74Zm.74,1.38-1.94.07-2.29.07-2.27.05-1.88,0,.06.78,1.87,0,2.25-.05,2.27-.07,1.93-.08Zm-.74,5.4h.74v-4.88h-.74Zm-2.58-24.74-3.34-4-.6.54,1.64,1.93c.58.7,1.13,1.39,1.64,2.07Zm-8.18.68a10.62,10.62,0,0,0,3.37-4,15.32,15.32,0,0,0,1.47-5.29l-.76-.1a14.64,14.64,0,0,1-1.35,5,10.13,10.13,0,0,1-3.23,3.73Zm10.76,4.48h.74V281.86h-.74Zm-.16-29.22.87.72c.31.27.62.54.93.83l.9.86.78.79.78-.8-.84-.78-1-.84-1-.82q-.5-.4-.93-.72Zm1.38-17.9-1.86.12c-.71,0-1.43.07-2.17.09l-2.17,0c-.71,0-1.34,0-1.9,0v.78q.81,0,1.89,0l2.18,0,2.17-.08c.7,0,1.32-.07,1.86-.11Zm-.44-3.74-1.71.08-2.13.06-2.13,0h-1.69v.77h1.68l2.12,0,2.14-.05c.69,0,1.26,0,1.72-.07Zm-7.66,4.74.74-.2v-3.78h-.74Zm4.92,6.27a2.77,2.77,0,0,1,.86.43,2.07,2.07,0,0,1,.57.68,1.83,1.83,0,0,1,0,1.7,2.07,2.07,0,0,1-.57.68,2.77,2.77,0,0,1-.86.43,3.6,3.6,0,0,1-1.05.15,3.64,3.64,0,0,1-1.07-.15,2.83,2.83,0,0,1-.85-.43,2.17,2.17,0,0,1-.56-.68,1.83,1.83,0,0,1,0-1.7,2.17,2.17,0,0,1,.56-.68,2.83,2.83,0,0,1,.85-.43,3.64,3.64,0,0,1,1.07-.15,3.6,3.6,0,0,1,1.05.15m.29,4.58a3.37,3.37,0,0,0,1.09-.59,2.73,2.73,0,0,0,.74-.89,2.63,2.63,0,0,0,0-2.28,2.73,2.73,0,0,0-.74-.89,3.37,3.37,0,0,0-1.09-.59,4.14,4.14,0,0,0-1.34-.21,4.2,4.2,0,0,0-1.35.21,3.37,3.37,0,0,0-1.09.59,2.7,2.7,0,0,0-.73.89,2.63,2.63,0,0,0,0,2.28,2.7,2.7,0,0,0,.73.89,3.37,3.37,0,0,0,1.09.59,4.2,4.2,0,0,0,1.35.21,4.14,4.14,0,0,0,1.34-.21M724.07,258h.74v-2.8h-.74Zm-8.9-2.32,3.91,0,4.11-.08c1.37,0,2.73-.08,4.08-.13s2.62-.12,3.82-.2l0-.78c-1.22.08-2.5.15-3.85.2s-2.72.1-4.1.13l-4.13.08-3.94,0Zm8.66-24.82c-1.11.07-2.21.12-3.31.15s-2.17.06-3.21.07l.06.78c.93,0,1.9,0,2.9-.07l2.92-.11Zm-7,9.2a12.34,12.34,0,0,0,2.38-1.59,14.91,14.91,0,0,0,2.08-2.13,11.32,11.32,0,0,0,.84-1.25c.26-.46.51-.93.73-1.41a14.34,14.34,0,0,0,.57-1.44c.16-.48.28-.94.38-1.38l-.9.26a12.1,12.1,0,0,1-.78,2.37,11.31,11.31,0,0,1-1.46,2.41,13.32,13.32,0,0,1-2,2,12.69,12.69,0,0,1-2.26,1.48Zm10.58,3.76h.74V227.14h-.74Zm-11.74-22.72,3.83,0,3.93-.08c1.3,0,2.6-.08,3.9-.13s2.54-.12,3.74-.2l0-.78c-1.22.08-2.47.15-3.77.2s-2.61.1-3.93.13l-3.95.08-3.85,0Zm8.38-.68h.74v-3.14h-.74Zm4.6-4.64-1.91.12q-1.11.06-2.28.09l-2.28,0q-1.11,0-2,0v.78c.54,0,1.19,0,1.94,0l2.29,0,2.28-.08c.74,0,1.37-.07,1.91-.11Zm-8.42.6H721v-3.3h-.74Zm8-3.9q-.81.06-1.86.09l-2.17.07-2.15,0-1.8,0v.78l1.78,0,2.15-.05,2.17-.07,1.88-.08Zm-.74.38h.74v-3.3h-.74Zm.74-3.64-1.92.07-2.24.07-2.22,0-1.86,0,.06.78,1.84,0,2.2-.05,2.23-.07,1.91-.08Zm-12.16-9.82a10.55,10.55,0,0,0,1.66-1.84,10.8,10.8,0,0,0,1.13-2.09,12.8,12.8,0,0,0,.69-2.33,17.21,17.21,0,0,0,.3-2.58l-.78,0a14.2,14.2,0,0,1-.89,4.61,9,9,0,0,1-2.65,3.67Zm6.68-.78-2.56-3.5-.62.48,1.25,1.71c.44.62.86,1.23,1.25,1.83Zm2.22-5.06h-3.16v.78H725Zm-.5,8.26h.74V188.34h-.74Zm3,2h.74V187.14h-.74Zm-4.06-39c-.52,0-1,.06-1.41.07h-1.49l.06.78H722l.67,0,.74,0Zm.44,7.16a7.84,7.84,0,0,1-.86.25c-.27.06-.53.11-.78.14s-.52.06-.78.07l-.88,0,0,.74.91,0c.28,0,.57,0,.85-.07s.56-.08.85-.14l.95-.23Zm-3.34,1.2.74-.2v-7.68l-.74-.4Zm-.66-1.3-.79.33a5.22,5.22,0,0,1-.68.21,5,5,0,0,1-.69.11c-.24,0-.52,0-.82,0l0,.72a8,8,0,0,0,.88,0,5.26,5.26,0,0,0,.78-.12,6.51,6.51,0,0,0,.78-.21c.26-.09.55-.2.86-.33Zm-3,1.4.74-.2v-7.78l-.74-.4Zm2.8-8.46c-.27,0-.51,0-.72.05l-.64,0h-1.44l.06.78h1.39l.63,0,.72,0Zm8.24,3.56H725v.78h2.86Zm-3.48,7.48h.74V162.34h-.74Zm3.08,2h.74V161.14h-.74Zm1.82-21.56-2,.12c-.78,0-1.59.07-2.41.09l-2.42,0c-.79,0-1.46,0-2,0v.78c.54,0,1.21,0,2,0l2.43,0,2.42-.08c.78,0,1.43-.07,2-.11Zm-8.82.6h.74v-2.72h-.74Zm7.72-3.32c-.54,0-1.14.07-1.82.09l-2.08.07-2.06,0-1.76,0v.78l1.74,0,2.06-.05,2.08-.07,1.84-.08Zm-.74.38h.74v-2.72h-.74Zm.74-3.06-1.88.07-2.16.07L722,151l-1.81,0,.06.78,1.8,0,2.11,0,2.14-.07,1.87-.08Zm-.36-7.93A2.78,2.78,0,0,0,727,142a3.72,3.72,0,0,0-1.15-.55,5.4,5.4,0,0,0-2.84,0,3.61,3.61,0,0,0-1.15.55,2.55,2.55,0,0,0-.77.87,2.22,2.22,0,0,0-.28,1.12,2.19,2.19,0,0,0,.28,1.12,2.55,2.55,0,0,0,.77.87,3.61,3.61,0,0,0,1.15.55,5.4,5.4,0,0,0,2.84,0A3.72,3.72,0,0,0,727,146a2.78,2.78,0,0,0,.77-.87,2.3,2.3,0,0,0,.28-1.12,2.32,2.32,0,0,0-.28-1.12m-6,.27a2,2,0,0,1,.6-.62,3.09,3.09,0,0,1,.92-.4,4.65,4.65,0,0,1,1.15-.14,4.56,4.56,0,0,1,1.14.14,3.09,3.09,0,0,1,.92.4,2,2,0,0,1,.61.62,1.75,1.75,0,0,1,0,1.7,2,2,0,0,1-.61.62,2.85,2.85,0,0,1-.92.4,4.56,4.56,0,0,1-1.14.14,4.65,4.65,0,0,1-1.15-.14,2.85,2.85,0,0,1-.92-.4,2,2,0,0,1-.6-.62,1.75,1.75,0,0,1,0-1.7m-6.64,6.06,3.91,0,4.11-.08c1.37,0,2.73-.08,4.08-.13s2.62-.12,3.82-.2l0-.78c-1.22.08-2.5.15-3.85.2s-2.72.1-4.1.13l-4.13.08-3.94,0Zm6.14-26.48q-.82-.23-1.59-.48c-.52-.17-1.05-.37-1.61-.58l-.24.8q.78.28,1.59.54c.54.17,1.07.33,1.61.48Zm-.68,8a2.41,2.41,0,0,0,1.35-1.28,2.27,2.27,0,0,0,0-1.82,2.41,2.41,0,0,0-1.35-1.28,2.81,2.81,0,0,0-1.06-.19,2.78,2.78,0,0,0-1.06.19,2.45,2.45,0,0,0-.82.52,2.22,2.22,0,0,0-.53.76,2.27,2.27,0,0,0,0,1.82,2.22,2.22,0,0,0,.53.76,2.45,2.45,0,0,0,.82.52,2.78,2.78,0,0,0,1.06.19,2.81,2.81,0,0,0,1.06-.19m.31-3.35a1.62,1.62,0,0,1,0,2.32,1.86,1.86,0,0,1-1.37.5,1.83,1.83,0,0,1-1.37-.5,1.62,1.62,0,0,1,0-2.32,1.83,1.83,0,0,1,1.37-.5,1.86,1.86,0,0,1,1.37.5m1.59-3.08c-.43,0-.93.05-1.49.06l-1.75,0-1.75,0h-1.47l.06.76h1.46l1.72,0,1.73,0,1.49,0Zm1.68,6H725v-8h-.74Zm3.72-4.2h-3.24v.76h3.24Zm-.48,4.62h.74v-9.58h-.74Zm-3.1,4.24-2-1.36-.4.6,1.86,1.28Zm-6.3,1.88a6.73,6.73,0,0,0,2.79-1.94,7.18,7.18,0,0,0,1.39-3l-.76-.16a9.93,9.93,0,0,1-.49,1.56,4.9,4.9,0,0,1-.74,1.21,5.32,5.32,0,0,1-1.09,1,8.82,8.82,0,0,1-1.54.78Zm12.34-.38-3.2-2.26-.44.64.83.58.71.52.72.54.86.64Zm-7.06.7A6.72,6.72,0,0,0,726,135a7.8,7.8,0,0,0,1.25-3.12l-.76-.16a11,11,0,0,1-.42,1.58,5.88,5.88,0,0,1-.68,1.32,5.56,5.56,0,0,1-1,1.09,7.46,7.46,0,0,1-1.45.89ZM723,109.6l.28-4.46-.78,0-.24,4.44Zm-3.54.3-.32-4.48-.8.06.4,4.48Zm6.08-.94c-1.5.2-3,.35-4.47.46s-3.07.18-4.75.22l.12.78c1.62,0,3.18-.14,4.67-.26s3-.27,4.55-.46Zm-1.1-5.74c-.47,0-1,.08-1.69.11l-2,.09-2,.06-1.69,0,.06.78,1.66,0,2-.06,2-.09,1.71-.09Zm7,3.66h-3.32l-.38.36.38.42,3.32,0ZM727.43,113h.74V101.14h-.74Zm1.84,2.44-1.93.12q-1.14.06-2.34.09l-2.35,0q-1.14,0-2,0v.78c.54,0,1.2,0,2,0l2.35,0,2.35-.08c.76,0,1.4-.07,1.94-.11Zm-8.6.8h.74v-3.86h-.74Zm7.64-32.56-2,.08-2.27.07-2.26,0h-2l.06.77,1.94,0,2.25,0,2.25-.06,2-.07Zm1.1,6.06-4.5-3-.42.66,1.07.72,1.15.78,1.15.79,1.07.73Zm-10.2.88a9.7,9.7,0,0,0,3.69-2.38,8.35,8.35,0,0,0,1.93-3.94l-.74-.2a7.49,7.49,0,0,1-1.77,3.66,8.64,8.64,0,0,1-3.45,2.16Zm-3.52,4.66,3.83,0,3.93-.08c1.3,0,2.6-.08,3.9-.13s2.54-.12,3.74-.2l0-.78c-1.22.08-2.47.15-3.77.2s-2.61.1-3.93.13l-3.95.08-3.85,0Zm8.24-.68h.74V90.54h-.74Z"/><path class="cls-3" d="M745.69,347.8l3.83,0,3.93-.08c1.3,0,2.6-.08,3.9-.13s2.54-.12,3.74-.2l0-.78c-1.22.08-2.47.15-3.77.2s-2.61.1-3.93.13l-3.95.08-3.85,0Zm8.38-.68h.74V344h-.74Zm4.6-4.64-1.91.12q-1.11.06-2.28.09l-2.28,0q-1.11,0-2,0v.78c.54,0,1.19,0,1.94,0l2.29,0,2.28-.08c.74,0,1.37-.07,1.91-.11Zm-8.42.6H751v-3.3h-.74Zm8-3.9q-.81.06-1.86.09c-.71,0-1.43.05-2.17.06l-2.15.05-1.8,0v.78l1.78,0,2.15-.05,2.17-.07,1.88-.08Zm-.74.38h.74v-3.3h-.74Zm.74-3.64-1.92.07-2.24.07-2.22.05-1.86,0,.06.78,1.84,0,2.2,0,2.23-.07,1.91-.08Zm0-21.3-1.9.08q-1.08,0-2.19.06l-2.16,0-1.83,0,.06.78,1.66,0,2,0,2,0q1,0,1.74-.06Zm-.68,4.62c.09-.41.17-.8.25-1.16s.13-.71.19-1.06.1-.71.14-1.1.07-.82.1-1.3l-.8.26c0,.39-.06.75-.08,1.08s-.07.66-.11,1-.11.65-.18,1-.16.7-.25,1.1Zm1.68,9.62-2,.12c-.78,0-1.59.07-2.41.09l-2.42,0c-.79,0-1.46,0-2,0v.78c.54,0,1.21,0,2,0l2.43,0,2.42-.08,2-.11Zm-8.82.6h.74v-2.9h-.74Zm7.72-3.5c-.54,0-1.14.07-1.82.09s-1.38.05-2.08.06l-2.06.05-1.76,0V327l1.74,0,2.06-.05,2.08-.07,1.84-.08Zm-.74.38h.74v-2.9h-.74Zm.74-3.24-1.88.07-2.16.07-2.13.05-1.81,0,.06.78,1.8,0,2.11-.05,2.14-.07,1.87-.08Zm-13-2.06,3.91,0,4.11-.08c1.37,0,2.73-.08,4.08-.13s2.62-.12,3.82-.2l0-.78c-1.22.08-2.5.15-3.85.2s-2.72.1-4.1.13l-4.13.08-3.94,0Zm8.5-30.88-1.57.07-1.47,0-1.44,0h-1.5l.06.78,2.63,0c.82,0,1.7,0,2.65-.08Zm-6.4,8.34a15.57,15.57,0,0,0,2.16-1.66,18.48,18.48,0,0,0,1.9-2.06,14.72,14.72,0,0,0,1.47-2.28,10.46,10.46,0,0,0,.87-2.34l-.92.26a8.47,8.47,0,0,1-.76,2,12.48,12.48,0,0,1-1.33,2,16.52,16.52,0,0,1-1.79,1.87,18.2,18.2,0,0,1-2.12,1.61Zm10.14,1h.74V287.86h-.74Zm1.84,2.64-1.93.12q-1.14.06-2.34.09l-2.35,0q-1.14,0-2,0v.78c.54,0,1.2,0,2,0l2.35,0,2.35-.08c.76,0,1.4-.07,1.94-.11Zm-8.6.8h.74v-4.22h-.74Zm-.08-28.67a2.65,2.65,0,0,0,.82-.56,2.69,2.69,0,0,0,.53-.82,2.67,2.67,0,0,0,0-2,2.69,2.69,0,0,0-.53-.82,2.59,2.59,0,0,0-1.88-.77,2.61,2.61,0,0,0-1.06.21,2.54,2.54,0,0,0-.82.56,2.37,2.37,0,0,0-.53.82,2.67,2.67,0,0,0,0,2,2.37,2.37,0,0,0,.53.82,2.54,2.54,0,0,0,.82.56,2.61,2.61,0,0,0,1.06.21,2.64,2.64,0,0,0,1.06-.21m.31-3.67a2,2,0,0,1,0,2.6,1.75,1.75,0,0,1-1.37.56,1.72,1.72,0,0,1-1.37-.56,2,2,0,0,1,0-2.6,1.72,1.72,0,0,1,1.37-.56,1.75,1.75,0,0,1,1.37.56m.25-5.06c-.54-.19-1.06-.38-1.57-.59s-1-.43-1.57-.67l-.28.82q.75.35,1.56.63l1.58.57Zm1.42,1.76c-.43,0-.93.05-1.49.06l-1.75,0-1.76,0h-1.48l.06.76h1.46l1.73,0,1.74,0,1.49,0Zm5.08,1.94h-3V270h3Zm-3.52,7.26h.74V263.06h-.74Zm3.34,2h.74V261.86h-.74Zm-6.13-21.87a2.46,2.46,0,0,0,.7.84,3.3,3.3,0,0,0,1.06.53,4.77,4.77,0,0,0,1.34.18,4.7,4.7,0,0,0,1.33-.18,3.2,3.2,0,0,0,1.06-.53,2.38,2.38,0,0,0,.71-.84,2.44,2.44,0,0,0,.25-1.1,2.52,2.52,0,0,0-.25-1.11,2.32,2.32,0,0,0-.71-.82,3.2,3.2,0,0,0-1.06-.53,4.36,4.36,0,0,0-1.33-.19,4.43,4.43,0,0,0-1.34.19,3.3,3.3,0,0,0-1.06.53,2.31,2.31,0,0,0-.95,1.93,2.32,2.32,0,0,0,.25,1.1m1.21-2.54a3.85,3.85,0,0,1,3.76,0,1.77,1.77,0,0,1,0,2.88,3.85,3.85,0,0,1-3.76,0,1.77,1.77,0,0,1,0-2.88m-.82-8.25,1.6,0,1.63,0,1.59-.06,1.46-.07v-.8c-.92,0-1.94.1-3,.14l-3.24.1Zm6.74,1.4-1.86.12c-.71,0-1.43.07-2.17.09l-2.17,0c-.71,0-1.34,0-1.9,0v.78q.81,0,1.89,0l2.18,0,2.17-.08c.7,0,1.32-.07,1.86-.11Zm-.44-4.94-1.71.08-2.13.06-2.13,0h-1.69v.77H752l2.12,0,2.14-.05c.69,0,1.26,0,1.72-.07Zm-7.66,5.94.74-.2v-5.18h-.74Zm3.72,2.92h.74V248.8h-.74Zm-8.9.42,3.91,0,4.11-.08c1.37,0,2.73-.08,4.08-.13s2.62-.12,3.82-.2l0-.78c-1.22.08-2.5.15-3.85.2s-2.72.1-4.1.13l-4.13.08-3.94,0ZM758.67,221l-1.88.12c-.72,0-1.47.07-2.23.09l-2.24,0c-.73,0-1.37,0-1.93,0V222c.54,0,1.18,0,1.91,0l2.24,0,2.24-.08c.72,0,1.35-.07,1.89-.11Zm-8.28.6h.74v-2.5h-.74Zm7.84-3.1c-.54,0-1.15.07-1.84.09s-1.4,0-2.12.06l-2.1.05-1.78,0v.78l1.76,0,2.1-.05,2.12-.07,1.86-.08Zm-.74.38h.74v-2.5h-.74Zm.74-2.84-1.9.07-2.2.07-2.17.05-1.83,0,.06.78,1.82,0,2.15,0,2.18-.07,1.89-.08Zm1,15-2,.12c-.78,0-1.59.07-2.41.09l-2.42,0c-.79,0-1.46,0-2,0V232c.54,0,1.21,0,2,0l2.43,0,2.42-.08c.78,0,1.43-.07,2-.11Zm-8.82.6h.74v-2.5h-.74Zm7.72-3.1c-.54,0-1.14.07-1.82.09s-1.38,0-2.08.06l-2.06.05-1.76,0v.78l1.74,0,2.06-.05,2.08-.07,1.84-.08Zm-.74.38h.74v-2.5h-.74Zm.74-2.84-1.88.07-2.16.07-2.13.05-1.81,0,.06.78,1.8,0,2.11,0,2.14-.07,1.87-.08Zm-13-1.42,3.91,0,4.11-.08c1.37,0,2.73-.08,4.08-.13s2.62-.12,3.82-.2l0-.78c-1.22.08-2.5.15-3.85.2s-2.72.1-4.1.13l-4.13.08-3.94,0ZM751.75,207a3.36,3.36,0,0,0,1.1-.79,3.46,3.46,0,0,0,.71-1.17,4.21,4.21,0,0,0,0-2.86,3.46,3.46,0,0,0-.71-1.17,3.35,3.35,0,0,0-2.51-1.08,3.35,3.35,0,0,0-3.22,2.25,4.21,4.21,0,0,0,0,2.86,3.35,3.35,0,0,0,3.22,2.25,3.38,3.38,0,0,0,1.41-.29m-.29-6.12a2.46,2.46,0,0,1,.86.63,2.7,2.7,0,0,1,.56.94,3.64,3.64,0,0,1,0,2.32,2.7,2.7,0,0,1-.56.94,2.46,2.46,0,0,1-.86.63,2.7,2.7,0,0,1-1.12.23,2.75,2.75,0,0,1-1.13-.23,2.55,2.55,0,0,1-.86-.63,2.68,2.68,0,0,1-.55-.94,3.64,3.64,0,0,1,0-2.32,2.68,2.68,0,0,1,.55-.94,2.55,2.55,0,0,1,.86-.63,2.75,2.75,0,0,1,1.13-.23,2.7,2.7,0,0,1,1.12.23m6,11.69h.74V195.86h-.74Zm-.5-27.06a2.09,2.09,0,0,0,.43.66,2.12,2.12,0,0,0,.66.44,2,2,0,0,0,.8.16,1.92,1.92,0,0,0,.79-.16,2,2,0,0,0,.66-.44,2.12,2.12,0,0,0,.44-.66,2.08,2.08,0,0,0,0-1.6,2.12,2.12,0,0,0-.44-.66,2,2,0,0,0-.66-.44,1.92,1.92,0,0,0-.79-.16,2,2,0,0,0-.8.16,2.12,2.12,0,0,0-.66.44,2.09,2.09,0,0,0-.43.66,2.08,2.08,0,0,0,0,1.6m2.83.14a1.29,1.29,0,0,1-.94.38,1.31,1.31,0,0,1-1-.38,1.35,1.35,0,0,1,0-1.88,1.31,1.31,0,0,1,1-.38,1.29,1.29,0,0,1,.94.38,1.33,1.33,0,0,1,0,1.88M753.55,165c-.91.06-1.88.11-2.92.15s-2,0-2.9,0V166h1.4l1.49,0,1.5-.05,1.43-.07Zm1.54,6.34a15.91,15.91,0,0,1-3.45.92,22,22,0,0,1-3.87.24l0,.74a22.39,22.39,0,0,0,4-.28,18.92,18.92,0,0,0,3.6-.92Zm-7.36,1.88.74-.2V165.8h-.74ZM761.49,169h-3.32l-.38.36.38.42,3.32,0Zm-4.06,8.82h.74V161.14h-.74Zm-2.16-26.62a31.37,31.37,0,0,1-3.56.88,29.29,29.29,0,0,1-3.88.44l0,.74a29.22,29.22,0,0,0,4-.46c1.26-.24,2.48-.53,3.67-.88Zm-7.48,2,.74-.2v-8h-.74Zm9.64,4.58h.74V141.14h-.74Zm1.92-31.74-4.16-2.16-.36.68,2,1.07,2.07,1.13Zm-9.68.8a8.35,8.35,0,0,0,3.57-2.1,7.59,7.59,0,0,0,1.91-3.56l-.72-.18a9.51,9.51,0,0,1-.7,1.85,5.77,5.77,0,0,1-1,1.43,6.93,6.93,0,0,1-1.45,1.08,11.3,11.3,0,0,1-1.91.82Zm8.5,10.4h-7.42v-.78h7.42Zm0-3.28q-.75,0-1.71.06l-2,.05-2,0h-1.68v-.76h1.7l2,0,2-.06,1.7-.07Zm0,2.82h-.74v-5.64h.74Zm-7.42-5.34h.74v5.44h-.74Zm-5.66-2.5,3.94,0,4.13-.08c1.38,0,2.74-.08,4.1-.13s2.63-.12,3.85-.2l0,.78c-1.2.08-2.48.15-3.82.2s-2.71.1-4.08.13l-4.11.08-3.91,0ZM757.87,104h-3.26v.78h3.26Zm0,3.32h-3.26v.78h3.26Zm-3.38,7.54-1.9-1.36-.4.6,1.74,1.26Zm-6.18,1.94a7.38,7.38,0,0,0,4.26-5.06l-.76-.16a6.61,6.61,0,0,1-1.36,2.8,7,7,0,0,1-2.58,1.82Zm12.08-.36-3.06-2.3-.46.64.76.57.72.54.73.56.79.63Zm-6.68.68a7.66,7.66,0,0,0,1.4-1,8.16,8.16,0,0,0,1.13-1.29,9.34,9.34,0,0,0,.83-1.48,8.24,8.24,0,0,0,.5-1.6l-.76-.16a7.49,7.49,0,0,1-1.18,2.86,7.28,7.28,0,0,1-2.36,2.08Zm.92-8.24c-1.11.2-2.22.35-3.32.45s-2.2.14-3.26.13v-3h-.74v3.78c.57,0,1.18,0,1.82,0s1.28-.06,1.93-.11,1.28-.11,1.92-.19,1.23-.17,1.79-.28Zm-1.42-3c-1.06.09-2.05.15-3,.18s-1.91.05-2.92.06v.78c1,0,2,0,2.92-.07s1.94-.08,3-.15Zm-.74.4h.74v-3.18h-.74Zm.74-3.52-1.58.07-1.5.06-1.47,0-1.51,0,.06.78c1,0,2,0,2.95-.06l3.05-.12Zm4.22,7.9h.74v-9.56h-.74ZM758.27,84l-1.93.08q-1.11,0-2.28.06l-2.29,0-2,0,.06.78,1.88,0,2.1,0,2,0c.66,0,1.24,0,1.75-.06ZM757,92.86q.21-.94.42-2t.36-2.25c.1-.77.2-1.54.28-2.31s.14-1.51.18-2.22l-.8.26c0,.63-.08,1.3-.14,2s-.16,1.46-.26,2.2-.23,1.47-.36,2.18-.28,1.38-.44,2Zm-11.34,2.42,3.83,0,3.93-.08c1.3,0,2.6-.08,3.9-.13s2.54-.12,3.74-.2l0-.78c-1.22.08-2.47.15-3.77.2s-2.61.1-3.93.13l-3.95.08-3.85,0Z"/><path class="cls-3" d="M775.69,439.08l3.83,0,3.93-.08c1.3,0,2.6-.08,3.9-.13s2.54-.12,3.74-.2l0-.78c-1.22.08-2.47.15-3.77.2s-2.61.1-3.93.13l-3.95.08-3.85,0Zm8.38-.68h.74v-3.14h-.74Zm4.6-4.64-1.91.12q-1.11.06-2.28.09l-2.28,0q-1.11,0-2,0v.78c.54,0,1.19,0,1.94,0l2.29,0,2.28-.08c.74,0,1.37-.07,1.91-.11Zm-8.42.6H781v-3.3h-.74Zm8-3.9q-.81.06-1.86.09l-2.17.07-2.15,0-1.8,0v.78l1.78,0,2.15-.05,2.17-.07,1.88-.08Zm-.74.38h.74v-3.3h-.74Zm.74-3.64-1.92.07-2.24.07-2.22.05-1.86,0,.06.78,1.84,0,2.2-.05,2.23-.07,1.91-.08Zm-7.65-14.92a3.3,3.3,0,0,0,.81,1.14,3.85,3.85,0,0,0,1.21.75,4.36,4.36,0,0,0,3,0,3.68,3.68,0,0,0,1.22-.75,3.46,3.46,0,0,0,.82-1.14,3.43,3.43,0,0,0,.29-1.39,3.39,3.39,0,0,0-.29-1.39,3.46,3.46,0,0,0-.82-1.14,3.68,3.68,0,0,0-1.22-.75,4.36,4.36,0,0,0-3,0,3.85,3.85,0,0,0-1.21.75,3.3,3.3,0,0,0-.81,1.14,3.48,3.48,0,0,0,0,2.78m.69-2.49a2.88,2.88,0,0,1,.64-.87,2.85,2.85,0,0,1,1-.59,3.53,3.53,0,0,1,1.23-.21,3.47,3.47,0,0,1,1.22.21,2.76,2.76,0,0,1,1,.59,2.92,2.92,0,0,1,.65.87,2.64,2.64,0,0,1,0,2.2,2.9,2.9,0,0,1-1.63,1.46,3.47,3.47,0,0,1-1.22.21,3.53,3.53,0,0,1-1.23-.21,3,3,0,0,1-1-.59,2.88,2.88,0,0,1-.64-.87,2.64,2.64,0,0,1,0-2.2m-5.58,9.49,3.83,0,3.93-.08c1.3,0,2.6-.08,3.9-.13s2.54-.12,3.74-.2l0-.78c-1.22.08-2.47.15-3.77.2s-2.61.1-3.93.13l-3.95.08-3.85,0Zm6.4-19.85a2.9,2.9,0,0,0,.7,1,3.37,3.37,0,0,0,3.53.65,3.53,3.53,0,0,0,1-.65,3.21,3.21,0,0,0,.7-1,2.85,2.85,0,0,0,0-2.38,3.21,3.21,0,0,0-.7-1,3.53,3.53,0,0,0-1-.65,3.31,3.31,0,0,0-1.25-.24,3.36,3.36,0,0,0-2.28.89,2.9,2.9,0,0,0-.7,1,2.85,2.85,0,0,0,0,2.38m5.27-.28a2.21,2.21,0,0,1-.54.74,2.45,2.45,0,0,1-.79.49,2.58,2.58,0,0,1-1,.18,2.63,2.63,0,0,1-1-.18,2.56,2.56,0,0,1-.79-.49,2.24,2.24,0,0,1,0-3.3,2.56,2.56,0,0,1,.79-.49,2.63,2.63,0,0,1,1-.18,2.58,2.58,0,0,1,1,.18,2.45,2.45,0,0,1,.79.49,2.21,2.21,0,0,1,.54.74,2.27,2.27,0,0,1,0,1.82m-9.66-7.74a3.11,3.11,0,0,0,.68,1,3.42,3.42,0,0,0,1,.68,3.1,3.1,0,0,0,1.25.25,3.05,3.05,0,0,0,1.24-.25,3.21,3.21,0,0,0,1.72-1.68,3.05,3.05,0,0,0,0-2.42,3.21,3.21,0,0,0-1.72-1.68,3.05,3.05,0,0,0-1.24-.25,3.1,3.1,0,0,0-1.25.25,3.42,3.42,0,0,0-1,.68,3.11,3.11,0,0,0-.68,1,3.05,3.05,0,0,0,0,2.42m.68-2.13a2.55,2.55,0,0,1,.52-.77,2.5,2.5,0,0,1,.78-.53,2.45,2.45,0,0,1,1-.2,2.4,2.4,0,0,1,1,.2,2.5,2.5,0,0,1,.78.53,2.35,2.35,0,0,1,0,3.38,2.5,2.5,0,0,1-.78.53,2.4,2.4,0,0,1-1,.2,2.45,2.45,0,0,1-1-.2,2.5,2.5,0,0,1-.78-.53,2.55,2.55,0,0,1-.52-.77,2.32,2.32,0,0,1,0-1.84m9,4.94h.74v-9.08h-.74Zm4-6.34h-3.22l-.38.36.38.42,3.22,0Zm0,3.3h-3.22l-.38.36.38.42,3.22,0Zm-15.7-12.1,3.83,0,3.93-.08c1.3,0,2.6-.08,3.9-.13s2.54-.12,3.74-.2l0-.78c-1.22.08-2.47.15-3.77.2s-2.61.1-3.93.13l-3.95.08-3.85,0Zm8.38-.68h.74v-3.86h-.74Zm-3.36-5.26h.74V367.7h-.74Zm7.46-5.58c-.48,0-1,.05-1.7.07l-2,0-2,0h-1.72l.06.76h1.69l2,0,2,0c.65,0,1.22,0,1.72-.06Zm-.74,5.7h.74v-5.18h-.74Zm.74-.42h-7.46v.78h7.46Zm-5.1-32.24c-.74-.13-1.41-.27-2-.42s-1.31-.33-2-.56l-.16.84q1,.3,2,.51c.65.14,1.32.28,2,.41ZM778.36,348a2.18,2.18,0,0,0,.56.82,2.76,2.76,0,0,0,.89.56,3.1,3.1,0,0,0,1.18.21,3.14,3.14,0,0,0,1.18-.21,3,3,0,0,0,.89-.56,2.44,2.44,0,0,0,.56-.82,2.67,2.67,0,0,0,0-2,2.44,2.44,0,0,0-.56-.82,3,3,0,0,0-.89-.56,3.14,3.14,0,0,0-1.18-.21,3.1,3.1,0,0,0-1.18.21,2.76,2.76,0,0,0-.89.56,2.18,2.18,0,0,0-.56.82,2.67,2.67,0,0,0,0,2m4.18.31a2.43,2.43,0,0,1-3.1,0,1.86,1.86,0,0,1,0-2.6,2.43,2.43,0,0,1,3.1,0,1.86,1.86,0,0,1,0,2.6m2-6-1.75.08-2.14.08-2.14,0-1.75,0,.06.78,1.72,0,2.12-.05,2.13-.07,1.75-.08Zm7,2.54h-3.32l-.38.36.38.42,3.32,0Zm-2.22,8.56-1.95.12c-.77,0-1.56.07-2.38.09l-2.39,0c-.78,0-1.44,0-2,0v.78q.81,0,2,0l2.39,0,2.39-.08c.77,0,1.42-.07,2-.11Zm-8.72.8h.74V351h-.74Zm6.88-3.24h.74V339.14h-.74Zm.88-29.32-2,.08-2.27.07-2.26,0c-.74,0-1.39,0-2,0l.06.77,1.94,0,2.25-.05,2.25-.06,2-.07Zm1.1,6.06-4.5-3-.42.66,1.07.72,1.15.78,1.15.79,1.07.73Zm-10.2.88a9.7,9.7,0,0,0,3.69-2.38,8.35,8.35,0,0,0,1.93-3.94l-.74-.2a7.49,7.49,0,0,1-1.77,3.66,8.64,8.64,0,0,1-3.45,2.16Zm-3.52,4.66,3.83,0,3.93-.08c1.3,0,2.6-.08,3.9-.13s2.54-.12,3.74-.2l0-.78c-1.22.08-2.47.15-3.77.2s-2.61.1-3.93.13l-3.95.08-3.85,0Zm8.24-.68h.74v-4.06h-.74Zm-6.54-23.26a13.78,13.78,0,0,0,4.1-3.38,13.19,13.19,0,0,0,1.41-2.14,10.89,10.89,0,0,0,.89-2.36l-.92.26a9.66,9.66,0,0,1-2,3.92,13.74,13.74,0,0,1-3.94,3.12Zm6.4-7.88-1.57.07-1.47.05-1.44,0h-1.5l.06.78,2.63,0c.82,0,1.7,0,2.65-.08Zm-1.64,12a3,3,0,0,0,.67,1,3,3,0,0,0,1,.66,3.3,3.3,0,0,0,1.27.24,3.38,3.38,0,0,0,1.27-.24,3.2,3.2,0,0,0,1-.66,3.12,3.12,0,0,0,.67-1,3,3,0,0,0,0-2.37,3.16,3.16,0,0,0-.67-1,3.2,3.2,0,0,0-1-.66,3.38,3.38,0,0,0-1.27-.24,3.3,3.3,0,0,0-1.27.24,3,3,0,0,0-1.69,1.64,3,3,0,0,0,0,2.37m.68-2.1a2.13,2.13,0,0,1,.51-.74,2.69,2.69,0,0,1,.77-.5,2.43,2.43,0,0,1,1-.19,2.38,2.38,0,0,1,1,.19,2.56,2.56,0,0,1,.77.5,2.16,2.16,0,0,1,.52.74,2.39,2.39,0,0,1,0,1.82,2.16,2.16,0,0,1-.52.74,2.56,2.56,0,0,1-.77.5,2.38,2.38,0,0,1-1,.19,2.43,2.43,0,0,1-1-.19,2.69,2.69,0,0,1-.77-.5,2.13,2.13,0,0,1-.51-.74,2.39,2.39,0,0,1,0-1.82m8.66-7.23h-3.32l-.38.36.38.42,3.32,0Zm-4.06,4.14h.74v-9.08h-.74Zm-4-27.38h4.4v-.78h-4.4Zm0-4.14-1.44.08-1.54.06-1.55,0h-1.43v.76h1.42l1.54,0,1.55-.05,1.45-.07Zm.9,7.34c-.56.17-1.11.32-1.63.44s-1.07.21-1.61.28-1.11.11-1.69.13-1.21,0-1.89,0l0,.74a26.69,26.69,0,0,0,3.68-.15,21.36,21.36,0,0,0,3.38-.69Zm-6.86,1.58.74-.2v-8h-.74Zm10,4.18h.74V273.14h-.74Zm1.84-27.56-2,.12c-.78,0-1.59.07-2.41.09l-2.42,0c-.79,0-1.46,0-2,0v.78c.54,0,1.21,0,2,0l2.43,0,2.42-.08c.78,0,1.43-.07,2-.11Zm-8.82.6h.74v-2.72h-.74Zm7.72-3.32c-.54,0-1.14.07-1.82.09l-2.08.07-2.06,0-1.76,0v.78l1.74,0,2.06-.05,2.08-.07,1.84-.08Zm-.74.38h.74v-2.72h-.74Zm.74-3.06-1.88.07-2.16.07L782,257l-1.81,0,.06.78,1.8,0,2.11-.05,2.14-.07,1.87-.08Zm-.36-7.93A2.78,2.78,0,0,0,787,248a3.72,3.72,0,0,0-1.15-.55,5.4,5.4,0,0,0-2.84,0,3.61,3.61,0,0,0-1.15.55,2.55,2.55,0,0,0-.77.87,2.38,2.38,0,0,0,0,2.24,2.55,2.55,0,0,0,.77.87,3.61,3.61,0,0,0,1.15.55,5.4,5.4,0,0,0,2.84,0A3.72,3.72,0,0,0,787,252a2.78,2.78,0,0,0,.77-.87,2.38,2.38,0,0,0,0-2.24m-6,.27a2,2,0,0,1,.6-.62,2.85,2.85,0,0,1,.92-.4,4.65,4.65,0,0,1,1.15-.14,4.56,4.56,0,0,1,1.14.14,2.85,2.85,0,0,1,.92.4,2,2,0,0,1,.61.62,1.75,1.75,0,0,1,0,1.7,2,2,0,0,1-.61.62,2.85,2.85,0,0,1-.92.4,4.56,4.56,0,0,1-1.14.14,4.65,4.65,0,0,1-1.15-.14,2.85,2.85,0,0,1-.92-.4,2,2,0,0,1-.6-.62,1.75,1.75,0,0,1,0-1.7m-6.64,6.06,3.91,0,4.11-.08c1.37,0,2.73-.08,4.08-.13s2.62-.12,3.82-.2l0-.78c-1.22.08-2.5.15-3.85.2s-2.72.1-4.1.13l-4.13.08-3.94,0Zm13.48-23.84-1.86.12c-.71,0-1.43.07-2.17.09l-2.17,0c-.71,0-1.34,0-1.9,0v.78q.81,0,1.89,0l2.18,0,2.17-.08c.7,0,1.32-.07,1.86-.11Zm-.44-3.74-1.71.08-2.13.06-2.13,0h-1.69v.77h1.68l2.12,0,2.14-.05c.69,0,1.26,0,1.72-.07Zm-7.66,4.74.74-.2v-3.78h-.74Zm4.92,6.27a2.77,2.77,0,0,1,.86.43,2.07,2.07,0,0,1,.57.68,1.83,1.83,0,0,1,0,1.7,2.07,2.07,0,0,1-.57.68,2.77,2.77,0,0,1-.86.43,3.6,3.6,0,0,1-1.05.15,3.64,3.64,0,0,1-1.07-.15,2.83,2.83,0,0,1-.85-.43,2.17,2.17,0,0,1-.56-.68,1.83,1.83,0,0,1,0-1.7,2.17,2.17,0,0,1,.56-.68,2.83,2.83,0,0,1,.85-.43,3.64,3.64,0,0,1,1.07-.15,3.6,3.6,0,0,1,1.05.15m.29,4.58a3.37,3.37,0,0,0,1.09-.59,2.73,2.73,0,0,0,.74-.89,2.63,2.63,0,0,0,0-2.28,2.73,2.73,0,0,0-.74-.89,3.37,3.37,0,0,0-1.09-.59,4.14,4.14,0,0,0-1.34-.21,4.2,4.2,0,0,0-1.35.21,3.37,3.37,0,0,0-1.09.59,2.7,2.7,0,0,0-.73.89,2.63,2.63,0,0,0,0,2.28,2.7,2.7,0,0,0,.73.89,3.37,3.37,0,0,0,1.09.59,4.2,4.2,0,0,0,1.35.21,4.14,4.14,0,0,0,1.34-.21M784.07,238h.74v-2.8h-.74Zm-8.9-2.32,3.91,0,4.11-.08c1.37,0,2.73-.08,4.08-.13s2.62-.12,3.82-.2l0-.78c-1.22.08-2.5.15-3.85.2s-2.72.1-4.1.13l-4.13.08-3.94,0Zm8.66-24.82c-1.11.07-2.21.12-3.31.15s-2.17.06-3.21.07l.06.78c.93,0,1.9,0,2.9-.07l2.92-.11Zm-7,9.2a12.34,12.34,0,0,0,2.38-1.59,14.91,14.91,0,0,0,2.08-2.13,11.32,11.32,0,0,0,.84-1.25c.26-.46.51-.93.73-1.41a14.34,14.34,0,0,0,.57-1.44c.16-.48.28-.94.38-1.38l-.9.26a12.1,12.1,0,0,1-.78,2.37,11.31,11.31,0,0,1-1.46,2.41,13.32,13.32,0,0,1-2,2,12.69,12.69,0,0,1-2.26,1.48Zm10.58,3.76h.74V207.14h-.74Zm-11.74-22.72,3.83,0,3.93-.08c1.3,0,2.6-.08,3.9-.13s2.54-.12,3.74-.2l0-.78c-1.22.08-2.47.15-3.77.2s-2.61.1-3.93.13l-3.95.08-3.85,0Zm8.38-.68h.74v-3.14h-.74Zm4.6-4.64-1.91.12q-1.11.06-2.28.09l-2.28,0q-1.11,0-2,0v.78c.54,0,1.19,0,1.94,0l2.29,0,2.28-.08c.74,0,1.37-.07,1.91-.11Zm-8.42.6H781v-3.3h-.74Zm8-3.9q-.81.06-1.86.09l-2.17.07-2.15,0-1.8,0v.78l1.78,0,2.15-.05,2.17-.07,1.88-.08Zm-.74.38h.74v-3.3h-.74Zm.74-3.64-1.92.07-2.24.07-2.22,0-1.86,0,.06.78,1.84,0,2.2-.05,2.23-.07,1.91-.08Zm-12.16-9.82a10.55,10.55,0,0,0,1.66-1.84,10.8,10.8,0,0,0,1.13-2.09,12.8,12.8,0,0,0,.69-2.33,17.21,17.21,0,0,0,.3-2.58l-.78,0a14.2,14.2,0,0,1-.89,4.61,9,9,0,0,1-2.65,3.67Zm6.68-.78-2.56-3.5-.62.48,1.25,1.71c.44.62.86,1.23,1.25,1.83Zm2.22-5.06h-3.16v.78H785Zm-.5,8.26h.74V168.34h-.74Zm3,2h.74V167.14h-.74ZM777,150.3a3.89,3.89,0,0,0,.72,1.18,3.43,3.43,0,0,0,1.09.79,3.26,3.26,0,0,0,2.69,0,3.43,3.43,0,0,0,1.09-.79,3.73,3.73,0,0,0,.73-1.18,4.08,4.08,0,0,0,0-2.92,3.73,3.73,0,0,0-.73-1.18,3.43,3.43,0,0,0-1.09-.79,3.26,3.26,0,0,0-2.69,0,3.43,3.43,0,0,0-1.09.79,4,4,0,0,0-.72,4.1m.67-2.65a2.81,2.81,0,0,1,.56-1,2.52,2.52,0,0,1,.85-.63,2.58,2.58,0,0,1,1.08-.23,2.54,2.54,0,0,1,1.9.86,3,3,0,0,1,.58,1,3.48,3.48,0,0,1,0,2.38,3,3,0,0,1-.58.95,2.54,2.54,0,0,1-1.9.86,2.58,2.58,0,0,1-1.08-.23,2.52,2.52,0,0,1-.85-.63,2.81,2.81,0,0,1-.56-.95,3.64,3.64,0,0,1,0-2.38m10.22-1.45h-3.5V147h3.5Zm0,4.56h-3.5v.78h3.5Zm-.44,7h.74V141.14h-.74Zm-5.32-23.69a2.87,2.87,0,0,0,.93-.65,3.09,3.09,0,0,0,.57-.92,2.91,2.91,0,0,0,0-2.12,3.09,3.09,0,0,0-.57-.92,2.87,2.87,0,0,0-.93-.65,3.08,3.08,0,0,0-1.28-.25,3,3,0,0,0-1.28.25,2.67,2.67,0,0,0-.93.65,2.74,2.74,0,0,0-.57.92,2.91,2.91,0,0,0,0,2.12,2.74,2.74,0,0,0,.57.92,2.67,2.67,0,0,0,.93.65,3,3,0,0,0,1.28.25,3.08,3.08,0,0,0,1.28-.25m-2.28-.66a2,2,0,0,1-.69-.5,2.21,2.21,0,0,1-.41-.69,2.07,2.07,0,0,1-.14-.78,2.29,2.29,0,0,1,.55-1.47,2,2,0,0,1,.69-.5,2.35,2.35,0,0,1,1-.19,2.4,2.4,0,0,1,1,.19,2,2,0,0,1,.7.5,2.34,2.34,0,0,1,.41.7,2.37,2.37,0,0,1,.14.77,2.29,2.29,0,0,1-.14.78,2.42,2.42,0,0,1-.41.69,2,2,0,0,1-.7.5,2.4,2.4,0,0,1-1,.19,2.35,2.35,0,0,1-1-.19m11.66-4.37h-3.32l-.38.36.38.42,3.32,0Zm-6.82-2.88-1.79.08-2.3.08-2.3,0-1.79,0,.06.78h1.09l1.4,0,1.55,0,1.56,0,1.41,0,1.11,0ZM783,124c-.72-.23-1.42-.47-2.08-.73s-1.36-.54-2.06-.85l-.28.82c.68.29,1.36.56,2.06.81s1.38.48,2.06.71Zm4.44,13.84h.74V121.14h-.74Zm.32-28.62h-3.06V110h3.06Zm0-3.34h-3.06v.78h3.06Zm-4.82-3.38c-.74-.13-1.41-.27-2-.42s-1.31-.33-2-.56l-.16.84q1,.3,2,.51c.65.14,1.32.28,2,.41Zm-.44,13.27a2.23,2.23,0,0,0,.63.81,3,3,0,0,0,1,.54,3.57,3.57,0,0,0,1.21.2,3.61,3.61,0,0,0,1.21-.2,3.22,3.22,0,0,0,1-.54,2.47,2.47,0,0,0,.63-.81,2.39,2.39,0,0,0,.22-1,2.34,2.34,0,0,0-.22-1,2.47,2.47,0,0,0-.63-.81,3.25,3.25,0,0,0-1-.55,3.61,3.61,0,0,0-1.21-.2,3.57,3.57,0,0,0-1.21.2,3,3,0,0,0-1,.55,2.23,2.23,0,0,0-.63.81,2.2,2.2,0,0,0-.22,1,2.24,2.24,0,0,0,.22,1m1.14-2.28a2.82,2.82,0,0,1,3.29,0,1.64,1.64,0,0,1,0,2.58,2.82,2.82,0,0,1-3.29,0,1.65,1.65,0,0,1,0-2.58m-5.44-3.66a2.44,2.44,0,0,0,.56.82,3,3,0,0,0,.89.56,3.07,3.07,0,0,0,1.16.21,3,3,0,0,0,1.15-.21,2.87,2.87,0,0,0,.89-.56,2.33,2.33,0,0,0,.57-.82,2.54,2.54,0,0,0,.2-1,2.49,2.49,0,0,0-.2-1,2.3,2.3,0,0,0-.57-.81,2.87,2.87,0,0,0-.89-.56,3,3,0,0,0-1.15-.21,3.07,3.07,0,0,0-1.16.21,3,3,0,0,0-.89.56,2.4,2.4,0,0,0-.56.81,2.32,2.32,0,0,0-.2,1,2.37,2.37,0,0,0,.2,1m4.13.31a2,2,0,0,1-1.52.56,2.07,2.07,0,0,1-1.53-.56,1.82,1.82,0,0,1-.54-1.3,1.79,1.79,0,0,1,.54-1.29,2.07,2.07,0,0,1,1.53-.55,2,2,0,0,1,1.52.55,1.8,1.8,0,0,1,.55,1.29,1.83,1.83,0,0,1-.55,1.3m1.95-5.9-1.74.08-2.1.08-2.09,0-1.73,0,.06.78,1.7,0,2.07-.05,2.09-.07,1.74-.08Zm3.16,7.06h.74V101.14h-.74Zm-3.1-22.48h3.54V88h-3.54Zm0-3.2h3.54V84.8h-3.54Zm-.94,3.78h-6v.78h6Zm0-3.92-2.87.12c-1,0-1.91,0-2.87,0v.76c.94,0,1.9,0,2.86,0l2.88-.1Zm0-2.82h-.74v7h.74Zm-6,7.3h.74v-7h-.74Zm10,2.6h.74V81.14h-.74Zm1.84,2.92-1.93.12q-1.14.06-2.34.09l-2.35,0q-1.14,0-2,0v.78c.54,0,1.2,0,2,0l2.35,0,2.35-.08c.76,0,1.4-.07,1.94-.11Zm-8.6.8h.74v-4h-.74Z"/><path class="cls-3" d="M819.27,380.24l-2,.12c-.78,0-1.59.07-2.41.09l-2.42,0c-.79,0-1.46,0-2,0v.78c.54,0,1.21,0,2,0l2.43,0,2.42-.08c.78,0,1.43-.07,2-.11Zm-8.82.6h.74v-2.72h-.74Zm7.72-3.32c-.54,0-1.14.07-1.82.09l-2.08.07-2.06,0-1.76,0v.78l1.74,0,2.06-.05,2.08-.07,1.84-.08Zm-.74.38h.74v-2.72h-.74Zm.74-3.06-1.88.07-2.16.07L812,375l-1.81,0,.06.78,1.8,0,2.11-.05,2.14-.07,1.87-.08Zm-.36-7.93A2.78,2.78,0,0,0,817,366a3.72,3.72,0,0,0-1.15-.55,5.4,5.4,0,0,0-2.84,0,3.61,3.61,0,0,0-1.15.55,2.55,2.55,0,0,0-.77.87,2.19,2.19,0,0,0-.28,1.12,2.22,2.22,0,0,0,.28,1.12,2.55,2.55,0,0,0,.77.87,3.61,3.61,0,0,0,1.15.55,5.4,5.4,0,0,0,2.84,0A3.72,3.72,0,0,0,817,370a2.78,2.78,0,0,0,.77-.87,2.32,2.32,0,0,0,.28-1.12,2.3,2.3,0,0,0-.28-1.12m-6,.27a2,2,0,0,1,.6-.62,2.85,2.85,0,0,1,.92-.4,4.65,4.65,0,0,1,1.15-.14,4.56,4.56,0,0,1,1.14.14,2.85,2.85,0,0,1,.92.4,2,2,0,0,1,.61.62,1.75,1.75,0,0,1,0,1.7,2,2,0,0,1-.61.62,3.09,3.09,0,0,1-.92.4,4.56,4.56,0,0,1-1.14.14,4.65,4.65,0,0,1-1.15-.14,3.09,3.09,0,0,1-.92-.4,2,2,0,0,1-.6-.62,1.75,1.75,0,0,1,0-1.7m-6.64,6.06,3.91,0,4.11-.08c1.37,0,2.73-.08,4.08-.13s2.62-.12,3.82-.2l0-.78c-1.22.08-2.5.15-3.85.2s-2.72.1-4.1.13l-4.13.08-3.94,0Zm6.92-13.81a2.9,2.9,0,0,0,.7,1,3.37,3.37,0,0,0,3.53.65,3.53,3.53,0,0,0,1-.65,3.21,3.21,0,0,0,.7-1,2.85,2.85,0,0,0,0-2.38,3.21,3.21,0,0,0-.7-1,3.53,3.53,0,0,0-1-.65,3.31,3.31,0,0,0-1.25-.24,3.36,3.36,0,0,0-2.28.89,2.9,2.9,0,0,0-.7,1,2.85,2.85,0,0,0,0,2.38m5.27-.28a2.21,2.21,0,0,1-.54.74,2.45,2.45,0,0,1-.79.49,2.58,2.58,0,0,1-1,.18,2.63,2.63,0,0,1-1-.18,2.56,2.56,0,0,1-.79-.49,2.24,2.24,0,0,1,0-3.3,2.56,2.56,0,0,1,.79-.49,2.63,2.63,0,0,1,1-.18,2.58,2.58,0,0,1,1,.18,2.45,2.45,0,0,1,.79.49,2.21,2.21,0,0,1,.54.74,2.27,2.27,0,0,1,0,1.82m-9.66-7.74a3.11,3.11,0,0,0,.68,1,3.42,3.42,0,0,0,1,.68,3.1,3.1,0,0,0,1.25.25,3.05,3.05,0,0,0,1.24-.25,3.21,3.21,0,0,0,1.72-1.68,3.05,3.05,0,0,0,0-2.42,3.21,3.21,0,0,0-1.72-1.68,3.05,3.05,0,0,0-1.24-.25,3.1,3.1,0,0,0-1.25.25,3.42,3.42,0,0,0-1,.68,3.11,3.11,0,0,0-.68,1,3.05,3.05,0,0,0,0,2.42m.68-2.13a2.55,2.55,0,0,1,.52-.77,2.5,2.5,0,0,1,.78-.53,2.45,2.45,0,0,1,1-.2,2.4,2.4,0,0,1,1,.2,2.5,2.5,0,0,1,.78.53,2.35,2.35,0,0,1,0,3.38,2.5,2.5,0,0,1-.78.53,2.4,2.4,0,0,1-1,.2,2.45,2.45,0,0,1-1-.2,2.5,2.5,0,0,1-.78-.53,2.55,2.55,0,0,1-.52-.77,2.32,2.32,0,0,1,0-1.84m9,4.94h.74v-9.08h-.74Zm4-6.34h-3.22l-.38.36.38.42,3.22,0Zm0,3.3h-3.22l-.38.36.38.42,3.22,0Zm-15.7-12.1,3.83,0,3.93-.08c1.3,0,2.6-.08,3.9-.13s2.54-.12,3.74-.2l0-.78c-1.22.08-2.47.15-3.77.2s-2.61.1-3.93.13l-3.95.08-3.85,0Zm8.38-.68h.74v-3.86h-.74Zm-3.36-5.26h.74V327.7h-.74Zm7.46-5.58c-.48,0-1,.05-1.7.07l-2,0-2,0h-1.72l.06.76h1.69l2,0,2,0c.65,0,1.22,0,1.72-.06Zm-.74,5.7h.74v-5.18h-.74Zm.74-.42h-7.46v.78h7.46Zm-10-26.77a3.13,3.13,0,0,0,.68,1,3.37,3.37,0,0,0,1,.69,3.25,3.25,0,0,0,1.28.25,3.2,3.2,0,0,0,1.27-.25,3.26,3.26,0,0,0,1-.69,3.33,3.33,0,0,0,.69-1,3.25,3.25,0,0,0,0-2.5,3.33,3.33,0,0,0-.69-1,3.26,3.26,0,0,0-1-.69,3.2,3.2,0,0,0-1.27-.25,3.25,3.25,0,0,0-1.28.25,3.37,3.37,0,0,0-1,.69,3.13,3.13,0,0,0-.68,1,3.25,3.25,0,0,0,0,2.5m.68-2.22a2.49,2.49,0,0,1,.53-.79,2.47,2.47,0,0,1,1.79-.74,2.47,2.47,0,0,1,1,.2,2.41,2.41,0,0,1,.79.54,2.52,2.52,0,0,1,.54.79,2.57,2.57,0,0,1,0,1.94,2.52,2.52,0,0,1-.54.79,2.41,2.41,0,0,1-.79.54,2.47,2.47,0,0,1-1,.2,2.51,2.51,0,0,1-2.32-1.53,2.57,2.57,0,0,1,0-1.94m8.59,11.95h.74V299.14h-.74Zm-1.16-5.44c-1,.17-1.93.32-2.78.43s-1.69.21-2.51.29-1.66.15-2.5.2-1.77.1-2.77.14l.16.78c1,0,1.9-.09,2.75-.16s1.67-.14,2.49-.23l2.48-.3,2.74-.39Zm-11.1-28,3.91,0,4.11-.08c1.37,0,2.73-.08,4.08-.13s2.62-.12,3.82-.2l0-.78c-1.22.08-2.5.15-3.85.2s-2.72.1-4.1.13l-4.13.08-3.94,0Zm13.9,5.16-2,.12c-.78,0-1.59.07-2.41.09l-2.42,0c-.79,0-1.46,0-2,0v.78c.54,0,1.21,0,2,0l2.43,0,2.42-.08c.78,0,1.43-.07,2-.11Zm-.2-9.84-1.94.12q-1.14.06-2.34.09l-2.35,0c-.77,0-1.43,0-2,0v.78c.54,0,1.2,0,2,0l2.36,0,2.35-.08c.76,0,1.4-.07,1.94-.11Zm-8.62,1H811v-4.84h-.74Zm0,9.84H811v-4.34h-.74Zm5.08-25.32a31.56,31.56,0,0,1-3.54.88,28.79,28.79,0,0,1-3.86.44l0,.74a28.74,28.74,0,0,0,4-.46c1.24-.24,2.46-.53,3.65-.88Zm-7.44,2,.74-.2v-8h-.74Zm13.6-4.34h-3.32l-.38.36.38.42,3.32,0Zm-4.06,8.92h.74V253.14h-.74Zm-8.54-28.1c.8,0,1.62,0,2.46,0l2.34-.11v-.78q-1.08.08-2.34.12c-.84,0-1.66,0-2.46,0Zm6.78,2.2a15.69,15.69,0,0,1-1.83.61c-.66.18-1.35.33-2.05.45s-1.42.21-2.13.26-1.41.07-2.09.06l0,.74c.68,0,1.39,0,2.13-.07s1.47-.15,2.21-.28,1.44-.28,2.14-.46a17.36,17.36,0,0,0,1.92-.61Zm-8.14,2.1.74-.2v-8.4h-.74Zm6.22-9.36-1.48.08-1.63.07-1.64,0h-1.47v.77H809l1.63,0,1.64-.06,1.49-.07Zm7.74,4.26h-3.32l-.38.35.38.41,3.32,0Zm-4.06,8.9h.74V233.14h-.74Zm-2.1-26.62a31.56,31.56,0,0,1-3.54.88,28.79,28.79,0,0,1-3.86.44l0,.74a28.74,28.74,0,0,0,4-.46c1.24-.24,2.46-.53,3.65-.88Zm-7.44,2,.74-.2v-8h-.74Zm13.6-4.34h-3.32l-.38.36.38.42,3.32,0Zm-4.06,8.92h.74V213.14h-.74Zm-10.62-30.42a9.44,9.44,0,0,0,1.92-1.81,13.13,13.13,0,0,0,1.41-2.23,13.34,13.34,0,0,0,.93-2.55,20.82,20.82,0,0,0,.48-2.79l-.76-.1a21.57,21.57,0,0,1-.45,2.71,12,12,0,0,1-.85,2.38,10.32,10.32,0,0,1-1.32,2.06,10,10,0,0,1-1.86,1.73Zm7.74-.3-2.9-4.06-.64.5c.45.6.92,1.25,1.42,1.95s1,1.4,1.44,2.11Zm3-5.54h-3.92v.78h3.92Zm-.12,10.26h.74V187.14h-.74Zm-10.91-27.33a3.35,3.35,0,0,0,.63,1.11,2.76,2.76,0,0,0,1,.71,2.9,2.9,0,0,0,1.22.25,2.85,2.85,0,0,0,1.21-.25,2.67,2.67,0,0,0,1-.71,3.55,3.55,0,0,0,.64-1.11,4.56,4.56,0,0,0,0-2.86,3.55,3.55,0,0,0-.64-1.11,2.67,2.67,0,0,0-1-.71,2.85,2.85,0,0,0-1.21-.25,2.9,2.9,0,0,0-1.22.25,2.76,2.76,0,0,0-1,.71,3.35,3.35,0,0,0-.63,1.11,4.56,4.56,0,0,0,0,2.86m1.14-3.46a2.2,2.2,0,0,1,3.31,0,3.54,3.54,0,0,1,0,4.06,2.2,2.2,0,0,1-3.31,0,3.59,3.59,0,0,1,0-4.06m7.41,1.53h-2.32v.78h2.32Zm-.5,7.26h.74V168.34h-.74Zm2.88,2h.74V167.14h-.74Zm-5-23.16-.14-2.88-.76,0,.16,2.88Zm4-.12h.74v-3h-.74Zm-10.74.76,3.83,0,3.93-.08c1.3,0,2.6-.08,3.9-.13s2.54-.12,3.74-.2l0-.78c-1.22.08-2.47.15-3.77.2s-2.61.1-3.93.13l-3.95.08-3.85,0Zm13-5.84-1.91.12q-1.11.06-2.28.09l-2.28,0q-1.11,0-2,0v.78c.54,0,1.19,0,1.94,0l2.29,0,2.28-.08c.74,0,1.37-.07,1.91-.11Zm-8.42.6H811V153h-.74Zm8-3.68q-.81.06-1.86.09l-2.17.07-2.15,0-1.8,0v.78l1.78,0,2.15-.05,2.17-.07,1.88-.08Zm-.74.38h.74v-3.18h-.74Zm.74-3.52-1.92.07-2.24.07-2.22,0-1.86,0,.06.78,1.84,0,2.2,0,2.23-.07,1.91-.08Zm-11.1-9.52a14.59,14.59,0,0,0,3.16-3.62,16.42,16.42,0,0,0,1.8-4.52l-.78-.06a20.1,20.1,0,0,1-.7,2.26,11.91,11.91,0,0,1-1,2,12.91,12.91,0,0,1-1.33,1.76,18.56,18.56,0,0,1-1.74,1.66Zm14.36-4.82h-3.32l-.38.36.38.42,3.32,0Zm-5.86,3.88-3.86-3.64-.52.58.86.79,1,.94,1,1,.91.94Zm-.82-7.84-1.68.08-2.06.08-2.06,0-1.68,0,.06.78,1.65,0,2-.05,2-.07,1.68-.08Zm2.62,12.88h.74V127.14h-.74Zm-12.26-33.46,3.91,0,4.11-.08c1.37,0,2.73-.08,4.08-.13s2.62-.12,3.82-.2l0-.78c-1.22.08-2.5.15-3.85.2s-2.72.1-4.1.13l-4.13.08-3.94,0Zm13.9,5.16-2,.12c-.78,0-1.59.07-2.41.09l-2.42,0c-.79,0-1.46,0-2,0v.78c.54,0,1.21,0,2,0l2.43,0,2.42-.08c.78,0,1.43-.07,2-.11Zm-.2-9.84-1.94.12q-1.14.06-2.34.09l-2.35,0c-.77,0-1.43,0-2,0v.78c.54,0,1.2,0,2,0l2.36,0,2.35-.08c.76,0,1.4-.07,1.94-.11Zm-8.62,1H811v-4.84h-.74Zm0,9.84H811v-4.34h-.74Zm1.5-24.27a3.36,3.36,0,0,0,1.1-.79,3.46,3.46,0,0,0,.71-1.17,4.21,4.21,0,0,0,0-2.86,3.46,3.46,0,0,0-.71-1.17,3.36,3.36,0,0,0-1.1-.79,3.42,3.42,0,0,0-1.41-.29,3.47,3.47,0,0,0-1.42.29,3.36,3.36,0,0,0-1.1.79,3.44,3.44,0,0,0-.7,1.17,4.21,4.21,0,0,0,0,2.86,3.44,3.44,0,0,0,.7,1.17,3.36,3.36,0,0,0,1.1.79,3.47,3.47,0,0,0,1.42.29,3.42,3.42,0,0,0,1.41-.29m-.29-6.12a2.46,2.46,0,0,1,.86.63,2.7,2.7,0,0,1,.56.94,3.64,3.64,0,0,1,0,2.32,2.7,2.7,0,0,1-.56.94,2.46,2.46,0,0,1-.86.63,2.7,2.7,0,0,1-1.12.23,2.75,2.75,0,0,1-1.13-.23,2.55,2.55,0,0,1-.86-.63,2.68,2.68,0,0,1-.55-.94,3.64,3.64,0,0,1,0-2.32,2.68,2.68,0,0,1,.55-.94,2.55,2.55,0,0,1,.86-.63,2.75,2.75,0,0,1,1.13-.23,2.7,2.7,0,0,1,1.12.23m6,11.69h.74V81.14h-.74Z"/><path class="cls-3" d="M847.27,387.3l.87.72c.31.27.62.54.93.83l.9.86.78.79.78-.8-.84-.78-1-.84-1-.82q-.5-.4-.93-.72Zm-5.42-18.58c-.86.07-1.66.11-2.42.13s-1.56,0-2.4,0v.78l2.39,0c.75,0,1.56-.05,2.43-.1Zm2.88,3.4h-3.46v.78h3.46ZM837,376.9h.74v-7.8H837Zm7.36,2.9h.74V366.34h-.74Zm-2.18-4.1c-.88.23-1.73.4-2.55.53a21.28,21.28,0,0,1-2.63.23v.78a21.47,21.47,0,0,0,2.72-.25,25.49,25.49,0,0,0,2.62-.55Zm5.24,6.1h.74V365.14h-.74ZM844.53,352c-.46.13-1,.25-1.54.36s-1.16.2-1.76.28-1.2.14-1.78.19-1.12.07-1.6.07v.72c.49,0,1,0,1.64-.07s1.21-.11,1.83-.19,1.22-.17,1.82-.28,1.12-.22,1.59-.34Zm-6.68,1.28h.74v-6.1h-.74Zm9.58,3.36h.74v-11.5h-.74Zm1.84,2.8-1.93.12q-1.14.06-2.34.09l-2.35,0q-1.14,0-2,0v.78c.54,0,1.2,0,2,0l2.35,0,2.35-.08c.76,0,1.4-.07,1.94-.11Zm-8.6.8h.74v-4.48h-.74Zm10.82-27.56h-3.32l-.38.36.38.42,3.32,0Zm-9.69,3.55a3.28,3.28,0,0,0,1.08-.79,3.61,3.61,0,0,0,.7-1.17,4.21,4.21,0,0,0,0-2.86,3.61,3.61,0,0,0-.7-1.17,3.28,3.28,0,0,0-1.08-.79,3.34,3.34,0,0,0-1.4-.29,3.38,3.38,0,0,0-1.41.29,3.28,3.28,0,0,0-1.08.79,3.42,3.42,0,0,0-.69,1.17,4.21,4.21,0,0,0,0,2.86,3.42,3.42,0,0,0,.69,1.17,3.28,3.28,0,0,0,1.08.79,3.38,3.38,0,0,0,1.41.29,3.34,3.34,0,0,0,1.4-.29m-.28-6.12a2.22,2.22,0,0,1,.84.63,3,3,0,0,1,.54.94,3.64,3.64,0,0,1,0,2.32,3,3,0,0,1-.54.94,2.22,2.22,0,0,1-.84.63,2.7,2.7,0,0,1-1.12.23,2.75,2.75,0,0,1-1.13-.23,2.38,2.38,0,0,1-.84-.63,3,3,0,0,1-.53-.94,3.64,3.64,0,0,1,0-2.32,3,3,0,0,1,.53-.94,2.38,2.38,0,0,1,.84-.63,2.75,2.75,0,0,1,1.13-.23,2.7,2.7,0,0,1,1.12.23m5.91,11.69h.74V325.14h-.74Zm-1.57-36.38a3.4,3.4,0,0,0,1.12-.58,2.83,2.83,0,0,0,.74-.91,2.77,2.77,0,0,0-.74-3.39,3.22,3.22,0,0,0-1.12-.58,4.86,4.86,0,0,0-1.39-.2,4.73,4.73,0,0,0-1.4.2,3.09,3.09,0,0,0-1.11.58,2.64,2.64,0,0,0-.74.92,3,3,0,0,0,0,2.47,2.7,2.7,0,0,0,.74.91,3.26,3.26,0,0,0,1.11.58,4.73,4.73,0,0,0,1.4.2,4.86,4.86,0,0,0,1.39-.2m-3.4-1.08a2.12,2.12,0,0,1,0-3.3,3.83,3.83,0,0,1,4,0,2.1,2.1,0,0,1,0,3.3,3.83,3.83,0,0,1-4,0m-7.29,4.26,3.91,0,4.11-.08c1.37,0,2.73-.08,4.08-.13s2.62-.12,3.82-.2l0-.78c-1.22.08-2.5.15-3.85.2s-2.72.1-4.1.13l-4.13.08-3.94,0Zm13.9,4.94-2,.12c-.78,0-1.59.07-2.41.09l-2.42,0c-.79,0-1.46,0-2,0v.78c.54,0,1.21,0,2,0l2.43,0,2.42-.08c.78,0,1.43-.07,2-.11Zm-8.82,1H841V310.2h-.74Zm3.1-34.5c-.74-.13-1.41-.27-2-.42s-1.31-.33-2.05-.56l-.16.84q1,.3,2,.51c.65.14,1.32.28,2,.41Zm1.56,1.36-1.77.08c-.7,0-1.43.06-2.17.07l-2.17.05-1.77,0,.06.78,1.74,0,2.15-.05,2.16-.07,1.77-.08Zm-5.71,5.35a3.1,3.1,0,0,0,2.07.61,3.14,3.14,0,0,0,2.07-.61,1.89,1.89,0,0,0,0-3,3.14,3.14,0,0,0-2.07-.61,3.1,3.1,0,0,0-2.07.61,1.89,1.89,0,0,0,0,3m.52-2.47a3.2,3.2,0,0,1,3.1,0,1.2,1.2,0,0,1,0,2,3.2,3.2,0,0,1-3.1,0,1.2,1.2,0,0,1,0-2m1.15,5.26h.74v-1.78h-.74Zm5.24-.94c-.66.11-1.43.21-2.33.3s-1.83.17-2.79.24-1.91.12-2.84.15-1.75,0-2.44,0l.06.78c.7,0,1.52,0,2.45-.07s1.86-.1,2.82-.16,1.88-.14,2.78-.23,1.67-.18,2.33-.28Zm1.32,1.72h.74V279.14h-.74Zm.74,1.18-1.94.07-2.29.07-2.27.05-1.88,0,.06.78,1.87,0,2.25-.05,2.27-.07,1.93-.08Zm-.74,3.88h.74V292h-.74Zm1.64-27.84-2,.12c-.78,0-1.59.07-2.41.09l-2.42,0c-.79,0-1.46,0-2,0v.78c.54,0,1.21,0,2,0l2.43,0,2.42-.08c.78,0,1.43-.07,2-.11Zm-8.82,1H841v-3.7h-.74Zm8.42-9-1.88.12c-.72,0-1.47.07-2.23.09l-2.24,0c-.73,0-1.37,0-1.93,0v.78c.54,0,1.18,0,1.91,0l2.24,0,2.24-.08c.72,0,1.35-.07,1.89-.11Zm-8.28.6h.74v-2.82h-.74Zm7.84-3.42c-.54,0-1.15.07-1.84.09l-2.12.07-2.1,0-1.78,0v.78l1.76,0,2.1-.05,2.12-.07,1.86-.08Zm-.74.38h.74v-2.82h-.74Zm.74-3.16-1.9.07-2.2.07-2.17,0-1.83,0,.06.78,1.82,0,2.15,0,2.18-.07,1.89-.08Zm-13.06,9.58,3.91,0,4.11-.08c1.37,0,2.73-.08,4.08-.13s2.62-.12,3.82-.2l0-.78c-1.22.08-2.5.15-3.85.2s-2.72.1-4.1.13l-4.13.08-3.94,0Zm16.32-22.84h-3.32l-.38.36.38.42,3.32,0Zm-6-3.82c-.36,0-.68,0-.94,0l-.77,0H842l.06.78h1.73l.77,0,.94,0Zm.72,7.08a17.43,17.43,0,0,1-2.08.42,15.75,15.75,0,0,1-2.1.14l0,.74a17.9,17.9,0,0,0,2.22-.13,18.66,18.66,0,0,0,2.22-.41ZM842,245.22l.74-.2v-7.68l-.74-.4Zm-1-1.52a7.32,7.32,0,0,1-1.77.69,9.23,9.23,0,0,1-1.91.21l0,.72a11.53,11.53,0,0,0,2.08-.22,8.48,8.48,0,0,0,2-.72Zm-3.72,1.62.74-.2v-7.78l-.74-.4Zm3.4-8.46c-.36,0-.67,0-.92,0l-.74,0h-1.74l.06.78H839l.73,0,.92,0Zm6.74,12.94h.74V233.14h-.74Zm1.84-27.56-2,.12c-.78,0-1.59.07-2.41.09l-2.42,0c-.79,0-1.46,0-2,0v.78c.54,0,1.21,0,2,0l2.43,0,2.42-.08c.78,0,1.43-.07,2-.11Zm-8.82.6h.74v-2.72h-.74Zm7.72-3.32c-.54,0-1.14.07-1.82.09l-2.08.07-2.06,0-1.76,0v.78l1.74,0,2.06-.05,2.08-.07,1.84-.08Zm-.74.38h.74v-2.72h-.74Zm.74-3.06-1.88.07-2.16.07L842,217l-1.81,0,.06.78,1.8,0,2.11,0,2.14-.07,1.87-.08Zm-.36-7.93A2.78,2.78,0,0,0,847,208a3.72,3.72,0,0,0-1.15-.55,5.4,5.4,0,0,0-2.84,0,3.61,3.61,0,0,0-1.15.55,2.55,2.55,0,0,0-.77.87,2.38,2.38,0,0,0,0,2.24,2.55,2.55,0,0,0,.77.87,3.61,3.61,0,0,0,1.15.55,5.4,5.4,0,0,0,2.84,0A3.72,3.72,0,0,0,847,212a2.78,2.78,0,0,0,.77-.87,2.38,2.38,0,0,0,0-2.24m-6,.27a2,2,0,0,1,.6-.62,2.85,2.85,0,0,1,.92-.4,4.65,4.65,0,0,1,1.15-.14,4.56,4.56,0,0,1,1.14.14,2.85,2.85,0,0,1,.92.4,2,2,0,0,1,.61.62,1.75,1.75,0,0,1,0,1.7,2,2,0,0,1-.61.62,2.85,2.85,0,0,1-.92.4,4.56,4.56,0,0,1-1.14.14,4.65,4.65,0,0,1-1.15-.14,2.85,2.85,0,0,1-.92-.4,2,2,0,0,1-.6-.62,1.75,1.75,0,0,1,0-1.7m-6.64,6.06,3.91,0,4.11-.08c1.37,0,2.73-.08,4.08-.13s2.62-.12,3.82-.2l0-.78c-1.22.08-2.5.15-3.85.2s-2.72.1-4.1.13l-4.13.08-3.94,0Zm14-23-4-2.26-.36.66,1.94,1.12c.64.37,1.3.77,2,1.2Zm-9.66,1a8.31,8.31,0,0,0,3.64-2.12,8.74,8.74,0,0,0,2-3.72l-.7-.24a12.25,12.25,0,0,1-.78,2,6.12,6.12,0,0,1-2.54,2.6,10.82,10.82,0,0,1-2,.83Zm4.78,2.18h.74v4.1h-.74Zm-9.24-.14,3.94,0,4.13-.08c1.38,0,2.74-.08,4.1-.13s2.63-.12,3.85-.2l0,.78c-1.2.08-2.48.15-3.82.2s-2.71.1-4.08.13l-4.11.08-3.91,0Zm14,7c-.54,0-1.19.08-2,.11l-2.42.08-2.43,0c-.79,0-1.46,0-2,0v-.78c.56,0,1.23,0,2,0l2.42,0c.82,0,1.63-.05,2.41-.09l2-.12Zm-8.82-3.84H841v4h-.74ZM843,174.22l.24-3.7-.78,0-.2,3.68Zm-3.66.36-.28-3.78-.8.06.34,3.78Zm6.12-1.2c-1.5.25-3,.46-4.48.62s-3.08.29-4.76.38l.14.78c1.64-.11,3.2-.25,4.7-.42s3-.38,4.54-.62Zm-1.06-4.62c-.47,0-1,.08-1.7.11l-2.06.09-2,.06-1.69,0,.06.78,1.66,0,2-.06,2-.09,1.71-.09Zm4.88,13.08-1.95.12c-.77,0-1.56.07-2.38.09l-2.39,0c-.78,0-1.44,0-2,0v.78q.81,0,2,0l2.39,0,2.39-.08c.77,0,1.42-.07,2-.11Zm-8.72.6h.74v-2.6h-.74Zm7.62-3.2c-.54,0-1.14.07-1.81.09l-2.05.07-2,0-1.74,0v.78l1.73,0,2-.05,2-.07,1.83-.08Zm-.74.38h.74V176.9h-.74Zm.74-3.06-1.86.07-2.12.07-2.1.05-1.8,0,.06.78,1.79,0,2.08,0,2.1-.07,1.85-.08Zm-.74-.68h.74v-8.74h-.74Zm-9.84-28.18a3.1,3.1,0,0,0,.7,1,3.42,3.42,0,0,0,1.05.69,3.19,3.19,0,0,0,1.26.26,3.11,3.11,0,0,0,1.25-.26,3.42,3.42,0,0,0,1-.69,3.29,3.29,0,0,0,.71-1,3.09,3.09,0,0,0,0-2.48,3.29,3.29,0,0,0-.71-1,3.42,3.42,0,0,0-1-.69,3.11,3.11,0,0,0-1.25-.26,3.19,3.19,0,0,0-1.26.26,3.42,3.42,0,0,0-1.05.69,3.1,3.1,0,0,0-.7,1,3.09,3.09,0,0,0,0,2.48m.68-2.19a2.52,2.52,0,0,1,.54-.79,2.46,2.46,0,0,1,.8-.54,2.54,2.54,0,0,1,1-.2,2.49,2.49,0,0,1,1,.2,2.36,2.36,0,0,1,.8.54,2.73,2.73,0,0,1,.55.79,2.36,2.36,0,0,1,0,1.9,2.73,2.73,0,0,1-.55.79,2.36,2.36,0,0,1-.8.54,2.49,2.49,0,0,1-1,.2,2.54,2.54,0,0,1-1-.2,2.46,2.46,0,0,1-.8-.54,2.52,2.52,0,0,1-.54-.79,2.36,2.36,0,0,1,0-1.9m11,9.93-1.95.12c-.77,0-1.56.07-2.38.09l-2.39,0c-.78,0-1.44,0-2,0v.78q.81,0,2,0l2.39,0,2.39-.08c.77,0,1.42-.07,2-.11Zm-8.72.8h.74V152h-.74Zm6.88-3.24h.74V141.14h-.74Zm-10.22-22a10.94,10.94,0,0,0,3-3,10.58,10.58,0,0,0,1.52-4.05l-.82-.06a13.08,13.08,0,0,1-.54,2.08,8.3,8.3,0,0,1-.86,1.68,9.08,9.08,0,0,1-1.22,1.42,15.78,15.78,0,0,1-1.6,1.3Zm10.34-4.66H844v.78h3.56Zm-2.84,3.92-3.1-3-.54.6c.5.47,1,.94,1.47,1.43s1,1,1.55,1.63Zm-.3-6.9-1.62.08-1.93.09-1.92,0-1.61,0,.06.78,1.58,0,1.9-.06,1.92-.08,1.62-.08Zm3,7.88h.74V121.14h-.74Zm.74,1.28-2,.07-2.35.07-2.32,0-1.9,0,.06.78,1.89,0,2.3-.05,2.33-.07,2-.08Zm-.74,5h.74v-4.52h-.74Zm.32-29.88h-2.92v.78h2.92Zm0-3.4h-2.92v.78h2.92Zm-4.86,5.64.24-4.82-.78,0-.2,4.8Zm-3.6.36-.42-4.88-.8.06.5,4.88Zm5-7.36c-.47,0-1,.08-1.7.11l-2,.09-2,.06-1.69,0,.06.78,1.66,0,2-.06,2-.09,1.71-.09Zm.76,6.56c-1.43.15-2.86.26-4.3.34s-3,.14-4.62.18l.12.78,2.32-.1,2.2-.12,2.16-.14,2.2-.18Zm2.42,3.5h.74V101.14h-.74Zm1.84,2.44-1.93.12q-1.14.06-2.34.09l-2.35,0q-1.14,0-2,0v.78c.54,0,1.2,0,2,0l2.35,0,2.35-.08c.76,0,1.4-.07,1.94-.11Zm-8.6.8h.74v-3.66h-.74ZM848.11,90h-7.42v.78h7.42Zm0-3.92-1.7.07-2,.06-2,0h-1.7V87h1.68l2,0,2-.05q1,0,1.71-.06Zm0-2.86h-.74v7h.74Zm-7.42,7.28h.74V83.52h-.74Zm-5,4.86,3.83,0,3.93-.08c1.3,0,2.6-.08,3.9-.13s2.54-.12,3.74-.2l0-.78c-1.22.08-2.47.15-3.77.2s-2.61.1-3.93.13l-3.95.08-3.85,0Zm8.44-.68h.74v-3.1h-.74Z"/><path class="cls-3" d="M870.57,415.57a2.65,2.65,0,0,0,.82-.56,2.69,2.69,0,0,0,.53-.82,2.67,2.67,0,0,0,0-2,2.69,2.69,0,0,0-.53-.82,2.59,2.59,0,0,0-1.88-.77,2.61,2.61,0,0,0-1.06.21,2.54,2.54,0,0,0-.82.56,2.37,2.37,0,0,0-.53.82,2.67,2.67,0,0,0,0,2,2.37,2.37,0,0,0,.53.82,2.54,2.54,0,0,0,.82.56,2.61,2.61,0,0,0,1.06.21,2.64,2.64,0,0,0,1.06-.21m.31-3.67a2,2,0,0,1,0,2.6,1.75,1.75,0,0,1-1.37.56,1.72,1.72,0,0,1-1.37-.56,2,2,0,0,1,0-2.6,1.72,1.72,0,0,1,1.37-.56,1.75,1.75,0,0,1,1.37.56m.25-5.06c-.54-.19-1.06-.38-1.57-.59s-1-.43-1.57-.67l-.28.82q.75.35,1.56.63l1.58.57Zm1.42,1.76c-.43,0-.93,0-1.49.06l-1.75,0-1.76,0h-1.48l.06.76h1.46l1.73,0,1.74,0,1.49,0Zm5.08,1.94h-3v.76h3Zm-3.52,7.26h.74V404.34h-.74Zm3.34,2h.74V403.14h-.74Zm-9.8-29.46.74-.2v-4.76h-.74Zm5.86-5.08c-.92.05-1.9.09-2.92.1l-2.94,0,.06.76,2.89,0c1,0,2,0,2.91-.08Zm-.74,5.2h.74v-4.68h-.74Zm.74-.42h-5.86v.78h5.86Zm8-2.16h-3.32l-.38.36.38.42,3.32,0Zm-2.22,10-1.95.12c-.77,0-1.56.07-2.38.09l-2.39,0c-.78,0-1.44,0-2,0v.78q.81,0,2,0l2.39,0,2.39-.08c.77,0,1.42-.07,2-.11Zm-8.72.6h.74v-2.66h-.74Zm7.62-3.26c-.54,0-1.14.07-1.81.09s-1.36.05-2.05.06l-2,.05-1.74,0v.78l1.73,0,2-.05,2-.07,1.83-.08Zm-.74.38h.74v-2.78h-.74Zm.74-3.12-1.86.07-2.12.07-2.1.05-1.8,0,.06.78,1.79,0,2.08-.05,2.1-.07,1.85-.08Zm-.74-.68h.74v-8.62h-.74ZM872,370.11a3,3,0,0,0,.94-.65,2.93,2.93,0,0,0,.58-.92,2.91,2.91,0,0,0,0-2.12,2.93,2.93,0,0,0-.58-.92,3,3,0,0,0-.94-.65,3.08,3.08,0,0,0-1.28-.25,3,3,0,0,0-1.28.25,2.81,2.81,0,0,0-.94.65,2.61,2.61,0,0,0-.58.92,2.91,2.91,0,0,0,0,2.12,2.61,2.61,0,0,0,.58.92,2.81,2.81,0,0,0,.94.65,3,3,0,0,0,1.28.25,3.08,3.08,0,0,0,1.28-.25m-2.28-.66a2,2,0,0,1-.7-.5,2.18,2.18,0,0,1-.56-1.47,2.13,2.13,0,0,1,.14-.77,2.06,2.06,0,0,1,1.12-1.2,2.35,2.35,0,0,1,1-.19,2.4,2.4,0,0,1,1,.19,2.17,2.17,0,0,1,.71.5,2.23,2.23,0,0,1,.56,1.47,2.29,2.29,0,0,1-.14.78,2.46,2.46,0,0,1-.42.69,2.17,2.17,0,0,1-.71.5,2.4,2.4,0,0,1-1,.19,2.35,2.35,0,0,1-1-.19m4.88-7.27c-.31,0-.68.05-1.12.06l-1.42.05-1.58,0-1.58,0-1.43,0h-1.11l.06.78,1.76,0,2.3-.05,2.32-.07,1.8-.08ZM873,360c-.72-.23-1.42-.47-2.08-.73s-1.36-.54-2.06-.85l-.28.82c.68.29,1.36.56,2.06.81s1.38.48,2.06.71Zm4.48,13.84h.74V357.14h-.74Zm-3.9-34.56-1.56.07-1.45.05-1.42,0h-1.49l.06.78H869l1.27,0,1.27,0c.42,0,.87,0,1.34-.05Zm-6.2,8a13,13,0,0,0,2.18-1.53,13.4,13.4,0,0,0,1.83-1.94,13,13,0,0,0,1.37-2.2,11.22,11.22,0,0,0,.82-2.31l-.92.26a9.64,9.64,0,0,1-.71,2,10.75,10.75,0,0,1-1.24,1.94,13,13,0,0,1-1.72,1.77,12.11,12.11,0,0,1-2.13,1.45Zm6.7-2.36h3.84v-.78H874Zm0-3.5h3.84v-.78H874Zm3.4,5.28h.74v-9.5h-.74Zm.74,1.64-1.94.07-2.29.07-2.27.05-1.88,0,.06.78,1.87,0,2.25-.05,2.27-.07,1.93-.08Zm-.74,5.1h.74V348.8h-.74Zm.52-31.64h-3.16v.78H878Zm-10.37,1.58a3,3,0,0,0,.68,1,3.59,3.59,0,0,0,1,.67,3.1,3.1,0,0,0,1.25.25,3.05,3.05,0,0,0,1.24-.25,3.46,3.46,0,0,0,1-.67,3.22,3.22,0,0,0,.69-1,3,3,0,0,0,0-2.4,3.22,3.22,0,0,0-.69-1,3.46,3.46,0,0,0-1-.67,3.05,3.05,0,0,0-1.24-.25,3.1,3.1,0,0,0-1.25.25,3.59,3.59,0,0,0-1,.67,3,3,0,0,0-.68,1,3,3,0,0,0,0,2.4m.68-2.12a2.39,2.39,0,0,1,.52-.76,2.63,2.63,0,0,1,.78-.51,2.45,2.45,0,0,1,1-.19,2.4,2.4,0,0,1,1,.19,2.63,2.63,0,0,1,.78.51,2.26,2.26,0,0,1,.53.76,2.32,2.32,0,0,1,0,1.84,2.26,2.26,0,0,1-.53.76,2.63,2.63,0,0,1-.78.51,2.4,2.4,0,0,1-1,.19,2.45,2.45,0,0,1-1-.19,2.63,2.63,0,0,1-.78-.51,2.39,2.39,0,0,1-.52-.76,2.32,2.32,0,0,1,0-1.84m2.31,11.25.74-.2v-4.39h-.74Zm7.6-4.73c-.48,0-1.06,0-1.73.07l-2.07,0-2.06,0h-1.74l.06.76h1.71l2,0,2,0q1,0,1.74-.06Zm-.74,4.86h.74v-4.34h-.74Zm.74-.42h-7.6v.78h7.6Zm-.74-5.94h.74v-9.08h-.74Zm-1.57-28.8a3.4,3.4,0,0,0,1.12-.58,2.76,2.76,0,0,0,.74-.92,2.68,2.68,0,0,0,.27-1.23,2.67,2.67,0,0,0-1-2.15,3.22,3.22,0,0,0-1.12-.58,4.86,4.86,0,0,0-1.39-.2,4.73,4.73,0,0,0-1.4.2,3.09,3.09,0,0,0-1.11.58,2.64,2.64,0,0,0-.74.92,2.77,2.77,0,0,0-.27,1.23,2.68,2.68,0,0,0,.27,1.23,2.64,2.64,0,0,0,.74.92,3.26,3.26,0,0,0,1.11.58,4.73,4.73,0,0,0,1.4.2,4.86,4.86,0,0,0,1.39-.2m-3.4-1.08a2.12,2.12,0,0,1,0-3.3,3.83,3.83,0,0,1,4,0,2.1,2.1,0,0,1,0,3.3,3.83,3.83,0,0,1-4,0m-7.29,4.26,3.91,0,4.11-.08c1.37,0,2.73-.08,4.08-.13s2.62-.12,3.82-.2l0-.78c-1.22.08-2.5.15-3.85.2s-2.72.1-4.1.13l-4.13.08-3.94,0Zm13.9,4.94-2,.12c-.78,0-1.59.07-2.41.09l-2.42,0c-.79,0-1.46,0-2,0v.78c.54,0,1.21,0,2,0l2.43,0,2.42-.08c.78,0,1.43-.07,2-.11Zm-8.82,1H871V302.2h-.74Zm10.78-21-.48-.6-6.76,3.88L867,285l-.48.6,7.24,4.14Zm-1.22-4.62-4.44-2.86-.42.66c.66.41,1.38.88,2.15,1.39l2.19,1.49Zm-10.4.62a7.35,7.35,0,0,0,3.67-2,8.27,8.27,0,0,0,2-3.75l-.72-.18a7.58,7.58,0,0,1-1.85,3.46,7.26,7.26,0,0,1-3.45,1.78Zm8-5h.74v-4.36h-.74Zm-5.62-3.2a7.44,7.44,0,0,1-.63,1.79,7.54,7.54,0,0,1-1.21,1.65l.66.4a8.85,8.85,0,0,0,1.22-1.75,7.61,7.61,0,0,0,.7-1.93Zm6.36-1.48c-1.07.06-2.16.1-3.27.14l-3.34.09-3.31.07-3.16,0,.08.78,3.14,0,3.28-.06,3.32-.1,3.26-.12Zm-.17-5.13a2.8,2.8,0,0,0-.79-.89,4,4,0,0,0-1.17-.55,5.15,5.15,0,0,0-1.43-.19,5,5,0,0,0-1.43.19,3.72,3.72,0,0,0-1.17.55,2.58,2.58,0,0,0-.79.89,2.3,2.3,0,0,0-.29,1.18,2.32,2.32,0,0,0,.29,1.18,2.58,2.58,0,0,0,.79.89,3.72,3.72,0,0,0,1.17.55,5,5,0,0,0,1.43.19,5.15,5.15,0,0,0,1.43-.19,4,4,0,0,0,1.17-.55,2.8,2.8,0,0,0,.79-.89,2.43,2.43,0,0,0,.29-1.18,2.4,2.4,0,0,0-.29-1.18m-6.1.29a1.78,1.78,0,0,1,.62-.63,2.94,2.94,0,0,1,.94-.38,4.79,4.79,0,0,1,1.16-.13,4.71,4.71,0,0,1,1.15.13,2.94,2.94,0,0,1,.94.38,1.81,1.81,0,0,1,.63.63,1.76,1.76,0,0,1,.23.89,1.71,1.71,0,0,1-.23.89,1.81,1.81,0,0,1-.63.63,3.19,3.19,0,0,1-.94.38,4.71,4.71,0,0,1-1.15.13,4.79,4.79,0,0,1-1.16-.13,3.19,3.19,0,0,1-.94-.38,1.78,1.78,0,0,1-.62-.63,1.62,1.62,0,0,1-.23-.89,1.67,1.67,0,0,1,.23-.89m1.89-8.18L866.55,263l.48.6,6.76-3.88,6.76,3.88.48-.6Zm-.72-24.3c-.74-.13-1.41-.27-2-.42s-1.31-.33-2-.56l-.16.84q1,.3,2,.51c.65.14,1.32.28,2,.41ZM868.36,242a2.18,2.18,0,0,0,.56.82,2.76,2.76,0,0,0,.89.56,3.1,3.1,0,0,0,1.18.21,3.14,3.14,0,0,0,1.18-.21,3,3,0,0,0,.89-.56,2.44,2.44,0,0,0,.56-.82,2.67,2.67,0,0,0,0-2,2.44,2.44,0,0,0-.56-.82,3,3,0,0,0-.89-.56,3.14,3.14,0,0,0-1.18-.21,3.1,3.1,0,0,0-1.18.21,2.76,2.76,0,0,0-.89.56,2.18,2.18,0,0,0-.56.82,2.67,2.67,0,0,0,0,2m4.18.31a2.43,2.43,0,0,1-3.1,0,1.86,1.86,0,0,1,0-2.6,2.43,2.43,0,0,1,3.1,0,1.86,1.86,0,0,1,0,2.6m2-6-1.75.08-2.14.08-2.14,0-1.75,0,.06.78,1.72,0,2.12,0,2.13-.07,1.75-.08Zm7,2.54h-3.32l-.38.36.38.42,3.32,0Zm-2.22,8.56-1.95.12c-.77,0-1.56.07-2.38.09l-2.39,0c-.78,0-1.44,0-2,0v.78q.81,0,2,0l2.39,0,2.39-.08c.77,0,1.42-.07,2-.11Zm-8.72.8h.74V245h-.74Zm6.88-3.24h.74V233.14h-.74Zm-4.78-22.62-.12-2.64-.78,0,.16,2.66Zm3.78-.12h.74v-2.68h-.74Zm-.58-3.47a3.59,3.59,0,0,0,1.09-.61,2.71,2.71,0,0,0,.72-.9,2.48,2.48,0,0,0,0-2.17,2.74,2.74,0,0,0-.72-.91,3.59,3.59,0,0,0-1.09-.61,4.25,4.25,0,0,0-2.76,0,3.79,3.79,0,0,0-1.08.61,2.71,2.71,0,0,0-.71.91,2.48,2.48,0,0,0,0,2.17,2.67,2.67,0,0,0,.71.9,3.79,3.79,0,0,0,1.08.61,4.25,4.25,0,0,0,2.76,0m-.28-4.54a2.4,2.4,0,0,1,.85.47,2.32,2.32,0,0,1,.55.67,1.7,1.7,0,0,1,0,1.6,2.32,2.32,0,0,1-.55.67,2.4,2.4,0,0,1-.85.47,3.41,3.41,0,0,1-1.09.17,3.48,3.48,0,0,1-1.1-.17,2.59,2.59,0,0,1-.85-.47A2.28,2.28,0,0,1,872,217a1.7,1.7,0,0,1,0-1.6,2.28,2.28,0,0,1,.54-.67,2.59,2.59,0,0,1,.85-.47,3.48,3.48,0,0,1,1.1-.17,3.41,3.41,0,0,1,1.09.17m.27,15a3.18,3.18,0,0,0,1-.58,2.48,2.48,0,0,0,.69-.86,2.46,2.46,0,0,0,0-2.12,2.48,2.48,0,0,0-.69-.86,3.18,3.18,0,0,0-1-.58,4.05,4.05,0,0,0-1.34-.21,4.17,4.17,0,0,0-1.36.21,3.08,3.08,0,0,0-1,.58,2.54,2.54,0,0,0-.67.86,2.46,2.46,0,0,0,0,2.12,2.54,2.54,0,0,0,.67.86,3.08,3.08,0,0,0,1,.58,4.17,4.17,0,0,0,1.36.21,4.05,4.05,0,0,0,1.34-.21m.53-3.92a1.79,1.79,0,0,1,0,2.84,2.86,2.86,0,0,1-1.87.57,2.89,2.89,0,0,1-1.88-.57,1.81,1.81,0,0,1,0-2.84,2.89,2.89,0,0,1,1.88-.57,2.86,2.86,0,0,1,1.87.57m-11.2-2.65,3.91,0,4.11-.08c1.37,0,2.73-.08,4.08-.13s2.62-.12,3.82-.2l0-.78c-1.22.08-2.5.15-3.85.2s-2.72.1-4.1.13l-4.13.08-3.94,0Zm2-19.64a10.94,10.94,0,0,0,3-3,10.58,10.58,0,0,0,1.52-4.05l-.82-.06a13.08,13.08,0,0,1-.54,2.08,8.3,8.3,0,0,1-.86,1.68,9.08,9.08,0,0,1-1.22,1.42,15.78,15.78,0,0,1-1.6,1.3Zm10.34-4.66H874v.78h3.56Zm-2.84,3.92-3.1-3-.54.6c.5.47,1,.94,1.47,1.43s1,1,1.55,1.63Zm-.3-6.9-1.62.08-1.93.09-1.92,0-1.61,0,.06.78,1.58,0,1.9-.06,1.92-.08,1.62-.08Zm3,7.88h.74V193.14h-.74Zm.74,1.28-2,.07-2.35.07-2.32,0-1.9,0,.06.78,1.89,0,2.3-.05,2.33-.07,2-.08Zm-.74,5h.74v-4.52h-.74Zm-10.62-30.2a9.44,9.44,0,0,0,1.92-1.81,13.13,13.13,0,0,0,1.41-2.23,13.34,13.34,0,0,0,.93-2.55,20.82,20.82,0,0,0,.48-2.79l-.76-.1a21.57,21.57,0,0,1-.45,2.71,12,12,0,0,1-.85,2.38,10.32,10.32,0,0,1-1.32,2.06,10,10,0,0,1-1.86,1.73Zm7.74-.3-2.9-4.06-.64.5c.45.6.92,1.25,1.42,1.95s1,1.4,1.44,2.11Zm3-5.54h-3.92v.78h3.92Zm-.12,10.26h.74V167.14h-.74Zm-10.91-27.33a3.35,3.35,0,0,0,.63,1.11,2.76,2.76,0,0,0,1,.71,2.9,2.9,0,0,0,1.22.25,2.85,2.85,0,0,0,1.21-.25,2.67,2.67,0,0,0,1-.71,3.55,3.55,0,0,0,.64-1.11,4.56,4.56,0,0,0,0-2.86,3.55,3.55,0,0,0-.64-1.11,2.67,2.67,0,0,0-1-.71,2.85,2.85,0,0,0-1.21-.25,2.9,2.9,0,0,0-1.22.25,2.76,2.76,0,0,0-1,.71,3.35,3.35,0,0,0-.63,1.11,4.56,4.56,0,0,0,0,2.86m1.14-3.46a2.2,2.2,0,0,1,3.31,0,3.54,3.54,0,0,1,0,4.06,2.2,2.2,0,0,1-3.31,0,3.59,3.59,0,0,1,0-4.06m7.41,1.53h-2.32v.78h2.32Zm-.5,7.26h.74V148.34h-.74Zm2.88,2h.74V147.14h-.74Zm-12.28-27.72,3.91,0,4.11-.08c1.37,0,2.73-.08,4.08-.13s2.62-.12,3.82-.2l0-.78c-1.22.08-2.5.15-3.85.2s-2.72.1-4.1.13l-4.13.08-3.94,0Zm9.06,7.32H875v-8.06h-.74Zm4-15.4-1.88.08q-1.07,0-2.16.06l-2.13,0-1.81,0,.06.78,1.64,0,2,0,2,0c.64,0,1.21,0,1.72-.06Zm-1.2,6a28.19,28.19,0,0,0,.75-3c.2-1,.35-2.07.45-3.07l-.8.26c0,.4-.08.83-.14,1.3s-.15.94-.25,1.42-.22,1-.34,1.44-.27.94-.41,1.38Zm.88-19.26h-3.36v.76H878Zm0-4.22h-3.36v.78H878Zm-10.42,3.16a3,3,0,0,0,.66,1,3.36,3.36,0,0,0,1,.69,3.24,3.24,0,0,0,3.56-.69,3,3,0,0,0,.67-1,3.32,3.32,0,0,0,0-2.48,3,3,0,0,0-.67-1,3.17,3.17,0,0,0-1-.69,3.23,3.23,0,0,0-2.54,0,3.36,3.36,0,0,0-1,.69,3,3,0,0,0-.66,1,3.32,3.32,0,0,0,0,2.48m.68-2.19a2.41,2.41,0,0,1,.5-.79,2.23,2.23,0,0,1,.77-.54,2.58,2.58,0,0,1,2,0,2.23,2.23,0,0,1,.77.54,2.62,2.62,0,0,1,.51.79,2.6,2.6,0,0,1,0,1.9,2.62,2.62,0,0,1-.51.79,2.23,2.23,0,0,1-.77.54,2.58,2.58,0,0,1-2,0,2.23,2.23,0,0,1-.77-.54,2.41,2.41,0,0,1-.5-.79,2.6,2.6,0,0,1,0-1.9m11.06,9.93-1.95.12c-.77,0-1.56.07-2.38.09l-2.39,0c-.78,0-1.44,0-2,0v.78q.81,0,2,0l2.39,0,2.39-.08c.77,0,1.42-.07,2-.11Zm-8.72.8h.74V118h-.74Zm6.88-3.24h.74V107.14h-.74Zm1.64-23.46-1.94.12q-1.14.06-2.34.09l-2.35,0c-.77,0-1.43,0-2,0v.78c.54,0,1.2,0,2,0l2.36,0,2.35-.08c.76,0,1.4-.07,1.94-.11Zm-8.62,1h.74V92.8h-.74Zm7.66-9.38h-7.32v.78h7.32Zm-12.94,4.4,3.91,0,4.11-.08c1.37,0,2.73-.08,4.08-.13s2.62-.12,3.82-.2l0-.78c-1.22.08-2.5.15-3.85.2s-2.72.1-4.1.13l-4.13.08-3.94,0Zm12.94-7.76-1.69.07-1.94.06-1.94,0h-1.69v.76h1.67l2,0,1.95,0c.63,0,1.19,0,1.69-.06Zm0-2.42h-.74v6h.74Zm-7.32,6.28h.74V81.72h-.74Zm3.34,3.5h.74v-2.6h-.74Z"/><path class="cls-3" d="M936.93,146.18a2.09,2.09,0,0,0,.43.66,2.12,2.12,0,0,0,.66.44,2,2,0,0,0,.8.16,1.92,1.92,0,0,0,.79-.16,2,2,0,0,0,.66-.44,2.12,2.12,0,0,0,.44-.66,2.08,2.08,0,0,0,0-1.6,2.12,2.12,0,0,0-.44-.66,2,2,0,0,0-.66-.44,1.92,1.92,0,0,0-.79-.16,2,2,0,0,0-.8.16,2.12,2.12,0,0,0-.66.44,2.09,2.09,0,0,0-.43.66,2.08,2.08,0,0,0,0,1.6m2.83.14a1.29,1.29,0,0,1-.94.38,1.31,1.31,0,0,1-1-.38,1.35,1.35,0,0,1,0-1.88,1.31,1.31,0,0,1,1-.38,1.29,1.29,0,0,1,.94.38,1.33,1.33,0,0,1,0,1.88m0-8.66-4.44-2.86-.42.66c.66.41,1.38.88,2.15,1.39l2.19,1.49Zm-10.4.62a7.27,7.27,0,0,0,3.67-2,8.27,8.27,0,0,0,2-3.75l-.72-.18a7.58,7.58,0,0,1-1.85,3.46,7.26,7.26,0,0,1-3.45,1.78Zm8-5h.74V129h-.74Zm-5.62-3.2a7.44,7.44,0,0,1-.63,1.79,7.54,7.54,0,0,1-1.21,1.65l.66.4a8.85,8.85,0,0,0,1.22-1.75,7.61,7.61,0,0,0,.7-1.93Zm6.36-1.48c-1.07.06-2.16.1-3.27.14l-3.34.09-3.31.07-3.16,0,.08.78,3.14,0,3.28-.06,3.32-.1,3.26-.12ZM938,123.5a2.88,2.88,0,0,0-.79-.88,4,4,0,0,0-1.17-.55,5.15,5.15,0,0,0-1.43-.19,5,5,0,0,0-1.43.19,3.72,3.72,0,0,0-1.17.55,2.65,2.65,0,0,0-.79.88,2.36,2.36,0,0,0-.29,1.19,2.3,2.3,0,0,0,.29,1.18,2.58,2.58,0,0,0,.79.89,3.72,3.72,0,0,0,1.17.55,5,5,0,0,0,1.43.19,5.15,5.15,0,0,0,1.43-.19,4,4,0,0,0,1.17-.55,2.8,2.8,0,0,0,.79-.89,2.4,2.4,0,0,0,.29-1.18,2.47,2.47,0,0,0-.29-1.19m-6.1.3a1.78,1.78,0,0,1,.62-.63,2.94,2.94,0,0,1,.94-.38,4.79,4.79,0,0,1,1.16-.13,4.71,4.71,0,0,1,1.15.13,2.94,2.94,0,0,1,.94.38,1.73,1.73,0,0,1,.63.63,1.76,1.76,0,0,1,.23.89,1.71,1.71,0,0,1-.23.89,1.73,1.73,0,0,1-.63.63,3.19,3.19,0,0,1-.94.38,4.71,4.71,0,0,1-1.15.13,4.79,4.79,0,0,1-1.16-.13,3.19,3.19,0,0,1-.94-.38,1.78,1.78,0,0,1-.62-.63,1.62,1.62,0,0,1-.23-.89,1.67,1.67,0,0,1,.23-.89m5.37-14.5.87.72c.31.27.62.54.93.83l.9.86.78.79.78-.8-.84-.78-1-.84-1-.82q-.5-.41-.93-.72Zm-6-17.88a2.7,2.7,0,0,0,.75.9,3.92,3.92,0,0,0,1.13.6,4.28,4.28,0,0,0,1.4.22,4.22,4.22,0,0,0,1.39-.22,3.8,3.8,0,0,0,1.13-.6,2.62,2.62,0,0,0,.76-.9,2.58,2.58,0,0,0,0-2.3,2.62,2.62,0,0,0-.76-.9,3.58,3.58,0,0,0-1.13-.6,4.22,4.22,0,0,0-1.39-.22,4.28,4.28,0,0,0-1.4.22,3.69,3.69,0,0,0-1.13.6,2.7,2.7,0,0,0-.75.9,2.58,2.58,0,0,0,0,2.3m.69-2a2,2,0,0,1,.59-.68,3.08,3.08,0,0,1,.89-.44,3.59,3.59,0,0,1,1.11-.16,3.52,3.52,0,0,1,1.1.16,3,3,0,0,1,.89.44,2.17,2.17,0,0,1,.6.68,1.83,1.83,0,0,1,0,1.74,2.28,2.28,0,0,1-.6.68,3.22,3.22,0,0,1-.89.44,3.52,3.52,0,0,1-1.1.16,3.59,3.59,0,0,1-1.11-.16,3.36,3.36,0,0,1-.89-.44,2.12,2.12,0,0,1-.59-.68,1.83,1.83,0,0,1,0-1.74m7.76,13.44-4.38-3-.4.62c.64.43,1.34.92,2.12,1.47l2.2,1.59Zm-10.2.62a7.1,7.1,0,0,0,3.4-1.79,7.66,7.66,0,0,0,1.94-3.19l-.72-.22a6.62,6.62,0,0,1-1.75,3,6.93,6.93,0,0,1-3.25,1.57Zm4.64-5.72h.74V95.42h-.74Zm-9-1.74,3.91,0,4.11-.08c1.37,0,2.73-.08,4.08-.13s2.62-.12,3.82-.2l0-.78c-1.22.08-2.5.15-3.85.2s-2.72.1-4.1.13l-4.13.08-3.94,0Z"/><line class="cls-4" x1="654.81" y1="40.3" x2="654.81" y2="540.6"/><line class="cls-4" y1="0.15" x2="943.31" y2="0.15"/></g><rect class="cls-5" y="80.45" width="626.61" height="420"/><g class="cls-2"><path class="cls-6" d="M51.06,373.79a52.52,52.52,0,0,0,11.38-13,57.65,57.65,0,0,0,6.48-16.27l-2.81-.21a67.74,67.74,0,0,1-2.52,8.13,42.53,42.53,0,0,1-3.49,7.06,43.89,43.89,0,0,1-4.79,6.33,63.36,63.36,0,0,1-6.27,6Zm51.7-17.36h-12l-1.36,1.3,1.36,1.51,12,.15Zm-21.1,14-13.9-13.1-1.87,2.09c.91.81,2,1.76,3.1,2.84s2.34,2.21,3.56,3.38,2.42,2.37,3.6,3.57,2.27,2.33,3.28,3.38Zm-3-28.22c-1.63.09-3.65.18-6,.29s-4.87.2-7.42.27-5,.12-7.41.16-4.42.07-6,.07l.22,2.81c1.58,0,3.56,0,5.94-.07l7.34-.18c2.52-.08,5-.16,7.38-.26s4.42-.19,6-.28Zm9.43,46.37H90.8v-60H88.14Zm-7.27-104.4L68.12,274.5l-1.58,2.23c2.16,1.63,4.21,3.22,6.16,4.75l6.37,5Zm-29.23,5.32A40.58,40.58,0,0,0,58.19,284,32.46,32.46,0,0,0,63,277.63a37,37,0,0,0,3.2-7.56,56.8,56.8,0,0,0,1.87-8.89l-2.59-.43a58.35,58.35,0,0,1-1.76,8.53,33.34,33.34,0,0,1-2.92,7,28.15,28.15,0,0,1-4.43,5.83,43.14,43.14,0,0,1-6.3,5.18Zm36.5-.21H90.8V256.57H88.14ZM68.92,308a11.09,11.09,0,0,0,2.52,3.46,12.14,12.14,0,0,0,3.7,2.34,12.2,12.2,0,0,0,9,0,12.07,12.07,0,0,0,3.71-2.34A11.09,11.09,0,0,0,90.37,308a10.21,10.21,0,0,0,0-8.56A11.09,11.09,0,0,0,87.85,296a12.07,12.07,0,0,0-3.71-2.34,12.2,12.2,0,0,0-9,0,12.14,12.14,0,0,0-3.7,2.34,11.09,11.09,0,0,0-2.52,3.46,10.21,10.21,0,0,0,0,8.56m19-1A7.79,7.79,0,0,1,86,309.67a9.34,9.34,0,0,1-2.86,1.76,9.78,9.78,0,0,1-7,0,9.29,9.29,0,0,1-2.85-1.76,8.09,8.09,0,0,1-1.92-9.22,7.86,7.86,0,0,1,1.92-2.66,9.4,9.4,0,0,1,6.36-2.41,9.19,9.19,0,0,1,3.5.65A9.34,9.34,0,0,1,86,297.79a7.7,7.7,0,0,1,1.91,2.66,8.14,8.14,0,0,1,0,6.56m14.88-31.94h-12l-1.36,1.3,1.36,1.51,12,.15ZM79.28,225.25c-1.87.29-3.88.56-6,.83s-4.36.5-6.59.72-4.43.41-6.59.57-4.2.28-6.12.33V213.51H51.28v17q2.94-.07,6.62-.32c2.45-.16,4.94-.35,7.49-.56s5-.45,7.52-.73,4.69-.56,6.66-.84Zm8.86,19.3H90.8v-60H88.14ZM75,211.21q-5.7.51-12,.65c-4.2.09-8.13.17-11.77.21v2.81c1.77,0,3.67,0,5.68-.07l6.09-.18,6.12-.22c2-.07,4-.18,5.87-.32Zm-2.67,1.44H75V198.11H72.37ZM75,196.88q-6,.33-12.35.45t-12,.2l.22,2.81q5.61-.08,11.91-.22T75,199.69Zm-9.69-67a10.78,10.78,0,0,0,2.85,3.57,13.33,13.33,0,0,0,4.24,2.32,16.61,16.61,0,0,0,10.37,0,13.49,13.49,0,0,0,4.25-2.32,10.62,10.62,0,0,0,2.84-3.57,10.71,10.71,0,0,0,0-9.25A10.82,10.82,0,0,0,87.06,117a13.28,13.28,0,0,0-4.25-2.31,16.61,16.61,0,0,0-10.37,0A13.12,13.12,0,0,0,68.2,117a11,11,0,0,0-2.85,3.57,10.8,10.8,0,0,0,0,9.25m2.45-8.14A8,8,0,0,1,70.09,119a11.27,11.27,0,0,1,3.41-1.72,14.49,14.49,0,0,1,8.32,0A10.77,10.77,0,0,1,85.2,119a8.58,8.58,0,0,1,2.29,2.69,7.54,7.54,0,0,1,0,7,8.58,8.58,0,0,1-2.29,2.69,10.77,10.77,0,0,1-3.38,1.72,14.49,14.49,0,0,1-8.32,0,11.27,11.27,0,0,1-3.41-1.72,8,8,0,0,1-2.29-2.69,7.86,7.86,0,0,1,0-7m20.34,49.42H90.8V145H88.14Zm-19.51-20a49.93,49.93,0,0,1-4.18,9.36,55.18,55.18,0,0,1-6.19,8.78l2.45,1.52a69.94,69.94,0,0,0,6.15-9.15A54.82,54.82,0,0,0,71.22,152Zm22.17-7.27q-5.76.3-11.77.5t-12,.34q-6,.15-11.92.23c-3.93.05-7.73.08-11.37.08l.28,2.81,11.31-.15c3.89,0,7.82-.12,11.81-.21s8-.22,11.95-.36l11.73-.43Z"/><path class="cls-6" d="M140,361.69q6.7,0,14.08-.11t14.8-.29q7.41-.18,14.68-.46t13.76-.72l.07-2.81q-6.55.43-13.86.72t-14.76.47q-7.46.18-14.87.28t-14.18.11Zm50,18.58q-2.88.21-7.09.43t-8.67.32c-3,.07-5.88.12-8.72.15s-5.25,0-7.27-.11v2.81c2,.09,4.37.13,7.2.1s5.75-.07,8.75-.14,5.9-.17,8.71-.29,5.17-.25,7.09-.39Zm-.72-35.43c-1.92.15-4.24.29-7,.43s-5.54.26-8.42.33-5.7.12-8.46.14-5.15,0-7.17-.11v2.81c2,.1,4.33.13,7.09.11s5.59-.07,8.5-.14,5.72-.17,8.46-.29,5.06-.25,7-.4Zm-31,3.6H161V331h-2.67Zm0,35.43H161V368.24h-2.67Zm8.64-99h2.67V266.65h-2.67Zm5-8.72h13.82v-2.8H171.9Zm-23.4,8.28,2.66-.72v-18.5H148.5Zm21.1-19.65c-3.32.19-6.82.31-10.52.36s-7.22.07-10.58.07l.22,2.74c3.31,0,6.77,0,10.4-.08s7.12-.14,10.48-.28Zm0,18.57H148.5v2.81h21.1Zm14.54,6.7h2.66V256.57h-2.66Zm2.66,5.54c-2,.09-4.29.18-7,.27s-5.44.16-8.24.23l-8.18.2c-2.64.06-4.89.1-6.76.1l.21,2.8c1.87,0,4.12,0,6.73-.07l8.1-.18c2.79-.07,5.51-.15,8.18-.25s5-.19,6.94-.29ZM184.14,315h2.66V297.47h-2.66ZM162,229.93a64,64,0,0,0,9.5-14,65.8,65.8,0,0,0,5.54-16.82L174,200a57.66,57.66,0,0,1-5.08,15,59.57,59.57,0,0,1-9,13.18Zm15-30.82-4.14.26-3.52.18c-1.13,0-2.26.08-3.39.1s-2.34,0-3.63,0l.21,2.81,6.34-.15c1.87,0,3.81-.14,5.83-.28Zm-16.56,0-4.14.26-3.52.18c-1.13,0-2.26.08-3.39.1s-2.34,0-3.63,0l.21,2.81,6.34-.15c1.87,0,3.81-.14,5.83-.28Zm-15.69,28.52a74.92,74.92,0,0,0,5.58-6.23,51.64,51.64,0,0,0,4.43-6.59,48.49,48.49,0,0,0,3.34-7.34,61.23,61.23,0,0,0,2.34-8.36l-3.09.87a46.33,46.33,0,0,1-5.22,13.82,57.76,57.76,0,0,1-9.47,12Zm53.93-14.48h-12l-1.36,1.3L186.8,216l12,.15Zm-14.62,31.4h2.66v-60h-2.66Zm3-129.6c-2,.09-4.26.19-6.87.28s-5.27.17-8,.22l-7.85.14q-3.81.07-6.62.08l.22,2.8q2.52,0,6-.07l7.2-.14,7.27-.15c2.38,0,4.47-.12,6.3-.21Zm-2.3,15.62c.33-1.34.62-2.6.86-3.78s.45-2.38.62-3.6.32-2.5.46-3.82.27-2.79.36-4.42l-2.88.93a59,59,0,0,1-.64,7q-.51,3.16-1.44,6.91Zm-22,7.2a22.31,22.31,0,0,1-3,5.58,26.3,26.3,0,0,1-4.93,4.79l2.09,1.8a28.64,28.64,0,0,0,5.07-5.08,22.93,22.93,0,0,0,3.28-6.08Zm21.31,6.34h2.66v-10h-2.66ZM186.8,133q-5.76.3-11.77.5t-12,.34q-6,.15-11.92.23c-3.93,0-7.73.08-11.37.08l.28,2.81,11.31-.15q5.83-.07,11.81-.21t11.95-.36l11.73-.44Zm4,34.12c-1.92.15-4.24.29-7,.44s-5.54.25-8.42.32-5.7.12-8.46.14-5.15,0-7.17-.1v2.8q3,.15,7.09.11t8.5-.14q4.35-.1,8.46-.29c2.74-.12,5.06-.25,7-.4Zm-31,2.16h2.67V158.72h-2.67Zm27.07-12.67c-1.92.13-4.06.24-6.44.33s-4.79.17-7.24.23-4.83.12-7.16.17-4.4.06-6.23.06v2.81q2.67,0,6.16-.07l7.16-.18c2.45-.07,4.86-.16,7.24-.25s4.54-.19,6.51-.29Zm-2.66,1.37h2.66V147.42h-2.66Zm-21.38-8.21,5.79-.14,6.34-.18,6.26-.18c2-.05,3.93-.12,5.65-.22v-2.88c-1.72.1-3.62.18-5.68.25l-6.34.22-6.37.18-5.87.14Z"/><path class="cls-6" d="M283.16,187.67c-2,.09-4.22.19-6.76.28s-5.14.17-7.78.22l-7.67.14q-3.7.08-6.51.08l.21,2.8c1.68,0,3.65,0,5.91-.07l7-.14,7.09-.15c2.3,0,4.36-.12,6.19-.21Zm-4,20.16a78.42,78.42,0,0,0,2.49-9.69q1-5.07,1.47-10.47l-2.88.93a70.19,70.19,0,0,1-1.26,9.25,66.88,66.88,0,0,1-2.48,9.18Zm.94,35.28h2.66v-29h-2.66Zm-20.09-23.33q-.65,2.59-1.62,5.47T256.27,231q-1.19,2.88-2.59,5.62c-.94,1.82-1.88,3.5-2.84,5l2.59,1.36c.91-1.53,1.83-3.24,2.77-5.11s1.81-3.81,2.63-5.83,1.57-4,2.27-6.05,1.26-3.93,1.69-5.76Zm22.75-7.13q-5.76.3-11.77.5t-12,.34c-4,.11-8,.18-11.92.24s-7.73.07-11.37.07l.28,2.81,11.31-.14q5.83-.08,11.81-.22t11.95-.36l11.73-.43ZM236,144.75q6.7,0,14.08-.1t14.8-.29q7.41-.18,14.68-.47t13.76-.72l.07-2.81q-6.56.44-13.86.72t-14.76.47q-7.45.18-14.87.29t-14.18.11Zm32.62,26.36h2.66v-29h-2.66Zm14.54-55.44c-2,.09-4.22.19-6.76.28s-5.14.17-7.78.22l-7.67.14q-3.7.07-6.51.08l.21,2.8c1.68,0,3.65,0,5.91-.07l7-.14,7.09-.15c2.3,0,4.36-.12,6.19-.21Zm-4.32,21.67a94.53,94.53,0,0,0,2.7-10.62,106.41,106.41,0,0,0,1.62-11l-2.88.93c-.09,1.44-.26,3-.5,4.68s-.54,3.39-.9,5.11-.77,3.46-1.22,5.19-1,3.38-1.48,5Z"/><path class="cls-6" d="M353.35,405.8a10.79,10.79,0,0,0,2.85,3.58,13.12,13.12,0,0,0,4.24,2.31,16.61,16.61,0,0,0,10.37,0,13.28,13.28,0,0,0,4.25-2.31,10.76,10.76,0,0,0,2.84-3.58,10.69,10.69,0,0,0,0-9.24,10.76,10.76,0,0,0-2.84-3.58,13.68,13.68,0,0,0-4.25-2.31,16.61,16.61,0,0,0-10.37,0A13.51,13.51,0,0,0,356.2,393a10.79,10.79,0,0,0-2.85,3.58,10.78,10.78,0,0,0,0,9.24m2.45-8.13a8,8,0,0,1,2.29-2.69,11.27,11.27,0,0,1,3.41-1.72,14.49,14.49,0,0,1,8.32,0A10.77,10.77,0,0,1,373.2,395a8.58,8.58,0,0,1,2.29,2.69,7.52,7.52,0,0,1,0,7,8.47,8.47,0,0,1-2.29,2.69,10.56,10.56,0,0,1-3.38,1.72,14.49,14.49,0,0,1-8.32,0,11,11,0,0,1-3.41-1.72,7.88,7.88,0,0,1-2.29-2.69,7.84,7.84,0,0,1,0-7m20.34,49.41h2.66V421h-2.66Zm-19.51-20a49.93,49.93,0,0,1-4.18,9.36,56.78,56.78,0,0,1-6.19,8.78l2.45,1.51a69.83,69.83,0,0,0,6.15-9.14,55.15,55.15,0,0,0,4.36-9.65Zm22.17-7.28q-5.76.31-11.77.5t-12,.35q-6,.15-11.92.23t-11.38.08l.29,2.8,11.31-.14q5.83-.08,11.8-.22t12-.36l11.73-.43ZM353.32,334a10.73,10.73,0,0,0,2.81,3.61,12.69,12.69,0,0,0,4.26,2.31,17.76,17.76,0,0,0,10.54,0,12.5,12.5,0,0,0,4.26-2.31,10.8,10.8,0,0,0,0-16.61,12.5,12.5,0,0,0-4.26-2.31,17.76,17.76,0,0,0-10.54,0,12.69,12.69,0,0,0-4.26,2.31,10.73,10.73,0,0,0-2.81,3.61,11.42,11.42,0,0,0,0,9.39m20,1.65a14,14,0,0,1-15.28,0,8.12,8.12,0,0,1,0-12.69,14,14,0,0,1,15.28,0,8.11,8.11,0,0,1,0,12.69M332,351.25q6.71,0,14.08-.11t14.8-.29q7.41-.18,14.68-.46t13.76-.72l.07-2.81q-6.56.43-13.86.72t-14.76.47q-7.45.18-14.87.28c-4.95.08-9.67.11-14.19.11Zm32.62,23.83h2.66V348.59h-2.66Zm4.18-112.17h-2v41.61h2Zm10.36-75-3.56.26-3.17.18c-1,0-2.09.08-3.17.1l-3.63.11.21,2.81,6.66-.29q3.13-.13,6.66-.36Zm-17.49.44c-2.31.09-4.75.16-7.35.21s-4.94.07-7.05.07l.21,2.81c1.92,0,4-.08,6.23-.11s4.65-.08,7.24-.18Zm14.83,18.72h2.66V188.53H376.5Zm-18.36-.22a51.75,51.75,0,0,0,2.48-8.82,61.4,61.4,0,0,0,1.05-9.68l-3,1.51a51.09,51.09,0,0,1-.89,8.17,42.73,42.73,0,0,1-2.34,7.74Zm18,36.22h2.66V215.39h-2.66Zm-18.65-22.68a77,77,0,0,1-4.86,10.87,72.81,72.81,0,0,1-6.37,9.93l2.45,1.52c1.05-1.45,2.11-3,3.17-4.76s2.08-3.52,3.09-5.4,1.95-3.76,2.81-5.68,1.65-3.8,2.37-5.62Zm21.31-6.56q-5.76.31-11.77.5t-12,.35q-6,.15-11.92.23t-11.38.08l.29,2.8,11.31-.14q5.83-.08,11.8-.22t12-.36l11.73-.43Zm.36-97.92-3.56.26-3.17.18c-1,0-2.09.08-3.17.1l-3.63.11.21,2.81,6.66-.29q3.13-.14,6.66-.36Zm-17.49.44c-2.31.09-4.75.16-7.35.21s-4.94.07-7.05.07l.21,2.81c1.92,0,4-.08,6.23-.11s4.65-.08,7.24-.18Zm14.83,18.72h2.66V116.53H376.5Zm-18.65.21a55.4,55.4,0,0,0,2.67-9.07,57.54,57.54,0,0,0,1.15-9.86l-3,1.51a47.31,47.31,0,0,1-1,8.35,45.88,45.88,0,0,1-2.52,8ZM332,146.19q6.71,0,14.08-.11t14.8-.28q7.41-.18,14.68-.47t13.76-.72l.07-2.81q-6.56.44-13.86.72t-14.76.47q-7.45.18-14.87.29c-4.95.07-9.67.11-14.19.11Zm32.62,24.92h2.66V143.53h-2.66Z"/><path class="cls-6" d="M449.32,406a10.83,10.83,0,0,0,2.81,3.61,12.69,12.69,0,0,0,4.26,2.31,18,18,0,0,0,10.54,0,12.5,12.5,0,0,0,4.26-2.31A10.86,10.86,0,0,0,474,406a10.8,10.8,0,0,0-2.82-13,12.5,12.5,0,0,0-4.26-2.31,17.76,17.76,0,0,0-10.54,0,12.69,12.69,0,0,0-4.26,2.31,10.73,10.73,0,0,0-2.81,3.61,11.42,11.42,0,0,0,0,9.39m20,1.65a14.06,14.06,0,0,1-15.29,0,8.12,8.12,0,0,1,0-12.69,14.06,14.06,0,0,1,15.29,0,8.12,8.12,0,0,1,0,12.69M428,423.25q6.71,0,14.08-.11t14.8-.29q7.41-.18,14.68-.47t13.76-.72l.07-2.8c-4.37.28-9,.53-13.86.72s-9.79.35-14.76.46-9.93.22-14.87.29-9.67.11-14.18.11Zm32.62,23.83h2.66v-26.5h-2.66Zm4.18-112.17h-2v41.61h2Zm11.59-58.68q-2.88.21-6.7.43t-7.88.32c-2.71.07-5.36.12-7.92.15s-4.86,0-6.88-.11v2.81c2,.09,4.24.13,6.81.1s5.2-.07,7.92-.14,5.35-.17,7.92-.29,4.81-.25,6.73-.39ZM447,278.39h2.67V269.1H447Zm27.79-11.45q-2.88.19-6.55.33c-2.45.09-4.94.16-7.49.23s-5,.12-7.41.16-4.51.07-6.34.07v2.81c1.78,0,3.86,0,6.27-.07l7.41-.18c2.55-.08,5-.16,7.49-.26s4.65-.19,6.62-.28Zm-2.66,1.37h2.66V259h-2.66Zm2.66-10.52q-3,.13-6.76.27c-2.55.09-5.14.16-7.78.23l-7.67.2c-2.47.06-4.64.1-6.51.1l.21,2.8q2.81,0,6.48-.07l7.6-.18q3.92-.11,7.7-.25c2.52-.1,4.76-.19,6.73-.29Zm5.76,55.59-16.27-9.65-1.44,2.45q3.67,2.08,7.92,4.68t8.07,5Zm-37.29,2.3a29.55,29.55,0,0,0,12.67-6.3,24.38,24.38,0,0,0,7.2-11.55l-2.59-.65a25.07,25.07,0,0,1-2.74,6,20.39,20.39,0,0,1-3.92,4.54,22.22,22.22,0,0,1-5.22,3.31,38.93,38.93,0,0,1-6.63,2.31ZM472.14,300h2.66V286.81h-2.66Zm-21.67-9a22.67,22.67,0,0,1-1.91,5.36,21.58,21.58,0,0,1-3.06,4.36l2.38,1.58a23.13,23.13,0,0,0,3.24-4.86,26.13,26.13,0,0,0,2-5.87Zm24.33-5.33q-5.76.3-11.77.5t-12,.34q-6,.15-11.92.23c-3.93,0-7.73.08-11.37.08l.28,2.81,11.31-.15c3.89,0,7.82-.12,11.81-.21s8-.22,11.95-.36l11.73-.43Zm1.8-78.19q-2.88.21-6.66.43t-7.77.32q-4,.1-7.81.15t-6.84-.11v2.81c2,.09,4.22.13,6.76.1s5.15-.07,7.82-.14,5.26-.17,7.81-.29,4.77-.25,6.69-.39Zm-29.08,2.16h2.66V199.19h-2.66ZM475,197q-2.88.19-6.52.33l-7.38.23c-2.49.06-4.93.12-7.3.16s-4.48.07-6.3.07v2.81c1.77,0,3.85,0,6.22-.08s4.82-.1,7.31-.18,5-.15,7.38-.25,4.62-.19,6.59-.29Zm-2.66,1.36H475V188h-2.66ZM475,186.73q-3,.14-6.73.26t-7.67.23l-7.56.2q-3.68.11-6.48.1l.22,2.81q2.81,0,6.44-.07l7.49-.18c2.56-.07,5.1-.16,7.59-.25l6.7-.29Zm-47,36.58q6.71,0,14.08-.11t14.8-.29q7.41-.18,14.68-.47t13.76-.72l.07-2.81q-6.56.43-13.86.72t-14.76.47q-7.45.18-14.87.29t-14.18.11Zm32.62,19.8h2.66V221h-2.66Zm16-107.86c-1.92.14-4.14.29-6.66.43s-5.11.25-7.77.33-5.27.12-7.81.14-4.83,0-6.84-.11v2.81c2,.1,4.22.13,6.76.11s5.15-.07,7.82-.15,5.26-.16,7.81-.28,4.77-.26,6.69-.4Zm-29.08,2.16h2.66v-10.3h-2.66ZM475,125q-2.88.21-6.52.33t-7.38.23c-2.49.07-4.93.13-7.3.17s-4.48.07-6.3.07v2.8c1.77,0,3.85,0,6.22-.07l7.31-.18q3.75-.11,7.38-.25c2.42-.1,4.62-.19,6.59-.29Zm-2.66,1.37H475V116h-2.66ZM475,114.8q-3,.14-6.73.27l-7.67.23-7.56.19q-3.68.11-6.48.1l.22,2.81q2.81,0,6.44-.07l7.49-.18c2.56-.07,5.1-.16,7.59-.25s4.73-.19,6.7-.29Zm-2.88,56.31h2.66v-23h-2.66Zm-20.23-17.79a57.74,57.74,0,0,1-4.29,8.43,59.33,59.33,0,0,1-5.36,7.48l2.45,1.52A72.9,72.9,0,0,0,450,163a68.56,68.56,0,0,0,4.53-8.85Zm22.89-6.77q-5.76.31-11.77.5t-12,.35q-6,.15-11.92.23c-3.93.05-7.73.08-11.37.08l.28,2.8,11.31-.14q5.83-.08,11.81-.22t11.95-.36l11.73-.43Z"/><path class="cls-6" d="M566.34,344.12a7.18,7.18,0,0,0,3.94,4,7.41,7.41,0,0,0,8.09-1.58,7.47,7.47,0,0,0,0-10.51A7.17,7.17,0,0,0,576,334.4a7.41,7.41,0,0,0-8.1,1.59,7.47,7.47,0,0,0-1.57,8.13m10.21.51a5,5,0,0,1-6.82,0,4.87,4.87,0,0,1,0-6.77,4.93,4.93,0,0,1,6.82,0,4.84,4.84,0,0,1,0,6.77m-28.84-48.14a12,12,0,0,0,3.95-2.84,12.73,12.73,0,0,0,2.55-4.21,15.18,15.18,0,0,0,0-10.3,12.73,12.73,0,0,0-2.55-4.21,12.07,12.07,0,0,0-9-3.89,12.12,12.12,0,0,0-5.1,1,12,12,0,0,0-3.95,2.84,12.73,12.73,0,0,0-2.55,4.21,15.18,15.18,0,0,0,0,10.3,12.73,12.73,0,0,0,2.55,4.21,12,12,0,0,0,3.95,2.84,12.89,12.89,0,0,0,10.19,0m-1.05-22a9.39,9.39,0,0,1,3.11,2.27,9.94,9.94,0,0,1,2,3.38,13.19,13.19,0,0,1,0,8.36,9.94,9.94,0,0,1-2,3.38,9.39,9.39,0,0,1-3.11,2.27,10.27,10.27,0,0,1-8.09,0,9.39,9.39,0,0,1-3.11-2.27,9.94,9.94,0,0,1-2-3.38,13.19,13.19,0,0,1,0-8.36,9.94,9.94,0,0,1,2-3.38,9.39,9.39,0,0,1,3.11-2.27,10.27,10.27,0,0,1,8.09,0m21.48,42.09h2.66v-60h-2.66ZM555.9,211.43h2.66v-8.72H555.9Zm17.42-14.69c-1.92.14-4.24.29-7,.43s-5.54.25-8.42.32-5.7.12-8.46.15-5.15,0-7.17-.11v2.81q3,.14,7.09.11t8.5-.15q4.35-.11,8.46-.29c2.74-.12,5.06-.25,7-.39Zm-31,3.6H545V185.07h-2.67Zm32.47,38.59c-1.92.14-4.28.29-7.09.43s-5.7.25-8.67.33-5.88.11-8.72.14-5.25,0-7.27-.11v2.81c2,.1,4.37.13,7.2.11s5.75-.07,8.75-.15,5.9-.17,8.71-.28,5.17-.26,7.09-.4ZM543,241.09h2.67V230.94H543Zm27.79-12.31q-2.88.19-6.55.33c-2.45.09-4.94.16-7.49.23s-5,.12-7.41.16-4.51.07-6.34.07v2.81c1.78,0,3.86,0,6.27-.07l7.41-.18c2.55-.08,5-.16,7.49-.26s4.65-.19,6.62-.28Zm-2.66,1.37h2.66V220h-2.66Zm2.66-11.38q-3,.14-6.76.26t-7.78.23l-7.67.2q-3.71.1-6.51.1l.21,2.81q2.81,0,6.48-.07l7.6-.18c2.61-.07,5.18-.16,7.7-.25l6.73-.29ZM524,212.94q6.71,0,14.08-.11t14.8-.29q7.41-.18,14.68-.47t13.76-.72l.07-2.8q-6.55.42-13.86.72t-14.76.46q-7.46.18-14.87.29t-14.18.11Zm37.82-97.1a10.9,10.9,0,0,1,3.27,1.22,6.35,6.35,0,0,1,2.19,2.08,6,6,0,0,1,0,5.94,6.35,6.35,0,0,1-2.19,2.08,10.9,10.9,0,0,1-3.27,1.22,20.86,20.86,0,0,1-8,0,11,11,0,0,1-3.27-1.22,6.23,6.23,0,0,1-2.18-2.08,6,6,0,0,1,0-5.94,6.23,6.23,0,0,1,2.18-2.08,11,11,0,0,1,3.27-1.22,20.86,20.86,0,0,1,8,0m1,15.12a12.43,12.43,0,0,0,4.12-1.84,9.51,9.51,0,0,0,2.74-3,8.54,8.54,0,0,0,0-8.06,9.32,9.32,0,0,0-2.74-3,12.43,12.43,0,0,0-4.12-1.84,21,21,0,0,0-10.14,0,12.31,12.31,0,0,0-4.08,1.84,9.36,9.36,0,0,0-2.75,3,8.54,8.54,0,0,0,0,8.06,9.55,9.55,0,0,0,2.75,3,12.31,12.31,0,0,0,4.08,1.84,21,21,0,0,0,10.14,0m5.28,18.55h2.74V135.68h-2.74Zm-20.38-10.44a25.37,25.37,0,0,1-3.06,5.83,24,24,0,0,1-5,5l2.09,1.8a26.72,26.72,0,0,0,5.15-5.33,25.83,25.83,0,0,0,3.34-6.34Zm23.12-4.54q-5.77.3-11.78.5t-12,.34c-4,.11-8,.18-11.92.24s-7.73.07-11.37.07l.29,2.81,11.3-.14q5.83-.07,11.81-.22t11.95-.36l11.74-.43Zm3.45,34.7-15.41-8.49-1.15,2.3c2.35,1.34,4.8,2.74,7.35,4.18s5.08,2.95,7.63,4.53Zm-35.57,1.88A48.64,48.64,0,0,0,546,168.8a22,22,0,0,0,5.18-3,32.74,32.74,0,0,0,4.14-4,19.51,19.51,0,0,0,3.35-5.5l-2.88-.51a14.16,14.16,0,0,1-2.59,4.47,27.12,27.12,0,0,1-3.53,3.45,24.33,24.33,0,0,1-4.86,2.77,32.51,32.51,0,0,1-7.17,2.13Zm26.07-23.84c-2.45-.09-4.8-.24-7.06-.43a59.38,59.38,0,0,1-6.91-1l-.29,3c2.31.37,4.66.67,7.06.88s4.75.34,7,.38Zm6.55,6.92-6.77.3-7.77.33q-4,.18-7.67.27t-6.52.1l.29,2.81c1.87,0,4,0,6.48-.11s5-.16,7.6-.28l7.7-.33q3.78-.14,6.73-.29Z"/></g><line class="cls-7" x1="503.84" y1="80.45" x2="503.84" y2="500.45"/><line class="cls-7" x1="408.39" y1="80.45" x2="408.39" y2="500.45"/><line class="cls-7" x1="312.95" y1="80.45" x2="312.95" y2="500.45"/><line class="cls-7" x1="217.5" y1="80.45" x2="217.5" y2="500.45"/><line class="cls-7" x1="599.28" y1="80.45" x2="599.28" y2="500.45"/></g></g></svg>