<?xml version="1.0" encoding="utf-8"?>
<!-- Generator: Adobe Illustrator 22.0.1, SVG Export Plug-In . SVG Version: 6.00 Build 0)  -->
<svg version="1.1" id="Layer_1" xmlns="http://www.w3.org/2000/svg" xmlns:xlink="http://www.w3.org/1999/xlink" x="0px" y="0px"
	 viewBox="0 0 943.3 460.4" style="enable-background:new 0 0 943.3 460.4;" xml:space="preserve">
<style type="text/css">
	.st0{clip-path:url(#SVGID_2_);}
	.st1{fill:#231815;}
	.st2{fill:none;stroke:#231815;stroke-width:0.5;}
	.st3{fill:none;stroke:#433F3F;}
	.st4{clip-path:url(#SVGID_4_);}
	.st5{fill:none;stroke:#FFFFFF;stroke-width:4.04;}
	.st6{font-family:'SpoqaHanSans-Regular';}
	.st7{font-size:17px;}
</style>
<title>Colomns-8</title>
<g id="Layer_2_1_">
	<g id="Layer_1-2">
		<g>
			<defs>
				<rect id="SVGID_1_" width="951.7" height="460.4"/>
			</defs>
			<clipPath id="SVGID_2_">
				<use xlink:href="#SVGID_1_"  style="overflow:visible;"/>
			</clipPath>
			<g class="st0">
				<path class="st1" d="M26.6,134.6l-0.7-0.8l-9.5,5.4L7,133.7l-0.7,0.8l10.1,5.8L26.6,134.6z M12.6,124.9h1v-2.9h-1V124.9z
					 M18,111.8c-0.6,0-1.4,0.1-2.4,0.1l-3,0.1l-3,0.1H7.2l0.1,1.1h2.4l3-0.1l3-0.1c1,0,1.8-0.1,2.4-0.1L18,111.8z M16.2,109.5
					c-1-0.3-2-0.7-2.9-1s-1.9-0.8-2.9-1.2l-0.4,1.1c0.9,0.4,1.9,0.8,2.9,1.1s1.9,0.7,2.9,1L16.2,109.5z M27.3,117.1h-4.7l-0.5,0.5
					l0.5,0.6l4.6,0.1L27.3,117.1z M21.5,129.3h1V106h-1V129.3z M9.3,119.2c0.2,0.4,0.4,0.8,0.7,1.1c0.3,0.3,0.8,0.6,1.2,0.8
					c0.5,0.2,1.1,0.3,1.6,0.3c0.6,0,1.1-0.1,1.6-0.3c0.4-0.2,0.9-0.5,1.2-0.8c0.3-0.3,0.6-0.7,0.7-1.1c0.3-0.8,0.3-1.7,0-2.5
					c-0.2-0.4-0.4-0.8-0.7-1.1c-0.3-0.3-0.8-0.6-1.2-0.8c-0.5-0.2-1.1-0.3-1.6-0.3c-0.6,0-1.1,0.1-1.6,0.3c-0.4,0.2-0.9,0.5-1.2,0.8
					c-0.3,0.3-0.6,0.7-0.7,1.1C8.9,117.5,8.9,118.4,9.3,119.2 M10.3,117.1c0.1-0.3,0.3-0.6,0.5-0.8c0.6-0.6,1.3-0.9,2.1-0.8
					c0.4,0,0.9,0.1,1.2,0.2c0.3,0.1,0.6,0.3,0.9,0.6c0.6,0.6,0.8,1.6,0.5,2.4c-0.1,0.3-0.3,0.6-0.5,0.8c-0.2,0.3-0.5,0.5-0.9,0.6
					c-0.4,0.2-0.8,0.2-1.2,0.2c-0.4,0-0.8-0.1-1.2-0.2c-0.6-0.3-1.1-0.8-1.4-1.4C10,118.3,10,117.7,10.3,117.1 M19.9,123.4
					c-1.4,0.2-2.7,0.4-3.9,0.6s-2.4,0.3-3.5,0.4s-2.3,0.2-3.5,0.3s-2.5,0.1-3.9,0.2l0.2,1.1c1.4-0.1,2.7-0.1,3.8-0.2
					s2.3-0.2,3.5-0.3s2.3-0.3,3.5-0.4l3.8-0.6L19.9,123.4z M12.7,84.4c0.3,0.5,0.6,1,1.1,1.4c0.5,0.4,1.1,0.7,1.6,0.9
					c0.6,0.2,1.3,0.3,2,0.3c0.7,0,1.4-0.1,2-0.3c0.6-0.2,1.2-0.5,1.6-0.9c0.5-0.4,0.8-0.9,1.1-1.4c0.5-1.1,0.5-2.5,0-3.6
					c-0.3-0.5-0.6-1-1.1-1.4c-0.5-0.4-1.1-0.7-1.6-0.9c-0.6-0.2-1.3-0.3-2-0.3c-0.7,0-1.4,0.1-2,0.3c-0.6,0.2-1.2,0.5-1.6,0.9
					c-0.5,0.4-0.8,0.9-1.1,1.4C12.1,81.9,12.1,83.3,12.7,84.4 M13.6,81.2c0.2-0.4,0.5-0.7,0.9-1c0.4-0.3,0.9-0.5,1.3-0.7
					c0.5-0.2,1.1-0.2,1.6-0.2c0.5,0,1.1,0.1,1.6,0.2c0.5,0.1,0.9,0.4,1.3,0.7c0.4,0.3,0.7,0.6,0.9,1c0.5,0.9,0.5,1.9,0,2.7
					c-0.2,0.4-0.5,0.7-0.9,1c-0.4,0.3-0.8,0.5-1.3,0.7c-0.5,0.2-1.1,0.2-1.6,0.2c-0.5,0-1.1-0.1-1.6-0.2c-0.5-0.1-0.9-0.3-1.4-0.6
					c-0.4-0.3-0.7-0.6-0.9-1C13.2,83.1,13.2,82.1,13.6,81.2 M21.5,100.5h1V90.3h-1V100.5z M13.9,92.7c-0.4,1.3-1,2.5-1.6,3.6
					c-0.7,1.2-1.5,2.4-2.4,3.4l0.9,0.6c0.9-1.1,1.7-2.3,2.4-3.6c0.7-1.2,1.3-2.5,1.7-3.8L13.9,92.7z M22.6,89.9
					c-1.5,0.1-3,0.1-4.6,0.2l-4.7,0.1l-4.6,0.1H4.3l0.1,1.1l4.4-0.1c1.5,0,3.1,0,4.6-0.1l4.6-0.1l4.6-0.2V89.9z M7.3,63.6
					c1.8-1.4,3.2-3.1,4.3-5c1.1-2.1,1.8-4.3,2.1-6.6l-1-0.2c-0.2,1.2-0.4,2.3-0.8,3.4c-0.3,1-0.7,1.9-1.2,2.9
					C10.3,59,9.7,59.8,9,60.5c-0.7,0.8-1.5,1.6-2.4,2.2L7.3,63.6z M18.5,61.7l-4.8-4.3l-0.7,0.8l2.3,2.1c0.8,0.7,1.6,1.5,2.4,2.3
					L18.5,61.7z M21.5,66.6h1V50h-1V66.6z M24.1,70c-0.8,0.1-1.6,0.1-2.7,0.2s-2.1,0.1-3.3,0.1l-3.3,0.1c-1.1,0-2,0-2.8,0v1.1
					c0.8,0,1.7,0,2.8,0l3.3-0.1c1.1,0,2.2-0.1,3.3-0.1s2-0.1,2.7-0.2L24.1,70z M12,71.1h1v-6.2h-1V71.1z M27.2,58.6h-4.6L22,59.1
					l0.5,0.6l4.6,0.1V58.6z M16.4,41.2L6.3,47L7,47.8l9.5-5.4l9.5,5.4l0.7-0.8L16.4,41.2z"/>
				<path class="st1" d="M55.8,224c0.1,0.3,0.3,0.7,0.6,0.9c0.5,0.5,1.3,0.8,2,0.8c0.4,0,0.8-0.1,1.1-0.2c0.3-0.1,0.7-0.3,0.9-0.6
					c0.3-0.3,0.5-0.6,0.6-0.9c0.2-0.4,0.2-0.7,0.2-1.1c0-0.4-0.1-0.8-0.2-1.1c-0.1-0.3-0.3-0.7-0.6-0.9c-0.3-0.3-0.6-0.5-0.9-0.6
					c-0.4-0.1-0.7-0.2-1.1-0.2c-0.4,0-0.8,0.1-1.1,0.2c-0.7,0.3-1.2,0.8-1.5,1.5c-0.1,0.4-0.2,0.7-0.2,1.1
					C55.6,223.3,55.6,223.6,55.8,224 M59.8,224.2c-0.3,0.4-0.8,0.5-1.3,0.5c-0.5,0-1-0.2-1.3-0.5c-0.4-0.3-0.5-0.8-0.5-1.3
					c0-0.5,0.2-1,0.5-1.3c0.4-0.4,0.8-0.5,1.3-0.5c1,0,1.8,0.8,1.9,1.8c0,0,0,0,0,0C60.3,223.4,60.1,223.9,59.8,224.2 M42.2,206.4h1
					v-10.9h-1V206.4z M49.6,204.5c-1.3,0.4-2.5,0.6-3.6,0.9c-1.2,0.2-2.4,0.4-3.7,0.5v1c1.4-0.1,2.7-0.3,3.8-0.5s2.5-0.5,3.7-0.9
					L49.6,204.5z M57.2,200h-5v1.1h5V200z M51.5,210.5h1v-18.9h-1V210.5z M56.5,213.3h1V190h-1V213.3z M62.2,170h-4.7l-0.5,0.5
					l0.5,0.6l4.7,0.1V170z M42.8,171.1c0.2,0.5,0.6,1,1,1.4c0.4,0.4,0.9,0.8,1.5,1c1.1,0.5,2.4,0.5,3.5,0c0.5-0.2,1-0.6,1.5-1
					c0.4-0.4,0.8-0.9,1-1.4c0.5-1.1,0.5-2.4,0-3.5c-0.2-0.5-0.6-1-1-1.4c-0.4-0.4-0.9-0.8-1.5-1c-1.1-0.5-2.4-0.5-3.5,0
					c-0.5,0.2-1,0.6-1.5,1c-0.4,0.4-0.8,0.9-1,1.4C42.4,168.8,42.4,170,42.8,171.1 M43.8,168.1c0.4-0.8,1-1.5,1.9-1.9
					c0.9-0.4,1.9-0.4,2.8,0c0.4,0.2,0.8,0.4,1.1,0.8c0.3,0.3,0.6,0.7,0.8,1.1c0.2,0.4,0.3,0.9,0.3,1.3c0,0.5-0.1,0.9-0.3,1.3
					c-0.2,0.4-0.4,0.8-0.8,1.1c-0.3,0.3-0.7,0.6-1.1,0.8c-1.3,0.6-2.9,0.3-3.9-0.8c-0.3-0.3-0.6-0.7-0.8-1.1
					c-0.2-0.4-0.3-0.9-0.3-1.3C43.5,169,43.6,168.5,43.8,168.1 M59.1,182c-0.8,0.1-1.7,0.1-2.7,0.2s-2.2,0.1-3.3,0.1l-3.3,0.1
					c-1.1,0-2,0-2.8,0v1.1c0.8,0,1.7,0.1,2.8,0.1l3.3-0.1c1.2,0,2.3-0.1,3.3-0.1s2-0.1,2.8-0.2L59.1,182z M46.9,183.1h1v-5.9h-1
					V183.1z M56.5,178.6h1V162h-1V178.6z M40,143.3c1.8,0,3.5,0,5.4,0l5.5-0.1c1.8,0,3.7-0.1,5.5-0.2s3.6-0.1,5.3-0.2v1.1
					c-1.7,0.1-3.4,0.1-5.2,0.2l-5.5,0.2l-5.5,0.1c-1.8,0-3.6,0-5.4,0L40,143.3z M45.2,137.3c2.2-0.8,4.1-2.1,5.5-3.9
					c1.4-1.8,2.4-3.9,2.8-6.2l-1-0.2c-0.4,2.1-1.3,4.1-2.6,5.8c-1.4,1.6-3.2,2.9-5.2,3.6L45.2,137.3z M59.6,136.2l-6.2-4.2l-0.6,0.9
					l1.5,1c0.5,0.4,1,0.7,1.6,1.1l1.6,1.1l1.5,1.1L59.6,136.2z M41.8,111.4c1.9-1.4,3.4-3.2,4.5-5.2c1.1-2.1,1.9-4.4,2.2-6.8l-1-0.2
					c-0.2,1.2-0.4,2.4-0.8,3.5c-0.3,1-0.7,2-1.2,3c-0.5,0.9-1.1,1.8-1.8,2.6c-0.8,0.9-1.6,1.6-2.5,2.3L41.8,111.4z M53.2,110
					l-4.5-4.7l-0.7,0.8c0.7,0.7,1.5,1.5,2.2,2.3s1.5,1.6,2.3,2.4L53.2,110z M59.1,117.6c-0.8,0.1-1.7,0.1-2.8,0.2s-2.2,0.1-3.3,0.1
					l-3.4,0.1c-1.1,0-2,0-2.8,0v1.1c0.8,0,1.7,0,2.8,0H53c1.2,0,2.3-0.1,3.4-0.1l2.8-0.2V117.6z M57,103.4h-5.2v1.1H57V103.4z
					 M46.8,118.7h1v-5.9h-1V118.7z M56.5,114.2h1V97.6h-1V114.2z M48.6,85.1c0.6-0.3,1.1-0.6,1.5-1.1c0.4-0.5,0.8-1,1-1.6
					c0.5-1.3,0.5-2.7,0-4c-0.2-0.6-0.6-1.2-1-1.6c-0.4-0.5-1-0.8-1.5-1.1c-1.3-0.6-2.7-0.6-4,0c-0.6,0.3-1.1,0.6-1.5,1.1
					c-0.4,0.5-0.8,1-1,1.6c-0.5,1.3-0.5,2.7,0,4c0.2,0.6,0.6,1.2,1,1.6c0.9,1,2.2,1.5,3.5,1.5C47.3,85.5,48,85.4,48.6,85.1
					 M48.2,76.5c0.5,0.2,0.9,0.5,1.2,0.9c0.3,0.4,0.6,0.8,0.8,1.3c0.2,0.5,0.3,1.1,0.3,1.6c0,0.6-0.1,1.1-0.3,1.6
					c-0.2,0.5-0.4,0.9-0.8,1.3C48,84.9,45.6,85,44,83.5c-0.1-0.1-0.2-0.1-0.2-0.2c-0.3-0.4-0.6-0.8-0.8-1.3
					c-0.2-0.5-0.3-1.1-0.3-1.6c0-0.6,0.1-1.1,0.3-1.6c0.2-0.5,0.4-0.9,0.8-1.3c0.3-0.4,0.7-0.7,1.2-0.9c0.5-0.2,1-0.3,1.6-0.3
					C47.1,76.2,47.7,76.3,48.2,76.5 M56.5,92.9h1V69.6h-1V92.9z M53.2,57.4c-0.7,0.1-1.5,0.2-2.3,0.3s-1.7,0.2-2.5,0.3
					s-1.7,0.2-2.5,0.2s-1.6,0.1-2.4,0.1v-5.5h-1v6.6c0.8,0,1.6-0.1,2.6-0.1s1.9-0.1,2.9-0.2s2-0.2,2.9-0.3s1.8-0.2,2.6-0.3
					L53.2,57.4z M51.5,51.9c-1.5,0.1-3,0.2-4.6,0.2s-3.1,0.1-4.5,0.1v1.1c1.4,0,2.9,0,4.5-0.1s3.2-0.1,4.6-0.2V51.9z M50.5,52.5h1
					v-5.6h-1V52.5z M51.5,46.4c-1.6,0.1-3.1,0.1-4.8,0.2c-1.6,0-3.2,0.1-4.6,0.1l0.1,1.1l4.6-0.1c1.6,0,3.2-0.1,4.7-0.2V46.4z
					 M62.2,52.1h-4.6L57,52.6l0.5,0.6l4.7,0.1L62.2,52.1z M56.5,64.9h1V41.6h-1V64.9z"/>
				<line class="st2" x1="93" y1="40.4" x2="93" y2="460.4"/>
				<line class="st2" x1="0" y1="0.2" x2="943.3" y2="0.2"/>
			</g>
		</g>
		<line class="st3" x1="121.5" y1="227.7" x2="503.6" y2="227.7"/>
		<line class="st3" x1="561.2" y1="227.7" x2="943.3" y2="227.7"/>
		<g>
			<defs>
				<rect id="SVGID_3_" width="951.7" height="460.4"/>
			</defs>
			<clipPath id="SVGID_4_">
				<use xlink:href="#SVGID_3_"  style="overflow:visible;"/>
			</clipPath>
			<g class="st4">
				<path class="st1" d="M430,183.3c2.4,0,4.8,0,7.3-0.1l7.5-0.1c2.5,0,5-0.1,7.5-0.2c2.5-0.1,4.9-0.2,7.2-0.3v1.5
					c-2.3,0.1-4.6,0.2-7.1,0.3s-4.9,0.1-7.4,0.2c-2.5,0.1-5,0.1-7.5,0.1c-2.5,0-4.9,0.1-7.3,0.1L430,183.3z M437,175.2
					c2.9-1,5.5-2.9,7.5-5.3c1.9-2.4,3.2-5.3,3.8-8.4l-1.4-0.3c-0.5,2.9-1.7,5.6-3.5,7.9c-1.9,2.2-4.3,3.9-7.1,4.9L437,175.2z
					 M456.5,173.6l-8.4-5.7l-0.8,1.2l2,1.3c0.7,0.5,1.4,0.9,2.1,1.5l2.2,1.5l2,1.5L456.5,173.6z M432.3,140c2.5-1.9,4.6-4.3,6.1-7.1
					c1.5-2.9,2.5-6,2.9-9.2l-1.4-0.3c-0.2,1.6-0.6,3.2-1,4.7c-0.4,1.4-1,2.8-1.7,4.1c-0.7,1.3-1.5,2.4-2.5,3.5
					c-1,1.2-2.2,2.2-3.4,3.1L432.3,140z M447.9,138.2l-6.1-6.4l-1,1c1,1,2,2,3,3.1s2,2.1,3.1,3.3L447.9,138.2z M455.9,148.4
					c-1,0.1-2.2,0.1-3.7,0.2s-3,0.1-4.5,0.2s-3.1,0.1-4.6,0.1s-2.8,0-3.8-0.1v1.5c1,0,2.3,0.1,3.8,0s3,0,4.6-0.1s3.1-0.1,4.6-0.1
					s2.7-0.1,3.7-0.2L455.9,148.4z M453.1,129.1h-7v1.5h7V129.1z M439.3,150h1.4v-8.1h-1.4V150z M452.4,143.8h1.4v-22.6h-1.4
					L452.4,143.8z M441.6,104.3c0.8-0.4,1.5-0.9,2.1-1.5c0.6-0.6,1-1.4,1.3-2.2c0.6-1.8,0.6-3.7,0-5.4c-0.3-0.8-0.8-1.6-1.3-2.2
					c-0.6-0.6-1.3-1.2-2.1-1.5c-0.8-0.4-1.8-0.6-2.7-0.6c-0.9,0-1.8,0.2-2.7,0.6c-0.8,0.3-1.5,0.9-2.1,1.5c-0.6,0.6-1,1.4-1.3,2.2
					c-0.6,1.8-0.6,3.7,0,5.4c0.3,0.8,0.8,1.6,1.3,2.2c1.2,1.3,3,2,4.8,2C439.9,104.8,440.8,104.6,441.6,104.3 M441.1,92.6
					c0.6,0.3,1.2,0.7,1.6,1.2c0.5,0.5,0.8,1.1,1,1.8c0.5,1.4,0.5,3,0,4.4c-0.2,0.7-0.6,1.3-1,1.8c-0.5,0.5-1,0.9-1.6,1.2
					c-2,0.9-4.4,0.4-5.9-1.2c-0.5-0.5-0.8-1.1-1-1.8c-0.5-1.4-0.5-3,0-4.4c0.2-0.7,0.6-1.3,1-1.8c0.5-0.5,1-0.9,1.6-1.2
					C438.2,92,439.7,92,441.1,92.6 M452.4,114.8h1.4V83.2h-1.4V114.8z M447.9,66.6c-1,0.2-2.1,0.3-3.2,0.4s-2.3,0.3-3.4,0.4
					s-2.3,0.2-3.4,0.3s-2.2,0.2-3.2,0.2v-7.4h-1.4v8.9c1,0,2.2-0.1,3.5-0.2l3.9-0.3c1.3-0.1,2.7-0.2,4-0.4s2.5-0.3,3.5-0.4
					L447.9,66.6z M445.6,59.2c-2,0.2-4.1,0.3-6.3,0.3s-4.2,0.1-6.2,0.1v1.5c1.9,0,4-0.1,6.2-0.1s4.3-0.2,6.3-0.3V59.2z M444.2,60
					h1.4v-7.6h-1.4V60z M445.6,51.7c-2.1,0.1-4.3,0.2-6.5,0.2s-4.3,0.1-6.3,0.1l0.1,1.5l6.2-0.1c2.2,0,4.3-0.1,6.4-0.2L445.6,51.7z
					 M460.1,59.5h-6.3l-0.7,0.7l0.7,0.8l6.3,0.1V59.5z M452.4,76.9h1.4V45.2h-1.4V76.9z"/>
				<path class="st1" d="M480.2,146.9h1.4v-4h-1.4V146.9z M487.5,129.1c-0.9,0-2,0.1-3.3,0.1l-4.1,0.1l-4.1,0.1c-1.3,0-2.4,0-3.3,0
					l0.1,1.5c0.8,0,1.9,0,3.2,0l4.1-0.1l4.1-0.1c1.3,0,2.4-0.1,3.3-0.1L487.5,129.1z M485.1,126.1c-1.4-0.4-2.7-0.9-4-1.4
					s-2.6-1-3.9-1.6l-0.5,1.6c1.3,0.6,2.6,1.1,3.9,1.5s2.6,0.9,3.9,1.3L485.1,126.1z M500.1,136.3h-6.3l-0.7,0.7l0.7,0.8l6.3,0.1
					V136.3z M492.4,152.9h1.4v-31.7h-1.4V152.9z M475.8,139.2c0.2,0.6,0.6,1.1,1,1.5c0.5,0.5,1,0.8,1.6,1.1c1.4,0.6,3,0.6,4.5,0
					c0.6-0.3,1.2-0.6,1.6-1.1c0.4-0.4,0.8-0.9,1-1.5c0.4-1.1,0.4-2.3,0-3.3c-0.2-0.6-0.6-1.1-1-1.5c-0.5-0.5-1-0.8-1.6-1.1
					c-1.4-0.6-3-0.6-4.5,0c-0.6,0.3-1.2,0.6-1.6,1.1c-0.4,0.4-0.8,0.9-1,1.5C475.3,136.9,475.3,138.1,475.8,139.2 M477.1,136.4
					c0.2-0.4,0.4-0.8,0.7-1.1c0.3-0.3,0.7-0.6,1.1-0.8c1.1-0.4,2.3-0.4,3.4,0c0.4,0.2,0.8,0.5,1.2,0.8c0.6,0.6,0.9,1.4,0.9,2.2
					c0,0.4-0.1,0.8-0.2,1.1c-0.2,0.4-0.4,0.8-0.7,1.1c-0.3,0.3-0.7,0.6-1.2,0.8c-1.1,0.4-2.3,0.4-3.4,0c-0.4-0.2-0.8-0.4-1.1-0.8
					c-0.3-0.3-0.5-0.7-0.7-1.1c-0.1-0.4-0.2-0.7-0.2-1.1C476.9,137.1,476.9,136.8,477.1,136.4 M490.2,144.9
					c-1.9,0.3-3.7,0.6-5.3,0.8s-3.2,0.4-4.8,0.6s-3.1,0.3-4.8,0.4s-3.4,0.2-5.3,0.3l0.3,1.5c1.9-0.1,3.6-0.2,5.2-0.3
					s3.2-0.3,4.7-0.4s3.1-0.4,4.7-0.6s3.3-0.5,5.2-0.8L490.2,144.9z M480.4,92c0.4,0.7,0.9,1.4,1.5,1.9c0.7,0.5,1.4,1,2.2,1.2
					c1.8,0.6,3.7,0.6,5.5,0c0.8-0.3,1.6-0.7,2.2-1.2c0.6-0.5,1.1-1.2,1.5-1.9c0.7-1.5,0.7-3.3,0-4.9c-0.4-0.7-0.9-1.4-1.5-1.9
					c-0.7-0.5-1.4-1-2.2-1.2c-1.8-0.6-3.7-0.6-5.5,0c-0.8,0.3-1.6,0.7-2.2,1.2c-0.6,0.5-1.1,1.2-1.5,1.9
					C479.6,88.7,479.6,90.4,480.4,92 M481.7,87.7c0.3-0.6,0.7-1,1.2-1.4c0.5-0.4,1.2-0.7,1.8-0.9c1.4-0.4,3-0.4,4.4,0
					c0.6,0.2,1.2,0.5,1.8,0.9c0.5,0.4,0.9,0.9,1.2,1.4c0.3,0.6,0.5,1.2,0.5,1.9c0,0.6-0.1,1.3-0.5,1.8c-0.3,0.6-0.7,1-1.2,1.4
					c-0.5,0.4-1.1,0.7-1.8,0.9c-1.4,0.4-3,0.4-4.4,0c-0.6-0.2-1.3-0.5-1.8-0.9c-0.5-0.4-0.9-0.9-1.2-1.4c-0.3-0.6-0.4-1.2-0.4-1.8
					C481.2,88.9,481.4,88.3,481.7,87.7 M492.4,113.8h1.4V100h-1.4V113.8z M482.1,103.2c-0.6,1.7-1.3,3.4-2.2,4.9
					c-0.9,1.6-2,3.2-3.3,4.6l1.3,0.8c1.2-1.5,2.3-3.1,3.2-4.8c0.9-1.6,1.7-3.3,2.3-5.1L482.1,103.2z M493.8,99.4
					c-2,0.1-4.1,0.2-6.2,0.3l-6.4,0.2l-6.3,0.1c-2.1,0-4.1,0-6,0l0.1,1.5l6-0.1c2,0,4.1,0,6.2-0.1s4.2-0.1,6.3-0.2l6.2-0.2
					L493.8,99.4z M473.1,63.8c2.4-1.9,4.4-4.2,5.9-6.8c1.5-2.8,2.4-5.9,2.9-9l-1.4-0.3c-0.2,1.6-0.6,3.1-1,4.7
					c-0.4,1.3-0.9,2.6-1.6,3.9c-0.7,1.2-1.4,2.3-2.4,3.4c-1,1.1-2.1,2.1-3.3,3.1L473.1,63.8z M488.3,61.2l-6.6-5.8l-1,1.1
					c1.1,0.9,2.1,1.9,3.1,2.8s2.1,2,3.3,3.1L488.3,61.2z M492.4,67.8h1.4V45.2h-1.4V67.8z M495.9,72.4c-1,0.1-2.2,0.2-3.7,0.2
					s-2.9,0.1-4.5,0.2s-3,0.1-4.5,0.1s-2.7,0-3.8-0.1v1.5c1,0,2.3,0.1,3.8,0s3,0,4.5-0.1s3-0.1,4.5-0.2s2.7-0.1,3.7-0.2V72.4z
					 M479.5,73.9h1.4v-8.4h-1.4V73.9z M500.1,56.9h-6.3l-0.7,0.7l0.7,0.8l6.3,0.1V56.9z"/>
				<path class="st1" d="M869.1,183.3c2.4,0,4.8,0,7.3-0.1l7.5-0.1c2.5,0,5-0.1,7.5-0.2c2.5-0.1,4.9-0.2,7.2-0.3v1.5
					c-2.3,0.1-4.6,0.2-7.1,0.3c-2.5,0.1-4.9,0.1-7.4,0.2c-2.5,0.1-5,0.1-7.5,0.1c-2.5,0-4.9,0.1-7.3,0.1L869.1,183.3z M876.1,175.2
					c2.9-1,5.5-2.9,7.5-5.3c1.9-2.4,3.2-5.3,3.8-8.4l-1.4-0.3c-0.5,2.9-1.7,5.6-3.5,7.9c-1.9,2.2-4.3,3.9-7.1,4.9L876.1,175.2z
					 M895.6,173.6l-8.4-5.7l-0.8,1.2l2,1.3c0.7,0.5,1.4,0.9,2.2,1.5l2.2,1.5l2,1.5L895.6,173.6z M871.5,140c2.5-1.9,4.6-4.3,6.1-7.1
					c1.5-2.9,2.5-6,3-9.2l-1.4-0.3c-0.2,1.6-0.6,3.2-1,4.7c-0.4,1.4-1,2.8-1.7,4.1c-0.7,1.2-1.5,2.4-2.5,3.5c-1,1.2-2.2,2.2-3.4,3.1
					L871.5,140z M887,138.1l-6.2-6.4l-1,1c1,1,2,2,3,3.1c1,1,2,2.1,3.1,3.3L887,138.1z M895,148.4c-1,0.1-2.3,0.1-3.7,0.2
					s-3,0.1-4.5,0.2s-3.1,0.1-4.6,0.1s-2.8,0-3.8-0.1v1.5c1,0,2.3,0.1,3.8,0s3,0,4.6-0.1s3.1-0.1,4.6-0.1s2.7-0.1,3.7-0.2L895,148.4
					z M892.1,129.1h-7v1.5h7V129.1z M878.4,149.9h1.4v-8.1h-1.4V149.9z M891.5,143.8h1.4v-22.5h-1.4V143.8z M880.8,104.3
					c0.8-0.4,1.5-0.9,2.1-1.5c0.6-0.7,1-1.4,1.3-2.2c0.6-1.8,0.6-3.7,0-5.4c-0.3-0.8-0.8-1.6-1.3-2.2c-0.6-0.6-1.3-1.2-2.1-1.5
					c-0.8-0.4-1.8-0.6-2.7-0.6c-0.9,0-1.8,0.2-2.7,0.6c-0.8,0.3-1.5,0.9-2.1,1.5c-0.6,0.6-1,1.4-1.3,2.2c-0.6,1.8-0.6,3.7,0,5.4
					c0.3,0.8,0.8,1.6,1.3,2.2c0.6,0.6,1.3,1.1,2.1,1.5c0.8,0.4,1.8,0.6,2.7,0.6C879,104.9,879.9,104.7,880.8,104.3 M880.2,92.7
					c0.6,0.3,1.2,0.7,1.6,1.2c0.4,0.5,0.8,1.1,1,1.8c0.5,1.4,0.5,3,0,4.4c-0.2,0.7-0.6,1.3-1,1.8c-1,1.1-2.3,1.7-3.8,1.6
					c-0.7,0-1.5-0.1-2.1-0.4c-0.6-0.3-1.2-0.7-1.6-1.2c-0.4-0.5-0.8-1.1-1-1.8c-0.5-1.4-0.5-3,0-4.4c0.2-0.7,0.6-1.3,1-1.8
					c0.5-0.5,1-0.9,1.6-1.2C877.3,92.1,878.8,92.1,880.2,92.7 M891.5,114.9h1.4V83.2h-1.4V114.9z M887,66.7c-1,0.2-2,0.3-3.2,0.4
					s-2.3,0.3-3.4,0.4l-3.4,0.3c-1.1,0.1-2.2,0.2-3.2,0.2v-7.5h-1.4v8.9c1,0,2.2-0.1,3.5-0.2l3.9-0.3c1.3-0.1,2.7-0.2,4-0.4
					s2.5-0.3,3.5-0.4L887,66.7z M884.8,59.3c-2,0.2-4.1,0.3-6.3,0.3s-4.2,0.1-6.2,0.1v1.5c1.9,0,4-0.1,6.2-0.1s4.3-0.2,6.3-0.3V59.3
					z M883.4,60.1h1.4v-7.6h-1.4V60.1z M884.8,51.8c-2.1,0.1-4.3,0.2-6.5,0.2s-4.3,0.1-6.3,0.1l0.1,1.5l6.2-0.1
					c2.2,0,4.3-0.1,6.4-0.2V51.8z M899.3,59.6H893l-0.7,0.7L893,61l6.3,0.1V59.6z M891.6,76.9h1.4V45.2h-1.4V76.9z"/>
				<path class="st1" d="M919.4,146.9h1.4v-4h-1.4V146.9z M926.7,129.1c-0.9,0-2,0.1-3.3,0.1l-4.1,0.1l-4.1,0.1c-1.3,0-2.4,0-3.3,0
					l0.1,1.5c0.8,0,1.9,0,3.2,0l4.1-0.1l4.1-0.1c1.3,0,2.4-0.1,3.3-0.1L926.7,129.1z M924.2,126.1c-1.4-0.4-2.7-0.9-4-1.4
					s-2.6-1-3.9-1.6l-0.5,1.6c1.3,0.6,2.6,1.1,3.9,1.5s2.6,0.9,3.9,1.3L924.2,126.1z M939.2,136.3h-6.3l-0.7,0.7l0.7,0.8l6.3,0.1
					V136.3z M931.5,152.9h1.4v-31.7h-1.4V152.9z M914.9,139.2c0.2,0.6,0.6,1.1,1,1.5c0.5,0.5,1,0.8,1.6,1.1c1.4,0.6,3,0.6,4.4,0
					c0.6-0.3,1.2-0.6,1.6-1.1c0.4-0.4,0.8-0.9,1-1.5c0.4-1.1,0.4-2.3,0-3.3c-0.2-0.6-0.6-1.1-1-1.5c-0.5-0.5-1-0.8-1.6-1.1
					c-1.4-0.6-3-0.6-4.4,0c-0.6,0.2-1.2,0.6-1.6,1.1c-0.4,0.4-0.8,0.9-1,1.5C914.5,136.9,914.5,138.1,914.9,139.2 M916.2,136.4
					c0.2-0.4,0.4-0.8,0.7-1.1c0.3-0.3,0.7-0.6,1.2-0.8c1.1-0.4,2.3-0.4,3.4,0c0.4,0.2,0.8,0.5,1.2,0.8c0.6,0.6,0.9,1.4,0.9,2.2
					c0,0.4-0.1,0.8-0.2,1.1c-0.3,0.9-1,1.5-1.8,1.9c-1.1,0.4-2.3,0.4-3.4,0c-0.4-0.2-0.8-0.4-1.2-0.8c-0.3-0.3-0.5-0.7-0.7-1.1
					c-0.1-0.4-0.2-0.7-0.2-1.1C916,137.1,916.1,136.7,916.2,136.4 M929.3,144.9c-1.9,0.3-3.7,0.6-5.3,0.8s-3.2,0.4-4.8,0.6
					s-3.1,0.3-4.8,0.4s-3.4,0.2-5.3,0.3l0.3,1.5c1.9-0.1,3.6-0.2,5.2-0.3s3.2-0.3,4.7-0.4s3.1-0.4,4.7-0.6s3.3-0.5,5.2-0.8
					L929.3,144.9z M919.5,92c0.4,0.7,0.9,1.4,1.5,1.9c0.7,0.5,1.4,1,2.2,1.2c1.8,0.6,3.7,0.6,5.5,0c0.8-0.3,1.6-0.7,2.3-1.3
					c0.6-0.5,1.1-1.2,1.5-1.9c0.7-1.5,0.7-3.3,0-4.9c-0.4-0.7-0.9-1.4-1.5-1.9c-0.7-0.5-1.5-0.9-2.3-1.2c-1.8-0.6-3.7-0.6-5.5,0
					c-0.8,0.3-1.6,0.7-2.2,1.2c-0.6,0.5-1.1,1.2-1.5,1.9C918.8,88.6,918.8,90.4,919.5,92 M920.8,87.7c0.3-0.6,0.7-1,1.2-1.4
					c0.5-0.4,1.2-0.7,1.8-0.9c1.4-0.4,3-0.4,4.4,0c0.6,0.2,1.2,0.5,1.8,0.9c0.5,0.4,0.9,0.9,1.2,1.4c0.3,0.6,0.5,1.2,0.5,1.9
					c0,0.6-0.1,1.3-0.5,1.8c-0.3,0.5-0.7,1-1.2,1.4c-0.5,0.4-1.1,0.7-1.8,0.9c-1.4,0.4-3,0.4-4.4,0c-0.6-0.2-1.3-0.5-1.8-0.9
					c-0.5-0.4-0.9-0.9-1.2-1.4c-0.3-0.6-0.4-1.2-0.4-1.8C920.4,88.9,920.5,88.2,920.8,87.7 M931.5,113.7h1.4V100h-1.4V113.7z
					 M921.2,103.2c-0.6,1.7-1.3,3.4-2.2,4.9c-0.9,1.6-2,3.2-3.3,4.6l1.3,0.8c1.2-1.5,2.3-3.1,3.2-4.8c0.9-1.6,1.7-3.3,2.3-5.1
					L921.2,103.2z M932.9,99.3c-2,0.1-4.1,0.2-6.2,0.3l-6.3,0.2l-6.3,0.1c-2.1,0-4.1,0-6,0l0.2,1.5l6-0.1c2,0,4.1,0,6.2-0.1
					c2.1,0,4.2-0.1,6.3-0.2l6.2-0.2L932.9,99.3z M912.2,63.8c2.4-1.9,4.4-4.2,5.9-6.8c1.5-2.8,2.4-5.9,2.9-9l-1.4-0.3
					c-0.2,1.6-0.6,3.1-1,4.7c-0.4,1.3-0.9,2.6-1.6,3.9c-0.7,1.2-1.4,2.3-2.4,3.4c-1,1.1-2.1,2.1-3.3,3.1L912.2,63.8z M927.4,61.2
					l-6.6-5.8l-1,1.1c1.1,0.9,2.1,1.9,3.2,2.8s2.1,2,3.3,3.1L927.4,61.2z M931.5,67.8h1.4V45.2h-1.4V67.8z M935,72.4l-3.7,0.2
					c-1.5,0.1-2.9,0.1-4.5,0.2s-3,0.1-4.5,0.1s-2.7,0-3.8-0.1v1.5c1,0,2.3,0.1,3.7,0s3,0,4.5-0.1s3-0.1,4.5-0.2s2.7-0.1,3.7-0.2
					V72.4z M918.6,73.9h1.4v-8.4h-1.4V73.9z M939.2,56.9h-6.3l-0.7,0.7l0.7,0.8l6.3,0.1V56.9z"/>
				<path class="st1" d="M666.9,186c17.9-7.7,32.2-22,39.9-39.9c7.9-18.5,7.9-39.4,0-57.8c-7.7-17.9-22-32.2-39.9-39.9
					c-18.5-7.9-39.4-7.9-57.8,0c-17.9,7.7-32.2,22-39.9,39.9c-7.9,18.5-7.9,39.4,0,57.8c7.7,17.9,22,32.2,39.9,39.9
					C627.5,193.9,648.4,193.9,666.9,186 M664.5,54.1c16.5,7,29.5,20.1,36.5,36.6c7.3,16.9,7.3,36.1,0,53
					c-7,16.5-20.1,29.6-36.6,36.6c-16.9,7.3-36.1,7.3-53,0c-16.5-7-29.6-20.1-36.6-36.6c-7.3-16.9-7.3-36.1,0-53
					c7-16.5,20.1-29.6,36.6-36.6C628.3,46.8,647.5,46.8,664.5,54.1 M615.4,92.7l4.3,5l17.7-13.6v71.2h7.2V75h-6.2L615.4,92.7z"/>
				<path class="st5" d="M666.9,186c17.9-7.7,32.2-22,39.9-39.9c7.9-18.5,7.9-39.4,0-57.8c-7.7-17.9-22-32.2-39.9-39.9
					c-18.5-7.9-39.4-7.9-57.8,0c-17.9,7.7-32.2,22-39.9,39.9c-7.9,18.5-7.9,39.4,0,57.8c7.7,17.9,22,32.2,39.9,39.9
					C627.5,193.9,648.4,193.9,666.9,186L666.9,186z M664.5,54.1c16.5,7,29.5,20.1,36.5,36.6c7.3,16.9,7.3,36.1,0,53
					c-7,16.5-20.1,29.6-36.6,36.6c-16.9,7.3-36.1,7.3-53,0c-16.5-7-29.6-20.1-36.6-36.6c-7.3-16.9-7.3-36.1,0-53
					c7-16.5,20.1-29.6,36.6-36.6C628.3,46.8,647.5,46.8,664.5,54.1L664.5,54.1z M615.5,92.7l4.3,5l17.7-13.6v71.2h7.2V75h-6.2
					L615.5,92.7z"/>
				<path class="st1" d="M227.8,186c17.9-7.7,32.2-22,39.9-39.9c7.9-18.5,7.9-39.4,0-57.8c-7.7-17.9-22-32.2-39.9-39.9
					c-18.5-7.9-39.4-7.9-57.8,0c-17.9,7.7-32.2,22-39.9,39.9c-7.9,18.5-7.9,39.4,0,57.8c7.7,17.9,22,32.2,39.9,39.9
					C188.4,193.9,209.3,193.9,227.8,186 M225.3,54.1c16.5,7,29.6,20.1,36.6,36.6c7.2,16.9,7.2,36.1,0,53
					c-7,16.5-20.1,29.6-36.6,36.6c-16.9,7.2-36.1,7.2-53,0c-16.5-7-29.6-20.1-36.6-36.6c-7.2-16.9-7.2-36.1,0-53
					c7-16.5,20.1-29.6,36.6-36.6C189.2,46.8,208.4,46.8,225.3,54.1 M182.7,102c0-5.8,1.5-10.3,4.5-13.3c3-3,7.2-4.6,12.6-4.6
					c5.4,0,9.6,1.5,12.6,4.4c3,2.9,4.5,6.8,4.5,11.7c0,3.9-1.3,7.7-3.8,10.8c-2.9,3.5-6,6.8-9.4,9.8l-28.5,25.8v6.8H226v-7.6h-40
					l22.6-20.3c4-3.6,7.7-7.6,10.9-12c2.9-3.8,4.5-8.5,4.5-13.3c0-3-0.5-6-1.5-8.9c-1-2.8-2.6-5.3-4.6-7.4c-2.2-2.2-4.8-3.9-7.6-5
					c-3.4-1.3-6.9-1.9-10.5-1.8c-7.9,0-14,2.3-18.3,7c-4.3,4.7-6.5,10.6-6.4,17.8H182.7z"/>
				<path class="st5" d="M227.8,186c17.9-7.7,32.2-22,39.9-39.9c7.9-18.5,7.9-39.4,0-57.8c-7.7-17.9-22-32.2-39.9-39.9
					c-18.5-7.9-39.4-7.9-57.8,0c-17.9,7.7-32.2,22-39.9,39.9c-7.9,18.5-7.9,39.4,0,57.8c7.7,17.9,22,32.2,39.9,39.9
					C188.4,193.9,209.3,193.9,227.8,186z M225.3,54.1c16.5,7,29.6,20.1,36.6,36.6c7.2,16.9,7.2,36.1,0,53
					c-7,16.5-20.1,29.6-36.6,36.6c-16.9,7.2-36.1,7.2-53,0c-16.5-7-29.6-20.1-36.6-36.6c-7.2-16.9-7.2-36.1,0-53
					c7-16.5,20.1-29.6,36.6-36.6C189.2,46.8,208.4,46.8,225.3,54.1z M182.7,102c0-5.8,1.5-10.3,4.5-13.3c3-3,7.2-4.6,12.6-4.6
					c5.4,0,9.6,1.5,12.6,4.4c3,2.9,4.5,6.8,4.5,11.7c0,3.9-1.3,7.7-3.8,10.8c-2.9,3.5-6,6.8-9.4,9.8l-28.5,25.8v6.8H226v-7.6h-40
					l22.6-20.3c4-3.6,7.7-7.6,10.9-12c2.9-3.8,4.5-8.5,4.5-13.3c0-3-0.5-6-1.5-8.9c-1-2.8-2.6-5.3-4.6-7.4c-2.2-2.2-4.8-3.9-7.6-5
					c-3.4-1.3-6.9-1.9-10.5-1.8c-7.9,0-14,2.3-18.3,7c-4.3,4.7-6.5,10.6-6.4,17.8H182.7z"/>
			</g>
		</g>
		<text transform="matrix(1 0 0 1 121.8987 282.4497)"><tspan x="0" y="0" class="st6 st7">상업적인 인쇄, 출판, 전자출판, 웹 이미지와 CI, BI, </tspan><tspan x="0" y="26" class="st6 st7">간판, 영상, 디바이스, 게임, 애플리케이션, 웹폰트, </tspan><tspan x="0" y="52" class="st6 st7">상업용 2차 제작물 등에 사용하실 수 있습니다. </tspan><tspan x="0" y="104" class="st6 st7">*단, 서버 등을 통한 재판매는 제외합니다.</tspan><tspan x="0" y="130" class="st6 st7">*글꼴은 마켓히읗<a href="http://markethiut.com/" target="_blank">(http://markethiut.com/)</a>에서 </tspan><tspan x="0" y="156" class="st6 st7"> 구입하실 수 있습니다.</tspan></text>
		<text transform="matrix(1 0 0 1 561.6209 282.4502)"><tspan x="0" y="0" class="st6 st7">상업적인 인쇄, 출판, 웹 이미지에 </tspan><tspan x="0" y="26" class="st6 st7">사용하실 수 있습니다.</tspan></text>
	</g>
</g>
</svg>
