<svg xmlns="http://www.w3.org/2000/svg" xmlns:xlink="http://www.w3.org/1999/xlink" viewBox="0 0 943.31 560.3"><defs><style>.cls-1,.cls-4,.cls-5,.cls-6{fill:none;}.cls-2{clip-path:url(#clip-path);}.cls-3{fill:#231916;}.cls-4{stroke:#231916;stroke-width:0.3px;}.cls-5,.cls-6{stroke:#44403f;}.cls-5{stroke-width:0.5px;}</style><clipPath id="clip-path"><rect class="cls-1" x="4" y="40.3" width="939.05" height="520"/></clipPath></defs><title>columns-7_1</title><g id="Layer_2" data-name="Layer 2"><g id="Layer_1-2" data-name="Layer 1"><g class="cls-2"><path class="cls-3" d="M26.32,174.46l-.68-.84-9.46,5.44-9.46-5.44-.68.84,10.14,5.8Zm-14-9.69h1v-2.94h-1Zm5.37-13.1c-.63,0-1.44.07-2.41.11l-3,.1-3,.06L6.8,152,6.88,153l2.37,0c1,0,2,0,3-.07l3-.08c1,0,1.79-.06,2.42-.1Zm-1.79-2.24q-1.51-.48-2.91-1c-.94-.37-1.9-.76-2.89-1.19l-.39,1.15c.95.41,1.92.79,2.89,1.13s1.93.68,2.88,1ZM27,157H22.31l-.53.5.53.59,4.65.06ZM21.28,169.2h1V145.87h-1ZM9,159.09a3.17,3.17,0,0,0,.72,1.11A3.84,3.84,0,0,0,11,161a4,4,0,0,0,1.64.31,4,4,0,0,0,1.63-.31,3.84,3.84,0,0,0,1.21-.79,3.34,3.34,0,0,0,.73-1.11,3.4,3.4,0,0,0,0-2.46,3.34,3.34,0,0,0-.73-1.11,3.87,3.87,0,0,0-1.21-.8,4.47,4.47,0,0,0-3.27,0,3.87,3.87,0,0,0-1.21.8A3.17,3.17,0,0,0,9,156.63a3.27,3.27,0,0,0,0,2.46M10,157a2.2,2.2,0,0,1,.51-.78,2.73,2.73,0,0,1,.85-.59,3,3,0,0,1,1.25-.24,2.83,2.83,0,0,1,2.1.83,2.31,2.31,0,0,1,.5.78,2.37,2.37,0,0,1,.17.83,2.27,2.27,0,0,1-.17.82,2.5,2.5,0,0,1-.5.8,2.44,2.44,0,0,1-.86.59,3.09,3.09,0,0,1-1.24.22,3.14,3.14,0,0,1-1.25-.22,2.31,2.31,0,0,1-.85-.59,2.37,2.37,0,0,1-.51-.8,2.27,2.27,0,0,1-.17-.82A2.37,2.37,0,0,1,10,157m9.66,6.26c-1.4.24-2.7.44-3.89.6s-2.37.3-3.51.41-2.32.2-3.5.28-2.48.14-3.88.19l.22,1.1c1.38-.06,2.67-.13,3.85-.22s2.35-.19,3.49-.31,2.29-.27,3.47-.43l3.84-.56Zm-7.24-38.7A4.27,4.27,0,0,0,13.52,126a5.46,5.46,0,0,0,1.65.9,6.42,6.42,0,0,0,2,.32,6.32,6.32,0,0,0,2-.32,5.4,5.4,0,0,0,1.66-.9,4.37,4.37,0,0,0,1.1-1.39,4,4,0,0,0,.41-1.8A4,4,0,0,0,22,121a4.27,4.27,0,0,0-1.1-1.39,5.4,5.4,0,0,0-1.66-.9,6.32,6.32,0,0,0-2-.32,6.42,6.42,0,0,0-2,.32,5.46,5.46,0,0,0-1.65.9A4.17,4.17,0,0,0,12.41,121a4,4,0,0,0-.4,1.8,4,4,0,0,0,.4,1.8m.95-3.17a3.2,3.2,0,0,1,.9-1,4.32,4.32,0,0,1,1.32-.67,5.59,5.59,0,0,1,3.24,0,4.15,4.15,0,0,1,1.31.67,3.29,3.29,0,0,1,.89,1,2.93,2.93,0,0,1,0,2.74,3.4,3.4,0,0,1-.89,1,4.15,4.15,0,0,1-1.31.67,5.59,5.59,0,0,1-3.24,0,4.32,4.32,0,0,1-1.32-.67,3.3,3.3,0,0,1-.9-1,3.09,3.09,0,0,1,0-2.74m7.92,19.22h1V130.47h-1Zm-7.59-7.79a19.12,19.12,0,0,1-1.63,3.64,21.44,21.44,0,0,1-2.4,3.42l.95.59A27,27,0,0,0,13,136.94a22,22,0,0,0,1.7-3.75ZM22.31,130c-1.49.08-3,.14-4.58.19l-4.67.14c-1.56,0-3.11.06-4.64.08s-3,0-4.42,0l.11,1.1,4.4-.06,4.59-.08,4.65-.14,4.56-.17ZM7,103.54a16.41,16.41,0,0,0,4.33-5,20.4,20.4,0,0,0,2.11-6.64l-1-.19a29.5,29.5,0,0,1-.77,3.44A14.92,14.92,0,0,1,10.51,98a13.31,13.31,0,0,1-1.74,2.47,17.66,17.66,0,0,1-2.42,2.26Zm11.2-1.91-4.84-4.31-.7.81c.78.7,1.56,1.39,2.32,2.09s1.57,1.45,2.41,2.25Zm3.06,4.85h1V89.87h-1Zm2.57,3.41c-.75.06-1.65.12-2.71.17s-2.16.1-3.28.13-2.22,0-3.29,0-2,0-2.79,0v1.09c.77,0,1.69.06,2.76,0l3.31-.06c1.13,0,2.22-.06,3.29-.11s2-.1,2.71-.16ZM11.78,111h1V104.8h-1ZM27,98.47H22.31l-.53.5.53.59,4.65.06ZM16.18,81.14,6,86.94l.68.84,9.46-5.44,9.46,5.44.68-.84Z"/><path class="cls-3" d="M55.58,263.92a2.69,2.69,0,0,0,.61.93,3,3,0,0,0,2,.84,3,3,0,0,0,2-.84,2.84,2.84,0,0,0,.61-.93,2.8,2.8,0,0,0,.22-1.12,2.87,2.87,0,0,0-.22-1.12,2.84,2.84,0,0,0-1.53-1.54,2.87,2.87,0,0,0-1.12-.22,2.78,2.78,0,0,0-1.11.22,2.82,2.82,0,0,0-.92.62,2.74,2.74,0,0,0-.61.92,2.88,2.88,0,0,0-.23,1.12,2.8,2.8,0,0,0,.23,1.12m4,.2a1.83,1.83,0,0,1-1.33.53,1.83,1.83,0,0,1-1.86-1.85A1.83,1.83,0,0,1,58.22,261a1.86,1.86,0,0,1,1.33,3.16M42,246.34h1V235.42H42Zm7.36-1.93c-1.27.35-2.48.64-3.63.86a37.07,37.07,0,0,1-3.73.54v1c1.36-.13,2.64-.3,3.85-.51s2.45-.5,3.73-.86ZM57,239.93h-5V241h5ZM51.29,250.4h1V231.55h-1Zm5,2.8h1V229.87h-1ZM62,209.91H57.31l-.53.5.53.59,4.65.06Zm-19.38,1.15a4.55,4.55,0,0,0,1,1.41,5,5,0,0,0,1.47,1,4.48,4.48,0,0,0,3.52,0,4.9,4.9,0,0,0,1.46-1,4.39,4.39,0,0,0,1-1.41,4.25,4.25,0,0,0,0-3.47,4.43,4.43,0,0,0-1-1.42,4.87,4.87,0,0,0-1.46-1,4.37,4.37,0,0,0-3.52,0,4.92,4.92,0,0,0-1.47,1,4.59,4.59,0,0,0-1,1.42,4.36,4.36,0,0,0,0,3.47m1-3.07a3.39,3.39,0,0,1,.76-1.1,3.52,3.52,0,0,1,1.12-.76,3.52,3.52,0,0,1,2.75,0A3.63,3.63,0,0,1,50.06,208a3.21,3.21,0,0,1,.28,1.33,3.17,3.17,0,0,1-.28,1.33,3.71,3.71,0,0,1-.76,1.11,3.55,3.55,0,0,1-3.88.75,3.34,3.34,0,0,1-1.12-.75,3.54,3.54,0,0,1-.76-1.11,3.17,3.17,0,0,1-.28-1.33,3.21,3.21,0,0,1,.28-1.33m15.31,13.9c-.75.06-1.66.12-2.73.17s-2.18.1-3.33.13-2.26.05-3.35.05-2,0-2.8,0v1.09c.77,0,1.69.06,2.78.05l3.34-.06c1.15,0,2.27-.06,3.35-.11s2-.1,2.74-.16ZM46.64,223h1v-5.93h-1Zm9.64-4.53h1V201.87h-1ZM44.91,178.19a12.39,12.39,0,0,0,5.53-3.89,14.42,14.42,0,0,0,2.78-6.16l-1-.26a13.61,13.61,0,0,1-2.58,5.81,12,12,0,0,1-5.24,3.6ZM59.3,177l-6.22-4.2-.56.93,1.46,1,1.58,1.08,1.6,1.13,1.5,1.08Zm-19.57,7.17c1.75,0,3.55,0,5.39,0l5.53-.11c1.85-.05,3.68-.11,5.5-.19s3.58-.16,5.28-.28l0,1.1c-1.68.11-3.43.2-5.24.28s-3.63.13-5.46.18l-5.5.11c-1.84,0-3.62,0-5.36,0Zm1.76-32.9A16.22,16.22,0,0,0,46,146.09a20.31,20.31,0,0,0,2.17-6.82l-1-.2a24.92,24.92,0,0,1-.76,3.5,14.4,14.4,0,0,1-1.25,3,14.11,14.11,0,0,1-1.83,2.59,16.58,16.58,0,0,1-2.52,2.3ZM53,149.94l-4.53-4.71-.73.76c.73.74,1.45,1.5,2.18,2.27s1.49,1.57,2.27,2.43Zm5.88,7.56c-.75.05-1.66.11-2.74.16s-2.2.1-3.35.13l-3.36.06c-1.09,0-2,0-2.81,0v1.1c.76,0,1.69,0,2.78,0l3.38-.06c1.15,0,2.28-.06,3.36-.11l2.74-.15Zm-2.1-14.23H51.57v1.09h5.18ZM46.59,158.62h1v-5.94h-1Zm9.69-4.54h1v-16.6h-1Zm-8-29.08a4.76,4.76,0,0,0,1.54-1.1,5,5,0,0,0,1-1.64,5.92,5.92,0,0,0,0-4,4.82,4.82,0,0,0-1-1.63,4.64,4.64,0,0,0-1.54-1.11,5,5,0,0,0-4,0,4.64,4.64,0,0,0-1.54,1.11,4.82,4.82,0,0,0-1,1.63,5.92,5.92,0,0,0,0,4,5,5,0,0,0,1,1.64,4.76,4.76,0,0,0,1.54,1.1,5,5,0,0,0,4,0m-.41-8.57a3.75,3.75,0,0,1,2,2.2,4.85,4.85,0,0,1,.27,1.63,4.79,4.79,0,0,1-.27,1.62,3.82,3.82,0,0,1-5.12,2.2,3.7,3.7,0,0,1-1.21-.88,4,4,0,0,1-.78-1.32,5,5,0,0,1-.26-1.62,5.11,5.11,0,0,1,.26-1.63,3.84,3.84,0,0,1,.78-1.31,3.59,3.59,0,0,1,1.21-.89,4,4,0,0,1,3.14,0m8.36,16.37h1V109.48h-1ZM52.92,97.27c-.73.11-1.52.22-2.36.32s-1.68.2-2.53.28-1.69.16-2.53.22-1.64.11-2.38.13V92.73h-1v6.58c.77,0,1.62-.06,2.56-.12s1.91-.14,2.9-.22,2-.18,2.91-.28,1.81-.22,2.58-.33Zm-1.66-5.43c-1.47.13-3,.21-4.63.25l-4.55.08v1.09l4.55-.09c1.63,0,3.18-.12,4.63-.21Zm-1,.56h1V86.77h-1Zm1-6.11c-1.55.09-3.14.14-4.77.18s-3.18.06-4.63.07l.08,1.1,4.61-.09c1.61,0,3.18-.09,4.71-.17ZM62,92H57.31l-.53.51.53.58,4.65.06ZM56.28,104.8h1V81.48h-1Z"/><line class="cls-4" x1="92.7" y1="40.3" x2="92.7" y2="560.3"/></g><line class="cls-5" x1="121.2" y1="300.55" x2="503.32" y2="300.55"/><g class="cls-2"><line class="cls-5" x1="560.93" y1="300.55" x2="943.05" y2="300.55"/></g><line class="cls-6" x1="121.2" y1="80.8" x2="503.32" y2="80.8"/><line class="cls-6" x1="560.93" y1="80.8" x2="943.05" y2="80.8"/><path class="cls-3" d="M713.35,380.84a.87.87,0,0,0,.85-.92.87.87,0,1,0-1.73,0,.87.87,0,0,0,.88.92m-2.68-7.3H708v-6.19h-.9v15.12h.9v-8.16h2.66Zm-12.55,4.29v-8.21h6.09v-.77h-7v9.76h1.14a35.48,35.48,0,0,0,7.24-.55l-.12-.78a35.39,35.39,0,0,1-7.12.55Zm-5.92,4.62h.91v-15.1h-.91Zm-9.36-4.79v-8.83H682v9.63h1.18a35.9,35.9,0,0,0,7.41-.75l-.14-.78a34.47,34.47,0,0,1-7.27.73Zm-17.6-2.5h13.65v-.77H665.24Zm11,3.3H668v-2.08h-.89v5.83h10v-5.83h-.88Zm0,3H668v-2.27h8.24Zm1.87-9.11c-2.24-.3-5.52-2-5.52-4v-.81h-.92v.81c0,2.15-3.23,3.71-5.53,4l.36.73c2.12-.35,4.74-1.56,5.63-3.43.9,1.84,3.52,3.08,5.62,3.43Zm-17.95,4.35h-.87v1a4.8,4.8,0,0,1-2.4,3.75,4.32,4.32,0,0,1-2.36-3.75v-1h-.87v1a4.66,4.66,0,0,1-3.16,3.84l.46.7a5.76,5.76,0,0,0,3.11-3,4.88,4.88,0,0,0,2.84,3.1,5.52,5.52,0,0,0,2.81-3.13,5.38,5.38,0,0,0,3.16,3l.46-.7a4.44,4.44,0,0,1-3.18-3.84Zm-6.26-1.49c2.26,0,3.84-1.4,3.84-3.45s-1.58-3.47-3.84-3.47a3.48,3.48,0,1,0,0,6.92m0-6.16a2.71,2.71,0,1,1-2.94,2.71,2.75,2.75,0,0,1,2.94-2.71m8-1.7H661V376h.9Zm-19,8.67H629.2v.77h6.36v5.64h.9v-5.64h6.39Zm-.82-2.7c-2.26-.37-5.54-2.14-5.54-4.45v-.94h-.93v.94c0,2.38-3.25,4.08-5.56,4.45l.39.75c2.12-.41,4.74-1.72,5.64-3.72.9,2,3.54,3.31,5.63,3.72Zm-29.61,8.16v-2h8.65v-3.35h-9.58v.75h8.7v1.89h-8.65v3.5h10.13v-.75Zm5.42-7.5c-2.1-.76-4-2.7-4-5v-1.16H613V369a6,6,0,0,1-4,5.28l.48.73a6.87,6.87,0,0,0,3.94-4.14,6.76,6.76,0,0,0,4,3.84Zm3.22-6.64h-.9v7.92h.9Zm-13.77,6.41h-2.66v-6.41h-.9v15.09h.9v-7.92h2.66Zm-9.22-6.26h-.9v2.36h-4.11v.77h9v-.77h-4Zm-.42,4.62a3.4,3.4,0,1,0,3.58,3.4,3.37,3.37,0,0,0-3.58-3.4m0,6a2.62,2.62,0,1,1,2.73-2.62,2.61,2.61,0,0,1-2.73,2.62m-10-3.14v-2.33c1.25-.46,1.93-1.24,1.93-2.26,0-1.75-2-2.74-5.24-2.74s-5.2,1-5.2,2.74a2.49,2.49,0,0,0,1.94,2.28V375h-3.54v.76h13.63V375Zm-7.59-4.59c0-1.24,1.68-2,4.28-2s4.32.77,4.32,2-1.69,2-4.32,2-4.28-.78-4.28-2m1.92,2.53a11.84,11.84,0,0,0,2.36.22,12.44,12.44,0,0,0,2.43-.22V375H582Zm2.38,4.2c-3.22,0-5.14.93-5.14,2.63s1.92,2.66,5.14,2.66,5.13-1,5.13-2.66-1.92-2.63-5.13-2.63m0,4.56c-2.59,0-4.24-.72-4.24-1.93s1.65-1.92,4.24-1.92,4.23.73,4.23,1.92-1.65,1.93-4.23,1.93M576,373.64h-2.66v-6.3h-.9v15.11h.9v-8H576Zm-9.39-4.91h-.86v3a8.34,8.34,0,0,1-4,6.66l.56.73a9.22,9.22,0,0,0,3.92-5.32,8.8,8.8,0,0,0,3.91,5l.57-.7a8,8,0,0,1-4.07-6.37Z"/><path class="cls-3" d="M789,356.45h.86V341.34H789Zm-3-9h-2.33c-.12-2.88-1.34-4.7-3.2-4.7s-3.18,2-3.18,5.12,1.26,5.12,3.18,5.12,3.1-1.84,3.2-4.78h2.33v7.46h.86V341.71h-.86Zm-5.53,4.72c-1.39,0-2.34-1.77-2.34-4.3s.95-4.3,2.34-4.3,2.35,1.79,2.35,4.3-.94,4.3-2.35,4.3m-7.7,4.32h.9v-15.1h-.9Zm-6.24-12.72h3.81V343H762v.78h3.74v2.55a8.29,8.29,0,0,1-4.17,6.5l.56.73a9.26,9.26,0,0,0,4-5.24,8.58,8.58,0,0,0,4.13,4.87l.55-.72c-2-.92-4.24-3.52-4.24-6.14Zm-9.4,12.72h.9v-15.1h-.9Zm-4.54-4.67h-5v-8.13h5Zm-5.88.74h6.77V342.9h-6.77Zm-12.17-9.14c1.68,0,2.87,1.8,2.87,4.38s-1.19,4.41-2.87,4.41-2.89-1.82-2.89-4.41,1.19-4.38,2.89-4.38m0-.8c-2.21,0-3.76,2-3.76,5.18s1.55,5.19,3.76,5.19,3.74-2,3.74-5.19-1.55-5.18-3.74-5.18m7,13.87h.9v-15.1h-.9Zm-20.14-5.73h.88v-9.38h-.88Zm0,2.26h-8v-1.66h-.9v4.89h9.79v-4.89h-.88Zm0,2.48h-8v-1.75h8Zm-8-4.76h.88V348a25.63,25.63,0,0,0,3.61-.44l-.07-.65a57,57,0,0,1-8.14.44l.13.77c1,0,2.26,0,3.59-.07Zm.43-4.36c2,0,3.26-.85,3.26-2.25s-1.31-2.21-3.26-2.21-3.27.85-3.27,2.21,1.31,2.25,3.27,2.25m0-3.8c1.46,0,2.43.63,2.43,1.55s-1,1.57-2.43,1.57-2.44-.65-2.44-1.57,1-1.55,2.44-1.55m2,6.35v.69h2.9v1.09h.87v-9.06h-.87v7.28ZM701,357.61a3.57,3.57,0,0,0,2-3.2c0-.87-.38-1.43-1-1.43a.82.82,0,0,0-.89.85.81.81,0,0,0,.87.85h.2a2.53,2.53,0,0,1-1.49,2.29Zm-4.24-11.46v-4.78h-.9v11.1h.9v-5.54h2.37v-.78Zm-8.31,5.25h-.9v4.68h10v-.77h-9.06Zm6.14-2.53c-.8.1-1.65.17-2.52.2v-5.44h1.7v-.76h-8.09v.76h1.68v5.63l-2.12,0,.13.8a69.38,69.38,0,0,0,9.29-.53Zm-6.36-5.24h3v5.49l-3,.12Zm-5.1,5.34v-.73H669.53V349h6.35v1.67h-4.65v.69h9.24V353h-9.21v3.25h10.59v-.73h-9.71v-1.82h9.22v-3h-4.57V349Zm-12.51-1.6c2.29-.24,4.83-1.09,5.69-2.73.87,1.64,3.4,2.49,5.7,2.73l.29-.71c-2.47-.22-5.41-1.24-5.51-3.18h4.91v-.73H676.8V341.2h-.9v1.55H671v.73h4.88c-.1,1.94-3,3-5.51,3.18Zm-9.93,10.24a3.55,3.55,0,0,0,2-3.2c0-.87-.37-1.43-1-1.43a.85.85,0,1,0,0,1.7h.21a2.56,2.56,0,0,1-1.5,2.29Zm-4.27-16.27v6.39h-2.22v-6h-.87v13.84h.87v-7.06h2.22v7.92h.89V341.34Zm-7.26,7.29h-.86V352c-1.36.05-2.65.05-3.66.05l.16.8a47,47,0,0,0,7.9-.53l-.07-.68a30.24,30.24,0,0,1-3.47.31Zm3.3-.66a4.6,4.6,0,0,1-3.28-4v-1.36h-.9v1.36a4.93,4.93,0,0,1-3.42,4.42l.48.71a5.8,5.8,0,0,0,3.4-3.52,5.52,5.52,0,0,0,3.25,3.13Zm-19.58,7.34v-4H632v4.75h10v-.77Zm4.38-9.21a3.83,3.83,0,1,0-3.82,3.67,3.59,3.59,0,0,0,3.82-3.67m-6.78,0a3,3,0,1,1,3,2.87,2.84,2.84,0,0,1-3-2.87m11-4.73h-.9v11.14h.9Zm-29,13.94v-4h-.9v4.75h10v-.77Zm4.38-9.21a3.83,3.83,0,1,0-3.82,3.67,3.59,3.59,0,0,0,3.82-3.67m-6.78,0a3,3,0,1,1,3,2.87,2.84,2.84,0,0,1-3-2.87m11-4.73h-.9v11.14h.9Zm-16.52,0v4.14h-3.4v.76h3.4v4.15h.9v-9Zm-9.06,10.71h9.06v4.37h.9V351.3h-10ZM602,349c-2.06-.74-3.81-2.65-3.81-4.72v-1h3.54v-.77h-8v.77h3.6v1a5.85,5.85,0,0,1-3.94,5.08l.47.71a6.64,6.64,0,0,0,3.93-4.06,6.58,6.58,0,0,0,3.77,3.69Zm-13-7.65v3.74h-3.5a3.53,3.53,0,0,0-3.81-3c-2.24,0-3.83,1.37-3.83,3.43s1.59,3.43,3.83,3.43a3.51,3.51,0,0,0,3.81-3.07h3.5v3.57h.9v-8.1Zm-7.31,6.84a2.68,2.68,0,1,1,3-2.67,2.75,2.75,0,0,1-3,2.67m7.31,4.25H581.3v-2.19h-.9v6h9.43v-6h-.9Zm0,3H581.3v-2.27h7.63Zm-15.4-10v-4.15h-.9v9.31h.9v-4.38h2.36v-.78Zm-4.76,5.62c-3,0-4.86.95-4.86,2.65s1.81,2.64,4.86,2.64,4.88-.95,4.88-2.64-1.84-2.65-4.88-2.65m0,4.56c-2.42,0-4-.73-4-1.91s1.56-1.92,4-1.92,4,.73,4,1.92-1.56,1.91-4,1.91m1.75-6.95c-2.06-.77-3.86-2.74-3.86-4.92v-1.71h-.87v1.68a5.94,5.94,0,0,1-3.86,5.35l.48.73a6.76,6.76,0,0,0,3.86-4.18,6.57,6.57,0,0,0,3.76,3.76Z"/><path class="cls-3" d="M278.38,510.84a.87.87,0,0,0,.85-.92.87.87,0,1,0-1.73,0,.87.87,0,0,0,.88.92m-2.68-7.3H273v-6.19h-.9v15.12h.9v-8.16h2.66Zm-12.55,4.29v-8.21h6.09v-.77h-7v9.76h1.14a35.48,35.48,0,0,0,7.24-.55l-.12-.78a35.39,35.39,0,0,1-7.12.55Zm-5.92,4.62h.91v-15.1h-.91Zm-9.36-4.79v-8.83H247v9.63h1.18a35.9,35.9,0,0,0,7.41-.75l-.14-.78a34.47,34.47,0,0,1-7.27.73Zm-17.6-2.5h13.65v-.77H230.27Zm10.95,3.3H233v-2.08h-.89v5.83h10v-5.83h-.88Zm0,3H233v-2.27h8.24Zm1.87-9.11c-2.24-.3-5.52-2-5.52-4v-.81h-.92v.81c0,2.15-3.23,3.71-5.53,4l.36.73c2.12-.35,4.74-1.56,5.63-3.43.9,1.84,3.52,3.08,5.62,3.43Zm-18,4.35h-.87v1a4.8,4.8,0,0,1-2.4,3.75,4.32,4.32,0,0,1-2.36-3.75v-1h-.87v1a4.66,4.66,0,0,1-3.16,3.84l.46.7a5.76,5.76,0,0,0,3.11-3,4.88,4.88,0,0,0,2.84,3.1,5.52,5.52,0,0,0,2.81-3.13,5.38,5.38,0,0,0,3.16,3l.46-.7a4.44,4.44,0,0,1-3.18-3.84Zm-6.26-1.49c2.26,0,3.84-1.4,3.84-3.45s-1.58-3.47-3.84-3.47a3.48,3.48,0,1,0,0,6.92m0-6.16a2.71,2.71,0,1,1-2.94,2.71,2.75,2.75,0,0,1,2.94-2.71m8-1.7H226V506h.9Zm-19,8.67H194.23v.77h6.36v5.64h.9v-5.64h6.39Zm-.82-2.7c-2.26-.37-5.54-2.14-5.54-4.45v-.94h-.93v.94c0,2.38-3.25,4.08-5.56,4.45l.39.75c2.12-.41,4.74-1.72,5.64-3.72.9,2,3.54,3.31,5.63,3.72Zm-29.61,8.16v-2h8.65v-3.35h-9.58v.75h8.7v1.89h-8.65v3.5h10.13v-.75Zm5.42-7.5c-2.1-.76-4-2.7-4-5v-1.16H178V499a6,6,0,0,1-4,5.28l.48.73a6.87,6.87,0,0,0,3.94-4.14,6.76,6.76,0,0,0,4,3.84Zm3.22-6.64h-.9v7.92h.9Zm-13.77,6.41h-2.66v-6.41h-.9v15.09h.9v-7.92h2.66Zm-9.22-6.26h-.9v2.36h-4.11v.77h9v-.77h-4Zm-.42,4.62a3.4,3.4,0,1,0,3.58,3.4,3.37,3.37,0,0,0-3.58-3.4m0,6a2.62,2.62,0,1,1,2.73-2.62,2.61,2.61,0,0,1-2.73,2.62m-15.9-9.23a2.67,2.67,0,1,1-2.94,2.65,2.73,2.73,0,0,1,2.94-2.65m0-.76c-2.22,0-3.81,1.37-3.81,3.41s1.59,3.42,3.81,3.42,3.84-1.38,3.84-3.42-1.58-3.41-3.84-3.41m-.59,11H154v2.36h-7.75Zm-.9-2.85v6h9.53v-6H154v2.1h-7.75v-2.1Zm8.63-.8h.9v-8.1h-.9Zm-13.38-.55H138.2a24.36,24.36,0,0,0,.44-5.22v-1.29h-9.93v.75h9v.54a21.86,21.86,0,0,1-.49,5.22H126.91v.77h6.38v6.8h.9v-6.8h6.37Z"/><path class="cls-3" d="M460.52,471.35v5.38h-3.9v.74h3.9v9h.9V471.35Zm-6.36,1.4h-.9v3a8.43,8.43,0,0,1-4.05,6.7l.58.71a9.15,9.15,0,0,0,3.93-5.41,8.82,8.82,0,0,0,4,5.14l.53-.73a8,8,0,0,1-4.08-6.41Zm-8.79,13.7h.87V471.34h-.87Zm-3-9h-2.33c-.12-2.88-1.34-4.7-3.19-4.7s-3.18,2-3.18,5.12S435,483,436.89,483s3.09-1.84,3.19-4.78h2.33v7.46h.87V471.71h-.87Zm-5.52,4.72c-1.4,0-2.35-1.77-2.35-4.3s.95-4.3,2.35-4.3,2.34,1.79,2.34,4.3-.93,4.3-2.34,4.3m-8.47,5.2a15.89,15.89,0,0,0,0-17.05l-.61.31a16.17,16.17,0,0,1,0,16.42Zm-7.78-.34h.79l5.61-16.4h-.79Zm-13.84-1.73h1v-6.78a3.83,3.83,0,0,1,2.62-1.63c1.34,0,2,.86,2,2.75v5.66h1v-6.78c1-1.09,1.8-1.63,2.62-1.63,1.33,0,2,.86,2,2.75v5.66h1v-5.8c0-2.33-.9-3.5-2.72-3.5-1.05,0-2,.73-3.06,1.84a2.34,2.34,0,0,0-2.5-1.84,4.2,4.2,0,0,0-2.85,1.62h0l-.12-1.38h-.81Zm-6.75-.63c-1.77,0-3.06-1.58-3.06-3.89s1.29-3.91,3.06-3.91,3.08,1.6,3.08,3.91-1.31,3.89-3.08,3.89m0,.85c2.19,0,4.1-1.73,4.1-4.74s-1.91-4.78-4.1-4.78-4.1,1.75-4.1,4.78,1.91,4.74,4.1,4.74m-8.08,0a4.38,4.38,0,0,0,2.89-1.17l-.47-.68a3.64,3.64,0,0,1-2.36,1c-1.91,0-3.17-1.58-3.17-3.89s1.38-3.91,3.18-3.91a3,3,0,0,1,2.08.92l.56-.68A3.85,3.85,0,0,0,392,476c-2.25,0-4.2,1.75-4.2,4.78s1.78,4.74,4.14,4.74m-7.22-.64a.87.87,0,0,0,.85-.92.89.89,0,0,0-.85-.94.88.88,0,0,0-.88.94.86.86,0,0,0,.88.92m-3.88.64a5.08,5.08,0,0,0,1.52-.34l-.24-.76a3.31,3.31,0,0,1-1.11.25c-1.2,0-1.51-.75-1.51-1.89V477h2.6v-.83h-2.6v-2.62h-.83l-.12,2.62-1.45.08V477h1.41v5.65c0,1.68.55,2.8,2.33,2.8m-10,0a4,4,0,0,0,3.06-1.72H374l.08,1.5h.83V476.2h-1v6.63c-1,1.22-1.77,1.77-2.82,1.77-1.4,0-2-.87-2-2.72V476.2h-1V482c0,2.33.85,3.48,2.73,3.48m-6.46-11.41a.8.8,0,1,0,0-1.59.8.8,0,1,0,0,1.59m-.51,11.19h1V476.2h-1Zm-10,0h1v-6.78c1.05-1.09,1.8-1.63,2.85-1.63,1.4,0,2,.86,2,2.75v5.66h1v-5.8c0-2.33-.87-3.5-2.76-3.5a4.44,4.44,0,0,0-3.09,1.63l0-2v-3.87h-1Zm-3.43.22a5,5,0,0,0,1.51-.34l-.24-.76a3.26,3.26,0,0,1-1.1.25c-1.21,0-1.52-.75-1.52-1.89V477h2.61v-.83h-2.61v-2.62h-.83l-.12,2.62-1.44.08V477h1.41v5.65c0,1.68.54,2.8,2.33,2.8m-11.26-5.37c.19-2.07,1.52-3.3,3-3.3s2.58,1.11,2.58,3.3Zm3.22,5.37a5.06,5.06,0,0,0,2.89-.88l-.38-.73a4.08,4.08,0,0,1-2.41.78c-2,0-3.27-1.55-3.32-3.76h6.43a5.27,5.27,0,0,0,.05-.71c0-2.65-1.31-4.22-3.5-4.22s-4,1.84-4,4.78,1.89,4.74,4.22,4.74m-12.07-.22h1v-2.45l2-2.31,2.92,4.76h1.09l-3.43-5.47,2.95-3.59h-1.12l-4.33,5.34h0v-9.79h-1Zm-6.11,0h1v-6.09c.66-1.68,1.63-2.27,2.43-2.27a1.86,1.86,0,0,1,.83.15l.21-.88a1.76,1.76,0,0,0-.92-.21,3.12,3.12,0,0,0-2.57,1.92h0l-.12-1.68h-.82Zm-7.08-.61a1.64,1.64,0,0,1-1.86-1.72c0-1.39,1.23-2.23,4.8-2.63v2.94a4.49,4.49,0,0,1-2.94,1.41m-.21.83a5.18,5.18,0,0,0,3.16-1.38h0l.1,1.16h.83v-5.75c0-2-.76-3.55-2.92-3.55a6.36,6.36,0,0,0-3.44,1.19l.45.72a4.83,4.83,0,0,1,2.85-1c1.72,0,2.11,1.39,2.08,2.74-4,.45-5.78,1.41-5.78,3.41a2.39,2.39,0,0,0,2.63,2.5m-17.37-.22h1v-6.78a3.83,3.83,0,0,1,2.62-1.63c1.34,0,2,.86,2,2.75v5.66h1v-6.78c1-1.09,1.8-1.63,2.62-1.63,1.33,0,2,.86,2,2.75v5.66h1v-5.8c0-2.33-.9-3.5-2.72-3.5-1.05,0-2,.73-3.06,1.84a2.34,2.34,0,0,0-2.5-1.84,4.2,4.2,0,0,0-2.85,1.62h0l-.12-1.38h-.81ZM291.35,487h.8l5.61-16.4H297Zm-6.71,0h.8l5.61-16.4h-.8Zm-2.3-3.31a.87.87,0,0,0,.85-.92.87.87,0,1,0-1.73,0,.87.87,0,0,0,.88.92m0-8.89a.87.87,0,0,0,.85-.92.87.87,0,1,0-1.73,0,.87.87,0,0,0,.88.92m-7.17,9.82a4.14,4.14,0,0,1-2.57-1.1v-5.24a4.58,4.58,0,0,1,2.82-1.44c2,0,2.77,1.58,2.77,3.76,0,2.43-1.25,4-3,4m-3.55,4.7h1V486l0-1.66a4.5,4.5,0,0,0,2.67,1.1c2.13,0,4-1.8,4-4.89,0-2.79-1.23-4.63-3.64-4.63a5.31,5.31,0,0,0-3,1.34h0l-.12-1.1h-.81Zm-3.44-3.83a5,5,0,0,0,1.51-.34l-.23-.76a3.37,3.37,0,0,1-1.11.25c-1.21,0-1.51-.75-1.51-1.89V477h2.6v-.83h-2.6v-2.62H266l-.12,2.62-1.45.08V477h1.41v5.65c0,1.68.55,2.8,2.33,2.8m-5.61,0a5,5,0,0,0,1.51-.34l-.23-.76a3.37,3.37,0,0,1-1.11.25c-1.21,0-1.51-.75-1.51-1.89V477h2.6v-.83h-2.6v-2.62h-.83l-.12,2.62-1.45.08V477h1.41v5.65c0,1.68.55,2.8,2.33,2.8M250,485.26h1v-6.78c1.05-1.09,1.8-1.63,2.85-1.63,1.4,0,2,.86,2,2.75v5.66h1v-5.8c0-2.33-.87-3.5-2.76-3.5a4.44,4.44,0,0,0-3.09,1.63l0-2v-3.87h-1Zm-2.92,2.07.61-.32a16.1,16.1,0,0,1,0-16.42l-.61-.31a15.84,15.84,0,0,0,0,17.05m-18.82-8.67H242v-.76h-13.7Zm7.31.63h-.9v1.53h-5.07v.77h11v-.77h-5.08Zm-.45,3.11c-2.9,0-4.48.67-4.48,2s1.58,2,4.48,2,4.49-.66,4.49-2-1.58-2-4.49-2m0,3.34c-2.26,0-3.58-.48-3.58-1.33s1.32-1.33,3.58-1.33,3.57.46,3.57,1.33-1.32,1.33-3.57,1.33m0-9c3.3,0,5.24-.9,5.24-2.54s-1.94-2.55-5.24-2.55-5.2.91-5.2,2.55,1.92,2.54,5.2,2.54m0-4.37c2.65,0,4.32.68,4.32,1.83s-1.67,1.84-4.32,1.84-4.28-.68-4.28-1.84,1.66-1.83,4.28-1.83m-11.1,14h.9V471.34H224Zm-6-15h-.91v2.41H213v.77h9.15v-.77H218Zm-.43,4.65a3.4,3.4,0,1,0,3.66,3.4,3.4,3.4,0,0,0-3.66-3.4m0,6a2.62,2.62,0,1,1,0-5.23,2.62,2.62,0,1,1,0,5.23m-12.38-1.36h-.9v.6c0,2.24-3.06,3.87-5.35,4.28l.37.72c2.08-.41,4.56-1.65,5.44-3.54.87,1.89,3.33,3.13,5.41,3.54l.37-.72c-2.29-.41-5.34-2-5.34-4.28Zm.72-4.09v3.65h.87v-8.7h-.87v4.28h-2.76a8.73,8.73,0,0,0,.58-3.23h-5.83v.77h4.91a7.84,7.84,0,0,1-.42,2.09l-5.25.37.18.8,4.78-.49a8.86,8.86,0,0,1-4.84,4.18l.47.7a9.74,9.74,0,0,0,5.1-4.42Zm3.76-5.33h-.89v10.36h.89Zm-14.18,6.23h-2.65v-6.23H192v15.08h.91v-8.09h2.65Zm-13.45,4.93h6.75v-9.59h-6.75Zm.88-8.84h5v8.09h-5Zm-22,6.52h13.65v-.76H161Zm2.74,1.52h-.9v4.37h10.34v-.77H163.7Zm4.1-3.91c3.21,0,5.22-1.09,5.22-3s-2-2.94-5.22-2.94-5.22,1.07-5.22,2.94,2,3,5.22,3m0-5.17c2.58,0,4.3.87,4.3,2.21s-1.72,2.21-4.3,2.21-4.3-.85-4.3-2.21,1.71-2.21,4.3-2.21m-14.89,5v-2.87H152v2.87h-6.66v.77H159v-.77ZM148,483.41h9.24v-3.32H147.06v.75h9.28v1.82h-9.25v3.57h10.68v-.75H148Zm2.46-6.85a13.27,13.27,0,0,0,.65-4.27v-.44h-4.53v.76h3.64a12.42,12.42,0,0,1-.64,3.78Zm6.48,0a20.7,20.7,0,0,0,.39-4.21v-.46H152.4v.76h4a18.41,18.41,0,0,1-.41,3.79Zm-15.76.63a19.92,19.92,0,0,0,.36-4.2V472H131.47v.77h9.18V473a19,19,0,0,1-.38,4.2H129.68v.77h13.71v-.77Zm-8.88,6.1h9.34V479.7H131.37v.75h9.36v2.07H131.4v3.69H142v-.75h-9.71Zm-8.56-6.52,1.25-1.57,1.25,1.57.56-.39-1.06-1.7,1.74-.68-.21-.65-1.82.48-.12-1.94h-.68l-.15,1.95-1.82-.49-.2.65,1.73.68-1,1.7Z"/><path class="cls-3" d="M411.22,458.84a.87.87,0,0,0,.85-.92.89.89,0,0,0-.85-.94.88.88,0,0,0-.88.94.86.86,0,0,0,.88.92m-2.69-7.3h-2.65v-6.19H405v15.12h.9v-8.16h2.65ZM396,455.83v-8.21h6.08v-.77h-7v9.76h1.14a35.53,35.53,0,0,0,7.24-.55l-.12-.78a35.39,35.39,0,0,1-7.12.55Zm-5.92,4.62h.9v-15.1h-.9Zm-9.37-4.79v-8.83h-.88v9.63H381a36,36,0,0,0,7.42-.75l-.14-.78a34.56,34.56,0,0,1-7.28.73Zm-3.58-6.33h-2.37v-4h-.9v8.75h.9v-4h2.37Zm-3.27,7.33h-7.51v-1.87h-.9v5.42h9.31v-5.42h-.9Zm0,2.8h-7.51v-2h7.51Zm-2.65-8.16c0-1.61-1.41-2.61-3.55-2.61s-3.57,1-3.57,2.63,1.41,2.62,3.57,2.62,3.55-1,3.55-2.64m-6.27,0c0-1.12,1.09-1.9,2.72-1.9s2.7.78,2.7,1.92-1.09,1.91-2.7,1.91-2.72-.79-2.72-1.93m7.19-4.26h-4v-1.86h-.9V447h-4v.75h8.94Zm-13.43,13.43h.9V445.34h-.9Zm-5.83-7.21a3.47,3.47,0,0,0,3.52-3.43c0-2.06-1.63-3.46-4-3.46s-4,1.4-4,3.46,1.45,3.26,3.54,3.43v2.92c-1.58.05-3.1.05-4.39.05l.15.79a57,57,0,0,0,10-.63l-.08-.7a39,39,0,0,1-4.76.44Zm-3.57-3.43a3.15,3.15,0,1,1,3.11,2.66,2.82,2.82,0,0,1-3.11-2.66m-5.59,10.62h.88v-15.1h-.88Zm-3-9.54h-2.81v.79h2.81v7.92h.87V445.76h-.87ZM336.05,448h3v-.76h-7V448h3.13v1.75a8.16,8.16,0,0,1-3.47,6.86l.6.68a8.31,8.31,0,0,0,3.31-5.14,7.82,7.82,0,0,0,3.23,4.78l.58-.68a7.69,7.69,0,0,1-3.38-6.5Zm-26.66,6h13.7v-.76h-13.7Zm2.77,1.7h-.9v4.37h10.3v-.77h-9.4Zm9.32-5.52h-9.25V445.9h-.9v5h10.15Zm-15.83-4.82v6.12h-2.52v-5.74h-.86v13.92h.86v-7.41h2.52v8.21h.87v-15.1Zm-11.27,10.88H300v-9h-5.63Zm.85-8.29h3.93v7.55h-3.93Zm-5.48,2.21v-4.78h-.9v11.1h.9v-5.54h2.37v-.78Zm-8.31,5.25h-.9v4.68h10v-.77h-9.06Zm6.14-2.53c-.8.1-1.65.17-2.52.2v-5.44h1.7v-.76h-8.09v.76h1.68v5.63l-2.12,0,.13.8a69.38,69.38,0,0,0,9.29-.53Zm-6.36-5.24h3v5.49l-3,.12Zm-6.87-2.28v6.26H271.9v-5.88H271v13.9h.86v-7.22h2.45v8h.89v-15.1ZM266.72,448h3.06v-.76h-7.11V448h3.2v1.63c0,3.15-1.38,5.68-3.49,6.82l.6.7a7.41,7.41,0,0,0,3.35-5,7,7,0,0,0,3.21,4.46l.56-.72a6.9,6.9,0,0,1-3.38-6.29Zm-13,2.5v-5.17h-.9v11.34h.9V451.3h2.37v-.76Zm-8.31,5.24h-.9v4.3h10v-.77H245.4Zm4.76-3.9c0-1.68-1.41-2.77-3.55-2.77S243,450.2,243,451.88s1.43,2.76,3.57,2.76,3.55-1.09,3.55-2.76m-6.27,0c0-1.2,1.1-2,2.72-2s2.7.84,2.7,2-1.09,2-2.7,2-2.72-.85-2.72-2m7.19-4.52h-4v-2h-.9v2h-4v.75h8.94Zm-17.37,6.12v-1.84h4.69v-.73h-9.2V449h8.71v-.73H229.2v-1.77h9.13v-.73h-10v5.83h4.51v1.84h-6.36v.77h13.63v-.77Zm-.45,2.18c-3.28,0-5.13.81-5.13,2.36s1.85,2.38,5.13,2.38,5.14-.82,5.14-2.38-1.85-2.36-5.14-2.36m0,4c-2.63,0-4.23-.6-4.23-1.67s1.6-1.67,4.23-1.67,4.24.63,4.24,1.67-1.6,1.67-4.24,1.67M206,452.87h13.65v-.77H206Zm2.64,4.67h9.21v-3.11H207.75v.73H217v1.69h-9.22v3.38h10.59v-.75h-9.7Zm4.19-6.63c3.29,0,5.22-.93,5.22-2.65s-1.93-2.63-5.22-2.63-5.21.93-5.21,2.63,1.93,2.65,5.21,2.65m0-4.57c2.64,0,4.31.73,4.31,1.92s-1.67,1.94-4.31,1.94-4.3-.73-4.3-1.94,1.67-1.92,4.3-1.92m-22.45,7.14h13.65v-.76H190.41Zm6.81,1.55c-3.19,0-5.13,1-5.13,2.68s1.94,2.69,5.13,2.69,5.14-.95,5.14-2.69-1.94-2.68-5.14-2.68m0,4.64c-2.58,0-4.23-.73-4.23-2s1.65-1.95,4.23-1.95,4.24.73,4.24,1.95-1.65,2-4.24,2m5.21-9.4H193v-3.44h9.27v-.76H192.16v5h10.27Zm-21-4.92v5.78h-4v-4.59h-.89v4.1h-5v-4.1h-.9v9.95h6.75V451.9h4v8.55h.9v-15.1Zm-4.9,10.37h-5v-4.35h5Zm-10.74-10.37v5.38h-3.9v.74h3.9v9h.9V445.35Zm-6.36,1.4h-.9v3a8.43,8.43,0,0,1-4.05,6.7l.58.71a9.15,9.15,0,0,0,3.93-5.41,8.82,8.82,0,0,0,4,5.14l.53-.73a8,8,0,0,1-4.08-6.41Zm-13.84,14.86a3.55,3.55,0,0,0,2-3.2c0-.87-.37-1.43-1-1.43a.82.82,0,0,0-.88.85.81.81,0,0,0,.86.85h.21a2.56,2.56,0,0,1-1.5,2.29ZM141.33,450v-4.71h-.9v11h.9v-5.48h2.36V450Zm-8.31,5.2h-.91v4.85h10v-.77H133Zm5.55-3a33.58,33.58,0,0,1-7,.53h-.22v-5.26h5.73v-.76h-6.63v6.8h1.12a33.88,33.88,0,0,0,7.09-.55Zm-14.85-1.46,1.25-1.57,1.25,1.57.56-.39-1.06-1.7,1.74-.68-.21-.65-1.82.48-.12-1.94h-.68l-.15,1.95-1.82-.49-.2.65,1.73.68-1,1.7Z"/><path class="cls-3" d="M442.52,406.84a.87.87,0,0,0,.85-.92.87.87,0,1,0-1.74,0,.87.87,0,0,0,.89.92m-2.69-7.3h-2.65v-6.19h-.9v15.12h.9v-8.16h2.65Zm-12.55,4.29v-8.21h6.09v-.77h-7v9.76h1.14a35.42,35.42,0,0,0,7.24-.55l-.11-.78a35.49,35.49,0,0,1-7.13.55Zm-5.91,4.62h.9v-15.1h-.9ZM412,403.66v-8.83h-.88v9.63h1.17a35.83,35.83,0,0,0,7.41-.75l-.13-.78a34.63,34.63,0,0,1-7.28.73Zm-17.59-2.5h13.65v-.77H394.41Zm10.94,3.3h-8.24v-2.08h-.88v5.83h10v-5.83h-.89Zm0,3h-8.24v-2.27h8.24Zm1.87-9.11c-2.24-.3-5.52-2-5.52-4v-.81h-.92v.81c0,2.15-3.23,3.71-5.52,4l.35.73c2.13-.35,4.75-1.56,5.63-3.43.9,1.84,3.52,3.08,5.63,3.43Zm-18,4.35h-.86v1a4.8,4.8,0,0,1-2.4,3.75,4.32,4.32,0,0,1-2.36-3.75v-1h-.87v1a4.68,4.68,0,0,1-3.16,3.84l.46.7a5.79,5.79,0,0,0,3.11-3,4.85,4.85,0,0,0,2.84,3.1,5.47,5.47,0,0,0,2.8-3.13,5.38,5.38,0,0,0,3.16,3l.46-.7a4.44,4.44,0,0,1-3.18-3.84ZM383,401.21c2.26,0,3.84-1.4,3.84-3.45s-1.58-3.47-3.84-3.47-3.81,1.39-3.81,3.47,1.58,3.45,3.81,3.45m0-6.16a2.71,2.71,0,1,1-2.94,2.71,2.75,2.75,0,0,1,2.94-2.71m8-1.7h-.9V402h.9ZM372,402H358.37v.77h6.35v5.64h.91v-5.64H372Zm-.81-2.7c-2.26-.37-5.54-2.14-5.54-4.45v-.94h-.94v.94c0,2.38-3.25,4.08-5.56,4.45l.39.75c2.13-.41,4.75-1.72,5.65-3.72.9,2,3.53,3.31,5.62,3.72Zm-29.62,8.16v-2h8.66v-3.35h-9.59v.75h8.7v1.89h-8.65v3.5h10.13v-.75ZM347,400c-2.11-.76-4-2.7-4-5v-1.16h-.88V395a6,6,0,0,1-4,5.28l.47.73a6.88,6.88,0,0,0,3.95-4.14,6.73,6.73,0,0,0,4,3.84Zm3.21-6.64h-.9v7.92h.9Zm-13.77,6.41h-2.65v-6.41h-.9v15.09h.9v-7.92h2.65Zm-9.21-6.26h-.9v2.36h-4.12v.77h9v-.77h-4Zm-.43,4.62a3.4,3.4,0,1,0,3.59,3.4,3.37,3.37,0,0,0-3.59-3.4m0,6a2.62,2.62,0,1,1,2.74-2.62,2.61,2.61,0,0,1-2.74,2.62m-10-3.14v-2.33a2.47,2.47,0,0,0,1.92-2.26c0-1.75-2-2.74-5.24-2.74s-5.2,1-5.2,2.74a2.5,2.5,0,0,0,1.94,2.28V401H306.7v.76h13.64V401Zm-7.6-4.59c0-1.24,1.68-2,4.28-2s4.32.77,4.32,2-1.68,2-4.32,2-4.28-.78-4.28-2m1.92,2.53a11.84,11.84,0,0,0,2.36.22,12.37,12.37,0,0,0,2.43-.22V401h-4.79Zm2.38,4.2c-3.21,0-5.13.93-5.13,2.63s1.92,2.66,5.13,2.66,5.13-1,5.13-2.66-1.92-2.63-5.13-2.63m0,4.56c-2.58,0-4.23-.72-4.23-1.93s1.65-1.92,4.23-1.92,4.23.73,4.23,1.92-1.65,1.93-4.23,1.93m-8.33-8.05h-2.65v-6.3h-.9v15.11h.9v-8h2.65Zm-9.38-4.91h-.87v3a8.34,8.34,0,0,1-4,6.66l.56.73a9.23,9.23,0,0,0,3.93-5.32,8.76,8.76,0,0,0,3.91,5l.56-.7a8,8,0,0,1-4.06-6.37Zm-13.26,13.72h.86V393.34h-.86Zm-3-9h-2.33c-.12-2.88-1.34-4.7-3.2-4.7s-3.17,2-3.17,5.12,1.25,5.12,3.17,5.12,3.1-1.84,3.2-4.78h2.33v7.46h.87V393.71h-.87Zm-5.53,4.72c-1.39,0-2.34-1.77-2.34-4.3s.95-4.3,2.34-4.3,2.35,1.79,2.35,4.3-.94,4.3-2.35,4.3m-19-2.65h13.66v-.76H255Zm6.82,1.55c-3.19,0-5.13,1-5.13,2.68s1.94,2.69,5.13,2.69,5.14-.95,5.14-2.69S265,403,261.84,403m0,4.64c-2.58,0-4.23-.73-4.23-2s1.65-1.95,4.23-1.95,4.23.73,4.23,1.95-1.64,2-4.23,2m5.2-9.4h-9.38v-3.44h9.26v-.76H256.78v5H267Zm-18.78,2.43V400H234.61v.75H241v1.78h-4.66v.73h9.25v1.69h-9.21v3.33H247v-.75h-9.71v-1.89h9.22v-3.11h-4.58V400.7Zm-1.79-6.82h-10v4.51h10Zm-.88,3.76h-8.28v-3h8.28ZM233,397.5h-2.37v-4.15h-.9v9.08h.9v-4.15H233Zm-12,6.58h8.75v4.35h.9v-5.11H221ZM227.6,401a5.37,5.37,0,0,1-3.79-4.74v-1h3.57v-.77h-8v.77h3.59v1a5.71,5.71,0,0,1-3.91,5.05l.47.71a6.61,6.61,0,0,0,3.9-4,6.43,6.43,0,0,0,3.74,3.66Zm-12.41,7.45h.89v-15.1h-.89Zm-3-9.54h-2.81v.79h2.81v7.92H213V393.76h-.86ZM207.54,396h3v-.76h-7V396h3.13v1.75a8.16,8.16,0,0,1-3.47,6.86l.59.68a8.28,8.28,0,0,0,3.32-5.14,7.82,7.82,0,0,0,3.23,4.78l.58-.68a7.7,7.7,0,0,1-3.39-6.5Zm-10.47,3.73h-2.65v-6.4h-.9v15.1h.9v-7.92h2.65Zm-9.35-2.93h3.55v-.76h-3.55v-2.48h-.9v2.48h-3.59v.76h3.61v1.52a7.56,7.56,0,0,1-4,6.42l.52.7a8.38,8.38,0,0,0,3.9-5,7.87,7.87,0,0,0,3.7,4.74l.55-.71a7.23,7.23,0,0,1-3.83-6.12Zm-14.07,10.44h7.46v-.88h-3.86c-.65,0-1.36.05-2,.1,3.3-3.08,5.3-5.68,5.3-8.28a3.24,3.24,0,0,0-3.43-3.55,4.55,4.55,0,0,0-3.49,1.78l.63.6a3.7,3.7,0,0,1,2.76-1.55,2.43,2.43,0,0,1,2.53,2.75c0,2.25-1.67,4.8-5.86,8.42ZM163.56,401v-2.33c1.25-.46,1.93-1.24,1.93-2.26,0-1.75-2-2.74-5.24-2.74s-5.2,1-5.2,2.74a2.49,2.49,0,0,0,1.94,2.28V401h-3.54v.76h13.63V401ZM156,396.4c0-1.24,1.68-2,4.28-2s4.32.77,4.32,2-1.69,2-4.32,2-4.28-.78-4.28-2m1.92,2.53a11.84,11.84,0,0,0,2.36.22,12.44,12.44,0,0,0,2.43-.22V401h-4.79Zm2.38,4.2c-3.22,0-5.14.93-5.14,2.63s1.92,2.66,5.14,2.66,5.13-1,5.13-2.66-1.92-2.63-5.13-2.63m0,4.56c-2.59,0-4.24-.72-4.24-1.93s1.65-1.92,4.24-1.92,4.23.73,4.23,1.92-1.65,1.93-4.23,1.93M149.2,393.35v3.74h-3.5a3.53,3.53,0,0,0-3.81-3c-2.24,0-3.83,1.37-3.83,3.43s1.59,3.43,3.83,3.43a3.51,3.51,0,0,0,3.81-3.07h3.5v3.57h.9v-8.1Zm-7.31,6.84a2.68,2.68,0,1,1,3-2.67,2.75,2.75,0,0,1-3,2.67m7.31,4.25h-7.63v-2.19h-.9v6h9.43v-6h-.9Zm0,3h-7.63v-2.27h7.63Zm-15.4-10v-4.15h-.9v9.31h.9v-4.38h2.36v-.78ZM129,403.11c-3,0-4.86.95-4.86,2.65S126,408.4,129,408.4s4.88-.95,4.88-2.64-1.84-2.65-4.88-2.65m0,4.56c-2.42,0-4-.73-4-1.91s1.56-1.92,4-1.92,4,.73,4,1.92-1.56,1.91-4,1.91m1.75-6.95c-2.06-.77-3.86-2.74-3.86-4.92v-1.71h-.87v1.68a5.94,5.94,0,0,1-3.86,5.35l.48.73a6.76,6.76,0,0,0,3.86-4.18,6.57,6.57,0,0,0,3.76,3.76Z"/><path class="cls-3" d="M464.68,383.61a3.55,3.55,0,0,0,2-3.2c0-.87-.37-1.43-1-1.43a.85.85,0,1,0,0,1.7.68.68,0,0,0,.2,0,2.55,2.55,0,0,1-1.49,2.3Zm-15.87-3.23h13.7v-.77h-13.7Zm12.07-4.68h-9.3v-2.79h8.82v-.75h-8.82v-2.65h9.14v-.76H450.66v7.72h10.22Zm-20.42,0v-2.1h5v-.77H443v-3.93h2.49v-.76h-11v.76H437v3.93h-2.48v.77h5.05v2.1h-6.39v.77h13.65v-.77Zm-2.58-6.8h4.19v3.93h-4.19Zm-2,9.1H435v4.1h10.32v-.77H435.9Zm-6.76-1.26H430v-9.38h-.88Zm0,2.26h-8v-1.66h-.9v4.89H430v-4.89h-.88Zm0,2.48h-8v-1.75h8Zm-8-4.76h.89V374a25.67,25.67,0,0,0,3.6-.44l-.07-.65a57,57,0,0,1-8.14.44l.13.77c1,0,2.27,0,3.59-.07Zm.43-4.37c1.95,0,3.26-.84,3.26-2.24s-1.31-2.21-3.26-2.21-3.27.85-3.27,2.21,1.31,2.24,3.27,2.24m0-3.79c1.46,0,2.43.63,2.43,1.55s-1,1.57-2.43,1.57-2.43-.65-2.43-1.57,1-1.55,2.43-1.55m2,6.35v.69h2.9v1.09h.87v-9.06h-.87v7.28Zm-14.91,8.72a3.57,3.57,0,0,0,2-3.2c0-.87-.38-1.43-1-1.43a.82.82,0,0,0-.89.85.81.81,0,0,0,.87.85.65.65,0,0,0,.2,0,2.53,2.53,0,0,1-1.49,2.3Zm-12.19-2.3v-3.84h-.9v4.61h9.89v-.77Zm5-5.85a6,6,0,0,1-3.82-5.22v-2.05h-.89v2.05a6.21,6.21,0,0,1-3.89,5.51l.49.72a7,7,0,0,0,3.88-4.32,6.9,6.9,0,0,0,3.71,4Zm2.71,3.22h.9V367.37h-.9v2.38H400.9v.77h3.37V373H400.9v.76h3.37Zm-22.65-9.3c1.69,0,2.88,1.8,2.88,4.38s-1.19,4.41-2.88,4.41-2.89-1.82-2.89-4.41,1.19-4.38,2.89-4.38m0-.8c-2.21,0-3.75,2-3.75,5.18s1.54,5.19,3.75,5.19,3.74-2,3.74-5.19-1.54-5.18-3.74-5.18m7,13.87h.9v-15.1h-.9Zm-15.12,0h.87V367.34h-.87Zm-3.13-9h-2.87a13.09,13.09,0,0,0,.7-4.3h-5.73v.77h4.84a11.09,11.09,0,0,1-.47,2.8l-5.1.36.17.82,4.69-.46a9.9,9.9,0,0,1-4.79,5.08l.52.68a10.83,10.83,0,0,0,4.87-5h3.17v7.4h.87V367.76h-.87Zm-13,9h.9V367.35h-.9ZM347.76,378v-4h5.95v-5.11h-6.9v.78h6v3.57h-6v5.56h1.2a46.34,46.34,0,0,0,7.71-.56l-.09-.77a47.67,47.67,0,0,1-7.62.56Zm-17.46-2.89H344v-.75H330.3Zm2.63,4.66h9.22v-3H332v.72h9.24V379h-9.21v3.21h10.59v-.73h-9.71Zm1.19-7.7h-2.48v.73h10.93V372h-2.46v-3.47h2.5v-.73h-11v.73h2.49Zm5.09,0H335v-3.47h4.2Zm-12.65-4.69v6.13H324v-5.76h-.86v13.92H324v-7.39h2.52v8.21h.87V367.34Zm-8.48,1.37c-1.92,0-3.18,2-3.18,5.12s1.26,5.12,3.18,5.12,3.19-2,3.19-5.12-1.26-5.12-3.19-5.12m0,9.42c-1.4,0-2.33-1.75-2.33-4.3s.93-4.3,2.33-4.3,2.34,1.79,2.34,4.3-.93,4.3-2.34,4.3m-12.21,5.48a3.55,3.55,0,0,0,2-3.2c0-.87-.37-1.43-1-1.43a.85.85,0,1,0,0,1.7.75.75,0,0,0,.21,0,2.56,2.56,0,0,1-1.5,2.3ZM294.24,369a2.71,2.71,0,1,1-2.94,2.7,2.75,2.75,0,0,1,2.94-2.7m0-.77a3.49,3.49,0,1,0,0,6.94c2.26,0,3.84-1.39,3.84-3.47s-1.58-3.47-3.84-3.47m7.16,13.25h-7.82v-3.78h7.82Zm-8.7.76h9.58v-5.28H292.7Zm8.68-6.17h.9v-8.69h-.9Zm-15.14,6.41h.86v-15.1h-.86Zm-3.15-8.7h-3.21a11,11,0,0,0,.9-4.41H275v.77h4.87a10.44,10.44,0,0,1-5.42,8.33l.58.68a12,12,0,0,0,4.47-4.63h3.57v7.13H284V367.78h-.87Zm-17.53,9.86a3.55,3.55,0,0,0,2-3.2c0-.87-.37-1.43-1-1.43a.85.85,0,1,0,0,1.7.71.71,0,0,0,.2,0,2.54,2.54,0,0,1-1.5,2.3Zm-15.87-3.32h13.7v-.76h-13.7Zm12.88-5.1c-2.14-.42-5.63-2.7-5.63-5.49v-1.21H256v1.21c0,2.81-3.43,5.05-5.59,5.49l.42.77c2-.53,4.71-2.2,5.65-4.56.93,2.36,3.67,4.05,5.66,4.56Zm-24.12-5.81c1.68,0,2.87,1.8,2.87,4.38s-1.19,4.41-2.87,4.41-2.89-1.82-2.89-4.41,1.19-4.38,2.89-4.38m0-.8c-2.21,0-3.76,2-3.76,5.18s1.55,5.19,3.76,5.19,3.74-2,3.74-5.19-1.55-5.18-3.74-5.18m7,13.87h.9v-15.1h-.9Zm-12.85-9H229.9v-6.12H229v15.1h.9v-8.16h2.65Zm-7.48-.62H220v-4.19h-.9v10.08H226V368.66h-.88Zm0,5.13H220v-4.39h5.07Zm-10.95,4.49h.9V367.35h-.9Zm-9.43-4.64v-8.2h6.13v-.8h-7v9.8H205a38,38,0,0,0,7.39-.57l-.11-.78a37.48,37.48,0,0,1-7.28.55ZM194,383.61a3.57,3.57,0,0,0,2-3.2c0-.87-.38-1.43-1-1.43a.82.82,0,0,0-.89.85.81.81,0,0,0,.87.85.65.65,0,0,0,.2,0,2.53,2.53,0,0,1-1.49,2.3Zm-4.24-12.12v-4.15h-.9v9.31h.9v-4.38h2.37v-.78ZM185,377.11c-3,0-4.86.95-4.86,2.65s1.82,2.64,4.86,2.64,4.88-.95,4.88-2.64-1.83-2.65-4.88-2.65m0,4.56c-2.41,0-4-.73-4-1.91s1.56-1.92,4-1.92,4,.73,4,1.92-1.56,1.91-4,1.91m1.76-6.95c-2.06-.77-3.86-2.74-3.86-4.92v-1.72H182v1.69a5.94,5.94,0,0,1-3.86,5.35l.48.73a6.82,6.82,0,0,0,3.86-4.18,6.58,6.58,0,0,0,3.75,3.76Zm-16.87,2c-3.06,0-4.93,1-4.93,2.84s1.87,2.84,4.93,2.84,5-1,5-2.84-1.89-2.84-5-2.84m0,4.95c-2.45,0-4-.82-4-2.11s1.59-2.11,4-2.11,4.08.84,4.08,2.11-1.6,2.11-4.08,2.11m4-7.7v2.36h.9v-9h-.9v2.31h-4.22a3.87,3.87,0,0,0-3.09-1.36,3.54,3.54,0,1,0,0,7,3.87,3.87,0,0,0,3.09-1.37Zm0-3.57v2.8h-3.76a3.76,3.76,0,0,0,0-2.8Zm-10.27,1.39a3,3,0,1,1,3,2.76,2.79,2.79,0,0,1-3-2.76m-9.93,11.82a3.55,3.55,0,0,0,2-3.2c0-.87-.37-1.43-1-1.43a.85.85,0,1,0,0,1.7.75.75,0,0,0,.21,0,2.56,2.56,0,0,1-1.5,2.3Zm-4.23-11.46v-4.78h-.9v11.1h.9v-5.54h2.36v-.78Zm-8.32,5.25h-.9v4.68h10v-.77h-9.07Zm6.14-2.53c-.8.1-1.65.17-2.51.2v-5.44h1.7v-.76h-8.1v.76H140v5.63l-2.13,0,.14.8a69.24,69.24,0,0,0,9.28-.53Zm-6.36-5.24h3v5.49l-3,.12Zm-7.12,2.52v-4.8h-.9v11.19h.9v-5.61h2.38v-.78Zm-8.3,5.23h-.9v4.7h10v-.77h-9.07Zm-2.63-8.84v.77h5.93c-.24,3-2.82,5.35-6.51,6.58l.39.75c4.22-1.41,7.09-4.31,7.09-8.1Z"/><path class="cls-3" d="M469.48,357.61a3.57,3.57,0,0,0,2-3.2c0-.87-.38-1.43-1-1.43a.82.82,0,0,0-.89.85.81.81,0,0,0,.87.85h.2a2.53,2.53,0,0,1-1.49,2.29Zm-4-2.35h1V342.87h-1Zm-9.9-.85v-5.32H458c2.46,0,3.86.82,3.86,2.55,0,1.92-1.47,2.77-3.86,2.77Zm0-6.14V343.7h2.18c2.19,0,3.33.61,3.33,2.3,0,1.41-1,2.27-3.43,2.27Zm-1,7h3.67c2.79,0,4.63-1.22,4.63-3.62a2.89,2.89,0,0,0-2.65-3v-.08a2.66,2.66,0,0,0,1.9-2.7c0-2.09-1.63-3-4.13-3h-3.42Zm-9.64,2.35a3.55,3.55,0,0,0,2-3.2c0-.87-.37-1.43-1-1.43a.85.85,0,1,0,0,1.7h.2a2.54,2.54,0,0,1-1.5,2.29Zm-4-2.35h1V342.87h-1Zm-6.2.22a4.63,4.63,0,0,0,3.7-1.77l-.58-.64a3.93,3.93,0,0,1-3.07,1.49c-2.6,0-4.22-2.16-4.22-5.54s1.65-5.46,4.27-5.46a3.47,3.47,0,0,1,2.68,1.25l.58-.67a4.28,4.28,0,0,0-3.26-1.49c-3.15,0-5.34,2.44-5.34,6.41s2.18,6.42,5.24,6.42m-11.65-7.72h-2.63v-6.42h-.9v15.11h.9v-7.92h2.63Zm-9,1.5a3.46,3.46,0,0,0,3.45-3.43c0-2.08-1.62-3.46-3.91-3.46s-3.95,1.38-3.95,3.46a3.47,3.47,0,0,0,3.51,3.43v2.91c-1.53.05-3,.06-4.29.06l.17.79a59.85,59.85,0,0,0,9.54-.58l-.07-.68c-1.41.2-2.94.3-4.45.37Zm-3.52-3.43a3.08,3.08,0,1,1,3.06,2.68,2.79,2.79,0,0,1-3.06-2.68m-5.78,10.62h.9v-15.1h-.9Zm-6.24-12.72h3.81V343h-8.43v.78h3.74v2.55a8.29,8.29,0,0,1-4.17,6.5l.56.73a9.31,9.31,0,0,0,4-5.24,8.54,8.54,0,0,0,4.13,4.87l.54-.72c-2-.92-4.23-3.52-4.23-6.14Zm-9.4,12.72h.9v-15.1h-.9Zm-4.54-4.67h-5v-8.13h5Zm-5.88.74h6.76V342.9h-6.76Zm-12.17-9.14c1.68,0,2.87,1.8,2.87,4.38s-1.19,4.41-2.87,4.41-2.89-1.82-2.89-4.41,1.19-4.38,2.89-4.38m0-.8c-2.21,0-3.76,2-3.76,5.18s1.55,5.19,3.76,5.19,3.74-2,3.74-5.19-1.55-5.18-3.74-5.18m6.95,13.87h.9v-15.1h-.9Zm-20.15-5.73h.89v-9.38h-.89Zm0,2.26h-8v-1.66h-.9v4.89h9.79v-4.89h-.89Zm0,2.48h-8v-1.75h8Zm-7.95-4.76h.88V348a25.82,25.82,0,0,0,3.61-.44l-.07-.65a57.17,57.17,0,0,1-8.15.44l.14.77c1,0,2.26,0,3.59-.07Zm.42-4.36c2,0,3.27-.85,3.27-2.25s-1.31-2.21-3.27-2.21-3.26.85-3.26,2.21,1.31,2.25,3.26,2.25m0-3.8c1.46,0,2.43.63,2.43,1.55s-1,1.57-2.43,1.57-2.43-.65-2.43-1.57,1-1.55,2.43-1.55m2,6.35v.69h2.91v1.09h.87v-9.06h-.87v7.28Zm-14.91,8.72a3.55,3.55,0,0,0,2-3.2c0-.87-.37-1.43-1-1.43a.85.85,0,1,0,0,1.7h.2a2.54,2.54,0,0,1-1.5,2.29Zm-4.23-11.46v-4.78h-.9v11.1h.9v-5.54H331v-.78Zm-8.31,5.25h-.9v4.68h10v-.77h-9.06Zm6.13-2.53c-.79.1-1.64.17-2.51.2v-5.44h1.7v-.76h-8.09v.76h1.68v5.63l-2.13,0,.14.8a69.15,69.15,0,0,0,9.28-.53Zm-6.35-5.24h2.95v5.49l-2.95.12ZM315,349v-.73H301.38V349h6.36v1.67h-4.66v.69h9.25V353h-9.21v3.25h10.59v-.73H304v-1.82h9.21v-3h-4.57V349Zm-12.52-1.6c2.3-.24,4.83-1.09,5.7-2.73.87,1.64,3.4,2.49,5.69,2.73l.29-.71c-2.46-.22-5.4-1.24-5.5-3.18h4.91v-.73h-4.93V341.2h-.9v1.55h-4.92v.73h4.88c-.1,1.94-3,3-5.5,3.18Zm-2.63.27h-2.65v-6.29h-.9v15.1h.9v-8h2.65Zm-9.32-3.91h3.56V343h-8.06v.78h3.62v2.54a8.28,8.28,0,0,1-4.13,6.49l.56.75a9.33,9.33,0,0,0,4-5.27,8.82,8.82,0,0,0,3.93,4.9l.53-.74a7.67,7.67,0,0,1-4-6.13Zm-16.69,11.58v-3.86H273v4.63h9.89v-.77Zm5-6.05c-2.05-.75-3.8-2.65-3.8-4.71v-1.09h3.53v-.76h-8v.76h3.6v1.11a5.84,5.84,0,0,1-3.94,5.08l.47.73a6.81,6.81,0,0,0,3.93-4.1,6.58,6.58,0,0,0,3.78,3.71Zm-.79-3.59v.77h3.41v6h.9V341.35h-.9v4.32ZM261.3,357.61a3.57,3.57,0,0,0,2-3.2c0-.87-.38-1.43-1-1.43a.82.82,0,0,0-.89.85.81.81,0,0,0,.87.85h.2A2.53,2.53,0,0,1,261,357Zm-4.24-11.46v-4.78h-.9v11.1h.9v-5.54h2.37v-.78Zm-8.31,5.25h-.9v4.68h10v-.77h-9.06Zm6.14-2.53c-.8.1-1.65.17-2.52.2v-5.44h1.7v-.76H246v.76h1.68v5.63l-2.12,0,.13.8a69.38,69.38,0,0,0,9.29-.53Zm-6.36-5.24h3v5.49l-3,.12Zm-5.1,5.34v-.73H229.8V349h6.35v1.67H231.5v.69h9.24V353h-9.21v3.25h10.59v-.73h-9.71v-1.82h9.22v-3h-4.57V349Zm-12.51-1.6c2.29-.24,4.83-1.09,5.69-2.73.87,1.64,3.4,2.49,5.7,2.73l.29-.71c-2.47-.22-5.41-1.24-5.51-3.18H242v-.73h-4.93V341.2h-.9v1.55h-4.91v.73h4.88c-.1,1.94-3,3-5.51,3.18ZM221,357.61a3.55,3.55,0,0,0,2-3.2c0-.87-.37-1.43-1-1.43a.85.85,0,1,0,0,1.7h.21a2.56,2.56,0,0,1-1.5,2.29Zm-4.27-16.27v6.39H214.5v-6h-.87v13.84h.87v-7.06h2.22v7.92h.89V341.34Zm-7.26,7.29h-.86V352c-1.36.05-2.65.05-3.66.05l.16.8a47,47,0,0,0,7.9-.53l-.07-.68a30.24,30.24,0,0,1-3.47.31Zm3.3-.66a4.6,4.6,0,0,1-3.28-4v-1.36h-.9v1.36a4.93,4.93,0,0,1-3.42,4.42l.48.71a5.8,5.8,0,0,0,3.4-3.52,5.52,5.52,0,0,0,3.25,3.13Zm-19.58,7.34v-4h-.9v4.75h10v-.77Zm4.38-9.21a3.83,3.83,0,1,0-3.82,3.67,3.59,3.59,0,0,0,3.82-3.67m-6.78,0a3,3,0,1,1,3,2.87,2.84,2.84,0,0,1-3-2.87m11-4.73h-.9v11.14h.9Zm-29,13.94v-4h-.9v4.75h10v-.77Zm4.38-9.21a3.83,3.83,0,1,0-3.82,3.67,3.59,3.59,0,0,0,3.82-3.67m-6.78,0a3,3,0,1,1,3,2.87,2.84,2.84,0,0,1-3-2.87m11-4.73h-.9v11.14h.9Zm-16.52,0v4.14h-3.4v.76h3.4v4.15h.9v-9Zm-9.06,10.71h9.06v4.37h.9V351.3h-10Zm6.44-3.06c-2.06-.74-3.81-2.65-3.81-4.72v-1H162v-.77h-8v.77h3.6v1a5.85,5.85,0,0,1-3.94,5.08l.47.71A6.64,6.64,0,0,0,158,346a6.58,6.58,0,0,0,3.77,3.69Zm-13-7.65v3.74h-3.5a3.53,3.53,0,0,0-3.81-3c-2.24,0-3.83,1.37-3.83,3.43s1.59,3.43,3.83,3.43a3.51,3.51,0,0,0,3.81-3.07h3.5v3.57h.9v-8.1Zm-7.31,6.84a2.68,2.68,0,1,1,3-2.67,2.75,2.75,0,0,1-3,2.67m7.31,4.25h-7.63v-2.19h-.9v6h9.43v-6h-.9Zm0,3h-7.63v-2.27h7.63Zm-15.4-10v-4.15h-.9v9.31h.9v-4.38h2.36v-.78ZM129,351.11c-3,0-4.86.95-4.86,2.65S126,356.4,129,356.4s4.88-.95,4.88-2.64-1.84-2.65-4.88-2.65m0,4.56c-2.42,0-4-.73-4-1.91s1.56-1.92,4-1.92,4,.73,4,1.92-1.56,1.91-4,1.91m1.75-6.95c-2.06-.77-3.86-2.74-3.86-4.92v-1.71h-.87v1.68a5.94,5.94,0,0,1-3.86,5.35l.48.73a6.76,6.76,0,0,0,3.86-4.18,6.57,6.57,0,0,0,3.76,3.76Z"/><path class="cls-3" d="M436.72,249.29a16.72,16.72,0,0,0,7.51-5.28,19.64,19.64,0,0,0,3.78-8.36l-1.37-.34a18.29,18.29,0,0,1-3.5,7.88,16.27,16.27,0,0,1-7.1,4.89Zm19.53-1.59-8.43-5.7-.76,1.25,2,1.31c.71.47,1.43,1,2.15,1.46l2.17,1.54,2,1.47Zm-26.56,9.72c2.38,0,4.82,0,7.32-.05l7.5-.15q3.76-.11,7.47-.25t7.16-.38l0,1.48q-3.42.23-7.1.38t-7.41.25l-7.47.15c-2.5,0-4.92.06-7.28.06Zm2.4-44.65a21.87,21.87,0,0,0,6.13-7,27.82,27.82,0,0,0,2.95-9.26l-1.37-.26a33.78,33.78,0,0,1-1,4.75,19.89,19.89,0,0,1-1.69,4,19,19,0,0,1-2.49,3.52,22.05,22.05,0,0,1-3.42,3.11ZM447.67,211l-6.16-6.38-1,1c1,1,2,2,3,3.08s2,2.14,3.07,3.31Zm8,10.26c-1,.08-2.26.15-3.73.23s-3,.13-4.54.17-3.08.06-4.56.08-2.75,0-3.82-.06v1.48q1.56.07,3.78.06c1.49,0,3,0,4.58-.08s3.09-.09,4.56-.15,2.71-.13,3.73-.21Zm-2.85-19.3h-7v1.48h7ZM439,222.73h1.41v-8.06H439Zm13.15-6.16h1.41V194h-1.41Zm-10.78-39.46a6.41,6.41,0,0,0,2.08-1.5,6.75,6.75,0,0,0,1.35-2.22,8.11,8.11,0,0,0,0-5.44,6.75,6.75,0,0,0-1.35-2.22,6.53,6.53,0,0,0-9.55,0,6.73,6.73,0,0,0-1.34,2.22,8.11,8.11,0,0,0,0,5.44,6.73,6.73,0,0,0,1.34,2.22,6.45,6.45,0,0,0,2.09,1.5,6.85,6.85,0,0,0,5.38,0m-.56-11.63a4.8,4.8,0,0,1,1.64,1.2,5.16,5.16,0,0,1,1.05,1.79,6.73,6.73,0,0,1,0,4.4,5.16,5.16,0,0,1-1.05,1.79,4.8,4.8,0,0,1-1.64,1.2,5,5,0,0,1-2.13.43,5.11,5.11,0,0,1-2.14-.43,5,5,0,0,1-1.64-1.2,5.49,5.49,0,0,1-1-1.79,6.9,6.9,0,0,1,0-4.4,5.49,5.49,0,0,1,1-1.79,5,5,0,0,1,1.64-1.2,5.11,5.11,0,0,1,2.14-.43,5,5,0,0,1,2.13.43m11.34,22.21h1.41V156h-1.41Zm-4.56-48.22c-1,.15-2,.3-3.19.44s-2.29.27-3.44.38l-3.44.3c-1.14.09-2.22.15-3.23.17v-7.44h-1.41v8.93c1,0,2.2-.08,3.48-.17s2.59-.18,3.93-.3,2.66-.24,4-.38,2.45-.3,3.49-.45Zm-2.24-7.37q-3,.27-6.29.34l-6.18.12V134q2.85,0,6.18-.13c2.21-.07,4.31-.16,6.29-.29Zm-1.41.76h1.41v-7.64h-1.41Zm1.41-8.28q-3.17.17-6.48.24c-2.22,0-4.31.08-6.29.1l.11,1.48c2,0,4.06-.06,6.26-.11s4.32-.13,6.4-.23Zm14.51,7.79h-6.3l-.73.68.73.8,6.3.07Zm-7.71,17.32h1.41V118h-1.41Z"/><path class="cls-3" d="M480,219.69h1.41v-4H480Zm7.3-17.78c-.87.05-2,.1-3.27.14s-2.69.1-4.13.13l-4.12.1-3.27,0,.12,1.46c.83,0,1.9,0,3.21,0l4.06-.09,4.11-.12c1.33,0,2.42-.08,3.29-.13Zm-2.44-3c-1.36-.43-2.68-.9-4-1.39s-2.57-1-3.91-1.62l-.53,1.56c1.29.56,2.59,1.07,3.91,1.54s2.62.92,3.91,1.35Zm15,10.26h-6.3l-.73.68.73.8,6.3.07Zm-7.71,16.56h1.41V194h-1.41ZM475.52,212a4.55,4.55,0,0,0,1,1.5,5.32,5.32,0,0,0,1.64,1.08,6.08,6.08,0,0,0,4.44,0,5.32,5.32,0,0,0,1.64-1.08,4.37,4.37,0,0,0,1-1.5,4.42,4.42,0,0,0,0-3.35,4.37,4.37,0,0,0-1-1.5,5.32,5.32,0,0,0-1.64-1.08,6.08,6.08,0,0,0-4.44,0,5.32,5.32,0,0,0-1.64,1.08,4.55,4.55,0,0,0-1,1.5,4.54,4.54,0,0,0,0,3.35m1.32-2.8a3.25,3.25,0,0,1,.68-1.06,3.73,3.73,0,0,1,1.16-.8,4.62,4.62,0,0,1,3.38,0,3.73,3.73,0,0,1,1.16.8,3.25,3.25,0,0,1,.68,1.06,2.87,2.87,0,0,1,0,2.25,3.34,3.34,0,0,1-1.84,1.88,4.91,4.91,0,0,1-3.38,0,3.34,3.34,0,0,1-1.84-1.88,2.87,2.87,0,0,1,0-2.25m13.11,8.5c-1.9.33-3.67.6-5.29.81s-3.21.4-4.77.55-3.14.28-4.75.38-3.36.19-5.26.27l.31,1.48c1.87-.08,3.61-.17,5.22-.29s3.19-.26,4.73-.43,3.12-.36,4.71-.58,3.33-.47,5.21-.75Zm-9.83-52.53a5.76,5.76,0,0,0,1.5,1.89,7.26,7.26,0,0,0,2.25,1.22,8.91,8.91,0,0,0,5.47,0,7.2,7.2,0,0,0,2.24-1.22,5.76,5.76,0,0,0,1.5-1.89,5.69,5.69,0,0,0,0-4.88,5.76,5.76,0,0,0-1.5-1.89,7.2,7.2,0,0,0-2.24-1.22,8.72,8.72,0,0,0-5.47,0,7.26,7.26,0,0,0-2.25,1.22,5.76,5.76,0,0,0-1.5,1.89,5.69,5.69,0,0,0,0,4.88m1.29-4.29a4.23,4.23,0,0,1,1.21-1.42,5.86,5.86,0,0,1,1.8-.91,7.72,7.72,0,0,1,4.4,0,5.65,5.65,0,0,1,1.78.91,4.47,4.47,0,0,1,1.21,1.42,4,4,0,0,1,0,3.7A4.47,4.47,0,0,1,490.6,166a5.65,5.65,0,0,1-1.78.91,7.72,7.72,0,0,1-4.4,0,5.86,5.86,0,0,1-1.8-.91,4.23,4.23,0,0,1-1.21-1.42,4.19,4.19,0,0,1,0-3.7m10.74,26.07h1.41V173.14h-1.41Zm-10.3-10.56a26.73,26.73,0,0,1-2.2,4.94,29.87,29.87,0,0,1-3.27,4.64l1.29.79a37.27,37.27,0,0,0,3.25-4.82,28.76,28.76,0,0,0,2.3-5.09Zm11.71-3.84q-3,.16-6.22.27L481,173l-6.29.12q-3.12,0-6,0l.16,1.48,6-.07,6.23-.12q3.17-.08,6.31-.19l6.2-.23Zm-20.75-35.95a22.1,22.1,0,0,0,5.87-6.84,27.68,27.68,0,0,0,2.87-9l-1.37-.27a36.68,36.68,0,0,1-1.05,4.68,20.26,20.26,0,0,1-1.59,3.87,18.62,18.62,0,0,1-2.36,3.37,23.67,23.67,0,0,1-3.28,3.05ZM488,134l-6.58-5.85-.95,1.1c1.07.94,2.12,1.88,3.16,2.83s2.13,2,3.27,3.06Zm4.14,6.57h1.41V118h-1.41Zm3.5,4.64c-1,.08-2.25.15-3.69.23s-2.93.13-4.45.17-3,.06-4.46.08-2.72,0-3.78-.06v1.48c1,0,2.28.07,3.74.06s2.95,0,4.48-.08,3-.09,4.47-.15,2.67-.13,3.69-.21Zm-16.38,1.52h1.4v-8.44h-1.4Zm20.59-17h-6.3l-.73.68.73.8,6.3.07Z"/><path class="cls-3" d="M875.84,249.31a16.68,16.68,0,0,0,7.51-5.28,19.64,19.64,0,0,0,3.78-8.36l-1.37-.34a18.46,18.46,0,0,1-3.49,7.88,16.2,16.2,0,0,1-7.11,4.88Zm19.54-1.6-8.44-5.7-.76,1.26,2,1.31c.71.47,1.42,1,2.14,1.46l2.17,1.54,2,1.46Zm-26.56,9.73c2.38,0,4.81,0,7.31-.05s5-.09,7.51-.16,5-.14,7.46-.24,4.86-.23,7.17-.38l0,1.48q-3.42.23-7.11.38t-7.41.25q-3.72.09-7.47.15c-2.49,0-4.92.05-7.27.05Zm2.39-44.65a22,22,0,0,0,6.14-7,27.92,27.92,0,0,0,2.94-9.25l-1.37-.27a33.21,33.21,0,0,1-1,4.75,20.31,20.31,0,0,1-1.69,4.05,20,20,0,0,1-2.49,3.52,23.56,23.56,0,0,1-3.42,3.11ZM886.79,211l-6.16-6.39-1,1,3,3.08c1,1,2,2.14,3.08,3.3Zm8,10.26c-1,.07-2.26.15-3.73.23s-3,.13-4.54.17-3.07.06-4.56.07-2.75,0-3.82,0v1.48c1,.05,2.3.07,3.79.06s3,0,4.57-.08,3.1-.09,4.56-.15,2.72-.14,3.73-.21Zm-2.85-19.31h-7v1.49h7Zm-13.8,20.83h1.41v-8.06h-1.41Zm13.15-6.16h1.41V194.06h-1.41Zm-10.78-39.46a6.56,6.56,0,0,0,2.09-1.5,6.83,6.83,0,0,0,1.34-2.22,7.95,7.95,0,0,0,0-5.44,6.73,6.73,0,0,0-1.34-2.22,6.56,6.56,0,0,0-2.09-1.5,6.5,6.5,0,0,0-7.46,1.5,6.75,6.75,0,0,0-1.35,2.22,8.11,8.11,0,0,0,0,5.44,6.85,6.85,0,0,0,1.35,2.22,6.66,6.66,0,0,0,7.46,1.5m-.55-11.63a5,5,0,0,1,1.64,1.2,5.38,5.38,0,0,1,1,1.78,6.93,6.93,0,0,1,0,4.41,5.32,5.32,0,0,1-1,1.79,4.9,4.9,0,0,1-3.78,1.63,5,5,0,0,1-2.13-.43,4.94,4.94,0,0,1-1.64-1.2,5.16,5.16,0,0,1-1-1.79,6.76,6.76,0,0,1,0-4.41,5.21,5.21,0,0,1,1-1.78,4.8,4.8,0,0,1,1.64-1.2,5,5,0,0,1,2.13-.44,5.12,5.12,0,0,1,2.14.44m11.33,22.21h1.41V156.06h-1.41Zm-4.56-48.22c-1,.15-2.05.3-3.19.44s-2.29.26-3.44.38l-3.44.3c-1.14.09-2.21.15-3.23.17v-7.45H872v8.93c1,0,2.19-.08,3.47-.16l3.94-.3c1.34-.11,2.66-.24,4-.38s2.46-.3,3.49-.45Zm-2.24-7.37q-3,.27-6.29.34t-6.17.11v1.49c1.9,0,4-.07,6.17-.14s4.31-.15,6.29-.28Zm-1.4.76h1.4v-7.64h-1.4Zm1.4-8.29q-3.15.18-6.48.24c-2.21,0-4.31.08-6.29.11l.12,1.48c2,0,4.06-.06,6.25-.12s4.32-.12,6.4-.22ZM899,132.38h-6.31l-.72.69.72.8,6.31.07Zm-7.72,17.33h1.41V118.06h-1.41Z"/><path class="cls-3" d="M919.11,219.71h1.41v-4h-1.41Zm7.3-17.79q-1.29.08-3.27.15c-1.32.05-2.69.1-4.12.13l-4.13.09c-1.31,0-2.4,0-3.26,0l.11,1.46c.84,0,1.91,0,3.21,0l4.07-.1,4.1-.11c1.33,0,2.43-.08,3.29-.13Zm-2.43-3q-2.06-.65-4-1.38c-1.26-.5-2.57-1-3.91-1.62l-.53,1.56c1.29.56,2.59,1.07,3.91,1.54s2.62.92,3.92,1.35Zm15,10.26h-6.31l-.72.69.72.8,6.31.07Zm-7.72,16.57h1.41V194.06h-1.41ZM914.65,212a4.21,4.21,0,0,0,1,1.51,5.15,5.15,0,0,0,1.63,1.08,6.1,6.1,0,0,0,4.45,0,5.27,5.27,0,0,0,1.63-1.08,4.49,4.49,0,0,0,1-1.51,4.67,4.67,0,0,0,.32-1.67,4.75,4.75,0,0,0-.32-1.67,4.36,4.36,0,0,0-1-1.5,5.27,5.27,0,0,0-1.63-1.08,6.1,6.1,0,0,0-4.45,0,5.15,5.15,0,0,0-1.63,1.08,4.09,4.09,0,0,0-1,1.5,4.55,4.55,0,0,0-.33,1.67,4.48,4.48,0,0,0,.33,1.67M916,209.2a3.15,3.15,0,0,1,.68-1.06,3.85,3.85,0,0,1,1.16-.8,4.62,4.62,0,0,1,3.38,0,3.73,3.73,0,0,1,1.16.8,3.18,3.18,0,0,1,.69,1.06,3.13,3.13,0,0,1,.22,1.12,3.09,3.09,0,0,1-.22,1.12,3.41,3.41,0,0,1-.69,1.09,3.27,3.27,0,0,1-1.16.79,4.76,4.76,0,0,1-3.38,0,3.26,3.26,0,0,1-1.84-1.88,3.11,3.11,0,0,1-.23-1.12,3.16,3.16,0,0,1,.23-1.12m13.11,8.49c-1.9.33-3.66.61-5.28.82s-3.21.4-4.77.55-3.14.28-4.75.38-3.37.19-5.27.27l.31,1.48c1.87-.08,3.61-.18,5.22-.29s3.19-.26,4.73-.43,3.12-.36,4.72-.58,3.33-.47,5.2-.75Zm-9.82-52.52a5.58,5.58,0,0,0,1.5,1.88,6.82,6.82,0,0,0,2.24,1.22,8.72,8.72,0,0,0,5.47,0,6.82,6.82,0,0,0,2.24-1.22,5.58,5.58,0,0,0,1.5-1.88,5.69,5.69,0,0,0,0-4.88,5.52,5.52,0,0,0-1.5-1.89,7,7,0,0,0-2.24-1.22,8.72,8.72,0,0,0-5.47,0,7,7,0,0,0-2.24,1.22,5.52,5.52,0,0,0-1.5,1.89,5.6,5.6,0,0,0,0,4.88m1.29-4.3a4.31,4.31,0,0,1,1.21-1.42,5.74,5.74,0,0,1,1.8-.9,7.47,7.47,0,0,1,4.39,0,5.52,5.52,0,0,1,1.78.9,4.7,4.7,0,0,1,1.21,1.42,3.88,3.88,0,0,1,.46,1.86,3.81,3.81,0,0,1-.46,1.85,4.47,4.47,0,0,1-1.21,1.42,5.75,5.75,0,0,1-1.78.91,7.69,7.69,0,0,1-4.39,0,6,6,0,0,1-1.8-.91,4.12,4.12,0,0,1-1.21-1.42,3.92,3.92,0,0,1-.44-1.85,4,4,0,0,1,.44-1.86M931.27,187h1.41V173.16h-1.41ZM921,176.39a26.08,26.08,0,0,1-2.2,4.94A29.78,29.78,0,0,1,915.5,186l1.29.8a36.28,36.28,0,0,0,3.25-4.82,28.84,28.84,0,0,0,2.3-5.1Zm11.71-3.84q-3,.16-6.21.26l-6.35.19-6.29.12q-3.12,0-6,0l.15,1.48,6-.08c2.06,0,4.13-.06,6.24-.11s4.2-.11,6.3-.19l6.2-.23Zm-20.75-36a22.1,22.1,0,0,0,5.87-6.84,27.76,27.76,0,0,0,2.87-9l-1.37-.27a36.58,36.58,0,0,1-1,4.67,20.11,20.11,0,0,1-1.6,3.88,18.15,18.15,0,0,1-2.35,3.36,24.41,24.41,0,0,1-3.29,3.06Zm15.2-2.58-6.57-5.85-.95,1.1c1.06.94,2.11,1.88,3.15,2.83s2.13,2,3.27,3.06Zm4.14,6.57h1.41V118.06h-1.41Zm3.5,4.64c-1,.07-2.24.15-3.69.23s-2.92.13-4.44.17-3,.06-4.47.07-2.72,0-3.78,0v1.48c1,.05,2.29.07,3.74.06s3,0,4.49-.08,3-.09,4.46-.15,2.67-.14,3.69-.21Zm-16.38,1.52h1.41v-8.44h-1.41Zm20.6-17h-6.31l-.72.69.72.8,6.31.07Z"/><polygon class="cls-3" points="642.27 228.2 642.27 151.87 638.8 151.87 618.09 167.82 619.74 169.78 639.13 154.87 639.13 228.2 642.27 228.2"/><path class="cls-3" d="M689,138.7A74.84,74.84,0,0,0,665.81,123a71.61,71.61,0,0,0-56.23,0,74.08,74.08,0,0,0-38.85,38.85,71.5,71.5,0,0,0,0,56.23,74.08,74.08,0,0,0,38.85,38.85,71.61,71.61,0,0,0,56.23,0,74.08,74.08,0,0,0,38.85-38.85,71.61,71.61,0,0,0,0-56.23A74.84,74.84,0,0,0,689,138.7Zm13.67,78.58A71.38,71.38,0,0,1,665,254.92a69.25,69.25,0,0,1-54.61,0,71.29,71.29,0,0,1-37.64-37.64,69.25,69.25,0,0,1,0-54.61A71.29,71.29,0,0,1,610.39,125,69.25,69.25,0,0,1,665,125h0a71.38,71.38,0,0,1,37.64,37.64,69.37,69.37,0,0,1,0,54.61Z"/><path class="cls-3" d="M223.73,220.73H180.47L207,196.93a79.92,79.92,0,0,0,10.64-11.65,20.21,20.21,0,0,0,4.14-12.13,23.75,23.75,0,0,0-1.42-8.19,18.76,18.76,0,0,0-4.19-6.71,20.06,20.06,0,0,0-6.95-4.56,26.11,26.11,0,0,0-9.78-1.68c-7.34,0-12.83,2.07-16.79,6.34a22.43,22.43,0,0,0-5.88,14.46h3.73c.32-5.38,2-9.64,5-12.69,3.36-3.43,8.09-5.17,14.06-5.17s10.68,1.66,14,5,5.08,7.73,5.08,13.19a18.91,18.91,0,0,1-4.23,12,83.15,83.15,0,0,1-9.65,10l-27.86,25.21v3.88h46.82Z"/><path class="cls-3" d="M265.54,218.09a71.61,71.61,0,0,0,0-56.23A74.08,74.08,0,0,0,226.69,123a71.63,71.63,0,0,0-56.24,0,74.08,74.08,0,0,0-38.85,38.85,71.61,71.61,0,0,0,0,56.23,74.08,74.08,0,0,0,38.85,38.85,71.63,71.63,0,0,0,56.24,0,74.08,74.08,0,0,0,38.85-38.85Zm-39.67,36.83a69.23,69.23,0,0,1-54.6,0,71.35,71.35,0,0,1-37.65-37.64,69.37,69.37,0,0,1,0-54.61A71.35,71.35,0,0,1,171.27,125a69.34,69.34,0,0,1,54.6,0h0a71.35,71.35,0,0,1,37.65,37.64,69.37,69.37,0,0,1,0,54.61,71.35,71.35,0,0,1-37.65,37.64Z"/><rect class="cls-1" x="4" y="40.3" width="939.05" height="520"/><line class="cls-4" y1="0.15" x2="943.31" y2="0.15"/></g></g></svg>