<?xml version="1.0" encoding="utf-8"?>
<!-- Generator: Adobe Illustrator 21.1.0, SVG Export Plug-In . SVG Version: 6.00 Build 0)  -->
<svg version="1.1" id="Layer_1" xmlns="http://www.w3.org/2000/svg" xmlns:xlink="http://www.w3.org/1999/xlink" x="0px" y="0px"
	 viewBox="0 0 943.3 499.9" style="enable-background:new 0 0 943.3 499.9;" xml:space="preserve">
<style type="text/css">
	.st0{clip-path:url(#SVGID_2_);}
	.st1{fill:#231815;}
	.st2{fill:none;stroke:#231815;stroke-width:0.5;}
	.st3{fill:#433F3F;}
	.st4{clip-path:url(#SVGID_4_);}
	.st5{fill:none;stroke:#FFFFFF;}
	.st6{fill:#FFFFFF;}
	.st7{clip-path:url(#SVGID_6_);}
</style>
<title>SAN대지 13</title>
<g>
	<defs>
		<rect id="SVGID_1_" width="943.3" height="460.4"/>
	</defs>
	<clipPath id="SVGID_2_">
		<use xlink:href="#SVGID_1_"  style="overflow:visible;"/>
	</clipPath>
	<g class="st0">
		<path class="st1" d="M696.9,317.6c0.5,1,1.7,1.5,2.7,1.1c1-0.5,1.5-1.7,1.1-2.7c-0.1-0.2-0.2-0.4-0.4-0.6c-0.8-0.8-2-0.9-2.8-0.1
			c-0.2,0.2-0.4,0.5-0.5,0.8C696.7,316.5,696.7,317,696.9,317.6 M699.8,317.7c-0.5,0.5-1.4,0.5-1.9,0c-0.5-0.5-0.5-1.4,0-1.9
			c0.5-0.5,1.4-0.5,1.9,0C700.3,316.3,700.3,317.2,699.8,317.7 M693.6,297.1c-0.9,0.1-1.9,0.1-2.9,0.1c-1,0-2,0-2.9,0v0.8h1.4h1.5
			l1.5,0l1.4-0.1V297.1z M695.1,303.5c-1.1,0.4-2.3,0.7-3.5,0.9c-1.3,0.2-2.6,0.3-3.9,0.2v0.7c1.3,0,2.7-0.1,4-0.3
			c1.2-0.2,2.4-0.5,3.6-0.9L695.1,303.5z M687.7,305.4l0.7-0.2v-7.3h-0.7V305.4z M701.5,301.1h-3.3l-0.4,0.4l0.4,0.4h3.3V301.1z
			 M697.4,309.9h0.7v-16.7h-0.7V309.9z M695.3,283.3c-1.2,0.4-2.4,0.7-3.6,0.9c-1.3,0.2-2.6,0.4-3.9,0.4v0.7c1.3-0.1,2.7-0.2,4-0.5
			c1.3-0.2,2.5-0.5,3.7-0.9L695.3,283.3z M687.8,285.3l0.7-0.2v-8h-0.7V285.3z M697.4,289.9h0.7v-16.6h-0.7V289.9z M698.2,268.3
			h-7.5v0.8h7.5V268.3z M697.4,261.5h0.7v-8.3h-0.7V261.5z M698.2,264.8l-1.7,0.1l-2,0.1h-2h-1.7v0.8h1.7h2l2,0l1.7-0.1L698.2,264.8
			z M698.2,262.5h-0.7v6.1h0.7V262.5z M690.7,268.7l0.7-0.2v-5.6h-0.7V268.7z M687.7,259.4c0.2,0.4,0.4,0.7,0.7,1
			c0.3,0.3,0.6,0.5,1,0.7c0.8,0.3,1.7,0.3,2.5,0c0.4-0.2,0.7-0.4,1-0.7c0.3-0.3,0.5-0.6,0.7-1c0.3-0.8,0.3-1.6,0-2.4
			c-0.2-0.4-0.4-0.7-0.7-1c-0.3-0.3-0.6-0.5-1-0.7c-0.8-0.3-1.7-0.3-2.5,0c-0.4,0.2-0.7,0.4-1,0.7c-0.3,0.3-0.5,0.6-0.7,1
			C687.3,257.8,687.3,258.6,687.7,259.4 M688.4,257.3c0.1-0.3,0.3-0.5,0.5-0.7c0.2-0.2,0.5-0.4,0.8-0.5c0.6-0.3,1.3-0.3,1.9,0
			c0.3,0.1,0.6,0.3,0.8,0.5c0.2,0.2,0.4,0.5,0.5,0.7c0.4,0.9,0.2,1.9-0.5,2.6c-0.2,0.2-0.5,0.4-0.8,0.5c-0.6,0.3-1.3,0.3-1.9,0
			c-0.3-0.1-0.5-0.3-0.8-0.5C688.2,259.2,688,258.1,688.4,257.3 M686.8,245.4c0.7-0.5,1.4-1.1,1.9-1.8c0.5-0.7,1-1.4,1.4-2.2
			c0.4-0.8,0.7-1.7,0.9-2.6c0.2-0.9,0.4-1.8,0.5-2.8l-0.8-0.1c-0.1,0.9-0.2,1.8-0.5,2.7c-0.2,0.8-0.5,1.6-0.8,2.4
			c-0.4,0.7-0.8,1.4-1.3,2.1c-0.5,0.7-1.2,1.2-1.9,1.7L686.8,245.4z M694.6,245.1l-2.9-4.1l-0.6,0.5c0.5,0.6,0.9,1.3,1.4,2
			c0.5,0.7,1,1.4,1.4,2.1L694.6,245.1z M697.6,239.6h-3.9v0.8h3.9V239.6z M697.4,249.9h0.7v-16.6h-0.7V249.9z M690.6,225.6
			c0.3-0.1,0.6-0.3,0.8-0.6c0.2-0.2,0.4-0.5,0.5-0.8c0.3-0.6,0.3-1.4,0-2c-0.1-0.3-0.3-0.6-0.5-0.8c-0.2-0.2-0.5-0.4-0.8-0.6
			c-0.7-0.3-1.4-0.3-2.1,0c-0.3,0.1-0.6,0.3-0.8,0.6c-0.2,0.2-0.4,0.5-0.5,0.8c-0.3,0.6-0.3,1.4,0,2c0.1,0.3,0.3,0.6,0.5,0.8
			c0.2,0.2,0.5,0.4,0.8,0.6C689.1,225.9,689.9,225.9,690.6,225.6 M690.9,222c0.6,0.7,0.6,1.9,0,2.6c-0.8,0.7-2,0.7-2.7,0
			c-0.6-0.7-0.6-1.9,0-2.6C688.9,221.2,690.1,221.2,690.9,222 M691.1,216.9c-0.5-0.2-1.1-0.4-1.6-0.6c-0.5-0.2-1-0.4-1.6-0.7
			l-0.3,0.8c0.5,0.2,1,0.4,1.6,0.6l1.6,0.6L691.1,216.9z M692.6,218.7l-1.5,0.1h-1.8h-1.8h-1.5l0.1,0.8h1.5h1.7h1.7h1.5V218.7z
			 M697.6,220.6h-3v0.8h3V220.6z M694.1,227.9h0.7v-13.4h-0.7V227.9z M697.5,229.9h0.7v-16.6h-0.7V229.9z M688.2,198.8
			c0.2,0.3,0.4,0.7,0.7,0.9c0.3,0.3,0.6,0.5,1,0.6c0.8,0.3,1.7,0.3,2.5,0c0.4-0.1,0.7-0.4,1-0.6c0.3-0.3,0.5-0.6,0.7-0.9
			c0.3-0.7,0.3-1.5,0-2.3c-0.2-0.3-0.4-0.7-0.7-0.9c-0.3-0.3-0.6-0.5-1-0.6c-0.8-0.3-1.7-0.3-2.5,0c-0.4,0.1-0.7,0.4-1,0.6
			c-0.3,0.3-0.5,0.6-0.7,0.9C687.8,197.2,687.8,198,688.2,198.8 M689.3,196.1c1-0.8,2.4-0.8,3.4,0c0.9,0.8,0.9,2.2,0,3.1
			c0,0,0,0,0,0c-1,0.8-2.4,0.8-3.4,0C688.5,198.3,688.4,197,689.3,196.1C689.3,196.1,689.3,196.1,689.3,196.1 M690.7,202.9
			c-0.1,1-0.2,1.9-0.4,2.9c-0.2,1-0.6,2-1.1,2.9l0.7,0.3c0.2-0.5,0.4-0.9,0.6-1.4c0.2-0.5,0.3-1,0.5-1.6c0.1-0.5,0.2-1.1,0.3-1.6
			c0.1-0.5,0.1-1,0.2-1.5H690.7z M697.4,209.9h0.7v-16.6h-0.7V209.9z M696.2,201.9c-1,0.2-1.9,0.3-2.8,0.4c-0.9,0.1-1.7,0.2-2.6,0.3
			c-0.9,0.1-1.7,0.1-2.6,0.2l-2.8,0.1l0.2,0.8c1,0,1.9-0.1,2.8-0.1s1.7-0.1,2.6-0.2l2.6-0.3c0.9-0.1,1.8-0.2,2.7-0.4L696.2,201.9z
			 M693.8,170.9c-1.1,0.1-2.2,0.1-3.3,0.1c-1.1,0-2.2,0.1-3.2,0.1l0.1,0.8l2.9-0.1l2.9-0.1L693.8,170.9z M686.8,180.1
			c0.9-0.4,1.7-1,2.4-1.6c0.8-0.6,1.5-1.4,2.1-2.1c0.3-0.4,0.6-0.8,0.8-1.3c0.3-0.5,0.5-0.9,0.7-1.4c0.2-0.5,0.4-1,0.6-1.4
			c0.2-0.5,0.3-0.9,0.4-1.4l-0.9,0.3c-0.2,0.8-0.4,1.6-0.8,2.4c-0.4,0.9-0.9,1.7-1.5,2.4c-0.6,0.7-1.3,1.4-2,2
			c-0.7,0.6-1.5,1.1-2.3,1.5L686.8,180.1z M697.4,183.9h0.7v-16.6h-0.7V183.9z M687.2,159h0.8v-7.8h-0.7L687.2,159z M692.5,157.6
			c-0.9,0.3-1.8,0.5-2.6,0.6c-0.8,0.2-1.7,0.3-2.7,0.4v0.7c1-0.1,1.9-0.2,2.8-0.4s1.8-0.4,2.7-0.6L692.5,157.6z M697.9,154.4h-3.6
			v0.8h3.6V154.4z M693.9,161.9h0.7v-13.5h-0.7V161.9z M697.5,163.9h0.7v-16.7h-0.7V163.9z M694.5,135.1h3.3v-0.8h-3.3V135.1z
			 M694.8,138.6l-1.7,0.2l-1.8,0.2l-1.8,0.2c-0.6,0-1.1,0.1-1.7,0.1v-4h-0.7v4.8c0.5,0,1.2,0,1.8-0.1l2-0.1l2-0.2l1.8-0.2
			L694.8,138.6z M697.4,143.9h0.7v-16.7h-0.7V143.9z M693.5,134.6c-1.1,0.1-2.1,0.2-3.2,0.2l-3.2,0.1v0.8l3.2-0.1
			c1.1,0,2.2-0.1,3.2-0.1V134.6z M692.8,135h0.7v-4.1h-0.7V135z M693.5,130.6c-1.1,0.1-2.2,0.1-3.3,0.1l-3.2,0.1l0.1,0.8l3.2-0.1
			c1.1,0,2.2,0,3.3-0.1L693.5,130.6z M685.7,121h3.8l3.9-0.1l3.9-0.1l3.7-0.1v-0.8l-3.8,0.2c-1.3,0-2.6,0.1-3.9,0.1l-4,0.1h-3.8
			L685.7,121z M698.7,114.9l-1.9,0.1c-0.7,0-1.5,0.1-2.2,0.1h-2.2c-0.7,0-1.4,0-1.9,0v0.8c0.5,0,1.2,0,1.9,0h2.3l2.2-0.1l1.9-0.1
			V114.9z M698.5,109.6c-0.3,0-0.7,0-1.1,0.1H696h-1.5h-1.5h-2.5v0.8h1.8h2.3h2.3l1.8-0.1L698.5,109.6z M690.4,115.9l0.7-0.2v-5.5
			h-0.7V115.9z M686.5,94.1c0.7-0.5,1.4-1.1,2-1.8c0.6-0.7,1.1-1.4,1.5-2.3c0.4-0.8,0.8-1.7,1-2.6c0.3-0.9,0.4-1.8,0.5-2.7l-0.8,0.3
			c-0.1,0.8-0.2,1.6-0.4,2.4c-0.3,0.8-0.6,1.6-1,2.3c-0.4,0.8-0.9,1.5-1.5,2.1c-0.6,0.6-1.2,1.2-1.9,1.7L686.5,94.1z M691.6,84.8
			c-0.8,0-1.7,0.1-2.6,0.1l-2.5,0.1l0.1,0.8h2.4l2.4-0.1L691.6,84.8z M694.8,88.7h-3.2v0.8h3.2V88.7z M694.3,95.9h0.7V82.4h-0.7
			L694.3,95.9z M697.5,97.9h0.7V81.2h-0.7V97.9z M692.1,74.2c0.7-0.3,1.2-0.9,1.5-1.6c0.3-0.7,0.3-1.4,0-2.1
			c-0.3-0.7-0.8-1.3-1.5-1.6c-0.8-0.3-1.7-0.3-2.6,0c-0.7,0.3-1.2,0.9-1.5,1.6c-0.3,0.7-0.3,1.4,0,2.1c0.3,0.7,0.8,1.3,1.5,1.6
			C690.4,74.5,691.3,74.5,692.1,74.2 M689.9,73.5c-0.3-0.1-0.5-0.3-0.7-0.5c-0.2-0.2-0.3-0.4-0.4-0.7c-0.1-0.2-0.1-0.5-0.1-0.8
			c0-0.3,0-0.5,0.1-0.8c0.1-0.3,0.2-0.5,0.4-0.7c0.2-0.2,0.4-0.4,0.7-0.5c0.6-0.3,1.4-0.3,2,0c0.3,0.1,0.5,0.3,0.7,0.5
			c0.2,0.2,0.3,0.4,0.4,0.7c0.1,0.2,0.1,0.5,0.1,0.8c0,0.3,0,0.5-0.1,0.8c-0.1,0.3-0.2,0.5-0.4,0.7c-0.2,0.2-0.4,0.4-0.7,0.5
			C691.2,73.8,690.5,73.8,689.9,73.5 M701.5,69.1h-3.3l-0.4,0.4l0.4,0.4h3.3V69.1z M694.7,66.3l-1.8,0.1l-2.3,0.1h-2.3h-1.8l0.1,0.8
			h1.1h1.4h1.5h1.6h1.4l1.1-0.1L694.7,66.3z M693,64.1c-0.7-0.2-1.4-0.5-2.1-0.7c-0.7-0.3-1.4-0.5-2.1-0.8l-0.3,0.8
			c0.7,0.3,1.4,0.6,2.1,0.8l2.1,0.7L693,64.1z M697.4,77.9h0.7V61.2h-0.7V77.9z M687.4,51.4c0.8-0.4,1.6-0.9,2.3-1.5
			c0.7-0.6,1.3-1.2,1.8-1.9c0.5-0.7,1-1.4,1.4-2.1c0.4-0.7,0.7-1.5,0.9-2.4l-0.9,0.3c-0.4,1.4-1,2.8-2,3.9c-1.1,1.3-2.4,2.3-3.9,3.1
			L687.4,51.4z M693.8,43.6l-1.6,0.1h-1.5h-1.4h-1.5l0.1,0.8h2.6c0.8,0,1.7,0,2.7-0.1L693.8,43.6z M692.2,55.5
			c0.2,0.4,0.4,0.7,0.7,1c0.3,0.3,0.6,0.5,1,0.7c0.8,0.3,1.7,0.3,2.5,0c0.4-0.2,0.7-0.4,1-0.7c0.3-0.3,0.5-0.6,0.7-1
			c0.3-0.8,0.3-1.6,0-2.4c-0.2-0.4-0.4-0.7-0.7-1c-0.3-0.3-0.6-0.5-1-0.7c-0.8-0.3-1.7-0.3-2.5,0c-0.4,0.2-0.7,0.4-1,0.7
			c-0.3,0.3-0.5,0.6-0.7,1C691.9,53.9,691.9,54.8,692.2,55.5 M692.9,53.4c0.1-0.3,0.3-0.5,0.5-0.7c0.2-0.2,0.5-0.4,0.8-0.5
			c0.6-0.3,1.4-0.3,2,0c0.3,0.1,0.5,0.3,0.8,0.5c0.2,0.2,0.4,0.5,0.5,0.7c0.2,0.6,0.2,1.2,0,1.8c-0.1,0.3-0.3,0.5-0.5,0.7
			c-0.2,0.2-0.5,0.4-0.8,0.5c-0.6,0.3-1.4,0.3-2,0c-0.3-0.1-0.5-0.3-0.8-0.5c-0.2-0.2-0.4-0.5-0.5-0.7
			C692.6,54.6,692.6,54,692.9,53.4 M701.5,46.2h-3.3l-0.4,0.4l0.4,0.4h3.3V46.2z M697.5,50.3h0.7v-9.1h-0.7V50.3z"/>
		<path class="st1" d="M721.8,385c0.4-0.2,0.8-0.5,1.1-0.8c0.3-0.3,0.6-0.7,0.7-1.2c0.3-0.9,0.3-1.9,0-2.9c-0.2-0.4-0.4-0.8-0.7-1.2
			c-1.3-1.4-3.5-1.4-4.8-0.2c-0.1,0-0.1,0.1-0.2,0.2c-0.3,0.3-0.6,0.7-0.7,1.2c-0.3,0.9-0.3,1.9,0,2.9c0.2,0.4,0.4,0.8,0.7,1.2
			C718.9,385.3,720.4,385.6,721.8,385 M721.5,378.9c0.3,0.1,0.6,0.4,0.9,0.6c0.2,0.3,0.4,0.6,0.5,0.9c0.3,0.8,0.3,1.6,0,2.3
			c-0.1,0.3-0.3,0.7-0.5,0.9c-0.2,0.3-0.5,0.5-0.9,0.6c-0.7,0.3-1.5,0.3-2.3,0c-0.3-0.1-0.6-0.4-0.9-0.6c-0.2-0.3-0.4-0.6-0.5-0.9
			c-0.3-0.8-0.3-1.6,0-2.3c0.1-0.3,0.3-0.7,0.5-0.9c0.2-0.3,0.5-0.5,0.9-0.6C720,378.6,720.8,378.6,721.5,378.9 M727.5,390.6h0.7
			V374h-0.7V390.6z M716.9,363.8c1.3-1,2.4-2.3,3.2-3.7c0.8-1.5,1.3-3.2,1.5-4.9l-0.7-0.1c-0.1,0.8-0.3,1.7-0.5,2.5
			c-0.2,0.7-0.5,1.5-0.9,2.1c-0.4,0.7-0.8,1.3-1.3,1.9c-0.5,0.6-1.1,1.2-1.8,1.6L716.9,363.8z M725.1,362.8l-3.2-3.4l-0.5,0.5
			l1.6,1.6c0.5,0.5,1.1,1.1,1.6,1.7L725.1,362.8z M729.3,368.2l-2,0.1c-0.8,0-1.6,0.1-2.4,0.1h-2.4c-0.8,0-1.4,0-2,0v0.8
			c0.5,0,1.2,0,2,0h2.4l2.4-0.1c0.8,0,1.4,0,2-0.1L729.3,368.2z M727.8,358h-3.7v0.8h3.7V358z M720.6,369h0.7v-4.2h-0.7V369z
			 M727.5,365.8h0.7V354h-0.7V365.8z M715.2,343.6c1.2,0,2.5,0,3.9,0l4.1-0.1l4.1-0.1c1.3,0,2.6-0.1,3.8-0.1v-0.8l-3.8,0.1
			c-1.3,0-2.7,0.1-4.1,0.1l-4.1,0.1c-1.4,0-2.7,0-3.9,0L715.2,343.6z M720.6,349.2l0.7-0.2v-3.7h-0.7V349.2z M728.2,345.1l-1.7,0.1
			h-2.1h-2.1h-1.7l0.1,0.8h1.7h2h2l1.7-0.1L728.2,345.1z M727.5,349.4h0.7v-3.8h-0.7V349.4z M728.2,349h-7.6v0.8h7.6V349z
			 M728.7,339.9l-1.9,0.1c-0.7,0-1.5,0.1-2.2,0.1h-2.2c-0.7,0-1.4,0-1.9,0v0.8c0.5,0,1.2,0,1.9,0h2.2l2.2-0.1l1.9-0.1V339.9z
			 M720.5,340.5h0.7v-2.8h-0.7V340.5z M728.3,337c-0.5,0-1.1,0.1-1.8,0.1l-2.1,0.1h-2.1h-1.8v0.8h1.8h2.1l2.1-0.1l1.8-0.1L728.3,337
			z M727.6,337.4h0.7v-2.8h-0.7V337.4z M728.3,334.2l-1.9,0.1l-2.2,0.1l-2.2,0.1h-1.8l0.1,0.8h1.8h2.1l2.2-0.1l1.9-0.1L728.3,334.2z
			 M715.8,328.4h3.8l3.9-0.1l3.9-0.1l3.7-0.1v-0.8l-3.8,0.1l-3.9,0.1l-4,0.1h-3.8L715.8,328.4z M725.5,325c0.4-0.1,0.7-0.4,1-0.6
			c0.3-0.3,0.5-0.6,0.7-0.9c0.3-0.7,0.3-1.5,0-2.2c-0.2-0.3-0.4-0.6-0.7-0.9c-0.3-0.3-0.6-0.5-1-0.6c-0.8-0.3-1.7-0.3-2.5,0
			c-0.4,0.1-0.7,0.4-1,0.6c-0.3,0.3-0.5,0.6-0.7,0.9c-0.3,0.7-0.3,1.5,0,2.2c0.2,0.3,0.4,0.6,0.7,0.9c0.3,0.3,0.6,0.5,1,0.6
			C723.8,325.3,724.7,325.3,725.5,325 M725.2,320.5c0.3,0.1,0.5,0.2,0.8,0.4c0.2,0.2,0.4,0.4,0.5,0.7c0.3,0.5,0.3,1.2,0,1.7
			c-0.1,0.3-0.3,0.5-0.5,0.7c-0.2,0.2-0.5,0.3-0.8,0.4c-0.6,0.2-1.3,0.2-1.9,0c-0.3-0.1-0.5-0.2-0.8-0.4c-0.2-0.2-0.4-0.4-0.5-0.7
			c-0.3-0.5-0.3-1.2,0-1.7c0.1-0.3,0.3-0.5,0.5-0.7c0.2-0.2,0.5-0.3,0.8-0.4C723.9,320.3,724.6,320.3,725.2,320.5 M726.6,315.2
			c-0.7-0.1-1.5-0.2-2.3-0.4c-0.8-0.1-1.5-0.3-2.3-0.5l-0.1,0.9c0.7,0.2,1.5,0.3,2.3,0.4c0.8,0.1,1.5,0.2,2.2,0.3L726.6,315.2z
			 M728.7,317.4l-1.3,0.1h-1.6l-1.8,0.1h-1.8h-1.6h-1.3l0.1,0.8h1.3h1.6h1.8l1.8,0h1.6l1.3,0L728.7,317.4z M717.5,304
			c1.6-0.8,3-2,4.1-3.3c1.1-1.3,1.9-2.8,2.3-4.5l-0.9,0.3c-0.3,1.4-1,2.8-2,3.9c-1.1,1.3-2.5,2.3-3.9,3.1L717.5,304z M723.9,296.2
			l-1.6,0.1h-1.5h-1.4h-1.5l0.1,0.8h2.6c0.8,0,1.7,0,2.7-0.1L723.9,296.2z M731.6,299.2h-3.3l-0.4,0.4l0.4,0.4h3.3V299.2z
			 M727.5,303.4h0.7V294h-0.7V303.4z M728.2,304.7l-1.9,0.1l-2.3,0.1l-2.3,0.1h-1.9l0.1,0.8h1.9l2.3,0l2.3-0.1l1.9-0.1V304.7z
			 M727.5,310.1h0.7v-4.9h-0.7V310.1z M724.9,285.4l-3.3-4l-0.6,0.5c0.5,0.6,1.1,1.2,1.6,1.9s1.1,1.4,1.6,2.1L724.9,285.4z
			 M716.7,286.1c1.4-1,2.6-2.4,3.4-4c0.8-1.7,1.3-3.5,1.5-5.3l-0.8-0.1c-0.1,1.7-0.6,3.4-1.3,5c-0.8,1.5-1.9,2.8-3.2,3.7
			L716.7,286.1z M727.5,290.6h0.7V274h-0.7V290.6z M715.2,257.5h3.9l4.1-0.1l4.1-0.1l3.8-0.1v-0.8l-3.8,0.1c-1.3,0-2.7,0.1-4.1,0.1
			l-4.1,0.1h-3.9L715.2,257.5z M728.4,248.7l-1.9,0.1l-2.2,0.1h-2.2L720,249l0.1,0.8h1.9l2.2-0.1l2.2-0.1l1.9-0.1L728.4,248.7z
			 M729.4,253.7l-4.5-2l-0.3,0.7l2.2,1l2.3,1L729.4,253.7z M719.5,254.5c0.7-0.2,1.4-0.5,2-0.8c0.6-0.3,1.1-0.7,1.5-1.1
			c0.4-0.4,0.7-0.8,1-1.3c0.3-0.6,0.6-1.2,0.8-1.8l-0.7-0.2c-0.3,1.1-0.9,2.2-1.7,3c-0.9,0.8-2,1.4-3.2,1.8L719.5,254.5z
			 M728.2,259.8l-1.9,0.1l-2.3,0.1l-2.3,0.1h-1.9l0.1,0.8h1.9h2.3l2.3-0.1l1.9-0.1V259.8z M727.5,264.2h0.7v-3.9h-0.7V264.2z
			 M727.3,235.3l0.9,0.7c0.3,0.3,0.6,0.5,0.9,0.8l0.9,0.9c0.3,0.3,0.6,0.6,0.8,0.8l0.8-0.8l-0.8-0.8l-1-0.8l-1-0.8
			c-0.3-0.3-0.6-0.5-0.9-0.7L727.3,235.3z M715.2,221.3h3.9l4.1-0.1l4.1-0.1c1.3,0,2.6-0.1,3.8-0.1v-0.8l-3.8,0.1
			c-1.3,0-2.7,0.1-4.1,0.1l-4.1,0.1h-3.9L715.2,221.3z M728.7,217l-1.9,0.1c-0.7,0-1.4,0.1-2.2,0.1h-2.2c-0.7,0-1.3,0-1.9,0v0.8
			c0.5,0,1.2,0,1.9,0h2.2l2.2-0.1l1.9-0.1V217z M728.3,213.3l-1.7,0.1l-2.1,0.1h-2.1h-1.7v0.8h1.7h2.1h2.1l1.7-0.1L728.3,213.3z
			 M720.6,218l0.7-0.2v-3.6h-0.7V218z M725.5,224.3c0.3,0.1,0.6,0.2,0.9,0.4c0.2,0.2,0.4,0.4,0.6,0.7c0.3,0.5,0.3,1.2,0,1.7
			c-0.1,0.3-0.3,0.5-0.6,0.7c-0.3,0.2-0.5,0.3-0.9,0.4c-0.7,0.2-1.4,0.2-2.1,0c-0.3-0.1-0.6-0.2-0.8-0.4c-0.2-0.2-0.4-0.4-0.6-0.7
			c-0.3-0.5-0.3-1.2,0-1.7c0.1-0.3,0.3-0.5,0.6-0.7c0.3-0.2,0.5-0.3,0.8-0.4C724.1,224.1,724.8,224.1,725.5,224.3 M725.8,228.9
			c0.4-0.1,0.8-0.3,1.1-0.6c0.3-0.2,0.6-0.6,0.7-0.9c0.3-0.7,0.3-1.6,0-2.3c-0.2-0.3-0.4-0.7-0.7-0.9c-0.3-0.3-0.7-0.5-1.1-0.6
			c-0.9-0.3-1.8-0.3-2.7,0c-0.4,0.1-0.8,0.3-1.1,0.6c-0.3,0.2-0.6,0.6-0.7,0.9c-0.3,0.7-0.3,1.6,0,2.3c0.2,0.3,0.4,0.7,0.7,0.9
			c0.3,0.3,0.7,0.5,1.1,0.6C724,229.2,724.9,229.2,725.8,228.9 M724.1,223.6h0.7V221h-0.7V223.6z M723.9,196.8
			c-1.1,0.1-2.2,0.1-3.3,0.1c-1.1,0-2.2,0.1-3.2,0.1l0.1,0.8l2.9-0.1l2.9-0.1L723.9,196.8z M716.9,206c0.9-0.4,1.7-1,2.4-1.6
			c0.8-0.6,1.5-1.4,2.1-2.1c0.3-0.4,0.6-0.8,0.8-1.3c0.3-0.5,0.5-0.9,0.7-1.4c0.2-0.5,0.4-1,0.6-1.4c0.2-0.5,0.3-0.9,0.4-1.4
			l-0.9,0.3c-0.2,0.8-0.4,1.6-0.8,2.4c-0.4,0.9-0.9,1.7-1.5,2.4c-0.6,0.7-1.3,1.4-2,2c-0.7,0.6-1.5,1.1-2.3,1.5L716.9,206z
			 M727.5,209.8h0.7v-16.5h-0.7V209.8z M715.7,187.1h3.8l3.9-0.1l3.9-0.1l3.7-0.1V186l-3.8,0.1c-1.3,0-2.6,0.1-3.9,0.1l-4,0.1h-3.8
			L715.7,187.1z M724.1,186.5h0.7v-3.1h-0.7V186.5z M728.7,181.8l-1.9,0.1c-0.7,0-1.5,0.1-2.3,0.1h-2.3c-0.7,0-1.4,0-2,0v1
			c0.5,0,1.2,0,1.9,0h2.3l2.3-0.1l1.9-0.1L728.7,181.8z M720.3,182.4h0.7v-3.3h-0.7L720.3,182.4z M728.3,178.5
			c-0.5,0-1.2,0.1-1.9,0.1l-2.2,0.1h-2.2h-1.8v0.8h1.8l2.2-0.1l2.2-0.1l1.9-0.1L728.3,178.5z M727.6,178.9h0.7v-3.3h-0.7V178.9z
			 M728.3,175.3l-1.9,0.1l-2.2,0.1l-2.2,0.1h-1.9l0.1,0.8h1.8l2.2-0.1l2.2-0.1l1.9-0.1L728.3,175.3z M716.1,165.3
			c0.6-0.5,1.2-1.2,1.7-1.8c0.5-0.7,0.8-1.4,1.1-2.1c0.3-0.8,0.5-1.5,0.7-2.3c0.2-0.9,0.3-1.7,0.3-2.6h-0.8c0,1.6-0.3,3.1-0.9,4.6
			c-0.6,1.4-1.5,2.7-2.7,3.7L716.1,165.3z M722.8,164.6l-2.6-3.5l-0.6,0.5l1.3,1.7c0.4,0.6,0.9,1.2,1.3,1.8L722.8,164.6z M725,159.5
			h-3.2v0.8h3.1L725,159.5z M724.5,167.8h0.7v-13.3h-0.7V167.8z M727.5,169.8h0.7v-16.5h-0.7V169.8z M723.5,130.8
			c-0.5,0-1,0.1-1.4,0.1h-1.5l0.1,0.8h1.4h0.7h0.7L723.5,130.8z M723.9,137.9c-0.3,0.1-0.6,0.2-0.9,0.3c-0.3,0.1-0.5,0.1-0.8,0.1
			c-0.3,0-0.5,0.1-0.8,0.1h-0.9v0.7h0.9c0.3,0,0.6,0,0.8-0.1s0.6-0.1,0.8-0.1l1-0.2L723.9,137.9z M720.6,139.1l0.7-0.2v-7.7
			l-0.7-0.4V139.1z M719.9,137.8c-0.3,0.1-0.6,0.2-0.8,0.3c-0.2,0.1-0.4,0.2-0.7,0.2c-0.2,0.1-0.5,0.1-0.7,0.1c-0.2,0-0.5,0-0.8,0
			v0.7c0.3,0,0.6,0,0.9,0c0.3,0,0.5-0.1,0.8-0.1c0.3-0.1,0.5-0.1,0.8-0.2c0.3-0.1,0.6-0.2,0.9-0.3L719.9,137.8z M716.9,139.2
			l0.7-0.2v-7.8l-0.7-0.4V139.2z M719.7,130.8H719h-0.6h-1.4l0.1,0.8h1.4h0.6h0.7V130.8z M728,134.3h-3v0.8h2.9L728,134.3z
			 M724.5,141.8h0.7v-13.4h-0.7V141.8z M727.6,143.8h0.7v-16.6h-0.7V143.8z M715.3,109h3.9l4.1-0.1l4.1-0.1l3.8-0.1v-0.8l-3.8,0.2
			c-1.3,0-2.7,0.1-4.1,0.1l-4.1,0.1h-3.9L715.3,109z M729.4,116l-2,0.1c-0.8,0-1.6,0.1-2.4,0.1h-2.4c-0.8,0-1.5,0-2,0v0.8
			c0.5,0,1.2,0,2,0h2.4l2.4-0.1c0.8,0,1.4-0.1,2-0.1L729.4,116z M720.6,116.6h0.7V114h-0.7V116.6z M728.3,113.3
			c-0.5,0-1.1,0.1-1.8,0.1l-2.1,0.1h-2.1h-1.8v0.8h1.7h2.1l2.1-0.1l1.8-0.1V113.3z M727.5,113.7h0.7V111h-0.7V113.7z M728.3,110.6
			l-1.9,0.1l-2.2,0.1l-2.1,0.1h-1.8l0.1,0.8h1.8h2.1l2.1-0.1l1.9-0.1V110.6z M727.9,102.7c-0.2-0.3-0.5-0.6-0.8-0.9
			c-0.3-0.2-0.7-0.4-1.2-0.6c-0.9-0.3-1.9-0.3-2.8,0c-0.4,0.1-0.8,0.3-1.2,0.6c-0.3,0.2-0.6,0.5-0.8,0.9c-0.4,0.7-0.4,1.5,0,2.3
			c0.2,0.3,0.5,0.6,0.8,0.9c0.3,0.3,0.7,0.4,1.2,0.6c0.9,0.3,1.9,0.3,2.8,0c0.4-0.1,0.8-0.3,1.2-0.6c0.3-0.2,0.6-0.5,0.8-0.9
			C728.3,104.2,728.3,103.4,727.9,102.7 M721.9,102.9c0.2-0.3,0.4-0.5,0.6-0.6c0.3-0.2,0.6-0.3,0.9-0.4c0.8-0.2,1.5-0.2,2.3,0
			c0.3,0.1,0.6,0.2,0.9,0.4c0.2,0.2,0.5,0.4,0.6,0.6c0.3,0.5,0.3,1.2,0,1.7c-0.2,0.3-0.4,0.5-0.6,0.6c-0.3,0.2-0.6,0.3-0.9,0.4
			c-0.8,0.2-1.5,0.2-2.3,0c-0.3-0.1-0.6-0.2-0.9-0.4c-0.2-0.2-0.5-0.4-0.6-0.6C721.6,104.1,721.6,103.5,721.9,102.9 M721.4,82.8
			c-0.5-0.1-1.1-0.3-1.6-0.5c-0.5-0.2-1.1-0.4-1.6-0.6l-0.2,0.8c0.5,0.2,1.1,0.4,1.6,0.5c0.5,0.2,1.1,0.3,1.6,0.5L721.4,82.8z
			 M720.7,90.8c0.3-0.1,0.6-0.3,0.8-0.5c0.2-0.2,0.4-0.5,0.5-0.8c0.3-0.6,0.3-1.2,0-1.8c-0.1-0.3-0.3-0.5-0.5-0.8
			c-0.2-0.2-0.5-0.4-0.8-0.5c-0.7-0.3-1.4-0.3-2.1,0c-0.3,0.1-0.6,0.3-0.8,0.5c-0.2,0.2-0.4,0.5-0.5,0.8c-0.3,0.6-0.3,1.2,0,1.8
			c0.1,0.3,0.3,0.5,0.5,0.8c0.2,0.2,0.5,0.4,0.8,0.5C719.3,91,720,91,720.7,90.8 M721,87.4c0.6,0.6,0.7,1.7,0,2.3c0,0,0,0,0,0
			c-0.8,0.7-1.9,0.7-2.7,0c-0.6-0.6-0.7-1.7,0-2.3c0,0,0,0,0,0C719.1,86.7,720.2,86.7,721,87.4 M722.6,84.3l-1.5,0.1h-1.8h-1.8h-1.5
			l0.1,0.8h1.5h1.7h1.7h1.5V84.3z M724.3,90.3h0.7v-8h-0.7V90.3z M728,86.1h-3.2V87h3.2V86.1z M727.6,90.8h0.7v-9.5h-0.7V90.8z
			 M724.5,95l-2-1.4l-0.4,0.6l1.9,1.3L724.5,95z M718,96.9c1.1-0.4,2.1-1.1,2.8-1.9c0.7-0.9,1.2-1.9,1.4-3l-0.8-0.2
			c-0.1,0.5-0.3,1.1-0.5,1.6c-0.2,0.4-0.4,0.8-0.7,1.2c-0.3,0.4-0.7,0.7-1.1,1c-0.5,0.3-1,0.6-1.5,0.8L718,96.9z M730.3,96.6
			l-3.2-2.3l-0.4,0.6l0.8,0.6l0.7,0.5l0.7,0.5l0.9,0.6L730.3,96.6z M723.3,97.3c1.1-0.5,2-1.2,2.7-2.2c0.6-0.9,1.1-2,1.3-3.1
			l-0.8-0.2c-0.1,0.5-0.2,1.1-0.4,1.6c-0.2,0.5-0.4,0.9-0.7,1.3c-0.3,0.4-0.6,0.8-1,1.1c-0.4,0.4-0.9,0.6-1.5,0.9L723.3,97.3z
			 M723,69.6l0.3-4.5h-0.8l-0.2,4.4L723,69.6z M719.5,69.9l-0.3-4.5l-0.8,0.1l0.4,4.5L719.5,69.9z M725.5,69c-1.5,0.2-3,0.4-4.5,0.5
			c-1.5,0.1-3.1,0.2-4.8,0.2l0.1,0.8c1.6-0.1,3.2-0.1,4.7-0.3c1.5-0.1,3-0.3,4.5-0.5L725.5,69z M724.4,63.3l-1.7,0.1l-2,0.1l-2,0.1
			h-1.7l0.1,0.8h1.7l2-0.1l2-0.1l1.7-0.1L724.4,63.3z M731.4,67h-3.3l-0.4,0.4l0.4,0.4h3.3V67z M727.4,73.1h0.7V61.2h-0.7V73.1z
			 M729.2,75.5l-1.9,0.1c-0.8,0-1.5,0.1-2.3,0.1h-2.3c-0.8,0-1.4,0-2,0v0.8c0.5,0,1.2,0,2,0h2.3l2.3-0.1l1.9-0.1L729.2,75.5z
			 M720.6,76.3h0.7v-3.9h-0.7V76.3z M715.6,55.2h3.8l3.9-0.1l3.9-0.1l3.7-0.1v-0.8l-3.8,0.2c-1.3,0-2.6,0.1-3.9,0.1l-4,0.1h-3.8
			L715.6,55.2z M728.2,43.6l-2,0.1l-2.3,0.1h-2.3h-2l0.1,0.8h1.9l2.3,0l2.3-0.1l2-0.1L728.2,43.6z M729.3,49.6l-4.5-3l-0.4,0.7
			l1.1,0.7l1.2,0.8l1.2,0.8l1.1,0.7L729.3,49.6z M719.1,50.5c1.4-0.5,2.7-1.3,3.7-2.4c1-1.1,1.7-2.5,1.9-3.9L724,44
			c-0.2,1.4-0.9,2.6-1.8,3.7c-1,1-2.1,1.7-3.5,2.2L719.1,50.5z M723.9,54.5h0.7v-4.1h-0.7V54.5z"/>
		<path class="st1" d="M745.7,420h3.8l3.9-0.1l3.9-0.1l3.7-0.1v-0.8l-3.8,0.1c-1.3,0-2.6,0.1-3.9,0.1l-4,0.1h-3.8L745.7,420z
			 M754.1,419.3h0.7v-3.1h-0.7V419.3z M758.7,414.7l-1.9,0.1c-0.7,0-1.5,0.1-2.3,0.1h-2.3c-0.7,0-1.4,0-2,0v0.8c0.5,0,1.2,0,1.9,0
			h2.3l2.3-0.1l1.9-0.1L758.7,414.7z M750.3,415.3h0.8V412h-0.7L750.3,415.3z M758.3,411.4c-0.5,0-1.2,0.1-1.9,0.1l-2.2,0.1h-2.2
			h-1.8v0.8h1.8h2.2l2.2-0.1l1.9-0.1L758.3,411.4z M757.5,411.8h0.7v-3.3h-0.7V411.8z M758.3,408.1l-1.9,0.1l-2.2,0.1l-2.2,0.1H750
			l0.1,0.8h1.8l2.2,0l2.2-0.1l1.9-0.1L758.3,408.1z M745.2,392.8h3.9l4.1-0.1l4.1-0.1l3.8-0.1v-0.8l-3.8,0.1c-1.3,0-2.7,0.1-4.1,0.1
			l-4.2,0h-3.9L745.2,392.8z M758.3,386.4l-1.9,0.1l-2.2,0.1H752h-1.8l0.1,0.8h1.7h2h2l1.7-0.1L758.3,386.4z M757.6,391
			c0.1-0.4,0.2-0.8,0.3-1.2c0.1-0.4,0.1-0.7,0.2-1.1c0.1-0.3,0.1-0.7,0.1-1.1c0-0.4,0.1-0.8,0.1-1.3l-0.8,0.3c0,0.4,0,0.8-0.1,1.1
			s-0.1,0.7-0.1,1s-0.1,0.6-0.2,1s-0.2,0.7-0.3,1.1L757.6,391z M759.3,400.7l-2,0.1c-0.8,0-1.6,0.1-2.4,0.1h-2.4c-0.8,0-1.5,0-2,0
			v0.8c0.5,0,1.2,0,2,0h2.4l2.4-0.1c0.8,0,1.4,0,2-0.1L759.3,400.7z M750.5,401.3h0.7v-2.9h-0.7V401.3z M758.2,397.8
			c-0.5,0-1.1,0.1-1.8,0.1l-2.1,0.1h-2.1h-1.8v0.8h1.7l2.1,0l2.1-0.1l1.8-0.1V397.8z M757.4,398.1h0.7v-2.9h-0.7V398.1z
			 M758.2,394.9l-1.9,0.1l-2.2,0.1l-2.1,0.1h-1.8l0.1,0.8h1.8h2.1l2.1-0.1l1.9-0.1V394.9z M753.7,362.3l-1.6,0.1h-1.5h-1.4h-1.5
			l0.1,0.8h2.6c0.8,0,1.7,0,2.7-0.1L753.7,362.3z M747.3,370.6c0.8-0.5,1.5-1,2.2-1.7c0.7-0.6,1.3-1.3,1.9-2.1
			c0.6-0.7,1.1-1.5,1.5-2.3c0.4-0.7,0.7-1.5,0.9-2.3l-0.9,0.3c-0.2,0.7-0.4,1.4-0.8,2c-0.4,0.7-0.8,1.4-1.3,2
			c-0.5,0.7-1.1,1.3-1.8,1.9c-0.7,0.6-1.4,1.1-2.1,1.6L747.3,370.6z M757.4,371.6h0.7V360h-0.7V371.6z M759.3,374.2l-1.9,0.1
			c-0.8,0-1.5,0.1-2.3,0.1h-2.3c-0.8,0-1.4,0-2,0v0.8c0.5,0,1.2,0,2,0h2.3l2.3-0.1c0.8,0,1.4,0,1.9-0.1L759.3,374.2z M750.7,375h0.7
			v-4.2h-0.7V375z M751.8,345c0.4-0.2,0.8-0.5,1.1-0.8c0.3-0.3,0.6-0.7,0.7-1.2c0.3-0.9,0.3-1.9,0-2.9c-0.2-0.4-0.4-0.8-0.7-1.2
			c-1.3-1.4-3.5-1.4-4.8-0.2c-0.1,0-0.1,0.1-0.2,0.2c-0.3,0.3-0.6,0.7-0.7,1.2c-0.3,0.9-0.3,1.9,0,2.9c0.2,0.4,0.4,0.8,0.7,1.2
			C748.9,345.3,750.5,345.6,751.8,345 M751.5,338.9c0.3,0.1,0.6,0.4,0.9,0.6c0.2,0.3,0.4,0.6,0.5,0.9c0.3,0.8,0.3,1.6,0,2.3
			c-0.1,0.3-0.3,0.7-0.5,0.9c-0.2,0.3-0.5,0.5-0.9,0.6c-0.7,0.3-1.5,0.3-2.3,0c-0.3-0.1-0.6-0.4-0.9-0.6c-0.2-0.3-0.4-0.6-0.5-0.9
			c-0.3-0.8-0.3-1.6,0-2.3c0.1-0.3,0.3-0.7,0.5-0.9c0.2-0.3,0.5-0.5,0.9-0.6C750,338.6,750.8,338.6,751.5,338.9 M757.5,350.6h0.7
			V334h-0.7V350.6z M745.3,323.6h3.9l4.1-0.1l4.1-0.1l3.8-0.1v-0.8l-3.8,0.1c-1.3,0-2.7,0.1-4.1,0.1l-4.1,0.1h-3.9L745.3,323.6z
			 M751.5,320.4c0.2,0.3,0.4,0.5,0.7,0.7c0.3,0.2,0.6,0.3,1,0.4c0.8,0.2,1.6,0.2,2.4,0c0.4-0.1,0.7-0.2,1-0.4
			c0.3-0.2,0.5-0.4,0.7-0.7c0.3-0.5,0.3-1.2,0-1.8c-0.2-0.3-0.4-0.5-0.7-0.7c-0.3-0.2-0.6-0.3-1-0.4c-0.8-0.2-1.6-0.2-2.4,0
			c-0.4,0.1-0.7,0.2-1,0.4c-0.3,0.2-0.5,0.4-0.7,0.7C751.2,319.2,751.2,319.9,751.5,320.4 M752.7,318.4c1-0.4,2.2-0.4,3.2,0
			c0.6,0.3,0.8,1.1,0.5,1.7c-0.1,0.2-0.3,0.4-0.5,0.5c-1,0.4-2.2,0.4-3.2,0c-0.6-0.3-0.8-1.1-0.5-1.7
			C752.3,318.7,752.5,318.5,752.7,318.4 M756.7,313.9c-0.8,0-1.5-0.1-2.2-0.2c-0.7-0.1-1.5-0.2-2.2-0.3l-0.1,0.9
			c0.7,0.1,1.5,0.2,2.2,0.3s1.5,0.1,2.2,0.2L756.7,313.9z M758.7,315.6l-2.1,0.1l-2.6,0.1l-2.6,0.1h-2.1l0.1,0.8h1.3h1.6h1.8l1.8,0
			h1.6l1.3,0L758.7,315.6z M758.3,329.3h-7.6v0.8h7.6V329.3z M758.3,326.4l-1.7,0.1l-2,0.1h-2h-1.7v0.8h1.7h2l2,0l1.7-0.1
			L758.3,326.4z M758.3,324.6h-0.7v5h0.7V324.6z M750.7,329.7h0.7v-4.9h-0.7V329.7z M745.8,308.4h3.8l3.9-0.1l3.9-0.1l3.7-0.1v-0.8
			l-3.8,0.1c-1.3,0-2.6,0.1-3.9,0.1l-4,0.1h-3.8L745.8,308.4z M755.5,304.4c0.4-0.1,0.7-0.3,1-0.6c0.3-0.2,0.5-0.5,0.7-0.9
			c0.3-0.7,0.3-1.5,0-2.1c-0.2-0.3-0.4-0.6-0.7-0.9c-0.3-0.2-0.6-0.4-1-0.6c-0.8-0.3-1.7-0.3-2.5,0c-0.4,0.1-0.7,0.3-1,0.6
			c-0.3,0.2-0.5,0.5-0.7,0.9c-0.3,0.7-0.3,1.5,0,2.1c0.2,0.3,0.4,0.6,0.7,0.9c0.3,0.2,0.6,0.4,1,0.6
			C753.9,304.7,754.7,304.7,755.5,304.4 M756,300.4c0.8,0.7,0.9,1.9,0.2,2.7c-0.1,0.1-0.1,0.1-0.2,0.2c-1,0.7-2.4,0.7-3.4,0
			c-0.8-0.7-0.9-1.9-0.2-2.7c0.1-0.1,0.1-0.1,0.2-0.2C753.6,299.7,755,299.7,756,300.4 M756.7,295.2c-0.7-0.1-1.5-0.2-2.3-0.4
			s-1.5-0.3-2.3-0.5l-0.1,0.9c0.7,0.2,1.5,0.3,2.3,0.4s1.5,0.2,2.2,0.3L756.7,295.2z M758.7,297.1l-1.3,0.1h-1.6l-1.8,0.1h-1.8h-1.6
			h-1.3l0.1,0.8h1.3h1.6h1.8l1.8,0h1.6l1.3,0L758.7,297.1z M753.9,307.7h0.7v-2.5h-0.7V307.7z M745.3,277h3.9l4.1-0.1l4.1-0.1
			l3.8-0.1v-0.8l-3.8,0.1c-1.3,0-2.7,0.1-4.1,0.1l-4.1,0.1h-3.9L745.3,277z M759.2,282.2l-2,0.1c-0.8,0-1.6,0.1-2.4,0.1h-2.4
			c-0.8,0-1.5,0-2,0v0.8c0.5,0,1.2,0,2,0h2.4l2.4-0.1c0.8,0,1.4-0.1,2-0.1L759.2,282.2z M759,272.3l-1.9,0.1c-0.8,0-1.5,0.1-2.3,0.1
			h-2.3c-0.8,0-1.4,0-2,0v0.8c0.5,0,1.2,0,2,0h2.4l2.3-0.1c0.8,0,1.4,0,1.9-0.1L759,272.3z M750.4,273.3h0.6v-4.8h-0.7L750.4,273.3z
			 M750.4,283.2h0.6v-4.3h-0.7L750.4,283.2z M751.8,259c0.4-0.2,0.8-0.5,1.1-0.8c0.3-0.3,0.6-0.7,0.7-1.2c0.3-0.9,0.3-1.9,0-2.9
			c-0.2-0.4-0.4-0.8-0.7-1.2c-1.3-1.4-3.5-1.4-4.8-0.2c-0.1,0-0.1,0.1-0.2,0.2c-0.3,0.3-0.6,0.7-0.7,1.2c-0.3,0.9-0.3,1.9,0,2.9
			c0.2,0.4,0.4,0.8,0.7,1.2c0.3,0.3,0.7,0.6,1.1,0.8C749.9,259.4,750.9,259.4,751.8,259 M751.5,252.9c0.3,0.1,0.6,0.4,0.9,0.6
			c0.2,0.3,0.4,0.6,0.5,0.9c0.3,0.8,0.3,1.6,0,2.3c-0.1,0.3-0.3,0.7-0.5,0.9c-0.2,0.3-0.5,0.5-0.9,0.6c-0.7,0.3-1.5,0.3-2.3,0
			c-0.3-0.1-0.6-0.4-0.9-0.6c-0.2-0.3-0.4-0.6-0.5-0.9c-0.3-0.8-0.3-1.6,0-2.3c0.1-0.3,0.3-0.7,0.5-0.9c0.2-0.3,0.5-0.5,0.9-0.6
			C750,252.6,750.8,252.6,751.5,252.9 M757.5,264.6h0.7V248h-0.7V264.6z M757,237.5c0.5,1,1.7,1.5,2.7,1.1s1.5-1.7,1.1-2.7
			c-0.1-0.2-0.2-0.4-0.4-0.6c-0.8-0.8-2-0.9-2.8-0.1c-0.2,0.2-0.4,0.5-0.5,0.8C756.8,236.4,756.8,237,757,237.5 M759.8,237.7
			c-0.5,0.5-1.4,0.5-1.9,0c-0.5-0.5-0.5-1.4,0-1.9c0.5-0.5,1.4-0.5,1.9,0C760.3,236.3,760.3,237.1,759.8,237.7 M753.6,217.1
			c-0.9,0.1-1.9,0.1-2.9,0.1c-1,0-2,0-2.9,0v0.8h1.4h1.5l1.5-0.1l1.4-0.1V217.1z M755.2,223.4c-1.1,0.4-2.3,0.7-3.5,0.9
			c-1.3,0.2-2.6,0.3-3.9,0.2v0.7c1.3,0,2.7-0.1,4-0.3c1.2-0.2,2.4-0.5,3.6-0.9L755.2,223.4z M747.8,225.3l0.7-0.2v-7.2h-0.7V225.3z
			 M761.6,221h-3.3l-0.4,0.4l0.4,0.4h3.3V221z M757.5,229.9h0.7v-16.6h-0.7V229.9z M755.3,203.2c-1.2,0.4-2.4,0.7-3.6,0.9
			c-1.3,0.2-2.6,0.4-3.9,0.4v0.7c1.3-0.1,2.7-0.2,4-0.5c1.3-0.2,2.5-0.5,3.7-0.9L755.3,203.2z M747.9,205.2l0.7-0.2v-8h-0.7V205.2z
			 M757.5,209.8h0.7v-16.6h-0.7V209.8z M745.2,180.7h3.9l4.1-0.1c1.4,0,2.7,0,4.1-0.1l3.8-0.1v0.8c-1.2,0.1-2.5,0.1-3.8,0.1
			l-4.1,0.1l-4.1,0.1h-3.9L745.2,180.7z M759.4,177.8l-4.2-2.2l-0.4,0.7l2,1.1l2.1,1.1L759.4,177.8z M749.7,178.6
			c1.3-0.4,2.6-1.1,3.6-2.1c1-1,1.6-2.2,1.9-3.6l-0.7-0.2c-0.2,0.6-0.4,1.3-0.7,1.9c-0.3,0.5-0.6,1-1,1.4c-0.4,0.4-0.9,0.8-1.5,1.1
			c-0.6,0.3-1.2,0.6-1.9,0.8L749.7,178.6z M758.2,189h-7.4v-0.8h7.4V189z M758.2,185.7l-1.7,0.1h-2h-2h-1.7V185h1.7h2l2-0.1l1.7-0.1
			L758.2,185.7z M758.2,188.6h-0.7V183h0.7V188.6z M750.8,183.2h0.7v5.4h-0.7V183.2z M757.9,156.1h-3.3v0.8h3.3V156.1z M757.9,159.4
			h-3.3v0.8h3.3V159.4z M754.5,167l-1.9-1.4l-0.4,0.6l1.7,1.3L754.5,167z M748.3,168.9c2.1-0.9,3.7-2.8,4.3-5.1l-0.8-0.2
			c-0.2,1-0.7,2-1.4,2.8c-0.7,0.8-1.6,1.4-2.6,1.8L748.3,168.9z M760.4,168.6l-3.1-2.3l-0.5,0.6l0.8,0.6l0.7,0.5l0.7,0.6l0.8,0.6
			L760.4,168.6z M753.7,169.3c0.5-0.3,1-0.6,1.4-1c0.4-0.4,0.8-0.8,1.1-1.3c0.3-0.5,0.6-1,0.8-1.5c0.2-0.5,0.4-1,0.5-1.6l-0.8-0.2
			c-0.2,1-0.6,2-1.2,2.9c-0.6,0.9-1.4,1.6-2.4,2.1L753.7,169.3z M754.6,161c-1.1,0.2-2.2,0.4-3.3,0.4c-1.1,0.1-2.2,0.1-3.3,0.1v-3
			h-0.7v3.8c0.6,0,1.2,0,1.8,0s1.3,0,1.9-0.1c0.7,0,1.3-0.1,1.9-0.2s1.2-0.2,1.8-0.3L754.6,161z M753.2,158c-1.1,0.1-2.1,0.2-3,0.2
			l-2.9,0.1v0.7c1,0,2,0,2.9-0.1s1.9-0.1,3-0.1V158z M752.5,158.4h0.7v-3.2h-0.7V158.4z M753.2,154.9l-1.6,0.1l-1.5,0.1h-1.5h-1.5
			l0.1,0.8l3-0.1c0.9,0,1.9,0,3-0.1V154.9z M757.4,162.8h0.7v-9.6h-0.7V162.8z M745.7,147h3.8l3.9-0.1l3.9-0.1l3.7-0.1v-0.8
			l-3.8,0.1c-1.3,0-2.6,0.1-3.9,0.1l-4,0.1h-3.8L745.7,147z M758.3,135.8l-1.9,0.1l-2.3,0.1h-2.3h-2l0.1,0.8h1.9h2.1h2l1.8-0.1
			L758.3,135.8z M757,144.5c0.1-0.6,0.3-1.3,0.4-2c0.1-0.7,0.3-1.5,0.4-2.3c0.1-0.8,0.2-1.5,0.3-2.3c0.1-0.8,0.1-1.5,0.2-2.2
			l-0.8,0.3c0,0.6,0,1.3-0.1,2c-0.1,0.7-0.2,1.4-0.3,2.2c-0.1,0.7-0.2,1.5-0.4,2.2c-0.1,0.7-0.3,1.4-0.4,2L757,144.5z M750.5,119.7
			c0.3-0.1,0.6-0.3,0.8-0.6c0.2-0.2,0.4-0.5,0.5-0.8c0.3-0.6,0.3-1.4,0-2c-0.1-0.3-0.3-0.6-0.5-0.8c-0.2-0.2-0.5-0.4-0.8-0.6
			c-0.7-0.3-1.4-0.3-2.1,0c-0.3,0.1-0.6,0.3-0.8,0.6c-0.2,0.2-0.4,0.5-0.5,0.8c-0.3,0.6-0.3,1.4,0,2c0.1,0.3,0.3,0.6,0.5,0.8
			c0.2,0.2,0.5,0.4,0.8,0.6C749.1,120,749.9,120,750.5,119.7 M750.8,116c0.6,0.7,0.6,1.9,0,2.6c-0.8,0.7-2,0.7-2.7,0
			c-0.6-0.7-0.6-1.9,0-2.6C748.9,115.3,750.1,115.3,750.8,116 M751.1,110.9c-0.5-0.2-1.1-0.4-1.6-0.6c-0.5-0.2-1-0.4-1.6-0.7
			l-0.3,0.8c0.5,0.2,1,0.4,1.6,0.6l1.6,0.6L751.1,110.9z M752.5,112.7l-1.5,0.1h-1.8h-1.8H746l0.1,0.8h1.5h1.7h1.7h1.5V112.7z
			 M757.6,114.6h-3v0.8h3V114.6z M754.1,121.9h0.7v-13.5h-0.7V121.9z M757.4,123.9h0.7v-16.7h-0.7V123.9z M745.7,101.2h3.8l3.9-0.1
			l3.9-0.1l3.7-0.1v-0.8l-3.8,0.2c-1.3,0-2.6,0.1-3.9,0.1l-4,0.1h-3.8L745.7,101.2z M758.3,89.6l-2,0.1l-2.3,0.1h-2.3h-2l0.1,0.8
			h1.9l2.3-0.1l2.3-0.1l2-0.1L758.3,89.6z M759.4,95.6l-4.5-3l-0.4,0.7l1.1,0.7l1.2,0.8l1.2,0.8l1.1,0.7L759.4,95.6z M749.2,96.5
			c1.4-0.5,2.7-1.3,3.7-2.4c1-1.1,1.7-2.5,1.9-3.9l-0.7-0.2c-0.2,1.4-0.9,2.6-1.8,3.7c-1,1-2.1,1.7-3.5,2.2L749.2,96.5z
			 M753.9,100.5h0.7v-4.1h-0.7V100.5z M747.4,77.5c0.8-0.4,1.6-0.9,2.3-1.5c0.7-0.6,1.3-1.2,1.8-1.9c0.5-0.7,1-1.4,1.4-2.1
			c0.4-0.7,0.7-1.5,0.9-2.4l-0.9,0.3c-0.4,1.4-1,2.8-2,3.9c-1.1,1.3-2.4,2.3-3.9,3.1L747.4,77.5z M753.8,69.6l-1.6,0.1h-1.5h-1.4
			h-1.5l0.1,0.8h2.6c0.8,0,1.7,0,2.7-0.1L753.8,69.6z M752.1,81.6c0.2,0.4,0.4,0.7,0.7,1c0.3,0.3,0.6,0.5,1,0.7
			c0.8,0.3,1.7,0.3,2.5,0c0.4-0.2,0.7-0.4,1-0.7c0.3-0.3,0.5-0.6,0.7-1c0.3-0.8,0.3-1.6,0-2.4c-0.2-0.4-0.4-0.7-0.7-1
			c-0.3-0.3-0.6-0.5-1-0.7c-0.8-0.3-1.7-0.3-2.5,0c-0.4,0.2-0.7,0.4-1,0.7c-0.3,0.3-0.5,0.6-0.7,1C751.8,80,751.8,80.8,752.1,81.6
			 M752.8,79.5c0.1-0.3,0.3-0.5,0.5-0.7c0.2-0.2,0.5-0.4,0.8-0.5c0.6-0.3,1.4-0.3,2,0c0.3,0.1,0.5,0.3,0.8,0.5
			c0.2,0.2,0.4,0.5,0.5,0.7c0.2,0.6,0.2,1.2,0,1.8c-0.1,0.3-0.3,0.5-0.5,0.7c-0.2,0.2-0.5,0.4-0.8,0.5c-0.6,0.3-1.4,0.3-2,0
			c-0.3-0.1-0.5-0.3-0.8-0.5c-0.2-0.2-0.4-0.5-0.5-0.7C752.6,80.7,752.6,80.1,752.8,79.5 M761.5,72.3h-3.3l-0.4,0.4l0.4,0.4h3.3
			V72.3z M757.4,76.4h0.7v-9.2h-0.7V76.4z M753.4,49h4.4v-0.8h-4.4V49z M753.4,44.9L752,45l-1.5,0.1h-1.5h-1.4v0.8h1.4h1.5h1.5
			l1.5-0.1V44.9z M754.3,52.2c-0.6,0.2-1.1,0.3-1.6,0.4c-0.5,0.1-1.1,0.2-1.6,0.3c-0.5,0.1-1.1,0.1-1.7,0.1c-0.6,0-1.2,0-1.9,0v0.7
			c1.2,0,2.5,0,3.7-0.2c1.1-0.1,2.3-0.4,3.4-0.7L754.3,52.2z M747.4,53.8l0.7-0.2v-8h-0.7V53.8z M757.4,58h0.7V41.2h-0.7V58z"/>
		<path class="st1" d="M775.2,375.8h3.9l4.1-0.1l4.1-0.1c1.3,0,2.6-0.1,3.8-0.1v-0.8l-3.8,0.1c-1.3,0-2.7,0.1-4.1,0.1L779,375h-3.9
			L775.2,375.8z M789.3,382.8l-2,0.1c-0.8,0-1.6,0.1-2.4,0.1h-2.4c-0.8,0-1.5,0-2,0v0.8c0.5,0,1.2,0,2,0h2.4l2.4-0.1
			c0.8,0,1.4,0,2-0.1L789.3,382.8z M780.4,383.4h0.7v-2.7h-0.7V383.4z M788.2,380c-0.5,0-1.1,0.1-1.8,0.1l-2.1,0.1h-2.1h-1.8v0.8
			h1.7l2.1,0l2.1-0.1l1.8-0.1V380z M787.4,380.4h0.7v-2.7h-0.7V380.4z M788.2,377.4l-1.9,0.1l-2.2,0.1l-2.1,0h-1.8l0.1,0.8h1.8
			l2.1,0l2.1-0.1l1.9-0.1V377.4z M787.8,369.4c-0.2-0.3-0.5-0.6-0.8-0.9c-0.3-0.3-0.7-0.4-1.2-0.5c-0.9-0.3-1.9-0.3-2.8,0
			c-0.4,0.1-0.8,0.3-1.2,0.5c-0.3,0.2-0.6,0.5-0.8,0.9c-0.4,0.7-0.4,1.5,0,2.3c0.2,0.3,0.5,0.6,0.8,0.9c0.3,0.3,0.7,0.4,1.2,0.5
			c0.9,0.3,1.9,0.3,2.8,0c0.4-0.1,0.8-0.3,1.2-0.5c0.3-0.2,0.6-0.5,0.8-0.9C788.2,371,788.2,370.1,787.8,369.4 M781.8,369.7
			c0.2-0.3,0.4-0.5,0.6-0.6c0.3-0.2,0.6-0.3,0.9-0.4c0.8-0.2,1.5-0.2,2.3,0c0.3,0.1,0.6,0.2,0.9,0.4c0.2,0.2,0.5,0.4,0.6,0.6
			c0.3,0.5,0.3,1.2,0,1.7c-0.2,0.3-0.4,0.5-0.6,0.6c-0.3,0.2-0.6,0.3-0.9,0.4c-0.8,0.2-1.5,0.2-2.3,0c-0.3-0.1-0.6-0.2-0.9-0.4
			c-0.2-0.2-0.5-0.4-0.6-0.6C781.5,370.9,781.5,370.2,781.8,369.7 M775.2,356.1h3.9l4.1-0.1l4.1-0.1c1.3,0,2.6-0.1,3.8-0.1V355
			l-3.8,0.1c-1.3,0-2.7,0.1-4.1,0.1l-4.1,0.1h-3.9L775.2,356.1z M788.6,351.8l-1.9,0.1c-0.7,0-1.4,0.1-2.2,0.1h-2.2
			c-0.7,0-1.3,0-1.9,0v0.8c0.5,0,1.2,0,1.9,0h2.2l2.2-0.1l1.9-0.1V351.8z M788.2,348.1l-1.7,0.1l-2.1,0.1h-2.1h-1.7v0.8h1.7h2.1h2.1
			l1.7-0.1L788.2,348.1z M780.5,352.8l0.7-0.2v-3.8h-0.7V352.8z M785.5,359.1c0.3,0.1,0.6,0.2,0.9,0.4c0.2,0.2,0.4,0.4,0.6,0.7
			c0.3,0.5,0.3,1.2,0,1.7c-0.1,0.3-0.3,0.5-0.6,0.7c-0.3,0.2-0.5,0.3-0.9,0.4c-0.7,0.2-1.4,0.2-2.1,0c-0.3-0.1-0.6-0.2-0.8-0.4
			c-0.2-0.2-0.4-0.4-0.6-0.7c-0.3-0.5-0.3-1.2,0-1.7c0.1-0.3,0.3-0.5,0.6-0.7c0.3-0.2,0.5-0.3,0.8-0.4
			C784.1,358.9,784.8,358.9,785.5,359.1 M785.8,363.7c0.4-0.1,0.8-0.3,1.1-0.6c0.3-0.2,0.6-0.6,0.7-0.9c0.3-0.7,0.3-1.6,0-2.3
			c-0.2-0.3-0.4-0.7-0.7-0.9c-0.3-0.3-0.7-0.5-1.1-0.6c-0.9-0.3-1.8-0.3-2.7,0c-0.4,0.1-0.8,0.3-1.1,0.6c-0.3,0.2-0.6,0.6-0.7,0.9
			c-0.3,0.7-0.3,1.6,0,2.3c0.2,0.3,0.4,0.7,0.7,0.9c0.3,0.3,0.7,0.5,1.1,0.6C784,363.9,784.9,363.9,785.8,363.7 M784.1,358.4h0.7
			v-2.8h-0.7V358.4z M783.9,331.6c-1.1,0.1-2.2,0.1-3.3,0.1s-2.2,0.1-3.2,0.1l0.1,0.8l2.9-0.1l2.9-0.1L783.9,331.6z M776.9,340.8
			c0.9-0.4,1.7-1,2.4-1.6c0.8-0.6,1.5-1.4,2.1-2.1c0.3-0.4,0.6-0.8,0.8-1.3c0.3-0.5,0.5-0.9,0.7-1.4c0.2-0.5,0.4-1,0.6-1.4
			c0.2-0.5,0.3-0.9,0.4-1.4l-0.9,0.3c-0.2,0.8-0.4,1.6-0.8,2.4c-0.4,0.9-0.9,1.7-1.5,2.4c-0.6,0.7-1.3,1.4-2,2
			c-0.7,0.6-1.5,1.1-2.3,1.5L776.9,340.8z M787.4,344.5h0.7v-16.6h-0.7V344.5z M775.7,321.9h3.8l3.9-0.1l3.9-0.1l3.7-0.1v-0.8
			l-3.8,0.1c-1.3,0-2.6,0.1-3.9,0.1l-4,0.1h-3.8L775.7,321.9z M784.1,321.2h0.7v-3.1h-0.7V321.2z M788.7,316.6l-1.9,0.1
			c-0.7,0-1.5,0.1-2.3,0.1h-2.3c-0.7,0-1.4,0-2,0v0.8c0.5,0,1.2,0,1.9,0h2.3l2.3-0.1l1.9-0.1L788.7,316.6z M780.3,317.2h0.7v-3.3
			h-0.7L780.3,317.2z M788.3,313.3c-0.5,0-1.2,0.1-1.9,0.1l-2.2,0.1h-2.2h-1.8v0.8h1.8l2.2,0l2.2-0.1l1.9-0.1L788.3,313.3z
			 M787.5,313.7h0.7v-3.3h-0.7V313.7z M788.3,310l-1.9,0.1l-2.2,0.1l-2.2,0H780l0.1,0.8h1.8h2.2l2.2-0.1l1.9-0.1L788.3,310z
			 M776.1,300.1c0.6-0.5,1.2-1.2,1.7-1.8c0.5-0.7,0.8-1.4,1.1-2.1c0.3-0.8,0.5-1.5,0.7-2.3c0.2-0.9,0.3-1.7,0.3-2.6h-0.8
			c0,1.6-0.3,3.1-0.9,4.6c-0.6,1.4-1.5,2.7-2.7,3.7L776.1,300.1z M782.8,299.3l-2.6-3.5l-0.6,0.5l1.3,1.7c0.4,0.6,0.9,1.2,1.3,1.8
			L782.8,299.3z M785,294.3h-3.2v0.8h3.2V294.3z M784.5,302.6h0.7v-13.5h-0.7V302.6z M787.5,304.6h0.7v-16.7h-0.7V304.6z M777,271.1
			c0.2,0.4,0.4,0.8,0.7,1.2c0.3,0.3,0.7,0.6,1.1,0.8c0.9,0.4,1.8,0.4,2.7,0c0.4-0.2,0.8-0.5,1.1-0.8c0.3-0.3,0.6-0.7,0.7-1.2
			c0.4-0.9,0.4-2,0-2.9c-0.2-0.4-0.4-0.8-0.7-1.2c-0.3-0.3-0.7-0.6-1.1-0.8c-0.9-0.4-1.8-0.4-2.7,0c-0.4,0.2-0.8,0.5-1.1,0.8
			c-0.3,0.3-0.6,0.7-0.7,1.2C776.6,269.1,776.6,270.1,777,271.1 M777.7,268.4c0.1-0.4,0.3-0.7,0.6-1c0.2-0.3,0.5-0.5,0.8-0.6
			c0.3-0.2,0.7-0.2,1.1-0.2c0.4,0,0.7,0.1,1,0.2c0.3,0.2,0.6,0.4,0.8,0.6c0.2,0.3,0.4,0.6,0.6,1c0.3,0.8,0.3,1.6,0,2.4
			c-0.1,0.3-0.3,0.7-0.6,1c-0.2,0.3-0.5,0.5-0.8,0.6c-0.3,0.2-0.7,0.2-1,0.2c-0.4,0-0.7-0.1-1.1-0.2c-0.3-0.2-0.6-0.4-0.8-0.6
			c-0.2-0.3-0.4-0.6-0.6-1C777.4,270,777.4,269.2,777.7,268.4 M787.9,267h-3.5v0.8h3.5V267z M787.9,271.6h-3.5v0.8h3.5V271.6z
			 M787.4,278.6h0.7v-16.7h-0.7V278.6z M782.1,254.9c0.7-0.3,1.2-0.9,1.5-1.6c0.3-0.7,0.3-1.4,0-2.1c-0.1-0.3-0.3-0.7-0.6-0.9
			c-0.3-0.3-0.6-0.5-0.9-0.6c-0.8-0.3-1.7-0.3-2.6,0c-0.7,0.3-1.2,0.9-1.5,1.6c-0.3,0.7-0.3,1.4,0,2.1c0.3,0.7,0.8,1.3,1.5,1.6
			C780.4,255.2,781.3,255.2,782.1,254.9 M779.8,254.2c-0.3-0.1-0.5-0.3-0.7-0.5c-0.2-0.2-0.3-0.4-0.4-0.7c-0.2-0.5-0.2-1.1,0-1.6
			c0.1-0.3,0.2-0.5,0.4-0.7c0.2-0.2,0.4-0.4,0.7-0.5c0.6-0.3,1.4-0.3,2,0c0.3,0.1,0.5,0.3,0.7,0.5c0.2,0.2,0.3,0.4,0.4,0.7
			c0.2,0.5,0.2,1.1,0,1.6c-0.1,0.3-0.2,0.5-0.4,0.7c-0.2,0.2-0.4,0.4-0.7,0.5C781.2,254.5,780.5,254.5,779.8,254.2 M791.5,249.8
			h-3.3l-0.4,0.4l0.4,0.4h3.3V249.8z M784.7,247l-1.8,0.1l-2.3,0.1h-2.3h-1.8l0.1,0.8h1.1h1.4h1.5h1.6l1.4-0.1l1.1-0.1L784.7,247z
			 M783,244.7c-0.7-0.2-1.4-0.5-2.1-0.7c-0.7-0.3-1.4-0.5-2.1-0.9l-0.3,0.8c0.7,0.3,1.4,0.6,2.1,0.8l2.1,0.7L783,244.7z
			 M787.4,258.6h0.7v-16.7h-0.7V258.6z M787.8,229.9h-3.1v0.8h3.1V229.9z M787.8,226.6h-3.1v0.8h3.1V226.6z M782.9,223.2
			c-0.7-0.1-1.4-0.3-2-0.4c-0.6-0.1-1.3-0.3-2-0.6l-0.2,0.8c0.7,0.2,1.4,0.4,2,0.5l2,0.4L782.9,223.2z M782.5,236.5
			c0.1,0.3,0.4,0.6,0.6,0.8c0.3,0.2,0.6,0.4,1,0.5c0.8,0.3,1.6,0.3,2.4,0c0.4-0.1,0.7-0.3,1-0.5c0.3-0.2,0.5-0.5,0.6-0.8
			c0.1-0.3,0.2-0.7,0.2-1c0-0.3-0.1-0.7-0.2-1c-0.2-0.3-0.4-0.6-0.6-0.8c-0.3-0.2-0.6-0.4-1-0.6c-0.8-0.3-1.6-0.3-2.4,0
			c-0.4,0.1-0.7,0.3-1,0.6c-0.3,0.2-0.5,0.5-0.6,0.8c-0.1,0.3-0.2,0.7-0.2,1C782.3,235.8,782.4,236.2,782.5,236.5 M783.6,234.2
			c1-0.7,2.3-0.7,3.3,0c0.7,0.6,0.8,1.6,0.3,2.3c-0.1,0.1-0.2,0.2-0.3,0.3c-1,0.7-2.3,0.7-3.3,0c-0.7-0.6-0.8-1.6-0.3-2.3
			C783.5,234.4,783.5,234.3,783.6,234.2 M778.2,230.6c0.1,0.3,0.3,0.6,0.6,0.8c0.3,0.2,0.6,0.4,0.9,0.6c0.7,0.3,1.6,0.3,2.3,0
			c0.3-0.1,0.6-0.3,0.9-0.6c0.2-0.2,0.4-0.5,0.6-0.8c0.1-0.3,0.2-0.7,0.2-1c0-0.7-0.3-1.3-0.8-1.8c-0.3-0.2-0.6-0.4-0.9-0.6
			c-0.7-0.3-1.6-0.3-2.3,0c-0.3,0.1-0.6,0.3-0.9,0.6c-0.5,0.5-0.8,1.1-0.8,1.8C778,229.9,778.1,230.2,778.2,230.6 M782.3,230.9
			c-0.9,0.7-2.1,0.7-3,0c-0.4-0.3-0.6-0.8-0.5-1.3c0-0.5,0.2-1,0.5-1.3c0.9-0.7,2.1-0.7,3,0c0.4,0.3,0.6,0.8,0.5,1.3
			C782.9,230.1,782.7,230.5,782.3,230.9 M784.3,225l-1.7,0.1l-2.1,0.1h-2.1h-1.7l0.1,0.8h1.7h2.1l2.1-0.1l1.7-0.1L784.3,225z
			 M787.4,232h0.7v-10.1h-0.7V232z M784.3,209.5h3.5v-0.8h-3.5V209.5z M784.3,206.3h3.5v-0.8h-3.5V206.3z M783.4,210.1h-6v0.8h6
			V210.1z M783.4,206.2c-1,0.1-1.9,0.1-2.9,0.1s-1.9,0-2.9,0v0.8c0.9,0,1.9,0,2.9,0l2.9-0.1V206.2z M783.4,203.4h-0.7v7h0.7V203.4z
			 M777.4,210.7h0.7v-7h-0.7V210.7z M787.4,213.3h0.7v-11.4h-0.7V213.3z M789.2,216.2l-1.9,0.1c-0.8,0-1.5,0.1-2.3,0.1h-2.3
			c-0.8,0-1.4,0-2,0v0.8c0.5,0,1.2,0,2,0h2.3l2.3-0.1l1.9-0.1L789.2,216.2z M780.6,217h0.7v-4h-0.7V217z M775.1,183.8h3.9l4.1-0.1
			l4.1-0.1l3.8-0.1v-0.8l-3.8,0.1c-1.3,0-2.7,0.1-4.1,0.1L779,183H775L775.1,183.8z M789.2,190.8l-2,0.1c-0.8,0-1.6,0.1-2.4,0.1
			h-2.4c-0.8,0-1.5,0-2,0v0.8c0.5,0,1.2,0,2,0h2.4l2.4-0.1c0.8,0,1.4-0.1,2-0.1L789.2,190.8z M780.4,191.4h0.7v-2.7h-0.7V191.4z
			 M788.1,188c-0.5,0-1.1,0.1-1.8,0.1l-2.1,0.1h-2.1h-1.8v0.8h1.7l2.1-0.1l2.1-0.1l1.8-0.1V188z M787.4,188.4h0.7v-2.7h-0.7V188.4z
			 M788.1,185.4l-1.9,0.1l-2.2,0.1l-2.1,0.1h-1.8l0.1,0.8h1.8l2.1-0.1l2.1-0.1l1.9-0.1V185.4z M787.8,177.4
			c-0.2-0.3-0.5-0.6-0.8-0.9c-0.3-0.2-0.7-0.4-1.2-0.6c-0.9-0.3-1.9-0.3-2.8,0c-0.4,0.1-0.8,0.3-1.2,0.6c-0.3,0.2-0.6,0.5-0.8,0.9
			c-0.4,0.7-0.4,1.5,0,2.3c0.2,0.3,0.5,0.6,0.8,0.9c0.3,0.3,0.7,0.4,1.2,0.6c0.9,0.3,1.9,0.3,2.8,0c0.4-0.1,0.8-0.3,1.2-0.6
			c0.3-0.2,0.6-0.5,0.8-0.9C788.2,179,788.2,178.1,787.8,177.4 M781.8,177.7c0.2-0.3,0.4-0.5,0.6-0.6c0.3-0.2,0.6-0.3,0.9-0.4
			c0.8-0.2,1.5-0.2,2.3,0c0.3,0.1,0.6,0.2,0.9,0.4c0.2,0.2,0.5,0.4,0.6,0.6c0.3,0.5,0.3,1.2,0,1.7c-0.2,0.3-0.4,0.5-0.6,0.6
			c-0.3,0.2-0.6,0.3-0.9,0.4c-0.8,0.2-1.5,0.2-2.3,0c-0.3-0.1-0.6-0.2-0.9-0.4c-0.2-0.2-0.5-0.4-0.6-0.6
			C781.5,178.9,781.5,178.2,781.8,177.7 M782.1,170.2c0.2,0.4,0.4,0.7,0.7,1c0.3,0.3,0.6,0.5,1,0.6c0.8,0.3,1.7,0.3,2.5,0
			c0.4-0.2,0.7-0.4,1-0.6c0.3-0.3,0.5-0.6,0.7-1c0.3-0.8,0.3-1.6,0-2.4c-0.2-0.4-0.4-0.7-0.7-1c-0.3-0.3-0.6-0.5-1-0.6
			c-0.8-0.3-1.7-0.3-2.5,0c-0.4,0.2-0.7,0.4-1,0.6c-0.3,0.3-0.5,0.6-0.7,1C781.7,168.6,781.7,169.4,782.1,170.2 M787.3,169.9
			c-0.1,0.3-0.3,0.5-0.5,0.7c-1,0.9-2.5,0.9-3.5,0c-0.2-0.2-0.4-0.5-0.5-0.7c-0.3-0.6-0.3-1.2,0-1.8c0.1-0.3,0.3-0.5,0.5-0.7
			c1-0.9,2.5-0.9,3.5,0c0.2,0.2,0.4,0.5,0.5,0.7C787.6,168.7,787.6,169.3,787.3,169.9 M777.7,162.2c0.2,0.4,0.4,0.7,0.7,1
			c0.3,0.3,0.6,0.5,1,0.7c0.8,0.3,1.7,0.3,2.5,0c0.4-0.2,0.7-0.4,1-0.7c0.3-0.3,0.5-0.6,0.7-1c0.3-0.8,0.3-1.6,0-2.4
			c-0.2-0.4-0.4-0.7-0.7-1c-0.3-0.3-0.6-0.5-1-0.7c-0.8-0.3-1.7-0.3-2.5,0c-0.4,0.2-0.7,0.4-1,0.7c-0.3,0.3-0.5,0.6-0.7,1
			C777.3,160.5,777.3,161.4,777.7,162.2 M778.4,160.1c0.1-0.3,0.3-0.5,0.5-0.8c0.2-0.2,0.5-0.4,0.8-0.5c0.6-0.3,1.3-0.3,2,0
			c0.3,0.1,0.6,0.3,0.8,0.5c0.2,0.2,0.4,0.5,0.5,0.8c0.3,0.6,0.3,1.3,0,1.8c-0.1,0.3-0.3,0.5-0.5,0.8c-0.2,0.2-0.5,0.4-0.8,0.5
			c-0.6,0.3-1.3,0.3-2,0c-0.3-0.1-0.6-0.3-0.8-0.5c-0.2-0.2-0.4-0.5-0.5-0.8C778.1,161.3,778.1,160.6,778.4,160.1 M787.4,165h0.7
			v-9.1h-0.7V165z M791.4,158.7h-3.2l-0.4,0.4l0.4,0.4h3.2V158.7z M791.4,162h-3.2l-0.4,0.4l0.4,0.4h3.2V162z M775.7,149.8h3.8
			l3.9-0.1l3.9-0.1l3.7-0.1v-0.8l-3.8,0.1c-1.3,0-2.6,0.1-3.9,0.1l-4,0.1h-3.8L775.7,149.8z M784,149.2h0.7v-3.9H784V149.2z
			 M780.7,143.9h0.7v-5.4h-0.7V143.9z M788.1,138.3l-1.7,0.1h-2h-2h-1.7l0.1,0.8h1.7h2h2l1.7-0.1L788.1,138.3z M787.4,144h0.7v-5.2
			h-0.7V144z M788.1,143.6h-7.5v0.8h7.5V143.6z M778.1,116.8c0.3,0.8,0.9,1.4,1.7,1.7c0.8,0.3,1.7,0.3,2.5,0c0.4-0.2,0.7-0.4,1-0.7
			c0.3-0.3,0.5-0.6,0.7-1c0.3-0.8,0.3-1.7,0-2.5c-0.2-0.4-0.4-0.7-0.7-1c-0.3-0.3-0.6-0.5-1-0.7c-0.8-0.3-1.7-0.3-2.5,0
			C778.2,113.4,777.4,115.3,778.1,116.8 M778.8,114.7c0.1-0.3,0.3-0.6,0.5-0.8c0.2-0.2,0.5-0.4,0.8-0.5c0.6-0.3,1.4-0.3,2,0
			c0.3,0.1,0.6,0.3,0.8,0.5c1,1,1,2.5,0,3.5c-0.2,0.2-0.5,0.4-0.8,0.5c-0.6,0.3-1.4,0.3-2,0c-0.3-0.1-0.6-0.3-0.8-0.5
			C778.6,116.7,778.4,115.6,778.8,114.7 M787.4,126.7h0.7v-16.8h-0.7V126.7z M786.2,121.2c-1,0.2-1.9,0.3-2.8,0.4
			c-0.9,0.1-1.7,0.2-2.5,0.3c-0.8,0.1-1.7,0.1-2.5,0.2s-1.8,0.1-2.8,0.1l0.2,0.8c1,0,1.9-0.1,2.8-0.2c0.8-0.1,1.7-0.1,2.5-0.2
			s1.6-0.2,2.5-0.3l2.7-0.4L786.2,121.2z M791,104.4l-0.5-0.6l-6.8,3.9l-6.8-4l-0.5,0.6l7.2,4.1L791,104.4z M789.8,99.6l-4.4-2.9
			l-0.4,0.7c0.7,0.4,1.4,0.9,2.2,1.4l2.2,1.5L789.8,99.6z M779.4,100.2c1.4-0.3,2.7-1,3.7-2c1-1.1,1.7-2.3,2-3.8l-0.7-0.2
			c-0.3,1.3-0.9,2.5-1.8,3.5c-1,0.9-2.2,1.5-3.5,1.8L779.4,100.2z M787.4,95.2h0.7v-4.4h-0.7V95.2z M781.8,92
			c-0.1,0.6-0.3,1.2-0.6,1.8c-0.3,0.6-0.7,1.1-1.1,1.6l0.7,0.4c0.5-0.5,0.9-1.1,1.2-1.8c0.3-0.6,0.6-1.3,0.7-1.9L781.8,92z
			 M788.1,90.5c-1.1,0.1-2.2,0.1-3.3,0.1l-3.3,0.1l-3.3,0.1H775l0.1,0.8h3.1l3.3-0.1l3.3-0.1l3.3-0.1L788.1,90.5z M788,85.3
			c-0.2-0.3-0.5-0.6-0.8-0.9c-0.4-0.3-0.8-0.4-1.2-0.6c-0.9-0.3-1.9-0.3-2.9,0c-0.4,0.1-0.8,0.3-1.2,0.6c-0.3,0.2-0.6,0.5-0.8,0.9
			c-0.4,0.7-0.4,1.6,0,2.4c0.2,0.3,0.5,0.6,0.8,0.9c0.4,0.3,0.8,0.4,1.2,0.6c0.9,0.3,1.9,0.3,2.9,0c0.4-0.1,0.8-0.3,1.2-0.6
			c0.3-0.2,0.6-0.5,0.8-0.9C788.4,86.9,788.4,86.1,788,85.3 M781.9,85.6c0.2-0.3,0.4-0.5,0.6-0.6c0.3-0.2,0.6-0.3,0.9-0.4
			c0.8-0.2,1.5-0.2,2.3,0c0.3,0.1,0.6,0.2,0.9,0.4c0.3,0.2,0.5,0.4,0.6,0.6c0.3,0.6,0.3,1.2,0,1.8c-0.2,0.3-0.4,0.5-0.6,0.6
			c-0.3,0.2-0.6,0.3-0.9,0.4c-0.8,0.2-1.5,0.2-2.3,0c-0.3-0.1-0.6-0.2-0.9-0.4c-0.3-0.2-0.5-0.4-0.6-0.6
			C781.6,86.8,781.6,86.2,781.9,85.6 M785,66.8h-0.6v16h0.6V66.8z M781.1,51.8c0.2,0.4,0.5,0.7,0.8,1c0.4,0.3,0.8,0.5,1.2,0.6
			c0.9,0.3,1.9,0.3,2.9,0c0.4-0.1,0.8-0.4,1.2-0.6c0.3-0.3,0.6-0.6,0.8-1c0.4-0.8,0.4-1.8,0-2.6c-0.2-0.4-0.5-0.7-0.8-1
			c-0.4-0.3-0.8-0.5-1.2-0.6c-0.9-0.3-1.9-0.3-2.9,0c-0.4,0.1-0.8,0.4-1.2,0.6c-0.3,0.3-0.6,0.6-0.8,1C780.7,50,780.7,51,781.1,51.8
			 M781.8,49.5c0.2-0.3,0.4-0.6,0.6-0.8c0.3-0.2,0.6-0.4,1-0.5c0.8-0.2,1.6-0.2,2.3,0c0.3,0.1,0.7,0.3,0.9,0.5
			c0.3,0.2,0.5,0.5,0.6,0.8c0.3,0.6,0.3,1.4,0,2c-0.2,0.3-0.4,0.5-0.6,0.8c-0.3,0.2-0.6,0.4-0.9,0.5c-0.8,0.2-1.6,0.2-2.3,0
			c-0.3-0.1-0.7-0.3-1-0.5c-0.3-0.2-0.5-0.5-0.6-0.8C781.5,50.9,781.5,50.2,781.8,49.5 M787.4,63.3h0.7V56h-0.7V63.3z M782,57.7
			c-0.3,0.9-0.7,1.8-1.2,2.6c-0.5,0.9-1.1,1.7-1.7,2.4l0.7,0.4c0.6-0.8,1.2-1.6,1.7-2.5c0.5-0.8,0.9-1.7,1.2-2.7L782,57.7z
			 M788.2,55.7c-1.1,0.1-2.2,0.1-3.3,0.1l-3.3,0.1l-3.3,0.1h-3.2l0.1,0.8h3.1l3.3-0.1l3.3-0.1l3.3-0.1L788.2,55.7z M783.8,41
			l-7.2,4.1l0.5,0.6l6.8-3.9l6.8,3.9l0.5-0.6L783.8,41z"/>
		<path class="st1" d="M805.2,334.3h3.9l4.1-0.1l4.1-0.1l3.8-0.1v-0.8l-3.8,0.1c-1.3,0-2.7,0.1-4.1,0.1l-4.1,0.1h-3.9L805.2,334.3z
			 M819.1,339.5l-2,0.1c-0.8,0-1.6,0.1-2.4,0.1h-2.4c-0.8,0-1.5,0-2,0v0.8c0.5,0,1.2,0,2,0h2.4l2.4-0.1c0.8,0,1.4,0,2-0.1
			L819.1,339.5z M818.9,329.7l-1.9,0.1c-0.8,0-1.5,0.1-2.3,0.1h-2.3c-0.8,0-1.4,0-2,0v0.8c0.5,0,1.2,0,2,0h2.4l2.3-0.1
			c0.8,0,1.4,0,1.9-0.1L818.9,329.7z M810.3,330.7h0.8v-4.8h-0.7L810.3,330.7z M810.3,340.5h0.8v-4.3h-0.7L810.3,340.5z
			 M815.3,315.3c-1.2,0.4-2.3,0.7-3.5,0.9c-1.3,0.2-2.6,0.4-3.9,0.4v0.7c1.3-0.1,2.7-0.2,4-0.5c1.2-0.2,2.5-0.5,3.7-0.9L815.3,315.3
			z M807.9,317.3l0.7-0.2v-8h-0.7V317.3z M821.5,312.9h-3.3l-0.4,0.4l0.4,0.4h3.3V312.9z M817.4,321.9h0.7v-16.6h-0.7V321.9z
			 M808.9,293.8c0.8,0,1.6,0,2.5,0l2.3-0.1v-0.8c-0.7,0.1-1.5,0.1-2.3,0.1c-0.8,0-1.7,0-2.5,0V293.8z M815.7,296
			c-0.6,0.2-1.2,0.4-1.8,0.6c-0.7,0.2-1.3,0.3-2,0.5c-0.7,0.1-1.4,0.2-2.1,0.3c-0.7,0.1-1.4,0.1-2.1,0.1v0.7c0.7,0,1.4,0,2.1-0.1
			s1.5-0.1,2.2-0.3c0.7-0.1,1.4-0.3,2.1-0.5c0.7-0.2,1.3-0.4,1.9-0.6L815.7,296z M807.5,298.1l0.7-0.2v-8.4h-0.7V298.1z
			 M813.8,288.7l-1.5,0.1l-1.6,0.1H809h-1.5v0.8h1.5h1.6l1.6-0.1l1.5-0.1L813.8,288.7z M821.5,293h-3.3l-0.4,0.4l0.4,0.4h3.3V293z
			 M817.4,301.9h0.7v-16.6h-0.7V301.9z M815.3,275.2c-1.2,0.4-2.3,0.7-3.5,0.9c-1.3,0.2-2.6,0.4-3.9,0.4v0.7c1.3-0.1,2.7-0.2,4-0.5
			c1.2-0.2,2.5-0.5,3.7-0.9L815.3,275.2z M807.9,277.2l0.7-0.2v-8h-0.7V277.2z M821.5,272.9h-3.3l-0.4,0.4l0.4,0.4h3.3V272.9z
			 M817.4,281.8h0.7v-16.6h-0.7V281.8z M806.8,251.4c0.7-0.5,1.4-1.1,1.9-1.8c0.5-0.7,1-1.4,1.4-2.2c0.4-0.8,0.7-1.7,0.9-2.6
			c0.2-0.9,0.4-1.8,0.5-2.8l-0.8-0.1c-0.1,0.9-0.2,1.8-0.5,2.7c-0.2,0.8-0.5,1.6-0.8,2.4c-0.4,0.7-0.8,1.4-1.3,2.1
			c-0.5,0.7-1.2,1.2-1.9,1.7L806.8,251.4z M814.5,251.1l-2.9-4.1l-0.6,0.5c0.5,0.6,0.9,1.2,1.4,1.9c0.5,0.7,1,1.4,1.4,2.1
			L814.5,251.1z M817.5,245.6h-3.9v0.8h3.9V245.6z M817.4,255.8h0.7v-16.6h-0.7V255.8z M806.5,228.5c0.1,0.4,0.4,0.8,0.6,1.1
			c0.3,0.3,0.6,0.6,1,0.7c0.8,0.3,1.7,0.3,2.4,0c0.4-0.2,0.7-0.4,1-0.7c0.3-0.3,0.5-0.7,0.6-1.1c0.3-0.9,0.3-1.9,0-2.9
			c-0.1-0.4-0.4-0.8-0.6-1.1c-0.3-0.3-0.6-0.6-1-0.7c-0.8-0.3-1.7-0.3-2.4,0c-0.4,0.2-0.7,0.4-1,0.7c-0.3,0.3-0.5,0.7-0.6,1.1
			C806.2,226.6,806.2,227.6,806.5,228.5 M807.7,225c0.8-0.9,2.2-1,3.1-0.2c0.1,0.1,0.1,0.1,0.2,0.2c0.9,1.2,0.9,2.8,0,4.1
			c-0.8,0.9-2.2,1-3.1,0.2c-0.1-0.1-0.1-0.1-0.2-0.2C806.8,227.9,806.8,226.2,807.7,225 M815.1,226.6h-2.3v0.8h2.3V226.6z
			 M814.6,233.8h0.7v-13.4h-0.7V233.8z M817.5,235.8h0.7v-16.6h-0.7V235.8z M814.4,204.7h3.5V204h-3.5V204.7z M818.2,214.4h-7.5v0.8
			h7.5V214.4z M813.4,206.7h-6v0.8h6V206.7z M813.1,203.2l-2.8,0.1c-0.9,0-1.9,0-2.8,0v0.8c0.9,0,1.9,0,2.8,0l2.8-0.1V203.2z
			 M813.4,200.5h-0.7v6.6h0.7V200.5z M807.4,207.1h0.7v-6.4h-0.7V207.1z M817.4,207.8h0.7v-8.7h-0.7V207.8z M818.2,211l-1.7,0.1
			l-2,0.1h-2h-1.7v0.8h1.7h2l2-0.1l1.7-0.1L818.2,211z M818.2,208.8h-0.7v6h0.7V208.8z M810.7,215h0.7v-6h-0.7V215z M811.8,193.6
			c0.2,0.3,0.4,0.7,0.7,0.9c0.3,0.3,0.7,0.5,1.1,0.6c0.9,0.3,1.8,0.3,2.7,0c0.4-0.1,0.7-0.3,1.1-0.6c1.1-0.9,1.3-2.6,0.4-3.7
			c-0.1-0.1-0.3-0.3-0.4-0.4c-0.3-0.3-0.7-0.5-1.1-0.6c-0.9-0.3-1.8-0.3-2.7,0c-0.4,0.1-0.7,0.3-1.1,0.6
			C811.6,191.2,811.3,192.5,811.8,193.6 M813,191c1.1-0.8,2.6-0.8,3.8,0c0.9,0.7,1,1.9,0.3,2.8c-0.1,0.1-0.2,0.2-0.3,0.3
			c-1.1,0.8-2.6,0.8-3.8,0c-0.9-0.7-1-1.9-0.3-2.8C812.8,191.2,812.9,191.1,813,191 M813.6,187.2h-6v0.8h6V187.2z M813.3,183.5
			l-2.8,0.1c-0.9,0-1.8,0-2.8,0v0.8c0.9,0,1.9,0,2.8-0.1l2.8-0.1V183.5z M813.6,180.8h-0.7v6.9h0.7V180.8z M807.6,187.7h0.7V181
			h-0.7V187.7z M817.4,188.6h0.7v-9.3h-0.7V188.6z M821.4,184.6h-3.3l-0.4,0.4l0.4,0.4h3.3V184.6z M814.4,161.1h3.3v-0.8h-3.3V161.1
			z M814.7,164.7l-1.7,0.2l-1.8,0.2l-1.8,0.2c-0.6,0-1.1,0.1-1.7,0.1v-4H807v4.8c0.5,0,1.2,0,1.8-0.1l2-0.1c0.7-0.1,1.3-0.1,2-0.2
			l1.8-0.2L814.7,164.7z M817.3,169.9h0.7v-16.7h-0.7V169.9z M813.5,160.7c-1.1,0.1-2.1,0.2-3.2,0.2l-3.2,0.1v0.8l3.2-0.1
			c1.1,0,2.2-0.1,3.2-0.1V160.7z M812.7,161.1h0.7v-4.2h-0.7V161.1z M813.5,156.6c-1.1,0.1-2.2,0.1-3.3,0.1l-3.2,0.1l0.1,0.8
			l3.2-0.1c1.1,0,2.2,0,3.3-0.1L813.5,156.6z M807,142.4c0.2,0.4,0.4,0.8,0.7,1.2c0.3,0.3,0.7,0.6,1.1,0.8c0.9,0.4,1.8,0.4,2.7,0
			c0.4-0.2,0.8-0.5,1.1-0.8c0.3-0.3,0.6-0.7,0.7-1.2c0.4-0.9,0.4-2,0-2.9c-0.2-0.4-0.4-0.8-0.7-1.2c-0.3-0.3-0.7-0.6-1.1-0.8
			c-0.9-0.4-1.8-0.4-2.7,0c-0.4,0.2-0.8,0.5-1.1,0.8c-0.3,0.3-0.6,0.7-0.7,1.2C806.6,140.4,806.6,141.5,807,142.4 M807.7,139.8
			c0.1-0.4,0.3-0.7,0.6-1c0.2-0.3,0.5-0.5,0.8-0.6c0.3-0.2,0.7-0.2,1.1-0.2c0.4,0,0.7,0.1,1,0.2c0.3,0.2,0.6,0.4,0.8,0.6
			c0.3,0.3,0.4,0.6,0.6,1c0.3,0.8,0.3,1.6,0,2.4c-0.1,0.4-0.3,0.7-0.6,1c-0.2,0.3-0.5,0.5-0.8,0.6c-0.3,0.2-0.7,0.2-1,0.2
			c-0.4,0-0.7-0.1-1.1-0.2c-0.3-0.2-0.6-0.4-0.8-0.6c-0.3-0.3-0.4-0.6-0.6-1C807.4,141.4,807.4,140.5,807.7,139.8 M817.9,138.3h-3.5
			v0.8h3.5V138.3z M817.9,142.9h-3.5v0.8h3.5V142.9z M817.4,149.9h0.7v-16.6h-0.7V149.9z M805.2,116.3h3.9l4.1-0.1l4.1-0.1l3.8-0.1
			v-0.8l-3.8,0.2c-1.3,0-2.7,0.1-4.1,0.1l-4.1,0.1h-3.9L805.2,116.3z M819.1,121.5l-2,0.1c-0.8,0-1.6,0.1-2.4,0.1h-2.4
			c-0.8,0-1.5,0-2,0v0.8c0.5,0,1.2,0,2,0h2.4l2.4-0.1c0.8,0,1.4-0.1,2-0.1L819.1,121.5z M818.9,111.6l-1.9,0.1
			c-0.8,0-1.5,0.1-2.3,0.1h-2.3c-0.8,0-1.4,0-2,0v0.8c0.5,0,1.2,0,2,0h2.4l2.3-0.1c0.8,0,1.4,0,1.9-0.1L818.9,111.6z M810.3,112.6
			h0.7v-4.8h-0.7L810.3,112.6z M810.3,122.5h0.7v-4.3h-0.7L810.3,122.5z M805.6,99.9h3.8l4-0.1c1.3,0,2.6,0,3.9-0.1l3.8-0.2v0.8
			l-3.7,0.1l-3.9,0.1l-3.9,0.1h-3.8L805.6,99.9z M819.8,94.9l-3.1-2.6l-0.5,0.6l0.8,0.6l0.8,0.7l0.8,0.7l0.7,0.6L819.8,94.9z
			 M808.6,95.6c1.1-0.8,2-1.9,2.7-3c0.8-1.2,1.3-2.6,1.7-4l-0.7-0.2c-0.3,1.3-0.8,2.6-1.5,3.8c-0.7,1.1-1.6,2.1-2.7,2.9L808.6,95.6z
			 M813.9,92.8l-1.3-1.1l-0.5,0.6l1.3,1.1L813.9,92.8z M813,96c1-0.9,1.9-2,2.6-3.3c0.7-1.3,1.2-2.7,1.6-4.1l-0.7-0.2
			c-0.3,1.4-0.8,2.7-1.5,3.9c-0.7,1.2-1.5,2.2-2.5,3.1L813,96z M805.2,69.9h3.9l4.1-0.1l4.1-0.1l3.8-0.1v-0.8l-3.8,0.2
			c-1.3,0-2.7,0.1-4.1,0.1l-4.1,0.1h-3.9L805.2,69.9z M818.7,66.3l-1.9,0.1c-0.7,0-1.5,0.1-2.2,0.1h-2.2c-0.7,0-1.4,0-1.9,0v0.8
			c0.5,0,1.2,0,1.9,0h2.2l2.2-0.1l1.9-0.1V66.3z M810.4,66.9h0.7v-2.5h-0.7V66.9z M818.2,63.8c-0.5,0-1.1,0.1-1.8,0.1l-2.1,0.1h-2.1
			h-1.8v0.8h1.8l2.1-0.1l2.1-0.1l1.9-0.1L818.2,63.8z M817.5,64.2h0.7v-2.5h-0.7V64.2z M818.2,61.3l-1.9,0.1l-2.2,0.1l-2.2,0h-1.8
			l0.1,0.8h1.8h2.2l2.2-0.1l1.9-0.1V61.3z M819.2,76.3l-2,0.1c-0.8,0-1.6,0.1-2.4,0.1h-2.4c-0.8,0-1.5,0-2,0v0.8c0.5,0,1.2,0,2,0
			h2.4l2.4-0.1c0.8,0,1.4,0,2-0.1L819.2,76.3z M810.4,76.9h0.7v-2.5h-0.7V76.9z M818.1,73.8c-0.5,0-1.1,0.1-1.8,0.1l-2.1,0.1h-2.1
			h-1.8v0.8h1.7l2.1-0.1l2.1-0.1l1.8-0.1V73.8z M817.4,74.2h0.7v-2.5h-0.7V74.2z M818.1,71.4l-1.9,0.1l-2.2,0.1l-2.1,0.1h-1.8
			l0.1,0.8h1.8h2.1l2.1-0.1l1.9-0.1V71.4z M811.1,45.8c0.2,0.4,0.5,0.7,0.8,1c0.4,0.3,0.8,0.5,1.2,0.6c0.9,0.3,1.9,0.3,2.9,0
			c0.4-0.1,0.8-0.4,1.2-0.6c0.3-0.3,0.6-0.6,0.8-1c0.4-0.8,0.4-1.8,0-2.6c-0.2-0.4-0.5-0.7-0.8-1c-0.4-0.3-0.8-0.5-1.2-0.6
			c-0.9-0.3-1.9-0.3-2.9,0c-0.4,0.1-0.8,0.4-1.2,0.6c-0.3,0.3-0.6,0.6-0.8,1C810.7,44.1,810.7,45,811.1,45.8 M811.8,43.6
			c0.2-0.3,0.4-0.6,0.6-0.8c0.3-0.2,0.6-0.4,1-0.5c0.8-0.2,1.6-0.2,2.3,0c0.3,0.1,0.7,0.3,0.9,0.5c0.3,0.2,0.5,0.5,0.6,0.8
			c0.3,0.6,0.3,1.4,0,2c-0.2,0.3-0.4,0.5-0.6,0.8c-0.3,0.2-0.6,0.4-0.9,0.5c-0.8,0.2-1.6,0.2-2.3,0c-0.3-0.1-0.7-0.3-1-0.5
			c-0.3-0.2-0.5-0.5-0.6-0.8C811.5,44.9,811.5,44.2,811.8,43.6 M817.4,57.3h0.7V50h-0.7V57.3z M812,51.7c-0.3,0.9-0.7,1.8-1.2,2.6
			c-0.5,0.9-1.1,1.7-1.7,2.4l0.7,0.4c0.6-0.8,1.2-1.6,1.7-2.5c0.5-0.8,0.9-1.7,1.2-2.7L812,51.7z M818.2,49.7
			c-1.1,0.1-2.2,0.1-3.3,0.1l-3.3,0.1l-3.3,0.1h-3.2l0.1,0.8h3.1l3.3-0.1l3.3-0.1l3.3-0.1L818.2,49.7z"/>
		<path class="st1" d="M846.9,369.6c0.2,0.5,0.6,0.9,1.1,1.1c0.5,0.2,1.1,0.2,1.6,0c0.2-0.1,0.5-0.3,0.7-0.4c0.8-0.8,0.8-2.1,0-2.9
			c-0.2-0.2-0.4-0.3-0.7-0.4c-0.5-0.2-1.1-0.2-1.6,0C847,367.3,846.5,368.5,846.9,369.6 M849.8,369.7c-0.5,0.5-1.4,0.5-1.9,0
			c-0.5-0.5-0.5-1.4,0-1.9c0.5-0.5,1.4-0.5,1.9,0C850.3,368.3,850.3,369.2,849.8,369.7 M843.6,349.1c-0.9,0.1-1.9,0.1-2.9,0.1
			c-1,0-2,0-2.9,0v0.8h1.4h1.5l1.5,0l1.4-0.1V349.1z M845.1,355.5c-1.1,0.4-2.3,0.7-3.5,0.9c-1.3,0.2-2.6,0.3-3.9,0.2v0.7
			c1.3,0,2.7-0.1,4-0.3c1.2-0.2,2.4-0.5,3.6-0.9L845.1,355.5z M837.7,357.4l0.7-0.2v-7.3h-0.7V357.4z M851.5,353.1h-3.3l-0.4,0.4
			l0.4,0.4h3.3V353.1z M847.4,361.9h0.7v-16.7h-0.7V361.9z M845.3,335.3c-1.2,0.4-2.4,0.7-3.6,0.9c-1.3,0.2-2.6,0.4-3.9,0.4v0.7
			c1.3-0.1,2.7-0.2,4-0.5c1.3-0.2,2.5-0.5,3.7-0.9L845.3,335.3z M837.8,337.3l0.7-0.2v-8h-0.7V337.3z M847.4,341.9h0.7v-16.6h-0.7
			V341.9z M848.2,320.3h-7.5v0.8h7.5V320.3z M844.5,311.2c-0.5,0.1-1,0.3-1.5,0.4c-0.6,0.1-1.2,0.2-1.8,0.3
			c-0.6,0.1-1.2,0.1-1.8,0.2c-0.6,0-1.1,0.1-1.6,0.1v0.7c0.5,0,1,0,1.6-0.1c0.6,0,1.2-0.1,1.8-0.2s1.2-0.2,1.8-0.3
			c0.6-0.1,1.1-0.2,1.6-0.3L844.5,311.2z M837.9,312.5h0.7v-5.4h-0.7V312.5z M847.4,313.2h0.7v-8h-0.7V313.2z M848.2,316.6l-1.7,0.1
			l-2,0.1h-2h-1.7v0.8h1.7h2l2,0l1.7-0.1L848.2,316.6z M848.2,314.2h-0.7v6.4h0.7V314.2z M840.7,320.8h0.7v-6.4h-0.7V320.8z
			 M851.5,292.7h-3.3l-0.4,0.4l0.4,0.4h3.3V292.7z M841.8,296.3c0.4-0.2,0.8-0.5,1.1-0.8c0.3-0.3,0.5-0.7,0.7-1.2
			c0.3-0.9,0.3-1.9,0-2.9c-0.2-0.4-0.4-0.8-0.7-1.2c-0.3-0.3-0.7-0.6-1.1-0.8c-0.9-0.4-1.9-0.4-2.8,0c-0.4,0.2-0.8,0.5-1.1,0.8
			c-0.3,0.3-0.5,0.7-0.7,1.2c-0.3,0.9-0.3,1.9,0,2.9c0.2,0.4,0.4,0.8,0.7,1.2c0.3,0.3,0.7,0.6,1.1,0.8
			C839.9,296.7,840.9,296.7,841.8,296.3 M841.5,290.2c0.3,0.1,0.6,0.4,0.8,0.6c0.2,0.3,0.4,0.6,0.5,0.9c0.3,0.8,0.3,1.6,0,2.3
			c-0.1,0.3-0.3,0.7-0.5,0.9c-0.2,0.3-0.5,0.5-0.8,0.6c-0.7,0.3-1.5,0.3-2.3,0c-0.3-0.1-0.6-0.4-0.8-0.6c-0.2-0.3-0.4-0.6-0.5-0.9
			c-0.3-0.8-0.3-1.6,0-2.3c0.1-0.3,0.3-0.7,0.5-0.9c0.2-0.3,0.5-0.5,0.8-0.6C840,289.9,840.8,289.9,841.5,290.2 M847.4,301.9h0.7
			v-16.6h-0.7V301.9z M841.8,270.3c0.4-0.2,0.8-0.5,1.1-0.8c0.3-0.3,0.6-0.7,0.7-1.2c0.3-0.9,0.3-1.9,0-2.9
			c-0.2-0.4-0.4-0.8-0.7-1.2c-1.3-1.4-3.5-1.4-4.8-0.2c-0.1,0-0.1,0.1-0.2,0.2c-0.3,0.3-0.6,0.7-0.7,1.2c-0.3,0.9-0.3,1.9,0,2.9
			c0.2,0.4,0.4,0.8,0.7,1.2c0.3,0.3,0.7,0.6,1.1,0.8C839.9,270.7,840.9,270.7,841.8,270.3 M841.5,264.2c0.3,0.1,0.6,0.4,0.9,0.6
			c0.2,0.3,0.4,0.6,0.5,0.9c0.3,0.8,0.3,1.6,0,2.3c-0.1,0.3-0.3,0.7-0.5,0.9c-0.2,0.3-0.5,0.5-0.9,0.6c-0.7,0.3-1.5,0.3-2.3,0
			c-0.3-0.1-0.6-0.4-0.9-0.6c-0.2-0.3-0.4-0.6-0.5-0.9c-0.3-0.8-0.3-1.6,0-2.3c0.1-0.3,0.3-0.7,0.5-0.9c0.2-0.3,0.5-0.5,0.9-0.6
			C840,263.9,840.8,263.9,841.5,264.2 M847.5,275.9h0.7v-16.6h-0.7V275.9z M843.4,240.1c-0.7-0.1-1.4-0.3-2-0.4
			c-0.6-0.1-1.3-0.3-2-0.6l-0.2,0.8c0.7,0.2,1.4,0.4,2,0.5l2,0.4L843.4,240.1z M845,241.5l-1.8,0.1l-2.2,0.1h-2.2h-1.8l0.1,0.8h1.7
			h2.2l2.2-0.1l1.8-0.1V241.5z M839.3,246.8c1.3,0.8,2.9,0.8,4.1,0c0.5-0.4,0.7-0.9,0.7-1.5c0-0.6-0.3-1.1-0.7-1.5
			c-1.3-0.8-2.9-0.8-4.1,0c-0.5,0.4-0.7,0.9-0.7,1.5C838.5,245.9,838.8,246.4,839.3,246.8 M839.8,244.3c1-0.5,2.1-0.5,3.1,0
			c0.5,0.4,0.7,1.1,0.3,1.6c-0.1,0.1-0.2,0.2-0.3,0.3c-1,0.5-2.1,0.5-3.1,0c-0.5-0.4-0.7-1.1-0.3-1.6
			C839.6,244.5,839.7,244.4,839.8,244.3 M841,249.6h0.7v-2.4H841V249.6z M846.2,248.7c-0.7,0.1-1.4,0.2-2.3,0.3
			c-0.9,0.1-1.8,0.2-2.8,0.2c-1,0.1-1.9,0.1-2.8,0.1s-1.7,0-2.4,0.1l0.1,0.8c0.7,0,1.5,0,2.5-0.1l2.7-0.1c1-0.1,1.9-0.1,2.8-0.2
			c0.9-0.1,1.7-0.2,2.3-0.3L846.2,248.7z M847.5,250.4h0.7v-11.1h-0.7V250.4z M848.3,251.6l-1.9,0.1l-2.3,0.1l-2.3,0.1h-1.9l0.1,0.8
			h1.9l2.3-0.1l2.3-0.1l1.9-0.1V251.6z M847.5,255.4h0.7v-3.4h-0.7V255.4z M835.3,223.5h3.9l4.1-0.1l4.1-0.1c1.3,0,2.6-0.1,3.8-0.1
			v-0.8l-3.8,0.1c-1.3,0-2.7,0.1-4.1,0.1l-4.1,0.1h-3.9L835.3,223.5z M849.2,227.5l-2,0.1c-0.8,0-1.6,0.1-2.4,0.1h-2.4
			c-0.8,0-1.5,0-2,0v0.8c0.5,0,1.2,0,2,0h2.4l2.4-0.1c0.8,0,1.4,0,2-0.1L849.2,227.5z M840.3,228.5h0.7v-3.7h-0.7L840.3,228.5z
			 M848.8,219.5l-1.9,0.1c-0.7,0-1.5,0.1-2.2,0.1h-2.2c-0.7,0-1.4,0-1.9,0v0.8c0.5,0,1.2,0,1.9,0h2.2l2.2-0.1l1.9-0.1V219.5z
			 M840.5,220.1h0.7v-2.8h-0.7V220.1z M848.3,216.7c-0.5,0-1.1,0.1-1.8,0.1l-2.1,0.1h-2.1h-1.8v0.8h1.8h2.1l2.1-0.1l1.9-0.1
			L848.3,216.7z M847.6,217.1h0.7v-2.8h-0.7V217.1z M848.3,213.9l-1.9,0.1l-2.2,0.1l-2.2,0.1h-1.8l0.1,0.8h1.8h2.2l2.2-0.1l1.9-0.1
			V213.9z M851.6,200.7h-3.3l-0.4,0.4l0.4,0.4h3.3V200.7z M845.6,196.9l-0.9,0.1h-0.8H842l0.1,0.8h1.7h0.8h0.9L845.6,196.9z
			 M846.3,204c-0.7,0.2-1.4,0.3-2.1,0.4c-0.7,0.1-1.4,0.1-2.1,0.1v0.7c1.5,0,3-0.2,4.4-0.5L846.3,204z M842,205.3l0.7-0.2v-7.7
			L842,197V205.3z M841,203.8c-0.6,0.3-1.2,0.5-1.8,0.7c-0.6,0.1-1.3,0.2-1.9,0.2v0.7c0.7,0,1.4-0.1,2.1-0.2c0.7-0.2,1.4-0.4,2-0.7
			L841,203.8z M837.3,205.4l0.7-0.2v-7.8l-0.7-0.4V205.4z M840.7,197l-0.9,0.1H839h-1.7l0.1,0.8h1.7h0.7h0.9L840.7,197z
			 M847.4,209.9h0.7v-16.7h-0.7V209.9z M835.2,175.1h3.9l4.1-0.1l4.1-0.1c1.3,0,2.6-0.1,3.8-0.1V174l-3.8,0.1
			c-1.3,0-2.7,0.1-4.1,0.1l-4.1,0.1h-3.9L835.2,175.1z M849.3,182.1l-2,0.1c-0.8,0-1.6,0.1-2.4,0.1h-2.4c-0.8,0-1.5,0-2,0v0.8
			c0.5,0,1.2,0,2,0h2.4l2.4-0.1c0.8,0,1.4,0,2-0.1L849.3,182.1z M840.4,182.7h0.7V180h-0.7V182.7z M848.2,179.4
			c-0.5,0-1.1,0.1-1.8,0.1l-2.1,0.1h-2.1h-1.8v0.8h1.7l2.1-0.1l2.1-0.1l1.8-0.1V179.4z M847.4,179.8h0.7V177h-0.7V179.8z
			 M848.2,176.7l-1.9,0.1l-2.2,0.1l-2.1,0.1h-1.8l0.1,0.8h1.8h2.1l2.1-0.1l1.9-0.1V176.7z M847.8,168.8c-0.2-0.3-0.5-0.6-0.8-0.9
			c-0.3-0.3-0.7-0.4-1.2-0.6c-0.9-0.3-1.9-0.3-2.8,0c-0.4,0.1-0.8,0.3-1.2,0.6c-0.3,0.2-0.6,0.5-0.8,0.9c-0.4,0.7-0.4,1.5,0,2.3
			c0.2,0.3,0.5,0.6,0.8,0.9c0.3,0.3,0.7,0.4,1.2,0.6c0.9,0.3,1.9,0.3,2.8,0c0.4-0.1,0.8-0.3,1.2-0.6c0.3-0.2,0.6-0.5,0.8-0.9
			C848.2,170.3,848.2,169.5,847.8,168.8 M841.8,169.1c0.2-0.3,0.4-0.5,0.6-0.6c0.3-0.2,0.6-0.3,0.9-0.4c0.8-0.2,1.5-0.2,2.3,0
			c0.3,0.1,0.6,0.2,0.9,0.4c0.2,0.2,0.5,0.4,0.6,0.6c0.3,0.5,0.3,1.2,0,1.7c-0.2,0.3-0.4,0.5-0.6,0.6c-0.3,0.2-0.6,0.3-0.9,0.4
			c-0.8,0.2-1.5,0.2-2.3,0c-0.3-0.1-0.6-0.2-0.9-0.4c-0.2-0.2-0.5-0.4-0.6-0.6C841.5,170.2,841.5,169.6,841.8,169.1 M835.1,155.6
			h3.9l4.1-0.1c1.4,0,2.7,0,4.1-0.1l3.8-0.1v0.8c-1.2,0.1-2.5,0.1-3.8,0.1l-4.1,0.1l-4.1,0.1h-3.9L835.1,155.6z M849.2,152.6l-4-2.3
			l-0.4,0.7l1.9,1.1c0.7,0.4,1.3,0.8,2,1.2L849.2,152.6z M839.5,153.6c1.4-0.4,2.6-1.1,3.6-2.1c1-1.1,1.7-2.3,2-3.7l-0.7-0.2
			c-0.2,0.7-0.5,1.4-0.8,2c-0.3,0.5-0.6,1.1-1.1,1.5c-0.4,0.4-0.9,0.8-1.5,1.1c-0.6,0.3-1.3,0.6-2,0.8L839.5,153.6z M844.3,155.7
			h0.7v4.1h-0.7V155.7z M849.1,162.6c-0.5,0-1.2,0.1-2,0.1l-2.4,0.1h-2.4c-0.8,0-1.5,0-2,0V162c0.6,0,1.2,0,2,0h2.4
			c0.8,0,1.6,0,2.4-0.1l2-0.1L849.1,162.6z M840.2,158.8h0.8v4h-0.7L840.2,158.8z M843,134.3l0.2-3.7h-0.8l-0.2,3.7L843,134.3z
			 M839.3,134.7l-0.3-3.8l-0.8,0.1l0.3,3.8L839.3,134.7z M845.5,133.5c-1.5,0.3-3,0.5-4.5,0.6c-1.5,0.2-3.1,0.3-4.8,0.4l0.1,0.8
			c1.6-0.1,3.2-0.2,4.7-0.4c1.5-0.2,3-0.4,4.5-0.6L845.5,133.5z M844.4,128.9c-0.5,0-1,0.1-1.7,0.1l-2.1,0.1l-2,0.1H837l0.1,0.8h1.7
			l2-0.1l2-0.1l1.7-0.1L844.4,128.9z M849.3,141.9l-2,0.1c-0.8,0-1.6,0.1-2.4,0.1h-2.4c-0.8,0-1.4,0-2,0v0.8c0.5,0,1.2,0,2,0h2.4
			l2.4-0.1c0.8,0,1.4,0,2-0.1L849.3,141.9z M840.6,142.5h0.7v-2.6h-0.7V142.5z M848.2,139.3c-0.5,0-1.1,0.1-1.8,0.1l-2,0.1h-2h-1.7
			v0.8h1.7l2-0.1l2-0.1l1.8-0.1L848.2,139.3z M847.4,139.7h0.7V137h-0.7V139.7z M848.2,136.7l-1.9,0.1l-2.1,0.1l-2.1,0.1h-1.8
			l0.1,0.8h1.8l2.1-0.1l2.1-0.1l1.8-0.1V136.7z M847.4,136h0.7v-8.7h-0.7V136z M837.6,107.8c0.2,0.4,0.4,0.7,0.7,1
			c0.3,0.3,0.6,0.5,1,0.7c0.8,0.3,1.7,0.3,2.5,0c0.4-0.2,0.7-0.4,1-0.7c0.3-0.3,0.5-0.6,0.7-1c0.3-0.8,0.3-1.7,0-2.5
			c-0.2-0.4-0.4-0.7-0.7-1c-0.3-0.3-0.6-0.5-1-0.7c-0.8-0.3-1.7-0.3-2.5,0c-0.4,0.2-0.7,0.4-1,0.7c-0.3,0.3-0.5,0.6-0.7,1
			C837.3,106.1,837.3,107,837.6,107.8 M838.3,105.6c0.3-0.6,0.7-1.1,1.3-1.3c0.6-0.3,1.4-0.3,2,0c0.3,0.1,0.6,0.3,0.8,0.5
			c0.2,0.2,0.4,0.5,0.5,0.8c0.3,0.6,0.3,1.3,0,1.9c-0.1,0.3-0.3,0.6-0.5,0.8c-0.2,0.2-0.5,0.4-0.8,0.5c-0.6,0.3-1.4,0.3-2,0
			c-0.6-0.3-1.1-0.7-1.3-1.3C838,106.9,838,106.2,838.3,105.6 M849.3,115.5l-2,0.1c-0.8,0-1.6,0.1-2.4,0.1h-2.4c-0.8,0-1.4,0-2,0
			v0.8c0.5,0,1.2,0,2,0h2.4l2.4-0.1c0.8,0,1.4-0.1,2-0.1L849.3,115.5z M840.6,116.3h0.7v-4.2h-0.7V116.3z M847.4,113.1h0.7v-11.9
			h-0.7V113.1z M837.2,91.1c1.2-0.8,2.2-1.8,3-3c0.8-1.2,1.3-2.6,1.5-4l-0.8-0.1c-0.1,0.7-0.3,1.4-0.5,2.1c-0.2,0.6-0.5,1.2-0.9,1.7
			c-0.4,0.5-0.8,1-1.2,1.4c-0.5,0.5-1,0.9-1.6,1.3L837.2,91.1z M847.6,86.4H844v0.8h3.6L847.6,86.4z M844.7,90.4l-3.1-3l-0.5,0.6
			c0.5,0.5,1,0.9,1.5,1.4c0.5,0.5,1,1,1.5,1.6L844.7,90.4z M844.4,83.5l-1.6,0.1l-1.9,0.1l-1.9,0.1h-1.6l0.1,0.8h1.6l1.9-0.1
			l1.9-0.1l1.6-0.1L844.4,83.5z M847.4,91.3h0.7V81.2h-0.7V91.3z M848.2,92.6l-2,0.1l-2.3,0.1l-2.3,0.1h-1.9l0.1,0.8h1.9h2.3
			l2.3-0.1l2-0.1L848.2,92.6z M847.4,97.6h0.7v-4.5h-0.7V97.6z M847.7,67.7h-2.9v0.8h2.9V67.7z M847.7,64.3h-2.9v0.8h2.9V64.3z
			 M842.9,70l0.2-4.8h-0.8l-0.2,4.8L842.9,70z M839.3,70.4l-0.4-4.9l-0.8,0.1l0.5,4.9L839.3,70.4z M844.3,63.1c-0.5,0-1,0.1-1.7,0.1
			l-2,0.1l-2,0.1h-1.7l0.1,0.8h1.7l2-0.1l2-0.1l1.7-0.1L844.3,63.1z M845.1,69.6c-1.4,0.1-2.9,0.3-4.3,0.3c-1.4,0.1-3,0.1-4.6,0.2
			l0.1,0.8l2.3-0.1l2.2-0.1l2.2-0.1l2.2-0.2L845.1,69.6z M847.5,73.1h0.7V61.2h-0.7V73.1z M849.3,75.6l-1.9,0.1
			c-0.8,0-1.5,0.1-2.3,0.1h-2.3c-0.8,0-1.4,0-2,0v0.8c0.5,0,1.2,0,2,0h2.3l2.3-0.1l1.9-0.1L849.3,75.6z M840.7,76.4h0.7v-3.7h-0.7
			V76.4z M835.7,54.9h3.8l3.9-0.1l3.9-0.1l3.7-0.1v-0.8l-3.8,0.2c-1.3,0-2.6,0.1-3.9,0.1l-4,0.1h-3.8L835.7,54.9z M848.1,49.6h-7.4
			v0.8h7.4V49.6z M848.1,45.7l-1.7,0.1l-2,0.1h-2h-1.7v0.8h1.7h2l2,0l1.7-0.1L848.1,45.7z M848.1,42.8h-0.7v7h0.7V42.8z M840.7,50.1
			h0.7v-7h-0.7V50.1z M844.2,54.3h0.7v-3.1h-0.7V54.3z"/>
		<path class="st1" d="M870.6,375.7c0.3-0.1,0.6-0.3,0.8-0.6c0.2-0.2,0.4-0.5,0.5-0.8c0.3-0.6,0.3-1.4,0-2c-0.1-0.3-0.3-0.6-0.5-0.8
			c-0.2-0.2-0.5-0.4-0.8-0.6c-0.7-0.3-1.4-0.3-2.1,0c-0.3,0.1-0.6,0.3-0.8,0.6c-0.2,0.2-0.4,0.5-0.5,0.8c-0.3,0.6-0.3,1.4,0,2
			c0.1,0.3,0.3,0.6,0.5,0.8c0.2,0.2,0.5,0.4,0.8,0.6C869.1,376,869.9,376,870.6,375.7 M870.9,372c0.6,0.7,0.6,1.9,0,2.6
			c-0.8,0.7-2,0.7-2.7,0c-0.6-0.7-0.6-1.9,0-2.6C868.9,371.3,870.1,371.3,870.9,372 M871.1,366.9c-0.5-0.2-1.1-0.4-1.6-0.6
			c-0.5-0.2-1-0.4-1.6-0.7l-0.3,0.8c0.5,0.2,1,0.4,1.6,0.6l1.6,0.6L871.1,366.9z M872.5,368.7l-1.5,0.1h-1.8h-1.8h-1.5l0.1,0.8h1.5
			h1.7h1.7h1.5V368.7z M877.6,370.6h-3v0.8h3V370.6z M874.1,377.9h0.7v-13.5h-0.7V377.9z M877.5,379.9h0.7v-16.7h-0.7V379.9z
			 M867.7,350.4l0.7-0.2v-4.8h-0.7V350.4z M873.5,345.4c-0.9,0.1-1.9,0.1-2.9,0.1h-2.9l0.1,0.8h2.9c1,0,2,0,2.9-0.1V345.4z
			 M872.8,350.6h0.7v-4.7h-0.7V350.6z M873.5,350.1h-5.9v0.8h5.9V350.1z M881.5,348h-3.3l-0.4,0.4l0.4,0.4h3.3V348z M879.3,358
			l-2,0.1c-0.8,0-1.6,0.1-2.4,0.1h-2.4c-0.8,0-1.4,0-2,0v0.8c0.5,0,1.2,0,2,0h2.4l2.4-0.1c0.8,0,1.4,0,2-0.1L879.3,358z
			 M870.6,358.6h0.7v-2.7h-0.7V358.6z M878.2,355.3l-1.8,0.1l-2,0.1h-2h-1.7v0.8h1.7l2,0l2-0.1l1.8-0.1L878.2,355.3z M877.5,355.7
			h0.7v-2.8h-0.7V355.7z M878.2,352.6l-1.9,0.1l-2.1,0.1l-2.1,0.1h-1.8l0.1,0.8h1.8h2.1l2.1-0.1l1.8-0.1V352.6z M877.5,351.9h0.7
			v-8.6h-0.7V351.9z M872,330.2c0.4-0.2,0.7-0.4,0.9-0.6c0.3-0.3,0.4-0.6,0.6-0.9c0.3-0.7,0.3-1.4,0-2.1c-0.1-0.3-0.3-0.7-0.6-0.9
			c-0.3-0.3-0.6-0.5-0.9-0.6c-0.8-0.3-1.7-0.3-2.6,0c-0.4,0.2-0.7,0.4-0.9,0.6c-0.3,0.3-0.4,0.6-0.6,0.9c-0.3,0.7-0.3,1.4,0,2.1
			c0.1,0.3,0.3,0.7,0.6,0.9c0.3,0.3,0.6,0.5,0.9,0.6C870.3,330.5,871.2,330.5,872,330.2 M869.7,329.5c-0.5-0.2-0.9-0.7-1.1-1.2
			c-0.1-0.2-0.1-0.5-0.1-0.8c0-0.3,0-0.5,0.1-0.8c0.1-0.3,0.2-0.5,0.4-0.7c0.2-0.2,0.4-0.4,0.7-0.5c0.6-0.3,1.4-0.3,2,0
			c0.5,0.2,0.9,0.7,1.1,1.2c0.1,0.2,0.1,0.5,0.1,0.8c0,0.3,0,0.5-0.1,0.8c-0.1,0.3-0.2,0.5-0.4,0.7c-0.2,0.2-0.4,0.4-0.7,0.5
			C871.1,329.8,870.4,329.8,869.7,329.5 M874.6,322.3c-0.3,0-0.7,0-1.1,0.1l-1.4,0h-1.6h-1.6h-1.4h-1.1l0.1,0.8h1.8l2.3,0l2.3-0.1
			l1.8-0.1V322.3z M872.9,320.1c-0.7-0.2-1.4-0.5-2.1-0.7c-0.7-0.3-1.4-0.5-2.1-0.9l-0.3,0.8c0.7,0.3,1.4,0.6,2.1,0.8l2.1,0.7
			L872.9,320.1z M877.4,333.9h0.7v-16.7h-0.7V333.9z M867.5,304.4l0.7-0.2v-4.8h-0.7V304.4z M873.4,299.4c-0.9,0.1-1.9,0.1-2.9,0.1
			h-3l0.1,0.8h2.9c1,0,2,0,2.9-0.1L873.4,299.4z M872.7,304.6h0.7v-4.7h-0.7V304.6z M873.4,304.1h-5.9v0.8h5.9V304.1z M879.2,311.9
			l-2,0.1c-0.8,0-1.6,0.1-2.4,0.1h-2.4c-0.8,0-1.4,0-2,0v0.8c0.5,0,1.2,0,2,0h2.4l2.4-0.1c0.8,0,1.4,0,2-0.1L879.2,311.9z
			 M870.5,312.5h0.7v-2.7h-0.7V312.5z M878.1,309.3c-0.5,0-1.1,0.1-1.8,0.1l-2,0.1h-2h-1.7v0.8h1.7l2,0l2-0.1l1.8-0.1L878.1,309.3z
			 M877.4,309.7h0.7v-2.8h-0.7V309.7z M878.1,306.5l-1.9,0.1l-2.1,0.1l-2.1,0h-1.8l0.1,0.8h1.8l2.1,0l2.1-0.1l1.8-0.1V306.5z
			 M877.4,305.9h0.7v-8.6h-0.7V305.9z M877.9,281.9h-3.2v0.8h3.2V281.9z M867.6,283.4c0.2,0.4,0.4,0.7,0.7,1c0.3,0.3,0.6,0.5,1,0.7
			c0.8,0.3,1.7,0.3,2.5,0c0.4-0.2,0.7-0.4,1-0.7c0.3-0.3,0.5-0.6,0.7-1c0.3-0.8,0.3-1.6,0-2.4c-0.2-0.4-0.4-0.7-0.7-1
			c-0.3-0.3-0.6-0.5-1-0.7c-0.8-0.3-1.7-0.3-2.5,0c-0.4,0.2-0.7,0.4-1,0.7c-0.3,0.3-0.5,0.6-0.7,1
			C867.2,281.8,867.2,282.7,867.6,283.4 M868.2,281.3c0.1-0.3,0.3-0.5,0.5-0.8c0.2-0.2,0.5-0.4,0.8-0.5c0.6-0.3,1.3-0.3,2,0
			c0.3,0.1,0.6,0.3,0.8,0.5c0.2,0.2,0.4,0.5,0.5,0.8c0.3,0.6,0.3,1.3,0,1.8c-0.1,0.3-0.3,0.5-0.5,0.8c-1,0.9-2.5,0.9-3.5,0
			c-0.2-0.2-0.4-0.5-0.5-0.8C868,282.6,868,281.9,868.2,281.3 M870.5,292.6l0.7-0.2V288h-0.7V292.6z M878.1,287.8l-1.7,0.1h-2.1
			h-2.1h-1.7l0.1,0.8h1.7h2h2c0.7,0,1.2,0,1.7-0.1L878.1,287.8z M877.4,292.7h0.7v-4.3h-0.7V292.7z M878.1,292.3h-7.6v0.7h7.6V292.3
			z M877.4,286.3h0.7v-9.1h-0.7V286.3z M865.1,260.5h3.9l4.1-0.1l4.1-0.1c1.3,0,2.6-0.1,3.8-0.1v-0.8l-3.8,0.1
			c-1.3,0-2.7,0.1-4.1,0.1l-4.1,0.1H865L865.1,260.5z M875.8,257.4c0.4-0.1,0.8-0.3,1.1-0.6c1-0.8,1.3-2.2,0.7-3.4
			c-0.2-0.4-0.4-0.7-0.7-0.9c-0.3-0.3-0.7-0.5-1.1-0.6c-0.9-0.3-1.9-0.3-2.8,0c-0.4,0.1-0.8,0.3-1.1,0.6c-1,0.8-1.3,2.2-0.7,3.4
			c0.2,0.4,0.4,0.7,0.7,0.9c0.3,0.3,0.7,0.5,1.1,0.6C874,257.6,874.9,257.6,875.8,257.4 M872.4,256.3c-0.9-0.7-1.1-2-0.3-3
			c0.1-0.1,0.2-0.2,0.3-0.3c1.2-0.8,2.8-0.8,4,0c0.9,0.7,1.1,2,0.3,3c-0.1,0.1-0.2,0.2-0.3,0.3C875.2,257,873.7,257,872.4,256.3
			 M879,265.5l-2,0.1c-0.8,0-1.6,0.1-2.4,0.1h-2.4c-0.8,0-1.5,0-2,0v0.8c0.5,0,1.2,0,2,0h2.4l2.4-0.1c0.8,0,1.4,0,2-0.1L879,265.5z
			 M870.2,266.5h0.8v-4.3h-0.7L870.2,266.5z M881,245.7l-0.5-0.6l-6.8,3.9l-6.8-3.9l-0.5,0.6l7.2,4.1L881,245.7z M879.8,240.8
			l-4.4-2.9l-0.4,0.7c0.7,0.4,1.4,0.9,2.2,1.4l2.2,1.5L879.8,240.8z M869.4,241.4c1.4-0.3,2.7-1,3.7-2c1-1.1,1.7-2.3,2-3.8l-0.7-0.2
			c-0.3,1.3-0.9,2.5-1.8,3.5c-1,0.9-2.2,1.5-3.5,1.8L869.4,241.4z M877.4,236.4h0.7v-4.3h-0.7V236.4z M871.8,233.2
			c-0.1,0.6-0.3,1.2-0.6,1.8c-0.3,0.6-0.7,1.2-1.1,1.7l0.7,0.4c0.5-0.5,0.9-1.1,1.2-1.8c0.3-0.6,0.6-1.3,0.7-1.9L871.8,233.2z
			 M878.1,231.7c-1.1,0.1-2.2,0.1-3.3,0.1l-3.3,0.1l-3.3,0.1H865l0.1,0.8h3.1l3.3-0.1l3.3-0.1l3.3-0.1L878.1,231.7z M878,226.6
			c-0.2-0.3-0.5-0.6-0.8-0.9c-0.4-0.3-0.8-0.4-1.2-0.6c-0.9-0.3-1.9-0.3-2.9,0c-0.4,0.1-0.8,0.3-1.2,0.6c-0.3,0.2-0.6,0.5-0.8,0.9
			c-0.4,0.7-0.4,1.6,0,2.4c0.2,0.3,0.5,0.6,0.8,0.9c0.4,0.3,0.8,0.4,1.2,0.6c0.9,0.3,1.9,0.3,2.9,0c0.4-0.1,0.8-0.3,1.2-0.6
			c0.3-0.2,0.6-0.5,0.8-0.9C878.4,228.3,878.4,227.4,878,226.6 M871.9,226.9c0.2-0.3,0.4-0.5,0.6-0.6c0.3-0.2,0.6-0.3,0.9-0.4
			c0.8-0.2,1.5-0.2,2.3,0c0.3,0.1,0.6,0.2,0.9,0.4c0.3,0.2,0.5,0.4,0.6,0.6c0.2,0.3,0.2,0.6,0.2,0.9c0,0.3-0.1,0.6-0.2,0.9
			c-0.2,0.3-0.4,0.5-0.6,0.6c-0.3,0.2-0.6,0.3-0.9,0.4c-0.8,0.2-1.5,0.2-2.3,0c-0.3-0.1-0.6-0.2-0.9-0.4c-0.3-0.2-0.5-0.4-0.6-0.6
			c-0.2-0.3-0.2-0.6-0.2-0.9C871.7,227.5,871.7,227.2,871.9,226.9 M873.8,219l-7.2,4.1l0.5,0.6l6.8-3.9l6.8,3.9l0.5-0.6L873.8,219z
			 M873.1,194.7c-0.7-0.1-1.4-0.3-2-0.4s-1.3-0.3-2-0.6l-0.2,0.8c0.7,0.2,1.4,0.4,2,0.5l2,0.4L873.1,194.7z M868.4,202.1
			c0.1,0.3,0.3,0.6,0.6,0.8c0.3,0.2,0.6,0.4,0.9,0.6c0.8,0.3,1.6,0.3,2.4,0c0.3-0.1,0.6-0.3,0.9-0.6c0.2-0.2,0.4-0.5,0.6-0.8
			c0.3-0.6,0.3-1.4,0-2c-0.1-0.3-0.3-0.6-0.6-0.8c-0.3-0.2-0.6-0.4-0.9-0.6c-0.8-0.3-1.6-0.3-2.4,0c-0.3,0.1-0.6,0.3-0.9,0.6
			c-0.2,0.2-0.4,0.5-0.6,0.8C868.1,200.7,868.1,201.5,868.4,202.1 M872.5,202.4c-0.9,0.7-2.2,0.7-3.1,0c-0.7-0.7-0.7-1.9,0-2.6
			c0.9-0.7,2.2-0.7,3.1,0C873.2,200.5,873.2,201.7,872.5,202.4 M874.5,196.4l-1.8,0.1l-2.1,0.1h-2.1h-1.8l0.1,0.8h1.7l2.1-0.1
			l2.1-0.1l1.8-0.1L874.5,196.4z M881.5,198.9h-3.3l-0.4,0.4l0.4,0.4h3.3V198.9z M879.3,207.5l-2,0.1c-0.8,0-1.6,0.1-2.4,0.1h-2.4
			c-0.8,0-1.4,0-2,0v0.8c0.5,0,1.2,0,2,0h2.4l2.4-0.1c0.8,0,1.4,0,2-0.1L879.3,207.5z M870.6,208.3h0.7v-3.2h-0.7V208.3z
			 M877.5,205.1h0.7v-11.8h-0.7V205.1z M865.2,182.5h3.9l4.1-0.1l4.1-0.1c1.3,0,2.6-0.1,3.8-0.1v-0.8l-3.8,0.1
			c-1.3,0-2.7,0.1-4.1,0.1l-4.1,0.1h-3.9L865.2,182.5z M872.7,182.3l-0.1-2.6h-0.8l0.2,2.7L872.7,182.3z M876.5,182.1h0.7v-2.7h-0.7
			V182.1z M875.9,178.7c0.4-0.1,0.8-0.3,1.1-0.6c0.3-0.2,0.5-0.5,0.7-0.9c0.2-0.3,0.3-0.7,0.3-1.1c0-0.4-0.1-0.7-0.3-1.1
			c-0.2-0.3-0.4-0.7-0.7-0.9c-0.3-0.3-0.7-0.5-1.1-0.6c-0.9-0.3-1.9-0.3-2.8,0c-0.4,0.1-0.8,0.3-1.1,0.6c-0.3,0.2-0.5,0.6-0.7,0.9
			c-0.2,0.3-0.2,0.7-0.3,1.1c0,0.4,0.1,0.8,0.3,1.1c0.2,0.3,0.4,0.6,0.7,0.9c0.3,0.3,0.7,0.5,1.1,0.6C874,179,875,179,875.9,178.7
			 M875.6,174.1c0.3,0.1,0.6,0.3,0.8,0.5c0.2,0.2,0.4,0.4,0.5,0.7c0.3,0.5,0.3,1.1,0,1.6c-0.1,0.3-0.3,0.5-0.5,0.7
			c-0.3,0.2-0.5,0.4-0.8,0.5c-0.7,0.2-1.5,0.2-2.2,0c-0.3-0.1-0.6-0.3-0.8-0.5c-0.2-0.2-0.4-0.4-0.5-0.7c-0.3-0.5-0.3-1.1,0-1.6
			c0.1-0.3,0.3-0.5,0.5-0.7c0.3-0.2,0.5-0.4,0.8-0.5C874.1,173.9,874.9,173.9,875.6,174.1 M875.9,189.1c0.4-0.1,0.7-0.3,1-0.6
			c0.3-0.2,0.5-0.5,0.7-0.9c0.3-0.7,0.3-1.4,0-2.1c-0.2-0.3-0.4-0.6-0.7-0.9c-0.3-0.3-0.6-0.4-1-0.6c-0.4-0.1-0.9-0.2-1.3-0.2
			c-0.5,0-0.9,0.1-1.3,0.2c-0.4,0.1-0.7,0.3-1,0.6c-0.3,0.2-0.5,0.5-0.7,0.9c-0.3,0.7-0.3,1.4,0,2.1c0.2,0.3,0.4,0.6,0.7,0.9
			c0.3,0.3,0.6,0.4,1,0.6c0.4,0.1,0.9,0.2,1.3,0.2C875,189.3,875.5,189.3,875.9,189.1 M876.4,185.2c0.8,0.6,0.9,1.7,0.3,2.5
			c-0.1,0.1-0.2,0.2-0.3,0.3c-1.1,0.8-2.6,0.8-3.8,0c-0.8-0.6-0.9-1.7-0.3-2.5c0.1-0.1,0.2-0.2,0.3-0.3
			C873.8,184.4,875.3,184.4,876.4,185.2 M867.3,163.1c1.2-0.8,2.2-1.8,3-3c0.8-1.2,1.3-2.6,1.5-4l-0.8-0.1c-0.1,0.7-0.3,1.4-0.5,2.1
			c-0.2,0.6-0.5,1.2-0.9,1.7c-0.4,0.5-0.8,1-1.2,1.4c-0.5,0.5-1,0.9-1.6,1.3L867.3,163.1z M877.6,158.5H874v0.8h3.6L877.6,158.5z
			 M874.8,162.4l-3.1-3l-0.5,0.6c0.5,0.5,1,0.9,1.5,1.4c0.5,0.5,1,1,1.5,1.6L874.8,162.4z M874.5,155.5l-1.6,0.1l-1.9,0.1l-1.9,0.1
			h-1.6l0.1,0.8h1.6l1.9-0.1l1.9-0.1l1.6-0.1L874.5,155.5z M877.5,163.4h0.7v-10.1h-0.7V163.4z M878.2,164.6l-2,0.1l-2.3,0.1
			l-2.3,0.1h-1.9l0.1,0.8h1.9h2.3l2.3-0.1l2-0.1L878.2,164.6z M877.5,169.6h0.7v-4.5h-0.7V169.6z M866.8,139.4
			c0.7-0.5,1.4-1.1,1.9-1.8c0.5-0.7,1-1.4,1.4-2.2c0.4-0.8,0.7-1.7,0.9-2.6c0.2-0.9,0.4-1.8,0.5-2.8l-0.8-0.1
			c-0.1,0.9-0.2,1.8-0.5,2.7c-0.2,0.8-0.5,1.6-0.8,2.4c-0.4,0.7-0.8,1.4-1.3,2.1c-0.5,0.7-1.2,1.2-1.9,1.7L866.8,139.4z
			 M874.6,139.1l-2.9-4.1l-0.6,0.5c0.5,0.6,0.9,1.3,1.4,2c0.5,0.7,1,1.4,1.4,2.1L874.6,139.1z M877.6,133.6h-3.9v0.8h3.9V133.6z
			 M877.5,143.9h0.7v-16.6h-0.7V143.9z M866.6,116.5c0.1,0.4,0.4,0.8,0.6,1.1c0.3,0.3,0.6,0.6,1,0.7c0.8,0.3,1.7,0.3,2.4,0
			c0.4-0.2,0.7-0.4,1-0.7c0.3-0.3,0.5-0.7,0.6-1.1c0.3-0.9,0.3-1.9,0-2.9c-0.1-0.4-0.4-0.8-0.6-1.1c-0.3-0.3-0.6-0.6-1-0.7
			c-0.8-0.3-1.7-0.3-2.4,0c-0.4,0.2-0.7,0.4-1,0.7c-0.3,0.3-0.5,0.7-0.6,1.1C866.2,114.6,866.2,115.6,866.6,116.5 M867.7,113.1
			c0.8-0.9,2.2-1,3.1-0.2c0.1,0.1,0.1,0.1,0.2,0.2c0.9,1.2,0.9,2.8,0,4.1c-0.8,0.9-2.2,1-3.1,0.2c-0.1-0.1-0.1-0.1-0.2-0.2
			C866.8,115.9,866.8,114.3,867.7,113.1 M875.1,114.6h-2.3v0.8h2.3V114.6z M874.6,121.9h0.7v-13.4h-0.7V121.9z M877.5,123.9h0.7
			v-16.6h-0.7V123.9z M865.2,96h3.9l4.1-0.1l4.1-0.1c1.3,0,2.6-0.1,3.8-0.1v-0.8l-3.8,0.2c-1.3,0-2.7,0.1-4.1,0.1l-4.1,0.1h-3.9
			L865.2,96z M874.2,103.3h0.8v-8.1h-0.7L874.2,103.3z M878.2,87.9l-1.9,0.1l-2.2,0.1h-2.1h-1.8l0.1,0.8h1.6h2h2l1.7-0.1L878.2,87.9
			z M877,93.9c0.3-1,0.6-2,0.8-3c0.2-1,0.4-2,0.5-3.1l-0.8,0.3c0,0.4,0,0.8-0.1,1.3c-0.1,0.5-0.2,0.9-0.3,1.4
			c-0.1,0.5-0.2,1-0.3,1.4c-0.1,0.5-0.3,0.9-0.4,1.4L877,93.9z M877.9,74.9h-3.4v0.8h3.4V74.9z M877.9,70.6h-3.4v0.8h3.4V70.6z
			 M867.5,73.8c0.2,0.4,0.4,0.7,0.7,1c0.3,0.3,0.6,0.5,1,0.7c0.8,0.3,1.7,0.3,2.5,0c0.4-0.2,0.7-0.4,1-0.7c0.3-0.3,0.5-0.6,0.7-1
			c0.3-0.8,0.3-1.7,0-2.5c-0.2-0.4-0.4-0.7-0.7-1c-0.3-0.3-0.6-0.5-1-0.7c-0.8-0.3-1.7-0.3-2.5,0c-0.4,0.2-0.7,0.4-1,0.7
			c-0.3,0.3-0.5,0.6-0.7,1C867.2,72.1,867.2,73,867.5,73.8 M868.2,71.6c0.1-0.3,0.3-0.6,0.5-0.8c0.2-0.2,0.5-0.4,0.8-0.5
			c0.6-0.3,1.4-0.3,2,0c0.3,0.1,0.6,0.3,0.8,0.5c0.9,1,0.9,2.5,0,3.5c-0.2,0.2-0.5,0.4-0.8,0.5c-0.6,0.3-1.4,0.3-2,0
			c-0.3-0.1-0.6-0.3-0.8-0.5c-0.2-0.2-0.4-0.5-0.5-0.8C868,72.9,868,72.2,868.2,71.6 M879.3,81.5l-2,0.1c-0.8,0-1.6,0.1-2.4,0.1
			h-2.4c-0.8,0-1.4,0-2,0v0.8c0.5,0,1.2,0,2,0h2.4l2.4-0.1c0.8,0,1.4,0,2-0.1L879.3,81.5z M870.6,82.3h0.7v-4.2h-0.7V82.3z
			 M877.4,79.1h0.7V67.2h-0.7V79.1z M871.8,52.3c0.4-0.2,0.8-0.5,1.1-0.8c0.3-0.3,0.6-0.7,0.7-1.2c0.3-0.9,0.3-1.9,0-2.9
			c-0.2-0.4-0.4-0.8-0.7-1.2c-1.3-1.4-3.5-1.4-4.8-0.2c-0.1,0-0.1,0.1-0.2,0.2c-0.3,0.3-0.6,0.7-0.7,1.2c-0.3,0.9-0.3,1.9,0,2.9
			c0.2,0.4,0.4,0.8,0.7,1.2c0.3,0.3,0.7,0.6,1.1,0.8C869.9,52.7,870.9,52.7,871.8,52.3 M871.5,46.2c0.3,0.1,0.6,0.4,0.9,0.6
			c0.2,0.3,0.4,0.6,0.5,0.9c0.3,0.8,0.3,1.6,0,2.3c-0.1,0.3-0.3,0.7-0.5,0.9c-0.2,0.3-0.5,0.5-0.9,0.6c-0.7,0.3-1.5,0.3-2.3,0
			c-0.3-0.1-0.6-0.4-0.9-0.6c-0.2-0.3-0.4-0.6-0.5-0.9c-0.3-0.8-0.3-1.6,0-2.3c0.1-0.3,0.3-0.7,0.5-0.9c0.2-0.3,0.5-0.5,0.9-0.6
			C870,45.9,870.8,45.9,871.5,46.2 M877.5,57.9h0.7V41.2h-0.7V57.9z"/>
		<path class="st1" d="M936.9,173.6c0.2,0.5,0.6,0.9,1.1,1.1c0.5,0.2,1.1,0.2,1.6,0c0.2-0.1,0.5-0.3,0.7-0.4c0.8-0.8,0.8-2.1,0-2.9
			c-0.2-0.2-0.4-0.3-0.7-0.4c-0.5-0.2-1.1-0.2-1.6,0C937,171.3,936.5,172.6,936.9,173.6 M939.8,173.7c-0.5,0.5-1.4,0.5-1.9,0
			c-0.5-0.5-0.5-1.4,0-1.9c0.5-0.5,1.4-0.5,1.9,0C940.3,172.4,940.3,173.2,939.8,173.7 M939.8,164.8l-4.4-2.8l-0.4,0.7
			c0.7,0.4,1.4,0.9,2.2,1.4l2.2,1.5L939.8,164.8z M929.4,165.5c1.4-0.3,2.7-1,3.7-2c1-1.1,1.7-2.3,2-3.8l-0.7-0.2
			c-0.3,1.3-0.9,2.5-1.8,3.5c-1,0.9-2.2,1.5-3.5,1.8L929.4,165.5z M937.4,160.5h0.7v-4.4h-0.7V160.5z M931.8,157.3
			c-0.1,0.6-0.3,1.2-0.6,1.8c-0.3,0.6-0.7,1.2-1.2,1.6l0.7,0.4c0.5-0.5,0.9-1.1,1.2-1.8c0.3-0.6,0.6-1.3,0.7-1.9L931.8,157.3z
			 M938.1,155.8c-1.1,0.1-2.2,0.1-3.3,0.1l-3.3,0.1l-3.3,0.1H925l0.1,0.8h3.1l3.3-0.1l3.3-0.1l3.3-0.1L938.1,155.8z M937.9,150.7
			c-0.2-0.3-0.5-0.6-0.8-0.9c-0.4-0.3-0.8-0.4-1.2-0.6c-0.9-0.3-1.9-0.3-2.9,0c-0.4,0.1-0.8,0.3-1.2,0.6c-0.3,0.2-0.6,0.5-0.8,0.9
			c-0.4,0.7-0.4,1.6,0,2.4c0.2,0.3,0.5,0.6,0.8,0.9c0.4,0.3,0.8,0.4,1.2,0.6c0.9,0.3,1.9,0.3,2.9,0c0.4-0.1,0.8-0.3,1.2-0.6
			c0.3-0.2,0.6-0.5,0.8-0.9C938.3,152.3,938.3,151.4,937.9,150.7 M931.8,151c0.2-0.3,0.4-0.5,0.6-0.6c0.3-0.2,0.6-0.3,0.9-0.4
			c0.8-0.2,1.5-0.2,2.3,0c0.3,0.1,0.6,0.2,0.9,0.4c0.3,0.2,0.5,0.4,0.6,0.6c0.3,0.6,0.3,1.2,0,1.8c-0.2,0.3-0.4,0.5-0.6,0.6
			c-0.3,0.2-0.6,0.3-0.9,0.4c-0.8,0.2-1.5,0.2-2.3,0c-0.3-0.1-0.6-0.2-0.9-0.4c-0.3-0.2-0.5-0.4-0.6-0.6
			C931.5,152.2,931.5,151.5,931.8,151 M934.9,132.2h-0.6v16h0.6L934.9,132.2z M931,117.2c0.2,0.4,0.5,0.7,0.8,1
			c0.4,0.3,0.8,0.5,1.2,0.6c0.9,0.3,1.9,0.3,2.9,0c0.4-0.1,0.8-0.4,1.2-0.6c0.3-0.3,0.6-0.6,0.8-1c0.4-0.8,0.4-1.8,0-2.6
			c-0.2-0.4-0.5-0.7-0.8-1c-0.4-0.3-0.8-0.5-1.2-0.6c-0.9-0.3-1.9-0.3-2.9,0c-0.4,0.1-0.8,0.4-1.2,0.6c-0.3,0.3-0.6,0.6-0.8,1
			C930.7,115.4,930.7,116.3,931,117.2 M931.7,114.9c0.2-0.3,0.4-0.6,0.6-0.8c0.3-0.2,0.6-0.4,1-0.5c0.8-0.2,1.6-0.2,2.3,0
			c0.3,0.1,0.7,0.3,0.9,0.5c0.3,0.2,0.5,0.5,0.6,0.8c0.3,0.6,0.3,1.4,0,2c-0.2,0.3-0.4,0.5-0.6,0.8c-0.3,0.2-0.6,0.4-0.9,0.5
			c-0.8,0.2-1.6,0.2-2.3,0c-0.3-0.1-0.7-0.3-1-0.5c-0.3-0.2-0.5-0.5-0.6-0.8C931.4,116.3,931.4,115.5,931.7,114.9 M937.4,128.6h0.7
			v-7.3h-0.7V128.6z M932,123.1c-0.3,0.9-0.7,1.8-1.2,2.6c-0.5,0.9-1.1,1.7-1.7,2.4l0.7,0.4c0.6-0.8,1.2-1.6,1.7-2.5
			c0.5-0.9,0.9-1.7,1.2-2.7L932,123.1z M938.2,121.1c-1.1,0.1-2.2,0.1-3.3,0.1l-3.3,0.1l-3.3,0.1h-3.2l0.1,0.8h3.1l3.3-0.1l3.3-0.1
			l3.3-0.1L938.2,121.1z M937.3,100.1l0.9,0.7c0.3,0.3,0.6,0.5,0.9,0.8l0.9,0.9c0.3,0.3,0.6,0.6,0.8,0.8l0.8-0.8l-0.8-0.8l-1-0.8
			l-1-0.8c-0.3-0.3-0.6-0.5-0.9-0.7L937.3,100.1z M925.2,86.5h3.9l4.1-0.1l4.1-0.1l3.8-0.1v-0.8l-3.8,0.2c-1.3,0-2.7,0.1-4.1,0.1
			l-4.1,0.1h-3.9L925.2,86.5z M931.2,81.9c0.2,0.4,0.4,0.7,0.8,0.9c0.3,0.3,0.7,0.5,1.1,0.6c0.9,0.3,1.9,0.3,2.8,0
			c0.4-0.1,0.8-0.3,1.1-0.6c0.3-0.2,0.6-0.6,0.8-0.9c0.4-0.7,0.4-1.6,0-2.3c-0.2-0.4-0.4-0.7-0.8-0.9c-0.3-0.3-0.7-0.5-1.1-0.6
			c-0.9-0.3-1.9-0.3-2.8,0c-0.4,0.1-0.8,0.3-1.1,0.6c-0.3,0.2-0.6,0.6-0.8,0.9C930.9,80.4,930.9,81.2,931.2,81.9 M931.9,79.9
			c0.2-0.3,0.4-0.5,0.6-0.7c0.3-0.2,0.6-0.3,0.9-0.4c0.7-0.2,1.5-0.2,2.2,0c0.3,0.1,0.6,0.2,0.9,0.4c0.2,0.2,0.4,0.4,0.6,0.7
			c0.3,0.5,0.3,1.2,0,1.8c-0.2,0.3-0.4,0.5-0.6,0.7c-0.3,0.2-0.6,0.3-0.9,0.4c-0.7,0.2-1.5,0.2-2.2,0c-0.3-0.1-0.6-0.2-0.9-0.4
			c-0.2-0.2-0.4-0.4-0.6-0.7C931.6,81.1,931.6,80.5,931.9,79.9 M939.7,93.4l-4.4-3l-0.4,0.6c0.7,0.4,1.4,0.9,2.1,1.5l2.2,1.6
			L939.7,93.4z M929.5,94c1.3-0.3,2.5-0.9,3.4-1.8c0.9-0.9,1.6-2,1.9-3.2l-0.7-0.2c-0.3,1.1-0.9,2.2-1.8,3c-0.9,0.8-2,1.3-3.3,1.6
			L929.5,94z M934.1,88.3h0.7v-2.4h-0.7V88.3z M935,60.8h-0.6v16h0.6V60.8z M925.2,50.7h3.9l4.1-0.1l4.1-0.1l3.8-0.1v-0.8l-3.8,0.2
			c-1.3,0-2.7,0.1-4.1,0.1l-4.1,0.1h-3.9L925.2,50.7z M931.1,45.9c0.2,0.4,0.5,0.7,0.8,1c0.3,0.3,0.7,0.5,1.2,0.6c1,0.3,2,0.3,2.9,0
			c0.4-0.1,0.8-0.4,1.2-0.6c0.3-0.3,0.6-0.6,0.8-1c0.6-1.2,0.3-2.7-0.8-3.6c-0.3-0.3-0.7-0.5-1.2-0.6c-1-0.3-2-0.3-2.9,0
			c-0.4,0.1-0.8,0.4-1.2,0.6C930.8,43.2,930.5,44.6,931.1,45.9 M936.6,46.3c-1.3,0.8-3,0.8-4.3,0c-1-0.8-1.1-2.2-0.3-3.2
			c0.1-0.1,0.2-0.2,0.3-0.3c1.3-0.8,3-0.8,4.3,0c1,0.8,1.1,2.2,0.3,3.2C936.9,46.1,936.8,46.2,936.6,46.3 M934.2,57.3h0.8v-7.4h-0.7
			L934.2,57.3z"/>
		<line class="st2" x1="654.8" y1="40.4" x2="654.8" y2="460.4"/>
		<line class="st2" x1="0" y1="0.3" x2="943.3" y2="0.3"/>
	</g>
</g>
<rect y="40.4" class="st3" width="626.6" height="420"/>
<g>
	<defs>
		<rect id="SVGID_3_" width="943.3" height="460.4"/>
	</defs>
	<clipPath id="SVGID_4_">
		<use xlink:href="#SVGID_3_"  style="overflow:visible;"/>
	</clipPath>
	<g class="st4">
		<line class="st5" x1="503.8" y1="40.4" x2="503.8" y2="460.4"/>
		<line class="st5" x1="408.4" y1="40.4" x2="408.4" y2="460.4"/>
		<line class="st5" x1="313" y1="40.4" x2="313" y2="460.4"/>
		<line class="st5" x1="217.5" y1="40.4" x2="217.5" y2="460.4"/>
		<line class="st5" x1="122.1" y1="40.4" x2="122.1" y2="460.4"/>
		<line class="st5" x1="26.6" y1="40.4" x2="26.6" y2="460.4"/>
		<line class="st5" x1="599.3" y1="40.4" x2="599.3" y2="460.4"/>
		<path class="st6" d="M51.1,333.7c4.5-3.7,8.3-8.1,11.4-13c3-5.1,5.2-10.5,6.5-16.3l-2.8-0.2c-0.7,2.8-1.5,5.5-2.5,8.1
			c-0.9,2.5-2.1,4.8-3.5,7.1c-1.4,2.3-3,4.4-4.8,6.3c-1.9,2.1-4,4.1-6.3,6L51.1,333.7z M102.8,316.4h-12l-1.4,1.3l1.4,1.5l12,0.1
			V316.4z M81.7,330.4l-13.9-13.1l-1.9,2.1c0.9,0.8,1.9,1.8,3.1,2.8c1.2,1.1,2.3,2.2,3.6,3.4c1.2,1.2,2.4,2.4,3.6,3.6
			s2.3,2.3,3.3,3.4L81.7,330.4z M78.7,302.2l-6,0.3c-2.4,0.1-4.9,0.2-7.4,0.3c-2.5,0.1-5,0.1-7.4,0.2c-2.4,0-4.4,0.1-6,0.1l0.2,2.8
			c1.6,0,3.6,0,5.9-0.1c2.4,0,4.8-0.1,7.3-0.2c2.5-0.1,5-0.2,7.4-0.3c2.4-0.1,4.4-0.2,6-0.3L78.7,302.2z M88.1,348.5h2.7v-60h-2.7
			L88.1,348.5z M80.9,244.1l-12.7-9.6l-1.6,2.2c2.2,1.6,4.2,3.2,6.2,4.8l6.4,5L80.9,244.1z M51.6,249.4c2.4-1.6,4.6-3.4,6.5-5.4
			c1.9-1.9,3.5-4.1,4.8-6.4c1.3-2.4,2.4-4.9,3.2-7.6c0.9-2.9,1.5-5.9,1.9-8.9l-2.6-0.4c-0.4,2.9-1,5.7-1.8,8.5
			c-0.7,2.4-1.7,4.8-2.9,6.9c-1.2,2.1-2.7,4.1-4.5,5.8c-1.9,1.9-4,3.7-6.3,5.2L51.6,249.4z M88.1,249.2h2.7v-32.7h-2.7V249.2z
			 M68.9,268c0.6,1.3,1.5,2.5,2.5,3.5c1.1,1,2.3,1.8,3.7,2.3c2.9,1.2,6.1,1.2,9,0c1.4-0.5,2.6-1.3,3.7-2.3c1-1,1.9-2.2,2.5-3.5
			c1.2-2.7,1.2-5.8,0-8.6c-0.6-1.3-1.5-2.5-2.5-3.5c-1.1-1-2.3-1.8-3.7-2.3c-2.9-1.2-6.1-1.2-9,0c-1.4,0.5-2.6,1.3-3.7,2.3
			c-1.1,1-1.9,2.2-2.5,3.5C67.7,262.2,67.7,265.3,68.9,268 M87.9,267c-0.4,1-1.1,1.9-1.9,2.6c-3.6,3.2-9.1,3.2-12.7,0
			c-0.8-0.7-1.5-1.6-1.9-2.6c-0.9-2.1-0.9-4.5,0-6.5c0.4-1,1.1-1.9,1.9-2.7c3.6-3.2,9.1-3.2,12.7,0c0.8,0.7,1.5,1.6,1.9,2.7
			C88.8,262.5,88.8,264.9,87.9,267 M102.8,235h-12l-1.4,1.3l1.4,1.5l12,0.1V235z M79.3,185.2c-1.9,0.3-3.9,0.6-6,0.8
			s-4.3,0.5-6.6,0.7c-2.2,0.2-4.4,0.4-6.6,0.6c-2.2,0.2-4.2,0.3-6.1,0.3v-14.2h-2.7v17c2,0,4.2-0.2,6.6-0.3c2.4-0.2,4.9-0.3,7.5-0.6
			c2.5-0.2,5.1-0.4,7.5-0.7c2.5-0.3,4.7-0.6,6.7-0.8L79.3,185.2z M88.1,204.5h2.7v-60h-2.7V204.5z M75,171.2
			c-3.8,0.3-7.8,0.6-12,0.6s-8.1,0.2-11.7,0.2v2.8c1.8,0,3.7,0,5.7-0.1c2,0,4-0.1,6.1-0.2l6.1-0.2c2-0.1,4-0.2,5.9-0.3L75,171.2z
			 M72.3,172.6H75v-14.5h-2.6L72.3,172.6z M75,156.8c-4,0.2-8.1,0.4-12.3,0.4s-8.2,0.2-12,0.2l0.2,2.8c3.7,0,7.7-0.1,11.9-0.2
			c4.2-0.1,8.3-0.2,12.2-0.4L75,156.8z M65.3,89.1c0.7,1.4,1.6,2.6,2.8,3.6c1.3,1,2.7,1.8,4.3,2.3c3.4,1.1,7,1.1,10.4,0
			c1.5-0.5,3-1.3,4.3-2.3c1.2-1,2.2-2.2,2.8-3.6c1.4-2.9,1.4-6.3,0-9.3c-0.7-1.4-1.7-2.6-2.8-3.6c-1.3-1-2.7-1.8-4.3-2.3
			c-3.4-1.1-7-1.1-10.4,0c-1.5,0.5-3,1.3-4.3,2.3c-1.2,1-2.2,2.2-2.8,3.6C64,82.7,64,86.1,65.3,89.1 M67.8,80.9
			c0.6-1.1,1.3-2,2.3-2.7c1-0.8,2.2-1.3,3.4-1.7c2.7-0.8,5.6-0.8,8.3,0c1.2,0.4,2.4,1,3.4,1.7c0.9,0.7,1.7,1.6,2.3,2.7
			c1.1,2.2,1.1,4.8,0,7c-0.6,1-1.4,2-2.3,2.7c-1,0.8-2.2,1.4-3.4,1.7c-2.7,0.8-5.6,0.8-8.3,0c-1.2-0.4-2.4-1-3.4-1.7
			c-1-0.7-1.7-1.6-2.3-2.7C66.7,85.7,66.7,83.1,67.8,80.9 M88.1,130.3h2.7v-26.1h-2.7L88.1,130.3z M68.6,110.3
			c-1.1,3.3-2.5,6.4-4.2,9.4c-1.8,3.1-3.8,6.1-6.2,8.8l2.5,1.5c2.3-2.9,4.4-5.9,6.2-9.1c1.8-3.1,3.2-6.3,4.4-9.7L68.6,110.3z
			 M90.8,103c-3.8,0.2-7.8,0.4-11.8,0.5s-8,0.2-12,0.3c-4,0.1-8,0.2-11.9,0.2c-3.9,0.1-7.7,0.1-11.4,0.1L44,107l11.3-0.1
			c3.9,0,7.8-0.1,11.8-0.2s8-0.2,12-0.4l11.7-0.4L90.8,103z"/>
		<path class="st6" d="M140,321.3c4.5,0,9.2,0,14.1-0.1c4.9-0.1,9.9-0.2,14.8-0.3c4.9-0.1,9.8-0.3,14.7-0.4s9.4-0.3,13.8-0.5
			l0.1-2.8c-4.4,0.2-9,0.4-13.9,0.5c-4.9,0.2-9.8,0.3-14.8,0.4c-5,0.1-9.9,0.2-14.9,0.3c-4.9,0.1-9.7,0.1-14.2,0.1L140,321.3z
			 M190,339.9c-1.9,0.1-4.3,0.3-7.1,0.4c-2.8,0.1-5.7,0.2-8.7,0.3c-3,0.1-5.9,0.1-8.7,0.1c-2.8,0-5.3,0-7.3-0.1v2.8
			c2,0.1,4.4,0.1,7.2,0.1c2.8,0,5.7-0.1,8.8-0.1c3-0.1,5.9-0.2,8.7-0.3c2.8-0.1,5.2-0.3,7.1-0.4V339.9z M189.3,304.4
			c-1.9,0.1-4.3,0.3-7,0.4c-2.7,0.1-5.6,0.2-8.4,0.3c-2.9,0.1-5.7,0.1-8.5,0.1s-5.1,0-7.2-0.1v2.8c2,0.1,4.4,0.1,7.1,0.1
			s5.6-0.1,8.5-0.1c2.9-0.1,5.7-0.2,8.5-0.3c2.7-0.1,5.1-0.3,7-0.4L189.3,304.4z M158.3,308h2.7v-17.4h-2.7L158.3,308z M158.3,343.5
			h2.7v-15.6h-2.7L158.3,343.5z M166.9,244.8h2.7v-18.2h-2.7V244.8z M171.9,236.1h13.8v-2.8h-13.8L171.9,236.1z M148.5,244.4
			l2.7-0.7v-18.5h-2.7L148.5,244.4z M169.6,224.7c-3.3,0.2-6.8,0.3-10.5,0.4c-3.7,0-7.2,0.1-10.6,0.1l0.2,2.7c3.3,0,6.8,0,10.4-0.1
			c3.6,0,7.1-0.1,10.5-0.3L169.6,224.7z M169.6,243.3h-21.1v2.8h21.1L169.6,243.3z M184.2,250h2.7v-33.5h-2.7V250z M186.8,255.6
			c-2,0.1-4.3,0.2-7,0.3s-5.4,0.2-8.2,0.2l-8.2,0.2c-2.7,0.1-4.9,0.1-6.8,0.1l0.2,2.8c1.9,0,4.1,0,6.7-0.1s5.3-0.1,8.1-0.2
			c2.8-0.1,5.5-0.2,8.2-0.3c2.7-0.1,5-0.2,6.9-0.3L186.8,255.6z M184.1,275h2.7v-17.6h-2.7V275z M161.3,191
			c3.9-4.4,7.2-9.3,9.9-14.5c2.8-5.5,4.8-11.3,5.9-17.4L174,160c-0.5,2.6-1.3,5.3-2.2,7.8c-0.9,2.6-2,5.2-3.3,7.7
			c-1.3,2.5-2.7,4.9-4.3,7.2c-1.5,2.3-3.2,4.4-5,6.5L161.3,191z M177.1,159.1l-4.1,0.3c-1.2,0.1-2.4,0.1-3.5,0.2s-2.3,0.1-3.4,0.1
			c-1.1,0-2.3,0-3.6,0l0.2,2.8l6.3-0.1c1.9,0,3.8-0.1,5.8-0.3L177.1,159.1z M160.5,159.1l-4.1,0.3c-1.2,0.1-2.4,0.1-3.5,0.2
			s-2.3,0.1-3.4,0.1c-1.1,0-2.3,0-3.6,0l0.2,2.8l6.3-0.1c1.9,0,3.8-0.1,5.8-0.3L160.5,159.1z M144.8,187.6c2-2,3.8-4,5.6-6.2
			c1.6-2.1,3.1-4.3,4.4-6.6c1.3-2.3,2.4-4.8,3.4-7.3c1-2.7,1.8-5.5,2.3-8.4l-3.1,0.9c-1,4.9-2.8,9.5-5.2,13.8
			c-2.6,4.4-5.8,8.4-9.5,12L144.8,187.6z M198.8,173.1h-12l-1.4,1.3l1.4,1.5l12,0.1V173.1z M184.1,204.5h2.7v-60h-2.7V204.5z
			 M187.1,73.8c-2,0.1-4.3,0.2-6.9,0.3c-2.6,0.1-5.3,0.2-8,0.2l-7.9,0.1c-2.5,0-4.8,0.1-6.6,0.1l0.2,2.8c1.7,0,3.7,0,6-0.1l7.2-0.1
			l7.3-0.1c2.4,0,4.5-0.1,6.3-0.2L187.1,73.8z M184.8,89.4c0.3-1.3,0.6-2.6,0.9-3.8c0.2-1.2,0.4-2.4,0.6-3.6
			c0.2-1.2,0.3-2.5,0.5-3.8c0.1-1.3,0.3-2.8,0.4-4.4l-2.9,0.9c-0.1,2.3-0.3,4.7-0.6,7c-0.3,2.1-0.8,4.4-1.4,6.9L184.8,89.4z
			 M162.8,96.6c-0.7,2-1.7,3.9-3,5.6c-1.4,1.8-3.1,3.4-4.9,4.8l2.1,1.8c1.9-1.5,3.6-3.2,5.1-5.1c1.4-1.8,2.5-3.9,3.3-6.1L162.8,96.6
			z M184.1,103h2.7V93h-2.7V103z M186.8,91.8C183,92,179,92.2,175,92.3c-4,0.1-8,0.2-12,0.3c-4,0.1-8,0.2-11.9,0.2
			c-3.9,0.1-7.7,0.1-11.4,0.1l0.3,2.8l11.3-0.1c3.9,0,7.8-0.1,11.8-0.2s8-0.2,12-0.4l11.7-0.4L186.8,91.8z M190.8,126
			c-1.9,0.1-4.3,0.3-7,0.4c-2.7,0.1-5.6,0.2-8.4,0.3c-2.9,0.1-5.7,0.1-8.5,0.1c-2.8,0-5.1,0-7.2-0.1v2.8c2,0.1,4.4,0.1,7.1,0.1
			c2.7,0,5.6-0.1,8.5-0.1c2.9-0.1,5.7-0.2,8.5-0.3s5.1-0.3,7-0.4L190.8,126z M159.8,128.1h2.7v-10.5h-2.7V128.1z M186.9,115.5
			c-1.9,0.1-4.1,0.2-6.4,0.3s-4.8,0.2-7.2,0.2c-2.4,0.1-4.8,0.1-7.2,0.2c-2.3,0-4.4,0.1-6.2,0.1v2.7c1.8,0,3.8,0,6.2-0.1
			c2.3,0,4.7-0.1,7.2-0.2c2.4-0.1,4.9-0.2,7.2-0.3l6.5-0.3L186.9,115.5z M184.2,116.8h2.7v-10.5h-2.7V116.8z M162.8,108.6l5.8-0.1
			c2.1,0,4.2-0.1,6.3-0.2c2.1-0.1,4.2-0.1,6.3-0.2c2,0,3.9-0.1,5.6-0.2V105c-1.7,0.1-3.6,0.2-5.7,0.3l-6.3,0.2
			c-2.2,0.1-4.3,0.1-6.4,0.2l-5.9,0.1L162.8,108.6z"/>
		<path class="st6" d="M283.2,146.9c-2,0.1-4.3,0.2-6.8,0.3c-2.5,0.1-5.1,0.2-7.8,0.2l-7.7,0.1c-2.5,0-4.6,0.1-6.5,0.1l0.2,2.8
			c1.7,0,3.6,0,5.9-0.1l7-0.1l7.1-0.1c2.3,0,4.4-0.1,6.2-0.2L283.2,146.9z M279.2,167.1c1-3.2,1.9-6.4,2.5-9.7
			c0.7-3.4,1.2-6.9,1.5-10.5l-2.9,0.9c-0.2,3.1-0.6,6.2-1.3,9.3c-0.6,3.1-1.4,6.2-2.5,9.2L279.2,167.1z M280.1,202.3h2.7v-29h-2.7
			V202.3z M260,179c-0.4,1.7-1,3.6-1.6,5.5c-0.6,1.9-1.4,3.8-2.2,5.8c-0.8,1.9-1.7,3.8-2.6,5.6s-1.9,3.5-2.8,5l2.6,1.4
			c0.9-1.5,1.8-3.2,2.8-5.1c0.9-1.9,1.8-3.8,2.6-5.8c0.8-2,1.6-4,2.3-6s1.3-3.9,1.7-5.8L260,179z M282.8,171.9
			c-3.8,0.2-7.8,0.4-11.8,0.5s-8,0.2-12,0.4c-4,0.1-8,0.2-11.9,0.2c-3.9,0.1-7.7,0.1-11.4,0.1l0.3,2.8l11.3-0.1
			c3.9,0,7.8-0.1,11.8-0.2c4-0.1,8-0.2,12-0.4l11.7-0.4L282.8,171.9z M236,104c4.5,0,9.2,0,14.1-0.1c4.9-0.1,9.9-0.2,14.8-0.3
			c4.9-0.1,9.8-0.3,14.7-0.4c4.9-0.1,9.4-0.3,13.8-0.5l0.1-2.8c-4.4,0.2-9,0.4-13.9,0.5c-4.9,0.2-9.8,0.3-14.8,0.4
			s-9.9,0.2-14.9,0.3s-9.7,0.1-14.2,0.1L236,104z M268.6,130.4h2.7v-29h-2.7V130.4z M283.2,74.9c-2,0.1-4.3,0.2-6.8,0.3
			s-5.1,0.2-7.8,0.2l-7.7,0.1c-2.5,0-4.6,0.1-6.5,0.1l0.2,2.8c1.7,0,3.6,0,5.9-0.1l7-0.1l7.1-0.1c2.3,0,4.4-0.1,6.2-0.2L283.2,74.9z
			 M278.8,96.6c1.1-3.5,2-7,2.7-10.6c0.7-3.7,1.3-7.3,1.6-11.1l-2.9,0.9c-0.1,1.4-0.3,3-0.5,4.7c-0.2,1.7-0.5,3.4-0.9,5.1
			c-0.4,1.7-0.8,3.5-1.2,5.2c-0.5,1.7-0.9,3.4-1.5,5L278.8,96.6z"/>
		<path class="st6" d="M353.4,365c0.7,1.4,1.6,2.6,2.8,3.6c1.3,1,2.7,1.8,4.3,2.3c3.4,1.1,7,1.1,10.4,0c1.5-0.5,3-1.3,4.3-2.3
			c1.2-1,2.2-2.2,2.8-3.6c1.4-2.9,1.4-6.3,0-9.3c-0.7-1.4-1.7-2.6-2.8-3.6c-1.3-1-2.7-1.8-4.3-2.3c-3.4-1.1-7-1.1-10.4,0
			c-1.5,0.5-3,1.3-4.3,2.3c-1.2,1-2.2,2.2-2.8,3.6C352,358.7,352,362.1,353.4,365 M355.8,356.9c0.6-1.1,1.3-2,2.3-2.7
			c1-0.8,2.2-1.3,3.4-1.7c2.7-0.8,5.6-0.8,8.3,0c1.2,0.4,2.4,1,3.4,1.7c0.9,0.7,1.7,1.6,2.3,2.7c1.1,2.2,1.1,4.8,0,7
			c-0.6,1-1.4,2-2.3,2.7c-1,0.8-2.2,1.4-3.4,1.7c-2.7,0.8-5.6,0.8-8.3,0c-1.2-0.4-2.4-1-3.4-1.7c-1-0.7-1.7-1.6-2.3-2.7
			C354.7,361.7,354.7,359.1,355.8,356.9 M376.1,406.3h2.7v-26.1h-2.7V406.3z M356.6,386.3c-1.1,3.3-2.5,6.4-4.2,9.4
			c-1.8,3.1-3.8,6.1-6.2,8.8l2.5,1.5c2.3-2.9,4.3-5.9,6.2-9.1c1.8-3.1,3.2-6.3,4.4-9.6L356.6,386.3z M378.8,379
			c-3.8,0.2-7.8,0.4-11.8,0.5s-8,0.2-12,0.4c-4,0.1-8,0.2-11.9,0.2c-3.9,0.1-7.7,0.1-11.4,0.1l0.3,2.8l11.3-0.1
			c3.9,0,7.8-0.1,11.8-0.2c4-0.1,8-0.2,12-0.4l11.7-0.4L378.8,379z M332,310.5c4.5,0,9.2,0,14.1-0.1c4.9-0.1,9.9-0.2,14.8-0.3
			c4.9-0.1,9.8-0.3,14.7-0.4s9.4-0.3,13.8-0.5l0.1-2.8c-4.4,0.2-9,0.4-13.9,0.5c-4.9,0.2-9.8,0.3-14.8,0.4c-5,0.1-9.9,0.2-14.9,0.3
			c-4.9,0.1-9.7,0.1-14.2,0.1L332,310.5z M353.3,293.2c0.7,1.4,1.6,2.6,2.8,3.6c1.3,1,2.7,1.8,4.3,2.3c3.4,1.1,7.1,1.1,10.5,0
			c1.6-0.5,3-1.3,4.3-2.3c1.2-1,2.1-2.2,2.8-3.6c1.3-3,1.3-6.4,0-9.4c-0.7-1.4-1.6-2.6-2.8-3.6c-1.3-1-2.7-1.8-4.3-2.3
			c-3.4-1.1-7.1-1.1-10.5,0c-1.6,0.5-3,1.3-4.3,2.3c-1.2,1-2.1,2.2-2.8,3.6C352,286.8,352,290.2,353.3,293.2 M373.3,294.8
			c-4.6,3-10.6,3-15.3,0c-3.5-2.8-4.1-7.9-1.3-11.4c0.4-0.5,0.8-0.9,1.3-1.3c4.6-3,10.6-3,15.3,0c3.5,2.8,4.1,7.9,1.3,11.4
			C374.2,294,373.8,294.5,373.3,294.8 M364.6,334.3h2.7v-26.5h-2.7V334.3z M367.4,212.1h-2v57.6h2V212.1z M379.2,147.2l-3.6,0.3
			c-1.1,0.1-2.1,0.1-3.2,0.2c-1,0-2.1,0.1-3.2,0.1l-3.6,0.1l0.2,2.8l6.7-0.3c2.1-0.1,4.3-0.2,6.7-0.4L379.2,147.2z M361.7,147.6
			c-2.3,0.1-4.8,0.2-7.3,0.2s-4.9,0.1-7.1,0.1l0.2,2.8c1.9,0,4-0.1,6.2-0.1c2.2,0,4.6-0.1,7.2-0.2L361.7,147.6z M376.5,166.3h2.7
			v-18.6h-2.7L376.5,166.3z M358.1,166.1c1.1-2.9,1.9-5.8,2.5-8.8c0.6-3.2,0.9-6.4,1-9.7l-3,1.5c-0.1,2.7-0.4,5.5-0.9,8.2
			c-0.5,2.6-1.3,5.2-2.3,7.7L358.1,166.1z M376.1,202.3h2.7v-27.7h-2.7V202.3z M357.5,179.7c-1.3,3.7-3,7.4-4.9,10.9
			c-1.9,3.5-4,6.8-6.4,9.9l2.5,1.5c1.1-1.4,2.1-3,3.2-4.8c1.1-1.7,2.1-3.5,3.1-5.4c1-1.9,1.9-3.8,2.8-5.7c0.9-1.9,1.7-3.8,2.4-5.6
			L357.5,179.7z M378.8,173.1c-3.8,0.2-7.8,0.4-11.8,0.5c-4,0.1-8,0.2-12,0.4c-4,0.1-8,0.2-11.9,0.2c-3.9,0.1-7.7,0.1-11.4,0.1
			l0.3,2.8l11.3-0.1c3.9,0,7.8-0.1,11.8-0.2s8-0.2,12-0.4l11.7-0.4L378.8,173.1z M332,105.4c4.5,0,9.2,0,14.1-0.1s9.9-0.2,14.8-0.3
			c4.9-0.1,9.8-0.3,14.7-0.4s9.4-0.3,13.8-0.5l0.1-2.8c-4.4,0.2-9,0.4-13.9,0.5c-4.9,0.2-9.8,0.3-14.8,0.4s-9.9,0.2-14.9,0.3
			s-9.7,0.1-14.2,0.1L332,105.4z M379.2,75.2l-3.6,0.3c-1.1,0.1-2.1,0.1-3.2,0.2s-2.1,0.1-3.2,0.1l-3.6,0.1l0.2,2.8l6.7-0.3
			c2.1-0.1,4.3-0.2,6.7-0.4L379.2,75.2z M361.7,75.6c-2.3,0.1-4.8,0.2-7.3,0.2c-2.6,0-4.9,0.1-7.1,0.1l0.2,2.8c1.9,0,4-0.1,6.2-0.1
			c2.2,0,4.6-0.1,7.2-0.2L361.7,75.6z M376.5,94.3h2.7V75.8h-2.7V94.3z M357.9,94.6c1.1-2.9,2-6,2.7-9.1c0.7-3.2,1.1-6.5,1.1-9.9
			l-3,1.5c-0.1,2.8-0.4,5.6-1,8.3c-0.6,2.7-1.4,5.4-2.5,8L357.9,94.6z M364.6,130.3h2.7v-27.6h-2.7V130.3z"/>
		<path class="st6" d="M428,382.5c4.5,0,9.2,0,14.1-0.1c4.9-0.1,9.9-0.2,14.8-0.3c4.9-0.1,9.8-0.3,14.7-0.4s9.4-0.3,13.8-0.5
			l0.1-2.8c-4.4,0.2-9,0.4-13.9,0.5c-4.9,0.2-9.8,0.3-14.8,0.4c-5,0.1-9.9,0.2-14.9,0.3c-4.9,0.1-9.7,0.1-14.2,0.1L428,382.5z
			 M449.3,365.2c0.7,1.4,1.6,2.6,2.8,3.6c1.3,1,2.7,1.8,4.3,2.3c3.4,1.1,7.1,1.1,10.5,0c1.6-0.5,3-1.3,4.3-2.3
			c1.2-1,2.1-2.2,2.8-3.6c1.3-3,1.3-6.4,0-9.4c-0.7-1.4-1.6-2.6-2.8-3.6c-1.3-1-2.7-1.8-4.3-2.3c-3.4-1.1-7.1-1.1-10.5,0
			c-1.6,0.5-3,1.3-4.3,2.3c-1.2,1-2.1,2.2-2.8,3.6C448,358.8,448,362.2,449.3,365.2 M469.3,366.8c-4.6,3-10.6,3-15.3,0
			c-3.5-2.8-4.1-7.9-1.3-11.4c0.4-0.5,0.8-0.9,1.3-1.3c4.6-3,10.6-3,15.3,0c3.5,2.8,4.1,7.9,1.3,11.4
			C470.2,366,469.8,366.5,469.3,366.8 M460.6,406.3h2.7v-26.5h-2.7V406.3z M463.4,284.1h-2v57.6h2V284.1z M476.4,235.8
			c-1.9,0.1-4.2,0.3-6.7,0.4c-2.5,0.1-5.2,0.2-7.9,0.3c-2.7,0.1-5.4,0.1-7.9,0.1c-2.6,0-4.9,0-6.9-0.1v2.8c2,0.1,4.3,0.1,6.8,0.1
			s5.2-0.1,7.9-0.1c2.7-0.1,5.4-0.2,7.9-0.3c2.6-0.1,4.8-0.3,6.7-0.4L476.4,235.8z M447,238h2.7v-9.3H447V238z M474.8,226.6
			c-1.9,0.1-4.1,0.2-6.5,0.3s-4.9,0.2-7.5,0.2c-2.5,0.1-5,0.1-7.4,0.2s-4.5,0.1-6.3,0.1v2.8c1.8,0,3.9,0,6.3-0.1
			c2.4,0,4.9-0.1,7.4-0.2c2.5-0.1,5-0.2,7.5-0.3s4.7-0.2,6.6-0.3L474.8,226.6z M472.1,227.9h2.7v-9.3h-2.7V227.9z M474.8,217.4
			c-2,0.1-4.3,0.2-6.8,0.3c-2.5,0.1-5.1,0.2-7.8,0.2l-7.7,0.2c-2.5,0.1-4.6,0.1-6.5,0.1l0.2,2.8c1.9,0,4,0,6.5-0.1
			c2.4,0,5-0.1,7.6-0.2c2.6-0.1,5.2-0.2,7.7-0.3c2.5-0.1,4.8-0.2,6.7-0.3L474.8,217.4z M480.6,273l-16.3-9.6l-1.4,2.5
			c2.4,1.4,5.1,3,7.9,4.7c2.8,1.7,5.5,3.4,8.1,5L480.6,273z M443.3,275.3c4.7-1,9-3.2,12.7-6.3c3.4-3.1,5.9-7.1,7.2-11.6l-2.6-0.6
			c-0.6,2.1-1.6,4.1-2.7,6c-1.1,1.7-2.4,3.2-3.9,4.5c-1.6,1.3-3.3,2.5-5.2,3.3c-2.1,1-4.3,1.7-6.6,2.3L443.3,275.3z M472.1,259.6
			h2.7v-13.2h-2.7V259.6z M450.5,250.6c-0.4,1.9-1,3.7-1.9,5.4c-0.8,1.6-1.9,3-3.1,4.4l2.4,1.6c1.3-1.5,2.4-3.1,3.2-4.9
			c0.9-1.9,1.6-3.8,2-5.9L450.5,250.6z M474.8,245.3c-3.8,0.2-7.8,0.4-11.8,0.5c-4,0.1-8,0.2-12,0.4c-4,0.1-8,0.2-11.9,0.2
			s-7.7,0.1-11.4,0.1l0.3,2.8l11.3-0.1c3.9,0,7.8-0.1,11.8-0.2c4-0.1,8-0.2,12-0.4l11.7-0.4L474.8,245.3z M428,182.5
			c4.5,0,9.2,0,14.1-0.1s9.9-0.2,14.8-0.3c4.9-0.1,9.8-0.3,14.7-0.4s9.4-0.3,13.8-0.5l0.1-2.8c-4.4,0.2-9,0.4-13.9,0.5
			c-4.9,0.2-9.8,0.3-14.8,0.4s-9.9,0.2-14.9,0.3s-9.7,0.1-14.2,0.1L428,182.5z M476.6,166.7c-1.9,0.1-4.1,0.3-6.7,0.4
			c-2.5,0.1-5.1,0.2-7.8,0.3c-2.7,0.1-5.3,0.1-7.8,0.1c-2.5,0-4.8,0-6.8-0.1v2.8c2,0.1,4.3,0.1,6.8,0.1c2.5,0,5.1-0.1,7.8-0.1
			c2.7-0.1,5.3-0.2,7.8-0.3c2.5-0.1,4.8-0.3,6.7-0.4V166.7z M447.5,168.9h2.7v-10.4h-2.7V168.9z M475,156.3
			c-1.9,0.1-4.1,0.2-6.5,0.3c-2.4,0.1-4.9,0.2-7.4,0.2c-2.5,0.1-4.9,0.1-7.3,0.2s-4.5,0.1-6.3,0.1v2.8c1.8,0,3.8,0,6.2-0.1
			c2.4,0,4.8-0.1,7.3-0.2c2.5-0.1,5-0.2,7.4-0.3s4.6-0.2,6.6-0.3L475,156.3z M472.4,157.6h2.6v-10.4h-2.7L472.4,157.6z M475,146
			c-2,0.1-4.2,0.2-6.7,0.3c-2.5,0.1-5,0.2-7.7,0.2l-7.6,0.2c-2.4,0.1-4.6,0.1-6.5,0.1l0.2,2.8c1.9,0,4,0,6.4-0.1
			c2.4,0,4.9-0.1,7.5-0.2c2.6-0.1,5.1-0.2,7.6-0.3c2.5-0.1,4.7-0.2,6.7-0.3L475,146z M460.6,202.4h2.7v-22.1h-2.7V202.4z
			 M476.6,94.5c-1.9,0.1-4.1,0.3-6.7,0.4s-5.1,0.2-7.8,0.3c-2.7,0.1-5.3,0.1-7.8,0.1c-2.5,0-4.8,0-6.8-0.1v2.8
			c2,0.1,4.3,0.1,6.8,0.1c2.5,0,5.1-0.1,7.8-0.2c2.7-0.1,5.3-0.2,7.8-0.3c2.5-0.1,4.8-0.3,6.7-0.4L476.6,94.5z M447.5,96.7h2.7V86.3
			h-2.7V96.7z M475,84.2c-1.9,0.1-4.1,0.2-6.5,0.3c-2.4,0.1-4.9,0.2-7.4,0.2c-2.5,0.1-4.9,0.1-7.3,0.2s-4.5,0.1-6.3,0.1v2.8
			c1.8,0,3.8,0,6.2-0.1c2.4,0,4.8-0.1,7.3-0.2s5-0.2,7.4-0.3c2.4-0.1,4.6-0.2,6.6-0.3V84.2z M472.3,85.6h2.7V75.3h-2.7V85.6z
			 M475,74c-2,0.1-4.2,0.2-6.7,0.3c-2.5,0.1-5,0.2-7.7,0.2l-7.6,0.2c-2.4,0.1-4.6,0.1-6.5,0.1l0.2,2.8c1.9,0,4,0,6.4-0.1
			s4.9-0.1,7.5-0.2c2.6-0.1,5.1-0.2,7.6-0.3c2.5-0.1,4.7-0.2,6.7-0.3L475,74z M472.1,130.3h2.7v-23h-2.7V130.3z M451.9,112.5
			c-1.2,2.9-2.6,5.7-4.3,8.4c-1.6,2.6-3.4,5.1-5.4,7.5l2.5,1.5c1.9-2.4,3.7-5,5.3-7.7c1.7-2.8,3.2-5.8,4.5-8.9L451.9,112.5z
			 M474.8,105.8c-3.8,0.2-7.8,0.4-11.8,0.5c-4,0.1-8,0.2-12,0.3c-4,0.1-8,0.2-11.9,0.2c-3.9,0.1-7.7,0.1-11.4,0.1l0.3,2.8l11.3-0.1
			c3.9,0,7.8-0.1,11.8-0.2c4-0.1,8-0.2,12-0.4l11.7-0.4L474.8,105.8z"/>
		<path class="st6" d="M566.3,304.1c0.7,1.8,2.1,3.2,3.9,4c2.8,1.2,6,0.5,8.1-1.6c2.9-2.9,2.9-7.6,0-10.5c-2.9-2.9-7.6-2.9-10.5,0
			C565.8,298.1,565.2,301.3,566.3,304.1 M576.6,304.6c-1.9,1.8-4.9,1.8-6.8,0c-1.8-1.9-1.8-4.9,0-6.8c1.9-1.8,4.9-1.8,6.8,0
			C578.4,299.7,578.4,302.7,576.6,304.6 M547.7,256.5c1.5-0.7,2.8-1.6,4-2.8c1.1-1.2,2-2.7,2.5-4.2c1.2-3.3,1.2-7,0-10.3
			c-0.6-1.6-1.4-3-2.5-4.2c-4.6-5-12.4-5.3-17.4-0.7c-0.2,0.2-0.4,0.4-0.7,0.7c-1.1,1.2-2,2.7-2.5,4.2c-1.2,3.3-1.2,7,0,10.3
			c0.6,1.6,1.4,3,2.5,4.2c1.1,1.2,2.5,2.2,4,2.8C540.8,257.9,544.5,257.9,547.7,256.5 M546.7,234.5c1.2,0.5,2.2,1.3,3.1,2.3
			c0.9,1,1.6,2.1,2,3.4c0.9,2.7,0.9,5.6,0,8.4c-0.4,1.2-1.1,2.4-2,3.4c-0.9,1-1.9,1.7-3.1,2.3c-2.6,1.1-5.5,1.1-8.1,0
			c-1.2-0.5-2.2-1.3-3.1-2.3c-0.9-1-1.6-2.1-2-3.4c-0.9-2.7-0.9-5.6,0-8.4c0.4-1.2,1.1-2.4,2-3.4c0.9-1,1.9-1.7,3.1-2.3
			C541.2,233.4,544.1,233.4,546.7,234.5 M568.2,276.6h2.7v-60h-2.7V276.6z M524,170.8c4.5,0,9.2,0,14.1-0.1
			c4.9-0.1,9.9-0.2,14.8-0.3c4.9-0.1,9.8-0.3,14.7-0.4c4.9-0.1,9.4-0.3,13.8-0.5l0.1-2.8c-4.4,0.2-9,0.4-13.9,0.5s-9.8,0.3-14.8,0.4
			s-9.9,0.2-14.9,0.3s-9.7,0.1-14.2,0.1L524,170.8z M555.9,169.3h2.7v-12h-2.7V169.3z M573.3,154.9c-1.9,0.1-4.3,0.3-7,0.4
			c-2.7,0.1-5.6,0.2-8.4,0.3c-2.9,0.1-5.7,0.1-8.5,0.1c-2.8,0-5.1,0-7.2-0.1v2.8c2,0.1,4.4,0.1,7.1,0.1c2.7,0,5.6-0.1,8.5-0.1
			c2.9-0.1,5.7-0.2,8.5-0.3s5.1-0.3,7-0.4L573.3,154.9z M542.3,158.5h2.7v-15.3h-2.7L542.3,158.5z M574.8,197.1
			c-1.9,0.1-4.3,0.3-7.1,0.4c-2.8,0.1-5.7,0.2-8.7,0.3s-5.9,0.1-8.7,0.1c-2.8,0-5.3,0-7.3-0.1v2.8c2,0.1,4.4,0.1,7.2,0.1
			c2.8,0,5.7-0.1,8.8-0.1c3-0.1,5.9-0.2,8.7-0.3c2.8-0.1,5.2-0.3,7.1-0.4V197.1z M543,199.2h2.7v-10.2H543V199.2z M570.8,186.9
			c-1.9,0.1-4.1,0.2-6.5,0.3s-4.9,0.2-7.5,0.2c-2.5,0.1-5,0.1-7.4,0.2c-2.4,0-4.5,0.1-6.3,0.1v2.8c1.8,0,3.9,0,6.3-0.1
			c2.4,0,4.9-0.1,7.4-0.2c2.5-0.1,5-0.2,7.5-0.3s4.7-0.2,6.6-0.3L570.8,186.9z M568.1,188.3h2.7v-10.2h-2.7V188.3z M570.8,176.9
			c-2,0.1-4.3,0.2-6.8,0.3c-2.5,0.1-5.1,0.2-7.8,0.2l-7.7,0.2c-2.5,0.1-4.6,0.1-6.5,0.1l0.2,2.8c1.9,0,4,0,6.5-0.1
			c2.4,0,5-0.1,7.6-0.2c2.6-0.1,5.2-0.2,7.7-0.3s4.8-0.2,6.7-0.3L570.8,176.9z M561.8,75.3c1.1,0.2,2.3,0.6,3.3,1.2
			c0.9,0.5,1.6,1.2,2.2,2.1c1,1.8,1,4.1,0,5.9c-0.6,0.9-1.3,1.6-2.2,2.1c-1,0.6-2.1,1-3.3,1.2c-2.6,0.5-5.4,0.5-8,0
			c-1.1-0.2-2.2-0.6-3.3-1.2c-0.9-0.5-1.6-1.2-2.2-2.1c-1-1.8-1-4.1,0-5.9c0.6-0.9,1.3-1.6,2.2-2.1c1-0.6,2.1-1,3.3-1.2
			C556.4,74.8,559.1,74.8,561.8,75.3 M562.8,90.4c1.5-0.3,2.9-1,4.2-1.8c1.1-0.8,2.1-1.8,2.7-3c1.3-2.5,1.3-5.5,0-8.1
			c-0.7-1.2-1.6-2.2-2.7-3c-1.2-0.9-2.6-1.5-4.1-1.8c-3.3-0.8-6.8-0.8-10.2,0c-1.5,0.4-2.8,1-4.1,1.8c-1.1,0.8-2.1,1.8-2.7,3
			c-1.3,2.5-1.3,5.5,0,8.1c0.7,1.2,1.6,2.2,2.7,3c1.2,0.9,2.6,1.5,4.1,1.8c3.3,0.8,6.8,0.8,10.2,0 M568.1,109h2.7V95.1h-2.7V109z
			 M547.8,98.5c-0.8,2.1-1.8,4-3.1,5.8c-1.4,1.9-3.1,3.6-5,5l2.1,1.8c2-1.5,3.7-3.3,5.2-5.3c1.4-1.9,2.5-4.1,3.3-6.3L547.8,98.5z
			 M570.9,94c-3.8,0.2-7.8,0.4-11.8,0.5s-8,0.2-12,0.3c-4,0.1-8,0.2-11.9,0.2c-3.9,0.1-7.7,0.1-11.4,0.1l0.3,2.8l11.3-0.1
			c3.9,0,7.8-0.1,11.8-0.2s8-0.2,12-0.4l11.7-0.4L570.9,94z M574.3,128.7l-15.4-8.5l-1.2,2.3l7.3,4.2c2.5,1.4,5.1,3,7.6,4.5
			L574.3,128.7z M538.8,130.6c2.5-0.6,4.9-1.3,7.3-2.3c1.9-0.8,3.6-1.8,5.2-3c1.5-1.2,2.9-2.5,4.1-4c1.4-1.6,2.5-3.5,3.3-5.5
			l-2.9-0.5c-0.6,1.6-1.5,3.1-2.6,4.5c-1.1,1.3-2.2,2.4-3.5,3.5c-1.5,1.1-3.1,2-4.9,2.8c-2.3,1-4.7,1.7-7.2,2.1L538.8,130.6z
			 M564.8,106.7c-2.4-0.1-4.8-0.2-7.1-0.4c-2.3-0.2-4.6-0.5-6.9-1l-0.3,3c2.3,0.4,4.7,0.7,7.1,0.9c2.4,0.2,4.8,0.3,7.1,0.4
			L564.8,106.7z M571.4,113.6l-6.8,0.3l-7.8,0.3c-2.7,0.1-5.2,0.2-7.7,0.3s-4.6,0.1-6.5,0.1l0.3,2.8c1.9,0,4,0,6.5-0.1
			s5-0.2,7.6-0.3l7.7-0.3c2.5-0.1,4.8-0.2,6.7-0.3L571.4,113.6z"/>
	</g>
</g>
<g>
	<defs>
		<rect id="SVGID_5_" y="750" width="943.3" height="460.4"/>
	</defs>
	<clipPath id="SVGID_6_">
		<use xlink:href="#SVGID_5_"  style="overflow:visible;"/>
	</clipPath>
	<g class="st7">
		<line class="st2" x1="0" y1="750.3" x2="943.3" y2="750.3"/>
	</g>
</g>
</svg>
