<svg id="Layer_1" data-name="Layer 1" xmlns="http://www.w3.org/2000/svg" xmlns:xlink="http://www.w3.org/1999/xlink" viewBox="0 0 943.3 750"><defs><style>.cls-1,.cls-4,.cls-7{fill:none;}.cls-2{clip-path:url(#clip-path);}.cls-3{fill:#231815;}.cls-4{stroke:#231815;stroke-width:0.5px;}.cls-5{fill:#433f3f;}.cls-6{fill:#fff;}.cls-7{stroke:#fff;}</style><clipPath id="clip-path"><rect class="cls-1" width="943.31" height="460.4"/></clipPath></defs><title>SAN대지 10</title><g class="cls-2"><path class="cls-3" d="M13.62,191.56a2,2,0,0,0,1.1,1.1,2.06,2.06,0,0,0,1.59,0,2,2,0,0,0,.66-.44,2.08,2.08,0,0,0,.44-.66,2.09,2.09,0,0,0,0-1.6,2.08,2.08,0,0,0-.44-.66,2,2,0,0,0-.66-.44,2.06,2.06,0,0,0-2.25.44,2.09,2.09,0,0,0-.44,2.26m2.84.14a1.37,1.37,0,0,1-1.89,0,1.35,1.35,0,0,1,0-1.88,1.37,1.37,0,0,1,1.89,0,1.35,1.35,0,0,1,0,1.88m-6.22-20.56q-1.36.1-2.92.15t-2.9,0v.77h1.4l1.49,0,1.5,0,1.43-.07Zm1.54,6.34a15.91,15.91,0,0,1-3.45.92,22.58,22.58,0,0,1-3.87.24l0,.74a22.39,22.39,0,0,0,4-.28,19.14,19.14,0,0,0,3.6-.92Zm-7.36,1.88.74-.2V171.9H4.42Zm13.76-4.28H14.86l-.38.36.38.42,3.32,0Zm-4.06,8.82h.74V167.24h-.74ZM12,157.28a30.25,30.25,0,0,1-3.56.88,29.23,29.23,0,0,1-3.88.44l0,.74a28.7,28.7,0,0,0,4-.46q1.89-.36,3.67-.88Zm-7.48,2,.74-.2v-8H4.48Zm9.64,4.58h.74V147.24h-.74ZM1.78,134.8l3.94,0,4.13-.07q2.07,0,4.1-.11l3.85-.15,0,.78-3.82.14-4.08.11-4.11.08-3.91,0ZM16,131.9l-4.16-2.16-.36.68,2,1.07,2.07,1.13Zm-9.68.8a8.38,8.38,0,0,0,3.57-2.1A7.5,7.5,0,0,0,11.84,127l-.72-.18a9.25,9.25,0,0,1-.7,1.85,5.75,5.75,0,0,1-1,1.43,6.49,6.49,0,0,1-1.45,1.08A11.3,11.3,0,0,1,6,132Zm8.5,10.4H7.44v-.78h7.42Zm0-3.28-1.71.06-2,.05-2,0H7.5v-.76H9.2l2,0,2-.06,1.7-.07Zm0,2.82h-.74V137h.74ZM7.44,137.3h.74v5.44H7.44ZM12,115.74l-3.48-2.88-.48.62q.86.7,1.67,1.4t1.71,1.52Zm-.66-6.32-1.62.08-1.93.08-1.92.05-1.61,0,.06.78,1.58,0,1.9-.06,1.92-.08,1.62-.08Zm-7.3,7.8A9.94,9.94,0,0,0,7,114.17,11.69,11.69,0,0,0,8.46,110L7.64,110a13,13,0,0,1-.53,2.1,9,9,0,0,1-.82,1.74,7.79,7.79,0,0,1-1.18,1.48,13,13,0,0,1-1.59,1.32Zm10.06,0h.74v-10h-.74Zm.74,1.3-2,.07-2.35.06-2.32.05-1.9,0,.06.78,1.89,0,2.3,0,2.33-.07,2-.08Zm-.74,5.18h.74V119h-.74Zm4.06-11H14.86l-.38.35.38.41,3.32,0ZM10.56,84.94q-1.66.1-3.28.15l-3.18.07.06.78L7,85.87l2.89-.11Zm-6.92,9.2A12.25,12.25,0,0,0,6,92.55,14.54,14.54,0,0,0,8.1,90.42a9.93,9.93,0,0,0,.83-1.25q.39-.69.71-1.41a14.14,14.14,0,0,0,.55-1.44q.23-.72.37-1.38l-.9.26a12.71,12.71,0,0,1-.75,2.37A10.24,10.24,0,0,1,7.48,90a13.18,13.18,0,0,1-2,2A12.19,12.19,0,0,1,3.22,93.5ZM14.12,97.9h.74V81.24h-.74Zm4.06-8.7H14.86l-.38.35.38.41,3.32,0ZM10.52,64.94q-1.66.1-3.31.15L4,65.16l.06.78L7,65.87l2.92-.11Zm-7,9.2a12.25,12.25,0,0,0,2.38-1.59A14.54,14.54,0,0,0,8,70.42a10.79,10.79,0,0,0,.84-1.25q.4-.69.73-1.41a14.34,14.34,0,0,0,.57-1.44,12.65,12.65,0,0,0,.38-1.38l-.9.26a11.59,11.59,0,0,1-.78,2.37A11.11,11.11,0,0,1,7.38,70a13.18,13.18,0,0,1-2,2A12.19,12.19,0,0,1,3.12,73.5ZM14.12,77.9h.74V61.24h-.74ZM2.38,55l3.83,0,3.93-.08L14,54.8l3.74-.14,0-.78L14,54q-2,.07-3.93.11l-4,.07-3.85,0Zm11.88-7.26q-1,.2-2.07.37t-2.21.3l-2.23.23q-1.11.1-2.13.14l.1.72q1-.06,2.1-.16L10,49.14q1.12-.13,2.21-.28t2.05-.34Zm.7-4.18-2,.08-2.42.06-2.43,0-2,0,.06.78,1.95,0,2.24,0,2.18,0,1.81-.07Zm-1.24,9q.24-.94.44-2.07t.36-2.32q.16-1.19.27-2.38T15,43.58l-.8.26q0,.94-.14,2t-.25,2.25q-.15,1.14-.35,2.23t-.44,2Z"/><path class="cls-3" d="M32.38,383.28l3.83,0,3.93-.08,3.9-.11,3.74-.14,0-.78-3.77.15q-1.95.07-3.93.11l-3.95.07-3.85,0Zm8.38-.68h.74v-3.14h-.74Zm4.6-4.64-1.91.12q-1.11.06-2.28.09l-2.28,0q-1.11,0-2,0V379q.82,0,1.94,0l2.29,0,2.28-.08,1.91-.11Zm-8.42.6h.74v-3.3h-.74Zm8-3.9q-.8.06-1.86.09l-2.17.06-2.15,0-1.8,0v.78l1.78,0,2.15,0,2.17-.07,1.88-.08Zm-.74.38h.74v-3.3h-.74Zm.74-3.64-1.92.07-2.24.06-2.22.06-1.86,0,.06.78,1.84,0,2.2,0,2.23-.07,1.91-.08Zm-6.47-11.07a3.35,3.35,0,0,0,1.1-.79,3.55,3.55,0,0,0,.71-1.17,4.23,4.23,0,0,0,0-2.86,3.57,3.57,0,0,0-.71-1.17,3.43,3.43,0,0,0-5,0,3.54,3.54,0,0,0-.71,1.17,4.23,4.23,0,0,0,0,2.86,3.52,3.52,0,0,0,.71,1.17,3.34,3.34,0,0,0,1.1.79,3.6,3.6,0,0,0,2.83,0m-.29-6.12a2.65,2.65,0,0,1,.86.63,2.75,2.75,0,0,1,.55.94,3.62,3.62,0,0,1,0,2.32A2.74,2.74,0,0,1,39,359a2.62,2.62,0,0,1-.86.63,2.86,2.86,0,0,1-2.25,0A2.61,2.61,0,0,1,35,359a2.74,2.74,0,0,1-.55-.94,3.62,3.62,0,0,1,0-2.32,2.75,2.75,0,0,1,.55-.94,2.64,2.64,0,0,1,.86-.63,2.86,2.86,0,0,1,2.25,0m6,11.69h.74V349.24h-.74ZM33.64,341.84a14.87,14.87,0,0,0,1.52-1.35,17.15,17.15,0,0,0,1.4-1.61,15.68,15.68,0,0,0,1.2-1.81,12.5,12.5,0,0,0,.9-1.95l-.78-.18a11.66,11.66,0,0,1-.81,1.81,13.55,13.55,0,0,1-1.11,1.7A15.35,15.35,0,0,1,34.62,340a12.09,12.09,0,0,1-1.5,1.28Zm7.82-7.34-1.68.08-2.08.07-2.08,0-1.68,0,.06.78,1.65,0,2.06-.05,2.07-.07,1.68-.08ZM40,332.4q-1.08-.34-2.08-.73t-2.06-.85l-.28.82q1,.44,2.06.81l2.06.71Zm1.84,8.4-3.24-3-.54.58q.78.68,1.56,1.4t1.62,1.6Zm2.3,5.1h.74V329.24h-.74ZM48.18,337H44.86l-.38.36.38.42,3.32,0Zm-15.8-19.66,3.83,0,3.93-.08,3.9-.11,3.74-.14,0-.78-3.77.15-3.93.11-3.95.07-3.85,0Zm6.12-7.58,1.62,0,1.67-.05,1.62-.06,1.47-.07v-.8l-1.47.08-1.62.07-1.67.05-1.62,0Zm6.84,2.16-1.9.12q-1.1.06-2.27.09l-2.28,0q-1.11,0-2,0v.78q.82,0,1.93,0l2.28,0,2.28-.08,1.91-.11Zm-.24-6.46-1.79.08-2.3.06-2.3,0H36.94v.76H38.7l2.3,0,2.31,0,1.79-.07Zm-8.16,7.46.74-.2V306h-.74Zm-4-19.7a8.55,8.55,0,0,0,2.86-3.33,11.5,11.5,0,0,0,1-4.49l-.78-.06a12.89,12.89,0,0,1-.26,2.27,8.28,8.28,0,0,1-.65,1.91,7.58,7.58,0,0,1-1.09,1.64,9.85,9.85,0,0,1-1.58,1.44Zm6.72-.88-2.46-2.8-.58.54,1.18,1.35,1.24,1.45Zm1.94-4.46h-2.7v.78h2.7ZM41.2,294h.74v-9.58H41.2Zm2.94.8h.74V283.24h-.74ZM46,297.54l-1.93.12q-1.13.06-2.34.09l-2.35,0q-1.14,0-2,0v.78q.82,0,2,0l2.35,0,2.35-.08,1.94-.11Zm-8.6.8h.74v-3.88h-.74Zm1.92-23.06.28-6.48-.78,0-.24,6.48Zm2.44-.8-2.35.32-2.16.25-2.22.21-2.53.2.18.76,2.49-.22,2.19-.22,2.14-.26,2.36-.32Zm-5.7,1-.54-6.36-.8.1.62,6.32ZM40.76,267l-1.69.11-2,.09-2,.06-1.68,0,.06.78L35,268l2-.06,2-.09,1.7-.09Zm3.48,3.46H40.92v.78h3.32Zm-.12,9.44h.74V263.24h-.74Zm1.1-22.13a2.54,2.54,0,0,1-.87,1.08,4.69,4.69,0,0,1-1.62.71,12.05,12.05,0,0,1-5,0,4.69,4.69,0,0,1-1.62-.71,2.54,2.54,0,0,1-.87-1.08,3.74,3.74,0,0,1,0-2.74,2.54,2.54,0,0,1,.87-1.08,4.69,4.69,0,0,1,1.62-.71,12.05,12.05,0,0,1,5,0,4.69,4.69,0,0,1,1.62.71,2.54,2.54,0,0,1,.87,1.08,3.74,3.74,0,0,1,0,2.74m-10.7.28a3.09,3.09,0,0,0,1,1.3,5.11,5.11,0,0,0,1.86.85,11.49,11.49,0,0,0,2.85.3,11.49,11.49,0,0,0,2.85-.3,5.11,5.11,0,0,0,1.86-.85,3.09,3.09,0,0,0,1-1.3,4.69,4.69,0,0,0,0-3.3,3.09,3.09,0,0,0-1-1.3,5.11,5.11,0,0,0-1.86-.85,11.49,11.49,0,0,0-2.85-.3,11.49,11.49,0,0,0-2.85.3,5.11,5.11,0,0,0-1.86.85,3.09,3.09,0,0,0-1,1.3,4.69,4.69,0,0,0,0,3.3M40,244.66a4.68,4.68,0,0,1-.19,1.35,3.71,3.71,0,0,1-.53,1.1,2.5,2.5,0,0,1-.8.73,2,2,0,0,1-1,.26,2.05,2.05,0,0,1-1-.24,2.45,2.45,0,0,1-.78-.66,3.28,3.28,0,0,1-.52-1A3.67,3.67,0,0,1,35,245a3.5,3.5,0,0,1,.19-1.19,3.54,3.54,0,0,1,.49-.93,3.17,3.17,0,0,1,.67-.67,2.7,2.7,0,0,1,.73-.39l-.32-.78A3.88,3.88,0,0,0,35,242.41a4,4,0,0,0-.58,1.14A4.75,4.75,0,0,0,34.2,245a4.63,4.63,0,0,0,.26,1.58,3.66,3.66,0,0,0,.71,1.22,3.29,3.29,0,0,0,1,.78,2.82,2.82,0,0,0,1.23.28,2.61,2.61,0,0,0,1.09-.22,3.09,3.09,0,0,0,.87-.58,3,3,0,0,0,.61-.8,3.12,3.12,0,0,0,.31-.86h.06a2.55,2.55,0,0,0,.32.78,2.84,2.84,0,0,0,.62.72,3.35,3.35,0,0,0,.85.52,2.58,2.58,0,0,0,1,.2,2.79,2.79,0,0,0,1.15-.25,3,3,0,0,0,1-.72,3.6,3.6,0,0,0,.69-1.14,4.13,4.13,0,0,0,.26-1.51,3.61,3.61,0,0,0-.25-1.38,3.56,3.56,0,0,0-.62-1,3.61,3.61,0,0,0-.84-.7,5.07,5.07,0,0,0-.93-.44l-.26.76a3.79,3.79,0,0,1,.76.34,2.73,2.73,0,0,1,.68.56A2.78,2.78,0,0,1,45.5,245a3.17,3.17,0,0,1-.19,1.1,3.06,3.06,0,0,1-.5.9,2.34,2.34,0,0,1-.73.6,1.92,1.92,0,0,1-.9.22,2,2,0,0,1-.94-.24,2.55,2.55,0,0,1-.78-.67,3.35,3.35,0,0,1-.54-1,3.91,3.91,0,0,1-.2-1.27V243.6H40Zm-1.63-28.52a2.55,2.55,0,0,1,.79.53,2.42,2.42,0,0,1,.52.78,2.36,2.36,0,0,1,0,1.86,2.42,2.42,0,0,1-.52.78,2.53,2.53,0,0,1-.79.53,2.52,2.52,0,0,1-2,0,2.52,2.52,0,0,1-.79-.53,2.42,2.42,0,0,1-.52-.78,2.36,2.36,0,0,1,0-1.86,2.42,2.42,0,0,1,.52-.78,2.54,2.54,0,0,1,.79-.53,2.52,2.52,0,0,1,2,0m.28,5.15a3.19,3.19,0,0,0,1-.69,3.3,3.3,0,0,0,.69-1,3.06,3.06,0,0,0,0-2.42,3.31,3.31,0,0,0-.69-1,3.25,3.25,0,0,0-4.59,0,3.27,3.27,0,0,0-.69,1,3.06,3.06,0,0,0,0,2.42,3.26,3.26,0,0,0,.69,1,3.29,3.29,0,0,0,3.56.69m5.48,1.21h.74v-9.26h-.74Zm.74,1.38-1.94.07-2.29.06-2.27.05-1.88,0,.06.78,1.87,0,2.25-.05,2.27-.07,1.93-.08Zm-.74,5.6h.74V224.4h-.74Zm4-13.4H44.86l-.38.36.38.42,3.22,0Zm0,3.6H44.86l-.38.36.38.42,3.22,0Zm-7.16-24.82h3.64v-.78H40.92Zm0-3.38h3.64v-.78H40.92Zm-6.76,3.72h.74v-5.56h-.74Zm5.8-5.68q-1.38.08-2.89.1l-2.91,0,.06.76,2.86,0q1.48,0,2.88-.08Zm-.74,5.8H40V190h-.74Zm.74-.42h-5.8v.78H40Zm4.16,4.2h.74V187.24h-.74ZM46,201.54l-1.93.12q-1.13.06-2.34.09l-2.35,0q-1.14,0-2,0v.78q.82,0,2,0l2.35,0,2.35-.08q1.14,0,1.94-.11Zm-8.6.8h.74v-4.26h-.74Zm1.44-22.13a2.75,2.75,0,0,0,1.5-1.57,2.91,2.91,0,0,0,0-2.12,2.75,2.75,0,0,0-1.5-1.57,3.4,3.4,0,0,0-2.56,0,2.75,2.75,0,0,0-1.5,1.57,2.91,2.91,0,0,0,0,2.12,2.75,2.75,0,0,0,1.5,1.57,3.4,3.4,0,0,0,2.56,0m-2.28-.66a2,2,0,0,1-.69-.5,2.18,2.18,0,0,1-.41-.69,2.24,2.24,0,0,1-.14-.78,2.28,2.28,0,0,1,.14-.77,2.17,2.17,0,0,1,.41-.7,2,2,0,0,1,.69-.5,2.7,2.7,0,0,1,2,0,2,2,0,0,1,.7.5,2.17,2.17,0,0,1,.41.7,2.28,2.28,0,0,1,.14.77,2.24,2.24,0,0,1-.14.78,2.18,2.18,0,0,1-.41.69,2,2,0,0,1-.7.5,2.7,2.7,0,0,1-2,0m11.66-4.37H44.86l-.38.36.38.42,3.32,0Zm-6.82-2.88-1.79.08-2.3.07-2.3,0-1.79,0,.06.78h1.09l1.4,0,1.55,0,1.56,0,1.41,0,1.11-.05Zm-1.68-2.24q-1.08-.34-2.08-.73t-2.06-.85l-.28.82q1,.44,2.06.81l2.06.71Zm4.44,13.84h.74V167.24h-.74ZM39.7,155.64l.28-4.46-.78,0L39,155.58Zm-3.54.3-.32-4.48-.8.06.4,4.48Zm6.08-.94q-2.24.3-4.47.46t-4.75.22l.12.78q2.44-.08,4.67-.26t4.55-.46Zm-1.1-5.68-1.69.11-2,.09-2,.06-1.69,0,.06.78,1.66,0,2-.06,2-.09,1.71-.09Zm7,3.66H44.86l-.38.36.38.42,3.32,0Zm-4.06,6.12h.74V147.24h-.74ZM46,161.54l-1.93.12q-1.13.06-2.34.09l-2.35,0q-1.14,0-2,0v.78q.82,0,2,0l2.35,0,2.35-.08q1.14,0,1.94-.11Zm-8.6.8h.74v-3.92h-.74Zm-5-21.16,3.83,0,3.93-.08L44,141l3.74-.14,0-.78-3.77.15q-1.95.07-3.93.11l-3.95.07-3.85,0ZM45,129.58l-2,.08-2.27.07-2.26,0-2,0,.06.76,1.94,0,2.25-.05,2.25-.06,2-.07Zm1.1,6.06-4.5-3-.42.66,1.07.72,1.15.78,1.15.79,1.07.73Zm-10.2.88a9.61,9.61,0,0,0,3.69-2.38,8.3,8.3,0,0,0,1.93-3.94l-.74-.2A7.49,7.49,0,0,1,39,133.66a8.64,8.64,0,0,1-3.45,2.16Zm4.72,4h.74v-4.06h-.74Zm-8.24-25.22,3.83,0,3.93-.08,3.9-.11,3.74-.14,0-.78-3.77.15q-1.95.07-3.93.11l-3.95.07-3.85,0Zm8.38-.68h.74v-3.14h-.74Zm4.6-4.64-1.91.12q-1.11.06-2.28.09l-2.28,0q-1.11,0-2,0V111q.82,0,1.94,0l2.29,0,2.28-.08,1.91-.11Zm-8.42.6h.74v-3.3h-.74Zm8-3.9q-.8.06-1.86.09l-2.17.06-2.15,0-1.8,0v.78l1.78,0,2.15,0,2.17-.07,1.88-.08Zm-.74.38h.74v-3.3h-.74Zm.74-3.64-1.92.07-2.24.06-2.22.05-1.86,0,.06.78,1.84,0,2.2-.05,2.23-.07,1.91-.08ZM32.38,95.32l3.83,0,3.93-.08L44,95.1,47.78,95l0-.78L44,94.33q-1.95.07-3.93.11l-3.95.07-3.85,0Zm6.12-7.58,1.62,0,1.67,0,1.62-.06,1.47-.07v-.8l-1.47.08-1.62.07-1.67,0L38.5,87Zm6.84,2.16-1.9.12q-1.1.06-2.27.09l-2.28,0q-1.11,0-2,0v.78q.82,0,1.93,0l2.28,0,2.28-.08,1.91-.11Zm-.24-6.46-1.79.08-2.3.06-2.3,0H36.94v.77H38.7l2.3,0,2.31,0,1.79-.07ZM36.94,90.9l.74-.2V84h-.74ZM34.28,67.8a3.19,3.19,0,0,0,.71,1,3.52,3.52,0,0,0,1,.69,3.16,3.16,0,0,0,2.51,0,3.52,3.52,0,0,0,1-.69,3.19,3.19,0,0,0,.71-1,3.1,3.1,0,0,0,0-2.48,3.19,3.19,0,0,0-.71-1,3.52,3.52,0,0,0-1-.69,3.16,3.16,0,0,0-2.51,0,3.52,3.52,0,0,0-1,.69,3.19,3.19,0,0,0-.71,1,3.1,3.1,0,0,0,0,2.48M35,65.61a2.57,2.57,0,0,1,1.35-1.33,2.52,2.52,0,0,1,2,0,2.57,2.57,0,0,1,.8.54,2.62,2.62,0,0,1,.54.79,2.35,2.35,0,0,1,0,1.9,2.61,2.61,0,0,1-.54.79,2.57,2.57,0,0,1-.8.54,2.52,2.52,0,0,1-2,0A2.57,2.57,0,0,1,35,67.51a2.35,2.35,0,0,1,0-1.9m11,9.93-2,.12q-1.15.06-2.38.09l-2.39,0q-1.16,0-2,0v.78q.82,0,2,0l2.39,0L44,76.45q1.16-.05,2-.11Zm-8.72.8H38V72.1h-.74Zm6.88-3.24h.74V61.24h-.74ZM32.38,55.34l3.83,0,3.93-.08,3.9-.11L47.78,55l0-.78L44,54.35q-1.95.07-3.93.11l-3.95.07-3.85,0ZM45,49.3h-9v.78h9Zm-1.72.4.44-4.78L43,44.84l-.42,4.78Zm-4.22-.1L38.82,45,38,45l.34,4.6Zm6-6.46-1.24.07-1.53.05-1.68.06-1.69,0-1.55,0H36.18l.06.78h1.24l1.54,0,1.68,0,1.67,0L43.9,44l1.24-.07ZM40.52,54.66h.74V50.84h-.74Z"/><path class="cls-3" d="M61.86,403.24l3.91,0,4.11-.08L74,403l3.82-.14,0-.78-3.85.15q-2,.07-4.1.11l-4.13.07-3.94,0Zm10.69-3.18a3.3,3.3,0,0,0,1.12-.58,2.76,2.76,0,0,0,.74-.92,2.78,2.78,0,0,0-.74-3.39,3.32,3.32,0,0,0-1.12-.58,5,5,0,0,0-2.79,0,3.33,3.33,0,0,0-1.11.58,2.85,2.85,0,0,0-.74,3.39,2.76,2.76,0,0,0,.74.92,3.31,3.31,0,0,0,1.11.58,5,5,0,0,0,2.79,0M69.16,399a2.1,2.1,0,0,1,0-3.3,3.81,3.81,0,0,1,4,0,2.1,2.1,0,0,1,0,3.3,3.81,3.81,0,0,1-4,0m6.6,9.2-2,.12q-1.17.06-2.41.09l-2.42,0q-1.18,0-2,0v.78q.82,0,2,0l2.43,0,2.42-.08q1.17-.05,2-.11Zm-8.82,1h.74v-4.34h-.74ZM64.32,383a12.13,12.13,0,0,0,4-2.8,8.58,8.58,0,0,0,2.12-4l-.92.26a6.86,6.86,0,0,1-1.87,3.43,12,12,0,0,1-3.83,2.55Zm6.16-6.84-1.57.07-1.47.05-1.44,0H64.5l.06.78,2.63,0q1.23,0,2.65-.08Zm-1.74,10.8,1.6,0,1.63,0,1.59-.06L75,386.7v-.8q-1.38.08-3,.14l-3.24.1Zm7.1,1.76-1.89.12q-1.09.06-2.24.09l-2.25,0q-1.1,0-1.94,0v.78q.82,0,1.92,0l2.25,0,2.25-.08,1.9-.11Zm-8.32.61h.74v-5.68l-.74-.2Zm7.7-6.13-1.84.08-2.06.07-2,.05-1.77,0,.06.78,1.76,0,2-.06,2-.07,1.83-.08Zm3-4.46H74.86l-.38.36.38.42,3.32,0ZM74.12,382h.74v-8h-.74ZM73,359.1l-2.62.4q-1.26.18-2.54.31t-2.61.21l-2.79.14.16.78q1.46-.06,2.78-.15t2.57-.22q1.25-.13,2.5-.3t2.61-.39Zm-1.72-7.94q-1.66.1-3.47.16t-3.45.06l.06.78q1.48,0,3.1,0T70.6,352Zm-1.08,6.34q.4-1.5.67-3.07t.41-3.27l-.8.26q-.1,1.42-.36,2.93a28.68,28.68,0,0,1-.66,2.93Zm-4,2.72h.74V355.7H66.2Zm12-2.72H74.86l-.38.36.38.42,3.32,0Zm-4.06,7.12h.74V348h-.74ZM61.86,335.2l3.91,0,4.11-.08L74,335l3.82-.14,0-.78-3.85.15q-2,.07-4.1.11l-4.13.07-3.94,0ZM75,328.3l-1,.07-.95,0-.95,0-1,0,.06.78q1.94-.06,3.9-.18Zm-5.26.22q-1,0-2,0l-2,0,.06.78,1.73,0,2,0ZM68.88,333a12.47,12.47,0,0,0,.59-2.15,16.51,16.51,0,0,0,.23-2.37l-.8.42a13,13,0,0,1-.21,2,10.34,10.34,0,0,1-.55,1.84Zm5.34-.52H75v-4.06h-.74Zm-3.14,2.12h.74v-3.46h-.74ZM76,342.76l-2,.12q-1.17.06-2.41.09l-2.42,0q-1.18,0-2,0v.78q.82,0,2,0l2.43,0,2.42-.08q1.17,0,2-.11Zm-8.82.6h.74v-2.9h-.74Zm7.72-3.5q-.8.06-1.82.09L71,340l-2.06,0-1.76,0v.78l1.74,0,2.06-.05,2.08-.07,1.84-.08Zm-.74.38h.74v-2.9h-.74Zm.74-3.24-1.88.07-2.16.06-2.13.06-1.81,0,.06.78,1.8,0,2.11,0,2.14-.07,1.87-.08Zm-13-22.16,3.91,0,4.11-.08,4.08-.11,3.82-.14,0-.78-3.85.15q-2,.07-4.1.11l-4.13.07-3.94,0ZM75,308.42l-1.9.08-2.19.06-2.16,0-1.83,0,.06.78,1.66,0,2,0,2,0,1.74-.06ZM74.28,313q.14-.62.25-1.16t.19-1.06q.08-.52.14-1.1t.1-1.3l-.8.26c0,.39-.05.75-.08,1.08s-.06.66-.11,1-.11.65-.18,1-.16.7-.25,1.1ZM76,322.66l-2,.12q-1.17.06-2.41.09l-2.42,0q-1.18,0-2,0v.78q.82,0,2,0l2.43,0,2.42-.08q1.17,0,2-.11Zm-8.82.6h.74v-2.9h-.74Zm7.72-3.5q-.8.06-1.82.09l-2.08.06-2.06,0-1.76,0v.78l1.74,0,2.06-.05,2.08-.07,1.84-.08Zm-.74.38h.74v-2.9h-.74Zm.74-3.24L73,317l-2.16.07-2.13.05-1.81,0,.06.78,1.8,0,2.11,0,2.14-.07,1.87-.08Zm-13-25.62,3.91,0,4.11-.08,4.08-.11q2-.06,3.82-.14l0-.78-3.85.15q-2,.07-4.1.11l-4.13.07-3.94,0Zm7.48-.28-.12-2.64-.78,0L68.6,291Zm3.78-.12h.74V288.2h-.74Zm-.58-3.47a3.66,3.66,0,0,0,1.09-.61,2.66,2.66,0,0,0,.71-.89,2.49,2.49,0,0,0,0-2.18,2.65,2.65,0,0,0-.71-.9,3.68,3.68,0,0,0-1.09-.61,4.23,4.23,0,0,0-2.76,0,3.7,3.7,0,0,0-1.08.61,2.65,2.65,0,0,0-.71.9,2.49,2.49,0,0,0,0,2.18,2.66,2.66,0,0,0,.71.89,3.68,3.68,0,0,0,1.08.61,4.25,4.25,0,0,0,2.76,0m-.28-4.54a2.54,2.54,0,0,1,.85.47,2.33,2.33,0,0,1,.55.68,1.69,1.69,0,0,1,0,1.59,2.31,2.31,0,0,1-.55.68,2.55,2.55,0,0,1-.85.47,3.64,3.64,0,0,1-2.19,0,2.55,2.55,0,0,1-.85-.47,2.31,2.31,0,0,1-.55-.68,1.69,1.69,0,0,1,0-1.59,2.33,2.33,0,0,1,.55-.68,2.54,2.54,0,0,1,.85-.47,3.62,3.62,0,0,1,2.19,0m.27,15a3.28,3.28,0,0,0,1-.58,2.61,2.61,0,0,0,.68-.87,2.44,2.44,0,0,0,0-2.11,2.6,2.6,0,0,0-.68-.87,3.3,3.3,0,0,0-1-.58,4.06,4.06,0,0,0-1.34-.21,4.15,4.15,0,0,0-1.35.21,3.15,3.15,0,0,0-1,.58,2.64,2.64,0,0,0-.67.87,2.44,2.44,0,0,0,0,2.11,2.64,2.64,0,0,0,.67.87,3.14,3.14,0,0,0,1,.58,4.18,4.18,0,0,0,1.35.21,4.08,4.08,0,0,0,1.34-.21m.53-3.92a1.79,1.79,0,0,1,0,2.83,3.35,3.35,0,0,1-3.74,0,1.79,1.79,0,0,1,0-2.83,3.35,3.35,0,0,1,3.74,0m-2.54-28.27q-1.66.1-3.31.15t-3.21.07l.06.78,2.9-.07,2.92-.11Zm-7,9.2a12.25,12.25,0,0,0,2.38-1.59A14.54,14.54,0,0,0,68,271.14a10.79,10.79,0,0,0,.84-1.25q.4-.69.73-1.41a14.34,14.34,0,0,0,.57-1.44,12.65,12.65,0,0,0,.38-1.38l-.9.26a11.55,11.55,0,0,1-.78,2.37,11.11,11.11,0,0,1-1.46,2.41,13.18,13.18,0,0,1-2,2,12.14,12.14,0,0,1-2.26,1.48Zm10.58,3.76h.74V262h-.74Zm-6.14-27-1.7-2.46-.58.46q.5.68,1,1.35t.92,1.37Zm5.24,1.84-2.66-3.84-.58.48.65.91.7,1,.67,1,.6.91Zm-5.76,1.24a13.89,13.89,0,0,0,1.13-1.87,17.49,17.49,0,0,0,.89-2.09,18,18,0,0,0,.62-2.2,22.17,22.17,0,0,0,.36-2.2l-.78,0a18.79,18.79,0,0,1-.91,4.2,14.2,14.2,0,0,1-1.95,3.76Zm4.72-8.9-1.15.07-1,0-1,0H67.88l.06.76h1.12l1,0,1,0,1.15-.07Zm-4.6,0-1.17.07-1,0-1,0H63.18l.06.76h1.14l1,0,1,0,1.17-.07Zm-4.24,8.12a14,14,0,0,0,1.91-3.61,17.68,17.68,0,0,0,.87-4l-.78,0q-.12,1-.31,2a13.27,13.27,0,0,1-.5,1.8,12.55,12.55,0,0,1-.76,1.71,15.17,15.17,0,0,1-1.07,1.7Zm10.78,4.68h.74V242h-.74Zm4.06-8.92H74.86l-.38.36.38.42,3.32,0ZM62.38,236l3.83,0,3.93-.08,3.9-.11,3.74-.14,0-.78L74,235q-2,.07-3.93.11l-4,.07-3.85,0Zm8.38-.68h.74v-3.14h-.74Zm4.6-4.64-1.91.12q-1.11.06-2.28.09l-2.28,0q-1.11,0-2,0v.78q.82,0,1.94,0l2.29,0,2.28-.08,1.91-.11Zm-8.42.6h.74V228h-.74Zm8-3.9q-.8.06-1.86.09l-2.17.06-2.15,0-1.8,0v.78l1.78,0,2.15-.05,2.17-.07,1.88-.08Zm-.74.38h.74v-3.3h-.74Zm.74-3.64-1.92.07-2.24.06-2.22.06-1.86,0,.06.78,1.84,0,2.2-.05L73,225l1.91-.08Zm-4.36-18.46q-1.66.1-3.28.15t-3.18.07l.06.78q1.4,0,2.87-.07l2.89-.11Zm-6.92,9.2A12.25,12.25,0,0,0,66,213.27a14.54,14.54,0,0,0,2.08-2.13,9.93,9.93,0,0,0,.83-1.25q.39-.69.71-1.41a14.14,14.14,0,0,0,.55-1.44q.23-.72.37-1.38l-.9.26a12.66,12.66,0,0,1-.75,2.37,10.24,10.24,0,0,1-1.43,2.41,13.18,13.18,0,0,1-2,2,12.14,12.14,0,0,1-2.26,1.48Zm10.48,3.76h.74V202h-.74Zm4.06-8.7H74.86l-.38.35.38.41,3.32,0ZM61.86,186.3l3.91,0,4.11-.08,4.08-.11,3.82-.14,0-.78-3.85.15q-2,.07-4.1.11l-4.13.07-3.94,0Zm13.9,4-2,.12q-1.17.06-2.41.09l-2.42,0q-1.18,0-2,0v.78q.82,0,2,0l2.43,0,2.42-.08q1.17-.05,2-.11Zm-8.82,1h.74v-3.7h-.74Zm8.42-9-1.88.12q-1.08.06-2.23.09l-2.24,0q-1.09,0-1.93,0v.78q.82,0,1.91,0l2.24,0,2.24-.08,1.89-.11Zm-8.28.6h.74V180.1h-.74Zm7.84-3.42q-.8.05-1.84.09l-2.12.06-2.1,0-1.78,0v.78l1.76,0,2.1,0,2.12-.07,1.86-.08Zm-.74.38h.74v-2.82h-.74Zm.74-3.16-1.9.07-2.2.06-2.17.05-1.83,0,.06.78,1.82,0,2.15,0,2.18-.07,1.89-.08Zm-4.68-16.86q-1.36.1-2.92.15t-2.9,0v.76h1.4l1.49,0,1.5,0,1.43-.07Zm1.54,6.34a16,16,0,0,1-3.45.92,22.78,22.78,0,0,1-3.87.24l0,.74a22.49,22.49,0,0,0,4-.28,19.22,19.22,0,0,0,3.6-.92Zm-7.36,1.88.74-.2v-7.26h-.74Zm13.76-4.28H74.86l-.38.36.38.42,3.32,0Zm-4.06,8.82h.74V156h-.74Zm-.5-27.06a2,2,0,0,0,1.1,1.1,2.06,2.06,0,0,0,1.59,0,2,2,0,0,0,.66-.44,2.08,2.08,0,0,0,.44-.66,2.09,2.09,0,0,0,0-1.6,2.08,2.08,0,0,0-.44-.66,2,2,0,0,0-.66-.44,2.06,2.06,0,0,0-2.25.44,2.09,2.09,0,0,0-.44,2.26m2.84.14a1.37,1.37,0,0,1-1.89,0,1.35,1.35,0,0,1,0-1.88,1.37,1.37,0,0,1,1.89,0,1.35,1.35,0,0,1,0,1.88m-6.22-20.56q-1.36.1-2.92.15t-2.9,0v.76h1.4l1.49,0,1.5,0,1.43-.07Zm1.54,6.34a15.91,15.91,0,0,1-3.45.92,22.58,22.58,0,0,1-3.87.24l0,.74a22.39,22.39,0,0,0,4-.28,19.15,19.15,0,0,0,3.6-.92Zm-7.36,1.88.74-.2V125.9h-.74Zm13.76-4.28H74.86l-.38.36.38.42,3.32,0Zm-4.06,8.82h.74V121.24h-.74ZM72,111.28a30.26,30.26,0,0,1-3.56.88,29.24,29.24,0,0,1-3.88.44l0,.74a28.71,28.71,0,0,0,4-.46q1.89-.36,3.67-.88Zm-7.48,2,.74-.2v-8h-.74Zm9.64,4.58h.74V101.24h-.74ZM61.78,88.8l3.94,0,4.13-.07q2.07,0,4.1-.11l3.85-.15,0,.78L74,89.36l-4.08.11-4.11.08-3.91,0ZM76,85.9l-4.16-2.16-.36.68,2,1.07,2.07,1.13Zm-9.68.8a8.38,8.38,0,0,0,3.57-2.1A7.51,7.51,0,0,0,71.84,81l-.72-.18a9.25,9.25,0,0,1-.7,1.85,5.75,5.75,0,0,1-1,1.43,6.49,6.49,0,0,1-1.45,1.08A11.3,11.3,0,0,1,66,86Zm8.5,10.4H67.44v-.78h7.42Zm0-3.28-1.71.06-2,0-2,0H67.5v-.76h1.7l2,0,2-.06,1.7-.07Zm0,2.82h-.74V91h.74ZM67.44,91.3h.74v5.44h-.74Zm7.12-27.16H71.3v.78h3.26Zm0,3.32H71.3v.78h3.26ZM71.18,75l-1.9-1.36-.4.6,1.74,1.26ZM65,76.94a7.38,7.38,0,0,0,4.26-5.06l-.76-.16a6.56,6.56,0,0,1-1.36,2.8,7,7,0,0,1-2.58,1.82Zm12.08-.36L74,74.28l-.46.64.76.57L75,76l.73.56.79.63Zm-6.68.68a7.2,7.2,0,0,0,1.4-1A7.93,7.93,0,0,0,72.93,75a8.5,8.5,0,0,0,.83-1.48,7.66,7.66,0,0,0,.5-1.6l-.76-.16a7.33,7.33,0,0,1-1.18,2.86A7.21,7.21,0,0,1,70,76.66ZM71.32,69q-1.66.3-3.32.45a31.89,31.89,0,0,1-3.26.13v-3H64v3.78q.86,0,1.82,0t1.93-.11q1-.07,1.92-.19t1.79-.28ZM69.9,66q-1.58.14-3,.18L64,66.26V67q1.5,0,2.92-.07t3-.15Zm-.74.4h.74V63.24h-.74Zm.74-3.52L68.32,63l-1.5.05-1.47,0-1.51,0,.06.78,2.95-.06q1.41,0,3-.12Zm4.22,7.9h.74V61.24h-.74ZM62.38,55l3.83,0,3.93-.08,3.9-.11,3.74-.14,0-.78L74,54q-2,.07-3.93.11l-4,.07-3.85,0ZM75,43.72,73,43.8l-2.28.06-2.29,0-2,0,.06.78,1.88,0,2.1,0,2.05,0,1.75-.06Zm-1.24,8.82q.22-.94.42-2t.36-2.25q.16-1.15.28-2.31T75,43.72l-.8.26q0,.94-.14,2t-.26,2.2q-.16,1.11-.36,2.18t-.44,2Z"/><path class="cls-3" d="M93.5,377.48a9.36,9.36,0,0,0,1.92-1.81,12.21,12.21,0,0,0,1.41-2.23,13,13,0,0,0,.93-2.55,18.81,18.81,0,0,0,.48-2.79l-.76-.1a19.22,19.22,0,0,1-.45,2.71,11.85,11.85,0,0,1-.85,2.38,10.4,10.4,0,0,1-1.32,2.06A9.86,9.86,0,0,1,93,376.88Zm7.74-.3-2.9-4.06-.64.5q.68.9,1.42,1.95t1.44,2.11Zm3-5.54h-3.92v.78h3.92Zm-.12,10.26h.74V365.24h-.74ZM93.67,354.4a3.78,3.78,0,0,0,.73,1.18,3.37,3.37,0,0,0,1.09.79,3.27,3.27,0,0,0,2.69,0,3.38,3.38,0,0,0,1.09-.79,3.81,3.81,0,0,0,.73-1.18,4.1,4.1,0,0,0,0-2.92,3.81,3.81,0,0,0-.73-1.18,3.38,3.38,0,0,0-1.09-.79,3.27,3.27,0,0,0-2.69,0,3.37,3.37,0,0,0-1.09.79,3.78,3.78,0,0,0-.73,1.18,4.1,4.1,0,0,0,0,2.92m.67-2.65a2.85,2.85,0,0,1,.56-.95,2.63,2.63,0,0,1,.85-.63,2.51,2.51,0,0,1,1.07-.23,2.46,2.46,0,0,1,1.05.23,2.64,2.64,0,0,1,.85.63,3,3,0,0,1,.57.95,3.46,3.46,0,0,1,0,2.38,3,3,0,0,1-.57,1,2.64,2.64,0,0,1-.85.63,2.46,2.46,0,0,1-1.05.23,2.51,2.51,0,0,1-1.07-.23,2.63,2.63,0,0,1-.85-.63,2.85,2.85,0,0,1-.56-1,3.62,3.62,0,0,1,0-2.38m10.22-1.45h-3.5v.78h3.5Zm0,4.56h-3.5v.78h3.5Zm-.44,7h.74V345.24h-.74ZM91.86,332.66l3.91,0,4.11-.08,4.08-.11,3.82-.14,0-.78-3.85.15q-2,.07-4.1.11l-4.13.07-3.94,0Zm13.14-7.2-1.94.08-2.2.07-2.19,0-1.93,0,.06.77,1.91,0,2.18-.05,2.18-.06,1.93-.07Zm.66,4.14-4.2-1.6-.3.74,2.08.77,2.12.83Zm-9.36.9a8.16,8.16,0,0,0,3.48-1.68,5.8,5.8,0,0,0,1.74-2.74l-.74-.2a4.51,4.51,0,0,1-1.57,2.52A7.82,7.82,0,0,1,96,329.82Zm4.46,4.68h.74v-3.06h-.74Zm5.2,5-2,.12q-1.17.06-2.41.09l-2.42,0q-1.18,0-2,0v.78q.82,0,2,0l2.43,0,2.42-.08q1.17-.05,2-.11Zm-8.82.6h.74V338h-.74Zm7.72-3.36q-.8.06-1.82.09l-2.08.06-2.06,0-1.76,0v.78l1.74,0,2.06,0,2.08-.07,1.84-.08Zm-.74.38h.74V335h-.74Zm.74-3.1-1.88.07-2.16.06-2.13.06-1.81,0,.06.78,1.8,0,2.11-.05,2.14-.07,1.87-.08Zm-13-26.76,3.91,0,4.11-.08,4.08-.11,3.82-.14,0-.78-3.85.15q-2,.07-4.1.11l-4.13.07-3.94,0Zm13.5-3.62-1.88.12q-1.08.06-2.23.09l-2.24,0q-1.09,0-1.93,0v.78q.82,0,1.91,0l2.24,0,2.24-.08,1.89-.11Zm-8.28.6h.74v-2.5h-.74Zm7.84-3.1q-.8.06-1.84.09L101,302l-2.1,0-1.78,0v.78l1.76,0,2.1-.05,2.12-.07,1.86-.08Zm-.74.38h.74v-2.5h-.74Zm.74-2.84-1.9.07-2.2.06-2.17.05-1.83,0,.06.78,1.82,0,2.15-.05,2.18-.07,1.89-.08Zm1,15-2,.12q-1.17.06-2.41.09l-2.42,0q-1.18,0-2,0v.78q.82,0,2,0l2.43,0,2.42-.08q1.17,0,2-.11Zm-8.82.6h.74v-2.5h-.74Zm7.72-3.1q-.8.06-1.82.09L101,312l-2.06,0-1.76,0v.78l1.74,0,2.06-.05,2.08-.07,1.84-.08Zm-.74.38h.74v-2.5h-.74Zm.74-2.84-1.88.07-2.16.06-2.13.05-1.81,0,.06.78,1.8,0,2.11-.05,2.14-.07,1.87-.08Zm-4.34-26.4q-1.66.1-3.31.15l-3.21.07.06.78,2.9-.07,2.92-.11Zm-7,9.2a12.25,12.25,0,0,0,2.38-1.59A14.54,14.54,0,0,0,98,288.42a10.79,10.79,0,0,0,.84-1.25q.4-.69.73-1.41a14.34,14.34,0,0,0,.57-1.44,12.65,12.65,0,0,0,.38-1.38l-.9.26a11.59,11.59,0,0,1-.78,2.37A11.11,11.11,0,0,1,97.38,288a13.18,13.18,0,0,1-2,2,12.19,12.19,0,0,1-2.26,1.48Zm10.58,3.76h.74V279.24h-.74ZM92.38,273l3.83,0,3.93-.08,3.9-.11,3.74-.14,0-.78L104,272q-1.95.07-3.93.11l-3.95.07-3.85,0Zm11.88-7.26q-1,.2-2.07.37t-2.21.3l-2.23.23q-1.11.1-2.13.14l.1.72q1-.06,2.1-.16l2.22-.22q1.12-.13,2.21-.28t2.05-.34Zm.7-4.18-2,.08-2.42.06-2.43,0-2,0,.06.78,1.95,0,2.24,0,2.18,0,1.81-.07Zm-1.24,9q.24-.94.44-2.07t.36-2.32q.16-1.19.27-2.38t.17-2.25l-.8.26q0,.94-.14,2.05t-.25,2.25q-.15,1.14-.35,2.23t-.44,2Zm-8.87-30.43a3.19,3.19,0,0,0,.69,1,3.15,3.15,0,0,0,1,.69,3.38,3.38,0,0,0,2.55,0,3.16,3.16,0,0,0,1-.69,3.23,3.23,0,0,0,.69-1,3.26,3.26,0,0,0,0-2.5,3.25,3.25,0,0,0-.69-1,3.19,3.19,0,0,0-1-.69,3.38,3.38,0,0,0-2.55,0,3.18,3.18,0,0,0-1,.69,3.22,3.22,0,0,0-.94,2.28,3.18,3.18,0,0,0,.25,1.25m.68-2.22a2.45,2.45,0,0,1,.53-.79,2.63,2.63,0,0,1,.79-.54,2.57,2.57,0,0,1,2,0,2.64,2.64,0,0,1,.79.54,2.49,2.49,0,0,1,0,3.52,2.61,2.61,0,0,1-.79.54,2.57,2.57,0,0,1-2,0,2.59,2.59,0,0,1-.79-.54,2.52,2.52,0,0,1-.53-2.73m8.59,11.95h.74V233.24h-.74ZM103,244.46q-1.5.26-2.78.43t-2.51.29q-1.23.12-2.5.2t-2.77.14l.16.78q1.48-.06,2.75-.16t2.49-.23q1.22-.13,2.48-.3l2.74-.39ZM93.82,225.8A14.51,14.51,0,0,0,97,222.18a16,16,0,0,0,1.8-4.52L98,217.6a18.7,18.7,0,0,1-.7,2.26,11.64,11.64,0,0,1-1,2A12.14,12.14,0,0,1,95,223.58a17.39,17.39,0,0,1-1.74,1.66ZM108.18,221h-3.32l-.38.36.38.42,3.32,0Zm-5.86,3.88-3.86-3.64-.52.58.86.79,1,.94,1,1,.91.94ZM101.5,217l-1.68.08-2.06.07-2.06,0-1.68,0,.06.78,1.65,0,2-.05,2.05-.07,1.68-.08Zm2.62,12.88h.74V213.24h-.74ZM91.86,200.12l3.91,0,4.11-.08,4.08-.11q2-.06,3.82-.14l0-.78-3.85.15q-2,.07-4.1.11l-4.13.07-3.94,0ZM105,193.7l-1.9.08-2.19.06-2.16,0-1.83,0,.06.78,1.66,0,2,0,2,0,1.74-.06Zm-.68,4.62q.14-.62.25-1.16t.19-1.06q.08-.52.14-1.1t.1-1.3l-.8.26c0,.39-.05.75-.08,1.08s-.06.66-.11,1-.11.65-.18,1-.16.7-.25,1.1Zm1.68,9.62-2,.12q-1.17.06-2.41.09l-2.42,0q-1.18,0-2,0v.78q.82,0,2,0l2.43,0,2.42-.08q1.17,0,2-.11Zm-8.82.6h.74v-2.9h-.74Zm7.72-3.5q-.8.06-1.82.09l-2.08.06-2.06,0-1.76,0V206l1.74,0,2.06-.05,2.08-.07,1.84-.08Zm-.74.38h.74v-2.9h-.74Zm.74-3.24-1.88.07-2.16.06-2.13.05-1.81,0,.06.78,1.8,0,2.11,0L103,203l1.87-.08Zm-3.58-23a15.4,15.4,0,0,1-1.53.36q-.85.16-1.75.28t-1.77.19q-.87.07-1.59.07v.72q.74,0,1.63-.07t1.82-.19q.93-.12,1.81-.28t1.58-.34Zm-6.64,1.28h.74v-5.4h-.74Zm4.1,5.8,1.6,0,1.63-.05,1.59-.06,1.46-.07v-.8q-1.38.08-3,.14l-3.24.1Zm7.1,1.66-1.89.12q-1.09.06-2.24.09l-2.25,0q-1.1,0-1.94,0V189q.82,0,1.92,0l2.25,0,2.25-.08,1.9-.11Zm-8.32.61h.74v-5.48l-.74-.2Zm7.7-5.93-1.84.08-2.06.07-2,.06-1.77,0,.06.78,1.76,0,2-.06,2-.07,1.83-.08Zm3-4.86h-3.32l-.38.36.38.42,3.32,0Zm-4.06,3.68h.74v-8.22h-.74ZM93.67,156.4a3.76,3.76,0,0,0,.73,1.18,3.36,3.36,0,0,0,1.09.79,3.27,3.27,0,0,0,2.69,0,3.37,3.37,0,0,0,1.09-.79,3.8,3.8,0,0,0,.73-1.18,4.1,4.1,0,0,0,0-2.92,3.83,3.83,0,0,0-.73-1.18,3.4,3.4,0,0,0-1.09-.79,3.27,3.27,0,0,0-2.69,0,3.39,3.39,0,0,0-1.09.79,3.79,3.79,0,0,0-.73,1.18,4.1,4.1,0,0,0,0,2.92m.67-2.65a2.86,2.86,0,0,1,.56-1,2.66,2.66,0,0,1,.85-.63,2.51,2.51,0,0,1,1.07-.23,2.46,2.46,0,0,1,1.05.23,2.67,2.67,0,0,1,.85.63,3,3,0,0,1,.57,1,3.46,3.46,0,0,1,0,2.38,3,3,0,0,1-.57.95,2.64,2.64,0,0,1-.85.63,2.45,2.45,0,0,1-1.05.23,2.49,2.49,0,0,1-1.07-.23,2.63,2.63,0,0,1-.85-.63,2.84,2.84,0,0,1-.56-.95,3.62,3.62,0,0,1,0-2.38m10.22-1.45h-3.5v.78h3.5Zm0,4.56h-3.5v.78h3.5Zm-.44,7h.74V147.24h-.74Zm-11.74-23,3.83,0,3.93-.08,3.9-.11,3.74-.14,0-.78-3.77.15q-1.95.07-3.93.11l-3.95.07-3.85,0Zm12.42-5.36H97.38v.78h7.42Zm0-3.92-1.7.07-2,.06-2,0h-1.7v.76h1.68l2,0,2,0,1.71-.06Zm0-2.86h-.74v7h.74Zm-7.42,7.28h.74v-6.94h-.74Zm3.44,4.18h.74v-3.1h-.74Zm3.82-27.42H100.2v.78h4.44Zm-9.75-6.18a2.74,2.74,0,0,0,.64.89,2.93,2.93,0,0,0,1,.59,3.53,3.53,0,0,0,2.39,0,2.93,2.93,0,0,0,1-.59,2.74,2.74,0,0,0,.64-.89,2.65,2.65,0,0,0-.64-3,3.14,3.14,0,0,0-1-.59,3.38,3.38,0,0,0-2.39,0,3.14,3.14,0,0,0-1,.59,2.67,2.67,0,0,0-.64,3m4.46.38A2.65,2.65,0,0,1,96,107a2,2,0,0,1,0-2.93,2.65,2.65,0,0,1,3.31,0,2,2,0,0,1,0,2.93m-2.45,3.52a20.08,20.08,0,0,1-.54,3.1,18.76,18.76,0,0,1-1,3l.74.26a23.63,23.63,0,0,0,1-3.13,18.48,18.48,0,0,0,.54-3.25Zm7.22,7.36h.74V101.24h-.74Zm-2.26-8.16q-2.46.36-4.8.56t-5,.32l.16.78q2.6-.14,4.94-.36t4.72-.54ZM92.38,95.28l3.83,0,3.93-.08,3.9-.11,3.74-.14,0-.78-3.77.15q-1.95.07-3.93.11l-3.95.07-3.85,0Zm8.38-.68h.74V91.46h-.74Zm4.6-4.64-1.91.12q-1.11.06-2.28.09l-2.28,0q-1.11,0-1.95,0V91q.82,0,1.94,0l2.29,0,2.28-.08,1.91-.11Zm-8.42.6h.74v-3.3h-.74Zm8-3.9q-.8.06-1.86.09l-2.17.06-2.15,0-1.8,0v.78l1.78,0,2.15,0,2.17-.07,1.88-.08Zm-.74.38h.74v-3.3h-.74Zm.74-3.64-1.92.07-2.24.06-2.22.05-1.86,0,.06.78,1.84,0,2.2-.05,2.23-.07,1.91-.08Zm-7.2-8.66h.74v-2.1h-.74Zm3.84-9.36-1.72.08-2.17.07-2.17,0-1.72,0,.06.77,1.69,0,2.14,0,2.16-.06,1.73-.07Zm-1.28-1.6Q99.2,63.44,98.2,63t-2.06-.85l-.28.82q1,.44,2.06.81l2.06.71Zm7.9,5.4h-3.32l-.38.36.38.42,3.32,0Zm-4.06,8.72h.74V61.24h-.74Zm-8.75-7.22a2.26,2.26,0,0,0,.52.79,2.74,2.74,0,0,0,.86.57,3.22,3.22,0,0,0,2.34,0,2.73,2.73,0,0,0,.86-.57,2.26,2.26,0,0,0,.52-.79,2.36,2.36,0,0,0,0-1.76,2.26,2.26,0,0,0-.52-.79,2.73,2.73,0,0,0-.86-.57,3.22,3.22,0,0,0-2.34,0,2.74,2.74,0,0,0-.86.57,2.26,2.26,0,0,0-.52.79,2.36,2.36,0,0,0,0,1.76m.69-1.47a1.68,1.68,0,0,1,.36-.56,2,2,0,0,1,.61-.42,2.41,2.41,0,0,1,1.78,0,2,2,0,0,1,.61.42,1.68,1.68,0,0,1,.36.56,1.51,1.51,0,0,1,0,1.18,1.76,1.76,0,0,1-1,1,2.56,2.56,0,0,1-1.78,0,1.76,1.76,0,0,1-1-1,1.51,1.51,0,0,1,0-1.18m6.9,4.47q-1.5.26-2.78.43t-2.51.29q-1.23.12-2.5.2t-2.77.14l.16.78q1.48-.06,2.75-.15t2.49-.23q1.22-.13,2.48-.31l2.74-.39ZM92.38,55.18l3.83,0,3.93-.08L104,55l3.74-.14,0-.78-3.77.15q-1.95.07-3.93.11l-3.95.07-3.85,0ZM105,43.58l-2,.08-2.27.07-2.26,0-2,0,.06.77,1.94,0,2.25-.05,2.25-.06,2-.07Zm1.1,6.06-4.5-3-.42.66,1.07.72,1.15.78,1.15.79,1.07.73Zm-10.2.88a9.62,9.62,0,0,0,3.69-2.38,8.3,8.3,0,0,0,1.93-3.94l-.74-.2A7.49,7.49,0,0,1,99,47.66a8.64,8.64,0,0,1-3.45,2.16Zm4.72,4h.74V50.44h-.74Z"/><path class="cls-3" d="M130.56,342.94q-1.66.1-3.28.15l-3.18.07.06.78,2.87-.07,2.89-.11Zm-6.92,9.2a12.25,12.25,0,0,0,2.38-1.59,14.54,14.54,0,0,0,2.08-2.13,9.93,9.93,0,0,0,.83-1.25q.39-.69.71-1.41a14.14,14.14,0,0,0,.55-1.44q.23-.72.37-1.38l-.9.26a12.71,12.71,0,0,1-.75,2.37,10.24,10.24,0,0,1-1.43,2.41,13.18,13.18,0,0,1-2,2,12.19,12.19,0,0,1-2.26,1.48Zm10.48,3.76h.74V339.24h-.74Zm4.06-8.7h-3.32l-.38.35.38.41,3.32,0Zm-9.73-16.87a3.36,3.36,0,0,0,1.1-.79,3.55,3.55,0,0,0,.71-1.17,4.23,4.23,0,0,0,0-2.86,3.55,3.55,0,0,0-.71-1.17,3.43,3.43,0,0,0-5,0,3.52,3.52,0,0,0-.71,1.17,4.23,4.23,0,0,0,0,2.86,3.52,3.52,0,0,0,.71,1.17,3.35,3.35,0,0,0,1.1.79,3.6,3.6,0,0,0,2.83,0m-.29-6.12a2.62,2.62,0,0,1,.86.63,2.75,2.75,0,0,1,.55.94,3.62,3.62,0,0,1,0,2.32,2.75,2.75,0,0,1-.55.94,2.62,2.62,0,0,1-.86.63,2.86,2.86,0,0,1-2.25,0A2.61,2.61,0,0,1,125,329a2.75,2.75,0,0,1-.55-.94,3.62,3.62,0,0,1,0-2.32,2.75,2.75,0,0,1,.55-.94,2.61,2.61,0,0,1,.86-.63,2.86,2.86,0,0,1,2.25,0m6,11.69h.74V319.24h-.74ZM123.5,311.4a10.44,10.44,0,0,0,3.35-3.94,15.18,15.18,0,0,0,1.45-5.28l-.76-.1a14.59,14.59,0,0,1-1.33,5A10,10,0,0,1,123,310.8Zm14.68-4.62h-3.32l-.38.36.38.42,3.32,0Zm-6.6,4-3.34-4-.6.54,1.64,1.93q.88,1,1.64,2.07Zm2.54,5.16h.74V299.24h-.74Zm-10.3-24.1a14.52,14.52,0,0,0,3.16-3.62,16,16,0,0,0,1.8-4.52l-.78-.06a18.75,18.75,0,0,1-.7,2.26,11.68,11.68,0,0,1-1,2,12.2,12.2,0,0,1-1.33,1.76,17.5,17.5,0,0,1-1.74,1.66ZM138.18,287h-3.32l-.38.36.38.42,3.32,0Zm-5.86,3.88-3.86-3.64-.52.58.86.79,1,.94,1,1,.91.94ZM131.5,283l-1.68.08-2.06.07-2.06,0-1.68,0,.06.78,1.65,0,2-.05,2.05-.07,1.68-.08Zm2.62,12.88h.74V279.24h-.74Zm-12.26-29.78,3.91,0,4.11-.08,4.08-.11,3.82-.14,0-.78-3.85.15q-2,.07-4.1.11l-4.13.07-3.94,0ZM135,259.7l-1.9.08-2.19.06-2.16,0-1.83,0,.06.78,1.66,0,2,0,2,0,1.74-.06Zm-.68,4.62q.14-.62.25-1.16t.19-1.06q.08-.52.14-1.1t.1-1.3l-.8.26c0,.39-.05.75-.08,1.08s-.06.66-.11,1-.11.65-.18,1-.16.7-.25,1.1Zm1.68,9.62-2,.12q-1.17.06-2.41.09l-2.42,0q-1.18,0-2,0v.78q.82,0,2,0l2.43,0,2.42-.08q1.17,0,2-.11Zm-8.82.6h.74v-2.9h-.74Zm7.72-3.5q-.8.06-1.82.09l-2.08.06-2.06,0-1.76,0V272l1.74,0,2.06-.05,2.08-.07,1.84-.08Zm-.74.38h.74v-2.9h-.74Zm.74-3.24-1.88.07-2.16.06-2.13.05-1.81,0,.06.78,1.8,0,2.11-.05L133,269l1.87-.08Zm3.22-25.24h-3.22l-.38.36.38.42,3.22,0Zm0-4.3h-3.22l-.38.36.38.42,3.22,0Zm-9.58,5.68a3.14,3.14,0,0,0,1.08-.78,3.63,3.63,0,0,0,.7-1.17,4.23,4.23,0,0,0,0-2.86,3.53,3.53,0,0,0-.7-1.16,3.37,3.37,0,0,0-1.08-.78,3.55,3.55,0,0,0-2.81,0,3.36,3.36,0,0,0-1.08.78,3.52,3.52,0,0,0-.7,1.16,4.23,4.23,0,0,0,0,2.86,3.62,3.62,0,0,0,.7,1.17,3.13,3.13,0,0,0,1.08.78,3.67,3.67,0,0,0,2.81,0m-.28-6.09a2.43,2.43,0,0,1,.84.63,3,3,0,0,1,.53.93,3.56,3.56,0,0,1,0,2.3,2.94,2.94,0,0,1-.53.93,2.4,2.4,0,0,1-.84.63,2.86,2.86,0,0,1-2.25,0,2.4,2.4,0,0,1-.84-.63,2.94,2.94,0,0,1-.53-.93,3.56,3.56,0,0,1,0-2.3,3,3,0,0,1,.53-.93,2.42,2.42,0,0,1,.84-.63,2.86,2.86,0,0,1,2.25,0m5.91,11.67h.74V233.24h-.74Zm-10.45-27.5a3.76,3.76,0,0,0,.73,1.18,3.36,3.36,0,0,0,1.09.79,3.27,3.27,0,0,0,2.69,0,3.37,3.37,0,0,0,1.09-.79,3.8,3.8,0,0,0,.73-1.18,4.1,4.1,0,0,0,0-2.92,3.83,3.83,0,0,0-.73-1.18,3.4,3.4,0,0,0-1.09-.79,3.27,3.27,0,0,0-2.69,0,3.39,3.39,0,0,0-1.09.79,3.79,3.79,0,0,0-.73,1.18,4.1,4.1,0,0,0,0,2.92m.67-2.65a2.86,2.86,0,0,1,.56-.95,2.66,2.66,0,0,1,.85-.63,2.51,2.51,0,0,1,1.07-.23,2.46,2.46,0,0,1,1.05.23,2.67,2.67,0,0,1,.85.63,3,3,0,0,1,.57.95,3.46,3.46,0,0,1,0,2.38,3,3,0,0,1-.57.95,2.64,2.64,0,0,1-.85.63,2.45,2.45,0,0,1-1.05.23,2.49,2.49,0,0,1-1.07-.23,2.63,2.63,0,0,1-.85-.63,2.84,2.84,0,0,1-.56-.95,3.62,3.62,0,0,1,0-2.38m10.22-1.45h-3.5v.78h3.5Zm0,4.56h-3.5v.78h3.5Zm-.44,7h.74V213.24h-.74Zm-3.6-33q-1.66.1-3.31.15t-3.21.07l.06.78,2.9-.07,2.92-.11Zm-7,9.2a12.25,12.25,0,0,0,2.38-1.59,14.54,14.54,0,0,0,2.08-2.13,10.79,10.79,0,0,0,.84-1.25q.4-.69.73-1.41a14.35,14.35,0,0,0,.57-1.44,12.65,12.65,0,0,0,.38-1.38l-.9.26a11.55,11.55,0,0,1-.78,2.37,11.11,11.11,0,0,1-1.46,2.41,13.18,13.18,0,0,1-2,2,12.14,12.14,0,0,1-2.26,1.48Zm10.58,3.76h.74V193.24h-.74ZM122.38,187l3.83,0,3.93-.08,3.9-.11,3.74-.14,0-.78L134,186q-2,.07-3.93.11l-4,.07-3.85,0Zm11.88-7.26q-1,.2-2.07.37t-2.21.3q-1.12.13-2.23.23t-2.13.14l.1.72q1-.06,2.1-.15l2.22-.22q1.12-.13,2.21-.28t2.05-.34Zm.7-4.18-2,.08-2.42.06-2.43,0-2,0,.06.78,1.95,0,2.24,0,2.18,0,1.81-.07Zm-1.24,9q.24-.94.44-2.07t.36-2.32q.16-1.19.27-2.38t.17-2.25l-.8.26q0,.94-.14,2.05t-.25,2.25q-.15,1.14-.35,2.23t-.44,2Zm-11.86-28.08,3.91,0,4.11-.08,4.08-.11q2-.06,3.82-.14l0-.78-3.85.15q-2,.07-4.1.11l-4.13.07-3.94,0Zm10.69-3.18a3.3,3.3,0,0,0,1.12-.58,2.84,2.84,0,0,0,.74-3.38,2.71,2.71,0,0,0-.74-.93,3.3,3.3,0,0,0-1.12-.58,5,5,0,0,0-2.79,0,3.31,3.31,0,0,0-1.11.58,2.85,2.85,0,0,0-.74,3.39,2.74,2.74,0,0,0,.74.92,3.31,3.31,0,0,0,1.11.58,5,5,0,0,0,2.79,0m-3.39-1.08a2.1,2.1,0,0,1,0-3.29,3.81,3.81,0,0,1,4,0,2.1,2.1,0,0,1,0,3.29,3.81,3.81,0,0,1-4,0m6.6,9.2-2,.12q-1.17.06-2.41.09l-2.42,0q-1.18,0-2,0v.78q.82,0,2,0l2.43,0,2.42-.08q1.17,0,2-.11Zm-8.82,1h.74v-4.34h-.74ZM132,135.74l-3.48-2.88-.48.62q.86.7,1.67,1.4t1.71,1.52Zm-.66-6.32-1.62.08-1.93.08-1.92.05-1.61,0,.06.78,1.58,0,1.9-.06,1.92-.08,1.62-.08Zm-7.3,7.8a9.94,9.94,0,0,0,2.93-3,11.69,11.69,0,0,0,1.47-4.13l-.82-.06a13,13,0,0,1-.53,2.1,9,9,0,0,1-.82,1.74,7.76,7.76,0,0,1-1.18,1.48,12.83,12.83,0,0,1-1.59,1.32Zm10.06,0h.74v-10h-.74Zm.74,1.3-2,.07-2.35.06-2.32.05-1.9,0,.06.78,1.89,0,2.3-.05,2.33-.07,2-.08Zm-.74,5.18h.74V139h-.74Zm4.06-11h-3.32l-.38.35.38.41,3.32,0Zm-7.26-23.84h3.64v-.78h-3.64Zm0-3.38h3.64v-.78h-3.64Zm-6.76,3.72h.74v-5.56h-.74Zm5.8-5.68q-1.38.08-2.89.1l-2.91,0,.06.76,2.86,0q1.48,0,2.88-.08Zm-.74,5.8H130V104h-.74Zm.74-.42h-5.8v.78H130Zm4.16,4.2h.74V101.24h-.74Zm1.84,2.44-1.93.12q-1.13.06-2.34.09l-2.35,0q-1.14,0-2,0v.78q.82,0,2,0l2.35,0,2.35-.08,1.94-.11Zm-8.6.8h.74v-4.26h-.74Zm1.44-22.13a2.75,2.75,0,0,0,1.5-1.57,2.91,2.91,0,0,0,0-2.12,2.75,2.75,0,0,0-1.5-1.57,3.4,3.4,0,0,0-2.56,0,2.75,2.75,0,0,0-1.5,1.57,2.91,2.91,0,0,0,0,2.12,2.75,2.75,0,0,0,1.5,1.57,3.4,3.4,0,0,0,2.56,0m-2.28-.66a2,2,0,0,1-.69-.5,2.2,2.2,0,0,1-.41-.69,2.24,2.24,0,0,1-.14-.78,2.28,2.28,0,0,1,.14-.77,2.17,2.17,0,0,1,.41-.7,2,2,0,0,1,.69-.5,2.7,2.7,0,0,1,2,0,2,2,0,0,1,.7.5,2.17,2.17,0,0,1,.41.7,2.28,2.28,0,0,1,.14.77,2.24,2.24,0,0,1-.14.78,2.2,2.2,0,0,1-.41.69,2,2,0,0,1-.7.5,2.7,2.7,0,0,1-2,0m11.66-4.37h-3.32l-.38.36.38.42,3.32,0Zm-6.82-2.88-1.79.08-2.3.07-2.3,0-1.79,0,.06.78h1.09l1.4,0,1.55,0,1.56,0,1.41,0,1.11-.05Zm-1.68-2.24q-1.08-.34-2.08-.73t-2.06-.85l-.28.82q1,.44,2.06.81l2.06.71Zm4.44,13.84h.74V81.24h-.74ZM122.38,75.12l3.83,0,3.93-.08,3.9-.11,3.74-.14,0-.78-3.77.15q-2,.07-3.93.11l-4,.07-3.85,0ZM135,63.58l-2,.08-2.43.06-2.4,0-1.94,0,.06.78,1.77,0,2.22,0,2.24,0q1.09,0,1.85-.06Zm-.7,6.92q.28-1.72.46-3.4t.24-3.52l-.8.26q0,1.56-.19,3.2t-.45,3.3Zm-6.24,4L127.88,69l-.76,0,.16,5.46Zm3-.12h.74v-5.5h-.74Zm-.58-22.18h-6.32V53h6.32Zm0-4.32q-1.48.08-3.13.13t-3.13,0v.76h1.51l1.6,0,1.61-.05,1.54-.06Zm0-3.58h-.74v8.26h.74Zm-6.32,8.32h.74v-8h-.74Zm10,5.3h.74V41.24h-.74Z"/><path class="cls-3" d="M163,379.1l-2.62.4q-1.26.18-2.54.31t-2.61.21l-2.79.14.16.78q1.46-.06,2.78-.15t2.57-.22q1.25-.13,2.5-.3t2.61-.39Zm-1.72-7.94q-1.66.1-3.47.16t-3.45.06l.06.78q1.48,0,3.1,0t3.12-.14Zm-1.08,6.34q.4-1.5.67-3.07t.41-3.27l-.8.26q-.1,1.42-.36,2.93a28.69,28.69,0,0,1-.66,2.93Zm-4,2.72h.74V375.7h-.74Zm12-2.72h-3.32l-.38.36.38.42,3.32,0Zm-4.06,7.12h.74V368h-.74Zm-4.42-28.26.28-4.46-.78,0L159,356.3Zm-3.54.3-.32-4.48-.8.06.4,4.48Zm6.08-.94q-2.24.3-4.47.46t-4.75.22l.12.78q2.44-.08,4.67-.26t4.55-.46Zm-1.1-5.68-1.69.11-2,.09-2,.06-1.69,0,.06.78,1.66,0,2-.06,2-.09,1.71-.09Zm7,3.66h-3.32l-.38.36.38.42,3.32,0Zm-4.06,6.12h.74V348h-.74Zm1.84,2.44-1.93.12q-1.13.06-2.34.09l-2.35,0q-1.14,0-2,0v.78q.82,0,2,0l2.35,0,2.35-.08,1.94-.11Zm-8.6.8h.74v-3.92h-.74Zm-5-21.16,3.83,0,3.93-.08,3.9-.11,3.74-.14,0-.78-3.77.15q-2,.07-3.93.11l-4,.07-3.85,0ZM165,330.3l-2,.08-2.27.07-2.26,0-2,0,.06.77,1.94,0,2.25,0,2.25-.06,2-.07Zm1.1,6.06-4.5-3-.42.66,1.07.72,1.15.78,1.15.79,1.07.73Zm-10.2.88a9.62,9.62,0,0,0,3.69-2.38,8.3,8.3,0,0,0,1.93-3.94l-.74-.2a7.49,7.49,0,0,1-1.77,3.66,8.64,8.64,0,0,1-3.45,2.16Zm4.72,4h.74v-4.06h-.74Zm-.1-35.56q-1.66.1-3.31.15l-3.21.07.06.78,2.9-.07,2.92-.11Zm-7,9.2a12.25,12.25,0,0,0,2.38-1.59,14.54,14.54,0,0,0,2.08-2.13,10.79,10.79,0,0,0,.84-1.25q.4-.69.73-1.41a14.34,14.34,0,0,0,.57-1.44,12.65,12.65,0,0,0,.38-1.38l-.9.26a11.59,11.59,0,0,1-.78,2.37,11.11,11.11,0,0,1-1.46,2.41,13.18,13.18,0,0,1-2,2,12.19,12.19,0,0,1-2.26,1.48Zm10.58,3.76h.74V302h-.74Zm-6.14-27-1.7-2.46-.58.46q.5.68,1,1.35t.92,1.37Zm5.24,1.84-2.66-3.84-.58.48.65.91.7,1,.67,1,.6.91Zm-5.76,1.24a14,14,0,0,0,1.13-1.87,17.49,17.49,0,0,0,.89-2.09,18,18,0,0,0,.62-2.2,22.22,22.22,0,0,0,.36-2.2l-.78,0a18.81,18.81,0,0,1-.91,4.2,14.2,14.2,0,0,1-1.95,3.76Zm4.72-8.9-1.15.07-1,0-1,0h-1.15l.06.76h1.12l1,0,1,0,1.15-.07Zm-4.6,0-1.17.07-1,0-1,0h-1.17l.06.76h1.14l1,0,1,0,1.17-.07Zm-4.24,8.12a14,14,0,0,0,1.91-3.61,17.69,17.69,0,0,0,.87-4l-.78,0q-.12,1-.31,2a13.27,13.27,0,0,1-.5,1.8,12.55,12.55,0,0,1-.76,1.71,15.17,15.17,0,0,1-1.07,1.7Zm10.78,4.68h.74V282h-.74Zm4.06-8.92h-3.32l-.38.36.38.42,3.32,0ZM152.38,276l3.83,0,3.93-.08,3.9-.11,3.74-.14,0-.78L164,275q-2,.07-3.93.11l-4,.07-3.85,0Zm8.38-.68h.74v-3.14h-.74Zm4.6-4.64-1.91.12q-1.11.06-2.28.09l-2.28,0q-1.11,0-1.95,0v.78q.82,0,1.94,0l2.29,0,2.28-.08,1.91-.11Zm-8.42.6h.74V268h-.74Zm8-3.9q-.8.06-1.86.09l-2.17.06-2.15,0-1.8,0v.78l1.78,0,2.15-.05,2.17-.07,1.88-.08Zm-.74.38h.74v-3.3h-.74Zm.74-3.64-1.92.07-2.24.06-2.22.05-1.86,0,.06.78,1.84,0,2.2-.05L163,265l1.91-.08Zm-4.36-18.46q-1.66.1-3.28.15l-3.18.07.06.78,2.87-.07,2.89-.11Zm-6.92,9.2a12.25,12.25,0,0,0,2.38-1.59,14.54,14.54,0,0,0,2.08-2.13,9.93,9.93,0,0,0,.83-1.25q.39-.69.71-1.41a14.14,14.14,0,0,0,.55-1.44q.23-.72.37-1.38l-.9.26a12.71,12.71,0,0,1-.75,2.37,10.24,10.24,0,0,1-1.43,2.41,13.18,13.18,0,0,1-2,2,12.19,12.19,0,0,1-2.26,1.48Zm10.48,3.76h.74V242h-.74Zm4.06-8.7h-3.32l-.38.35.38.41,3.32,0Zm-4.56-18.36a2.05,2.05,0,0,0,3.34.66,2.08,2.08,0,0,0,.44-.66,2.08,2.08,0,0,0-.44-2.26,2,2,0,0,0-3.34.66,2.09,2.09,0,0,0,0,1.6m2.84.14a1.37,1.37,0,0,1-1.89,0,1.35,1.35,0,0,1,0-1.88,1.37,1.37,0,0,1,1.89,0,1.35,1.35,0,0,1,0,1.88m-6.22-20.56q-1.36.1-2.92.15t-2.9,0v.76h1.4l1.49,0,1.5-.05,1.43-.07Zm1.54,6.34a15.85,15.85,0,0,1-3.45.92,22.57,22.57,0,0,1-3.87.24l0,.74a22.3,22.3,0,0,0,4-.28,19.15,19.15,0,0,0,3.6-.92Zm-7.36,1.88.74-.2V211.9h-.74Zm13.76-4.28h-3.32l-.38.36.38.42,3.32,0Zm-4.06,8.82h.74V207.24h-.74ZM162,197.28a30.05,30.05,0,0,1-3.56.88,29.07,29.07,0,0,1-3.88.44l0,.74a28.56,28.56,0,0,0,4-.46q1.89-.36,3.67-.88Zm-7.48,2,.74-.2v-8h-.74Zm9.64,4.58h.74V187.24h-.74Zm-12.34-29.1,3.94,0,4.13-.07q2.07,0,4.1-.11l3.85-.15,0,.78q-1.8.08-3.82.14l-4.08.11-4.11.08-3.91,0ZM166,171.9l-4.16-2.16-.36.68,2,1.07,2.07,1.13Zm-9.68.8a8.38,8.38,0,0,0,3.57-2.1,7.5,7.5,0,0,0,1.91-3.56l-.72-.18a9.23,9.23,0,0,1-.7,1.85,5.75,5.75,0,0,1-1,1.43,6.43,6.43,0,0,1-1.45,1.08A11.3,11.3,0,0,1,156,172Zm8.5,10.4h-7.42v-.78h7.42Zm0-3.28-1.71.06-2,0-2,0H157.5v-.76h1.7l2,0,2-.06,1.7-.07Zm0,2.82h-.74V177h.74Zm-7.42-5.34h.74v5.44h-.74Zm-2.5-14.36a6.83,6.83,0,0,0,2.92-2.16,7.51,7.51,0,0,0,1.46-3.36l-.76-.16a7.19,7.19,0,0,1-1.31,3.14,6.38,6.38,0,0,1-2.75,1.94Zm6.54-2.28-2-1.4-.4.6,1.8,1.32Zm5.6,1.94L164,160.26l-.46.64q.42.3.77.58l.7.55.72.56.79.65Zm-6.82.66a7.09,7.09,0,0,0,1.54-1,7.57,7.57,0,0,0,1.23-1.39,7.7,7.7,0,0,0,.86-1.64,7.93,7.93,0,0,0,.45-1.77l-.76-.16a7.71,7.71,0,0,1-1.16,3.19,6.42,6.42,0,0,1-2.6,2.21Zm-6.09-9.6a3.23,3.23,0,0,0,.69,1,3.32,3.32,0,0,0,1,.7,3.29,3.29,0,0,0,2.56,0,3.3,3.3,0,0,0,1-.7,3.26,3.26,0,0,0,.69-1,3.21,3.21,0,0,0,0-2.48,3.28,3.28,0,0,0-.69-1,3.33,3.33,0,0,0-1-.7,3.29,3.29,0,0,0-2.56,0,3.36,3.36,0,0,0-1,.7,3.25,3.25,0,0,0-.69,1,3.21,3.21,0,0,0,0,2.48m.68-2.19a2.67,2.67,0,0,1,.52-.8,2.39,2.39,0,0,1,.79-.55,2.62,2.62,0,0,1,2,0,2.4,2.4,0,0,1,.79.55,2.67,2.67,0,0,1,.52.8,2.46,2.46,0,0,1,0,1.9,2.66,2.66,0,0,1-.52.8,2.37,2.37,0,0,1-.79.55,2.62,2.62,0,0,1-2,0,2.36,2.36,0,0,1-.79-.55,2.66,2.66,0,0,1-.52-.8,2.46,2.46,0,0,1,0-1.9m9.79,2.25h-3.36v.78h3.36Zm0-3.68-3.36,0v.76h3.36Zm-.52,6.14h.74v-8.94h-.74Zm-5.32-16a2.75,2.75,0,0,0,1.5-1.57,2.91,2.91,0,0,0,0-2.12,2.75,2.75,0,0,0-1.5-1.57,3.4,3.4,0,0,0-2.56,0,2.75,2.75,0,0,0-1.5,1.57,2.91,2.91,0,0,0,0,2.12,2.75,2.75,0,0,0,1.5,1.57,3.4,3.4,0,0,0,2.56,0m-2.28-.66a2,2,0,0,1-.69-.5,2.18,2.18,0,0,1-.41-.69,2.24,2.24,0,0,1-.14-.78,2.28,2.28,0,0,1,.14-.77,2.17,2.17,0,0,1,.41-.7,2,2,0,0,1,.69-.5,2.7,2.7,0,0,1,2,0,2,2,0,0,1,.7.5,2.17,2.17,0,0,1,.41.7,2.28,2.28,0,0,1,.14.77,2.24,2.24,0,0,1-.14.78,2.18,2.18,0,0,1-.41.69,2,2,0,0,1-.7.5,2.7,2.7,0,0,1-2,0m11.66-4.37h-3.32l-.38.36.38.42,3.32,0Zm-6.82-2.88-1.79.08-2.3.07-2.3,0-1.79,0,.06.78h1.09l1.4,0,1.55,0,1.56,0,1.41,0,1.11-.05Zm-1.68-2.24q-1.08-.34-2.08-.73t-2.06-.85l-.28.82q1,.44,2.06.81l2.06.71Zm4.44,13.84h.74V127.24h-.74ZM154,116.32a9.9,9.9,0,0,0,2.78-2.77,10.18,10.18,0,0,0,1.42-3.75l-.82-.06a12.07,12.07,0,0,1-.51,1.91,7.19,7.19,0,0,1-.78,1.55,7.59,7.59,0,0,1-1.12,1.31,13.42,13.42,0,0,1-1.51,1.21Zm10.44-4.56h-3.76v.78h3.76Zm-3.34-2.58-1.62.08-1.93.08-1.92.05-1.61,0,.06.78,1.58,0,1.9-.06,1.92-.08,1.62-.08Zm.08,5.88-2.86-2.5-.5.62,1.38,1.22q.62.56,1.4,1.32Zm4.78,7-1.94.12q-1.14.06-2.34.09l-2.35,0q-1.15,0-2,0V123q.82,0,2,0l2.36,0,2.35-.08q1.14,0,1.94-.11Zm-8.62.6h.74v-2.68h-.74Zm7.52-3.28-1.79.09-2,.06-2,0-1.73,0v.78l1.71,0,2-.05,2-.07,1.81-.08Zm-.74.38h.74v-2.8h-.74Zm.74-3.14-1.85.07-2.09.06-2.06.06-1.78,0,.06.78,1.77,0,2,0,2.07-.07,1.84-.08Zm-.74-.68h.74v-8.66h-.74Zm-11.74-14.72,3.83,0,3.93-.08L164,101l3.74-.14,0-.78-3.77.15q-2,.07-3.93.11l-4,.07-3.85,0ZM165,89.58l-2,.08-2.27.07-2.26,0-2,0,.06.76,1.94,0,2.25-.05,2.25-.06,2-.07Zm1.1,6.06-4.5-3-.42.66,1.07.72,1.15.78,1.15.79,1.07.73Zm-10.2.88a9.61,9.61,0,0,0,3.69-2.38,8.3,8.3,0,0,0,1.93-3.94l-.74-.2A7.49,7.49,0,0,1,159,93.66a8.64,8.64,0,0,1-3.45,2.16Zm4.72,4h.74V96.44h-.74Zm1.1-28-1.68.23-1.81.2-1.81.16q-.9.07-1.7.09V69.28H154V74q.82,0,1.83-.09l2.07-.15q1.06-.09,2.08-.2l1.84-.23Zm-1.18-3.88q-1.58.14-3.31.18l-3.25.06v.78l3.25-.07q1.75,0,3.31-.15Zm-.74.4h.74V65h-.74Zm.74-4.36q-1.66.09-3.41.13l-3.31.05.06.78,3.29-.06q1.73,0,3.37-.12Zm7.64,4.1h-3.32l-.38.36.38.42,3.32,0Zm-4.06,9.12h.74V61.24h-.74Zm4.06-29.12h-3.32l-.38.36.38.42,3.32,0Zm-6-3.82-.94,0-.77,0h-1.79l.06.78h1.73l.77,0,.94,0ZM162.9,52a18.39,18.39,0,0,1-2.08.42,15.2,15.2,0,0,1-2.1.14l0,.74a18.06,18.06,0,0,0,4.44-.54Zm-4.22,1.28.74-.2V45.44l-.74-.4Zm-1-1.52a6.88,6.88,0,0,1-1.77.69,9.57,9.57,0,0,1-1.91.21l0,.72a11.17,11.17,0,0,0,2.08-.22,8.2,8.2,0,0,0,2-.72ZM154,53.42l.74-.2V45.44L154,45Zm3.4-8.46-.92,0-.74,0H154l.06.78h1.69l.73,0,.92,0Zm6.74,12.94h.74V41.24h-.74Z"/><path class="cls-3" d="M183.21,348.57a3.38,3.38,0,0,0,.63,1.11,2.76,2.76,0,0,0,1,.71,3.07,3.07,0,0,0,2.43,0,2.76,2.76,0,0,0,1-.71,3.4,3.4,0,0,0,.63-1.11,4.54,4.54,0,0,0,0-2.86,3.4,3.4,0,0,0-.63-1.11,2.76,2.76,0,0,0-1-.71,3.07,3.07,0,0,0-2.43,0,2.76,2.76,0,0,0-1,.71,3.38,3.38,0,0,0-.63,1.11,4.54,4.54,0,0,0,0,2.86m1.15-3.46a2.2,2.2,0,0,1,3.31,0,3.55,3.55,0,0,1,0,4.06,2.2,2.2,0,0,1-3.31,0,3.55,3.55,0,0,1,0-4.06m7.4,1.53h-2.32v.78h2.32Zm-.5,7.26H192V340.44h-.74Zm2.88,2h.74V339.24h-.74Zm-5.69-25.57a3.36,3.36,0,0,0,1.1-.79,3.55,3.55,0,0,0,.71-1.17,4.23,4.23,0,0,0,0-2.86,3.55,3.55,0,0,0-.71-1.17,3.43,3.43,0,0,0-5,0,3.52,3.52,0,0,0-.71,1.17,4.23,4.23,0,0,0,0,2.86,3.52,3.52,0,0,0,.71,1.17,3.35,3.35,0,0,0,1.1.79,3.6,3.6,0,0,0,2.83,0m-.29-6.12a2.62,2.62,0,0,1,.86.63,2.75,2.75,0,0,1,.55.94,3.62,3.62,0,0,1,0,2.32,2.75,2.75,0,0,1-.55.94,2.62,2.62,0,0,1-.86.63,2.86,2.86,0,0,1-2.25,0A2.6,2.6,0,0,1,185,329a2.74,2.74,0,0,1-.55-.94,3.62,3.62,0,0,1,0-2.32,2.74,2.74,0,0,1,.55-.94,2.6,2.6,0,0,1,.86-.63,2.86,2.86,0,0,1,2.25,0m6,11.69h.74V319.24h-.74ZM183.5,311.4a10.44,10.44,0,0,0,3.35-3.94,15.18,15.18,0,0,0,1.45-5.28l-.76-.1a14.59,14.59,0,0,1-1.33,5A10,10,0,0,1,183,310.8Zm14.68-4.62h-3.32l-.38.36.38.42,3.32,0Zm-6.6,4-3.34-4-.6.54,1.64,1.93q.88,1,1.64,2.07Zm2.54,5.16h.74V299.24h-.74Zm-10.3-24.1a14.52,14.52,0,0,0,3.16-3.62,16,16,0,0,0,1.8-4.52l-.78-.06a18.75,18.75,0,0,1-.7,2.26,11.68,11.68,0,0,1-1,2,12.2,12.2,0,0,1-1.33,1.76,17.5,17.5,0,0,1-1.74,1.66ZM198.18,287h-3.32l-.38.36.38.42,3.32,0Zm-5.86,3.88-3.86-3.64-.52.58.86.79,1,.94,1,1,.91.94ZM191.5,283l-1.68.08-2.06.07-2.06,0-1.68,0,.06.78,1.65,0,2-.05,2.05-.07,1.68-.08Zm2.62,12.88h.74V279.24h-.74Zm-12.26-29.78,3.91,0,4.11-.08,4.08-.11,3.82-.14,0-.78-3.85.15q-2,.07-4.1.11l-4.13.07-3.94,0ZM195,259.7l-1.9.08-2.19.06-2.16,0-1.83,0,.06.78,1.66,0,2,0,2,0,1.74-.06Zm-.68,4.62q.14-.62.25-1.16t.19-1.06q.08-.52.14-1.1t.1-1.3l-.8.26c0,.39-.05.75-.08,1.08s-.06.66-.11,1-.11.65-.18,1-.16.7-.25,1.1Zm1.68,9.62-2,.12q-1.17.06-2.41.09l-2.42,0q-1.18,0-2,0v.78q.82,0,2,0l2.43,0,2.42-.08q1.17,0,2-.11Zm-8.82.6h.74v-2.9h-.74Zm7.72-3.5q-.8.06-1.82.09l-2.08.06-2.06,0-1.76,0V272l1.74,0,2.06-.05,2.08-.07,1.84-.08Zm-.74.38h.74v-2.9h-.74Zm.74-3.24-1.88.07-2.16.06-2.13.05-1.81,0,.06.78,1.8,0,2.11-.05L193,269l1.87-.08Zm-10-28a3.16,3.16,0,0,0,.69,1,3.25,3.25,0,0,0,1,.68,3.48,3.48,0,0,0,2.59,0,3.25,3.25,0,0,0,1-.68,3.17,3.17,0,0,0,.69-1,3.16,3.16,0,0,0,0-2.46,3.18,3.18,0,0,0-.69-1,3.28,3.28,0,0,0-1-.68,3.48,3.48,0,0,0-2.59,0,3.28,3.28,0,0,0-1,.68,3.17,3.17,0,0,0-.69,1,3.16,3.16,0,0,0,0,2.46m.68-2.18a2.37,2.37,0,0,1,1.32-1.3,2.85,2.85,0,0,1,2,0,2.43,2.43,0,0,1,0,4.5,2.85,2.85,0,0,1-2,0,2.39,2.39,0,0,1-.79-.52,2.42,2.42,0,0,1-.52-.78,2.46,2.46,0,0,1,0-1.9m2.09,7.47h.74v-2.78h-.74Zm6.44,4.4h.74V233.24h-.74ZM193,244.4q-1.5.24-2.78.41t-2.51.29q-1.23.12-2.5.2t-2.77.14l.16.78q1.48-.06,2.75-.15t2.49-.22q1.22-.13,2.48-.3l2.74-.39Zm5.22-3h-3.32l-.38.36.38.42,3.32,0ZM183.82,225.8a14.51,14.51,0,0,0,3.16-3.62,16,16,0,0,0,1.8-4.52l-.78-.06a18.7,18.7,0,0,1-.7,2.26,11.64,11.64,0,0,1-1,2,12.14,12.14,0,0,1-1.33,1.76,17.39,17.39,0,0,1-1.74,1.66ZM198.18,221h-3.32l-.38.36.38.42,3.32,0Zm-5.86,3.88-3.86-3.64-.52.58.86.79,1,.94,1,1,.91.94ZM191.5,217l-1.68.08-2.06.07-2.06,0-1.68,0,.06.78,1.65,0,2-.05,2.05-.07,1.68-.08Zm2.62,12.88h.74V213.24h-.74Zm-12.26-29.78,3.91,0,4.11-.08,4.08-.11q2-.06,3.82-.14l0-.78-3.85.15q-2,.07-4.1.11l-4.13.07-3.94,0ZM195,193.7l-1.9.08-2.19.06-2.16,0-1.83,0,.06.78,1.66,0,2,0,2,0,1.74-.06Zm-.68,4.62q.14-.62.25-1.16t.19-1.06q.08-.52.14-1.1t.1-1.3l-.8.26c0,.39-.05.75-.08,1.08s-.06.66-.11,1-.11.65-.18,1-.16.7-.25,1.1Zm1.68,9.62-2,.12q-1.17.06-2.41.09l-2.42,0q-1.18,0-2,0v.78q.82,0,2,0l2.43,0,2.42-.08q1.17,0,2-.11Zm-8.82.6h.74v-2.9h-.74Zm7.72-3.5q-.8.06-1.82.09l-2.08.06-2.06,0-1.76,0V206l1.74,0,2.06-.05,2.08-.07,1.84-.08Zm-.74.38h.74v-2.9h-.74Zm.74-3.24-1.88.07-2.16.06-2.13.05-1.81,0,.06.78,1.8,0,2.11,0L193,203l1.87-.08Zm-13-25.84,3.91,0,4.11-.08,4.08-.11q2-.06,3.82-.14l0-.78-3.85.15q-2,.07-4.1.11l-4.13.07-3.94,0Zm13.9,5.16-2,.12q-1.17.06-2.41.09l-2.42,0q-1.18,0-2,0v.78q.82,0,2,0l2.43,0,2.42-.08q1.17,0,2-.11Zm-.2-9.84-1.94.12q-1.14.06-2.34.09l-2.35,0q-1.15,0-2,0v.78q.82,0,2,0l2.36,0,2.35-.08q1.14,0,1.94-.11Zm-8.62,1h.74v-4.84h-.74Zm0,9.84h.74v-4.34h-.74Zm3.58-31.56q-1.66.1-3.31.15t-3.21.07l.06.78,2.9-.07,2.92-.11Zm-7,9.2a12.25,12.25,0,0,0,2.38-1.59,14.54,14.54,0,0,0,2.08-2.13,10.79,10.79,0,0,0,.84-1.25q.4-.69.73-1.41a14.35,14.35,0,0,0,.57-1.44,12.65,12.65,0,0,0,.38-1.38l-.9.26a11.55,11.55,0,0,1-.78,2.37,11.11,11.11,0,0,1-1.46,2.41,13.18,13.18,0,0,1-2,2,12.14,12.14,0,0,1-2.26,1.48Zm10.58,3.76h.74V147.24h-.74ZM182.38,141l3.83,0,3.93-.08,3.9-.11,3.74-.14,0-.78L194,140q-2,.07-3.93.11l-4,.07-3.85,0Zm11.88-7.26q-1,.2-2.07.37t-2.21.3q-1.12.13-2.23.23t-2.13.14l.1.72q1-.06,2.1-.15l2.22-.22q1.12-.13,2.21-.28t2.05-.34Zm.7-4.18-2,.08-2.42.06-2.43,0-2,0,.06.78,1.95,0,2.24,0,2.18,0,1.81-.07Zm-1.24,9q.24-.94.44-2.07t.36-2.32q.16-1.19.27-2.38t.17-2.25l-.8.26q0,.94-.14,2.05t-.25,2.25q-.15,1.14-.35,2.23t-.44,2Zm-8.87-30.43a3.17,3.17,0,0,0,1.73,1.72,3.38,3.38,0,0,0,2.55,0,3.19,3.19,0,0,0,1-.69,3.24,3.24,0,0,0,.69-1,3.26,3.26,0,0,0,0-2.5,3.24,3.24,0,0,0-.69-1,3.19,3.19,0,0,0-1-.69,3.38,3.38,0,0,0-2.55,0,3.23,3.23,0,0,0-1.73,4.22m.68-2.22a2.45,2.45,0,0,1,.53-.79,2.59,2.59,0,0,1,.79-.54,2.57,2.57,0,0,1,2,0,2.6,2.6,0,0,1,.79.54,2.49,2.49,0,0,1,0,3.52,2.61,2.61,0,0,1-.79.54,2.57,2.57,0,0,1-2,0,2.59,2.59,0,0,1-.79-.54,2.52,2.52,0,0,1-.53-2.73m8.59,12h.74V101.24h-.74ZM193,112.46q-1.5.26-2.78.43t-2.51.29q-1.23.12-2.5.2t-2.77.14l.16.78q1.48-.06,2.75-.16t2.49-.23q1.22-.13,2.48-.3l2.74-.39ZM183.82,93.8A14.52,14.52,0,0,0,187,90.18a16,16,0,0,0,1.8-4.52L188,85.6a18.75,18.75,0,0,1-.7,2.26,11.68,11.68,0,0,1-1,2A12.2,12.2,0,0,1,185,91.58a17.5,17.5,0,0,1-1.74,1.66ZM198.18,89h-3.32l-.38.36.38.42,3.32,0Zm-5.86,3.88-3.86-3.64-.52.58.86.79,1,.94,1,1,.91.94ZM191.5,85l-1.68.08-2.06.07-2.06,0-1.68,0,.06.78,1.65,0,2-.05,2.05-.07,1.68-.08Zm2.62,12.88h.74V81.24h-.74ZM181.86,68.12l3.91,0,4.11-.08L194,67.9l3.82-.14,0-.78-3.85.15q-2,.07-4.1.11l-4.13.07-3.94,0ZM195,61.7l-1.9.08-2.19.06-2.16,0-1.83,0,.06.78,1.66,0,2,0,2,0,1.74-.06Zm-.68,4.62q.14-.62.25-1.16t.19-1.06q.08-.52.14-1.1t.1-1.3l-.8.26c0,.39-.05.75-.08,1.08s-.06.66-.11,1-.11.65-.18,1-.16.7-.25,1.1ZM196,75.94l-2,.12q-1.17.06-2.41.09l-2.42,0q-1.18,0-2,0v.78q.82,0,2,0l2.43,0,2.42-.08q1.17-.05,2-.11Zm-8.82.6h.74v-2.9h-.74Zm7.72-3.5q-.8.06-1.82.09L191,73.2l-2.06,0-1.76,0V74l1.74,0,2.06,0L193,73.9l1.84-.08Zm-.74.38h.74v-2.9h-.74Zm.74-3.24-1.88.07-2.16.06-2.13.05-1.81,0,.06.78,1.8,0,2.11-.05L193,71l1.87-.08Zm-3.58-23q-.68.2-1.53.36t-1.75.28q-.9.12-1.77.19t-1.59.07v.72q.74,0,1.63-.07t1.82-.19q.93-.12,1.81-.28t1.58-.34Zm-6.64,1.28h.74V43.1h-.74Zm4.1,5.8,1.6,0,1.63,0,1.59-.06,1.46-.07v-.8q-1.38.08-3,.14l-3.24.1Zm7.1,1.66-1.89.12q-1.09.06-2.24.09l-2.25,0q-1.1,0-1.94,0V57q.82,0,1.92,0l2.25,0,2.25-.08,1.9-.11Zm-8.32.61h.74V51.09l-.74-.2Zm7.7-5.93-1.84.08-2.06.07-2,.05-1.77,0,.06.78,1.76,0,2-.06,2-.07,1.83-.08Zm3-4.86h-3.32l-.38.36.38.42,3.32,0Zm-4.06,3.68h.74V41.24h-.74Z"/><path class="cls-3" d="M253.62,171.56a2.05,2.05,0,0,0,3.34.66,2.08,2.08,0,0,0,.44-.66,2.08,2.08,0,0,0-.44-2.26,2,2,0,0,0-3.34.66,2.09,2.09,0,0,0,0,1.6m2.84.14a1.37,1.37,0,0,1-1.89,0,1.34,1.34,0,0,1,0-1.88,1.37,1.37,0,0,1,1.89,0,1.35,1.35,0,0,1,0,1.88m-5.94-20.76q-1.66.1-3.31.15t-3.21.07l.06.78,2.9-.07,2.92-.11Zm-7,9.2a12.25,12.25,0,0,0,2.38-1.59,14.54,14.54,0,0,0,2.08-2.13,10.79,10.79,0,0,0,.84-1.25q.4-.69.73-1.41a14.35,14.35,0,0,0,.57-1.44,12.65,12.65,0,0,0,.38-1.38l-.9.26a11.55,11.55,0,0,1-.78,2.37,11.11,11.11,0,0,1-1.46,2.41,13.18,13.18,0,0,1-2,2,12.14,12.14,0,0,1-2.26,1.48Zm10.58,3.76h.74V147.24h-.74ZM242.38,141l3.83,0,3.93-.08,3.9-.11,3.74-.14,0-.78L254,140q-2,.07-3.93.11l-4,.07-3.85,0Zm11.88-7.26q-1,.2-2.07.37t-2.21.3q-1.12.13-2.23.23t-2.13.14l.1.72q1-.06,2.1-.15l2.22-.22q1.12-.13,2.21-.28t2.05-.34Zm.7-4.18-2,.08-2.42.06-2.43,0-2,0,.06.78,1.95,0,2.24,0,2.18,0,1.81-.07Zm-1.24,9q.24-.94.44-2.07t.36-2.32q.16-1.19.27-2.38t.17-2.25l-.8.26q0,.94-.14,2.05t-.25,2.25q-.15,1.14-.35,2.23t-.44,2Zm-8.87-30.43a3.17,3.17,0,0,0,1.73,1.72,3.38,3.38,0,0,0,2.55,0,3.19,3.19,0,0,0,1-.69,3.24,3.24,0,0,0,.69-1,3.26,3.26,0,0,0,0-2.5,3.24,3.24,0,0,0-.69-1,3.19,3.19,0,0,0-1-.69,3.38,3.38,0,0,0-2.55,0,3.23,3.23,0,0,0-1.73,4.22m.68-2.22a2.45,2.45,0,0,1,.53-.79,2.59,2.59,0,0,1,.79-.54,2.57,2.57,0,0,1,2,0,2.6,2.6,0,0,1,.79.54,2.49,2.49,0,0,1,0,3.52,2.61,2.61,0,0,1-.79.54,2.57,2.57,0,0,1-2,0,2.59,2.59,0,0,1-.79-.54,2.52,2.52,0,0,1-.53-2.73m8.59,12h.74V101.24h-.74ZM253,112.46q-1.5.26-2.78.43t-2.51.29q-1.23.12-2.5.2t-2.77.14l.16.78q1.48-.06,2.75-.16t2.49-.23q1.22-.13,2.48-.3l2.74-.39ZM243.82,93.8A14.52,14.52,0,0,0,247,90.18a16,16,0,0,0,1.8-4.52L248,85.6a18.75,18.75,0,0,1-.7,2.26,11.68,11.68,0,0,1-1,2A12.2,12.2,0,0,1,245,91.58a17.5,17.5,0,0,1-1.74,1.66ZM258.18,89h-3.32l-.38.36.38.42,3.32,0Zm-5.86,3.88-3.86-3.64-.52.58.86.79,1,.94,1,1,.91.94ZM251.5,85l-1.68.08-2.06.07-2.06,0-1.68,0,.06.78,1.65,0,2-.05,2.05-.07,1.68-.08Zm2.62,12.88h.74V81.24h-.74ZM241.86,68.12l3.91,0,4.11-.08L254,67.9l3.82-.14,0-.78-3.85.15q-2,.07-4.1.11l-4.13.07-3.94,0ZM255,61.7l-1.9.08-2.19.06-2.16,0-1.83,0,.06.78,1.66,0,2,0,2,0,1.74-.06Zm-.68,4.62q.14-.62.25-1.16t.19-1.06q.08-.52.14-1.1t.1-1.3l-.8.26c0,.39-.05.75-.08,1.08s-.06.66-.11,1-.11.65-.18,1-.16.7-.25,1.1ZM256,75.94l-2,.12q-1.17.06-2.41.09l-2.42,0q-1.18,0-2,0v.78q.82,0,2,0l2.43,0,2.42-.08q1.17-.05,2-.11Zm-8.82.6h.74v-2.9h-.74Zm7.72-3.5q-.8.06-1.82.09L251,73.2l-2.06,0-1.76,0V74l1.74,0,2.06,0L253,73.9l1.84-.08Zm-.74.38h.74v-2.9h-.74Zm.74-3.24-1.88.07-2.16.06-2.13.05-1.81,0,.06.78,1.8,0,2.11-.05L253,71l1.87-.08Zm-3.58-23q-.68.2-1.53.36t-1.75.28q-.9.12-1.77.19t-1.59.07v.72q.74,0,1.63-.07t1.82-.19q.93-.12,1.81-.28t1.58-.34Zm-6.64,1.28h.74V43.1h-.74Zm4.1,5.8,1.6,0,1.63,0,1.59-.06,1.46-.07v-.8q-1.38.08-3,.14l-3.24.1Zm7.1,1.66-1.89.12q-1.09.06-2.24.09l-2.25,0q-1.1,0-1.94,0V57q.82,0,1.92,0l2.25,0,2.25-.08,1.9-.11Zm-8.32.61h.74V51.09l-.74-.2Zm7.7-5.93-1.84.08-2.06.07-2,.05-1.77,0,.06.78,1.76,0,2-.06,2-.07,1.83-.08Zm3-4.86h-3.32l-.38.36.38.42,3.32,0Zm-4.06,3.68h.74V41.24h-.74Z"/><line class="cls-4" x1="288.2" y1="40.4" x2="288.2" y2="460.4"/><line class="cls-4" y1="0.25" x2="943.31" y2="0.25"/></g><rect class="cls-5" x="316.69" y="40.4" width="626.61" height="420"/><g class="cls-2"><path class="cls-6" d="M764.3,186.16A185.75,185.75,0,0,0,772.82,159a157.41,157.41,0,0,0,3.54-29.75l-10.75,5.5q-.26,6.82-.92,12.71a94.39,94.39,0,0,1-2,11.4A114.7,114.7,0,0,1,759.45,170q-2,5.64-4.85,12.19Zm81-60.55q-7.08.53-13.37.92t-12.45.66q-6.16.26-12.45.39T793.4,128l.79,10.22q25.42-.79,51.12-2.36Zm-68.94,2.88q-12.58.53-26.74.66t-25.69.39l.79,10.22q10.48-.26,22.67-.39t26.35-.65Zm87,192.93-65.53-28.83-4.72,10.22,15.6,6.69q8.26,3.54,16.91,7.21t17,7.47q8.39,3.8,16,7.21ZM727.34,331.65q27.78-7.34,45.74-22T800,269.26l-10.75-2.62a109.18,109.18,0,0,1-10.09,21.89,61.56,61.56,0,0,1-13.37,15.34,76.35,76.35,0,0,1-18.09,10.75,175.2,175.2,0,0,1-24.25,8.13Zm95.16-95.16q-14.94-.79-29-2.49t-29-4.33l-.79,11.53q14.16,2.1,28.7,3.67t28.44,2.36Zm-148.9-21q24.38,0,51.25-.39t53.87-1q27-.65,53.48-1.7t50.07-2.62l.26-10.22q-23.86,1.57-50.46,2.62t-53.74,1.7q-27.13.66-54.13,1t-51.64.39ZM844,262.18q-10.75.49-25,1.1l-29.1,1.23q-14.81.62-28.84,1t-24.25.36l.79,10.22q10.22,0,24-.39t28.57-1q14.81-.65,29-1.18t24.9-1Zm-8.39-81.53h9.7V130.33h-9.7Zm-41.16,27.26h9.7V164.14h-9.7Z"/><path class="cls-6" d="M494.53,213.3V166.64h-8.65V213.3H380.76v7.86H589.68V213.3Zm-5.24,54h71.3v-7.86h-71.3V231.13h-8.65v28.31h-71.3v7.86h71.3v.79c0,33-50.33,57.15-80.74,62.91l4.2,7.08c28.57-6.29,69.2-25.17,80.74-53.74,11.8,28.57,52.17,47.45,81,53.74L570,331c-30.41-5.77-80.74-29.88-80.74-62.91ZM459.4,194.43a257.88,257.88,0,0,0,9.17-70.52v-5.51H400.15v7.86h60c0,12.32-.52,34.34-9.44,66.58Zm97.25.52a387.54,387.54,0,0,0,6-70.78v-5.77H489.81v7.86h64.49a370.53,370.53,0,0,1-6,67.37Z"/><line class="cls-7" x1="316.39" y1="97.29" x2="943.31" y2="97.29"/><line class="cls-7" x1="316.39" y1="358.93" x2="943.31" y2="358.93"/><path class="cls-6" d="M674.6,411.94a.87.87,0,0,0,.85-.92.87.87,0,1,0-1.73,0,.87.87,0,0,0,.88.92m-2.69-7.29h-2.65v-6.19h-.9v15.11h.9v-8.16h2.65Zm-12.55,4.28v-8.21h6.09V400h-7v9.76h1.14a36.09,36.09,0,0,0,7.24-.54l-.12-.78a35.8,35.8,0,0,1-7.12.54Zm-5.92,4.62h.9v-15.1h-.9Zm-9.37-4.79v-8.82h-.88v9.62h1.17a35.6,35.6,0,0,0,7.41-.75l-.14-.78a34.29,34.29,0,0,1-7.28.73ZM630.74,400a2.67,2.67,0,1,1-2.94,2.65,2.72,2.72,0,0,1,2.94-2.65m0-.77c-2.23,0-3.81,1.38-3.81,3.42s1.58,3.42,3.81,3.42,3.84-1.38,3.84-3.42-1.58-3.42-3.84-3.42m-.59,11h7.75v2.36h-7.75Zm-.9-2.86v6h9.54v-6h-.88v2.11h-7.75v-2.11Zm8.64-.8h.9v-8.09h-.9Zm-18.75,3.93v-5.12h-.88v5.12h-2.84v-5.12h-.88v5.12h-3.66v.76h13.65v-.76Zm2.67-8.6a28.2,28.2,0,0,1-.54,6.43l.9.12a30.26,30.26,0,0,0,.53-6.54v-1.75H612.33v.75h9.47ZM597,404.7h5.13v4.39H597Zm-.9-4.93v10.08h6.94V399.77h-.9V404H597v-4.18Zm10.42,13.8h.9V398.44h-.9Zm-20.37,0h.9v-15.1h-.9Zm-10.46-13.43v.76h6c-.24,3.72-2.53,6.94-6.68,8.94l.49.75c4.86-2.4,7.09-6.24,7.09-10.45Zm-16.58,11.12h13.65v-.76H559.17Zm1.31-6.48.17.78L570,405a25.42,25.42,0,0,1-.56,4.13l.88.1A31.94,31.94,0,0,0,571,402v-1.92h-10.1v.76h9.23V402c0,.77,0,1.51,0,2.28Zm-2.8,0H555v-6.29h-.9v15.1h.9v-8h2.65Zm-9.32-3.91h3.55v-.78h-8.06v.78h3.62v2.53a8.29,8.29,0,0,1-4.13,6.49l.56.75a9.33,9.33,0,0,0,4-5.27,8.78,8.78,0,0,0,3.93,4.9l.53-.73a7.68,7.68,0,0,1-4-6.14Zm-9,3.42a20.08,20.08,0,0,0,.36-4.2v-1h-10v.76h9.18v.19a19.35,19.35,0,0,1-.37,4.2H527.89V405h13.7v-.76Zm-8.87,6.1h9.33v-3.55H529.58v.75h9.37v2.07h-9.33v3.69H540.2v-.75h-9.71Zm-22.75-.27a57.11,57.11,0,0,0,10-.63l-.09-.7a67.89,67.89,0,0,1-10,.54Zm11,3.49h.9V398.46h-.9Zm-6.29-13.17a2.7,2.7,0,1,1-3.11,2.67,2.82,2.82,0,0,1,3.11-2.67m0-.78c-2.35,0-4,1.39-4,3.45s1.63,3.45,4,3.45,4-1.39,4-3.45-1.63-3.45-4-3.45M505.91,405h-2.62v-6.58h-.9v15.08h.9v-7.72h2.62Zm-9,2.67c1.84-.15,3-1.17,3-2.74s-1.41-2.77-3.48-2.77S493,403.27,493,405s1.19,2.58,3,2.74v1.89c-1.56.07-3.06.07-4.35.07l.17.78a59.19,59.19,0,0,0,9.61-.6l-.07-.7c-1.41.22-2.94.32-4.45.41ZM493.86,405c0-1.21,1.05-2,2.64-2s2.63.83,2.63,2-1.07,2-2.63,2-2.64-.85-2.64-2m7.17-4.59h-4.1v-1.94H496v1.94h-4.1v.76H501Zm-11.12,6.78h-13.7v.76H480v5.61h.92v-5.61h4.27v5.61h.92v-5.61h3.83ZM483,405.58c3.11,0,5.18-1.26,5.18-3.25s-2.07-3.23-5.18-3.23-5.17,1.24-5.17,3.23,2.06,3.25,5.17,3.25m0-5.73c2.52,0,4.27,1,4.27,2.48s-1.75,2.5-4.27,2.5-4.25-1-4.25-2.5,1.75-2.48,4.25-2.48m-10.81,3.37v-4.78h-.9v11.24h.9V404h2.36v-.78ZM464,408.59h-.9v4.59h9.89v-.76h-9Zm5.29-2.28c-2.07-.76-3.88-2.74-3.88-4.9v-2.06h-.87v2a5.89,5.89,0,0,1-3.86,5.39l.48.73a6.65,6.65,0,0,0,3.86-4.18A6.66,6.66,0,0,0,468.8,407Zm-15-1.44H451.6v-6.43h-.9v15.11h.9v-7.92h2.63Zm-9,1.5a3.46,3.46,0,0,0,3.45-3.43c0-2.07-1.61-3.45-3.91-3.45s-3.94,1.38-3.94,3.45a3.46,3.46,0,0,0,3.5,3.43v2.91c-1.53.05-3,.07-4.28.07l.17.78a59.4,59.4,0,0,0,9.54-.58l-.07-.68c-1.41.2-2.94.31-4.45.37Zm-3.52-3.43a3.08,3.08,0,1,1,3.06,2.69,2.79,2.79,0,0,1-3.06-2.69m-17.14,8.47h13.7v-.76h-13.7Zm12.89-5.1c-2.14-.42-5.63-2.7-5.63-5.49V399.6h-.93v1.21c0,2.81-3.43,5-5.59,5.49l.42.77c2-.53,4.71-2.19,5.64-4.56.93,2.36,3.67,4,5.66,4.56Zm-16.88-3.08v-4.78h-.9v11.24h.9V404h2.36v-.78Zm-8.26,5.37h-.9v4.59h9.89v-.76h-9Zm5.29-2.28c-2.07-.76-3.88-2.74-3.88-4.9v-2.06h-.87v2a5.89,5.89,0,0,1-3.86,5.39l.48.73a6.65,6.65,0,0,0,3.86-4.18,6.66,6.66,0,0,0,3.83,3.76Zm-21.79,4.47v-3.52h4.79v-.75h-9.3v-2.7h8.82v-.75h-8.82v-2.52h9.15v-.76H390.35v7.48h4.52v3.52h-6.37v.76h13.7v-.76Zm-15.64-.09v-4.42h4.79v-.76h-9.4V399.8h-.9v6.48h4.61v4.42h-6.37v.77h13.7v-.77Zm-13.24-6.87,1.26-1.56,1.24,1.56.56-.39-1.05-1.7,1.73-.68-.2-.65-1.82.48-.12-1.94h-.68l-.15,2-1.82-.49-.2.65,1.73.68-1,1.7Z"/></g></svg>