<svg xmlns="http://www.w3.org/2000/svg" xmlns:xlink="http://www.w3.org/1999/xlink" viewBox="0 0 939.05 520"><defs><style>.cls-1,.cls-4,.cls-5,.cls-6{fill:none;}.cls-2{clip-path:url(#clip-path);}.cls-3{fill:#231916;}.cls-4{stroke:#231916;stroke-width:0.3px;}.cls-5,.cls-6{stroke:#44403f;}.cls-5{stroke-width:0.5px;}</style><clipPath id="clip-path"><rect class="cls-1" width="939.05" height="520"/></clipPath></defs><title>columns-7</title><g id="Layer_2" data-name="Layer 2"><g id="Layer_1-2" data-name="Layer 1"><g class="cls-2"><path class="cls-3" d="M22.32,134.16l-.68-.84-9.46,5.44-9.46-5.44-.68.84L12.18,140Zm-14-9.68h1v-2.94h-1Zm5.37-13.11c-.63,0-1.44.07-2.41.11l-3,.1-3,.06-2.41,0,.08,1.07,2.37,0,3-.07,3-.09c1,0,1.79-.06,2.42-.1Zm-1.79-2.24q-1.51-.48-2.91-1c-.94-.36-1.9-.76-2.89-1.19l-.39,1.15c1,.41,1.92.79,2.89,1.13s1.93.68,2.88,1ZM23,116.69H18.31l-.53.51.53.58,4.65.06ZM17.28,128.9h1V105.58h-1ZM5,118.79a3.17,3.17,0,0,0,.72,1.11,4,4,0,0,0,1.21.8,4.17,4.17,0,0,0,1.64.3,4.16,4.16,0,0,0,1.63-.3,4,4,0,0,0,1.21-.8,3.34,3.34,0,0,0,.73-1.11,3.4,3.4,0,0,0,0-2.46,3.34,3.34,0,0,0-.73-1.11,4,4,0,0,0-1.21-.8,4.16,4.16,0,0,0-1.63-.3,4.17,4.17,0,0,0-1.64.3,4,4,0,0,0-1.21.8A3.17,3.17,0,0,0,5,116.33a3.27,3.27,0,0,0,0,2.46m1-2.06A2.2,2.2,0,0,1,6.5,116a2.73,2.73,0,0,1,.85-.59,3,3,0,0,1,1.25-.24,2.83,2.83,0,0,1,2.1.83,2.31,2.31,0,0,1,.5.78,2.11,2.11,0,0,1,0,1.66,2.46,2.46,0,0,1-1.36,1.38A3.08,3.08,0,0,1,8.6,120a3.13,3.13,0,0,1-1.25-.23A2.54,2.54,0,0,1,6,118.39a2.11,2.11,0,0,1,0-1.66M15.65,123c-1.4.24-2.7.45-3.89.6s-2.37.3-3.51.41-2.32.21-3.5.28-2.48.14-3.88.2l.22,1.09c1.38-.06,2.67-.13,3.85-.22s2.35-.19,3.49-.31,2.29-.27,3.47-.43l3.84-.55ZM8.41,84.29a4.27,4.27,0,0,0,1.11,1.39,5.46,5.46,0,0,0,1.65.9,6.42,6.42,0,0,0,2,.32,6.32,6.32,0,0,0,2-.32,5.4,5.4,0,0,0,1.66-.9A4.37,4.37,0,0,0,18,84.29a4.16,4.16,0,0,0,0-3.6,4.37,4.37,0,0,0-1.1-1.39,5.4,5.4,0,0,0-1.66-.9,6.32,6.32,0,0,0-2-.32,6.42,6.42,0,0,0-2,.32,5.46,5.46,0,0,0-1.65.9,4.27,4.27,0,0,0-1.11,1.39,4.25,4.25,0,0,0,0,3.6m.95-3.17a3.2,3.2,0,0,1,.9-1,4.32,4.32,0,0,1,1.32-.67,5.59,5.59,0,0,1,3.24,0,4.15,4.15,0,0,1,1.31.67,3.29,3.29,0,0,1,.89,1,2.93,2.93,0,0,1,0,2.74,3.29,3.29,0,0,1-.89,1,4.15,4.15,0,0,1-1.31.67,5.59,5.59,0,0,1-3.24,0,4.32,4.32,0,0,1-1.32-.67,3.2,3.2,0,0,1-.9-1,3.09,3.09,0,0,1,0-2.74m7.92,19.22h1V90.18h-1ZM9.69,92.56A19.7,19.7,0,0,1,8.06,96.2a21.82,21.82,0,0,1-2.4,3.41l1,.59A27,27,0,0,0,9,96.64a22,22,0,0,0,1.7-3.75Zm8.62-2.83c-1.49.08-3,.14-4.58.19l-4.67.14-4.64.09L0,90.18l.11,1.09,4.4-.06c1.51,0,3,0,4.59-.08L13.75,91l4.56-.17ZM3,63.24a16.19,16.19,0,0,0,4.33-5,20.4,20.4,0,0,0,2.11-6.64l-1-.19a29,29,0,0,1-.77,3.44,14.92,14.92,0,0,1-1.18,2.86,13.38,13.38,0,0,1-1.74,2.48A18.26,18.26,0,0,1,2.35,62.4Zm11.2-1.9L9.38,57l-.7.82c.78.69,1.56,1.38,2.32,2.08s1.57,1.45,2.41,2.26Zm3.06,4.84h1V49.58h-1Zm2.57,3.42c-.75.05-1.65.11-2.71.16s-2.16.1-3.28.13L10.57,70c-1.07,0-2,0-2.79,0V71c.77,0,1.69,0,2.76,0L13.85,71c1.13,0,2.22-.06,3.29-.11l2.71-.15ZM7.78,70.72h1V64.5h-1ZM23,58.17H18.31l-.53.51.53.58,4.65.06ZM12.18,40.84,2,46.64l.68.84L12.18,42l9.46,5.44.68-.84Z"/><path class="cls-3" d="M51.58,223.62a2.69,2.69,0,0,0,.61.93,3,3,0,0,0,2,.84,3,3,0,0,0,2-.84,2.84,2.84,0,0,0,.61-.93,2.8,2.8,0,0,0,.22-1.12,2.87,2.87,0,0,0-.22-1.12,2.84,2.84,0,0,0-1.53-1.54,2.87,2.87,0,0,0-1.12-.22,2.78,2.78,0,0,0-1.11.22,2.82,2.82,0,0,0-.92.62,2.74,2.74,0,0,0-.61.92,2.88,2.88,0,0,0-.23,1.12,2.8,2.8,0,0,0,.23,1.12m4,.2a1.83,1.83,0,0,1-1.33.53,1.79,1.79,0,0,1-1.32-.53,1.85,1.85,0,0,1,1.32-3.16,1.86,1.86,0,0,1,1.33,3.16M38,206h1V195.12H38Zm7.36-1.93q-1.9.52-3.63.87c-1.14.22-2.39.4-3.73.53v1c1.36-.13,2.64-.31,3.85-.52s2.45-.5,3.73-.86ZM53,199.63h-5v1.09h5ZM47.29,210.1h1V191.26h-1Zm5,2.8h1V189.58h-1ZM58,169.61H53.31l-.53.51.53.58,4.65.06Zm-19.38,1.15a4.55,4.55,0,0,0,1,1.41,4.76,4.76,0,0,0,1.47,1,4.48,4.48,0,0,0,3.52,0,4.72,4.72,0,0,0,1.46-1,4.39,4.39,0,0,0,1-1.41,4.25,4.25,0,0,0,0-3.47,4.54,4.54,0,0,0-1-1.42,4.87,4.87,0,0,0-1.46-1,4.37,4.37,0,0,0-3.52,0,4.92,4.92,0,0,0-1.47,1,4.71,4.71,0,0,0-1,1.42,4.36,4.36,0,0,0,0,3.47m1-3.07a3.66,3.66,0,0,1,1.88-1.86,3.54,3.54,0,0,1,3.88.76,3.67,3.67,0,0,1,.76,1.1,3.21,3.21,0,0,1,.28,1.33,3.17,3.17,0,0,1-.28,1.33,3.71,3.71,0,0,1-.76,1.11,3.57,3.57,0,0,1-1.13.76,3.56,3.56,0,0,1-4.63-1.87,3.17,3.17,0,0,1-.28-1.33,3.21,3.21,0,0,1,.28-1.33M54.85,181.6c-.75.05-1.66.11-2.73.16s-2.18.1-3.33.13l-3.35.06c-1.08,0-2,0-2.8,0V183c.77,0,1.69.05,2.78,0l3.34-.06c1.15,0,2.27-.06,3.35-.11l2.74-.15Zm-12.21,1.12h1v-5.94h-1Zm9.64-4.54h1v-16.6h-1ZM40.91,137.89A12.39,12.39,0,0,0,46.44,134a14.42,14.42,0,0,0,2.78-6.16l-1-.26a13.61,13.61,0,0,1-2.58,5.81A12,12,0,0,1,40.4,137Zm14.39-1.18-6.22-4.2-.56.93,1.46,1,1.58,1.08,1.6,1.13,1.5,1.08Zm-19.57,7.17c1.75,0,3.55,0,5.39,0l5.53-.11c1.85,0,3.68-.11,5.5-.19s3.58-.16,5.28-.28l0,1.1c-1.68.11-3.43.2-5.24.28s-3.63.13-5.46.18l-5.5.11c-1.84,0-3.62,0-5.36,0ZM37.49,111A16.11,16.11,0,0,0,42,105.79,20.24,20.24,0,0,0,44.18,99l-1-.2a24.92,24.92,0,0,1-.76,3.5,14.4,14.4,0,0,1-1.25,3,14.11,14.11,0,0,1-1.83,2.59,16.58,16.58,0,0,1-2.52,2.3ZM49,109.64l-4.53-4.71-.73.76c.73.74,1.45,1.5,2.18,2.27s1.49,1.57,2.27,2.43Zm5.88,7.56c-.75,0-1.66.11-2.74.16s-2.2.1-3.35.13l-3.36.06c-1.09,0-2,0-2.81,0v1.1c.76,0,1.69.05,2.78,0l3.38-.06c1.15,0,2.28-.06,3.36-.11l2.74-.15ZM52.75,103H47.57v1.09h5.18ZM42.59,118.32h1v-5.94h-1Zm9.69-4.54h1V97.18h-1Zm-8-29.08a4.76,4.76,0,0,0,1.54-1.1,5,5,0,0,0,1-1.64,5.92,5.92,0,0,0,0-4,4.82,4.82,0,0,0-1-1.63,4.64,4.64,0,0,0-1.54-1.11,5,5,0,0,0-4,0,4.64,4.64,0,0,0-1.54,1.11,4.82,4.82,0,0,0-1,1.63,5.92,5.92,0,0,0,0,4,5,5,0,0,0,1,1.64,4.76,4.76,0,0,0,1.54,1.1,5,5,0,0,0,4,0m-.41-8.57a3.75,3.75,0,0,1,2,2.2A4.85,4.85,0,0,1,46.17,80a4.79,4.79,0,0,1-.27,1.62,3.82,3.82,0,0,1-5.12,2.2,3.7,3.7,0,0,1-1.21-.88,4,4,0,0,1-.78-1.32A5,5,0,0,1,38.53,80a5.11,5.11,0,0,1,.26-1.63A3.84,3.84,0,0,1,39.57,77a3.59,3.59,0,0,1,1.21-.89,4,4,0,0,1,3.14,0M52.28,92.5h1V69.18h-1ZM48.92,57c-.73.11-1.52.22-2.36.32s-1.68.2-2.53.28-1.69.16-2.53.22-1.64.11-2.38.13V52.43h-1V59c.77,0,1.62-.06,2.56-.12s1.91-.14,2.9-.22,2-.17,2.91-.28,1.81-.22,2.58-.33Zm-1.66-5.43c-1.47.13-3,.21-4.63.25s-3.13.06-4.55.08V53c1.4,0,2.92-.05,4.55-.09s3.18-.12,4.63-.21Zm-1,.56h1V46.47h-1Zm1-6.11q-2.32.13-4.77.18c-1.63,0-3.18.06-4.63.07l.08,1.1,4.61-.09c1.61,0,3.18-.09,4.71-.17ZM58,51.73H53.31l-.53.51.53.58,4.65.06ZM52.28,64.5h1V41.18h-1Z"/><line class="cls-4" x1="88.7" x2="88.7" y2="520"/></g><line class="cls-5" x1="117.2" y1="260.25" x2="499.32" y2="260.25"/><g class="cls-2"><line class="cls-5" x1="556.93" y1="260.25" x2="939.05" y2="260.25"/></g><line class="cls-6" x1="117.2" y1="40.5" x2="499.32" y2="40.5"/><line class="cls-6" x1="556.93" y1="40.5" x2="939.05" y2="40.5"/><path class="cls-3" d="M709.35,340.54a.87.87,0,0,0,.85-.92.87.87,0,1,0-1.73,0,.87.87,0,0,0,.88.92m-2.68-7.3H704v-6.19h-.9v15.12h.9V334h2.66Zm-12.55,4.29v-8.21h6.09v-.77h-7v9.76h1.14a35.48,35.48,0,0,0,7.24-.55l-.12-.78a35.39,35.39,0,0,1-7.12.55Zm-5.92,4.62h.91v-15.1h-.91Zm-9.36-4.79v-8.83H678v9.63h1.18a35.9,35.9,0,0,0,7.41-.75l-.14-.78a34.47,34.47,0,0,1-7.27.73Zm-17.6-2.5h13.65v-.77H661.24Zm11,3.3H664v-2.08h-.89v5.83h10v-5.83h-.88Zm0,3H664v-2.27h8.24Zm1.87-9.11c-2.24-.3-5.52-1.95-5.52-4v-.81h-.92V328c0,2.15-3.23,3.71-5.53,4l.36.73c2.12-.35,4.74-1.56,5.63-3.43.9,1.84,3.52,3.08,5.62,3.43Zm-17.95,4.35h-.87v1a4.8,4.8,0,0,1-2.4,3.75,4.32,4.32,0,0,1-2.36-3.75v-1h-.87v1a4.66,4.66,0,0,1-3.16,3.84l.46.7a5.76,5.76,0,0,0,3.11-3,4.88,4.88,0,0,0,2.84,3.1,5.52,5.52,0,0,0,2.81-3.13,5.38,5.38,0,0,0,3.16,3l.46-.7a4.44,4.44,0,0,1-3.18-3.84Zm-6.26-1.49c2.26,0,3.84-1.4,3.84-3.45s-1.58-3.47-3.84-3.47a3.48,3.48,0,1,0,0,6.92m0-6.16a2.71,2.71,0,1,1-2.94,2.71,2.75,2.75,0,0,1,2.94-2.71m8-1.7H657v8.67h.9Zm-19,8.67H625.2v.77h6.36v5.64h.9v-5.64h6.39Zm-.82-2.7c-2.26-.37-5.54-2.14-5.54-4.45v-.94h-.93v.94c0,2.38-3.25,4.08-5.56,4.45l.39.75c2.12-.41,4.74-1.72,5.64-3.72.9,2,3.54,3.31,5.63,3.72Zm-29.61,8.16v-2h8.65v-3.35h-9.58v.75h8.7v1.89h-8.65v3.5h10.13v-.75Zm5.42-7.5c-2.1-.76-4-2.7-4-5v-1.16H609v1.16a6,6,0,0,1-4,5.28l.48.73a6.87,6.87,0,0,0,3.94-4.14,6.76,6.76,0,0,0,4,3.84Zm3.22-6.64h-.9V335h.9Zm-13.77,6.41h-2.66V327h-.9v15.09h.9v-7.92h2.66Zm-9.22-6.26h-.9v2.36h-4.11v.77h9v-.77h-4Zm-.42,4.62a3.4,3.4,0,1,0,3.58,3.4,3.37,3.37,0,0,0-3.58-3.4m0,6a2.62,2.62,0,1,1,2.73-2.62,2.61,2.61,0,0,1-2.73,2.62m-10-3.14v-2.33c1.25-.46,1.93-1.24,1.93-2.26,0-1.75-2-2.74-5.24-2.74s-5.2,1-5.2,2.74a2.49,2.49,0,0,0,1.94,2.28v2.31h-3.54v.76h13.63v-.76Zm-7.59-4.59c0-1.24,1.68-2,4.28-2s4.32.77,4.32,2-1.69,2-4.32,2-4.28-.78-4.28-2m1.92,2.53a11.84,11.84,0,0,0,2.36.22,12.44,12.44,0,0,0,2.43-.22v2.06H578Zm2.38,4.2c-3.22,0-5.14.93-5.14,2.63s1.92,2.66,5.14,2.66,5.13-1,5.13-2.66-1.92-2.63-5.13-2.63m0,4.56c-2.59,0-4.24-.72-4.24-1.93s1.65-1.92,4.24-1.92,4.23.73,4.23,1.92-1.65,1.93-4.23,1.93M572,333.34h-2.66V327h-.9v15.11h.9v-8H572Zm-9.39-4.91h-.86v3a8.34,8.34,0,0,1-4,6.66l.56.73a9.22,9.22,0,0,0,3.92-5.32,8.8,8.8,0,0,0,3.91,5l.57-.7a8,8,0,0,1-4.07-6.37Z"/><path class="cls-3" d="M785,316.15h.86V301H785Zm-3-9h-2.33c-.12-2.88-1.34-4.7-3.2-4.7s-3.18,2-3.18,5.12,1.26,5.12,3.18,5.12,3.1-1.84,3.2-4.78h2.33v7.46h.86V301.41h-.86Zm-5.53,4.72c-1.39,0-2.34-1.77-2.34-4.3s.95-4.3,2.34-4.3,2.35,1.79,2.35,4.3-.94,4.3-2.35,4.3m-7.7,4.32h.9v-15.1h-.9Zm-6.24-12.72h3.81v-.78H758v.78h3.74V306a8.29,8.29,0,0,1-4.17,6.5l.56.73a9.26,9.26,0,0,0,4-5.24,8.58,8.58,0,0,0,4.13,4.87l.55-.72c-2-.92-4.24-3.52-4.24-6.14Zm-9.4,12.72h.9v-15.1h-.9Zm-4.54-4.67h-5v-8.13h5Zm-5.88.74h6.77V302.6h-6.77Zm-12.17-9.14c1.68,0,2.87,1.8,2.87,4.38s-1.19,4.41-2.87,4.41-2.89-1.82-2.89-4.41,1.19-4.38,2.89-4.38m0-.8c-2.21,0-3.76,2-3.76,5.18s1.55,5.19,3.76,5.19,3.74-2,3.74-5.19-1.55-5.18-3.74-5.18m7,13.87h.9v-15.1h-.9Zm-20.14-5.73h.88V301h-.88Zm0,2.26h-8V311h-.9v4.89h9.79V311h-.88Zm0,2.48h-8v-1.75h8Zm-8-4.76h.88v-2.68a25.63,25.63,0,0,0,3.61-.44l-.07-.65a57,57,0,0,1-8.14.44l.13.77c1,0,2.26,0,3.59-.07Zm.43-4.36c2,0,3.26-.85,3.26-2.25s-1.31-2.21-3.26-2.21-3.27.85-3.27,2.21,1.31,2.25,3.27,2.25m0-3.8c1.46,0,2.43.63,2.43,1.55s-1,1.57-2.43,1.57-2.44-.65-2.44-1.57,1-1.55,2.44-1.55m2,6.35v.69h2.9v1.09h.87v-9.06h-.87v7.28ZM697,317.31a3.57,3.57,0,0,0,2-3.2c0-.87-.38-1.43-1-1.43a.82.82,0,0,0-.89.85.81.81,0,0,0,.87.85h.2a2.53,2.53,0,0,1-1.49,2.29Zm-4.24-11.46v-4.78h-.9v11.1h.9v-5.54h2.37v-.78Zm-8.31,5.25h-.9v4.68h10V315h-9.06Zm6.14-2.53c-.8.1-1.65.17-2.52.2v-5.44h1.7v-.76h-8.09v.76h1.68V309l-2.12,0,.13.8a69.38,69.38,0,0,0,9.29-.53Zm-6.36-5.24h3v5.49l-3,.12Zm-5.1,5.34v-.73H665.53v.73h6.35v1.67h-4.65V311h9.24v1.65h-9.21v3.25h10.59v-.73h-9.71v-1.82h9.22v-3h-4.57v-1.67Zm-12.51-1.6c2.29-.24,4.83-1.09,5.69-2.73.87,1.64,3.4,2.49,5.7,2.73l.29-.71c-2.47-.22-5.41-1.24-5.51-3.18h4.91v-.73H672.8V300.9h-.9v1.55H667v.73h4.88c-.1,1.94-3,3-5.51,3.18Zm-9.93,10.24a3.55,3.55,0,0,0,2-3.2c0-.87-.37-1.43-1-1.43a.85.85,0,1,0,0,1.7h.21a2.56,2.56,0,0,1-1.5,2.29ZM652.45,301v6.39h-2.22v-6h-.87v13.84h.87v-7.06h2.22v7.92h.89V301Zm-7.26,7.29h-.86v3.4c-1.36,0-2.65,0-3.66,0l.16.8a47,47,0,0,0,7.9-.53l-.07-.68a30.24,30.24,0,0,1-3.47.31Zm3.3-.66a4.6,4.6,0,0,1-3.28-4v-1.36h-.9v1.36a4.93,4.93,0,0,1-3.42,4.42l.48.71a5.8,5.8,0,0,0,3.4-3.52,5.52,5.52,0,0,0,3.25,3.13ZM628.91,315v-4H628v4.75h10V315Zm4.38-9.21a3.83,3.83,0,1,0-3.82,3.67,3.59,3.59,0,0,0,3.82-3.67m-6.78,0a3,3,0,1,1,3,2.87,2.84,2.84,0,0,1-3-2.87m11-4.73h-.9v11.14h.9Zm-29,13.94v-4h-.9v4.75h10V315Zm4.38-9.21a3.83,3.83,0,1,0-3.82,3.67,3.59,3.59,0,0,0,3.82-3.67m-6.78,0a3,3,0,1,1,3,2.87,2.84,2.84,0,0,1-3-2.87m11-4.73h-.9v11.14h.9Zm-16.52,0v4.14h-3.4V306h3.4v4.15h.9v-9.05Zm-9.06,10.71h9.06v4.37h.9V311h-10ZM598,308.7c-2.06-.74-3.81-2.65-3.81-4.72v-1h3.54v-.77h-8V303h3.6v1a5.85,5.85,0,0,1-3.94,5.08l.47.71a6.64,6.64,0,0,0,3.93-4.06,6.58,6.58,0,0,0,3.77,3.69Zm-13-7.65v3.74h-3.5a3.53,3.53,0,0,0-3.81-3c-2.24,0-3.83,1.37-3.83,3.43s1.59,3.43,3.83,3.43a3.51,3.51,0,0,0,3.81-3.07h3.5v3.57h.9v-8.1Zm-7.31,6.84a2.68,2.68,0,1,1,3-2.67,2.75,2.75,0,0,1-3,2.67m7.31,4.25H577.3V310h-.9v6h9.43v-6h-.9Zm0,3H577.3v-2.27h7.63Zm-15.4-10V301h-.9v9.31h.9V306h2.36v-.78Zm-4.76,5.62c-3,0-4.86.95-4.86,2.65s1.81,2.64,4.86,2.64,4.88-1,4.88-2.64-1.84-2.65-4.88-2.65m0,4.56c-2.42,0-4-.73-4-1.91s1.56-1.92,4-1.92,4,.73,4,1.92-1.56,1.91-4,1.91m1.75-6.95c-2.06-.77-3.86-2.74-3.86-4.92v-1.71h-.87v1.68a5.94,5.94,0,0,1-3.86,5.35l.48.73a6.76,6.76,0,0,0,3.86-4.18,6.57,6.57,0,0,0,3.76,3.76Z"/><path class="cls-3" d="M274.38,470.54a.87.87,0,0,0,.85-.92.87.87,0,1,0-1.73,0,.87.87,0,0,0,.88.92m-2.68-7.3H269v-6.19h-.9v15.12h.9V464h2.66Zm-12.55,4.29v-8.21h6.09v-.77h-7v9.76h1.14a35.48,35.48,0,0,0,7.24-.55l-.12-.78a35.39,35.39,0,0,1-7.12.55Zm-5.92,4.62h.91v-15.1h-.91Zm-9.36-4.79v-8.83H243v9.63h1.18a35.9,35.9,0,0,0,7.41-.75l-.14-.78a34.47,34.47,0,0,1-7.27.73Zm-17.6-2.5h13.65v-.77H226.27Zm10.95,3.3H229v-2.08h-.89v5.83h10v-5.83h-.88Zm0,3H229v-2.27h8.24Zm1.87-9.11c-2.24-.3-5.52-1.95-5.52-4v-.81h-.92V458c0,2.15-3.23,3.71-5.53,4l.36.73c2.12-.35,4.74-1.56,5.63-3.43.9,1.84,3.52,3.08,5.62,3.43Zm-18,4.35h-.87v1a4.8,4.8,0,0,1-2.4,3.75,4.32,4.32,0,0,1-2.36-3.75v-1h-.87v1a4.66,4.66,0,0,1-3.16,3.84l.46.7a5.76,5.76,0,0,0,3.11-3,4.88,4.88,0,0,0,2.84,3.1,5.52,5.52,0,0,0,2.81-3.13,5.38,5.38,0,0,0,3.16,3l.46-.7a4.44,4.44,0,0,1-3.18-3.84Zm-6.26-1.49c2.26,0,3.84-1.4,3.84-3.45s-1.58-3.47-3.84-3.47a3.48,3.48,0,1,0,0,6.92m0-6.16a2.71,2.71,0,1,1-2.94,2.71,2.75,2.75,0,0,1,2.94-2.71m8-1.7H222v8.67h.9Zm-19,8.67H190.23v.77h6.36v5.64h.9v-5.64h6.39Zm-.82-2.7c-2.26-.37-5.54-2.14-5.54-4.45v-.94h-.93v.94c0,2.38-3.25,4.08-5.56,4.45l.39.75c2.12-.41,4.74-1.72,5.64-3.72.9,2,3.54,3.31,5.63,3.72Zm-29.61,8.16v-2h8.65v-3.35h-9.58v.75h8.7v1.89h-8.65v3.5h10.13v-.75Zm5.42-7.5c-2.1-.76-4-2.7-4-5v-1.16H174v1.16a6,6,0,0,1-4,5.28l.48.73a6.87,6.87,0,0,0,3.94-4.14,6.76,6.76,0,0,0,4,3.84Zm3.22-6.64h-.9V465h.9Zm-13.77,6.41h-2.66V457h-.9v15.09h.9v-7.92h2.66Zm-9.22-6.26h-.9v2.36h-4.11v.77h9v-.77h-4Zm-.42,4.62a3.4,3.4,0,1,0,3.58,3.4,3.37,3.37,0,0,0-3.58-3.4m0,6a2.62,2.62,0,1,1,2.73-2.62,2.61,2.61,0,0,1-2.73,2.62m-15.9-9.23a2.67,2.67,0,1,1-2.94,2.65,2.73,2.73,0,0,1,2.94-2.65m0-.76c-2.22,0-3.81,1.37-3.81,3.41s1.59,3.42,3.81,3.42,3.84-1.38,3.84-3.42-1.58-3.41-3.84-3.41m-.59,11H150v2.36h-7.75Zm-.9-2.85v6h9.53v-6H150v2.1h-7.75V466Zm8.63-.8h.9v-8.1h-.9Zm-13.38-.55H134.2a24.36,24.36,0,0,0,.44-5.22v-1.29h-9.93v.75h9v.54a21.86,21.86,0,0,1-.49,5.22H122.91v.77h6.38v6.8h.9v-6.8h6.37Z"/><path class="cls-3" d="M456.52,431.05v5.38h-3.9v.74h3.9v9h.9V431.05Zm-6.36,1.4h-.9v3a8.43,8.43,0,0,1-4.05,6.7l.58.71a9.15,9.15,0,0,0,3.93-5.41,8.82,8.82,0,0,0,4,5.14l.53-.73a8,8,0,0,1-4.08-6.41Zm-8.79,13.7h.87V431h-.87Zm-3-9h-2.33c-.12-2.88-1.34-4.7-3.19-4.7s-3.18,2-3.18,5.12,1.26,5.12,3.18,5.12,3.09-1.84,3.19-4.78h2.33v7.46h.87V431.41h-.87Zm-5.52,4.72c-1.4,0-2.35-1.77-2.35-4.3s.95-4.3,2.35-4.3,2.34,1.79,2.34,4.3-.93,4.3-2.34,4.3m-8.47,5.2a15.89,15.89,0,0,0,0-17l-.61.31a16.17,16.17,0,0,1,0,16.42Zm-7.78-.34h.79l5.61-16.4h-.79ZM402.8,445h1v-6.78a3.83,3.83,0,0,1,2.62-1.63c1.34,0,2,.86,2,2.75V445h1v-6.78c1-1.09,1.8-1.63,2.62-1.63,1.33,0,2,.86,2,2.75V445h1v-5.8c0-2.33-.9-3.5-2.72-3.5-1.05,0-2,.73-3.06,1.84a2.34,2.34,0,0,0-2.5-1.84,4.2,4.2,0,0,0-2.85,1.62h0l-.12-1.38h-.81Zm-6.75-.63c-1.77,0-3.06-1.58-3.06-3.89s1.29-3.91,3.06-3.91,3.08,1.6,3.08,3.91-1.31,3.89-3.08,3.89m0,.85c2.19,0,4.1-1.73,4.1-4.74s-1.91-4.78-4.1-4.78-4.1,1.75-4.1,4.78,1.91,4.74,4.1,4.74m-8.08,0a4.38,4.38,0,0,0,2.89-1.17l-.47-.68a3.64,3.64,0,0,1-2.36,1c-1.91,0-3.17-1.58-3.17-3.89s1.38-3.91,3.18-3.91a3,3,0,0,1,2.08.92l.56-.68a3.85,3.85,0,0,0-2.65-1.11c-2.25,0-4.2,1.75-4.2,4.78s1.78,4.74,4.14,4.74m-7.22-.64a.87.87,0,0,0,.85-.92.89.89,0,0,0-.85-.94.88.88,0,0,0-.88.94.86.86,0,0,0,.88.92m-3.88.64a5.08,5.08,0,0,0,1.52-.34l-.24-.76a3.31,3.31,0,0,1-1.11.25c-1.2,0-1.51-.75-1.51-1.89v-5.71h2.6v-.83h-2.6v-2.62h-.83l-.12,2.62-1.45.08v.75h1.41v5.65c0,1.68.55,2.8,2.33,2.8m-10,0a4,4,0,0,0,3.06-1.72H370l.08,1.5h.83V435.9h-1v6.63c-1,1.22-1.77,1.77-2.82,1.77-1.4,0-2-.87-2-2.72V435.9h-1v5.8c0,2.33.85,3.48,2.73,3.48m-6.46-11.41a.8.8,0,1,0,0-1.59.8.8,0,1,0,0,1.59M359.92,445h1V435.9h-1Zm-10,0h1v-6.78c1.05-1.09,1.8-1.63,2.85-1.63,1.4,0,2,.86,2,2.75V445h1v-5.8c0-2.33-.87-3.5-2.76-3.5a4.44,4.44,0,0,0-3.09,1.63l0-2v-3.87h-1Zm-3.43.22a5,5,0,0,0,1.51-.34l-.24-.76a3.26,3.26,0,0,1-1.1.25c-1.21,0-1.52-.75-1.52-1.89v-5.71h2.61v-.83h-2.61v-2.62h-.83l-.12,2.62-1.44.08v.75h1.41v5.65c0,1.68.54,2.8,2.33,2.8m-11.26-5.37c.19-2.07,1.52-3.3,3-3.3s2.58,1.11,2.58,3.3Zm3.22,5.37a5.06,5.06,0,0,0,2.89-.88l-.38-.73a4.08,4.08,0,0,1-2.41.78c-2,0-3.27-1.55-3.32-3.76h6.43a5.27,5.27,0,0,0,.05-.71c0-2.65-1.31-4.22-3.5-4.22s-4,1.84-4,4.78,1.89,4.74,4.22,4.74M326.37,445h1v-2.45l2-2.31,2.92,4.76h1.09l-3.43-5.47,2.95-3.59h-1.12l-4.33,5.34h0v-9.79h-1Zm-6.11,0h1v-6.09c.66-1.68,1.63-2.27,2.43-2.27a1.86,1.86,0,0,1,.83.15l.21-.88a1.76,1.76,0,0,0-.92-.21,3.12,3.12,0,0,0-2.57,1.92h0l-.12-1.68h-.82Zm-7.08-.61a1.64,1.64,0,0,1-1.86-1.72c0-1.39,1.23-2.23,4.8-2.63v2.94a4.49,4.49,0,0,1-2.94,1.41m-.21.83a5.18,5.18,0,0,0,3.16-1.38h0l.1,1.16h.83v-5.75c0-2-.76-3.55-2.92-3.55a6.36,6.36,0,0,0-3.44,1.19l.45.72a4.83,4.83,0,0,1,2.85-1c1.72,0,2.11,1.39,2.08,2.74-4,.45-5.78,1.41-5.78,3.41a2.39,2.39,0,0,0,2.63,2.5M295.6,445h1v-6.78a3.83,3.83,0,0,1,2.62-1.63c1.34,0,2,.86,2,2.75V445h1v-6.78c1-1.09,1.8-1.63,2.62-1.63,1.33,0,2,.86,2,2.75V445h1v-5.8c0-2.33-.9-3.5-2.72-3.5-1.05,0-2,.73-3.06,1.84a2.34,2.34,0,0,0-2.5-1.84,4.2,4.2,0,0,0-2.85,1.62h0l-.12-1.38h-.81Zm-8.25,1.73h.8l5.61-16.4H293Zm-6.71,0h.8l5.61-16.4h-.8Zm-2.3-3.31a.87.87,0,0,0,.85-.92.87.87,0,1,0-1.73,0,.87.87,0,0,0,.88.92m0-8.89a.87.87,0,0,0,.85-.92.87.87,0,1,0-1.73,0,.87.87,0,0,0,.88.92m-7.17,9.82a4.14,4.14,0,0,1-2.57-1.1V438a4.58,4.58,0,0,1,2.82-1.44c2,0,2.77,1.58,2.77,3.76,0,2.43-1.25,4-3,4m-3.55,4.7h1v-3.27l0-1.66a4.5,4.5,0,0,0,2.67,1.1c2.13,0,4-1.8,4-4.89,0-2.79-1.23-4.63-3.64-4.63a5.31,5.31,0,0,0-3,1.34h0l-.12-1.1h-.81Zm-3.44-3.83a5,5,0,0,0,1.51-.34l-.23-.76a3.37,3.37,0,0,1-1.11.25c-1.21,0-1.51-.75-1.51-1.89v-5.71h2.6v-.83h-2.6v-2.62H262l-.12,2.62-1.45.08v.75h1.41v5.65c0,1.68.55,2.8,2.33,2.8m-5.61,0a5,5,0,0,0,1.51-.34l-.23-.76a3.37,3.37,0,0,1-1.11.25c-1.21,0-1.51-.75-1.51-1.89v-5.71h2.6v-.83h-2.6v-2.62h-.83l-.12,2.62-1.45.08v.75h1.41v5.65c0,1.68.55,2.8,2.33,2.8M246,445h1v-6.78c1.05-1.09,1.8-1.63,2.85-1.63,1.4,0,2,.86,2,2.75V445h1v-5.8c0-2.33-.87-3.5-2.76-3.5a4.44,4.44,0,0,0-3.09,1.63l0-2v-3.87h-1ZM243.09,447l.61-.32a16.1,16.1,0,0,1,0-16.42l-.61-.31a15.84,15.84,0,0,0,0,17m-18.82-8.67H238v-.76h-13.7Zm7.31.63h-.9v1.53h-5.07v.77h11v-.77h-5.08Zm-.45,3.11c-2.9,0-4.48.67-4.48,2s1.58,2,4.48,2,4.49-.66,4.49-2-1.58-2-4.49-2m0,3.34c-2.26,0-3.58-.48-3.58-1.33s1.32-1.33,3.58-1.33,3.57.46,3.57,1.33-1.32,1.33-3.57,1.33m0-9c3.3,0,5.24-.9,5.24-2.54s-1.94-2.55-5.24-2.55-5.2.91-5.2,2.55,1.92,2.54,5.2,2.54m0-4.37c2.65,0,4.32.68,4.32,1.83s-1.67,1.84-4.32,1.84-4.28-.68-4.28-1.84,1.66-1.83,4.28-1.83m-11.1,14h.9V431H220Zm-6-15h-.91v2.41H209v.77h9.15v-.77H214Zm-.43,4.65a3.4,3.4,0,1,0,3.66,3.4,3.4,3.4,0,0,0-3.66-3.4m0,6a2.62,2.62,0,1,1,0-5.23,2.62,2.62,0,1,1,0,5.23m-12.38-1.36h-.9v.6c0,2.24-3.06,3.87-5.35,4.28l.37.72c2.08-.41,4.56-1.65,5.44-3.54.87,1.89,3.33,3.13,5.41,3.54l.37-.72c-2.29-.41-5.34-2-5.34-4.28Zm.72-4.09V440h.87v-8.7h-.87v4.28h-2.76a8.73,8.73,0,0,0,.58-3.23h-5.83v.77h4.91a7.84,7.84,0,0,1-.42,2.09l-5.25.37.18.8,4.78-.49a8.86,8.86,0,0,1-4.84,4.18l.47.7a9.74,9.74,0,0,0,5.1-4.42Zm3.76-5.33h-.89v10.36h.89Zm-14.18,6.23h-2.65v-6.23H188v15.08h.91V438h2.65Zm-13.45,4.93h6.75v-9.59h-6.75Zm.88-8.84h5v8.09h-5Zm-22,6.52h13.65v-.76H157Zm2.74,1.52h-.9v4.37h10.34V445H159.7Zm4.1-3.91c3.21,0,5.22-1.09,5.22-3s-2-2.94-5.22-2.94-5.22,1.07-5.22,2.94,2,3,5.22,3m0-5.17c2.58,0,4.3.87,4.3,2.21s-1.72,2.21-4.3,2.21-4.3-.85-4.3-2.21,1.71-2.21,4.3-2.21m-14.89,5v-2.87H148v2.87h-6.66v.77H155v-.77ZM144,443.11h9.24v-3.32H143.06v.75h9.28v1.82h-9.25v3.57h10.68v-.75H144Zm2.46-6.85a13.27,13.27,0,0,0,.65-4.27v-.44h-4.53v.76h3.64a12.42,12.42,0,0,1-.64,3.78Zm6.48,0a20.7,20.7,0,0,0,.39-4.21v-.46H148.4v.76h4a18.41,18.41,0,0,1-.41,3.79Zm-15.76.63a19.92,19.92,0,0,0,.36-4.2v-.95H127.47v.77h9.18v.18a19,19,0,0,1-.38,4.2H125.68v.77h13.71v-.77Zm-8.88,6.1h9.34V439.4H127.37v.75h9.36v2.07H127.4v3.69H138v-.75h-9.71Zm-8.56-6.52,1.25-1.57,1.25,1.57.56-.39-1.06-1.7,1.74-.68-.21-.65-1.82.48-.12-1.94h-.68l-.15,1.95-1.82-.49-.2.65,1.73.68-1,1.7Z"/><path class="cls-3" d="M407.22,418.54a.87.87,0,0,0,.85-.92.89.89,0,0,0-.85-.94.88.88,0,0,0-.88.94.86.86,0,0,0,.88.92m-2.69-7.3h-2.65v-6.19H401v15.12h.9V412h2.65ZM392,415.53v-8.21h6.08v-.77h-7v9.76h1.14a35.53,35.53,0,0,0,7.24-.55l-.12-.78a35.39,35.39,0,0,1-7.12.55Zm-5.92,4.62h.9v-15.1h-.9Zm-9.37-4.79v-8.83h-.88v9.63H377a36,36,0,0,0,7.42-.75l-.14-.78a34.56,34.56,0,0,1-7.28.73ZM373.12,409h-2.37v-4h-.9v8.75h.9v-4h2.37Zm-3.27,7.33h-7.51v-1.87h-.9v5.42h9.31v-5.42h-.9Zm0,2.8h-7.51v-2.05h7.51ZM367.2,411c0-1.61-1.41-2.61-3.55-2.61s-3.57,1-3.57,2.63,1.41,2.62,3.57,2.62,3.55-1,3.55-2.64m-6.27,0c0-1.12,1.09-1.9,2.72-1.9s2.7.78,2.7,1.92-1.09,1.91-2.7,1.91-2.72-.79-2.72-1.93m7.19-4.26h-4v-1.86h-.9v1.86h-4v.75h8.94Zm-13.43,13.43h.9V405h-.9ZM348.86,413a3.47,3.47,0,0,0,3.52-3.43c0-2.06-1.63-3.46-4-3.46s-4,1.4-4,3.46,1.45,3.26,3.54,3.43v2.92c-1.58.05-3.1.05-4.39.05l.15.79a57,57,0,0,0,10-.63l-.08-.7a39,39,0,0,1-4.76.44Zm-3.57-3.43a3.15,3.15,0,1,1,3.11,2.66,2.82,2.82,0,0,1-3.11-2.66m-5.59,10.62h.88v-15.1h-.88Zm-3-9.54h-2.81v.79h2.81v7.92h.87V405.46h-.87Zm-4.62-2.89h3V407h-7v.76h3.13v1.75a8.16,8.16,0,0,1-3.47,6.86l.6.68a8.31,8.31,0,0,0,3.31-5.14,7.82,7.82,0,0,0,3.23,4.78l.58-.68a7.69,7.69,0,0,1-3.38-6.5Zm-26.66,6h13.7v-.76h-13.7Zm2.77,1.7h-.9v4.37h10.3V419h-9.4Zm9.32-5.52h-9.25V405.6h-.9v5h10.15Zm-15.83-4.82v6.12h-2.52v-5.74h-.86v13.92h.86v-7.41h2.52v8.21h.87v-15.1Zm-11.27,10.88H296v-9h-5.63Zm.85-8.29h3.93v7.55h-3.93Zm-5.48,2.21v-4.78h-.9v11.1h.9v-5.54h2.37v-.78Zm-8.31,5.25h-.9v4.68h10V419h-9.06Zm6.14-2.53c-.8.1-1.65.17-2.52.2v-5.44h1.7v-.76h-8.09v.76h1.68V413l-2.12,0,.13.8a69.38,69.38,0,0,0,9.29-.53Zm-6.36-5.24h3v5.49l-3,.12Zm-6.87-2.28v6.26H267.9v-5.88H267v13.9h.86v-7.22h2.45v8h.89v-15.1Zm-7.63,2.69h3.06V407h-7.11v.76h3.2v1.63c0,3.15-1.38,5.68-3.49,6.82l.6.7a7.41,7.41,0,0,0,3.35-5,7,7,0,0,0,3.21,4.46l.56-.72a6.9,6.9,0,0,1-3.38-6.29Zm-13,2.5v-5.17h-.9v11.34h.9V411h2.37v-.76Zm-8.31,5.24h-.9v4.3h10V419H241.4Zm4.76-3.9c0-1.68-1.41-2.77-3.55-2.77S239,409.9,239,411.58s1.43,2.76,3.57,2.76,3.55-1.09,3.55-2.76m-6.27,0c0-1.2,1.1-2,2.72-2s2.7.84,2.7,2-1.09,2-2.7,2-2.72-.85-2.72-2m7.19-4.52h-4v-2h-.9v2h-4v.75h8.94Zm-17.37,6.12v-1.84h4.69v-.73h-9.2v-1.87h8.71V408H225.2v-1.77h9.13v-.73h-10v5.83h4.51v1.84h-6.36V414h13.63v-.77Zm-.45,2.18c-3.28,0-5.13.81-5.13,2.36s1.85,2.38,5.13,2.38,5.14-.82,5.14-2.38-1.85-2.36-5.14-2.36m0,4c-2.63,0-4.23-.6-4.23-1.67s1.6-1.67,4.23-1.67,4.24.63,4.24,1.67-1.6,1.67-4.24,1.67M202,412.57h13.65v-.77H202Zm2.64,4.67h9.21v-3.11H203.75v.73H213v1.69h-9.22v3.38h10.59v-.75h-9.7Zm4.19-6.63c3.29,0,5.22-.93,5.22-2.65s-1.93-2.63-5.22-2.63-5.21.93-5.21,2.63,1.93,2.65,5.21,2.65m0-4.57c2.64,0,4.31.73,4.31,1.92s-1.67,1.94-4.31,1.94-4.3-.73-4.3-1.94,1.67-1.92,4.3-1.92m-22.45,7.14h13.65v-.76H186.41Zm6.81,1.55c-3.19,0-5.13,1-5.13,2.68s1.94,2.69,5.13,2.69,5.14-1,5.14-2.69-1.94-2.68-5.14-2.68m0,4.64c-2.58,0-4.23-.73-4.23-2s1.65-2,4.23-2,4.24.73,4.24,2-1.65,2-4.24,2m5.21-9.4H189v-3.44h9.27v-.76H188.16v5h10.27Zm-21-4.92v5.78h-4v-4.59h-.89v4.1h-5v-4.1h-.9v9.95h6.75V411.6h4v8.55h.9v-15.1Zm-4.9,10.37h-5v-4.35h5Zm-10.74-10.37v5.38h-3.9v.74h3.9v9h.9V405.05Zm-6.36,1.4h-.9v3a8.43,8.43,0,0,1-4.05,6.7l.58.71a9.15,9.15,0,0,0,3.93-5.41,8.82,8.82,0,0,0,4,5.14l.53-.73a8,8,0,0,1-4.08-6.41Zm-13.84,14.86a3.55,3.55,0,0,0,2-3.2c0-.87-.37-1.43-1-1.43a.82.82,0,0,0-.88.85.81.81,0,0,0,.86.85h.21a2.56,2.56,0,0,1-1.5,2.29Zm-4.23-11.58V405h-.9v11h.9v-5.48h2.36v-.78Zm-8.31,5.2h-.91v4.85h10V419H129Zm5.55-3a33.58,33.58,0,0,1-7,.53h-.22v-5.26h5.73v-.76h-6.63v6.8h1.12a33.88,33.88,0,0,0,7.09-.55Zm-14.85-1.46,1.25-1.57,1.25,1.57.56-.39-1.06-1.7,1.74-.68-.21-.65-1.82.48-.12-1.94h-.68l-.15,1.95-1.82-.49-.2.65,1.73.68-1,1.7Z"/><path class="cls-3" d="M438.52,366.54a.87.87,0,0,0,.85-.92.87.87,0,1,0-1.74,0,.87.87,0,0,0,.89.92m-2.69-7.3h-2.65v-6.19h-.9v15.12h.9V360h2.65Zm-12.55,4.29v-8.21h6.09v-.77h-7v9.76h1.14a35.42,35.42,0,0,0,7.24-.55l-.11-.78a35.49,35.49,0,0,1-7.13.55Zm-5.91,4.62h.9v-15.1h-.9ZM408,363.36v-8.83h-.88v9.63h1.17a35.83,35.83,0,0,0,7.41-.75l-.13-.78a34.63,34.63,0,0,1-7.28.73Zm-17.59-2.5h13.65v-.77H390.41Zm10.94,3.3h-8.24v-2.08h-.88v5.83h10v-5.83h-.89Zm0,3h-8.24v-2.27h8.24Zm1.87-9.11c-2.24-.3-5.52-1.95-5.52-4v-.81h-.92V354c0,2.15-3.23,3.71-5.52,4l.35.73c2.13-.35,4.75-1.56,5.63-3.43.9,1.84,3.52,3.08,5.63,3.43Zm-18,4.35h-.86v1a4.8,4.8,0,0,1-2.4,3.75,4.32,4.32,0,0,1-2.36-3.75v-1h-.87v1a4.68,4.68,0,0,1-3.16,3.84l.46.7a5.79,5.79,0,0,0,3.11-3,4.85,4.85,0,0,0,2.84,3.1,5.47,5.47,0,0,0,2.8-3.13,5.38,5.38,0,0,0,3.16,3l.46-.7a4.44,4.44,0,0,1-3.18-3.84ZM379,360.91c2.26,0,3.84-1.4,3.84-3.45S381.28,354,379,354s-3.81,1.39-3.81,3.47,1.58,3.45,3.81,3.45m0-6.16a2.71,2.71,0,1,1-2.94,2.71,2.75,2.75,0,0,1,2.94-2.71m8-1.7h-.9v8.67h.9Zm-19,8.67H354.37v.77h6.35v5.64h.91v-5.64H368Zm-.81-2.7c-2.26-.37-5.54-2.14-5.54-4.45v-.94h-.94v.94c0,2.38-3.25,4.08-5.56,4.45l.39.75c2.13-.41,4.75-1.72,5.65-3.72.9,2,3.53,3.31,5.62,3.72Zm-29.62,8.16v-2h8.66v-3.35h-9.59v.75h8.7v1.89h-8.65v3.5h10.13v-.75Zm5.43-7.5c-2.11-.76-4-2.7-4-5v-1.16h-.88v1.16a6,6,0,0,1-4,5.28l.47.73a6.88,6.88,0,0,0,3.95-4.14,6.73,6.73,0,0,0,4,3.84Zm3.21-6.64h-.9V361h.9Zm-13.77,6.41h-2.65V353h-.9v15.09h.9v-7.92h2.65Zm-9.21-6.26h-.9v2.36h-4.12v.77h9v-.77h-4Zm-.43,4.62a3.4,3.4,0,1,0,3.59,3.4,3.37,3.37,0,0,0-3.59-3.4m0,6a2.62,2.62,0,1,1,2.74-2.62,2.61,2.61,0,0,1-2.74,2.62m-10-3.14v-2.33a2.47,2.47,0,0,0,1.92-2.26c0-1.75-2-2.74-5.24-2.74s-5.2,1-5.2,2.74a2.5,2.5,0,0,0,1.94,2.28v2.31H302.7v.76h13.64v-.76Zm-7.6-4.59c0-1.24,1.68-2,4.28-2s4.32.77,4.32,2-1.68,2-4.32,2-4.28-.78-4.28-2m1.92,2.53a11.84,11.84,0,0,0,2.36.22,12.37,12.37,0,0,0,2.43-.22v2.06h-4.79Zm2.38,4.2c-3.21,0-5.13.93-5.13,2.63s1.92,2.66,5.13,2.66,5.13-1,5.13-2.66-1.92-2.63-5.13-2.63m0,4.56c-2.58,0-4.23-.72-4.23-1.93s1.65-1.92,4.23-1.92,4.23.73,4.23,1.92-1.65,1.93-4.23,1.93m-8.33-8.05h-2.65V353h-.9v15.11h.9v-8h2.65Zm-9.38-4.91h-.87v3a8.34,8.34,0,0,1-4,6.66l.56.73a9.23,9.23,0,0,0,3.93-5.32,8.76,8.76,0,0,0,3.91,5l.56-.7a8,8,0,0,1-4.06-6.37Zm-13.26,13.72h.86V353h-.86Zm-3-9h-2.33c-.12-2.88-1.34-4.7-3.2-4.7s-3.17,2-3.17,5.12,1.25,5.12,3.17,5.12,3.1-1.84,3.2-4.78h2.33v7.46h.87V353.41h-.87Zm-5.53,4.72c-1.39,0-2.34-1.77-2.34-4.3s.95-4.3,2.34-4.3,2.35,1.79,2.35,4.3-.94,4.3-2.35,4.3m-19-2.65h13.66v-.76H251Zm6.82,1.55c-3.19,0-5.13,1-5.13,2.68s1.94,2.69,5.13,2.69,5.14-1,5.14-2.69-1.94-2.68-5.14-2.68m0,4.64c-2.58,0-4.23-.73-4.23-2s1.65-2,4.23-2,4.23.73,4.23,2-1.64,2-4.23,2M263,358h-9.38v-3.44h9.26v-.76H252.78v5H263Zm-18.78,2.43v-.75H230.61v.75H237v1.78h-4.66v.73h9.25v1.69h-9.21v3.33H243v-.75h-9.71v-1.89h9.22v-3.11h-4.58V360.4Zm-1.79-6.82h-10v4.51h10Zm-.88,3.76h-8.28v-3h8.28ZM229,357.2h-2.37v-4.15h-.9v9.08h.9V358H229Zm-12,6.58h8.75v4.35h.9V363H217Zm6.64-3.08a5.37,5.37,0,0,1-3.79-4.74v-1h3.57v-.77h-8V355h3.59v1a5.71,5.71,0,0,1-3.91,5l.47.71a6.61,6.61,0,0,0,3.9-4,6.43,6.43,0,0,0,3.74,3.66Zm-12.41,7.45h.89v-15.1h-.89Zm-3-9.54h-2.81v.79h2.81v7.92H209V353.46h-.86Zm-4.63-2.89h3V355h-7v.76h3.13v1.75a8.16,8.16,0,0,1-3.47,6.86l.59.68a8.28,8.28,0,0,0,3.32-5.14,7.82,7.82,0,0,0,3.23,4.78l.58-.68a7.7,7.7,0,0,1-3.39-6.5Zm-10.47,3.73h-2.65v-6.4h-.9v15.1h.9v-7.92h2.65Zm-9.35-2.93h3.55v-.76h-3.55v-2.48h-.9v2.48h-3.59v.76h3.61V358a7.56,7.56,0,0,1-4,6.42l.52.7a8.38,8.38,0,0,0,3.9-5,7.87,7.87,0,0,0,3.7,4.74l.55-.71a7.23,7.23,0,0,1-3.83-6.12ZM169.65,367h7.46v-.88h-3.86c-.65,0-1.36.05-2,.1,3.3-3.08,5.3-5.68,5.3-8.28a3.24,3.24,0,0,0-3.43-3.55,4.55,4.55,0,0,0-3.49,1.78l.63.6a3.7,3.7,0,0,1,2.76-1.55,2.43,2.43,0,0,1,2.53,2.75c0,2.25-1.67,4.8-5.86,8.42Zm-10.09-6.27v-2.33c1.25-.46,1.93-1.24,1.93-2.26,0-1.75-2-2.74-5.24-2.74s-5.2,1-5.2,2.74a2.49,2.49,0,0,0,1.94,2.28v2.31h-3.54v.76h13.63v-.76ZM152,356.1c0-1.24,1.68-2,4.28-2s4.32.77,4.32,2-1.69,2-4.32,2-4.28-.78-4.28-2m1.92,2.53a11.84,11.84,0,0,0,2.36.22,12.44,12.44,0,0,0,2.43-.22v2.06h-4.79Zm2.38,4.2c-3.22,0-5.14.93-5.14,2.63s1.92,2.66,5.14,2.66,5.13-1,5.13-2.66-1.92-2.63-5.13-2.63m0,4.56c-2.59,0-4.24-.72-4.24-1.93s1.65-1.92,4.24-1.92,4.23.73,4.23,1.92-1.65,1.93-4.23,1.93M145.2,353.05v3.74h-3.5a3.53,3.53,0,0,0-3.81-3c-2.24,0-3.83,1.37-3.83,3.43s1.59,3.43,3.83,3.43a3.51,3.51,0,0,0,3.81-3.07h3.5v3.57h.9v-8.1Zm-7.31,6.84a2.68,2.68,0,1,1,3-2.67,2.75,2.75,0,0,1-3,2.67m7.31,4.25h-7.63V362h-.9v6h9.43v-6h-.9Zm0,3h-7.63v-2.27h7.63Zm-15.4-10V353h-.9v9.31h.9V358h2.36v-.78ZM125,362.81c-3.05,0-4.86.95-4.86,2.65S122,368.1,125,368.1s4.88-1,4.88-2.64-1.84-2.65-4.88-2.65m0,4.56c-2.42,0-4-.73-4-1.91s1.56-1.92,4-1.92,4,.73,4,1.92-1.56,1.91-4,1.91m1.75-6.95c-2.06-.77-3.86-2.74-3.86-4.92v-1.71h-.87v1.68a5.94,5.94,0,0,1-3.86,5.35l.48.73a6.76,6.76,0,0,0,3.86-4.18,6.57,6.57,0,0,0,3.76,3.76Z"/><path class="cls-3" d="M460.68,343.31a3.55,3.55,0,0,0,2-3.2c0-.87-.37-1.43-1-1.43a.85.85,0,1,0,0,1.7h.2a2.55,2.55,0,0,1-1.49,2.29Zm-15.87-3.23h13.7v-.77h-13.7Zm12.07-4.68h-9.3v-2.79h8.82v-.74h-8.82v-2.66h9.14v-.76H446.66v7.72h10.22Zm-20.42,0v-2.1h5v-.77H439v-3.93h2.49v-.76h-11v.76H433v3.93h-2.48v.77h5.05v2.1h-6.39v.77h13.65v-.77Zm-2.58-6.8h4.19v3.93h-4.19Zm-2,9.1H431v4.1h10.32V341H431.9Zm-6.76-1.26H426V327h-.88Zm0,2.26h-8V337h-.9v4.89H426V337h-.88Zm0,2.48h-8v-1.75h8Zm-8-4.76h.89v-2.68a25.67,25.67,0,0,0,3.6-.44l-.07-.65a57,57,0,0,1-8.14.44l.13.77c1,0,2.27,0,3.59-.07Zm.43-4.36c1.95,0,3.26-.85,3.26-2.25s-1.31-2.21-3.26-2.21-3.27.85-3.27,2.21,1.31,2.25,3.27,2.25m0-3.8c1.46,0,2.43.63,2.43,1.55s-1,1.57-2.43,1.57-2.43-.65-2.43-1.57,1-1.55,2.43-1.55m2,6.35v.69h2.9v1.09h.87v-9.06h-.87v7.28Zm-14.91,8.72a3.57,3.57,0,0,0,2-3.2c0-.87-.38-1.43-1-1.43a.82.82,0,0,0-.89.85.81.81,0,0,0,.87.85h.2a2.53,2.53,0,0,1-1.49,2.29ZM392.55,341v-3.84h-.9v4.61h9.89V341Zm5-5.85a6,6,0,0,1-3.82-5.22v-2.05h-.89v2.05a6.21,6.21,0,0,1-3.89,5.51l.49.72a7,7,0,0,0,3.88-4.32,6.9,6.9,0,0,0,3.71,4Zm2.71,3.22h.9V327.07h-.9v2.38H396.9v.77h3.37v2.43H396.9v.76h3.37Zm-22.65-9.3c1.69,0,2.88,1.8,2.88,4.38s-1.19,4.41-2.88,4.41-2.89-1.82-2.89-4.41,1.19-4.38,2.89-4.38m0-.8c-2.21,0-3.75,2-3.75,5.18s1.54,5.19,3.75,5.19,3.74-2,3.74-5.19-1.54-5.18-3.74-5.18m7,13.87h.9v-15.1h-.9Zm-15.12,0h.87V327h-.87Zm-3.13-9h-2.87a13.09,13.09,0,0,0,.7-4.3h-5.73v.77h4.84a11.09,11.09,0,0,1-.47,2.8l-5.1.36.17.82,4.69-.46a9.9,9.9,0,0,1-4.79,5.08l.52.68a10.83,10.83,0,0,0,4.87-5h3.17v7.4h.87V327.46h-.87Zm-13,9h.9V327.05h-.9Zm-9.55-4.51v-4h5.95v-5.11h-6.9v.78h6v3.57h-6v5.56h1.2a46.34,46.34,0,0,0,7.71-.56l-.09-.77a47.67,47.67,0,0,1-7.62.56Zm-17.46-2.89H340V334H326.3Zm2.63,4.66h9.22v-3H328v.72h9.24v1.6h-9.21v3.21h10.59v-.73h-9.71Zm1.19-7.7h-2.48v.73h10.93v-.73h-2.46v-3.47h2.5v-.73h-11v.73h2.49Zm5.09,0H331v-3.47h4.2ZM322.56,327v6.13H320v-5.76h-.86v13.92H320v-7.39h2.52v8.21h.87V327Zm-8.48,1.37c-1.92,0-3.18,2-3.18,5.12s1.26,5.12,3.18,5.12,3.19-2,3.19-5.12-1.26-5.12-3.19-5.12m0,9.42c-1.4,0-2.33-1.75-2.33-4.3s.93-4.3,2.33-4.3,2.34,1.79,2.34,4.3-.93,4.3-2.34,4.3m-12.21,5.48a3.55,3.55,0,0,0,2-3.2c0-.87-.37-1.43-1-1.43a.85.85,0,1,0,0,1.7h.21a2.56,2.56,0,0,1-1.5,2.29Zm-11.63-14.64a2.71,2.71,0,1,1-2.94,2.7,2.75,2.75,0,0,1,2.94-2.7m0-.77a3.49,3.49,0,1,0,0,6.94c2.26,0,3.84-1.39,3.84-3.47s-1.58-3.47-3.84-3.47m7.16,13.25h-7.82v-3.78h7.82Zm-8.7.76h9.58v-5.28H288.7Zm8.68-6.17h.9v-8.69h-.9Zm-15.14,6.41h.86v-15.1h-.86Zm-3.15-8.7h-3.21a11,11,0,0,0,.9-4.41H271v.77h4.87a10.42,10.42,0,0,1-5.42,8.33l.58.68a12,12,0,0,0,4.47-4.63h3.57v7.13H280V327.48h-.87Zm-17.53,9.86a3.55,3.55,0,0,0,2-3.2c0-.87-.37-1.43-1-1.43a.85.85,0,1,0,0,1.7h.2a2.54,2.54,0,0,1-1.5,2.29ZM245.69,340h13.7v-.76h-13.7Zm12.88-5.1c-2.14-.42-5.63-2.7-5.63-5.49v-1.21H252v1.21c0,2.81-3.43,5.05-5.59,5.49l.42.77c2-.53,4.71-2.2,5.65-4.56.93,2.36,3.67,4,5.66,4.56Zm-24.12-5.81c1.68,0,2.87,1.8,2.87,4.38s-1.19,4.41-2.87,4.41-2.89-1.82-2.89-4.41,1.19-4.38,2.89-4.38m0-.8c-2.21,0-3.76,2-3.76,5.18s1.55,5.19,3.76,5.19,3.74-2,3.74-5.19-1.55-5.18-3.74-5.18m7,13.87h.9v-15.1h-.9Zm-12.85-9H225.9v-6.12H225v15.1h.9V334h2.65Zm-7.48-.62H216v-4.19h-.9v10.08H222V328.36h-.88Zm0,5.13H216v-4.39h5.07Zm-10.95,4.49h.9V327.05h-.9Zm-9.43-4.64v-8.2h6.13v-.8h-7v9.8H201a38,38,0,0,0,7.39-.57l-.11-.78a37.48,37.48,0,0,1-7.28.55ZM190,343.31a3.57,3.57,0,0,0,2-3.2c0-.87-.38-1.43-1-1.43a.82.82,0,0,0-.89.85.81.81,0,0,0,.87.85h.2a2.53,2.53,0,0,1-1.49,2.29Zm-4.24-12.12V327h-.9v9.31h.9V332h2.37v-.78ZM181,336.81c-3,0-4.86.95-4.86,2.65s1.82,2.64,4.86,2.64,4.88-1,4.88-2.64-1.83-2.65-4.88-2.65m0,4.56c-2.41,0-4-.73-4-1.91s1.56-1.92,4-1.92,4,.73,4,1.92-1.56,1.91-4,1.91m1.76-6.95c-2.06-.77-3.86-2.74-3.86-4.92v-1.71H178v1.68a5.94,5.94,0,0,1-3.86,5.35l.48.73a6.82,6.82,0,0,0,3.86-4.18,6.58,6.58,0,0,0,3.75,3.76Zm-16.87,2c-3.06,0-4.93,1-4.93,2.84s1.87,2.84,4.93,2.84,5-1,5-2.84-1.89-2.84-5-2.84m0,4.95c-2.45,0-4-.82-4-2.11s1.59-2.11,4-2.11,4.08.84,4.08,2.11-1.6,2.11-4.08,2.11m4-7.7V336h.9v-9h-.9v2.31h-4.22a3.87,3.87,0,0,0-3.09-1.36,3.54,3.54,0,1,0,0,7.05,3.87,3.87,0,0,0,3.09-1.37Zm0-3.57v2.8h-3.76a3.76,3.76,0,0,0,0-2.8Zm-10.27,1.39a3,3,0,1,1,3,2.76,2.79,2.79,0,0,1-3-2.76m-9.93,11.82a3.55,3.55,0,0,0,2-3.2c0-.87-.37-1.43-1-1.43a.85.85,0,1,0,0,1.7h.21a2.56,2.56,0,0,1-1.5,2.29Zm-4.23-11.46v-4.78h-.9v11.1h.9v-5.54h2.36v-.78Zm-8.32,5.25h-.9v4.68h10V341h-9.07Zm6.14-2.53c-.8.1-1.65.17-2.51.2v-5.44h1.7v-.76h-8.1v.76H136V335l-2.13,0,.14.8a69.24,69.24,0,0,0,9.28-.53Zm-6.36-5.24h3v5.49l-3,.12Zm-7.12,2.52v-4.8h-.9v11.19h.9v-5.61h2.38v-.78Zm-8.3,5.23h-.9v4.7h10V341h-9.07Zm-2.63-8.84V329h5.93c-.24,3-2.82,5.35-6.51,6.58l.39.75c4.22-1.41,7.09-4.3,7.09-8.1Z"/><path class="cls-3" d="M465.48,317.31a3.57,3.57,0,0,0,2-3.2c0-.87-.38-1.43-1-1.43a.82.82,0,0,0-.89.85.81.81,0,0,0,.87.85h.2a2.53,2.53,0,0,1-1.49,2.29Zm-4-2.35h1V302.57h-1Zm-9.9-.85v-5.32H454c2.46,0,3.86.82,3.86,2.55,0,1.92-1.47,2.77-3.86,2.77Zm0-6.14V303.4h2.18c2.19,0,3.33.61,3.33,2.3,0,1.41-1,2.27-3.43,2.27Zm-1,7h3.67c2.79,0,4.63-1.22,4.63-3.62a2.89,2.89,0,0,0-2.65-3v-.08a2.66,2.66,0,0,0,1.9-2.7c0-2.09-1.63-3-4.13-3h-3.42Zm-9.64,2.35a3.55,3.55,0,0,0,2-3.2c0-.87-.37-1.43-1-1.43a.85.85,0,1,0,0,1.7h.2a2.54,2.54,0,0,1-1.5,2.29Zm-4-2.35h1V302.57h-1Zm-6.2.22a4.63,4.63,0,0,0,3.7-1.77l-.58-.64a3.93,3.93,0,0,1-3.07,1.49c-2.6,0-4.22-2.16-4.22-5.54s1.65-5.46,4.27-5.46a3.47,3.47,0,0,1,2.68,1.25l.58-.67a4.28,4.28,0,0,0-3.26-1.49c-3.15,0-5.34,2.44-5.34,6.41s2.18,6.42,5.24,6.42m-11.65-7.72h-2.63V301h-.9v15.11h.9v-7.92h2.63Zm-9,1.5a3.46,3.46,0,0,0,3.45-3.43c0-2.08-1.62-3.46-3.91-3.46s-3.95,1.38-3.95,3.46a3.47,3.47,0,0,0,3.51,3.43v2.91c-1.53.05-3,.06-4.29.06l.17.79a59.85,59.85,0,0,0,9.54-.58l-.07-.68c-1.41.2-2.94.3-4.45.37Zm-3.52-3.43a3.08,3.08,0,1,1,3.06,2.68,2.79,2.79,0,0,1-3.06-2.68m-5.78,10.62h.9v-15.1h-.9Zm-6.24-12.72h3.81v-.78h-8.43v.78h3.74V306a8.29,8.29,0,0,1-4.17,6.5l.56.73a9.31,9.31,0,0,0,4-5.24,8.54,8.54,0,0,0,4.13,4.87l.54-.72c-2-.92-4.23-3.52-4.23-6.14Zm-9.4,12.72h.9v-15.1h-.9Zm-4.54-4.67h-5v-8.13h5Zm-5.88.74h6.76V302.6h-6.76Zm-12.17-9.14c1.68,0,2.87,1.8,2.87,4.38s-1.19,4.41-2.87,4.41-2.89-1.82-2.89-4.41,1.19-4.38,2.89-4.38m0-.8c-2.21,0-3.76,2-3.76,5.18s1.55,5.19,3.76,5.19,3.74-2,3.74-5.19-1.55-5.18-3.74-5.18m6.95,13.87h.9v-15.1h-.9Zm-20.15-5.73h.89V301h-.89Zm0,2.26h-8V311h-.9v4.89h9.79V311h-.89Zm0,2.48h-8v-1.75h8Zm-7.95-4.76h.88v-2.68a25.82,25.82,0,0,0,3.61-.44l-.07-.65a57.17,57.17,0,0,1-8.15.44l.14.77c1,0,2.26,0,3.59-.07Zm.42-4.36c2,0,3.27-.85,3.27-2.25s-1.31-2.21-3.27-2.21-3.26.85-3.26,2.21,1.31,2.25,3.26,2.25m0-3.8c1.46,0,2.43.63,2.43,1.55s-1,1.57-2.43,1.57-2.43-.65-2.43-1.57,1-1.55,2.43-1.55m2,6.35v.69h2.91v1.09h.87v-9.06h-.87v7.28Zm-14.91,8.72a3.55,3.55,0,0,0,2-3.2c0-.87-.37-1.43-1-1.43a.85.85,0,1,0,0,1.7h.2a2.54,2.54,0,0,1-1.5,2.29Zm-4.23-11.46v-4.78h-.9v11.1h.9v-5.54H327v-.78Zm-8.31,5.25h-.9v4.68h10V315h-9.06Zm6.13-2.53c-.79.1-1.64.17-2.51.2v-5.44h1.7v-.76h-8.09v.76h1.68V309l-2.13,0,.14.8a69.15,69.15,0,0,0,9.28-.53Zm-6.35-5.24h2.95v5.49l-2.95.12Zm-5.1,5.34v-.73H297.38v.73h6.36v1.67h-4.66V311h9.25v1.65h-9.21v3.25h10.59v-.73H300v-1.82h9.21v-3h-4.57v-1.67Zm-12.52-1.6c2.3-.24,4.83-1.09,5.7-2.73.87,1.64,3.4,2.49,5.69,2.73l.29-.71c-2.46-.22-5.4-1.24-5.5-3.18h4.91v-.73h-4.93V300.9h-.9v1.55h-4.92v.73h4.88c-.1,1.94-3,3-5.5,3.18Zm-2.63.27h-2.65v-6.29h-.9v15.1h.9v-8h2.65Zm-9.32-3.91h3.56v-.78h-8.06v.78h3.62V306a8.28,8.28,0,0,1-4.13,6.49l.56.75a9.33,9.33,0,0,0,4-5.27,8.82,8.82,0,0,0,3.93,4.9l.53-.74a7.67,7.67,0,0,1-4-6.13ZM269.86,315v-3.86H269v4.63h9.89V315Zm5-6.05c-2.05-.75-3.8-2.65-3.8-4.71v-1.09h3.53v-.76h-8v.76h3.6v1.11a5.84,5.84,0,0,1-3.94,5.08l.47.73a6.81,6.81,0,0,0,3.93-4.1,6.58,6.58,0,0,0,3.78,3.71Zm-.79-3.59v.77h3.41v6h.9V301.05h-.9v4.32ZM257.3,317.31a3.57,3.57,0,0,0,2-3.2c0-.87-.38-1.43-1-1.43a.82.82,0,0,0-.89.85.81.81,0,0,0,.87.85h.2a2.53,2.53,0,0,1-1.49,2.29Zm-4.24-11.46v-4.78h-.9v11.1h.9v-5.54h2.37v-.78Zm-8.31,5.25h-.9v4.68h10V315h-9.06Zm6.14-2.53c-.8.1-1.65.17-2.52.2v-5.44h1.7v-.76H242v.76h1.68V309l-2.12,0,.13.8a69.38,69.38,0,0,0,9.29-.53Zm-6.36-5.24h3v5.49l-3,.12Zm-5.1,5.34v-.73H225.8v.73h6.35v1.67H227.5V311h9.24v1.65h-9.21v3.25h10.59v-.73h-9.71v-1.82h9.22v-3h-4.57v-1.67Zm-12.51-1.6c2.29-.24,4.83-1.09,5.69-2.73.87,1.64,3.4,2.49,5.7,2.73l.29-.71c-2.47-.22-5.41-1.24-5.51-3.18H238v-.73h-4.93V300.9h-.9v1.55h-4.91v.73h4.88c-.1,1.94-3,3-5.51,3.18ZM217,317.31a3.55,3.55,0,0,0,2-3.2c0-.87-.37-1.43-1-1.43a.85.85,0,1,0,0,1.7h.21a2.56,2.56,0,0,1-1.5,2.29ZM212.72,301v6.39H210.5v-6h-.87v13.84h.87v-7.06h2.22v7.92h.89V301Zm-7.26,7.29h-.86v3.4c-1.36,0-2.65,0-3.66,0l.16.8a47,47,0,0,0,7.9-.53l-.07-.68a30.24,30.24,0,0,1-3.47.31Zm3.3-.66a4.6,4.6,0,0,1-3.28-4v-1.36h-.9v1.36a4.93,4.93,0,0,1-3.42,4.42l.48.71a5.8,5.8,0,0,0,3.4-3.52,5.52,5.52,0,0,0,3.25,3.13ZM189.18,315v-4h-.9v4.75h10V315Zm4.38-9.21a3.83,3.83,0,1,0-3.82,3.67,3.59,3.59,0,0,0,3.82-3.67m-6.78,0a3,3,0,1,1,3,2.87,2.84,2.84,0,0,1-3-2.87m11-4.73h-.9v11.14h.9Zm-29,13.94v-4h-.9v4.75h10V315Zm4.38-9.21a3.83,3.83,0,1,0-3.82,3.67,3.59,3.59,0,0,0,3.82-3.67m-6.78,0a3,3,0,1,1,3,2.87,2.84,2.84,0,0,1-3-2.87m11-4.73h-.9v11.14h.9Zm-16.52,0v4.14h-3.4V306h3.4v4.15h.9v-9.05Zm-9.06,10.71h9.06v4.37h.9V311h-10Zm6.44-3.06c-2.06-.74-3.81-2.65-3.81-4.72v-1H158v-.77h-8V303h3.6v1a5.85,5.85,0,0,1-3.94,5.08l.47.71a6.64,6.64,0,0,0,3.93-4.06,6.58,6.58,0,0,0,3.77,3.69Zm-13-7.65v3.74h-3.5a3.53,3.53,0,0,0-3.81-3c-2.24,0-3.83,1.37-3.83,3.43s1.59,3.43,3.83,3.43a3.51,3.51,0,0,0,3.81-3.07h3.5v3.57h.9v-8.1Zm-7.31,6.84a2.68,2.68,0,1,1,3-2.67,2.75,2.75,0,0,1-3,2.67m7.31,4.25h-7.63V310h-.9v6h9.43v-6h-.9Zm0,3h-7.63v-2.27h7.63Zm-15.4-10V301h-.9v9.31h.9V306h2.36v-.78ZM125,310.81c-3.05,0-4.86.95-4.86,2.65S122,316.1,125,316.1s4.88-1,4.88-2.64-1.84-2.65-4.88-2.65m0,4.56c-2.42,0-4-.73-4-1.91s1.56-1.92,4-1.92,4,.73,4,1.92-1.56,1.91-4,1.91m1.75-6.95c-2.06-.77-3.86-2.74-3.86-4.92v-1.71h-.87v1.68a5.94,5.94,0,0,1-3.86,5.35l.48.73a6.76,6.76,0,0,0,3.86-4.18,6.57,6.57,0,0,0,3.76,3.76Z"/><path class="cls-3" d="M432.72,209a16.72,16.72,0,0,0,7.51-5.28,19.59,19.59,0,0,0,3.78-8.36l-1.37-.34a18.29,18.29,0,0,1-3.5,7.88,16.27,16.27,0,0,1-7.1,4.89Zm19.53-1.59-8.43-5.7-.76,1.25,2,1.31c.71.47,1.43,1,2.15,1.47l2.17,1.53,2,1.47Zm-26.56,9.73q3.57,0,7.32-.06l7.5-.15q3.76-.1,7.47-.25t7.16-.38l0,1.48q-3.42.22-7.1.38c-2.46.1-4.93.19-7.41.25l-7.47.15c-2.5,0-4.92.06-7.28.06Zm2.4-44.65a22,22,0,0,0,6.13-7,27.82,27.82,0,0,0,2.95-9.26l-1.37-.26a33.78,33.78,0,0,1-1,4.75,19.89,19.89,0,0,1-1.69,4,19,19,0,0,1-2.49,3.52,22.61,22.61,0,0,1-3.42,3.12Zm15.58-1.83-6.16-6.38-1,1c1,1,2,2,3,3.08s2,2.14,3.07,3.31Zm8,10.26c-1,.08-2.26.15-3.73.23s-3,.13-4.54.17-3.08.06-4.56.08-2.75,0-3.82-.06v1.48q1.56.08,3.78.06c1.49,0,3,0,4.58-.08s3.09-.09,4.56-.15,2.71-.13,3.73-.21Zm-2.85-19.3h-7v1.48h7ZM435,182.43h1.41v-8.05H435Zm13.15-6.15h1.41V153.74h-1.41Zm-10.78-39.47a6.27,6.27,0,0,0,2.08-1.5,6.75,6.75,0,0,0,1.35-2.22,8.11,8.11,0,0,0,0-5.44,6.85,6.85,0,0,0-1.35-2.22,6.53,6.53,0,0,0-9.55,0,6.83,6.83,0,0,0-1.34,2.22,8.11,8.11,0,0,0,0,5.44,6.73,6.73,0,0,0,1.34,2.22,6.31,6.31,0,0,0,2.09,1.5,6.85,6.85,0,0,0,5.38,0m-.56-11.63a4.94,4.94,0,0,1,1.64,1.2,5.16,5.16,0,0,1,1.05,1.79,6.76,6.76,0,0,1,0,4.41,5.21,5.21,0,0,1-1.05,1.78,4.8,4.8,0,0,1-1.64,1.2,5,5,0,0,1-2.13.44,5.12,5.12,0,0,1-2.14-.44,5,5,0,0,1-1.64-1.2,5.55,5.55,0,0,1-1-1.78,6.93,6.93,0,0,1,0-4.41,5.49,5.49,0,0,1,1-1.79,4.9,4.9,0,0,1,3.78-1.63,5,5,0,0,1,2.13.43m11.34,22.22h1.41V115.74h-1.41Zm-4.56-48.23c-1,.16-2,.3-3.19.44s-2.29.27-3.44.38-2.3.22-3.44.3-2.22.15-3.23.18V93h-1.41V102c1,0,2.2-.08,3.48-.17s2.59-.18,3.93-.29,2.66-.24,4-.39,2.45-.3,3.49-.44Zm-2.24-7.37q-3,.27-6.29.34l-6.18.12v1.48q2.85,0,6.18-.13c2.21-.07,4.31-.16,6.29-.29Zm-1.41.76h1.41V84.92h-1.41Zm1.41-8.28q-3.17.16-6.48.24c-2.22,0-4.31.08-6.29.1l.11,1.48c2,0,4.06-.06,6.26-.11s4.32-.13,6.4-.23Zm14.51,7.79h-6.3l-.73.68.73.8,6.3.08Zm-7.71,17.33h1.41V77.74h-1.41Z"/><path class="cls-3" d="M476,179.39h1.41v-4H476Zm7.3-17.78c-.87,0-2,.1-3.27.14s-2.69.1-4.13.13l-4.12.1-3.27,0,.12,1.46c.83,0,1.9,0,3.21,0l4.06-.09,4.11-.12c1.33,0,2.42-.08,3.29-.13Zm-2.44-3c-1.36-.43-2.68-.9-4-1.39s-2.57-1-3.91-1.62l-.53,1.56c1.29.56,2.59,1.07,3.91,1.54s2.62.92,3.91,1.35Zm15,10.26h-6.3l-.73.68.73.8,6.3.07Zm-7.71,16.56h1.41V153.74h-1.41Zm-16.63-13.71a4.55,4.55,0,0,0,1,1.5,5.32,5.32,0,0,0,1.64,1.08,6.08,6.08,0,0,0,4.44,0,5.32,5.32,0,0,0,1.64-1.08,4.37,4.37,0,0,0,1-1.5,4.42,4.42,0,0,0,0-3.35,4.37,4.37,0,0,0-1-1.5,5.32,5.32,0,0,0-1.64-1.08,6.08,6.08,0,0,0-4.44,0,5.32,5.32,0,0,0-1.64,1.08,4.55,4.55,0,0,0-1,1.5,4.54,4.54,0,0,0,0,3.35m1.32-2.8a3.25,3.25,0,0,1,.68-1.06,3.73,3.73,0,0,1,1.16-.8,4.62,4.62,0,0,1,3.38,0,3.73,3.73,0,0,1,1.16.8,3.25,3.25,0,0,1,.68,1.06,2.87,2.87,0,0,1,0,2.25,3.34,3.34,0,0,1-1.84,1.88,4.91,4.91,0,0,1-3.38,0,3.34,3.34,0,0,1-1.84-1.88,2.87,2.87,0,0,1,0-2.25m13.11,8.5c-1.9.33-3.67.6-5.29.81s-3.21.4-4.77.55-3.14.28-4.75.38-3.36.19-5.26.27l.31,1.48c1.87-.08,3.61-.17,5.22-.29s3.19-.26,4.73-.43,3.12-.36,4.71-.58,3.33-.47,5.21-.75Zm-9.83-52.53a5.76,5.76,0,0,0,1.5,1.89,7.26,7.26,0,0,0,2.25,1.22,8.91,8.91,0,0,0,5.47,0,7.2,7.2,0,0,0,2.24-1.22,5.76,5.76,0,0,0,1.5-1.89,5.69,5.69,0,0,0,0-4.88,5.76,5.76,0,0,0-1.5-1.89,7.2,7.2,0,0,0-2.24-1.22,8.72,8.72,0,0,0-5.47,0,7.26,7.26,0,0,0-2.25,1.22,5.76,5.76,0,0,0-1.5,1.89,5.69,5.69,0,0,0,0,4.88m1.29-4.29a4.23,4.23,0,0,1,1.21-1.42,5.86,5.86,0,0,1,1.8-.91,7.72,7.72,0,0,1,4.4,0,5.65,5.65,0,0,1,1.78.91,4.47,4.47,0,0,1,1.21,1.42,4,4,0,0,1,0,3.7,4.47,4.47,0,0,1-1.21,1.42,5.65,5.65,0,0,1-1.78.91,7.72,7.72,0,0,1-4.4,0,5.86,5.86,0,0,1-1.8-.91,4.23,4.23,0,0,1-1.21-1.42,4.19,4.19,0,0,1,0-3.7m10.74,26.07h1.41V132.84h-1.41Zm-10.3-10.56a26.73,26.73,0,0,1-2.2,4.94,29.87,29.87,0,0,1-3.27,4.64l1.29.79a37.27,37.27,0,0,0,3.25-4.82,28.76,28.76,0,0,0,2.3-5.09Zm11.71-3.84q-3,.17-6.22.27l-6.34.18-6.29.12q-3.12,0-6,0l.16,1.48,6-.07,6.23-.12q3.17-.07,6.31-.19l6.2-.23ZM468.81,96.28a22.1,22.1,0,0,0,5.87-6.84,27.68,27.68,0,0,0,2.87-9l-1.37-.27a36.68,36.68,0,0,1-1.05,4.68,20.26,20.26,0,0,1-1.59,3.87,18.62,18.62,0,0,1-2.36,3.37,23.67,23.67,0,0,1-3.28,3ZM484,93.7l-6.58-5.85-.95,1.1c1.07.94,2.12,1.88,3.16,2.83s2.13,2,3.27,3.06Zm4.14,6.57h1.41V77.74h-1.41Zm3.5,4.64c-1,.08-2.25.15-3.69.23s-2.93.13-4.45.17-3,.06-4.46.08-2.72,0-3.78-.06v1.48c1,0,2.28.07,3.74.06s2.95,0,4.48-.08,3-.09,4.47-.15,2.67-.13,3.69-.21Zm-16.38,1.52h1.4V98h-1.4Zm20.59-17h-6.3l-.73.68.73.8,6.3.07Z"/><path class="cls-3" d="M871.84,209a16.61,16.61,0,0,0,7.51-5.28,19.64,19.64,0,0,0,3.78-8.36l-1.37-.34a18.46,18.46,0,0,1-3.49,7.88,16.3,16.3,0,0,1-7.11,4.89Zm19.54-1.59-8.44-5.7-.76,1.25,2,1.31c.71.47,1.42,1,2.14,1.46l2.17,1.54,2,1.47Zm-26.56,9.72c2.38,0,4.81,0,7.31,0s5-.09,7.51-.16,5-.14,7.46-.24,4.86-.23,7.17-.38l0,1.48q-3.42.22-7.11.38t-7.41.25q-3.72.09-7.47.15c-2.49,0-4.92.06-7.27.06Zm2.39-44.65a22,22,0,0,0,6.14-7.05,27.92,27.92,0,0,0,2.94-9.25l-1.37-.26a33.82,33.82,0,0,1-1,4.75,20.47,20.47,0,0,1-1.69,4,20,20,0,0,1-2.49,3.52,23,23,0,0,1-3.42,3.11Zm15.58-1.82-6.16-6.38-1,1,3,3.08c1,1,2,2.14,3.08,3.31Zm8,10.26c-1,.08-2.26.15-3.73.23s-3,.13-4.54.17-3.07.06-4.56.07-2.75,0-3.82-.05v1.48c1,0,2.3.07,3.79.06s3,0,4.57-.08,3.1-.09,4.56-.15,2.72-.13,3.73-.21Zm-2.85-19.3h-7v1.48h7Zm-13.8,20.82h1.41v-8.06h-1.41Zm13.15-6.16h1.41V153.76h-1.41Zm-10.78-39.46a6.56,6.56,0,0,0,2.09-1.5,6.73,6.73,0,0,0,1.34-2.22,7.95,7.95,0,0,0,0-5.44,6.73,6.73,0,0,0-1.34-2.22,6.56,6.56,0,0,0-2.09-1.5,6.5,6.5,0,0,0-7.46,1.5,6.75,6.75,0,0,0-1.35,2.22,8.11,8.11,0,0,0,0,5.44,6.75,6.75,0,0,0,1.35,2.22,6.66,6.66,0,0,0,7.46,1.5m-.55-11.63a5,5,0,0,1,1.64,1.2,5.32,5.32,0,0,1,1,1.79,6.9,6.9,0,0,1,0,4.4,5.32,5.32,0,0,1-1,1.79,5,5,0,0,1-1.64,1.2,5.11,5.11,0,0,1-2.14.43,5,5,0,0,1-2.13-.43,4.8,4.8,0,0,1-1.64-1.2,5.16,5.16,0,0,1-1-1.79,6.73,6.73,0,0,1,0-4.4,5.16,5.16,0,0,1,1-1.79,4.8,4.8,0,0,1,1.64-1.2,5,5,0,0,1,2.13-.43,5.11,5.11,0,0,1,2.14.43m11.33,22.21h1.41V115.76h-1.41Zm-4.56-48.22c-1,.15-2.05.3-3.19.44s-2.29.26-3.44.38l-3.44.3c-1.14.09-2.21.15-3.23.17V93H868V102c1,0,2.19-.08,3.47-.17s2.59-.18,3.94-.3,2.66-.24,4-.38,2.46-.3,3.49-.45Zm-2.24-7.37q-3,.27-6.29.34l-6.17.12v1.48c1.9,0,4-.07,6.17-.14s4.31-.15,6.29-.28Zm-1.4.76h1.4V84.94h-1.4Zm1.4-8.28q-3.15.17-6.48.23c-2.21,0-4.31.08-6.29.11l.12,1.48c2,0,4.06-.06,6.25-.11s4.32-.13,6.4-.23ZM895,92.09h-6.31l-.72.68.72.8,6.31.07Zm-7.72,17.32h1.41V77.76h-1.41Z"/><path class="cls-3" d="M915.11,179.41h1.41v-4h-1.41Zm7.3-17.78c-.86.05-1.95.09-3.27.14s-2.69.1-4.12.13l-4.13.1-3.26,0,.11,1.46c.84,0,1.91,0,3.21,0l4.07-.1,4.1-.11c1.33,0,2.43-.08,3.29-.13Zm-2.43-3c-1.37-.43-2.69-.9-4-1.39s-2.57-1-3.91-1.62l-.53,1.56c1.29.56,2.59,1.07,3.91,1.54s2.62.92,3.92,1.35Zm15,10.26h-6.31l-.72.68.72.8,6.31.07Zm-7.72,16.56h1.41V153.76h-1.41ZM910.65,171.7a4.26,4.26,0,0,0,1,1.5,5.15,5.15,0,0,0,1.63,1.08,6.1,6.1,0,0,0,4.45,0,5.27,5.27,0,0,0,1.63-1.08,4.55,4.55,0,0,0,1-1.5,4.54,4.54,0,0,0,0-3.35,4.36,4.36,0,0,0-1-1.5,5.27,5.27,0,0,0-1.63-1.08,6.1,6.1,0,0,0-4.45,0,5.15,5.15,0,0,0-1.63,1.08,4.09,4.09,0,0,0-1,1.5,4.42,4.42,0,0,0,0,3.35m1.31-2.8a3.25,3.25,0,0,1,.68-1.06,3.85,3.85,0,0,1,1.16-.8,4.62,4.62,0,0,1,3.38,0,3.73,3.73,0,0,1,1.16.8,3.28,3.28,0,0,1,.69,1.06,3.17,3.17,0,0,1,.22,1.12,3.09,3.09,0,0,1-.22,1.12,3.37,3.37,0,0,1-1.85,1.89,4.91,4.91,0,0,1-3.38,0,3.52,3.52,0,0,1-1.16-.8,3.38,3.38,0,0,1-.68-1.09,3.11,3.11,0,0,1-.23-1.12,3.2,3.2,0,0,1,.23-1.12m13.11,8.5q-2.85.49-5.28.81c-1.63.22-3.21.4-4.77.55s-3.14.28-4.75.38-3.37.19-5.27.27l.31,1.48c1.87-.08,3.61-.17,5.22-.29s3.19-.26,4.73-.43,3.12-.36,4.72-.58,3.33-.47,5.2-.75Zm-9.82-52.53a5.61,5.61,0,0,0,1.5,1.89A7.2,7.2,0,0,0,919,128a8.91,8.91,0,0,0,5.47,0,7.2,7.2,0,0,0,2.24-1.22,5.61,5.61,0,0,0,1.5-1.89,5.69,5.69,0,0,0,0-4.88,5.52,5.52,0,0,0-1.5-1.89,7,7,0,0,0-2.24-1.22,8.72,8.72,0,0,0-5.47,0,7,7,0,0,0-2.24,1.22,5.52,5.52,0,0,0-1.5,1.89,5.6,5.6,0,0,0,0,4.88m1.29-4.3a4.18,4.18,0,0,1,1.21-1.41,5.55,5.55,0,0,1,1.8-.91,7.69,7.69,0,0,1,4.39,0,5.35,5.35,0,0,1,1.78.91,4.54,4.54,0,0,1,1.21,1.41,3.88,3.88,0,0,1,.46,1.86,3.81,3.81,0,0,1-.46,1.85,4.47,4.47,0,0,1-1.21,1.42,5.54,5.54,0,0,1-1.78.91,7.69,7.69,0,0,1-4.39,0,5.75,5.75,0,0,1-1.8-.91,4.12,4.12,0,0,1-1.21-1.42,3.92,3.92,0,0,1-.44-1.85,4,4,0,0,1,.44-1.86m10.73,26.08h1.41V132.86h-1.41ZM917,136.09a26.08,26.08,0,0,1-2.2,4.94,29.87,29.87,0,0,1-3.27,4.64l1.29.79a36.28,36.28,0,0,0,3.25-4.82,28.76,28.76,0,0,0,2.3-5.09Zm11.71-3.84q-3,.17-6.21.27l-6.35.18-6.29.12q-3.12,0-6,0l.15,1.48,6-.07,6.24-.12q3.15-.08,6.3-.19l6.2-.23ZM907.93,96.3a22.1,22.1,0,0,0,5.87-6.84,27.68,27.68,0,0,0,2.87-9l-1.37-.27a37.14,37.14,0,0,1-1,4.68,20.28,20.28,0,0,1-1.6,3.87,18.15,18.15,0,0,1-2.35,3.36A23.78,23.78,0,0,1,907,95.16Zm15.2-2.58-6.57-5.85-.95,1.1c1.06.94,2.11,1.88,3.15,2.83s2.13,2,3.27,3.06Zm4.14,6.57h1.41V77.76h-1.41Zm3.5,4.64c-1,.08-2.24.15-3.69.23s-2.92.13-4.44.17-3,.06-4.47.07-2.72,0-3.78-.05v1.48c1,0,2.29.07,3.74.06s3,0,4.49-.08,3-.09,4.46-.15,2.67-.13,3.69-.21Zm-16.38,1.52h1.41V98h-1.41Zm20.6-17h-6.31l-.72.68.72.8L935,91Z"/><polygon class="cls-3" points="638.27 185.9 638.27 109.57 634.8 109.57 614.09 125.53 615.74 127.48 635.13 112.57 635.13 185.9 638.27 185.9"/><path class="cls-3" d="M685,98.4a74.84,74.84,0,0,0-23.16-15.69,71.61,71.61,0,0,0-56.23,0,74.08,74.08,0,0,0-38.85,38.85,71.5,71.5,0,0,0,0,56.23,74.08,74.08,0,0,0,38.85,38.85,71.61,71.61,0,0,0,56.23,0,74.08,74.08,0,0,0,38.85-38.85,71.61,71.61,0,0,0,0-56.23A74.84,74.84,0,0,0,685,98.4ZM698.64,177A71.38,71.38,0,0,1,661,214.62a69.25,69.25,0,0,1-54.61,0A71.29,71.29,0,0,1,568.75,177a69.25,69.25,0,0,1,0-54.61,71.29,71.29,0,0,1,37.64-37.64,69.37,69.37,0,0,1,54.61,0h0a71.38,71.38,0,0,1,37.64,37.64,69.37,69.37,0,0,1,0,54.61Z"/><path class="cls-3" d="M219.73,180.43H176.47L203,156.63A79.92,79.92,0,0,0,213.64,145a20.21,20.21,0,0,0,4.14-12.13,23.75,23.75,0,0,0-1.42-8.19,18.76,18.76,0,0,0-4.19-6.71,20.06,20.06,0,0,0-6.95-4.56,26.11,26.11,0,0,0-9.78-1.68c-7.34,0-12.83,2.07-16.79,6.34a22.43,22.43,0,0,0-5.88,14.46h3.73c.32-5.38,2-9.64,5-12.69,3.36-3.43,8.09-5.17,14.06-5.17s10.68,1.67,14,4.95,5.08,7.73,5.08,13.19a18.91,18.91,0,0,1-4.23,12,83.15,83.15,0,0,1-9.65,10.05l-27.86,25.21V184h46.82Z"/><path class="cls-3" d="M261.54,177.79a71.61,71.61,0,0,0,0-56.23,74.08,74.08,0,0,0-38.85-38.85,71.63,71.63,0,0,0-56.24,0,74.08,74.08,0,0,0-38.85,38.85,71.61,71.61,0,0,0,0,56.23,74.08,74.08,0,0,0,38.85,38.85,71.63,71.63,0,0,0,56.24,0,74.08,74.08,0,0,0,38.85-38.85Zm-39.67,36.83a69.23,69.23,0,0,1-54.6,0A71.35,71.35,0,0,1,129.62,177a69.37,69.37,0,0,1,0-54.61,71.35,71.35,0,0,1,37.65-37.64,69.34,69.34,0,0,1,54.6,0h0a71.35,71.35,0,0,1,37.65,37.64,69.37,69.37,0,0,1,0,54.61,71.35,71.35,0,0,1-37.65,37.64Z"/><rect class="cls-1" width="939.05" height="520"/></g></g></svg>