<svg xmlns="http://www.w3.org/2000/svg" xmlns:xlink="http://www.w3.org/1999/xlink" viewBox="0 0 943.31 540.6"><defs><style>.cls-1,.cls-4,.cls-7{fill:none;}.cls-2{clip-path:url(#clip-path);}.cls-3{fill:#231916;}.cls-4{stroke:#231916;stroke-width:0.3px;}.cls-5{fill:#44403f;}.cls-6{fill:#fff;}.cls-7{stroke:#fff;}</style><clipPath id="clip-path"><rect class="cls-1" width="943.31" height="540.6"/></clipPath></defs><title>columns-2</title><g id="Layer_2" data-name="Layer 2"><g id="Layer_1-2" data-name="Layer 1"><g class="cls-2"><path class="cls-3" d="M13.62,367.46a2.12,2.12,0,0,0,.44.66,2,2,0,0,0,.65.44,2.08,2.08,0,0,0,1.6,0,2,2,0,0,0,.65-.44,2.12,2.12,0,0,0,.44-.66,2.08,2.08,0,0,0,0-1.6,2.12,2.12,0,0,0-.44-.66,2,2,0,0,0-.65-.44,2.08,2.08,0,0,0-1.6,0,2,2,0,0,0-.65.44,2.12,2.12,0,0,0-.44.66,2.08,2.08,0,0,0,0,1.6m2.84.14a1.38,1.38,0,0,1-1.9,0,1.35,1.35,0,0,1,0-1.88,1.38,1.38,0,0,1,1.9,0,1.35,1.35,0,0,1,0,1.88M10.24,347c-.91.06-1.88.11-2.92.15s-2,0-2.9,0V348h1.4l1.49,0,1.5-.05,1.43-.07Zm1.54,6.34a15.91,15.91,0,0,1-3.45.92,22,22,0,0,1-3.87.24l0,.74a22.39,22.39,0,0,0,4-.28,18.92,18.92,0,0,0,3.6-.92Zm-7.36,1.88.74-.2V347.8H4.42ZM18.18,351H14.86l-.38.36.38.42,3.32,0Zm-4.06,8.82h.74V343.14h-.74ZM12,333.18a30.85,30.85,0,0,1-3.56.88,29.29,29.29,0,0,1-3.88.44l0,.74a29.22,29.22,0,0,0,4-.46c1.26-.24,2.48-.53,3.67-.88Zm-7.48,2,.74-.2v-8H4.48Zm9.64,4.58h.74V323.14h-.74ZM16,308.06l-4.16-2.16-.36.68,2,1.07,2.07,1.13Zm-9.68.8a8.35,8.35,0,0,0,3.57-2.1,7.5,7.5,0,0,0,1.91-3.56l-.72-.18a9.51,9.51,0,0,1-.7,1.85,5.77,5.77,0,0,1-1,1.43,6.68,6.68,0,0,1-1.45,1.08A11,11,0,0,1,6,308.2Zm8.5,10.4H7.44v-.78h7.42Zm0-3.28q-.73,0-1.71.06l-2,0-2,0H7.5v-.76H9.2l2,0,2-.06,1.7-.07Zm0,2.82h-.74v-5.64h.74Zm-7.42-5.34h.74v5.44H7.44ZM1.78,311l3.94,0,4.13-.08c1.38,0,2.75-.08,4.1-.13s2.64-.12,3.85-.2l0,.78c-1.2.08-2.47.15-3.82.2s-2.71.1-4.08.13l-4.11.08-3.91,0ZM12,291.64l-3.48-2.88-.48.62c.57.47,1.13.93,1.67,1.4s1.11,1,1.71,1.52Zm-.66-6.32-1.62.08-1.93.09-1.92.05-1.61,0,.06.78,1.58,0,1.9-.06,1.92-.08,1.62-.08Zm-7.3,7.8A9.87,9.87,0,0,0,7,290.07a11.83,11.83,0,0,0,1.47-4.13l-.82-.06a12.87,12.87,0,0,1-.53,2.1,8.7,8.7,0,0,1-.82,1.74,7.91,7.91,0,0,1-1.18,1.48,13.58,13.58,0,0,1-1.59,1.32Zm10.06,0h.74v-10h-.74Zm.74,1.3-2,.07-2.35.07-2.32,0-1.9,0,.06.78,1.89,0,2.3-.05,2.33-.07,2-.08Zm-.74,5.18h.74v-4.66h-.74Zm4.06-11H14.86l-.38.35.38.41,3.32,0ZM8.5,263.52l1.62,0,1.67-.05,1.62-.06,1.47-.07v-.8l-1.47.08-1.62.07-1.67.05-1.62,0Zm6.84,2.16-1.9.12c-.73,0-1.49.07-2.27.09l-2.28,0q-1.11,0-1.95,0v.78c.55,0,1.19,0,1.93,0l2.28,0,2.28-.08c.74,0,1.38-.07,1.91-.11Zm-.24-6.46-1.79.08-2.3.06-2.3,0H6.94v.77H8.7l2.3,0,2.31-.05c.74,0,1.34,0,1.79-.07Zm-8.16,7.46.74-.2v-6.7H6.94ZM2.38,271.1l3.83,0,3.93-.08c1.31,0,2.61-.08,3.9-.13s2.54-.12,3.74-.2l0-.78c-1.21.08-2.47.15-3.77.2s-2.61.1-3.93.13l-3.95.08-3.85,0Zm.58-24a8.55,8.55,0,0,0,2.86-3.33,11.62,11.62,0,0,0,1-4.49l-.78-.06a12.88,12.88,0,0,1-.26,2.27,8.26,8.26,0,0,1-.65,1.91A7.67,7.67,0,0,1,4.06,245a9.61,9.61,0,0,1-1.58,1.44Zm6.72-.88-2.46-2.8-.58.54,1.18,1.35,1.24,1.45Zm1.94-4.46H8.92v.78h2.7Zm-.42,6.16h.74v-9.58H11.2Zm2.94.8h.74V237.14h-.74ZM16,251.44l-1.93.12q-1.12.06-2.34.09l-2.35,0q-1.14,0-2,0v.78c.55,0,1.2,0,2,0l2.35,0,2.35-.08c.76,0,1.41-.07,1.94-.11Zm-8.6.8H8.1v-3.88H7.36Zm1.92-23.06.28-6.48-.78,0-.24,6.48Zm2.44-.8-2.35.32c-.73.09-1.45.18-2.16.25L5,229.16l-2.53.2.18.76,2.49-.22,2.19-.22,2.14-.26,2.36-.32Zm-5.7,1-.54-6.36-.8.1.62,6.32Zm4.74-8.52c-.47,0-1,.08-1.69.11l-2,.09-2,.06-1.68,0,.06.78,1.65,0,2-.06,2-.09,1.7-.09Zm3.48,3.46H10.92v.78h3.32Zm-.12,9.44h.74V217.14h-.74Zm1.1-22.13a2.49,2.49,0,0,1-.87,1.08,4.68,4.68,0,0,1-1.62.71,10.28,10.28,0,0,1-2.49.26,10.28,10.28,0,0,1-2.49-.26,4.68,4.68,0,0,1-1.62-.71,2.49,2.49,0,0,1-.87-1.08,3.74,3.74,0,0,1,0-2.74,2.49,2.49,0,0,1,.87-1.08,4.68,4.68,0,0,1,1.62-.71,10.28,10.28,0,0,1,2.49-.26,10.28,10.28,0,0,1,2.49.26,4.68,4.68,0,0,1,1.62.71,2.49,2.49,0,0,1,.87,1.08,3.74,3.74,0,0,1,0,2.74M4.52,212a3.14,3.14,0,0,0,1,1.3,5,5,0,0,0,1.86.85,11.53,11.53,0,0,0,2.85.3,11.53,11.53,0,0,0,2.85-.3,5,5,0,0,0,1.86-.85,3.14,3.14,0,0,0,1-1.3,4.69,4.69,0,0,0,0-3.3,3.14,3.14,0,0,0-1-1.3,5,5,0,0,0-1.86-.85,11.53,11.53,0,0,0-2.85-.3,11.53,11.53,0,0,0-2.85.3,5,5,0,0,0-1.86.85,3.14,3.14,0,0,0-1,1.3,4.69,4.69,0,0,0,0,3.3M10,197.84a4.54,4.54,0,0,1-.19,1.35,3.63,3.63,0,0,1-.53,1.1,2.48,2.48,0,0,1-.79.73,2.15,2.15,0,0,1-2,0,2.42,2.42,0,0,1-.77-.66,3.39,3.39,0,0,1-.52-1A3.56,3.56,0,0,1,5,198.22,3.42,3.42,0,0,1,5.17,197a3.73,3.73,0,0,1,.49-.93,3,3,0,0,1,.67-.67,2.74,2.74,0,0,1,.73-.39l-.32-.78a3.87,3.87,0,0,0-.93.51,4,4,0,0,0-.82.82,4.36,4.36,0,0,0-.58,1.14,4.83,4.83,0,0,0-.21,1.49,4.72,4.72,0,0,0,.26,1.58A3.57,3.57,0,0,0,5.17,201a3.31,3.31,0,0,0,1,.78,2.76,2.76,0,0,0,1.22.28,2.53,2.53,0,0,0,1.09-.22,3.08,3.08,0,0,0,.87-.58,2.89,2.89,0,0,0,.61-.8,3.09,3.09,0,0,0,.31-.86h.06a2.8,2.8,0,0,0,.32.78,2.68,2.68,0,0,0,.63.72,3.18,3.18,0,0,0,.85.52,2.61,2.61,0,0,0,1,.2,2.76,2.76,0,0,0,1.14-.25,3,3,0,0,0,1-.72,3.6,3.6,0,0,0,.7-1.14,4.23,4.23,0,0,0,.26-1.51,3.5,3.5,0,0,0-.25-1.38,3.43,3.43,0,0,0-.62-1,3.73,3.73,0,0,0-.84-.7,4.89,4.89,0,0,0-.93-.44l-.26.76a3.63,3.63,0,0,1,.76.34,2.78,2.78,0,0,1,.68.56,3,3,0,0,1,.49.81,2.76,2.76,0,0,1,.19,1.07,3.1,3.1,0,0,1-.19,1.1,3,3,0,0,1-.5.9,2.51,2.51,0,0,1-.74.6,1.87,1.87,0,0,1-.9.22,1.93,1.93,0,0,1-.94-.24,2.5,2.5,0,0,1-.79-.67,3.54,3.54,0,0,1-.54-1,4,4,0,0,1-.2-1.27v-1.06H10ZM8.35,170a2.4,2.4,0,0,1,1.32,1.31,2.37,2.37,0,0,1,0,1.86,2.4,2.4,0,0,1-1.32,1.31,2.5,2.5,0,0,1-2,0,2.4,2.4,0,0,1-1.32-1.31,2.37,2.37,0,0,1,0-1.86A2.4,2.4,0,0,1,6.39,170a2.5,2.5,0,0,1,2,0m.29,5.15a3.28,3.28,0,0,0,1-.69,3.36,3.36,0,0,0,.69-1,3.05,3.05,0,0,0,0-2.42,3.36,3.36,0,0,0-.69-1,3.28,3.28,0,0,0-1-.69,3.35,3.35,0,0,0-2.54,0,3.28,3.28,0,0,0-1,.69,3,3,0,0,0-.69,1,3.05,3.05,0,0,0,0,2.42,3,3,0,0,0,.69,1,3.28,3.28,0,0,0,1,.69,3.35,3.35,0,0,0,2.54,0m5.48,1.21h.74v-9.26h-.74Zm.74,1.38-1.94.07-2.29.07L8.36,178l-1.88,0,.06.78,1.87,0,2.25,0,2.27-.07,1.93-.08Zm-.74,5.6h.74V178.3h-.74Zm4-13.4H14.86l-.38.36.38.42,3.22,0Zm0,3.6H14.86l-.38.36.38.42,3.22,0Zm-7.16-24.82h3.64V148H10.92Zm0-3.38h3.64v-.78H10.92ZM4.16,149.1H4.9v-5.56H4.16Zm5.8-5.68c-.92.05-1.88.09-2.89.1l-2.91,0,.06.76,2.86,0c1,0,1.95,0,2.88-.08Zm-.74,5.8H10v-5.28H9.22Zm.74-.42H4.16v.78H10Zm4.16,4.2h.74V141.14h-.74ZM16,155.44l-1.93.12q-1.12.06-2.34.09l-2.35,0q-1.14,0-2,0v.78c.55,0,1.2,0,2,0l2.35,0,2.35-.08c.76,0,1.41-.07,1.94-.11Zm-8.6.8H8.1V152H7.36ZM8.8,134.11a2.87,2.87,0,0,0,.93-.65,2.74,2.74,0,0,0,.57-.92,2.91,2.91,0,0,0,0-2.12,2.74,2.74,0,0,0-.57-.92,2.87,2.87,0,0,0-.93-.65,3,3,0,0,0-1.28-.25,3,3,0,0,0-1.28.25,2.87,2.87,0,0,0-.93.65,2.74,2.74,0,0,0-.57.92,2.91,2.91,0,0,0,0,2.12,2.74,2.74,0,0,0,.57.92,2.87,2.87,0,0,0,.93.65,3,3,0,0,0,1.28.25,3,3,0,0,0,1.28-.25m-2.28-.66a2,2,0,0,1-.69-.5,2.21,2.21,0,0,1-.41-.69,2.29,2.29,0,0,1-.14-.78,2.37,2.37,0,0,1,.14-.77,2.15,2.15,0,0,1,.41-.7,2,2,0,0,1,.69-.5,2.35,2.35,0,0,1,1-.19,2.4,2.4,0,0,1,1,.19,1.93,1.93,0,0,1,.7.5,2.15,2.15,0,0,1,.41.7,2.37,2.37,0,0,1,.14.77,2.29,2.29,0,0,1-.14.78,2.21,2.21,0,0,1-.41.69,1.93,1.93,0,0,1-.7.5,2.4,2.4,0,0,1-1,.19,2.35,2.35,0,0,1-1-.19m11.66-4.37H14.86l-.38.36.38.42,3.32,0Zm-6.82-2.88-1.79.08-2.3.08-2.3,0-1.79,0,.06.78H4.33l1.4,0,1.55,0,1.56,0,1.41,0,1.11,0ZM9.68,124c-.72-.23-1.41-.47-2.08-.73s-1.35-.54-2.06-.85l-.28.82c.68.29,1.37.56,2.06.81s1.38.48,2.06.71Zm4.44,13.84h.74V121.14h-.74ZM9.7,109.6l.28-4.46-.78,0L9,109.54Zm-3.54.3-.32-4.48-.8.06.4,4.48Zm6.08-.94c-1.49.2-3,.35-4.47.46s-3.07.18-4.75.22l.12.78c1.63,0,3.18-.14,4.67-.26s3-.27,4.55-.46Zm-1.1-5.74c-.47,0-1,.08-1.69.11l-2,.09-2,.06-1.69,0,.06.78,1.66,0,2-.06,2-.09,1.71-.09Zm7,3.66H14.86l-.38.36.38.42,3.32,0ZM14.12,113h.74V101.14h-.74ZM16,115.44l-1.93.12q-1.12.06-2.34.09l-2.35,0q-1.14,0-2,0v.78c.55,0,1.2,0,2,0l2.35,0,2.35-.08c.76,0,1.41-.07,1.94-.11Zm-8.6.8H8.1v-3.86H7.36ZM15,83.68l-2,.08-2.27.07-2.26,0h-2l.06.77,1.94,0,2.25,0L13,84.53l2-.07Zm1.1,6.06-4.5-3-.42.66,1.07.72,1.15.78,1.15.79,1.07.73Zm-10.2.88a9.7,9.7,0,0,0,3.69-2.38,8.26,8.26,0,0,0,1.93-3.94l-.74-.2A7.49,7.49,0,0,1,9,87.76a8.64,8.64,0,0,1-3.45,2.16ZM2.38,95.28l3.83,0,3.93-.08c1.31,0,2.61-.08,3.9-.13s2.54-.12,3.74-.2l0-.78c-1.21.08-2.47.15-3.77.2s-2.61.1-3.93.13l-3.95.08-3.85,0Zm8.24-.68h.74V90.54h-.74Z"/><path class="cls-3" d="M32.38,419.08l3.83,0,3.93-.08c1.31,0,2.61-.08,3.9-.13s2.54-.12,3.74-.2l0-.78c-1.21.08-2.47.15-3.77.2s-2.61.1-3.93.13l-4,.08-3.85,0Zm8.38-.68h.74v-3.14h-.74Zm4.6-4.64-1.91.12q-1.11.06-2.28.09l-2.28,0q-1.11,0-2,0v.78c.55,0,1.19,0,1.94,0l2.29,0,2.28-.08c.74,0,1.38-.07,1.91-.11Zm-8.42.6h.74v-3.3h-.74Zm8-3.9q-.8.06-1.86.09l-2.17.07-2.15,0-1.8,0v.78l1.78,0,2.15-.05,2.17-.07,1.88-.08Zm-.74.38h.74v-3.3h-.74Zm.74-3.64-1.92.07-2.24.07-2.22.05-1.86,0,.06.78,1.84,0,2.2-.05,2.23-.07,1.91-.08ZM38.5,391.52l1.62,0,1.67-.05,1.62-.06,1.47-.07v-.8l-1.47.08-1.62.07-1.67.05-1.62,0Zm6.84,2.16-1.9.12c-.73,0-1.49.07-2.27.09l-2.28,0q-1.11,0-2,0v.78c.55,0,1.19,0,1.93,0l2.28,0,2.28-.08c.74,0,1.38-.07,1.91-.11Zm-.24-6.46-1.79.08-2.3.06-2.3,0H36.94v.77H38.7l2.3,0,2.31-.05c.74,0,1.34,0,1.79-.07Zm-8.16,7.46.74-.2v-6.7h-.74Zm-4.56,4.42,3.83,0,3.93-.08c1.31,0,2.61-.08,3.9-.13s2.54-.12,3.74-.2l0-.78c-1.21.08-2.47.15-3.77.2s-2.61.1-3.93.13l-4,.08-3.85,0Zm1.9-27.4a3.13,3.13,0,0,0,.71,1,3.37,3.37,0,0,0,1,.69,3.18,3.18,0,0,0,2.52,0,3.5,3.5,0,0,0,1-.69,3.13,3.13,0,0,0,.71-1,3.09,3.09,0,0,0,0-2.48,3.13,3.13,0,0,0-.71-1,3.5,3.5,0,0,0-1-.69,3.18,3.18,0,0,0-2.52,0,3.37,3.37,0,0,0-1,.69,3.13,3.13,0,0,0-.71,1,3.09,3.09,0,0,0,0,2.48m.68-2.19a2.7,2.7,0,0,1,.54-.79,2.5,2.5,0,0,1,.81-.54,2.5,2.5,0,0,1,2,0,2.5,2.5,0,0,1,.81.54,2.7,2.7,0,0,1,.54.79,2.36,2.36,0,0,1,0,1.9,2.7,2.7,0,0,1-.54.79,2.5,2.5,0,0,1-.81.54,2.5,2.5,0,0,1-2,0,2.5,2.5,0,0,1-.81-.54,2.7,2.7,0,0,1-.54-.79,2.36,2.36,0,0,1,0-1.9m11,9.93-2,.12c-.77,0-1.56.07-2.38.09l-2.39,0c-.77,0-1.44,0-2,0v.78q.82,0,2,0l2.39,0,2.39-.08c.77,0,1.43-.07,2-.11Zm-8.72.8H38V376h-.74ZM44.12,377h.74V365.14h-.74ZM45,353.2h-9V354h9Zm-1.72.4.44-4.78-.78-.08-.42,4.78Zm-4.22-.1-.28-4.62-.8.06.34,4.6Zm6-6.46c-.35,0-.76,0-1.24.06l-1.53.06-1.68.06-1.69,0-1.55,0H36.18l.06.78h1.24L39,348,40.7,348l1.67-.05,1.53-.05c.48,0,.89,0,1.24-.07Zm-12.76,12.2,3.83,0,3.93-.08c1.31,0,2.61-.08,3.9-.13s2.54-.12,3.74-.2l0-.78c-1.21.08-2.47.15-3.77.2s-2.61.1-3.93.13l-4,.08-3.85,0Zm8.14-.68h.74v-3.82h-.74Zm2-33.14a3.31,3.31,0,0,0,1.12-.58,2.83,2.83,0,0,0,.74-.91,2.77,2.77,0,0,0-.74-3.39,3.14,3.14,0,0,0-1.12-.58,5,5,0,0,0-2.79,0,3.09,3.09,0,0,0-1.11.58,2.85,2.85,0,0,0-.74,3.39,2.83,2.83,0,0,0,.74.91,3.26,3.26,0,0,0,1.11.58,5,5,0,0,0,2.79,0m-3.39-1.08a2.1,2.1,0,0,1,0-3.3,3.82,3.82,0,0,1,4,0,2.1,2.1,0,0,1,0,3.3,3.82,3.82,0,0,1-4,0m-7.3,4.26,3.91,0,4.11-.08c1.37,0,2.73-.08,4.08-.13s2.62-.12,3.82-.2l0-.78c-1.21.08-2.5.15-3.85.2s-2.72.1-4.1.13l-4.13.08-3.94,0Zm13.9,4.94-2,.12c-.78,0-1.58.07-2.41.09l-2.42,0c-.79,0-1.46,0-2,0v.78c.55,0,1.21,0,2,0l2.43,0,2.42-.08c.78,0,1.44-.07,2-.11Zm-8.82,1h.74V330.2h-.74Zm-2.62-26.4a12.09,12.09,0,0,0,4-2.8,8.58,8.58,0,0,0,2.12-4l-.92.26A6.9,6.9,0,0,1,37.69,305a12,12,0,0,1-3.83,2.55Zm6.16-6.84-1.57.07-1.47.05-1.44,0H34.5l.06.78,2.63,0c.82,0,1.7,0,2.65-.08Zm-1.74,10.8,1.6,0L42,312l1.59-.06,1.46-.07v-.8c-.92.05-1.93.1-3,.14l-3.24.1Zm7.1,1.76L44,314c-.73,0-1.47.07-2.24.09l-2.25,0c-.73,0-1.38,0-1.94,0v.78q.82,0,1.92,0l2.25,0,2.25-.08c.73,0,1.37-.07,1.9-.11Zm-8.32.61h.74v-5.68l-.74-.2Zm7.7-6.13-1.84.08-2.06.08-2,.05-1.77,0,.06.78,1.76,0,2-.06,2-.07,1.83-.08Zm3-4.46H44.86l-.38.36.38.42,3.32,0Zm-4.06,3.28h.74v-8h-.74ZM43,284.28c-.91.15-1.78.28-2.62.4s-1.69.22-2.54.31-1.72.16-2.61.21l-2.79.14.16.78c1,0,1.9-.09,2.78-.15s1.74-.13,2.57-.22,1.67-.19,2.5-.3,1.7-.24,2.61-.39Zm-1.72-7.94c-1.11.07-2.26.12-3.47.16s-2.36.06-3.45.06l.06.78c1,0,2,0,3.1,0s2.12-.07,3.12-.14Zm-1.08,6.34c.27-1,.49-2,.67-3.07s.32-2.14.41-3.27l-.8.26c-.07.95-.19,1.92-.36,2.93a27.17,27.17,0,0,1-.66,2.93Zm-4,2.72h.74v-4.52H36.2Zm12-2.72H44.86l-.38.36.38.42,3.32,0Zm-4.06,7.12h.74V273.14h-.74Zm.84-36-1,.07-.95.05-1,0-1,0,.06.78q1.94-.06,3.9-.18ZM39.7,254c-.64,0-1.32,0-2,.05l-2,0,.06.78,1.73,0c.62,0,1.29,0,2-.05Zm-.82,4.52a12.54,12.54,0,0,0,.59-2.15A16.42,16.42,0,0,0,39.7,254l-.8.42a13.86,13.86,0,0,1-.21,2,10.27,10.27,0,0,1-.55,1.84Zm-7,2.16,3.91,0,4.11-.08c1.37,0,2.73-.08,4.08-.13s2.62-.12,3.82-.2l0-.78c-1.21.08-2.5.15-3.85.2s-2.72.1-4.1.13l-4.13.08-3.94,0ZM44.22,258H45v-4.06h-.74Zm-3.14,2.12h.74v-3.46h-.74ZM46,268.24l-2,.12c-.78,0-1.58.07-2.41.09l-2.42,0c-.79,0-1.46,0-2,0v.78c.55,0,1.21,0,2,0l2.43,0,2.42-.08c.78,0,1.44-.07,2-.11Zm-8.82.6h.74v-2.9h-.74Zm7.72-3.5c-.53,0-1.14.07-1.82.09L41,265.5l-2.06,0-1.76,0v.78l1.74,0,2.06-.05L43,266.2l1.84-.08Zm-.74.38h.74v-2.9h-.74Zm.74-3.24-1.88.07-2.16.07-2.13.05-1.81,0,.06.78,1.8,0,2.11,0,2.14-.07,1.87-.08ZM45,233.9l-1.9.08q-1.08,0-2.19.06l-2.16,0-1.83,0,.06.78,1.66,0,2,0,2,0q1,0,1.74-.06Zm-.68,4.62c.09-.41.18-.8.25-1.16s.14-.71.19-1.06.1-.71.14-1.1.07-.82.1-1.3l-.8.26c0,.39,0,.75-.08,1.08s-.06.66-.11,1-.11.65-.18,1-.16.7-.25,1.1ZM46,248.14l-2,.12c-.78,0-1.58.07-2.41.09l-2.42,0c-.79,0-1.46,0-2,0v.78c.55,0,1.21,0,2,0l2.43,0,2.42-.08c.78,0,1.44-.07,2-.11Zm-8.82.6h.74v-2.9h-.74Zm7.72-3.5c-.53,0-1.14.07-1.82.09L41,245.4l-2.06,0-1.76,0v.78l1.74,0,2.06-.05L43,246.1l1.84-.08Zm-.74.38h.74v-2.9h-.74Zm.74-3.24-1.88.07-2.16.07-2.13,0-1.81,0,.06.78,1.8,0,2.11-.05,2.14-.07,1.87-.08Zm-13-2.06,3.91,0,4.11-.08c1.37,0,2.73-.08,4.08-.13s2.62-.12,3.82-.2l0-.78c-1.21.08-2.5.15-3.85.2s-2.72.1-4.1.13l-4.13.08-3.94,0Zm7.48-23.94-.12-2.64-.78,0,.16,2.66Zm3.78-.12h.74v-2.68h-.74Zm-.58-3.47a3.64,3.64,0,0,0,1.1-.61,2.81,2.81,0,0,0,.71-.9,2.48,2.48,0,0,0,0-2.17,2.84,2.84,0,0,0-.71-.91,3.64,3.64,0,0,0-1.1-.61,4.23,4.23,0,0,0-2.75,0,3.71,3.71,0,0,0-1.09.61,2.84,2.84,0,0,0-.71.91,2.48,2.48,0,0,0,0,2.17,2.81,2.81,0,0,0,.71.9,3.71,3.71,0,0,0,1.09.61,4.23,4.23,0,0,0,2.75,0m-.27-4.54a2.45,2.45,0,0,1,.84.47,2.17,2.17,0,0,1,.55.67,1.7,1.7,0,0,1,0,1.6,2.17,2.17,0,0,1-.55.67,2.45,2.45,0,0,1-.84.47,3.64,3.64,0,0,1-2.2,0,2.45,2.45,0,0,1-.84-.47,2.17,2.17,0,0,1-.55-.67,1.7,1.7,0,0,1,0-1.6,2.17,2.17,0,0,1,.55-.67,2.45,2.45,0,0,1,.84-.47,3.64,3.64,0,0,1,2.2,0m.26,15a3.23,3.23,0,0,0,1-.58,2.57,2.57,0,0,0,.68-.86,2.46,2.46,0,0,0,0-2.12,2.57,2.57,0,0,0-.68-.86,3.23,3.23,0,0,0-1-.58,4,4,0,0,0-1.34-.21,4.07,4.07,0,0,0-1.35.21,3.13,3.13,0,0,0-1.05.58,2.67,2.67,0,0,0-.67.86,2.46,2.46,0,0,0,0,2.12,2.67,2.67,0,0,0,.67.86,3.13,3.13,0,0,0,1.05.58,4.07,4.07,0,0,0,1.35.21,4,4,0,0,0,1.34-.21m.53-3.92a1.79,1.79,0,0,1,0,2.84,3.35,3.35,0,0,1-3.74,0,1.79,1.79,0,0,1,0-2.84,3.35,3.35,0,0,1,3.74,0m-11.2-2.65,3.91,0,4.11-.08c1.37,0,2.73-.08,4.08-.13s2.62-.12,3.82-.2l0-.78c-1.21.08-2.5.15-3.85.2s-2.72.1-4.1.13l-4.13.08-3.94,0Zm8.66-25.82c-1.11.07-2.21.12-3.31.15s-2.17.06-3.21.07l.06.78c.93,0,1.9,0,2.9-.07l2.92-.11Zm-7,9.2a12.34,12.34,0,0,0,2.38-1.59A14.39,14.39,0,0,0,38,196.32a11.32,11.32,0,0,0,.84-1.25,15.69,15.69,0,0,0,.73-1.41,14.34,14.34,0,0,0,.57-1.44,12,12,0,0,0,.38-1.38l-.9.26a12.1,12.1,0,0,1-.78,2.37,10.92,10.92,0,0,1-1.46,2.41,13.32,13.32,0,0,1-2,2,12.34,12.34,0,0,1-2.26,1.48Zm10.58,3.76h.74V187.14h-.74Zm-6.14-27-1.7-2.46-.58.46q.49.68,1,1.35c.31.45.61.9.92,1.37Zm5.24,1.84-2.66-3.84-.58.48.65.91c.23.33.47.66.7,1s.46.67.67,1,.41.63.6.91Zm-5.76,1.24A14.27,14.27,0,0,0,38.59,178a16.82,16.82,0,0,0,.89-2.09,18.39,18.39,0,0,0,.62-2.2c.16-.75.28-1.48.36-2.2l-.78,0a19.05,19.05,0,0,1-.91,4.2,14.16,14.16,0,0,1-2,3.76Zm4.72-8.9-1.15.07-1,.05-1,0H37.88l.06.76h1.12l1,0,1,0,1.15-.07Zm-4.6,0-1.17.07-1,.05-1,0H33.18l.06.76h1.14l1,0,1,0,1.17-.07Zm-4.24,8.12a13.82,13.82,0,0,0,1.91-3.61,18.07,18.07,0,0,0,.87-4l-.78,0c-.08.69-.18,1.35-.31,2a13.27,13.27,0,0,1-.5,1.8,12.93,12.93,0,0,1-.76,1.71,15.33,15.33,0,0,1-1.07,1.7Zm10.78,4.68h.74V167.14h-.74Zm4.06-8.92H44.86l-.38.36.38.42,3.32,0Zm-15.8-13.8,3.83,0,3.93-.08c1.31,0,2.61-.08,3.9-.13s2.54-.12,3.74-.2l0-.78c-1.21.08-2.47.15-3.77.2s-2.61.1-3.93.13l-4,.08-3.85,0Zm8.38-.68h.74v-3.14h-.74Zm4.6-4.64-1.91.12q-1.11.06-2.28.09l-2.28,0q-1.11,0-2,0v.78c.55,0,1.19,0,1.94,0l2.29,0,2.28-.08c.74,0,1.38-.07,1.91-.11Zm-8.42.6h.74v-3.3h-.74Zm8-3.9q-.8.06-1.86.09l-2.17.07-2.15,0-1.8,0v.78l1.78,0,2.15-.05,2.17-.07,1.88-.08Zm-.74.38h.74v-3.3h-.74Zm.74-3.64-1.92.07-2.24.07-2.22,0-1.86,0,.06.78,1.84,0,2.2-.05,2.23-.07,1.91-.08Zm-4.36-18.36c-1.11.07-2.2.12-3.28.15s-2.14.06-3.18.07l.06.78c.93,0,1.89,0,2.87-.07l2.89-.11ZM33.64,140A12.34,12.34,0,0,0,36,138.45a14.39,14.39,0,0,0,2.08-2.13,10,10,0,0,0,.83-1.25,15.49,15.49,0,0,0,.71-1.41,14.14,14.14,0,0,0,.55-1.44c.15-.48.28-.94.37-1.38l-.9.26a13.33,13.33,0,0,1-.75,2.37,10.08,10.08,0,0,1-1.43,2.41,13.32,13.32,0,0,1-2,2,12.34,12.34,0,0,1-2.26,1.48Zm10.48,3.76h.74V127.14h-.74Zm4.06-8.7H44.86l-.38.35.38.41,3.32,0Zm-2.42-19.56-2,.12c-.78,0-1.58.07-2.41.09l-2.42,0c-.79,0-1.46,0-2,0v.78c.55,0,1.21,0,2,0l2.43,0,2.42-.08c.78,0,1.44-.07,2-.11Zm-8.82,1h.74v-3.7h-.74Zm8.42-9-1.88.12c-.72,0-1.46.07-2.23.09l-2.24,0c-.73,0-1.37,0-1.93,0v.78c.55,0,1.18,0,1.91,0l2.24,0,2.24-.08c.73,0,1.36-.07,1.89-.11Zm-8.28.6h.74v-2.82h-.74Zm7.84-3.42c-.53,0-1.15.07-1.84.09l-2.12.07-2.1,0-1.78,0v.78l1.76,0,2.1,0,2.12-.07,1.86-.08Zm-.74.38h.74v-2.82h-.74Zm.74-3.16L43,102l-2.2.07-2.17,0-1.83,0,.06.78,1.82,0,2.15,0L43,102.8l1.89-.08Zm-13.06,9.58,3.91,0,4.11-.08c1.37,0,2.73-.08,4.08-.13s2.62-.12,3.82-.2l0-.78c-1.21.08-2.5.15-3.85.2s-2.72.1-4.1.13l-4.13.08-3.94,0ZM40.24,85c-.91.07-1.88.11-2.92.15s-2,0-2.9,0V86h1.4l1.49,0,1.5,0,1.43-.07Zm1.54,6.34a15.91,15.91,0,0,1-3.45.92,22,22,0,0,1-3.87.24l0,.74a22.39,22.39,0,0,0,4-.28,18.92,18.92,0,0,0,3.6-.92Zm-7.36,1.88.74-.2V85.8h-.74ZM48.18,89H44.86l-.38.36.38.42,3.32,0ZM44.12,97.8h.74V81.14h-.74Z"/><path class="cls-3" d="M73.62,403.46a2,2,0,0,0,1.09,1.1,2.08,2.08,0,0,0,1.6,0,2,2,0,0,0,.65-.44,2.12,2.12,0,0,0,.44-.66,2.08,2.08,0,0,0,0-1.6,2.12,2.12,0,0,0-.44-.66,2,2,0,0,0-.65-.44,2.08,2.08,0,0,0-1.6,0,2.07,2.07,0,0,0-1.09,2.7m2.84.14a1.38,1.38,0,0,1-1.9,0,1.35,1.35,0,0,1,0-1.88,1.38,1.38,0,0,1,1.9,0,1.35,1.35,0,0,1,0,1.88M70.24,383c-.91.06-1.88.11-2.92.15s-2,0-2.9,0V384h1.4l1.49,0,1.5-.05,1.43-.07Zm1.54,6.34a15.91,15.91,0,0,1-3.45.92,22,22,0,0,1-3.87.24l0,.74a22.39,22.39,0,0,0,4-.28,18.92,18.92,0,0,0,3.6-.92Zm-7.36,1.88.74-.2V383.8h-.74ZM78.18,387H74.86l-.38.36.38.42,3.32,0Zm-4.06,8.82h.74V379.14h-.74ZM72,369.18a30.85,30.85,0,0,1-3.56.88,29.29,29.29,0,0,1-3.88.44l0,.74a29.22,29.22,0,0,0,4-.46c1.26-.24,2.48-.53,3.67-.88Zm-7.48,2,.74-.2v-8h-.74Zm9.64,4.58h.74V359.14h-.74ZM76,344.06l-4.16-2.16-.36.68,2,1.07,2.07,1.13Zm-9.68.8a8.35,8.35,0,0,0,3.57-2.1,7.5,7.5,0,0,0,1.91-3.56l-.72-.18a9.51,9.51,0,0,1-.7,1.85,5.77,5.77,0,0,1-1,1.43,6.68,6.68,0,0,1-1.45,1.08,11,11,0,0,1-1.91.82Zm8.5,10.4H67.44v-.78h7.42Zm0-3.28q-.73,0-1.71.06l-2,0-2,0H67.5v-.76h1.7l2,0,2-.06,1.7-.07Zm0,2.82h-.74v-5.64h.74Zm-7.42-5.34h.74v5.44h-.74ZM61.78,347l3.94,0,4.13-.08c1.38,0,2.75-.08,4.1-.13s2.64-.12,3.85-.2l0,.78c-1.2.08-2.47.15-3.82.2s-2.71.1-4.08.13l-4.11.08-3.91,0ZM74.56,322H71.3v.78h3.26Zm0,3.32H71.3v.78h3.26Zm-3.38,7.54-1.9-1.36-.4.6,1.74,1.26ZM65,334.84a7.38,7.38,0,0,0,2.74-2,7.26,7.26,0,0,0,1.52-3l-.76-.16a6.61,6.61,0,0,1-1.36,2.8,7,7,0,0,1-2.58,1.82Zm12.08-.36L74,332.18l-.46.64.76.57.72.54.73.56.79.63Zm-6.68.68a7.33,7.33,0,0,0,1.4-1,7.69,7.69,0,0,0,1.13-1.29,8.61,8.61,0,0,0,.83-1.48,7.61,7.61,0,0,0,.5-1.6l-.76-.16a7.33,7.33,0,0,1-1.18,2.86A7.18,7.18,0,0,1,70,334.56Zm.92-8.24c-1.11.2-2.21.35-3.32.45s-2.19.14-3.26.13v-3H64v3.78c.57,0,1.18,0,1.82,0s1.28-.06,1.93-.11,1.29-.11,1.92-.19,1.23-.17,1.79-.28Zm-1.42-3c-1.05.09-2.05.15-3,.18s-1.91,0-2.92.06v.78c1,0,2,0,2.92-.07s1.94-.08,3-.15Zm-.74.4h.74v-3.18h-.74Zm.74-3.52-1.58.07-1.5.06-1.47,0-1.51,0,.06.78c1,0,2,0,2.95-.06l3.05-.12Zm4.22,7.9h.74v-9.56h-.74ZM75,302l-1.93.08q-1.11,0-2.28.06l-2.29,0-2,0,.06.78,1.88,0,2.1,0,2,0c.66,0,1.24,0,1.75-.06Zm-1.24,8.82q.23-.94.42-2t.36-2.25c.11-.77.2-1.54.28-2.31s.14-1.51.18-2.22l-.8.26c0,.63-.07,1.3-.14,2s-.15,1.46-.26,2.2-.23,1.47-.36,2.18-.28,1.38-.44,2Zm-11.34,2.42,3.83,0,3.93-.08c1.31,0,2.61-.08,3.9-.13s2.54-.12,3.74-.2l0-.78c-1.21.08-2.47.15-3.77.2s-2.61.1-3.93.13l-3.95.08-3.85,0Zm1.12-27.9a9.44,9.44,0,0,0,1.92-1.81,12,12,0,0,0,1.41-2.23,13.34,13.34,0,0,0,.93-2.55,18.06,18.06,0,0,0,.48-2.79l-.76-.1a18.46,18.46,0,0,1-.45,2.71,12,12,0,0,1-.85,2.38,10.32,10.32,0,0,1-1.32,2.06A10,10,0,0,1,63,284.78Zm7.74-.3L68.34,281l-.64.5c.45.6.93,1.25,1.42,2s1,1.4,1.44,2.11Zm3-5.54H70.32v.78h3.92Zm-.12,10.26h.74V273.14h-.74ZM63.67,262.3a3.73,3.73,0,0,0,.73,1.18,3.39,3.39,0,0,0,1.08.79,3.29,3.29,0,0,0,2.7,0,3.28,3.28,0,0,0,1.08-.79A3.73,3.73,0,0,0,70,262.3a4.08,4.08,0,0,0,0-2.92,3.73,3.73,0,0,0-.73-1.18,3.28,3.28,0,0,0-1.08-.79,3.29,3.29,0,0,0-2.7,0,3.39,3.39,0,0,0-1.08.79,3.73,3.73,0,0,0-.73,1.18,4.08,4.08,0,0,0,0,2.92m.67-2.65a2.81,2.81,0,0,1,.56-.95,2.55,2.55,0,0,1,.86-.63,2.5,2.5,0,0,1,1.07-.23,2.45,2.45,0,0,1,1,.23,2.55,2.55,0,0,1,.86.63,3,3,0,0,1,.57.95,3.48,3.48,0,0,1,0,2.38,3,3,0,0,1-.57,1,2.55,2.55,0,0,1-.86.63,2.45,2.45,0,0,1-1,.23,2.5,2.5,0,0,1-1.07-.23,2.55,2.55,0,0,1-.86-.63,2.81,2.81,0,0,1-.56-1,3.64,3.64,0,0,1,0-2.38m10.22-1.45h-3.5V259h3.5Zm0,4.56h-3.5v.78h3.5Zm-.44,7h.74V253.14h-.74ZM75,233.54l-1.94.08-2.2.07-2.19,0c-.71,0-1.36,0-1.93,0l.06.77,1.91,0,2.18-.05,2.18-.06,1.93-.07Zm.66,4.14-4.2-1.6-.3.74,2.08.77c.65.25,1.36.52,2.12.83Zm-9.36.9a8.09,8.09,0,0,0,3.48-1.68,5.82,5.82,0,0,0,1.74-2.74l-.74-.2a4.51,4.51,0,0,1-1.57,2.52A7.82,7.82,0,0,1,66,237.9Zm4.46,4.68h.74V240.2h-.74Zm5.2,5-2,.12c-.78,0-1.58.07-2.41.09l-2.42,0c-.79,0-1.46,0-2,0v.78c.55,0,1.21,0,2,0l2.43,0,2.42-.08c.78,0,1.44-.07,2-.11Zm-8.82.6h.74v-2.76h-.74Zm7.72-3.36c-.53,0-1.14.07-1.82.09l-2.08.07-2.06,0-1.76,0v.78l1.74,0,2.06-.05,2.08-.07,1.84-.08Zm-.74.38h.74V243.1h-.74Zm.74-3.1-1.88.07-2.16.07-2.13,0-1.81,0,.06.78,1.8,0,2.11-.05,2.14-.07,1.87-.08Zm-13-2,3.91,0,4.11-.08c1.37,0,2.73-.08,4.08-.13s2.62-.12,3.82-.2l0-.78c-1.21.08-2.5.15-3.85.2s-2.72.1-4.1.13l-4.13.08-3.94,0Zm13.5-28.44-1.88.12c-.72,0-1.46.07-2.23.09l-2.24,0c-.73,0-1.37,0-1.93,0v.78c.55,0,1.18,0,1.91,0l2.24,0,2.24-.08c.73,0,1.36-.07,1.89-.11Zm-8.28.6h.74v-2.5h-.74Zm7.84-3.1c-.53,0-1.15.07-1.84.09L71,210l-2.1,0-1.78,0v.78l1.76,0,2.1-.05,2.12-.07,1.86-.08Zm-.74.38h.74v-2.5h-.74Zm.74-2.84-1.9.07-2.2.07-2.17.05-1.83,0,.06.78,1.82,0,2.15,0L73,208.2l1.89-.08Zm1,15-2,.12c-.78,0-1.58.07-2.41.09l-2.42,0c-.79,0-1.46,0-2,0v.78c.55,0,1.21,0,2,0l2.43,0,2.42-.08c.78,0,1.44-.07,2-.11Zm-8.82.6h.74v-2.5h-.74Zm7.72-3.1c-.53,0-1.14.07-1.82.09L71,220l-2.06,0-1.76,0v.78l1.74,0,2.06-.05,2.08-.07,1.84-.08Zm-.74.38h.74v-2.5h-.74Zm.74-2.84-1.88.07-2.16.07-2.13.05-1.81,0,.06.78,1.8,0,2.11,0L73,218.2l1.87-.08Zm-13-1.42,3.91,0,4.11-.08c1.37,0,2.73-.08,4.08-.13s2.62-.12,3.82-.2l0-.78c-1.21.08-2.5.15-3.85.2s-2.72.1-4.1.13l-4.13.08-3.94,0Zm8.66-25.08c-1.11.07-2.21.12-3.31.15s-2.17.06-3.21.07l.06.78c.93,0,1.9,0,2.9-.07l2.92-.11Zm-7,9.2a12.34,12.34,0,0,0,2.38-1.59A14.39,14.39,0,0,0,68,196.32a11.32,11.32,0,0,0,.84-1.25,15.69,15.69,0,0,0,.73-1.41,14.34,14.34,0,0,0,.57-1.44,12,12,0,0,0,.38-1.38l-.9.26a12.1,12.1,0,0,1-.78,2.37,10.92,10.92,0,0,1-1.46,2.41,13.32,13.32,0,0,1-2,2,12.34,12.34,0,0,1-2.26,1.48Zm10.58,3.76h.74V187.14h-.74ZM74.26,174c-.65.13-1.34.26-2.07.37s-1.46.21-2.21.3-1.49.16-2.23.23-1.45.11-2.13.14l.1.72c.67,0,1.37-.09,2.1-.16s1.47-.14,2.22-.22,1.48-.18,2.21-.28,1.41-.22,2-.34Zm.7-4.18-2,.08c-.78,0-1.59.05-2.42.06l-2.43,0-2,0,.06.78,2,0,2.24,0,2.18,0c.7,0,1.3,0,1.81-.07Zm-1.24,9c.16-.63.31-1.32.44-2.07s.25-1.53.36-2.32.2-1.59.27-2.38.13-1.54.17-2.25l-.8.26c0,.63-.07,1.31-.14,2.05s-.15,1.49-.25,2.25-.22,1.5-.35,2.23-.28,1.4-.44,2Zm-11.34,2.42,3.83,0,3.93-.08c1.31,0,2.61-.08,3.9-.13s2.54-.12,3.74-.2l0-.78c-1.21.08-2.47.15-3.77.2s-2.61.1-3.93.13l-3.95.08-3.85,0Zm2.47-33.21a3,3,0,0,0,.69,1,3.33,3.33,0,0,0,1,.69,3.4,3.4,0,0,0,2.56,0,3.21,3.21,0,0,0,1-.69,3.16,3.16,0,0,0,.69-1,3.25,3.25,0,0,0,0-2.5,3.16,3.16,0,0,0-.69-1,3.21,3.21,0,0,0-1-.69,3.4,3.4,0,0,0-2.56,0,3.33,3.33,0,0,0-1,.69,3,3,0,0,0-.69,1,3.25,3.25,0,0,0,0,2.5m.68-2.22a2.49,2.49,0,0,1,.53-.79,2.57,2.57,0,0,1,.8-.54,2.55,2.55,0,0,1,2,0,2.57,2.57,0,0,1,.8.54,2.67,2.67,0,0,1,.53.79,2.57,2.57,0,0,1,0,1.94,2.67,2.67,0,0,1-.53.79,2.57,2.57,0,0,1-.8.54,2.55,2.55,0,0,1-2,0,2.57,2.57,0,0,1-.8-.54,2.49,2.49,0,0,1-.53-.79,2.57,2.57,0,0,1,0-1.94m8.59,12h.74V141.14h-.74ZM73,152.36c-1,.17-1.93.32-2.78.43s-1.69.21-2.51.29-1.65.15-2.5.2-1.77.1-2.77.14l.16.78c1,0,1.9-.09,2.75-.16s1.68-.14,2.49-.23l2.48-.3,2.74-.39ZM63.82,133.7A14.59,14.59,0,0,0,67,130.08a15.82,15.82,0,0,0,1.8-4.52L68,125.5a18.23,18.23,0,0,1-.7,2.26,11.91,11.91,0,0,1-1,2A12.14,12.14,0,0,1,65,131.48a18.56,18.56,0,0,1-1.74,1.66Zm14.36-4.82H74.86l-.38.36.38.42,3.32,0Zm-5.86,3.88-3.86-3.64-.52.58.86.79,1,.94,1,1c.33.33.63.65.91.94Zm-.82-7.84-1.68.08-2.06.08-2.06,0-1.68,0,.06.78,1.65,0,2-.05,2-.07,1.68-.08Zm2.62,12.88h.74V121.14h-.74ZM75,101.9l-1.9.08q-1.08,0-2.19.06l-2.16,0-1.83,0,.06.78,1.66,0,2,0,2,0q1,0,1.74-.06Zm-.68,4.62c.09-.41.18-.8.25-1.16s.14-.71.19-1.06.1-.71.14-1.1.07-.82.1-1.3l-.8.26c0,.39,0,.75-.08,1.08s-.06.66-.11,1-.11.65-.18,1-.16.7-.25,1.1ZM76,116.14l-2,.12c-.78,0-1.58.07-2.41.09l-2.42,0c-.79,0-1.46,0-2,0v.78c.55,0,1.21,0,2,0l2.43,0,2.42-.08c.78,0,1.44-.07,2-.11Zm-8.82.6h.74v-2.9h-.74Zm7.72-3.5c-.53,0-1.14.07-1.82.09L71,113.4l-2.06,0-1.76,0v.78l1.74,0,2.06,0L73,114.1l1.84-.08Zm-.74.38h.74v-2.9h-.74Zm.74-3.24-1.88.07-2.16.07-2.13,0-1.81,0,.06.78,1.8,0,2.11,0,2.14-.07,1.87-.08Zm-13-2.06,3.91,0,4.11-.08c1.37,0,2.73-.08,4.08-.13s2.62-.12,3.82-.2l0-.78c-1.21.08-2.5.15-3.85.2s-2.72.1-4.1.13l-4.13.08-3.94,0Zm9.42-21.2q-.68.19-1.53.36c-.57.11-1.15.2-1.75.28s-1.19.14-1.77.19-1.11.07-1.59.07v.72c.49,0,1,0,1.63-.07s1.2-.11,1.82-.19,1.22-.17,1.81-.28S71,88,71.48,87.86ZM64.64,88.4h.74V83h-.74Zm4.1,5.8,1.6,0,1.63,0,1.59-.06L75,94v-.8c-.92,0-1.93.1-3,.14l-3.24.1Zm7.1,1.66L74,96c-.73,0-1.47.07-2.24.09l-2.25,0c-.73,0-1.38,0-1.94,0v.78q.83,0,1.92,0l2.25,0,2.25-.08c.73,0,1.37-.07,1.9-.11Zm-8.32.61h.74V91l-.74-.2Zm7.7-5.93-1.84.08-2.06.08-2,0-1.77,0,.06.78,1.76,0,2-.06,2-.07,1.83-.08Zm3-4.86H74.86l-.38.36.38.42,3.32,0Zm-4.06,3.68h.74V81.14h-.74Z"/><path class="cls-3" d="M104,415.3q.41.31.87.72c.31.27.62.54.93.83s.61.57.9.86l.78.79.78-.8-.84-.78c-.31-.28-.62-.56-.95-.84l-1-.82q-.49-.4-.93-.72Zm-11.58-8.22,3.83,0,3.93-.08c1.31,0,2.61-.08,3.9-.13s2.54-.12,3.74-.2l0-.78c-1.21.08-2.47.15-3.77.2s-2.61.1-3.93.13l-3.95.08-3.85,0Zm8.38-.68h.74v-3.14h-.74Zm4.6-4.64-1.91.12q-1.11.06-2.28.09l-2.28,0q-1.11,0-2,0v.78c.55,0,1.19,0,1.94,0l2.29,0,2.28-.08c.74,0,1.38-.07,1.91-.11Zm-8.42.6h.74v-3.3h-.74Zm8-3.9q-.8.06-1.86.09c-.71,0-1.43.05-2.17.06l-2.15.05-1.8,0v.78l1.78,0,2.15-.05,2.17-.07,1.88-.08Zm-.74.38h.74v-3.3h-.74Zm.74-3.64-1.92.07-2.24.07-2.22.05-1.86,0,.06.78,1.84,0,2.2-.05,2.23-.07,1.91-.08ZM92.38,387l3.83,0,3.93-.08c1.31,0,2.61-.08,3.9-.13s2.54-.12,3.74-.2l0-.78c-1.21.08-2.47.15-3.77.2s-2.61.1-3.93.13l-3.95.08-3.85,0Zm5.12-5.3h.74v-5.88H97.5Zm7.36-6c-.48,0-1,.05-1.69.07l-2,0-2,0H97.5l.06.76h1.67l2,0,2,0c.64,0,1.21,0,1.7-.06Zm-.74,6.14h.74V376.2h-.74Zm.74-.42H97.5v.78h7.36Zm-7.59-21.12a3.44,3.44,0,0,0,.81,1.14,3.79,3.79,0,0,0,1.22.75,4.33,4.33,0,0,0,3,0,3.83,3.83,0,0,0,1.23-.75,3.58,3.58,0,0,0,.81-1.14,3.43,3.43,0,0,0,.29-1.39,3.39,3.39,0,0,0-.29-1.39,3.58,3.58,0,0,0-.81-1.14,3.83,3.83,0,0,0-1.23-.75,4.33,4.33,0,0,0-3,0,3.79,3.79,0,0,0-1.22.75,3.44,3.44,0,0,0-.81,1.14,3.39,3.39,0,0,0-.29,1.39,3.43,3.43,0,0,0,.29,1.39m.69-2.49a2.76,2.76,0,0,1,.65-.87,2.72,2.72,0,0,1,1-.59,3.71,3.71,0,0,1,2.46,0,2.81,2.81,0,0,1,1,.59,2.92,2.92,0,0,1,.65.87,2.64,2.64,0,0,1,0,2.2,2.92,2.92,0,0,1-.65.87,3,3,0,0,1-1,.59,3.71,3.71,0,0,1-2.46,0,2.87,2.87,0,0,1-1-.59A2.76,2.76,0,0,1,98,360a2.64,2.64,0,0,1,0-2.2m-5.58,9.49,3.83,0,3.93-.08c1.31,0,2.61-.08,3.9-.13s2.54-.12,3.74-.2l0-.78c-1.21.08-2.47.15-3.77.2s-2.61.1-3.93.13l-3.95.08-3.85,0Zm4.26-23a16,16,0,0,0,.57-2,17.74,17.74,0,0,0,.29-2.05l-.8.1a13.3,13.3,0,0,1-.26,1.85,12.63,12.63,0,0,1-.56,1.81Zm.4-6.14a2.1,2.1,0,0,1-.7-.4,1.91,1.91,0,0,1-.48-.61,1.59,1.59,0,0,1-.18-.74,1.63,1.63,0,0,1,.18-.75,1.84,1.84,0,0,1,.48-.59,2.29,2.29,0,0,1,.7-.4,2.43,2.43,0,0,1,1.68,0,2.29,2.29,0,0,1,.7.4,1.84,1.84,0,0,1,.48.59,1.63,1.63,0,0,1,.18.75,1.59,1.59,0,0,1-.18.74,1.91,1.91,0,0,1-.48.61,2.1,2.1,0,0,1-.7.4,2.59,2.59,0,0,1-1.68,0M96.77,334a2.92,2.92,0,0,0-.92.55,2.66,2.66,0,0,0-.62.83,2.33,2.33,0,0,0-.23,1,2.36,2.36,0,0,0,.23,1,2.66,2.66,0,0,0,.62.83,3.12,3.12,0,0,0,.92.55,3.18,3.18,0,0,0,2.22,0,3.12,3.12,0,0,0,.92-.55,2.66,2.66,0,0,0,.62-.83,2.36,2.36,0,0,0,.23-1,2.33,2.33,0,0,0-.23-1,2.66,2.66,0,0,0-.62-.83A2.92,2.92,0,0,0,99,334a3.18,3.18,0,0,0-2.22,0m7.87,7.58H100.4v.78h4.24Zm-2.5-2.06q-1,.16-2.22.3c-.84.09-1.71.17-2.6.24s-1.77.12-2.63.16-1.63.06-2.31.06l.06.78c.67,0,1.43,0,2.29-.06s1.74-.09,2.63-.16,1.76-.15,2.61-.24,1.59-.19,2.23-.3Zm2,3.7h.74v-10h-.74ZM101,347l-2-1.36-.4.6,1.86,1.28Zm-6.3,1.84a7.08,7.08,0,0,0,2.77-1.91,6.87,6.87,0,0,0,1.41-3l-.76-.16a8.06,8.06,0,0,1-.5,1.57,4.56,4.56,0,0,1-.76,1.19,5,5,0,0,1-1.1.93,10.45,10.45,0,0,1-1.5.77Zm12.34-.38-3.2-2.26-.44.64.83.58c.25.17.48.35.71.52l.72.54.86.64Zm-7.06.7a7,7,0,0,0,2.59-2.08,7.4,7.4,0,0,0,1.27-3l-.76-.16a8.44,8.44,0,0,1-.43,1.51,5.55,5.55,0,0,1-.68,1.22,5.08,5.08,0,0,1-1,1,8.21,8.21,0,0,1-1.42.86Zm-7.64-22.08,3.83,0,3.93-.08c1.31,0,2.61-.08,3.9-.13s2.54-.12,3.74-.2l0-.78c-1.21.08-2.47.15-3.77.2s-2.61.1-3.93.13l-3.95.08-3.85,0Zm8.38-.68h.74v-3.14h-.74Zm4.6-4.64-1.91.12q-1.11.06-2.28.09l-2.28,0q-1.11,0-2,0v.78c.55,0,1.19,0,1.94,0l2.29,0,2.28-.08c.74,0,1.38-.07,1.91-.11Zm-8.42.6h.74v-3.3h-.74Zm8-3.9q-.8.06-1.86.09c-.71,0-1.43.05-2.17.06l-2.15.05-1.8,0v.78l1.78,0,2.15-.05,2.17-.07,1.88-.08Zm-.74.38h.74v-3.3h-.74Zm.74-3.64-1.92.07-2.24.07-2.22.05-1.86,0,.06.78,1.84,0,2.2-.05,2.23-.07,1.91-.08Zm-7.2-8.56h.74v-2.1h-.74Zm3.84-9.36-1.72.08-2.17.07-2.17,0c-.69,0-1.27,0-1.72,0l.06.77,1.69,0,2.14-.05,2.16-.06c.7,0,1.28,0,1.73-.07Zm-1.28-1.6c-.72-.23-1.41-.47-2.08-.73s-1.35-.54-2.06-.85l-.28.82c.68.29,1.37.56,2.06.81s1.38.48,2.06.71Zm7.9,5.4h-3.32l-.38.36.38.42,3.32,0Zm-4.06,8.72h.74V293.14h-.74Zm-8.75-7.22a2.26,2.26,0,0,0,.52.79,2.8,2.8,0,0,0,.86.57,3.22,3.22,0,0,0,2.34,0,2.8,2.8,0,0,0,.86-.57,2.26,2.26,0,0,0,.52-.79,2.36,2.36,0,0,0,0-1.76A2.26,2.26,0,0,0,100,300a2.8,2.8,0,0,0-.86-.57,3.22,3.22,0,0,0-2.34,0,2.8,2.8,0,0,0-.86.57,2.26,2.26,0,0,0-.52.79,2.36,2.36,0,0,0,0,1.76m.69-1.47a1.68,1.68,0,0,1,.36-.56,1.84,1.84,0,0,1,.61-.42,2.41,2.41,0,0,1,1.78,0,1.84,1.84,0,0,1,.61.42,1.68,1.68,0,0,1,.36.56,1.51,1.51,0,0,1,0,1.18,1.72,1.72,0,0,1-.36.57,1.84,1.84,0,0,1-.61.42,2.56,2.56,0,0,1-1.78,0,1.84,1.84,0,0,1-.61-.42,1.72,1.72,0,0,1-.36-.57,1.51,1.51,0,0,1,0-1.18m6.9,4.47c-1,.17-1.93.32-2.78.43s-1.69.21-2.51.29-1.65.15-2.5.2-1.77.1-2.77.14l.16.78c1,0,1.9-.09,2.75-.15s1.68-.14,2.49-.23,1.64-.19,2.48-.31l2.74-.39Zm2-29.9-2,.08-2.27.07-2.26,0c-.73,0-1.39,0-2,0l.06.77,1.94,0,2.25-.05,2.25-.06,2-.07Zm1.1,6.06-4.5-3-.42.66,1.07.72,1.15.78,1.15.79,1.07.73Zm-10.2.88a9.7,9.7,0,0,0,3.69-2.38,8.26,8.26,0,0,0,1.93-3.94l-.74-.2A7.49,7.49,0,0,1,99,279.76a8.64,8.64,0,0,1-3.45,2.16Zm-3.52,4.66,3.83,0,3.93-.08c1.31,0,2.61-.08,3.9-.13s2.54-.12,3.74-.2l0-.78c-1.21.08-2.47.15-3.77.2s-2.61.1-3.93.13l-3.95.08-3.85,0Zm8.24-.68h.74v-4.06h-.74Zm-.06-35.76c-1.11.07-2.2.12-3.28.15s-2.14.06-3.18.07l.06.78c.93,0,1.89,0,2.87-.07l2.89-.11ZM93.64,260A12.34,12.34,0,0,0,96,258.45a14.39,14.39,0,0,0,2.08-2.13,10,10,0,0,0,.83-1.25,15.49,15.49,0,0,0,.71-1.41,14.14,14.14,0,0,0,.55-1.44c.15-.48.28-.94.37-1.38l-.9.26a13.33,13.33,0,0,1-.75,2.37,10.08,10.08,0,0,1-1.43,2.41,13.32,13.32,0,0,1-2,2,12.34,12.34,0,0,1-2.26,1.48Zm10.48,3.76h.74V247.14h-.74Zm4.06-8.7h-3.32l-.38.35.38.41,3.32,0Zm-9.73-16.87a3.32,3.32,0,0,0,1.09-.79,3.46,3.46,0,0,0,.71-1.17,4.21,4.21,0,0,0,0-2.86,3.46,3.46,0,0,0-.71-1.17,3.32,3.32,0,0,0-1.09-.79,3.62,3.62,0,0,0-2.84,0,3.43,3.43,0,0,0-1.8,2,4.21,4.21,0,0,0,0,2.86,3.43,3.43,0,0,0,1.8,2,3.62,3.62,0,0,0,2.84,0m-.3-6.12a2.5,2.5,0,0,1,.87.63,2.84,2.84,0,0,1,.55.94,3.64,3.64,0,0,1,0,2.32,2.84,2.84,0,0,1-.55.94,2.5,2.5,0,0,1-.87.63,2.7,2.7,0,0,1-1.12.23,2.67,2.67,0,0,1-1.12-.23,2.5,2.5,0,0,1-.87-.63,2.84,2.84,0,0,1-.55-.94,3.64,3.64,0,0,1,0-2.32,2.84,2.84,0,0,1,.55-.94,2.5,2.5,0,0,1,.87-.63,2.67,2.67,0,0,1,1.12-.23,2.7,2.7,0,0,1,1.12.23m6,11.69h.74V227.14h-.74ZM93.5,219.3a10.45,10.45,0,0,0,3.35-3.94,15.28,15.28,0,0,0,1.45-5.28l-.76-.1a14.62,14.62,0,0,1-1.33,5A10,10,0,0,1,93,218.7Zm14.68-4.62h-3.32l-.38.36.38.42,3.32,0Zm-6.6,4-3.34-4-.6.54c.51.59,1,1.23,1.64,1.93s1.13,1.39,1.64,2.07Zm2.54,5.16h.74V207.14h-.74Zm-10.3-24.1A14.59,14.59,0,0,0,97,196.08a15.82,15.82,0,0,0,1.8-4.52L98,191.5a18.23,18.23,0,0,1-.7,2.26,11.91,11.91,0,0,1-1,2A12.14,12.14,0,0,1,95,197.48a18.56,18.56,0,0,1-1.74,1.66Zm14.36-4.82h-3.32l-.38.36.38.42,3.32,0Zm-5.86,3.88-3.86-3.64-.52.58.86.79,1,.94,1,1c.33.33.63.65.91.94Zm-.82-7.84-1.68.08-2.06.08-2.06,0-1.68,0,.06.78,1.65,0,2-.05,2-.07,1.68-.08Zm2.62,12.88h.74V187.14h-.74Zm.84-35.9-1.9.08q-1.08,0-2.19.06l-2.16,0-1.83,0,.06.78,1.66,0,2,0,2,0q1,0,1.74-.06Zm-.68,4.62c.09-.41.18-.8.25-1.16s.14-.71.19-1.06.1-.71.14-1.1.07-.82.1-1.3l-.8.26c0,.39,0,.75-.08,1.08s-.06.66-.11,1-.11.65-.18,1-.16.7-.25,1.1Zm1.68,9.62-2,.12c-.78,0-1.58.07-2.41.09l-2.42,0c-.79,0-1.46,0-2,0v.78c.55,0,1.21,0,2,0l2.43,0,2.42-.08c.78,0,1.44-.07,2-.11Zm-8.82.6h.74v-2.9h-.74Zm7.72-3.5c-.53,0-1.14.07-1.82.09l-2.08.07-2.06,0-1.76,0v.78l1.74,0,2.06-.05,2.08-.07,1.84-.08Zm-.74.38h.74v-2.9h-.74Zm.74-3.24-1.88.07-2.16.07-2.13,0-1.81,0,.06.78,1.8,0,2.11-.05,2.14-.07,1.87-.08Zm-13-2.06,3.91,0,4.11-.08c1.37,0,2.73-.08,4.08-.13s2.62-.12,3.82-.2l0-.78c-1.21.08-2.5.15-3.85.2s-2.72.1-4.1.13l-4.13.08-3.94,0Zm16.22-23.48h-3.22l-.38.36.38.42,3.22,0Zm0-4.3h-3.22l-.38.36.38.42,3.22,0Zm-9.58,5.68a3.32,3.32,0,0,0,1.07-.78,3.61,3.61,0,0,0,.7-1.17,4.21,4.21,0,0,0,0-2.86,3.56,3.56,0,0,0-.7-1.16,3.32,3.32,0,0,0-1.07-.78,3.57,3.57,0,0,0-2.82,0,3.21,3.21,0,0,0-1.07.78,3.4,3.4,0,0,0-.7,1.16,4.21,4.21,0,0,0,0,2.86,3.44,3.44,0,0,0,.7,1.17,3.21,3.21,0,0,0,1.07.78,3.69,3.69,0,0,0,2.82,0m-.29-6.09a2.33,2.33,0,0,1,.85.63,3.26,3.26,0,0,1,.53.93,3.58,3.58,0,0,1,0,2.3,3.26,3.26,0,0,1-.53.93,2.33,2.33,0,0,1-.85.63,2.7,2.7,0,0,1-1.12.23,2.67,2.67,0,0,1-1.12-.23,2.33,2.33,0,0,1-.85-.63,3,3,0,0,1-.53-.93,3.58,3.58,0,0,1,0-2.3,3,3,0,0,1,.53-.93,2.33,2.33,0,0,1,.85-.63,2.67,2.67,0,0,1,1.12-.23,2.7,2.7,0,0,1,1.12.23m5.91,11.67h.74V141.14h-.74Zm.12-27.5h-3.36v.78h3.36Zm-11,3.58a13.65,13.65,0,0,0,3.24-3.79,17.78,17.78,0,0,0,1.84-4.71l-.8-.06a18.52,18.52,0,0,1-.72,2.38,13.29,13.29,0,0,1-1,2.08,12.68,12.68,0,0,1-1.35,1.85,15.11,15.11,0,0,1-1.77,1.69Zm11-7.18h-3.36v.78h3.36Zm-3.1,6.58-3.18-4-.62.54.72.9.81,1c.27.35.55.7.82,1.06l.77,1Zm-.26-8.54-1.66.08-2,.08-2,0-1.66,0,.06.78,1.63,0,2,0,2-.07,1.66-.08Zm3.24,13.06h.74V121.14h-.74Zm4.06-29.12h-3.32l-.38.36.38.42,3.32,0Zm-9.68,3.55a3.35,3.35,0,0,0,1.07-.79,3.61,3.61,0,0,0,.7-1.17,4.21,4.21,0,0,0,0-2.86,3.61,3.61,0,0,0-.7-1.17,3.35,3.35,0,0,0-1.07-.79,3.57,3.57,0,0,0-2.82,0,3.24,3.24,0,0,0-1.07.79,3.44,3.44,0,0,0-.7,1.17,4.21,4.21,0,0,0,0,2.86,3.44,3.44,0,0,0,.7,1.17,3.24,3.24,0,0,0,1.07.79,3.57,3.57,0,0,0,2.82,0m-.29-6.12a2.33,2.33,0,0,1,.85.63,3.19,3.19,0,0,1,.53.94,3.64,3.64,0,0,1,0,2.32,3.19,3.19,0,0,1-.53.94,2.33,2.33,0,0,1-.85.63,2.7,2.7,0,0,1-1.12.23,2.67,2.67,0,0,1-1.12-.23,2.33,2.33,0,0,1-.85-.63,3,3,0,0,1-.53-.94,3.64,3.64,0,0,1,0-2.32,3,3,0,0,1,.53-.94,2.33,2.33,0,0,1,.85-.63,2.67,2.67,0,0,1,1.12-.23,2.7,2.7,0,0,1,1.12.23m5.91,11.69h.74V101.14h-.74ZM102,89.64l-3.48-2.88-.48.62c.57.47,1.13.93,1.67,1.4s1.11,1,1.71,1.52Zm-.66-6.32-1.62.08-1.93.09-1.92.05-1.61,0,.06.78,1.58,0,1.9-.06,1.92-.08,1.62-.08Zm-7.3,7.8A9.87,9.87,0,0,0,97,88.07a11.83,11.83,0,0,0,1.47-4.13l-.82-.06a12.87,12.87,0,0,1-.53,2.1,8.7,8.7,0,0,1-.82,1.74,7.91,7.91,0,0,1-1.18,1.48,13.58,13.58,0,0,1-1.59,1.32Zm10.06,0h.74v-10h-.74Zm.74,1.3-2,.07-2.35.07-2.32,0-1.9,0,.06.78,1.89,0,2.3,0,2.33-.07,2-.08Zm-.74,5.18h.74V92.92h-.74Zm4.06-11h-3.32l-.38.35.38.41,3.32,0Z"/><path class="cls-3" d="M130.56,362.84c-1.11.07-2.2.12-3.28.15s-2.14.06-3.18.07l.06.78c.93,0,1.89,0,2.87-.07l2.89-.11Zm-6.92,9.2a12.34,12.34,0,0,0,2.38-1.59,14.39,14.39,0,0,0,2.08-2.13,10,10,0,0,0,.83-1.25,15.49,15.49,0,0,0,.71-1.41,14.14,14.14,0,0,0,.55-1.44c.15-.48.28-.94.37-1.38l-.9.26a13.33,13.33,0,0,1-.75,2.37,10.08,10.08,0,0,1-1.43,2.41,13.32,13.32,0,0,1-2,2,12.34,12.34,0,0,1-2.26,1.48Zm10.48,3.76h.74V359.14h-.74Zm4.06-8.7h-3.32l-.38.35.38.41,3.32,0Zm-14.36-15.4a14.59,14.59,0,0,0,3.16-3.62,15.82,15.82,0,0,0,1.8-4.52l-.78-.06a18.23,18.23,0,0,1-.7,2.26,11.91,11.91,0,0,1-1,2,12.14,12.14,0,0,1-1.33,1.76,18.56,18.56,0,0,1-1.74,1.66Zm14.36-4.82h-3.32l-.38.36.38.42,3.32,0Zm-5.86,3.88-3.86-3.64-.52.58.86.79,1,.94,1,1c.33.33.63.65.91.94Zm-.82-7.84-1.68.08-2.06.08-2.06,0-1.68,0,.06.78,1.65,0,2,0,2-.07,1.68-.08Zm2.62,12.88h.74V339.14h-.74Zm.84-35.9-1.9.08q-1.08,0-2.19.06l-2.16,0-1.83,0,.06.78,1.66,0,2,0,2,0q1,0,1.74-.06Zm-.68,4.62c.09-.41.18-.8.25-1.16s.14-.71.19-1.06.1-.71.14-1.1.07-.82.1-1.3l-.8.26c0,.39,0,.75-.08,1.08s-.06.66-.11,1-.11.65-.18,1-.16.7-.25,1.1Zm1.68,9.62-2,.12c-.78,0-1.58.07-2.41.09l-2.42,0c-.79,0-1.46,0-2,0v.78c.55,0,1.21,0,2,0l2.43,0,2.42-.08c.78,0,1.44-.07,2-.11Zm-8.82.6h.74v-2.9h-.74Zm7.72-3.5c-.53,0-1.14.07-1.82.09l-2.08.07-2.06,0-1.76,0v.78l1.74,0,2.06-.05,2.08-.07,1.84-.08Zm-.74.38h.74v-2.9h-.74Zm.74-3.24-1.88.07-2.16.07-2.13.05-1.81,0,.06.78,1.8,0,2.11-.05,2.14-.07,1.87-.08Zm-13-2.06,3.91,0,4.11-.08c1.37,0,2.73-.08,4.08-.13s2.62-.12,3.82-.2l0-.78c-1.21.08-2.5.15-3.85.2s-2.72.1-4.1.13l-4.13.08-3.94,0Zm9.06-25.56h3.64V300h-3.64Zm0-3.38h3.64v-.78h-3.64Zm-6.76,3.72h.74v-5.56h-.74Zm5.8-5.68c-.92.05-1.88.09-2.89.1l-2.91,0,.06.76,2.86,0c1,0,2,0,2.88-.08Zm-.74,5.8H130v-5.28h-.74Zm.74-.42h-5.8v.78H130Zm4.16,4.2h.74V293.14h-.74Zm1.84,2.44-1.93.12q-1.12.06-2.34.09l-2.35,0q-1.14,0-2,0v.78c.55,0,1.2,0,2,0l2.35,0,2.35-.08c.76,0,1.41-.07,1.94-.11Zm-8.6.8h.74V304h-.74Zm1.44-22.13a2.87,2.87,0,0,0,.93-.65,2.74,2.74,0,0,0,.57-.92,2.91,2.91,0,0,0,0-2.12,2.74,2.74,0,0,0-.57-.92,2.87,2.87,0,0,0-.93-.65,3.4,3.4,0,0,0-2.56,0,2.87,2.87,0,0,0-.93.65,2.74,2.74,0,0,0-.57.92,2.91,2.91,0,0,0,0,2.12,2.74,2.74,0,0,0,.57.92,2.87,2.87,0,0,0,.93.65,3.4,3.4,0,0,0,2.56,0m-2.28-.66a2,2,0,0,1-.69-.5,2.21,2.21,0,0,1-.41-.69,2.29,2.29,0,0,1-.14-.78,2.37,2.37,0,0,1,.14-.77,2.15,2.15,0,0,1,.41-.7,2,2,0,0,1,.69-.5,2.35,2.35,0,0,1,1-.19,2.4,2.4,0,0,1,1,.19,1.93,1.93,0,0,1,.7.5,2.15,2.15,0,0,1,.41.7,2.37,2.37,0,0,1,.14.77,2.29,2.29,0,0,1-.14.78,2.21,2.21,0,0,1-.41.69,1.93,1.93,0,0,1-.7.5,2.4,2.4,0,0,1-1,.19,2.35,2.35,0,0,1-1-.19m11.66-4.37h-3.32l-.38.36.38.42,3.32,0Zm-6.82-2.88-1.79.08-2.3.08-2.3,0-1.79,0,.06.78h1.09l1.4,0,1.55,0,1.56,0,1.41-.05,1.11,0ZM129.68,276c-.72-.23-1.41-.47-2.08-.73s-1.35-.54-2.06-.85l-.28.82c.68.29,1.37.56,2.06.81s1.38.48,2.06.71Zm4.44,13.84h.74V273.14h-.74Zm.84-34-2,.08q-1.19,0-2.43.06l-2.4,0-1.94,0,.06.78,1.77,0,2.22,0,2.24,0c.73,0,1.34,0,1.85-.06Zm-.7,6.92c.19-1.15.34-2.28.46-3.4s.2-2.29.24-3.52l-.8.26c0,1-.08,2.11-.19,3.2s-.26,2.19-.45,3.3Zm-6.24,4-.14-5.44-.76,0,.16,5.44Zm3-.12h.74v-5.5h-.74Zm-8.68.76,3.83,0,3.93-.08c1.31,0,2.61-.08,3.9-.13s2.54-.12,3.74-.2l0-.78c-1.21.08-2.47.15-3.77.2s-2.61.1-3.93.13l-3.95.08-3.85,0Zm8.1-23.3h-6.32v.78h6.32Zm0-4.32-3.13.13c-1.1,0-2.14.05-3.13.05v.76h1.51l1.6,0,1.61-.05c.53,0,1.05,0,1.54-.06Zm0-3.58h-.74v8.26h.74Zm-6.32,8.32h.74v-8h-.74Zm10,5.3h.74V233.14h-.74Zm-9.21-35.69a3.14,3.14,0,0,0,.69,1,3.31,3.31,0,0,0,5.35-1,3.15,3.15,0,0,0,0-2.46,3.21,3.21,0,0,0-1.72-1.68,3.35,3.35,0,0,0-3.63.68,3.14,3.14,0,0,0-.69,1,3.15,3.15,0,0,0,0,2.46m.68-2.18a2.34,2.34,0,0,1,1.32-1.3,2.83,2.83,0,0,1,2,0,2.34,2.34,0,0,1,1.32,1.3,2.47,2.47,0,0,1,0,1.9,2.34,2.34,0,0,1-1.32,1.3,2.83,2.83,0,0,1-2,0,2.34,2.34,0,0,1-1.32-1.3,2.47,2.47,0,0,1,0-1.9m2.09,7.47h.74v-2.78h-.74Zm6.44,4.4h.74V207.14h-.74ZM133,218.3c-1,.16-1.93.3-2.78.41s-1.69.21-2.51.29-1.65.15-2.5.2-1.77.1-2.77.14l.16.78c1,0,1.9-.09,2.75-.15s1.68-.13,2.49-.22l2.48-.3,2.74-.39Zm5.22-3h-3.32l-.38.36.38.42,3.32,0ZM127.78,192a3.08,3.08,0,0,0,.78,1,3.58,3.58,0,0,0,1.19.64,5,5,0,0,0,2.92,0,3.58,3.58,0,0,0,1.19-.64,3.08,3.08,0,0,0,.78-1,3.16,3.16,0,0,0,0-2.6,3.08,3.08,0,0,0-.78-1,3.58,3.58,0,0,0-1.19-.64,5,5,0,0,0-2.92,0,3.58,3.58,0,0,0-1.19.64,3.08,3.08,0,0,0-.78,1,3.16,3.16,0,0,0,0,2.6m5.55.46a3.88,3.88,0,0,1-4.24,0,2.25,2.25,0,0,1,0-3.52,3.88,3.88,0,0,1,4.24,0,2.25,2.25,0,0,1,0,3.52m-11.47,4.35,3.91,0,4.11-.08c1.37,0,2.73-.08,4.08-.13s2.62-.12,3.82-.2l0-.78c-1.21.08-2.5.15-3.85.2s-2.72.1-4.1.13l-4.13.08-3.94,0Zm9.06,6.62h.74V196h-.74Zm-.2-28.52h3.84v-.78h-3.84Zm2.3,8.17a3.27,3.27,0,0,0,1-.62,3,3,0,0,0,.69-.92,2.77,2.77,0,0,0,0-2.3,3,3,0,0,0-.69-.92,3.27,3.27,0,0,0-1-.62,3.63,3.63,0,0,0-1.28-.23,3.57,3.57,0,0,0-1.29.23,3.33,3.33,0,0,0-1,.62,3,3,0,0,0-.69.92,2.77,2.77,0,0,0,0,2.3,3,3,0,0,0,.69.92,3.33,3.33,0,0,0,1,.62,3.57,3.57,0,0,0,1.29.23,3.63,3.63,0,0,0,1.28-.23m-.29-4.72a2.35,2.35,0,0,1,.8.47,2.24,2.24,0,0,1,.52.7,2,2,0,0,1,0,1.72,2.24,2.24,0,0,1-.52.7,2.35,2.35,0,0,1-.8.47,3,3,0,0,1-2,0,2.35,2.35,0,0,1-.8-.47,2.24,2.24,0,0,1-.52-.7,2,2,0,0,1,0-1.72,2.24,2.24,0,0,1,.52-.7,2.35,2.35,0,0,1,.8-.47,3,3,0,0,1,2,0m-2-6.75h3.84v-.78h-3.84Zm-6.8,5.86a13,13,0,0,0,2.19-1.53,13.68,13.68,0,0,0,1.82-1.91,13.35,13.35,0,0,0,1.39-2.2,11,11,0,0,0,.88-2.4l-.92.26a10.39,10.39,0,0,1-2,4,12.83,12.83,0,0,1-3.85,3.19Zm6.28-8-1.56.07-1.44.05-1.41,0H124.3l.06.78h1.33l1.26,0,1.27,0c.43,0,.87,0,1.34-.05Zm3.92,7.3h.74v-9.56h-.74Zm-12.26-26.36,3.91,0,4.11-.08c1.37,0,2.73-.08,4.08-.13s2.62-.12,3.82-.2l0-.78c-1.21.08-2.5.15-3.85.2s-2.72.1-4.1.13l-4.13.08-3.94,0Zm13.9,5.16-2,.12c-.78,0-1.58.07-2.41.09l-2.42,0c-.79,0-1.46,0-2,0v.78c.55,0,1.21,0,2,0l2.43,0,2.42-.08c.78,0,1.44-.07,2-.11Zm-.2-9.84-1.94.12q-1.14.06-2.34.09l-2.35,0c-.77,0-1.43,0-2,0v.78c.55,0,1.2,0,2,0l2.36,0,2.35-.08c.76,0,1.41-.07,1.94-.11Zm-8.62,1h.74v-4.84h-.74Zm0,9.84h.74v-4.34h-.74Zm1.86-22.39a2.87,2.87,0,0,0,.93-.65,2.74,2.74,0,0,0,.57-.92,2.91,2.91,0,0,0,0-2.12,2.74,2.74,0,0,0-.57-.92,2.87,2.87,0,0,0-.93-.65,3.4,3.4,0,0,0-2.56,0,2.87,2.87,0,0,0-.93.65,2.74,2.74,0,0,0-.57.92,2.91,2.91,0,0,0,0,2.12,2.74,2.74,0,0,0,.57.92,2.87,2.87,0,0,0,.93.65,3.4,3.4,0,0,0,2.56,0m-2.28-.66a2,2,0,0,1-.69-.5,2.21,2.21,0,0,1-.41-.69,2.29,2.29,0,0,1-.14-.78,2.37,2.37,0,0,1,.14-.77,2.15,2.15,0,0,1,.41-.7,2,2,0,0,1,.69-.5,2.35,2.35,0,0,1,1-.19,2.4,2.4,0,0,1,1,.19,1.93,1.93,0,0,1,.7.5,2.15,2.15,0,0,1,.41.7,2.37,2.37,0,0,1,.14.77,2.29,2.29,0,0,1-.14.78,2.21,2.21,0,0,1-.41.69,1.93,1.93,0,0,1-.7.5,2.4,2.4,0,0,1-1,.19,2.35,2.35,0,0,1-1-.19m11.66-4.37h-3.32l-.38.36.38.42,3.32,0Zm-6.82-2.88-1.79.08-2.3.08-2.3,0-1.79,0,.06.78h1.09l1.4,0,1.55,0,1.56,0,1.41,0,1.11,0ZM129.68,124c-.72-.23-1.41-.47-2.08-.73s-1.35-.54-2.06-.85l-.28.82c.68.29,1.37.56,2.06.81s1.38.48,2.06.71Zm4.44,13.84h.74V121.14h-.74Zm-4.42-28.2.28-4.46-.78,0-.24,4.44Zm-3.54.3-.32-4.48-.8.06.4,4.48Zm6.08-.94c-1.49.2-3,.35-4.47.46s-3.07.18-4.75.22l.12.78c1.63,0,3.18-.14,4.67-.26s3-.27,4.55-.46Zm-1.1-5.74c-.47,0-1,.08-1.69.11l-2,.09-2,.06-1.69,0,.06.78,1.66,0,2-.06,2-.09,1.71-.09Zm7,3.66h-3.32l-.38.36.38.42,3.32,0ZM134.12,113h.74V101.14h-.74Zm1.84,2.44-1.93.12q-1.12.06-2.34.09l-2.35,0q-1.14,0-2,0v.78c.55,0,1.2,0,2,0l2.35,0,2.35-.08c.76,0,1.41-.07,1.94-.11Zm-8.6.8h.74v-3.86h-.74ZM135,83.68l-2,.08-2.27.07-2.26,0h-2l.06.77,1.94,0,2.25,0,2.25-.06,2-.07Zm1.1,6.06-4.5-3-.42.66,1.07.72,1.15.78,1.15.79,1.07.73Zm-10.2.88a9.7,9.7,0,0,0,3.69-2.38,8.26,8.26,0,0,0,1.93-3.94l-.74-.2A7.49,7.49,0,0,1,129,87.76a8.64,8.64,0,0,1-3.45,2.16Zm-3.52,4.66,3.83,0,3.93-.08c1.31,0,2.61-.08,3.9-.13s2.54-.12,3.74-.2l0-.78c-1.21.08-2.47.15-3.77.2s-2.61.1-3.93.13l-3.95.08-3.85,0Zm8.24-.68h.74V90.54h-.74Z"/><path class="cls-3" d="M152.38,355.8l3.83,0,3.93-.08c1.31,0,2.61-.08,3.9-.13s2.54-.12,3.74-.2l0-.78c-1.21.08-2.47.15-3.77.2s-2.61.1-3.93.13l-3.95.08-3.85,0Zm8.38-.68h.74V352h-.74Zm4.6-4.64-1.91.12q-1.11.06-2.28.09l-2.28,0q-1.11,0-1.95,0v.78c.55,0,1.19,0,1.94,0l2.29,0,2.28-.08c.74,0,1.38-.07,1.91-.11Zm-8.42.6h.74v-3.3h-.74Zm8-3.9q-.79.06-1.86.09l-2.17.07-2.15,0-1.8,0v.78l1.78,0,2.15-.05L163,348l1.88-.08Zm-.74.38h.74v-3.3h-.74Zm.74-3.64L163,344l-2.24.07-2.22.05-1.86,0,.06.78,1.84,0,2.2,0,2.23-.07,1.91-.08Zm-4.4-18.36c-1.11.07-2.21.12-3.31.15s-2.17.06-3.21.07l.06.78c.93,0,1.9,0,2.9-.07l2.92-.11Zm-7,9.2a12.34,12.34,0,0,0,2.38-1.59A14.39,14.39,0,0,0,158,331a11.32,11.32,0,0,0,.84-1.25,15.69,15.69,0,0,0,.73-1.41,14.34,14.34,0,0,0,.57-1.44,12,12,0,0,0,.38-1.38l-.9.26a12.1,12.1,0,0,1-.78,2.37,10.92,10.92,0,0,1-1.46,2.41,13.32,13.32,0,0,1-2,2,12.34,12.34,0,0,1-2.26,1.48Zm10.58,3.76h.74V321.86h-.74Zm-6.14-27-1.7-2.46-.58.46q.5.68,1,1.35c.31.45.61.9.92,1.37Zm5.24,1.84-2.66-3.84L160,310l.65.91c.23.33.47.66.7,1s.46.67.67,1,.41.63.6.91Zm-5.76,1.24a14.27,14.27,0,0,0,1.13-1.87,16.82,16.82,0,0,0,.89-2.09,18.39,18.39,0,0,0,.62-2.2c.16-.75.28-1.48.36-2.2l-.78,0a19.05,19.05,0,0,1-.91,4.2,14.16,14.16,0,0,1-2,3.76Zm4.72-8.9-1.15.07-1,0-1,0h-1.15l.06.76h1.12l1,0,1,0,1.15-.07Zm-4.6,0-1.17.07-1,0-1,0h-1.17l.06.76h1.14l1,0,1,0,1.17-.07Zm-4.24,8.12a13.82,13.82,0,0,0,1.91-3.61,18.07,18.07,0,0,0,.87-4l-.78,0c-.08.69-.18,1.35-.31,2a13.27,13.27,0,0,1-.5,1.8,12.93,12.93,0,0,1-.76,1.71,15.33,15.33,0,0,1-1.07,1.7Zm10.78,4.68h.74V301.86h-.74Zm4.06-8.92h-3.32l-.38.36.38.42,3.32,0Zm-15.8-13.8,3.83,0,3.93-.08c1.31,0,2.61-.08,3.9-.13s2.54-.12,3.74-.2l0-.78c-1.21.08-2.47.15-3.77.2s-2.61.1-3.93.13l-3.95.08-3.85,0Zm8.38-.68h.74V292h-.74Zm4.6-4.64-1.91.12q-1.11.06-2.28.09l-2.28,0q-1.11,0-1.95,0v.78c.55,0,1.19,0,1.94,0l2.29,0,2.28-.08c.74,0,1.38-.07,1.91-.11Zm-8.42.6h.74v-3.3h-.74Zm8-3.9q-.79.06-1.86.09l-2.17.07-2.15,0-1.8,0v.78l1.78,0,2.15-.05L163,288l1.88-.08Zm-.74.38h.74v-3.3h-.74Zm.74-3.64L163,284l-2.24.07-2.22.05-1.86,0,.06.78,1.84,0,2.2,0,2.23-.07,1.91-.08Zm-4.36-18.36c-1.11.07-2.2.12-3.28.15s-2.14.06-3.18.07l.06.78c.93,0,1.89,0,2.87-.07l2.89-.11Zm-6.92,9.2a12.34,12.34,0,0,0,2.38-1.59A14.39,14.39,0,0,0,158.1,271a10,10,0,0,0,.83-1.25,15.49,15.49,0,0,0,.71-1.41,14.14,14.14,0,0,0,.55-1.44c.15-.48.28-.94.37-1.38l-.9.26a13.33,13.33,0,0,1-.75,2.37,10.08,10.08,0,0,1-1.43,2.41,13.32,13.32,0,0,1-2,2,12.34,12.34,0,0,1-2.26,1.48Zm10.48,3.76h.74V261.86h-.74Zm4.06-8.7h-3.32l-.38.35.38.41,3.32,0Zm-4.56-18.36a2.12,2.12,0,0,0,.44.66,2,2,0,0,0,.65.44,2.08,2.08,0,0,0,1.6,0,2,2,0,0,0,.65-.44,2.12,2.12,0,0,0,.44-.66,2.08,2.08,0,0,0,0-1.6,2.12,2.12,0,0,0-.44-.66,2,2,0,0,0-.65-.44,2.08,2.08,0,0,0-1.6,0,2,2,0,0,0-.65.44,2.12,2.12,0,0,0-.44.66,2.08,2.08,0,0,0,0,1.6m2.84.14a1.38,1.38,0,0,1-1.9,0,1.35,1.35,0,0,1,0-1.88,1.38,1.38,0,0,1,1.9,0,1.35,1.35,0,0,1,0,1.88M160.24,231c-.91.06-1.88.11-2.92.15s-2,0-2.9,0V232h1.4l1.49,0,1.5-.05,1.43-.07Zm1.54,6.34a15.91,15.91,0,0,1-3.45.92,22,22,0,0,1-3.87.24l0,.74a22.39,22.39,0,0,0,4-.28,18.92,18.92,0,0,0,3.6-.92Zm-7.36,1.88.74-.2V231.8h-.74ZM168.18,235h-3.32l-.38.36.38.42,3.32,0Zm-4.06,8.82h.74V227.14h-.74ZM162,217.18a30.85,30.85,0,0,1-3.56.88,29.29,29.29,0,0,1-3.88.44l0,.74a29.22,29.22,0,0,0,4-.46c1.26-.24,2.48-.53,3.67-.88Zm-7.48,2,.74-.2v-8h-.74Zm9.64,4.58h.74V207.14h-.74ZM166,192.06l-4.16-2.16-.36.68,2,1.07,2.07,1.13Zm-9.68.8a8.35,8.35,0,0,0,3.57-2.1,7.5,7.5,0,0,0,1.91-3.56l-.72-.18a9.51,9.51,0,0,1-.7,1.85,5.77,5.77,0,0,1-1,1.43,6.68,6.68,0,0,1-1.45,1.08,11,11,0,0,1-1.91.82Zm8.5,10.4h-7.42v-.78h7.42Zm0-3.28q-.74,0-1.71.06l-2,.05-2,0H157.5v-.76h1.7l2,0,2-.06,1.7-.07Zm0,2.82h-.74v-5.64h.74Zm-7.42-5.34h.74v5.44h-.74Zm-5.66-2.5,3.94,0,4.13-.08c1.38,0,2.75-.08,4.1-.13s2.64-.12,3.85-.2l0,.78c-1.2.08-2.47.15-3.82.2s-2.71.1-4.08.13l-4.11.08-3.91,0Zm6.22-26.2q-.83-.22-1.59-.48c-.51-.17-1-.37-1.61-.58l-.24.8q.78.28,1.59.54l1.61.48Zm-.68,8a2.55,2.55,0,0,0,.82-.52,2.37,2.37,0,0,0,.53-.76,2.27,2.27,0,0,0,0-1.82,2.37,2.37,0,0,0-.53-.76,2.55,2.55,0,0,0-.82-.52,3.05,3.05,0,0,0-2.12,0,2.55,2.55,0,0,0-.82.52,2.37,2.37,0,0,0-.53.76,2.27,2.27,0,0,0,0,1.82,2.37,2.37,0,0,0,.53.76,2.55,2.55,0,0,0,.82.52,3.05,3.05,0,0,0,2.12,0m.31-3.35a1.62,1.62,0,0,1,0,2.32,2.13,2.13,0,0,1-2.74,0,1.62,1.62,0,0,1,0-2.32,2.13,2.13,0,0,1,2.74,0m1.59-3.08c-.43,0-.92.05-1.49.06l-1.75,0-1.75,0h-1.47l.06.76h1.46l1.72,0,1.73,0,1.49,0Zm1.68,6h.74v-8h-.74Zm3.72-4.2h-3.24v.76h3.24Zm-.48,4.62h.74v-9.58h-.74ZM161,181l-2-1.36-.4.6,1.86,1.28Zm-6.3,1.88a6.73,6.73,0,0,0,2.79-1.94,7.18,7.18,0,0,0,1.39-3l-.76-.16a9,9,0,0,1-.49,1.56,4.62,4.62,0,0,1-.74,1.21,5.07,5.07,0,0,1-1.09,1,8.82,8.82,0,0,1-1.54.78Zm12.34-.38-3.2-2.26-.44.64.83.58c.25.17.48.35.71.52l.72.54.86.64Zm-7.06.7a6.65,6.65,0,0,0,2.65-2.2,7.8,7.8,0,0,0,1.25-3.12l-.76-.16a11,11,0,0,1-.42,1.58,5.49,5.49,0,0,1-.68,1.32,5.28,5.28,0,0,1-1,1.09,7.46,7.46,0,0,1-1.45.89Zm-6-26.94a9.9,9.9,0,0,0,2.78-2.77,10.29,10.29,0,0,0,1.42-3.75l-.82-.06a11.49,11.49,0,0,1-.51,1.91,7.5,7.5,0,0,1-.78,1.55,7.63,7.63,0,0,1-1.12,1.31,13.09,13.09,0,0,1-1.51,1.21Zm10.44-4.56h-3.76v.78h3.76Zm-3.34-2.58-1.62.08-1.93.09-1.92.05-1.61,0,.06.78,1.58,0,1.9-.06,1.92-.08,1.62-.08Zm.08,5.88-2.86-2.5-.5.62c.51.44,1,.85,1.38,1.22s.88.81,1.4,1.32Zm4.78,7L164,162q-1.14.06-2.34.09l-2.35,0c-.77,0-1.43,0-2,0v.78c.55,0,1.2,0,2,0l2.36,0,2.35-.08c.76,0,1.41-.07,1.94-.11Zm-8.62.6h.74v-2.68h-.74Zm7.52-3.28c-.53,0-1.13.07-1.79.09l-2,.07-2,0-1.73,0v.78l1.71,0,2-.05,2-.07,1.81-.08Zm-.74.38h.74v-2.8h-.74Zm.74-3.14-1.85.07-2.09.07-2.06,0-1.78,0,.06.78,1.77,0,2-.05,2.07-.07,1.84-.08Zm-.74-.68h.74v-8.66h-.74Zm.88-26.12-2,.08-2.27.07-2.26,0c-.73,0-1.39,0-2,0l.06.77,1.94,0,2.25,0,2.25-.06,2-.07Zm1.1,6.06-4.5-3-.42.66,1.07.72,1.15.78,1.15.79,1.07.73Zm-10.2.88a9.7,9.7,0,0,0,3.69-2.38,8.26,8.26,0,0,0,1.93-3.94l-.74-.2a7.49,7.49,0,0,1-1.77,3.66,8.64,8.64,0,0,1-3.45,2.16Zm-3.52,4.66,3.83,0,3.93-.08c1.31,0,2.61-.08,3.9-.13s2.54-.12,3.74-.2l0-.78c-1.21.08-2.47.15-3.77.2s-2.61.1-3.93.13l-3.95.08-3.85,0Zm8.24-.68h.74v-4.06h-.74Zm1.1-28.18c-.52.08-1.08.16-1.68.23l-1.81.2-1.81.16c-.6,0-1.17.08-1.7.09v-3.92H154v4.7q.83,0,1.83-.09l2.07-.15c.71-.06,1.4-.13,2.08-.21s1.29-.15,1.84-.23Zm-1.18-3.88c-1,.09-2.16.15-3.31.18l-3.25.06v.78c1,0,2.08,0,3.25-.07s2.27-.08,3.31-.15Zm-.74.4h.74v-4h-.74Zm.74-4.36c-1.11.06-2.24.1-3.41.13l-3.31.05.06.78,3.29-.06c1.15,0,2.28-.07,3.37-.12Zm7.64,4.1h-3.32l-.38.36.38.42,3.32,0Zm-4.06,9.12h.74V101.14h-.74Zm4.06-29.12h-3.32l-.38.36.38.42,3.32,0Zm-6-3.82c-.36,0-.67,0-.94,0l-.77,0h-1.79l.06.78h1.73l.77,0,.94,0Zm.72,7.08a17,17,0,0,1-2.08.42,15.75,15.75,0,0,1-2.1.14l0,.74a17.9,17.9,0,0,0,2.22-.13,18.66,18.66,0,0,0,2.22-.41Zm-4.22,1.28.74-.2V85.34l-.74-.4Zm-1-1.52a7,7,0,0,1-1.77.69,9.15,9.15,0,0,1-1.91.21l0,.72a11.43,11.43,0,0,0,2.08-.22,8.48,8.48,0,0,0,2-.72ZM154,93.32l.74-.2V85.34l-.74-.4Zm3.4-8.46c-.36,0-.67,0-.92,0l-.74,0H154l.06.78h1.69l.73,0,.92,0Zm6.74,12.94h.74V81.14h-.74Z"/><path class="cls-3" d="M183.21,388.47a3.35,3.35,0,0,0,.63,1.11,2.9,2.9,0,0,0,4.34,0,3.53,3.53,0,0,0,.63-1.11,4.56,4.56,0,0,0,0-2.86,3.53,3.53,0,0,0-.63-1.11,2.9,2.9,0,0,0-4.34,0,3.35,3.35,0,0,0-.63,1.11,4.56,4.56,0,0,0,0,2.86m1.15-3.46a2.19,2.19,0,0,1,3.3,0,3.54,3.54,0,0,1,0,4.06,2.19,2.19,0,0,1-3.3,0,3.54,3.54,0,0,1,0-4.06m7.4,1.53h-2.32v.78h2.32Zm-.5,7.26H192V380.34h-.74Zm2.88,2h.74V379.14h-.74Zm-5.69-25.57a3.32,3.32,0,0,0,1.09-.79,3.46,3.46,0,0,0,.71-1.17,4.21,4.21,0,0,0,0-2.86,3.46,3.46,0,0,0-.71-1.17,3.32,3.32,0,0,0-1.09-.79,3.62,3.62,0,0,0-2.84,0,3.32,3.32,0,0,0-1.09.79,3.46,3.46,0,0,0-.71,1.17,4.21,4.21,0,0,0,0,2.86,3.46,3.46,0,0,0,.71,1.17,3.32,3.32,0,0,0,1.09.79,3.62,3.62,0,0,0,2.84,0m-.3-6.12a2.5,2.5,0,0,1,.87.63,2.84,2.84,0,0,1,.55.94,3.64,3.64,0,0,1,0,2.32,2.84,2.84,0,0,1-.55.94,2.5,2.5,0,0,1-.87.63,2.67,2.67,0,0,1-1.12.23,2.7,2.7,0,0,1-1.12-.23,2.5,2.5,0,0,1-.87-.63,2.84,2.84,0,0,1-.55-.94,3.64,3.64,0,0,1,0-2.32,2.84,2.84,0,0,1,.55-.94,2.5,2.5,0,0,1,.87-.63,2.7,2.7,0,0,1,1.12-.23,2.67,2.67,0,0,1,1.12.23m6,11.69h.74V359.14h-.74ZM183.5,351.3a10.45,10.45,0,0,0,3.35-3.94,15.28,15.28,0,0,0,1.45-5.28l-.76-.1a14.62,14.62,0,0,1-1.33,5A10,10,0,0,1,183,350.7Zm14.68-4.62h-3.32l-.38.36.38.42,3.32,0Zm-6.6,4-3.34-4-.6.54c.51.59,1.05,1.23,1.64,1.93s1.13,1.39,1.64,2.07Zm2.54,5.16h.74V339.14h-.74Zm-10.3-24.1a14.59,14.59,0,0,0,3.16-3.62,15.82,15.82,0,0,0,1.8-4.52l-.78-.06a18.23,18.23,0,0,1-.7,2.26,11.91,11.91,0,0,1-1,2,12.14,12.14,0,0,1-1.33,1.76,18.56,18.56,0,0,1-1.74,1.66Zm14.36-4.82h-3.32l-.38.36.38.42,3.32,0Zm-5.86,3.88-3.86-3.64-.52.58.86.79,1,.94,1,1c.33.33.63.65.91.94Zm-.82-7.84-1.68.08-2.06.08-2.06,0-1.68,0,.06.78,1.65,0,2,0,2-.07,1.68-.08Zm2.62,12.88h.74V319.14h-.74Zm.84-35.9-1.9.08q-1.08,0-2.19.06l-2.16,0-1.83,0,.06.78,1.66,0,2,0,2,0q1,0,1.74-.06Zm-.68,4.62c.09-.41.18-.8.25-1.16s.14-.71.19-1.06.1-.71.14-1.1.07-.82.1-1.3l-.8.26c0,.39,0,.75-.08,1.08s-.06.66-.11,1-.11.65-.18,1-.16.7-.25,1.1Zm1.68,9.62-2,.12c-.78,0-1.58.07-2.41.09l-2.42,0c-.79,0-1.46,0-2,0v.78c.55,0,1.21,0,2,0l2.43,0,2.42-.08c.78,0,1.44-.07,2-.11Zm-8.82.6h.74v-2.9h-.74Zm7.72-3.5c-.53,0-1.14.07-1.82.09l-2.08.07-2.06,0-1.76,0v.78l1.74,0,2.06-.05,2.08-.07,1.84-.08Zm-.74.38h.74v-2.9h-.74Zm.74-3.24-1.88.07-2.16.07-2.13.05-1.81,0,.06.78,1.8,0,2.11-.05,2.14-.07,1.87-.08Zm-13-2.06,3.91,0,4.11-.08c1.37,0,2.73-.08,4.08-.13s2.62-.12,3.82-.2l0-.78c-1.21.08-2.5.15-3.85.2s-2.72.1-4.1.13l-4.13.08-3.94,0Zm3-26.21a3,3,0,0,0,.69,1,3.31,3.31,0,0,0,5.35-1,3.15,3.15,0,0,0,0-2.46,3.21,3.21,0,0,0-1.72-1.68,3.35,3.35,0,0,0-3.63.68,3.13,3.13,0,0,0-.69,3.46m.68-2.18a2.34,2.34,0,0,1,1.32-1.3,2.54,2.54,0,0,1,1-.19,2.58,2.58,0,0,1,1,.19,2.34,2.34,0,0,1,1.32,1.3,2.47,2.47,0,0,1,0,1.9,2.34,2.34,0,0,1-1.32,1.3,2.58,2.58,0,0,1-1,.19,2.54,2.54,0,0,1-1-.19,2.34,2.34,0,0,1-1.32-1.3,2.47,2.47,0,0,1,0-1.9m2.09,7.47h.74v-2.78h-.74Zm6.44,4.4h.74V273.14h-.74ZM193,284.3c-1,.16-1.93.3-2.78.41s-1.69.21-2.51.29-1.65.15-2.5.2-1.77.1-2.77.14l.16.78c1,0,1.9-.09,2.75-.15s1.68-.13,2.49-.22l2.48-.3,2.74-.39Zm5.22-3h-3.32l-.38.36.38.42,3.32,0ZM183.82,265.7a14.59,14.59,0,0,0,3.16-3.62,15.82,15.82,0,0,0,1.8-4.52l-.78-.06a18.23,18.23,0,0,1-.7,2.26,11.91,11.91,0,0,1-1,2,12.14,12.14,0,0,1-1.33,1.76,18.56,18.56,0,0,1-1.74,1.66Zm14.36-4.82h-3.32l-.38.36.38.42,3.32,0Zm-5.86,3.88-3.86-3.64-.52.58.86.79,1,.94,1,1c.33.33.63.65.91.94Zm-.82-7.84-1.68.08-2.06.08-2.06,0-1.68,0,.06.78,1.65,0,2,0,2-.07,1.68-.08Zm2.62,12.88h.74V253.14h-.74Zm.84-35.9-1.9.08q-1.08,0-2.19.06l-2.16,0-1.83,0,.06.78,1.66,0,2,0,2,0q1,0,1.74-.06Zm-.68,4.62c.09-.41.18-.8.25-1.16s.14-.71.19-1.06.1-.71.14-1.1.07-.82.1-1.3l-.8.26c0,.39,0,.75-.08,1.08s-.06.66-.11,1-.11.65-.18,1-.16.7-.25,1.1Zm1.68,9.62-2,.12c-.78,0-1.58.07-2.41.09l-2.42,0c-.79,0-1.46,0-2,0v.78c.55,0,1.21,0,2,0l2.43,0,2.42-.08c.78,0,1.44-.07,2-.11Zm-8.82.6h.74v-2.9h-.74Zm7.72-3.5c-.53,0-1.14.07-1.82.09l-2.08.07-2.06,0-1.76,0v.78l1.74,0,2.06-.05,2.08-.07,1.84-.08Zm-.74.38h.74v-2.9h-.74Zm.74-3.24-1.88.07-2.16.07-2.13,0-1.81,0,.06.78,1.8,0,2.11-.05,2.14-.07,1.87-.08Zm-13-2.06,3.91,0,4.11-.08c1.37,0,2.73-.08,4.08-.13s2.62-.12,3.82-.2l0-.78c-1.21.08-2.5.15-3.85.2s-2.72.1-4.1.13l-4.13.08-3.94,0Zm0-24,3.91,0,4.11-.08c1.37,0,2.73-.08,4.08-.13s2.62-.12,3.82-.2l0-.78c-1.21.08-2.5.15-3.85.2s-2.72.1-4.1.13l-4.13.08-3.94,0Zm13.9,5.16-2,.12c-.78,0-1.58.07-2.41.09l-2.42,0c-.79,0-1.46,0-2,0v.78c.55,0,1.21,0,2,0l2.43,0,2.42-.08c.78,0,1.44-.07,2-.11Zm-.2-9.84-1.94.12q-1.14.06-2.34.09l-2.35,0c-.77,0-1.43,0-2,0v.78c.55,0,1.2,0,2,0l2.36,0,2.35-.08c.76,0,1.41-.07,1.94-.11Zm-8.62,1h.74v-4.84h-.74Zm0,9.84h.74v-4.34h-.74Zm3.58-31.66c-1.11.07-2.21.12-3.31.15s-2.17.06-3.21.07l.06.78c.93,0,1.9,0,2.9-.07l2.92-.11Zm-7,9.2a12.34,12.34,0,0,0,2.38-1.59,14.39,14.39,0,0,0,2.08-2.13,11.32,11.32,0,0,0,.84-1.25,15.69,15.69,0,0,0,.73-1.41,14.34,14.34,0,0,0,.57-1.44,12,12,0,0,0,.38-1.38l-.9.26a12.1,12.1,0,0,1-.78,2.37,10.92,10.92,0,0,1-1.46,2.41,13.32,13.32,0,0,1-2,2,12.34,12.34,0,0,1-2.26,1.48Zm10.58,3.76h.74V187.14h-.74Zm.14-29.78c-.65.13-1.34.26-2.07.37s-1.46.21-2.21.3-1.49.16-2.23.23-1.45.11-2.13.14l.1.72c.67,0,1.37-.09,2.1-.16s1.47-.14,2.22-.22,1.48-.18,2.21-.28,1.41-.22,2.05-.34Zm.7-4.18-2,.08c-.78,0-1.59.05-2.42.06l-2.43,0-2,0,.06.78,2,0,2.24,0,2.18,0c.7,0,1.3,0,1.81-.07Zm-1.24,9c.16-.63.31-1.32.44-2.07s.25-1.53.36-2.32.2-1.59.27-2.38.13-1.54.17-2.25l-.8.26c0,.63-.07,1.31-.14,2.05s-.15,1.49-.25,2.25-.22,1.5-.35,2.23-.28,1.4-.44,2Zm-11.34,2.42,3.83,0,3.93-.08c1.31,0,2.61-.08,3.9-.13s2.54-.12,3.74-.2l0-.78c-1.21.08-2.47.15-3.77.2s-2.61.1-3.93.13l-3.95.08-3.85,0Zm2.47-33.21a3,3,0,0,0,.69,1,3.33,3.33,0,0,0,1,.69,3.4,3.4,0,0,0,2.56,0,3.33,3.33,0,0,0,1-.69,3.16,3.16,0,0,0,.69-1,3.25,3.25,0,0,0,0-2.5,3.16,3.16,0,0,0-.69-1,3.33,3.33,0,0,0-1-.69,3.4,3.4,0,0,0-2.56,0,3.33,3.33,0,0,0-1,.69,3,3,0,0,0-.69,1,3.25,3.25,0,0,0,0,2.5m.68-2.22a2.67,2.67,0,0,1,.53-.79,2.53,2.53,0,0,1,3.58,0,2.67,2.67,0,0,1,.53.79,2.57,2.57,0,0,1,0,1.94,2.67,2.67,0,0,1-.53.79,2.53,2.53,0,0,1-3.58,0,2.67,2.67,0,0,1-.53-.79,2.57,2.57,0,0,1,0-1.94m8.59,12h.74V141.14h-.74ZM193,152.36c-1,.17-1.93.32-2.78.43s-1.69.21-2.51.29-1.65.15-2.5.2-1.77.1-2.77.14l.16.78c1,0,1.9-.09,2.75-.16s1.68-.14,2.49-.23l2.48-.3,2.74-.39Zm-9.14-18.66a14.59,14.59,0,0,0,3.16-3.62,15.82,15.82,0,0,0,1.8-4.52l-.78-.06a18.23,18.23,0,0,1-.7,2.26,11.91,11.91,0,0,1-1,2,12.14,12.14,0,0,1-1.33,1.76,18.56,18.56,0,0,1-1.74,1.66Zm14.36-4.82h-3.32l-.38.36.38.42,3.32,0Zm-5.86,3.88-3.86-3.64-.52.58.86.79,1,.94,1,1c.33.33.63.65.91.94Zm-.82-7.84-1.68.08-2.06.08-2.06,0-1.68,0,.06.78,1.65,0,2-.05,2-.07,1.68-.08Zm2.62,12.88h.74V121.14h-.74Zm.84-35.9-1.9.08q-1.08,0-2.19.06l-2.16,0-1.83,0,.06.78,1.66,0,2,0,2,0q1,0,1.74-.06Zm-.68,4.62c.09-.41.18-.8.25-1.16s.14-.71.19-1.06.1-.71.14-1.1.07-.82.1-1.3l-.8.26c0,.39,0,.75-.08,1.08s-.06.66-.11,1-.11.65-.18,1-.16.7-.25,1.1Zm1.68,9.62-2,.12c-.78,0-1.58.07-2.41.09l-2.42,0c-.79,0-1.46,0-2,0v.78c.55,0,1.21,0,2,0l2.43,0,2.42-.08c.78,0,1.44-.07,2-.11Zm-8.82.6h.74v-2.9h-.74Zm7.72-3.5c-.53,0-1.14.07-1.82.09l-2.08.07-2.06,0-1.76,0v.78l1.74,0,2.06,0,2.08-.07,1.84-.08Zm-.74.38h.74v-2.9h-.74Zm.74-3.24-1.88.07-2.16.07-2.13,0-1.81,0,.06.78,1.8,0,2.11,0,2.14-.07,1.87-.08Zm-13-2.06,3.91,0,4.11-.08c1.37,0,2.73-.08,4.08-.13s2.62-.12,3.82-.2l0-.78c-1.21.08-2.5.15-3.85.2s-2.72.1-4.1.13l-4.13.08-3.94,0Zm9.42-21.2q-.67.19-1.53.36c-.57.11-1.15.2-1.75.28s-1.19.14-1.77.19-1.11.07-1.59.07v.72c.49,0,1,0,1.63-.07s1.2-.11,1.82-.19,1.22-.17,1.81-.28,1.11-.22,1.58-.34Zm-6.64,1.28h.74V83h-.74Zm4.1,5.8,1.6,0,1.63,0,1.59-.06L195,94v-.8c-.92,0-1.93.1-3,.14l-3.24.1Zm7.1,1.66L194,96c-.73,0-1.47.07-2.24.09l-2.25,0c-.73,0-1.38,0-1.94,0v.78q.82,0,1.92,0l2.25,0,2.25-.08c.73,0,1.37-.07,1.9-.11Zm-8.32.61h.74V91l-.74-.2Zm7.7-5.93-1.84.08-2.06.08-2,0-1.77,0,.06.78,1.76,0,2-.06,2-.07,1.83-.08Zm3-4.86h-3.32l-.38.36.38.42,3.32,0Zm-4.06,3.68h.74V81.14h-.74Z"/><path class="cls-3" d="M253.62,211.46a2.12,2.12,0,0,0,.44.66,2,2,0,0,0,.65.44,2.08,2.08,0,0,0,1.6,0,2,2,0,0,0,.65-.44,2.12,2.12,0,0,0,.44-.66,2.08,2.08,0,0,0,0-1.6,2.12,2.12,0,0,0-.44-.66,2,2,0,0,0-.65-.44,2.08,2.08,0,0,0-1.6,0,2,2,0,0,0-.65.44,2.12,2.12,0,0,0-.44.66,2.08,2.08,0,0,0,0,1.6m2.84.14a1.38,1.38,0,0,1-1.9,0,1.35,1.35,0,0,1,0-1.88,1.38,1.38,0,0,1,1.9,0,1.35,1.35,0,0,1,0,1.88m-5.94-20.76c-1.11.07-2.21.12-3.31.15s-2.17.06-3.21.07l.06.78c.93,0,1.9,0,2.9-.07l2.92-.11Zm-7,9.2a12.34,12.34,0,0,0,2.38-1.59,14.39,14.39,0,0,0,2.08-2.13,11.32,11.32,0,0,0,.84-1.25,15.69,15.69,0,0,0,.73-1.41,14.34,14.34,0,0,0,.57-1.44,12,12,0,0,0,.38-1.38l-.9.26a12.1,12.1,0,0,1-.78,2.37,10.92,10.92,0,0,1-1.46,2.41,13.32,13.32,0,0,1-2,2,12.34,12.34,0,0,1-2.26,1.48Zm10.58,3.76h.74V187.14h-.74Zm.14-29.78c-.65.13-1.34.26-2.07.37s-1.46.21-2.21.3-1.49.16-2.23.23-1.45.11-2.13.14l.1.72c.67,0,1.37-.09,2.1-.16s1.47-.14,2.22-.22,1.48-.18,2.21-.28,1.41-.22,2.05-.34Zm.7-4.18-2,.08c-.78,0-1.59.05-2.42.06l-2.43,0-2,0,.06.78,2,0,2.24,0,2.18,0c.7,0,1.3,0,1.81-.07Zm-1.24,9c.16-.63.31-1.32.44-2.07s.25-1.53.36-2.32.2-1.59.27-2.38.13-1.54.17-2.25l-.8.26c0,.63-.07,1.31-.14,2.05s-.15,1.49-.25,2.25-.22,1.5-.35,2.23-.28,1.4-.44,2Zm-11.34,2.42,3.83,0,3.93-.08c1.31,0,2.61-.08,3.9-.13s2.54-.12,3.74-.2l0-.78c-1.21.08-2.47.15-3.77.2s-2.61.1-3.93.13l-3.95.08-3.85,0Zm2.47-33.21a3,3,0,0,0,.69,1,3.33,3.33,0,0,0,1,.69,3.4,3.4,0,0,0,2.56,0,3.33,3.33,0,0,0,1-.69,3.16,3.16,0,0,0,.69-1,3.25,3.25,0,0,0,0-2.5,3.16,3.16,0,0,0-.69-1,3.33,3.33,0,0,0-1-.69,3.4,3.4,0,0,0-2.56,0,3.33,3.33,0,0,0-1,.69,3,3,0,0,0-.69,1,3.25,3.25,0,0,0,0,2.5m.68-2.22a2.67,2.67,0,0,1,.53-.79,2.53,2.53,0,0,1,3.58,0,2.67,2.67,0,0,1,.53.79,2.57,2.57,0,0,1,0,1.94,2.67,2.67,0,0,1-.53.79,2.53,2.53,0,0,1-3.58,0,2.67,2.67,0,0,1-.53-.79,2.57,2.57,0,0,1,0-1.94m8.59,12h.74V141.14h-.74ZM253,152.36c-1,.17-1.93.32-2.78.43s-1.69.21-2.51.29-1.65.15-2.5.2-1.77.1-2.77.14l.16.78c1,0,1.9-.09,2.75-.16s1.68-.14,2.49-.23l2.48-.3,2.74-.39Zm-9.14-18.66a14.59,14.59,0,0,0,3.16-3.62,15.82,15.82,0,0,0,1.8-4.52l-.78-.06a18.23,18.23,0,0,1-.7,2.26,11.91,11.91,0,0,1-1,2,12.14,12.14,0,0,1-1.33,1.76,18.56,18.56,0,0,1-1.74,1.66Zm14.36-4.82h-3.32l-.38.36.38.42,3.32,0Zm-5.86,3.88-3.86-3.64-.52.58.86.79,1,.94,1,1c.33.33.63.65.91.94Zm-.82-7.84-1.68.08-2.06.08-2.06,0-1.68,0,.06.78,1.65,0,2-.05,2-.07,1.68-.08Zm2.62,12.88h.74V121.14h-.74Zm.84-35.9-1.9.08q-1.08,0-2.19.06l-2.16,0-1.83,0,.06.78,1.66,0,2,0,2,0q1,0,1.74-.06Zm-.68,4.62c.09-.41.18-.8.25-1.16s.14-.71.19-1.06.1-.71.14-1.1.07-.82.1-1.3l-.8.26c0,.39,0,.75-.08,1.08s-.06.66-.11,1-.11.65-.18,1-.16.7-.25,1.1Zm1.68,9.62-2,.12c-.78,0-1.58.07-2.41.09l-2.42,0c-.79,0-1.46,0-2,0v.78c.55,0,1.21,0,2,0l2.43,0,2.42-.08c.78,0,1.44-.07,2-.11Zm-8.82.6h.74v-2.9h-.74Zm7.72-3.5c-.53,0-1.14.07-1.82.09l-2.08.07-2.06,0-1.76,0v.78l1.74,0,2.06,0,2.08-.07,1.84-.08Zm-.74.38h.74v-2.9h-.74Zm.74-3.24-1.88.07-2.16.07-2.13,0-1.81,0,.06.78,1.8,0,2.11,0,2.14-.07,1.87-.08Zm-13-2.06,3.91,0,4.11-.08c1.37,0,2.73-.08,4.08-.13s2.62-.12,3.82-.2l0-.78c-1.21.08-2.5.15-3.85.2s-2.72.1-4.1.13l-4.13.08-3.94,0Zm9.42-21.2q-.67.19-1.53.36c-.57.11-1.15.2-1.75.28s-1.19.14-1.77.19-1.11.07-1.59.07v.72c.49,0,1,0,1.63-.07s1.2-.11,1.82-.19,1.22-.17,1.81-.28,1.11-.22,1.58-.34Zm-6.64,1.28h.74V83h-.74Zm4.1,5.8,1.6,0,1.63,0,1.59-.06L255,94v-.8c-.92,0-1.93.1-3,.14l-3.24.1Zm7.1,1.66L254,96c-.73,0-1.47.07-2.24.09l-2.25,0c-.73,0-1.38,0-1.94,0v.78q.82,0,1.92,0l2.25,0,2.25-.08c.73,0,1.37-.07,1.9-.11Zm-8.32.61h.74V91l-.74-.2Zm7.7-5.93-1.84.08-2.06.08-2,0-1.77,0,.06.78,1.76,0,2-.06,2-.07,1.83-.08Zm3-4.86h-3.32l-.38.36.38.42,3.32,0Zm-4.06,3.68h.74V81.14h-.74Z"/><line class="cls-4" x1="288.2" y1="40.3" x2="288.2" y2="540.6"/><line class="cls-4" y1="0.15" x2="943.31" y2="0.15"/></g><rect class="cls-5" x="316.69" y="80.3" width="626.61" height="420"/><g class="cls-2"><path class="cls-6" d="M764.3,226.06a185.43,185.43,0,0,0,8.52-27.13,156.86,156.86,0,0,0,3.54-29.75l-10.75,5.5c-.18,4.55-.48,8.78-.92,12.72a95.41,95.41,0,0,1-2,11.4q-1.32,5.5-3.28,11.14t-4.85,12.19Zm81-60.55q-7.08.53-13.37.91c-4.19.27-8.35.49-12.45.66s-8.26.31-12.45.39-8.74.22-13.63.4l.78,10.22q25.43-.78,51.12-2.36Zm-68.94,2.88q-12.58.53-26.74.66t-25.69.39l.79,10.22c7-.17,14.55-.3,22.67-.39s16.91-.3,26.35-.66Zm87,192.94-65.54-28.84-4.71,10.22,15.59,6.69q8.26,3.54,16.91,7.21t17,7.47l16,7.21Zm-136,10.22q27.78-7.35,45.74-22T800,309.16l-10.75-2.62a108.94,108.94,0,0,1-10.09,21.89,61.51,61.51,0,0,1-13.37,15.33,76.13,76.13,0,0,1-18.09,10.75,174.82,174.82,0,0,1-24.24,8.13Zm95.15-95.16q-14.94-.78-29-2.49t-29-4.32l-.78,11.53q14.15,2.1,28.7,3.67t28.44,2.36Zm-148.89-21q24.38,0,51.25-.39T778.72,254q27-.64,53.47-1.7t50.07-2.63l.26-10.22q-23.85,1.57-50.46,2.62t-53.74,1.71q-27.12.65-54.13,1t-51.64.4ZM844,302.08q-10.75.5-25,1.1l-29.1,1.23q-14.82.61-28.84,1t-24.25.36l.79,10.23q10.23,0,24-.4t28.57-1.05q14.8-.64,29-1.18t24.9-1Zm-8.39-81.52h9.7V170.23h-9.7Zm-41.15,27.26h9.69V204h-9.69Z"/><path class="cls-6" d="M494.53,253.2V206.54h-8.66V253.2H380.76v7.87H589.68V253.2Zm-5.25,54h71.3v-7.87h-71.3V271h-8.65v28.31h-71.3v7.87h71.3V308c0,33-50.33,57.15-80.74,62.92l4.2,7.07c28.57-6.29,69.2-25.16,80.74-53.74,11.79,28.58,52.16,47.45,81,53.74l4.19-7.07C539.61,365.14,489.28,341,489.28,308ZM459.4,234.33a258,258,0,0,0,9.17-70.52v-5.5H400.15v7.86h60c0,12.32-.53,34.34-9.44,66.59Zm97.25.52a387.44,387.44,0,0,0,6-70.77v-5.77H489.81v7.86h64.48a370.22,370.22,0,0,1-6,67.37Z"/><line class="cls-7" x1="316.39" y1="137.19" x2="943.31" y2="137.19"/><line class="cls-7" x1="316.39" y1="398.83" x2="943.31" y2="398.83"/><path class="cls-6" d="M674.6,451.84a.87.87,0,0,0,.85-.92.87.87,0,1,0-1.73,0,.87.87,0,0,0,.88.92m-2.68-7.29h-2.66v-6.19h-.9v15.11h.9v-8.16h2.66Zm-12.55,4.28v-8.21h6.09v-.76h-7v9.76h1.14a36.2,36.2,0,0,0,7.24-.55l-.12-.78a36.19,36.19,0,0,1-7.12.54Zm-5.92,4.63h.9v-15.1h-.9Zm-9.36-4.8v-8.82h-.89v9.62h1.18a35.22,35.22,0,0,0,7.41-.75l-.14-.78a33.89,33.89,0,0,1-7.27.73Zm-13.35-8.75a2.66,2.66,0,1,1-2.94,2.65,2.72,2.72,0,0,1,2.94-2.65m0-.77c-2.23,0-3.81,1.38-3.81,3.42s1.58,3.42,3.81,3.42,3.84-1.38,3.84-3.42-1.58-3.42-3.84-3.42m-.59,11h7.75v2.36h-7.75Zm-.9-2.86v6h9.53v-6h-.88v2.11h-7.75v-2.11Zm8.63-.8h.9v-8.09h-.9Zm-18.75,3.93v-5.12h-.88v5.12h-2.84v-5.12h-.89v5.12h-3.65v.77h13.65v-.77Zm2.67-8.6a28.34,28.34,0,0,1-.54,6.42l.9.12a30.63,30.63,0,0,0,.52-6.54V440H612.33v.75h9.47Zm-24.75,2.82h5.13V449h-5.13Zm-.9-4.93v10.08h6.93V439.67h-.9v4.18h-5.13v-4.18Zm10.42,13.8h.9V438.34h-.9Zm-20.37,0h.9v-15.1h-.9ZM575.75,440v.76h6c-.24,3.73-2.53,6.94-6.68,8.94l.49.75c4.87-2.39,7.09-6.24,7.09-10.45Zm-16.58,11.12h13.65v-.77H559.17Zm1.31-6.48.17.78,9.38-.51a24.5,24.5,0,0,1-.56,4.13l.89.1A32,32,0,0,0,571,442V440h-10.1v.76h9.23V442c0,.76,0,1.51,0,2.28Zm-2.8,0H555v-6.29h-.9v15.1h.9v-8h2.66Zm-9.32-3.91h3.55V440h-8v.78h3.62v2.53a8.31,8.31,0,0,1-4.13,6.5l.56.75a9.33,9.33,0,0,0,4-5.27,8.72,8.72,0,0,0,3.93,4.89l.52-.73a7.67,7.67,0,0,1-4-6.14Zm-9,3.42a20.47,20.47,0,0,0,.35-4.2V439h-10v.76h9.18V440a19,19,0,0,1-.38,4.2H527.89v.76h13.7v-.76Zm-8.88,6.1h9.34v-3.55H529.58v.75h9.36v2.07h-9.33v3.69H540.2v-.75h-9.71ZM507.75,450a57.06,57.06,0,0,0,10-.63l-.09-.7a67.48,67.48,0,0,1-10.05.55Zm11,3.48h.9V438.36h-.9Zm-6.29-13.17a2.7,2.7,0,1,1-3.11,2.67,2.82,2.82,0,0,1,3.11-2.67m0-.78c-2.34,0-4,1.39-4,3.45s1.64,3.45,4,3.45,4-1.39,4-3.45-1.63-3.45-4-3.45m-6.51,5.42h-2.62v-6.58h-.9v15.08h.9v-7.72h2.62Zm-9,2.67c1.83-.15,3-1.17,3-2.74s-1.41-2.77-3.49-2.77-3.46,1.07-3.46,2.77,1.19,2.59,3,2.74v1.89c-1.56.06-3.06.06-4.35.06l.17.79a59.41,59.41,0,0,0,9.61-.6l-.07-.7a42,42,0,0,1-4.45.41Zm-3.08-2.74c0-1.2,1.05-2,2.63-2s2.64.84,2.64,2-1.07,2-2.64,2-2.63-.85-2.63-2m7.17-4.59h-4.09v-1.94H496v1.94h-4.09v.77H501Zm-11.12,6.79h-13.7v.76H480v5.61h.91v-5.61h4.27v5.61h.92v-5.61h3.82ZM483,445.48c3.11,0,5.18-1.25,5.18-3.24S486.14,439,483,439s-5.17,1.24-5.17,3.23,2.06,3.24,5.17,3.24m0-5.72c2.52,0,4.27,1,4.27,2.48s-1.75,2.5-4.27,2.5-4.25-1-4.25-2.5,1.75-2.48,4.25-2.48m-10.81,3.36v-4.78h-.9v11.24h.9V443.9h2.36v-.78ZM464,448.49h-.91v4.59H473v-.76h-9Zm5.28-2.27c-2.07-.77-3.87-2.74-3.87-4.9v-2.06h-.87v2a5.89,5.89,0,0,1-3.86,5.39l.48.73a6.69,6.69,0,0,0,3.86-4.18A6.64,6.64,0,0,0,468.8,447Zm-15-1.45H451.6v-6.43h-.9v15.12h.9v-7.92h2.63Zm-9,1.5a3.47,3.47,0,0,0,3.45-3.44c0-2.07-1.62-3.45-3.91-3.45s-4,1.38-4,3.45a3.47,3.47,0,0,0,3.51,3.44v2.9c-1.53.05-3,.07-4.29.07l.17.78a59.78,59.78,0,0,0,9.54-.57l-.07-.68c-1.41.2-2.94.3-4.45.37Zm-3.52-3.44a3.07,3.07,0,1,1,3.06,2.69,2.79,2.79,0,0,1-3.06-2.69m-17.14,8.47h13.7v-.77h-13.7Zm12.89-5.1c-2.14-.43-5.63-2.7-5.63-5.49V439.5h-.93v1.21c0,2.8-3.44,5.05-5.6,5.49l.43.76c2-.52,4.71-2.19,5.64-4.55.94,2.36,3.67,4,5.66,4.55Zm-16.88-3.08v-4.78h-.9v11.24h.9V443.9h2.36v-.78Zm-8.26,5.37h-.91v4.59h9.9v-.76h-9Zm5.28-2.27c-2.07-.77-3.87-2.74-3.87-4.9v-2.06h-.87v2a5.89,5.89,0,0,1-3.86,5.39l.48.73a6.69,6.69,0,0,0,3.86-4.18,6.64,6.64,0,0,0,3.82,3.76Zm-21.79,4.47v-3.52h4.79v-.75h-9.3v-2.7h8.83V443h-8.83v-2.52h9.15v-.76H390.35v7.48h4.52v3.52h-6.38v.76h13.7v-.76Zm-15.64-.09v-4.42h4.79v-.76h-9.4V439.7h-.9v6.48h4.61v4.42h-6.38v.77h13.7v-.77Zm-13.24-6.87,1.25-1.56,1.24,1.56.57-.39-1.06-1.7,1.74-.68-.21-.64-1.82.47-.12-1.94h-.68l-.15,2-1.82-.49-.2.64,1.73.68-1,1.7Z"/></g></g></g></svg>