<?xml version="1.0" encoding="utf-8"?>
<!-- Generator: Adobe Illustrator 22.0.1, SVG Export Plug-In . SVG Version: 6.00 Build 0)  -->
<svg version="1.1" id="Layer_1" xmlns="http://www.w3.org/2000/svg" xmlns:xlink="http://www.w3.org/1999/xlink" x="0px" y="0px"
	 viewBox="0 0 943.3 560.3" style="enable-background:new 0 0 943.3 560.3;" xml:space="preserve">
<style type="text/css">
	.st0{clip-path:url(#SVGID_2_);}
	.st1{fill:#231916;}
	.st2{fill:none;stroke:#231916;stroke-width:0.3;}
	.st3{fill:none;stroke:#44403F;stroke-width:0.5;}
	.st4{clip-path:url(#SVGID_4_);}
	.st5{fill:none;stroke:#44403F;}
	.st6{fill:none;}
	.st7{font-family:'SpoqaHanSans-Light';}
	.st8{font-size:17px;}
</style>
<title>columns-7_1</title>
<g id="Layer_2_1_">
	<g id="Layer_1-2">
		<g>
			<defs>
				<rect id="SVGID_1_" x="4" y="40.3" width="939" height="520"/>
			</defs>
			<clipPath id="SVGID_2_">
				<use xlink:href="#SVGID_1_"  style="overflow:visible;"/>
			</clipPath>
			<g class="st0">
				<path class="st1" d="M26.3,174.5l-0.7-0.8l-9.5,5.4l-9.5-5.4L6,174.5l10.1,5.8L26.3,174.5z M12.3,164.8h1v-2.9h-1V164.8z
					 M17.7,151.7c-0.6,0-1.4,0.1-2.4,0.1l-3,0.1l-3,0.1L6.8,152l0.1,1h2.4c1,0,2,0,3-0.1l3-0.1c1,0,1.8-0.1,2.4-0.1L17.7,151.7z
					 M15.9,149.4c-1-0.3-2-0.7-2.9-1c-0.9-0.4-1.9-0.8-2.9-1.2l-0.4,1.1c0.9,0.4,1.9,0.8,2.9,1.1s1.9,0.7,2.9,1L15.9,149.4z M27,157
					h-4.7l-0.5,0.5l0.5,0.6l4.6,0.1L27,157z M21.3,169.2h1v-23.3h-1V169.2z M9,159.1c0.2,0.4,0.4,0.8,0.7,1.1
					c0.4,0.3,0.8,0.6,1.3,0.8c0.5,0.2,1.1,0.3,1.6,0.3c0.6,0,1.1-0.1,1.6-0.3c0.4-0.2,0.9-0.5,1.2-0.8c0.3-0.3,0.6-0.7,0.7-1.1
					c0.3-0.8,0.3-1.7,0-2.5c-0.2-0.4-0.4-0.8-0.7-1.1c-0.3-0.3-0.8-0.6-1.2-0.8c-1.1-0.4-2.2-0.4-3.3,0c-0.5,0.2-0.9,0.5-1.2,0.8
					c-0.3,0.3-0.6,0.7-0.8,1.1C8.7,157.4,8.7,158.3,9,159.1 M10,157c0.1-0.3,0.3-0.6,0.5-0.8c0.2-0.2,0.5-0.4,0.9-0.6
					c0.4-0.2,0.8-0.3,1.2-0.2c0.8,0,1.5,0.3,2.1,0.8c0.2,0.2,0.4,0.5,0.5,0.8c0.1,0.3,0.2,0.5,0.2,0.8c0,0.3-0.1,0.6-0.2,0.8
					c-0.1,0.3-0.3,0.6-0.5,0.8c-0.2,0.3-0.5,0.5-0.9,0.6c-0.4,0.2-0.8,0.2-1.2,0.2c-0.4,0-0.9-0.1-1.2-0.2c-0.3-0.1-0.6-0.3-0.9-0.6
					c-0.2-0.2-0.4-0.5-0.5-0.8c-0.1-0.3-0.2-0.5-0.2-0.8C9.8,157.5,9.9,157.3,10,157 M19.7,163.3c-1.4,0.2-2.7,0.4-3.9,0.6
					s-2.4,0.3-3.5,0.4s-2.3,0.2-3.5,0.3s-2.5,0.1-3.9,0.2l0.2,1.1c1.4-0.1,2.7-0.1,3.8-0.2s2.4-0.2,3.5-0.3s2.3-0.3,3.5-0.4l3.8-0.6
					L19.7,163.3z M12.4,124.6c0.3,0.6,0.6,1,1.1,1.4c0.5,0.4,1.1,0.7,1.6,0.9c0.6,0.2,1.3,0.3,2,0.3c0.7,0,1.4-0.1,2-0.3
					c0.6-0.2,1.2-0.5,1.7-0.9c0.5-0.4,0.8-0.9,1.1-1.4c0.3-0.6,0.4-1.2,0.4-1.8c0-0.6-0.1-1.2-0.3-1.8c-0.3-0.5-0.6-1-1.1-1.4
					c-0.5-0.4-1.1-0.7-1.7-0.9c-0.6-0.2-1.3-0.3-2-0.3c-0.7,0-1.4,0.1-2,0.3c-0.6,0.2-1.2,0.5-1.6,0.9c-0.5,0.4-0.9,0.8-1.2,1.4
					c-0.3,0.6-0.4,1.2-0.4,1.8C12,123.4,12.1,124,12.4,124.6 M13.4,121.4c0.2-0.4,0.5-0.7,0.9-1c0.4-0.3,0.8-0.5,1.3-0.7
					c1.1-0.3,2.2-0.3,3.2,0c0.5,0.1,0.9,0.4,1.3,0.7c0.4,0.3,0.7,0.6,0.9,1c0.5,0.9,0.5,1.9,0,2.7c-0.2,0.4-0.5,0.7-0.9,1
					c-0.4,0.3-0.8,0.5-1.3,0.7c-1.1,0.3-2.2,0.3-3.2,0c-0.5-0.1-0.9-0.4-1.3-0.7c-0.4-0.3-0.7-0.6-0.9-1
					C12.9,123.3,12.9,122.3,13.4,121.4 M21.3,140.7h1v-10.2h-1V140.7z M13.7,132.9c-0.4,1.3-1,2.5-1.6,3.6c-0.7,1.2-1.5,2.4-2.4,3.4
					l0.9,0.6c0.9-1.1,1.7-2.3,2.4-3.6c0.7-1.2,1.3-2.4,1.7-3.8L13.7,132.9z M22.3,130c-1.5,0.1-3,0.1-4.6,0.2l-4.7,0.1
					c-1.6,0-3.1,0.1-4.6,0.1s-3,0-4.4,0l0.1,1.1l4.4-0.1l4.6-0.1l4.6-0.1l4.6-0.2V130z M7,103.5c1.8-1.4,3.2-3.1,4.3-5
					c1.1-2.1,1.8-4.3,2.1-6.6l-1-0.2c-0.2,1.2-0.4,2.3-0.8,3.4c-0.3,1-0.7,1.9-1.2,2.8c-0.5,0.9-1.1,1.7-1.7,2.5
					c-0.7,0.8-1.5,1.6-2.4,2.3L7,103.5z M18.2,101.6l-4.8-4.3l-0.7,0.8c0.8,0.7,1.6,1.4,2.3,2.1s1.6,1.4,2.4,2.2L18.2,101.6z
					 M21.3,106.5h1V89.9h-1V106.5z M23.8,109.9c-0.8,0.1-1.6,0.1-2.7,0.2s-2.2,0.1-3.3,0.1s-2.2,0-3.3,0s-2,0-2.8,0v1.1
					c0.8,0,1.7,0.1,2.8,0l3.3-0.1c1.1,0,2.2-0.1,3.3-0.1s2-0.1,2.7-0.2L23.8,109.9z M11.8,111h1v-6.2h-1V111z M27,98.5h-4.7L21.8,99
					l0.5,0.6l4.6,0.1L27,98.5z M16.2,81.1L6,86.9l0.7,0.8l9.5-5.4l9.5,5.4l0.7-0.8L16.2,81.1z"/>
				<path class="st1" d="M55.6,263.9c0.1,0.3,0.3,0.7,0.6,0.9c0.5,0.5,1.3,0.8,2,0.8c0.7,0,1.5-0.3,2-0.8c0.3-0.3,0.5-0.6,0.6-0.9
					c0.1-0.4,0.2-0.7,0.2-1.1c0-0.4-0.1-0.8-0.2-1.1c-0.3-0.7-0.8-1.2-1.5-1.5c-0.4-0.1-0.7-0.2-1.1-0.2c-0.4,0-0.8,0.1-1.1,0.2
					c-0.3,0.1-0.7,0.4-0.9,0.6c-0.3,0.3-0.5,0.6-0.6,0.9c-0.2,0.4-0.2,0.7-0.2,1.1C55.3,263.2,55.4,263.6,55.6,263.9 M59.5,264.1
					c-0.4,0.3-0.8,0.5-1.3,0.5c-1,0-1.8-0.8-1.9-1.8c0,0,0,0,0-0.1c0-1,0.8-1.8,1.9-1.8c0,0,0,0,0,0c1,0,1.9,0.8,1.9,1.9
					C60.1,263.3,59.9,263.8,59.5,264.1 M42,246.3h1v-10.9h-1V246.3z M49.4,244.4c-1.3,0.4-2.5,0.6-3.6,0.9c-1.2,0.2-2.5,0.4-3.7,0.5
					v1c1.4-0.1,2.6-0.3,3.8-0.5s2.5-0.5,3.7-0.9L49.4,244.4z M57,239.9h-5v1.1h5V239.9z M51.3,250.4h1v-18.8h-1V250.4z M56.3,253.2
					h1v-23.3h-1V253.2z M62,209.9h-4.7l-0.5,0.5l0.5,0.6l4.7,0.1L62,209.9z M42.6,211.1c0.2,0.5,0.6,1,1,1.4c0.4,0.4,0.9,0.8,1.5,1
					c1.1,0.5,2.4,0.5,3.5,0c0.5-0.2,1-0.6,1.5-1c0.4-0.4,0.8-0.9,1-1.4c0.5-1.1,0.5-2.4,0-3.5c-0.2-0.5-0.6-1-1-1.4
					c-0.4-0.4-0.9-0.8-1.5-1c-1.1-0.5-2.4-0.5-3.5,0c-0.5,0.2-1,0.6-1.5,1c-0.4,0.4-0.8,0.9-1,1.4C42.1,208.7,42.1,210,42.6,211.1
					 M43.6,208c0.2-0.4,0.4-0.8,0.8-1.1c0.3-0.3,0.7-0.6,1.1-0.8c0.9-0.4,1.9-0.4,2.8,0c0.8,0.4,1.5,1,1.8,1.9
					c0.2,0.4,0.3,0.9,0.3,1.3c0,0.5-0.1,0.9-0.3,1.3c-0.2,0.4-0.4,0.8-0.8,1.1c-1,1-2.6,1.3-3.9,0.8c-0.4-0.2-0.8-0.4-1.1-0.8
					c-0.3-0.3-0.6-0.7-0.8-1.1c-0.2-0.4-0.3-0.9-0.3-1.3C43.3,208.9,43.4,208.4,43.6,208 M58.9,221.9c-0.8,0.1-1.7,0.1-2.7,0.2
					s-2.2,0.1-3.3,0.1s-2.3,0.1-3.3,0.1s-2,0-2.8,0v1.1c0.8,0,1.7,0.1,2.8,0.1l3.3-0.1c1.2,0,2.3-0.1,3.3-0.1s2-0.1,2.7-0.2
					L58.9,221.9z M46.6,223h1v-5.9h-1V223z M56.3,218.5h1v-16.6h-1V218.5z M44.9,178.2c2.2-0.8,4.1-2.1,5.5-3.9
					c1.4-1.8,2.4-3.9,2.8-6.2l-1-0.3c-0.4,2.1-1.3,4.1-2.6,5.8c-1.4,1.6-3.2,2.9-5.2,3.6L44.9,178.2z M59.3,177l-6.2-4.2l-0.6,0.9
					l1.5,1l1.6,1.1l1.6,1.1l1.5,1.1L59.3,177z M39.7,184.2c1.8,0,3.5,0,5.4,0l5.5-0.1c1.8-0.1,3.7-0.1,5.5-0.2s3.6-0.2,5.3-0.3v1.1
					c-1.7,0.1-3.4,0.2-5.2,0.3s-3.6,0.1-5.5,0.2l-5.5,0.1c-1.8,0-3.6,0-5.4,0L39.7,184.2z M41.5,151.3c1.9-1.4,3.4-3.2,4.5-5.2
					c1.1-2.1,1.9-4.4,2.2-6.8l-1-0.2c-0.2,1.2-0.4,2.4-0.8,3.5c-0.3,1-0.7,2.1-1.2,3c-0.5,0.9-1.1,1.8-1.8,2.6
					c-0.8,0.9-1.6,1.6-2.5,2.3L41.5,151.3z M53,149.9l-4.5-4.7l-0.7,0.8c0.7,0.7,1.5,1.5,2.2,2.3s1.5,1.6,2.3,2.4L53,149.9z
					 M58.9,157.5c-0.8,0.1-1.7,0.1-2.7,0.2s-2.2,0.1-3.3,0.1l-3.4,0.1c-1.1,0-2,0-2.8,0v1.1c0.8,0,1.7,0,2.8,0l3.4-0.1
					c1.2,0,2.3-0.1,3.4-0.1l2.7-0.1V157.5z M56.8,143.3h-5.2v1.1h5.2L56.8,143.3z M46.6,158.6h1v-5.9h-1V158.6z M56.3,154.1h1v-16.6
					h-1V154.1z M48.3,125c0.6-0.3,1.1-0.6,1.5-1.1c0.4-0.5,0.8-1,1-1.6c0.5-1.3,0.5-2.7,0-4c-0.2-0.6-0.6-1.2-1-1.6
					c-0.4-0.5-1-0.9-1.5-1.1c-1.3-0.6-2.7-0.6-4,0c-0.6,0.3-1.1,0.6-1.5,1.1c-0.4,0.5-0.8,1-1,1.6c-0.5,1.3-0.5,2.7,0,4
					c0.2,0.6,0.6,1.2,1,1.6c0.4,0.5,1,0.8,1.5,1.1C45.6,125.6,47,125.6,48.3,125 M47.9,116.4c0.9,0.4,1.7,1.2,2,2.2
					c0.2,0.5,0.3,1.1,0.3,1.6c0,0.6-0.1,1.1-0.3,1.6c-0.7,2-2.9,3-4.9,2.3c-0.1,0-0.2-0.1-0.2-0.1c-0.5-0.2-0.9-0.5-1.2-0.9
					c-0.3-0.4-0.6-0.8-0.8-1.3c-0.2-0.5-0.3-1.1-0.3-1.6c0-0.6,0.1-1.1,0.3-1.6c0.2-0.5,0.4-0.9,0.8-1.3c0.3-0.4,0.7-0.7,1.2-0.9
					C45.8,116,46.9,116,47.9,116.4 M56.2,132.8h1v-23.3h-1V132.8z M52.9,97.3c-0.7,0.1-1.5,0.2-2.4,0.3s-1.7,0.2-2.5,0.3
					s-1.7,0.2-2.5,0.2s-1.6,0.1-2.4,0.1v-5.5h-1v6.6c0.8,0,1.6-0.1,2.6-0.1s1.9-0.1,2.9-0.2s2-0.2,2.9-0.3s1.8-0.2,2.6-0.3
					L52.9,97.3z M51.3,91.8c-1.5,0.1-3,0.2-4.6,0.2l-4.5,0.1v1.1l4.5-0.1c1.6,0,3.2-0.1,4.6-0.2V91.8z M50.3,92.4h1v-5.6h-1V92.4z
					 M51.3,86.3c-1.5,0.1-3.1,0.1-4.8,0.2s-3.2,0.1-4.6,0.1l0.1,1.1l4.6-0.1c1.6,0,3.2-0.1,4.7-0.2V86.3z M62,92h-4.7l-0.5,0.5
					l0.5,0.6l4.7,0.1L62,92z M56.3,104.8h1V81.5h-1V104.8z"/>
				<line class="st2" x1="92.7" y1="40.3" x2="92.7" y2="560.3"/>
			</g>
		</g>
		<line class="st3" x1="121.2" y1="300.5" x2="503.3" y2="300.5"/>
		<g>
			<defs>
				<rect id="SVGID_3_" x="4" y="40.3" width="939" height="520"/>
			</defs>
			<clipPath id="SVGID_4_">
				<use xlink:href="#SVGID_3_"  style="overflow:visible;"/>
			</clipPath>
			<g class="st4">
				<line class="st3" x1="560.9" y1="300.5" x2="943" y2="300.5"/>
			</g>
		</g>
		<line class="st5" x1="121.2" y1="80.8" x2="503.3" y2="80.8"/>
		<line class="st5" x1="560.9" y1="80.8" x2="943" y2="80.8"/>
		<path class="st1" d="M436.7,249.3c2.9-1,5.5-2.9,7.5-5.3c1.9-2.4,3.2-5.3,3.8-8.4l-1.4-0.3c-0.5,2.9-1.7,5.6-3.5,7.9
			c-1.9,2.2-4.3,3.9-7.1,4.9L436.7,249.3z M456.2,247.7l-8.4-5.7l-0.8,1.2l2,1.3c0.7,0.5,1.4,1,2.1,1.5l2.2,1.5l2,1.5L456.2,247.7z
			 M429.7,257.4c2.4,0,4.8,0,7.3,0l7.5-0.1c2.5-0.1,5-0.2,7.5-0.2c2.5-0.1,4.9-0.2,7.2-0.4v1.5c-2.3,0.2-4.6,0.3-7.1,0.4
			c-2.5,0.1-4.9,0.2-7.4,0.2l-7.5,0.1c-2.5,0-4.9,0.1-7.3,0.1L429.7,257.4z M432.1,212.8c2.5-1.9,4.6-4.3,6.1-7c1.5-2.9,2.5-6,3-9.3
			l-1.4-0.3c-0.2,1.6-0.6,3.2-1,4.8c-0.4,1.4-1,2.7-1.7,4c-0.7,1.3-1.5,2.4-2.5,3.5c-1,1.2-2.2,2.2-3.4,3.1L432.1,212.8z M447.7,211
			l-6.2-6.4l-1,1c1,1,2,2,3,3.1s2,2.1,3.1,3.3L447.7,211z M455.7,221.3c-1,0.1-2.3,0.1-3.7,0.2s-3,0.1-4.5,0.2s-3.1,0.1-4.6,0.1
			s-2.8,0-3.8-0.1v1.5c1,0,2.3,0.1,3.8,0.1c1.5,0,3,0,4.6-0.1s3.1-0.1,4.6-0.1s2.7-0.1,3.7-0.2L455.7,221.3z M452.8,202h-7v1.5h7
			V202z M439,222.7h1.4v-8.1H439V222.7z M452.1,216.6h1.4V194h-1.4V216.6z M441.4,177.1c0.8-0.4,1.5-0.9,2.1-1.5
			c0.6-0.6,1-1.4,1.4-2.2c0.6-1.8,0.6-3.7,0-5.4c-0.3-0.8-0.8-1.6-1.4-2.2c-2.5-2.6-6.6-2.8-9.2-0.3c-0.1,0.1-0.2,0.2-0.3,0.3
			c-0.6,0.6-1,1.4-1.3,2.2c-0.6,1.8-0.6,3.7,0,5.4c0.3,0.8,0.8,1.6,1.3,2.2c0.6,0.6,1.3,1.1,2.1,1.5
			C437.7,177.8,439.7,177.8,441.4,177.1 M440.8,165.5c0.6,0.3,1.2,0.7,1.6,1.2c0.5,0.5,0.8,1.1,1,1.8c0.5,1.4,0.5,3,0,4.4
			c-0.2,0.7-0.6,1.3-1,1.8c-0.5,0.5-1,0.9-1.6,1.2c-0.7,0.3-1.4,0.4-2.1,0.4c-0.7,0-1.5-0.1-2.1-0.4c-0.6-0.3-1.2-0.7-1.6-1.2
			c-0.4-0.5-0.8-1.1-1-1.8c-0.5-1.4-0.5-3,0-4.4c0.2-0.7,0.6-1.3,1-1.8c0.5-0.5,1-0.9,1.6-1.2c0.7-0.3,1.4-0.4,2.1-0.4
			C439.4,165,440.1,165.2,440.8,165.5 M452.1,187.7h1.4V156h-1.4V187.7z M447.6,139.5c-1,0.1-2,0.3-3.2,0.4s-2.3,0.3-3.4,0.4
			l-3.4,0.3c-1.1,0.1-2.2,0.1-3.2,0.2v-7.4h-1.4v8.9c1,0,2.2-0.1,3.5-0.2s2.6-0.2,3.9-0.3s2.7-0.2,4-0.4s2.5-0.3,3.5-0.4
			L447.6,139.5z M445.4,132.1c-2,0.2-4.1,0.3-6.3,0.3l-6.2,0.1v1.4c1.9,0,4,0,6.2-0.1c2.2-0.1,4.3-0.2,6.3-0.3V132.1z M443.9,132.9
			h1.4v-7.6h-1.4V132.9z M445.4,124.6c-2.1,0.1-4.3,0.2-6.5,0.2c-2.2,0-4.3,0.1-6.3,0.1l0.1,1.5c2,0,4.1-0.1,6.3-0.1
			s4.3-0.1,6.4-0.2L445.4,124.6z M459.9,132.4h-6.3l-0.7,0.7l0.7,0.8l6.3,0.1V132.4z M452.2,149.7h1.4V118h-1.4V149.7z"/>
		<path class="st1" d="M480,219.7h1.4v-4H480V219.7z M487.3,201.9c-0.9,0.1-2,0.1-3.3,0.1s-2.7,0.1-4.1,0.1l-4.1,0.1h-3.3l0.1,1.5
			c0.8,0,1.9,0,3.2,0l4.1-0.1l4.1-0.1c1.3,0,2.4-0.1,3.3-0.1V201.9z M484.9,198.9c-1.4-0.4-2.7-0.9-4-1.4s-2.6-1-3.9-1.6l-0.5,1.6
			c1.3,0.6,2.6,1.1,3.9,1.5s2.6,0.9,3.9,1.4L484.9,198.9z M499.9,209.2h-6.3l-0.7,0.7l0.7,0.8l6.3,0.1V209.2z M492.1,225.7h1.4V194
			h-1.4V225.7z M475.5,212c0.2,0.6,0.6,1.1,1,1.5c0.5,0.5,1,0.8,1.6,1.1c1.4,0.6,3,0.6,4.4,0c0.6-0.3,1.2-0.6,1.6-1.1
			c0.4-0.4,0.8-0.9,1-1.5c0.4-1.1,0.4-2.3,0-3.4c-0.2-0.6-0.6-1.1-1-1.5c-0.5-0.5-1-0.8-1.6-1.1c-1.4-0.6-3-0.6-4.4,0
			c-0.6,0.3-1.2,0.6-1.6,1.1c-0.4,0.4-0.8,0.9-1,1.5C475.1,209.7,475.1,210.9,475.5,212 M476.8,209.2c0.2-0.4,0.4-0.8,0.7-1.1
			c0.3-0.3,0.7-0.6,1.2-0.8c1.1-0.4,2.3-0.4,3.4,0c0.4,0.2,0.8,0.5,1.2,0.8c0.3,0.3,0.5,0.7,0.7,1.1c0.3,0.7,0.3,1.5,0,2.2
			c-0.3,0.9-1,1.5-1.8,1.9c-1.1,0.4-2.3,0.4-3.4,0c-0.8-0.3-1.5-1-1.8-1.9C476.5,210.7,476.5,209.9,476.8,209.2 M489.9,217.7
			c-1.9,0.3-3.7,0.6-5.3,0.8s-3.2,0.4-4.8,0.6s-3.1,0.3-4.8,0.4s-3.4,0.2-5.3,0.3l0.3,1.5c1.9-0.1,3.6-0.2,5.2-0.3s3.2-0.3,4.7-0.4
			s3.1-0.4,4.7-0.6s3.3-0.5,5.2-0.8L489.9,217.7z M480.1,165.2c0.4,0.7,0.9,1.4,1.5,1.9c0.7,0.5,1.4,0.9,2.2,1.2
			c1.8,0.6,3.7,0.6,5.5,0c0.8-0.3,1.6-0.7,2.2-1.2c0.6-0.5,1.1-1.2,1.5-1.9c0.7-1.5,0.7-3.3,0-4.9c-0.4-0.7-0.9-1.4-1.5-1.9
			c-0.7-0.5-1.4-0.9-2.2-1.2c-1.8-0.6-3.7-0.6-5.5,0c-0.8,0.3-1.6,0.7-2.2,1.2c-0.6,0.5-1.1,1.2-1.5,1.9
			C479.4,161.8,479.4,163.6,480.1,165.2 M481.4,160.9c0.3-0.6,0.7-1,1.2-1.4c0.5-0.4,1.2-0.7,1.8-0.9c1.4-0.4,3-0.4,4.4,0
			c0.6,0.2,1.2,0.5,1.8,0.9c0.5,0.4,0.9,0.9,1.2,1.4c0.6,1.2,0.6,2.5,0,3.7c-0.3,0.6-0.7,1-1.2,1.4c-0.5,0.4-1.1,0.7-1.8,0.9
			c-1.4,0.4-3,0.4-4.4,0c-0.6-0.2-1.3-0.5-1.8-0.9c-0.5-0.4-0.9-0.9-1.2-1.4C480.8,163.4,480.8,162,481.4,160.9 M492.2,187h1.4
			v-13.8h-1.4V187z M481.9,176.4c-0.6,1.7-1.3,3.4-2.2,4.9c-0.9,1.6-2,3.2-3.3,4.6l1.3,0.8c1.2-1.5,2.3-3.1,3.2-4.8
			c0.9-1.6,1.7-3.3,2.3-5.1L481.9,176.4z M493.6,172.6c-2,0.1-4.1,0.2-6.2,0.3L481,173l-6.3,0.1c-2.1,0-4.1,0-6,0l0.2,1.5l6-0.1
			l6.2-0.1c2.1-0.1,4.2-0.1,6.3-0.2l6.2-0.2L493.6,172.6z M472.8,136.6c2.4-1.9,4.4-4.2,5.9-6.8c1.5-2.8,2.4-5.9,2.9-9l-1.4-0.3
			c-0.2,1.6-0.6,3.1-1,4.7c-0.4,1.3-0.9,2.6-1.6,3.9c-0.7,1.2-1.5,2.3-2.4,3.4c-1,1.1-2.1,2.1-3.3,3.1L472.8,136.6z M488,134
			l-6.6-5.9l-1,1.1c1.1,0.9,2.1,1.9,3.2,2.8s2.1,2,3.3,3.1L488,134z M492.1,140.6h1.4V118h-1.4V140.6z M495.6,145.2
			c-1,0.1-2.2,0.1-3.7,0.2s-2.9,0.1-4.5,0.2s-3,0.1-4.5,0.1s-2.7,0-3.8-0.1v1.5c1,0,2.3,0.1,3.7,0.1s3,0,4.5-0.1s3-0.1,4.5-0.1
			s2.7-0.1,3.7-0.2V145.2z M479.3,146.7h1.4v-8.4h-1.4V146.7z M499.9,129.7h-6.3l-0.7,0.7l0.7,0.8l6.3,0.1V129.7z"/>
		<path class="st1" d="M875.8,249.3c2.9-1,5.5-2.9,7.5-5.3c1.9-2.4,3.2-5.3,3.8-8.4l-1.4-0.3c-0.5,2.9-1.7,5.6-3.5,7.9
			c-1.9,2.2-4.3,3.9-7.1,4.9L875.8,249.3z M895.4,247.7l-8.4-5.7l-0.8,1.3l2,1.3c0.7,0.5,1.4,1,2.1,1.5l2.2,1.5l2,1.5L895.4,247.7z
			 M868.8,257.4c2.4,0,4.8,0,7.3,0s5-0.1,7.5-0.2s5-0.1,7.5-0.2s4.9-0.2,7.2-0.4v1.5c-2.3,0.2-4.6,0.3-7.1,0.4s-4.9,0.2-7.4,0.2
			c-2.5,0.1-5,0.1-7.5,0.1c-2.5,0-4.9,0-7.3,0L868.8,257.4z M871.2,212.8c2.5-1.9,4.6-4.3,6.1-7c1.5-2.9,2.5-6,2.9-9.2l-1.4-0.3
			c-0.2,1.6-0.6,3.2-1,4.8c-0.4,1.4-1,2.8-1.7,4.1c-0.7,1.3-1.5,2.4-2.5,3.5c-1,1.1-2.2,2.2-3.4,3.1L871.2,212.8z M886.8,211
			l-6.2-6.4l-1,1l3,3.1c1,1,2,2.1,3.1,3.3L886.8,211z M894.8,221.3c-1,0.1-2.3,0.1-3.7,0.2s-3,0.1-4.5,0.2s-3.1,0.1-4.6,0.1
			s-2.8,0-3.8,0v1.5c1,0.1,2.3,0.1,3.8,0.1s3,0,4.6-0.1s3.1-0.1,4.6-0.1s2.7-0.1,3.7-0.2V221.3z M891.9,201.9h-7v1.5h7V201.9z
			 M878.1,222.8h1.4v-8.1h-1.4V222.8z M891.3,216.6h1.4v-22.6h-1.4V216.6z M880.5,177.2c0.8-0.4,1.5-0.9,2.1-1.5
			c0.6-0.6,1-1.4,1.3-2.2c0.6-1.8,0.6-3.7,0-5.4c-0.3-0.8-0.8-1.6-1.3-2.2c-0.6-0.6-1.3-1.1-2.1-1.5c-2.6-1.2-5.6-0.6-7.5,1.5
			c-0.6,0.6-1,1.4-1.3,2.2c-0.6,1.8-0.6,3.7,0,5.4c0.3,0.8,0.8,1.6,1.3,2.2C875,177.7,878,178.3,880.5,177.2 M880,165.5
			c0.6,0.3,1.2,0.7,1.6,1.2c0.4,0.5,0.8,1.1,1,1.8c0.5,1.4,0.5,3,0,4.4c-0.2,0.7-0.6,1.3-1,1.8c-1,1.1-2.3,1.7-3.8,1.6
			c-0.7,0-1.5-0.1-2.1-0.4c-0.6-0.3-1.2-0.7-1.6-1.2c-0.4-0.5-0.8-1.1-1-1.8c-0.5-1.4-0.5-3,0-4.4c0.2-0.7,0.6-1.3,1-1.8
			c0.5-0.5,1-0.9,1.6-1.2c0.7-0.3,1.4-0.5,2.1-0.4C878.6,165.1,879.3,165.2,880,165.5 M891.3,187.7h1.4v-31.7h-1.4V187.7z
			 M886.7,139.5c-1,0.1-2,0.3-3.2,0.4s-2.3,0.3-3.4,0.4l-3.4,0.3c-1.1,0.1-2.2,0.1-3.2,0.2v-7.4H872v8.9c1,0,2.2-0.1,3.5-0.2
			l3.9-0.3c1.3-0.1,2.7-0.2,4-0.4s2.5-0.3,3.5-0.4L886.7,139.5z M884.5,132.2c-2,0.2-4.1,0.3-6.3,0.3s-4.2,0.1-6.2,0.1v1.5
			c1.9,0,4-0.1,6.2-0.1s4.3-0.1,6.3-0.3V132.2z M883.1,132.9h1.4v-7.6h-1.4V132.9z M884.5,124.6c-2.1,0.1-4.3,0.2-6.5,0.2
			c-2.2,0-4.3,0.1-6.3,0.1l0.1,1.5c2,0,4.1-0.1,6.2-0.1s4.3-0.1,6.4-0.2L884.5,124.6z M899,132.4h-6.3l-0.7,0.7l0.7,0.8l6.3,0.1
			V132.4z M891.3,149.7h1.4v-31.7h-1.4V149.7z"/>
		<path class="st1" d="M919.1,219.7h1.4v-4h-1.4V219.7z M926.4,201.9c-0.9,0.1-2,0.1-3.3,0.1c-1.3,0.1-2.7,0.1-4.1,0.1l-4.1,0.1
			c-1.3,0-2.4,0-3.3,0l0.1,1.5c0.8,0,1.9,0,3.2,0l4.1-0.1l4.1-0.1c1.3,0,2.4-0.1,3.3-0.1L926.4,201.9z M924,198.9
			c-1.4-0.4-2.7-0.9-4-1.4c-1.3-0.5-2.6-1-3.9-1.6l-0.5,1.6c1.3,0.6,2.6,1.1,3.9,1.5s2.6,0.9,3.9,1.4L924,198.9z M939,209.2h-6.3
			l-0.7,0.7l0.7,0.8l6.3,0.1V209.2z M931.3,225.8h1.4v-31.7h-1.4V225.8z M914.7,212c0.2,0.6,0.6,1.1,1,1.5c0.5,0.5,1,0.8,1.6,1.1
			c1.4,0.6,3,0.6,4.5,0c0.6-0.3,1.2-0.6,1.6-1.1c0.4-0.4,0.8-0.9,1-1.5c0.2-0.5,0.3-1.1,0.3-1.7c0-0.6-0.1-1.1-0.3-1.7
			c-0.2-0.6-0.6-1.1-1-1.5c-0.5-0.5-1-0.8-1.6-1.1c-1.4-0.6-3-0.6-4.5,0c-0.6,0.3-1.2,0.6-1.6,1.1c-0.4,0.4-0.8,0.9-1,1.5
			c-0.2,0.5-0.3,1.1-0.3,1.7C914.3,210.9,914.4,211.5,914.7,212 M916,209.2c0.2-0.4,0.4-0.8,0.7-1.1c0.3-0.3,0.7-0.6,1.2-0.8
			c1.1-0.4,2.3-0.4,3.4,0c0.4,0.2,0.8,0.5,1.2,0.8c0.3,0.3,0.5,0.7,0.7,1.1c0.1,0.4,0.2,0.7,0.2,1.1c0,0.4-0.1,0.8-0.2,1.1
			c-0.2,0.4-0.4,0.8-0.7,1.1c-0.3,0.3-0.7,0.6-1.2,0.8c-1.1,0.4-2.3,0.4-3.4,0c-0.9-0.3-1.5-1-1.8-1.9c-0.1-0.4-0.2-0.7-0.2-1.1
			C915.8,209.9,915.9,209.6,916,209.2 M929.1,217.7c-1.9,0.3-3.7,0.6-5.3,0.8s-3.2,0.4-4.8,0.6s-3.1,0.3-4.8,0.4s-3.4,0.2-5.3,0.3
			l0.3,1.5c1.9-0.1,3.6-0.2,5.2-0.3s3.2-0.3,4.7-0.4s3.1-0.4,4.7-0.6s3.3-0.5,5.2-0.8L929.1,217.7z M919.3,165.2
			c0.4,0.7,0.9,1.4,1.5,1.9c0.7,0.5,1.4,1,2.2,1.2c1.8,0.6,3.7,0.6,5.5,0c0.8-0.3,1.6-0.7,2.2-1.2c0.6-0.5,1.1-1.2,1.5-1.9
			c0.7-1.5,0.7-3.3,0-4.9c-0.4-0.7-0.9-1.4-1.5-1.9c-0.7-0.5-1.4-1-2.2-1.2c-1.8-0.6-3.7-0.6-5.5,0c-0.8,0.3-1.6,0.7-2.2,1.2
			c-0.6,0.5-1.1,1.2-1.5,1.9C918.5,161.8,918.5,163.6,919.3,165.2 M920.6,160.9c0.3-0.6,0.7-1,1.2-1.4c0.5-0.4,1.2-0.7,1.8-0.9
			c1.4-0.4,3-0.4,4.4,0c0.6,0.2,1.2,0.5,1.8,0.9c0.5,0.4,0.9,0.9,1.2,1.4c0.3,0.6,0.5,1.2,0.5,1.9c0,0.6-0.2,1.3-0.5,1.9
			c-0.3,0.6-0.7,1-1.2,1.4c-0.5,0.4-1.1,0.7-1.8,0.9c-1.4,0.4-3,0.4-4.4,0c-0.6-0.2-1.3-0.5-1.8-0.9c-0.5-0.4-0.9-0.9-1.2-1.4
			c-0.3-0.6-0.4-1.2-0.4-1.9C920.1,162.1,920.3,161.4,920.6,160.9 M931.3,187h1.4v-13.8h-1.4V187z M921,176.4
			c-0.6,1.7-1.3,3.4-2.2,4.9c-0.9,1.7-2.1,3.2-3.3,4.7l1.3,0.8c1.2-1.5,2.3-3.1,3.2-4.8c0.9-1.6,1.7-3.3,2.3-5.1L921,176.4z
			 M932.7,172.6c-2,0.1-4.1,0.2-6.2,0.3l-6.3,0.2l-6.3,0.1c-2.1,0-4.1,0-6,0l0.2,1.5l6-0.1c2.1,0,4.1-0.1,6.2-0.1s4.2-0.1,6.3-0.2
			l6.2-0.2L932.7,172.6z M912,136.6c2.4-1.9,4.4-4.2,5.9-6.8c1.5-2.8,2.4-5.9,2.9-9l-1.4-0.3c-0.2,1.6-0.6,3.1-1,4.7
			c-0.4,1.3-0.9,2.6-1.6,3.9c-0.7,1.2-1.4,2.3-2.3,3.4c-1,1.1-2.1,2.1-3.3,3.1L912,136.6z M927.2,134l-6.6-5.9l-1,1.1
			c1.1,0.9,2.1,1.9,3.2,2.8s2.1,2,3.3,3.1L927.2,134z M931.3,140.5h1.4v-22.5h-1.4V140.5z M934.8,145.2c-1,0.1-2.2,0.1-3.7,0.2
			s-2.9,0.1-4.4,0.2s-3,0.1-4.5,0.1s-2.7,0-3.8,0v1.5c1,0.1,2.3,0.1,3.7,0.1s3,0,4.5-0.1s3-0.1,4.5-0.1s2.7-0.1,3.7-0.2V145.2z
			 M918.4,146.7h1.4v-8.4h-1.4V146.7z M939,129.7h-6.3l-0.7,0.7l0.7,0.8l6.3,0.1V129.7z"/>
		<polygon class="st1" points="642.3,228.2 642.3,151.9 638.8,151.9 618.1,167.8 619.7,169.8 639.1,154.9 639.1,228.2 		"/>
		<path class="st1" d="M689,138.7c-6.7-6.6-14.5-12-23.2-15.7c-18-7.7-38.3-7.7-56.2,0c-17.5,7.5-31.4,21.4-38.8,38.9
			c-7.7,18-7.7,38.3,0,56.2c7.5,17.5,21.4,31.4,38.8,38.8c18,7.7,38.3,7.7,56.2,0c17.5-7.5,31.4-21.4,38.8-38.9
			c7.7-18,7.7-38.3,0-56.2C700.9,153.2,695.6,145.4,689,138.7z M702.7,217.3c-7.2,16.9-20.7,30.4-37.7,37.6
			c-17.4,7.5-37.2,7.5-54.6,0c-16.9-7.2-30.4-20.7-37.6-37.6c-7.5-17.4-7.5-37.2,0-54.6c7.2-16.9,20.7-30.4,37.6-37.7
			c17.4-7.5,37.2-7.5,54.6,0l0,0c16.9,7.2,30.4,20.7,37.6,37.6C710.1,180.1,710.1,199.8,702.7,217.3L702.7,217.3z"/>
		<path class="st1" d="M223.7,220.7h-43.3l26.5-23.8c3.9-3.5,7.5-7.4,10.6-11.6c2.7-3.5,4.1-7.7,4.1-12.1c0-2.8-0.5-5.6-1.4-8.2
			c-0.9-2.5-2.3-4.8-4.2-6.7c-2-2-4.3-3.5-6.9-4.6c-3.1-1.2-6.4-1.8-9.8-1.7c-7.3,0-12.8,2.1-16.8,6.3c-3.6,4-5.7,9.1-5.9,14.5h3.7
			c0.3-5.4,2-9.6,5-12.7c3.4-3.4,8.1-5.2,14.1-5.2s10.7,1.7,14,5s5.1,7.7,5.1,13.2c0,4.4-1.5,8.6-4.2,12c-2.9,3.6-6.2,6.9-9.6,10
			l-27.9,25.2v3.9h46.8L223.7,220.7z"/>
		<path class="st1" d="M265.5,218.1c7.7-18,7.7-38.3,0-56.2c-7.5-17.5-21.4-31.4-38.9-38.9c-18-7.7-38.3-7.7-56.2,0
			c-17.5,7.5-31.4,21.4-38.8,38.9c-7.7,18-7.7,38.3,0,56.2c7.5,17.5,21.4,31.4,38.9,38.8c18,7.7,38.3,7.7,56.2,0
			C244.1,249.4,258,235.5,265.5,218.1L265.5,218.1z M225.9,254.9c-17.4,7.5-37.2,7.5-54.6,0c-16.9-7.2-30.4-20.7-37.6-37.6
			c-7.5-17.4-7.5-37.2,0-54.6c7.2-16.9,20.7-30.4,37.6-37.7c17.4-7.5,37.2-7.5,54.6,0l0,0c16.9,7.2,30.4,20.7,37.6,37.6
			c7.5,17.4,7.5,37.2,0,54.6C256.3,234.2,242.8,247.7,225.9,254.9L225.9,254.9z"/>
		<rect x="4" y="40.3" class="st6" width="939" height="520"/>
		<line class="st2" x1="0" y1="0.2" x2="943.3" y2="0.2"/>
	</g>
</g>
<text transform="matrix(1 0 0 1 121.19 354.49)"><tspan x="0" y="0" class="st7 st8">상업적인 인쇄, 출판, 전자출판, 웹 이미지와 CI, BI, </tspan><tspan x="0" y="26" class="st7 st8">간판, 영상, 디바이스, 게임, 애플리케이션, 웹폰트, </tspan><tspan x="0" y="52" class="st7 st8">상업용 2차 제작물 등에 사용하실 수 있습니다. </tspan><tspan x="0" y="104" class="st7 st8">*단, 서버 등을 통한 재판매는 제외합니다.</tspan><tspan x="0" y="130" class="st7 st8">*글꼴은 마켓히읗(http://markethiut.com/)에서 </tspan><tspan x="0" y="156" class="st7 st8"> 구입하실 수 있습니다.</tspan></text>
<text transform="matrix(1 0 0 1 561.7501 354.49)"><tspan x="0" y="0" class="st7 st8">상업적인 인쇄, 출판, 웹 이미지에 </tspan><tspan x="0" y="26" class="st7 st8">사용하실 수 있습니다.</tspan></text>
</svg>
