<?xml version="1.0" encoding="utf-8"?>
<!-- Generator: Adobe Illustrator 22.0.1, SVG Export Plug-In . SVG Version: 6.00 Build 0)  -->
<svg version="1.1" id="Layer_1" xmlns="http://www.w3.org/2000/svg" xmlns:xlink="http://www.w3.org/1999/xlink" x="0px" y="0px"
	 viewBox="0 0 943.3 499.6" style="enable-background:new 0 0 943.3 499.6;" xml:space="preserve">
<style type="text/css">
	.st0{clip-path:url(#SVGID_2_);}
	.st1{fill:#231916;}
	.st2{fill:none;stroke:#231916;stroke-width:0.3;}
	.st3{fill:#44403F;}
	.st4{clip-path:url(#SVGID_4_);}
	.st5{fill:#FFFFFF;}
	.st6{fill:none;stroke:#FFFFFF;}
</style>
<title>columns-2</title>
<g id="Layer_2_1_">
	<g id="Layer_1-2">
		<g>
			<defs>
				<polygon id="SVGID_1_" points="0,0 943.3,-0.1 943.3,499.6 0,499.6 				"/>
			</defs>
			<clipPath id="SVGID_2_">
				<use xlink:href="#SVGID_1_"  style="overflow:visible;"/>
			</clipPath>
			<g class="st0">
				<path class="st1" d="M13.6,326.5c0.1,0.2,0.3,0.5,0.4,0.7c0.2,0.2,0.4,0.3,0.6,0.4c0.5,0.2,1.1,0.2,1.6,0
					c0.2-0.1,0.5-0.3,0.6-0.4c0.2-0.2,0.3-0.4,0.4-0.7c0.2-0.5,0.2-1.1,0-1.6c-0.1-0.2-0.3-0.5-0.4-0.7c-0.2-0.2-0.4-0.3-0.6-0.4
					c-0.5-0.2-1.1-0.2-1.6,0c-0.2,0.1-0.5,0.3-0.6,0.4c-0.2,0.2-0.3,0.4-0.4,0.7C13.4,325.4,13.4,325.9,13.6,326.5 M16.5,326.6
					c-0.5,0.5-1.4,0.5-1.9,0c-0.5-0.5-0.5-1.4,0-1.9c0.5-0.5,1.4-0.5,1.9,0C17,325.2,17,326.1,16.5,326.6 M10.2,306
					c-0.9,0.1-1.9,0.1-2.9,0.1s-2,0-2.9,0v0.9h1.4h1.5l1.5,0l1.4-0.1V306z M11.8,312.3c-1.1,0.4-2.3,0.7-3.4,0.9
					c-1.3,0.2-2.6,0.3-3.9,0.2v0.7c1.3,0,2.7-0.1,4-0.3c1.2-0.2,2.4-0.5,3.6-0.9L11.8,312.3z M4.4,314.2l0.7-0.2v-7.2H4.4L4.4,314.2
					z M18.2,310h-3.3l-0.4,0.4l0.4,0.4h3.3V310z M14.1,318.8h0.7v-16.7h-0.7V318.8z M12,292.2c-1.2,0.4-2.4,0.7-3.6,0.9
					c-1.3,0.2-2.6,0.4-3.9,0.4v0.7c1.3-0.1,2.7-0.2,4-0.5c1.3-0.2,2.5-0.5,3.7-0.9L12,292.2z M4.5,294.2l0.7-0.2v-8H4.5L4.5,294.2z
					 M14.2,298.8h0.7v-16.6h-0.7V298.8z M16,267.1l-4.2-2.2l-0.4,0.7l2,1.1l2.1,1.1L16,267.1z M6.3,267.9c1.3-0.4,2.6-1.1,3.6-2.1
					c1-1,1.6-2.2,1.9-3.6l-0.7-0.2c-0.2,0.6-0.4,1.3-0.7,1.9c-0.3,0.5-0.6,1-1,1.4c-0.4,0.4-0.9,0.8-1.4,1.1
					c-0.6,0.3-1.3,0.6-1.9,0.8L6.3,267.9z M14.8,278.3H7.4v-0.8h7.4L14.8,278.3z M14.8,275c-0.5,0-1.1,0-1.7,0.1h-2h-2H7.5v-0.8h1.7
					h2l2-0.1l1.7-0.1L14.8,275z M14.8,277.8h-0.7v-5.6h0.7V277.8z M7.4,272.5h0.7v5.4H7.4L7.4,272.5z M1.8,270h3.9l4.1-0.1
					c1.4,0,2.8-0.1,4.1-0.1s2.6-0.1,3.9-0.2v0.8c-1.2,0.1-2.5,0.1-3.8,0.2s-2.7,0.1-4.1,0.1l-4.1,0.1H1.9L1.8,270z M12,250.6
					l-3.5-2.9L8,248.4c0.6,0.5,1.1,0.9,1.7,1.4s1.1,1,1.7,1.5L12,250.6z M11.3,244.3l-1.6,0.1l-1.9,0.1l-1.9,0H4.3l0.1,0.8h1.6
					l1.9-0.1l1.9-0.1l1.6-0.1V244.3z M4,252.1c1.2-0.8,2.2-1.8,3-3c0.7-1.3,1.2-2.7,1.5-4.1l-0.8-0.1c-0.1,0.7-0.3,1.4-0.5,2.1
					c-0.2,0.6-0.5,1.2-0.8,1.7c-0.3,0.5-0.7,1-1.2,1.5c-0.5,0.5-1,0.9-1.6,1.3L4,252.1z M14.1,252.1h0.7v-10h-0.7V252.1z
					 M14.8,253.4l-2,0.1l-2.4,0.1H8.2H6.3l0.1,0.8h1.9l2.3,0l2.3-0.1l2-0.1L14.8,253.4z M14.1,258.6h0.7v-4.7h-0.7V258.6z
					 M18.2,247.6h-3.3l-0.4,0.4l0.4,0.4h3.3L18.2,247.6z M8.5,222.5h1.6l1.7,0l1.6-0.1l1.5-0.1v-0.8l-1.5,0.1l-1.6,0.1l-1.7,0H8.5
					V222.5z M15.3,224.7l-1.9,0.1c-0.7,0-1.5,0.1-2.3,0.1H8.9c-0.7,0-1.4,0-1.9,0v0.8c0.6,0,1.2,0,1.9,0h2.3l2.3-0.1
					c0.7,0,1.4-0.1,1.9-0.1V224.7z M15.1,218.2l-1.8,0.1l-2.3,0.1H8.7H6.9v0.8h1.8H11l2.3,0c0.7,0,1.3,0,1.8-0.1L15.1,218.2z
					 M6.9,225.7l0.7-0.2v-6.7H6.9L6.9,225.7z M2.4,230.1h3.8l3.9-0.1c1.3,0,2.6-0.1,3.9-0.1s2.5-0.1,3.7-0.2v-0.8
					c-1.2,0.1-2.5,0.1-3.8,0.2s-2.6,0.1-3.9,0.1l-3.9,0.1H2.3L2.4,230.1z M3,206.1c1.2-0.8,2.2-2,2.9-3.3c0.6-1.4,1-2.9,1-4.5
					L6,198.2c0,0.8-0.1,1.5-0.3,2.3c-0.1,0.7-0.4,1.3-0.7,1.9c-0.3,0.6-0.6,1.1-1.1,1.6c-0.5,0.5-1,1-1.6,1.4L3,206.1z M9.7,205.2
					l-2.5-2.8L6.6,203l1.2,1.4l1.2,1.4L9.7,205.2z M11.6,200.8H8.9v0.8h2.7L11.6,200.8z M11.2,206.9h0.7v-9.6h-0.7L11.2,206.9z
					 M14.1,207.7h0.7v-11.6h-0.7V207.7z M16,210.4l-1.9,0.1c-0.7,0-1.5,0.1-2.3,0.1H9.4c-0.8,0-1.4,0-2,0v0.8c0.6,0,1.2,0,2,0h2.4
					l2.4-0.1c0.8,0,1.4-0.1,1.9-0.1L16,210.4z M7.4,211.2h0.7v-3.9H7.4L7.4,211.2z M9.3,188.2l0.3-6.5H8.8l-0.2,6.5H9.3z
					 M11.8,187.4l-2.4,0.3c-0.7,0.1-1.4,0.2-2.2,0.2L5,188.2l-2.5,0.2l0.2,0.8l2.5-0.2l2.2-0.2l2.1-0.3l2.4-0.3L11.8,187.4z
					 M6.1,188.4L5.5,182l-0.8,0.1l0.6,6.3L6.1,188.4z M10.8,179.9c-0.5,0-1,0.1-1.7,0.1l-2,0.1l-2,0.1H3.4l0.1,0.8h1.7l2-0.1l2-0.1
					l1.7-0.1L10.8,179.9z M14.3,183.3h-3.4v0.8h3.3L14.3,183.3z M14.2,192.8h0.7v-16.6h-0.7V192.8z M15.3,170.6
					c-0.2,0.4-0.5,0.8-0.9,1.1c-0.5,0.3-1,0.6-1.6,0.7c-0.8,0.2-1.7,0.3-2.5,0.3c-0.8,0-1.7-0.1-2.5-0.3c-0.6-0.1-1.1-0.4-1.6-0.7
					c-0.4-0.3-0.7-0.6-0.9-1.1c-0.3-0.9-0.3-1.9,0-2.7c0.2-0.4,0.5-0.8,0.9-1.1c0.5-0.3,1-0.6,1.6-0.7c0.8-0.2,1.7-0.3,2.5-0.3
					c0.8,0,1.7,0.1,2.5,0.3c0.6,0.1,1.1,0.4,1.6,0.7c0.4,0.3,0.7,0.6,0.9,1.1C15.6,168.8,15.6,169.7,15.3,170.6 M4.5,171
					c0.2,0.5,0.6,1,1,1.3c0.6,0.4,1.2,0.7,1.9,0.9c0.9,0.2,1.9,0.3,2.8,0.3c1,0,1.9-0.1,2.9-0.3c0.7-0.2,1.3-0.4,1.9-0.9
					c0.4-0.3,0.8-0.8,1-1.3c0.4-1.1,0.4-2.2,0-3.3c-0.2-0.5-0.6-1-1-1.3c-0.6-0.4-1.2-0.7-1.9-0.9c-0.9-0.2-1.9-0.3-2.9-0.3
					c-1,0-1.9,0.1-2.8,0.3c-0.7,0.2-1.3,0.4-1.9,0.9c-0.4,0.3-0.8,0.8-1,1.3C4.1,168.8,4.1,169.9,4.5,171 M10,156.8
					c0,0.5-0.1,0.9-0.2,1.4c-0.1,0.4-0.3,0.8-0.5,1.1c-0.2,0.3-0.5,0.5-0.8,0.7c-0.6,0.3-1.4,0.3-2,0c-0.3-0.2-0.6-0.4-0.8-0.7
					c-0.2-0.3-0.4-0.6-0.5-1C5.1,158,5,157.6,5,157.2c0-0.4,0-0.8,0.2-1.2c0.1-0.3,0.3-0.6,0.5-0.9c0.2-0.3,0.4-0.5,0.7-0.7
					c0.2-0.2,0.5-0.3,0.7-0.4l-0.3-0.8c-0.3,0.1-0.6,0.3-0.9,0.5c-0.3,0.2-0.6,0.5-0.8,0.8c-0.2,0.3-0.4,0.7-0.6,1.1
					c-0.1,0.5-0.2,1-0.2,1.5c0,0.5,0.1,1.1,0.3,1.6c0.2,0.5,0.4,0.9,0.7,1.2c0.3,0.3,0.6,0.6,1,0.8c0.4,0.2,0.8,0.3,1.2,0.3
					c0.4,0,0.7-0.1,1.1-0.2c0.3-0.1,0.6-0.3,0.9-0.6c0.2-0.2,0.5-0.5,0.6-0.8c0.1-0.3,0.2-0.6,0.3-0.9h0.1c0.1,0.3,0.2,0.5,0.3,0.8
					c0.2,0.3,0.4,0.5,0.6,0.7c0.3,0.2,0.5,0.4,0.9,0.5c0.3,0.1,0.7,0.2,1,0.2c0.4,0,0.8-0.1,1.1-0.2c0.4-0.2,0.7-0.4,1-0.7
					c0.3-0.3,0.5-0.7,0.7-1.1c0.2-0.5,0.3-1,0.3-1.5c0-0.5-0.1-0.9-0.2-1.4c-0.1-0.4-0.4-0.7-0.6-1c-0.2-0.3-0.5-0.5-0.8-0.7
					c-0.3-0.2-0.6-0.3-0.9-0.4l-0.3,0.8c0.3,0.1,0.5,0.2,0.8,0.3c0.3,0.1,0.5,0.3,0.7,0.6c0.2,0.2,0.4,0.5,0.5,0.8
					c0.1,0.3,0.2,0.7,0.2,1.1c0,0.4-0.1,0.7-0.2,1.1c-0.1,0.3-0.3,0.6-0.5,0.9c-0.2,0.2-0.5,0.4-0.7,0.6c-0.3,0.1-0.6,0.2-0.9,0.2
					c-0.3,0-0.7-0.1-0.9-0.2c-0.3-0.2-0.6-0.4-0.8-0.7c-0.2-0.3-0.4-0.6-0.5-1c-0.1-0.4-0.2-0.8-0.2-1.3v-1.1H10V156.8z M8.4,129
					c0.6,0.2,1.1,0.7,1.3,1.3c0.3,0.6,0.3,1.3,0,1.9c-0.2,0.6-0.7,1.1-1.3,1.3c-0.6,0.3-1.4,0.3-2,0c-0.6-0.2-1.1-0.7-1.3-1.3
					c-0.3-0.6-0.3-1.3,0-1.9c0.3-0.6,0.7-1.1,1.4-1.3C7,128.7,7.8,128.7,8.4,129 M8.7,134.1c0.4-0.2,0.7-0.4,1-0.7
					c0.3-0.3,0.5-0.6,0.7-1c0.3-0.8,0.3-1.6,0-2.4c-0.2-0.4-0.4-0.7-0.7-1c-0.3-0.3-0.6-0.5-1-0.7c-0.8-0.3-1.7-0.3-2.5,0
					c-0.4,0.2-0.7,0.4-1,0.7c-0.3,0.3-0.5,0.6-0.7,1c-0.3,0.8-0.3,1.6,0,2.4c0.2,0.4,0.4,0.7,0.7,1c0.3,0.3,0.6,0.5,1,0.7
					C7,134.5,7.9,134.5,8.7,134.1 M14.2,135.4h0.7v-9.3h-0.7V135.4z M14.9,136.7l-1.9,0.1l-2.3,0.1L8.4,137H6.5l0.1,0.8h1.9h2.2
					l2.3-0.1l1.9-0.1L14.9,136.7z M14.2,142.3h0.7v-5h-0.7V142.3z M18.2,128.9h-3.3l-0.4,0.4l0.4,0.4h3.2L18.2,128.9z M18.2,132.5
					h-3.3l-0.4,0.4l0.4,0.4h3.2L18.2,132.5z M11,107.7h3.6V107h-3.7L11,107.7z M11,104.3h3.6v-0.8h-3.7L11,104.3z M4.2,108.1h0.7
					v-5.6H4.2V108.1z M10,102.4c-0.9,0.1-1.9,0.1-2.9,0.1H4.2l0.1,0.8h2.9c1,0,1.9,0,2.9-0.1V102.4z M9.2,108.2H10v-5.3H9.2V108.2z
					 M10,107.8H4.2v0.8H10L10,107.8z M14.1,112h0.7v-11.9h-0.7V112z M16,114.4l-1.9,0.1c-0.7,0-1.5,0.1-2.3,0.1H9.4
					c-0.8,0-1.4,0-2,0v0.8c0.6,0,1.2,0,2,0h2.4l2.4-0.1c0.8,0,1.4-0.1,1.9-0.1L16,114.4z M7.4,115.2h0.7V111H7.4L7.4,115.2z
					 M8.8,93.1c0.4-0.2,0.7-0.4,0.9-0.6c0.2-0.3,0.4-0.6,0.6-0.9c0.3-0.7,0.3-1.4,0-2.1c-0.1-0.3-0.3-0.7-0.6-0.9
					c-0.3-0.3-0.6-0.5-0.9-0.6c-0.4-0.2-0.8-0.3-1.3-0.2c-0.4,0-0.9,0.1-1.3,0.2c-0.4,0.2-0.7,0.4-0.9,0.6c-0.2,0.3-0.4,0.6-0.6,0.9
					c-0.3,0.7-0.3,1.4,0,2.1c0.1,0.3,0.3,0.7,0.6,0.9c0.3,0.3,0.6,0.5,0.9,0.6c0.4,0.2,0.8,0.3,1.3,0.2C8,93.4,8.4,93.3,8.8,93.1
					 M6.5,92.4c-0.3-0.1-0.5-0.3-0.7-0.5c-0.2-0.2-0.3-0.4-0.4-0.7c-0.1-0.2-0.1-0.5-0.1-0.8c0-0.3,0.1-0.5,0.1-0.8
					c0.1-0.3,0.2-0.5,0.4-0.7c0.2-0.2,0.4-0.4,0.7-0.5c0.3-0.1,0.7-0.2,1-0.2c0.3,0,0.7,0.1,1,0.2C8.8,88.6,9,88.8,9.2,89
					c0.2,0.2,0.3,0.4,0.4,0.7c0.1,0.2,0.1,0.5,0.1,0.8c0,0.3,0,0.5-0.1,0.8c-0.1,0.3-0.2,0.5-0.4,0.7c-0.2,0.2-0.4,0.4-0.7,0.5
					c-0.3,0.1-0.7,0.2-1,0.2C7.2,92.7,6.8,92.6,6.5,92.4 M18.2,88.1h-3.3l-0.4,0.4l0.4,0.4h3.3V88.1z M11.4,85.2l-1.8,0.1l-2.3,0.1
					H5H3.2l0.1,0.8h1.1h1.4h1.5h1.6h1.4h1.1L11.4,85.2z M9.7,83c-0.7-0.2-1.4-0.5-2.1-0.7s-1.3-0.5-2.1-0.8l-0.3,0.8
					c0.7,0.3,1.4,0.6,2.1,0.8s1.4,0.5,2.1,0.7L9.7,83z M14.1,96.8h0.7V80.1h-0.7V96.8z M9.7,68.6l0.3-4.5H9.2L9,68.5L9.7,68.6z
					 M6.2,68.9l-0.3-4.5L5,64.5L5.4,69L6.2,68.9z M12.2,68c-1.5,0.2-3,0.3-4.5,0.5S4.7,68.6,3,68.6l0.1,0.8c1.6,0,3.2-0.1,4.7-0.3
					s3-0.3,4.6-0.5L12.2,68z M11.1,62.2c-0.5,0-1,0.1-1.7,0.1l-2,0.1l-2,0.1H3.8l0.1,0.8h1.7l2-0.1l2-0.1l1.7-0.1L11.1,62.2z
					 M18.1,65.9h-3.3l-0.4,0.4l0.4,0.4h3.3L18.1,65.9z M14.1,72h0.7V60.1h-0.7V72z M16,74.4l-1.9,0.1c-0.7,0-1.5,0.1-2.3,0.1H9.4
					c-0.8,0-1.4,0-2,0v0.8c0.6,0,1.2,0,2,0h2.4l2.4-0.1c0.8,0,1.4-0.1,1.9-0.1L16,74.4z M7.4,75.2h0.7v-3.9H7.4L7.4,75.2z M15,42.7
					l-2,0.1l-2.3,0.1H8.5h-2l0.1,0.8h1.9h2.2l2.3-0.1l2-0.1V42.7z M16.1,48.7l-4.5-3l-0.4,0.7l1.1,0.7l1.1,0.8l1.1,0.8l1.1,0.7
					L16.1,48.7z M5.9,49.6c1.4-0.5,2.7-1.3,3.7-2.4c1-1.1,1.7-2.5,1.9-3.9l-0.7-0.2c-0.2,1.4-0.9,2.6-1.8,3.7c-1,1-2.1,1.7-3.4,2.2
					L5.9,49.6z M2.4,54.3h3.8l3.9-0.1c1.3,0,2.6-0.1,3.9-0.1s2.5-0.1,3.7-0.2v-0.8c-1.2,0.1-2.5,0.2-3.8,0.2s-2.6,0.1-3.9,0.1
					l-3.9,0.1H2.3L2.4,54.3z M10.6,53.6h0.7v-4.1h-0.7V53.6z"/>
				<path class="st1" d="M32.4,378.1h3.8l3.9-0.1c1.3,0,2.6-0.1,3.9-0.1s2.5-0.1,3.7-0.2v-0.8c-1.2,0.1-2.5,0.1-3.8,0.2
					s-2.6,0.1-3.9,0.1l-4,0.1h-3.8L32.4,378.1z M40.8,377.4h0.7v-3.1h-0.7V377.4z M45.4,372.8l-1.9,0.1c-0.7,0-1.5,0.1-2.3,0.1h-2.3
					c-0.7,0-1.4,0-2,0v0.8c0.5,0,1.2,0,1.9,0h2.3l2.3-0.1c0.7,0,1.4-0.1,1.9-0.1L45.4,372.8z M36.9,373.4h0.7v-3.3h-0.7V373.4z
					 M44.9,369.5c-0.5,0-1.2,0.1-1.9,0.1l-2.2,0.1h-2.2H37v0.8h1.8l2.2,0l2.2-0.1l1.9-0.1L44.9,369.5z M44.2,369.8h0.7v-3.3h-0.7
					V369.8z M44.9,366.2l-1.9,0.1l-2.2,0.1l-2.2,0h-1.9l0.1,0.8h1.8l2.2,0L43,367l1.9-0.1V366.2z M38.5,350.5h1.6l1.7,0l1.6-0.1
					l1.5-0.1v-0.8l-1.5,0.1l-1.6,0.1l-1.7,0h-1.6V350.5z M45.3,352.7l-1.9,0.1c-0.7,0-1.5,0.1-2.3,0.1h-2.3c-0.7,0-1.4,0-2,0v0.8
					c0.5,0,1.2,0,1.9,0h2.3l2.3-0.1c0.7,0,1.4-0.1,1.9-0.1L45.3,352.7z M45.1,346.2l-1.8,0.1l-2.3,0.1h-2.3h-1.8v0.8h1.8H41l2.3,0
					c0.7,0,1.3,0,1.8-0.1L45.1,346.2z M36.9,353.7l0.7-0.2v-6.7h-0.7V353.7z M32.4,358.1h3.8l3.9-0.1c1.3,0,2.6-0.1,3.9-0.1
					s2.5-0.1,3.7-0.2v-0.8c-1.2,0.1-2.5,0.1-3.8,0.2s-2.6,0.1-3.9,0.1l-4,0.1h-3.8L32.4,358.1z M34.3,330.7c0.2,0.4,0.4,0.7,0.7,1
					c0.3,0.3,0.6,0.5,1,0.7c0.8,0.3,1.7,0.3,2.5,0c0.4-0.2,0.7-0.4,1-0.7c0.3-0.3,0.5-0.6,0.7-1c0.3-0.8,0.3-1.7,0-2.5
					c-0.2-0.4-0.4-0.7-0.7-1c-0.3-0.3-0.6-0.5-1-0.7c-0.8-0.3-1.7-0.3-2.5,0c-0.4,0.2-0.7,0.4-1,0.7c-0.3,0.3-0.5,0.6-0.7,1
					C33.9,329,33.9,329.9,34.3,330.7 M35,328.5c0.1-0.3,0.3-0.6,0.5-0.8c0.2-0.2,0.5-0.4,0.8-0.5c0.6-0.3,1.4-0.3,2,0
					c0.3,0.1,0.6,0.3,0.8,0.5c0.2,0.2,0.4,0.5,0.5,0.8c0.3,0.6,0.3,1.3,0,1.9c-0.1,0.3-0.3,0.6-0.5,0.8c-0.2,0.2-0.5,0.4-0.8,0.5
					c-0.6,0.3-1.4,0.3-2,0c-0.3-0.1-0.6-0.3-0.8-0.5c-0.2-0.2-0.4-0.5-0.5-0.8C34.7,329.8,34.7,329.1,35,328.5 M46,338.4l-2,0.1
					c-0.8,0-1.6,0.1-2.4,0.1h-2.4c-0.8,0-1.4,0-2,0v0.8c0.5,0,1.2,0,2,0h2.4l2.4-0.1c0.8,0,1.4-0.1,2-0.1L46,338.4z M37.2,339.2H38
					V335h-0.7L37.2,339.2z M44.1,336h0.7v-11.9h-0.7V336z M45,312.2h-9v0.8h9V312.2z M43.3,312.6l0.4-4.8l-0.8-0.1l-0.4,4.8
					L43.3,312.6z M39.1,312.5l-0.3-4.6l-0.8,0.1l0.3,4.6L39.1,312.5z M45.1,306c-0.3,0-0.8,0-1.2,0.1l-1.5,0.1l-1.7,0.1h-1.7h-1.5
					h-1.2l0.1,0.8h1.2H39h1.7l1.7,0l1.5,0c0.5,0,0.9,0,1.2-0.1L45.1,306z M32.3,318.2h3.8l3.9-0.1c1.3,0,2.6-0.1,3.9-0.1
					s2.5-0.1,3.7-0.2v-0.8c-1.2,0.1-2.5,0.1-3.8,0.2s-2.6,0.1-3.9,0.1l-4,0.1h-3.8L32.3,318.2z M40.4,317.6h0.7v-3.8h-0.7V317.6z
					 M42.4,284.4c0.4-0.1,0.8-0.3,1.1-0.6c0.3-0.2,0.6-0.6,0.7-0.9c0.6-1.2,0.3-2.6-0.7-3.4c-0.3-0.3-0.7-0.5-1.1-0.6
					c-0.9-0.3-1.9-0.3-2.8,0c-0.4,0.1-0.8,0.3-1.1,0.6c-1,0.8-1.3,2.2-0.7,3.4c0.2,0.4,0.4,0.7,0.7,0.9c0.3,0.3,0.7,0.5,1.1,0.6
					C40.6,284.7,41.5,284.7,42.4,284.4 M39,283.3c-0.9-0.7-1.1-2-0.4-2.9c0.1-0.1,0.2-0.2,0.4-0.4c1.2-0.8,2.8-0.8,4,0
					c0.9,0.7,1.1,2,0.4,2.9c-0.1,0.1-0.2,0.2-0.4,0.4C41.8,284.1,40.3,284.1,39,283.3 M31.7,287.6h3.9l4.1-0.1
					c1.4,0,2.7-0.1,4.1-0.1s2.6-0.1,3.8-0.2v-0.8c-1.2,0.1-2.5,0.1-3.8,0.2s-2.7,0.1-4.1,0.1l-4.1,0.1h-3.9L31.7,287.6z M45.6,292.5
					l-2,0.1c-0.8,0-1.6,0.1-2.4,0.1h-2.4c-0.8,0-1.5,0-2,0v0.8c0.5,0,1.2,0,2,0h2.4l2.4-0.1c0.8,0,1.4-0.1,2-0.1L45.6,292.5z
					 M36.8,293.5h0.7v-4.3h-0.7V293.5z M34.2,267.1c1.5-0.7,2.9-1.6,4-2.8c1.1-1.1,1.8-2.5,2.1-4l-0.9,0.3c-0.2,1.3-0.8,2.5-1.7,3.4
					c-1.1,1.1-2.4,2-3.8,2.5L34.2,267.1z M40.4,260.3l-1.6,0.1l-1.5,0h-1.4h-1.4l0.1,0.8h2.6c0.8,0,1.7,0,2.7-0.1L40.4,260.3z
					 M38.6,271.1h1.6L42,271l1.6-0.1l1.5-0.1v-0.8c-0.9,0-1.9,0.1-3,0.1l-3.2,0.1L38.6,271.1z M45.7,272.9L44,273
					c-0.7,0-1.5,0.1-2.2,0.1h-2.2c-0.7,0-1.4,0-1.9,0v0.8c0.5,0,1.2,0,1.9,0h2.2l2.2-0.1c0.7,0,1.4-0.1,1.9-0.1L45.7,272.9z
					 M37.4,273.5h0.7v-5.7l-0.7-0.2V273.5z M45.1,267.3l-1.8,0.1l-2.1,0.1l-2,0h-1.8l0.1,0.8h1.8l2-0.1l2-0.1l1.8-0.1L45.1,267.3z
					 M48.1,262.9h-3.2l-0.4,0.4l0.4,0.4h3.3L48.1,262.9z M44,266.2h0.7v-8H44V266.2z M43,243.3c-0.9,0.1-1.8,0.3-2.6,0.4
					s-1.7,0.2-2.5,0.3s-1.7,0.2-2.6,0.2l-2.8,0.1l0.2,0.8c1,0,1.9-0.1,2.8-0.1s1.7-0.1,2.6-0.2s1.7-0.2,2.5-0.3s1.7-0.2,2.6-0.4
					L43,243.3z M41.3,235.3c-1.1,0.1-2.3,0.1-3.5,0.2s-2.4,0.1-3.5,0.1l0.1,0.8c1,0,2,0,3.1,0s2.1-0.1,3.1-0.1L41.3,235.3z
					 M40.2,241.7c0.3-1,0.5-2,0.7-3.1s0.3-2.1,0.4-3.3l-0.8,0.3c-0.1,1-0.2,1.9-0.4,2.9c-0.2,1-0.4,2-0.7,2.9L40.2,241.7z
					 M36.2,244.4h0.7v-4.5h-0.7L36.2,244.4z M48.2,241.7h-3.3l-0.4,0.4l0.4,0.4h3.3L48.2,241.7z M44.1,248.8h0.7v-16.7h-0.7V248.8z
					 M45,212.8l-1,0.1l-1,0.1h-1h-1l0.1,0.8c1.3,0,2.6-0.1,3.9-0.2L45,212.8z M39.7,213c-0.6,0-1.3,0-2,0.1h-2l0.1,0.8h1.7
					c0.6,0,1.3,0,2-0.1L39.7,213z M38.9,217.5c0.3-0.7,0.5-1.4,0.6-2.1c0.1-0.8,0.2-1.6,0.2-2.4l-0.8,0.4c0,0.7-0.1,1.3-0.2,2
					c-0.1,0.6-0.3,1.2-0.5,1.8L38.9,217.5z M31.9,219.7h3.9l4.1-0.1c1.4,0,2.7-0.1,4.1-0.1s2.6-0.1,3.8-0.2v-0.8
					c-1.2,0.1-2.5,0.1-3.8,0.2s-2.7,0.1-4.1,0.1l-4.1,0.1h-3.9L31.9,219.7z M44.2,217H45v-4.1h-0.7L44.2,217z M41.1,219.1h0.7v-3.5
					h-0.7V219.1z M46,227.2l-2,0.1c-0.8,0-1.6,0.1-2.4,0.1h-2.4c-0.8,0-1.5,0-2,0v0.8c0.5,0,1.2,0,2,0h2.4l2.4-0.1
					c0.8,0,1.4-0.1,2-0.1L46,227.2z M37.2,227.8h0.7v-2.9h-0.7V227.8z M44.9,224.3c-0.5,0-1.1,0.1-1.8,0.1l-2.1,0.1h-2.1h-1.8v0.8
					h1.7l2.1,0l2,0l1.8-0.1L44.9,224.3z M44.2,224.7h0.7v-2.9h-0.7V224.7z M44.9,221.5l-1.9,0.1l-2.2,0.1l-2.1,0h-1.8l0.1,0.8h1.8
					h2.1l2.1-0.1l1.9-0.1L44.9,221.5z M45,192.9l-1.9,0.1c-0.7,0-1.5,0-2.2,0.1h-2.2h-1.8l0.1,0.8h1.7h2h2c0.7,0,1.2,0,1.7-0.1
					L45,192.9z M44.3,197.5c0.1-0.4,0.2-0.8,0.2-1.2s0.1-0.7,0.2-1.1s0.1-0.7,0.1-1.1s0.1-0.8,0.1-1.3l-0.8,0.3c0,0.4,0,0.8-0.1,1.1
					s-0.1,0.7-0.1,1s-0.1,0.6-0.2,1s-0.2,0.7-0.2,1.1L44.3,197.5z M46,207.1l-2,0.1c-0.8,0-1.6,0.1-2.4,0.1h-2.4c-0.8,0-1.5,0-2,0
					v0.8c0.5,0,1.2,0,2,0h2.4L44,208c0.8,0,1.4-0.1,2-0.1L46,207.1z M37.2,207.7h0.7v-2.9h-0.7V207.7z M44.9,204.2
					c-0.5,0-1.1,0.1-1.8,0.1l-2.1,0.1h-2.1h-1.8v0.8h1.7l2.1-0.1l2,0l1.8-0.1L44.9,204.2z M44.2,204.6h0.7v-2.9h-0.7V204.6z
					 M44.9,201.4l-1.9,0.1l-2.2,0.1h-2.1h-1.8l0.1,0.8h1.8l2.1-0.1l2.1-0.1l1.9-0.1L44.9,201.4z M31.9,199.3h3.9l4.1-0.1
					c1.4,0,2.7-0.1,4.1-0.1s2.6-0.1,3.8-0.2v-0.8c-1.2,0.1-2.5,0.1-3.8,0.2s-2.7,0.1-4.1,0.1l-4.1,0.1h-3.9L31.9,199.3z M39.4,175.4
					l-0.1-2.6h-0.8l0.2,2.7L39.4,175.4z M43.2,175.3h0.7v-2.7h-0.7V175.3z M42.6,171.8c0.4-0.1,0.8-0.3,1.1-0.6
					c0.3-0.2,0.5-0.6,0.7-0.9c0.3-0.7,0.3-1.5,0-2.2c-0.2-0.3-0.4-0.7-0.7-0.9c-0.3-0.3-0.7-0.5-1.1-0.6c-0.9-0.3-1.9-0.3-2.8,0
					c-0.4,0.1-0.8,0.3-1.1,0.6c-0.3,0.3-0.5,0.6-0.7,0.9c-0.3,0.7-0.3,1.5,0,2.2c0.2,0.3,0.4,0.7,0.7,0.9c0.3,0.3,0.7,0.5,1.1,0.6
					C40.7,172.1,41.7,172.1,42.6,171.8 M42.3,167.3c0.3,0.1,0.6,0.3,0.8,0.5c0.2,0.2,0.4,0.4,0.5,0.7c0.3,0.5,0.3,1.1,0,1.6
					c-0.1,0.3-0.3,0.5-0.5,0.7c-0.2,0.2-0.5,0.4-0.8,0.5c-0.7,0.2-1.5,0.2-2.2,0c-0.3-0.1-0.6-0.3-0.8-0.5c-0.2-0.2-0.4-0.4-0.5-0.7
					c-0.3-0.5-0.3-1.1,0-1.6c0.1-0.3,0.3-0.5,0.5-0.7c0.2-0.2,0.5-0.4,0.8-0.5C40.8,167,41.6,167,42.3,167.3 M42.6,182.3
					c0.4-0.1,0.7-0.3,1-0.6c0.3-0.2,0.5-0.5,0.7-0.9c0.3-0.7,0.3-1.4,0-2.1c-0.2-0.3-0.4-0.6-0.7-0.9c-0.3-0.3-0.6-0.4-1-0.6
					c-0.4-0.1-0.9-0.2-1.3-0.2c-0.5,0-0.9,0.1-1.3,0.2c-0.4,0.1-0.7,0.3-1,0.6c-0.3,0.2-0.5,0.5-0.7,0.9c-0.3,0.7-0.3,1.4,0,2.1
					c0.2,0.3,0.4,0.6,0.7,0.9c0.3,0.3,0.7,0.5,1,0.6c0.4,0.1,0.9,0.2,1.3,0.2C41.7,182.5,42.1,182.4,42.6,182.3 M43.1,178.3
					c0.8,0.6,0.9,1.7,0.3,2.5c-0.1,0.1-0.2,0.2-0.3,0.3c-1.1,0.8-2.6,0.8-3.7,0c-0.8-0.6-0.9-1.7-0.3-2.5c0.1-0.1,0.2-0.2,0.3-0.3
					C40.5,177.6,42,177.6,43.1,178.3 M31.9,175.7h3.9l4.1-0.1c1.4,0,2.7-0.1,4.1-0.1s2.6-0.1,3.8-0.2v-0.8c-1.2,0.1-2.5,0.1-3.8,0.2
					s-2.7,0.1-4.1,0.1l-4.1,0.1h-3.9L31.9,175.7z M40.6,149.9c-1.1,0.1-2.2,0.1-3.3,0.1s-2.2,0.1-3.2,0.1l0.1,0.8
					c0.9,0,1.9,0,2.9-0.1l2.9-0.1L40.6,149.9z M33.6,159.1c0.9-0.4,1.7-1,2.4-1.6c0.8-0.6,1.4-1.4,2.1-2.2c0.3-0.4,0.6-0.8,0.8-1.2
					c0.3-0.5,0.5-0.9,0.7-1.4c0.2-0.5,0.4-1,0.6-1.4c0.2-0.5,0.3-0.9,0.4-1.4l-0.9,0.3c-0.2,0.8-0.4,1.6-0.8,2.4
					c-0.4,0.9-0.9,1.7-1.5,2.4c-0.6,0.7-1.3,1.4-2,2c-0.7,0.6-1.5,1.1-2.3,1.5L33.6,159.1z M44.1,162.8h0.7v-16.7h-0.7V162.8z
					 M38,135.8l-1.7-2.5l-0.6,0.5c0.3,0.5,0.7,0.9,1,1.4c0.3,0.4,0.6,0.9,0.9,1.4L38,135.8z M43.2,137.7l-2.7-3.8l-0.6,0.5l0.7,0.9
					c0.2,0.3,0.5,0.7,0.7,1s0.5,0.7,0.7,1s0.4,0.6,0.6,0.9L43.2,137.7z M37.5,138.9c0.4-0.6,0.8-1.2,1.1-1.9
					c0.3-0.7,0.6-1.4,0.9-2.1c0.3-0.7,0.5-1.5,0.6-2.2c0.2-0.8,0.3-1.5,0.4-2.2h-0.8c-0.1,1.4-0.4,2.8-0.9,4.2
					c-0.5,1.3-1.1,2.6-2,3.8L37.5,138.9z M42.2,130l-1.2,0.1l-1,0.1h-1h-1.2l0.1,0.8h1.1h1h1l1.2-0.1L42.2,130z M37.6,130l-1.2,0.1
					l-1,0.1h-1h-1.2l0.1,0.8h1.1h1h1l1.2-0.1L37.6,130z M33.4,138.1c0.8-1.1,1.5-2.3,1.9-3.6c0.4-1.3,0.7-2.6,0.9-4h-0.8
					c-0.1,0.7-0.2,1.4-0.3,2c-0.1,0.6-0.3,1.2-0.5,1.8c-0.2,0.6-0.5,1.2-0.8,1.7c-0.3,0.6-0.7,1.2-1.1,1.7L33.4,138.1z M44.1,142.8
					h0.7v-16.7h-0.7V142.8z M48.2,133.9h-3.3l-0.4,0.4l0.4,0.4h3.3L48.2,133.9z M32.4,120.1h3.8l3.9-0.1c1.3,0,2.6-0.1,3.9-0.1
					s2.5-0.1,3.7-0.2v-0.8c-1.2,0.1-2.5,0.1-3.8,0.2s-2.6,0.1-3.9,0.1l-4,0.1h-3.8L32.4,120.1z M40.8,119.4h0.7v-3.1h-0.7V119.4z
					 M45.4,114.8l-1.9,0.1c-0.7,0-1.5,0.1-2.3,0.1h-2.3c-0.7,0-1.4,0-2,0v0.8c0.5,0,1.2,0,1.9,0h2.3l2.3-0.1c0.7,0,1.4-0.1,1.9-0.1
					L45.4,114.8z M37,115.4h0.7v-3.3H37V115.4z M45,111.5c-0.5,0-1.2,0.1-1.9,0.1l-2.2,0.1h-2.2H37v0.8h1.8l2.2-0.1l2.2-0.1l1.9-0.1
					L45,111.5z M44.2,111.8H45v-3.3h-0.7V111.8z M45,108.2l-1.9,0.1l-2.2,0.1h-2.2h-1.9l0.1,0.8h1.8l2.2-0.1L43,109l1.9-0.1V108.2z
					 M40.6,89.8c-1.1,0.1-2.2,0.1-3.3,0.1s-2.1,0.1-3.2,0.1l0.1,0.8c0.9,0,1.9,0,2.9-0.1l2.9-0.1L40.6,89.8z M33.6,99
					c0.8-0.4,1.6-0.9,2.4-1.6c0.8-0.6,1.5-1.3,2.1-2.1c0.3-0.4,0.6-0.8,0.8-1.2c0.3-0.5,0.5-0.9,0.7-1.4c0.2-0.5,0.4-1,0.5-1.4
					c0.2-0.5,0.3-0.9,0.4-1.4l-0.9,0.3c-0.2,0.8-0.4,1.6-0.8,2.4c-0.4,0.9-0.8,1.7-1.4,2.4c-0.6,0.7-1.3,1.4-2,2
					c-0.7,0.6-1.5,1.1-2.3,1.5L33.6,99z M44.1,102.8h0.7V86.1h-0.7V102.8z M48.2,94.1h-3.3l-0.4,0.4l0.4,0.4h3.3V94.1z M45.8,74.5
					l-2,0.1c-0.8,0-1.6,0.1-2.4,0.1h-2.4c-0.8,0-1.5,0-2,0v0.8c0.5,0,1.2,0,2,0h2.4l2.4-0.1c0.8,0,1.4-0.1,2-0.1L45.8,74.5z
					 M36.9,75.5h0.7v-3.7h-0.7V75.5z M45.4,66.5l-1.9,0.1c-0.7,0-1.5,0.1-2.2,0.1H39c-0.7,0-1.4,0-1.9,0v0.8c0.5,0,1.2,0,1.9,0h2.2
					l2.2-0.1c0.7,0,1.4-0.1,1.9-0.1V66.5z M37.1,67.1h0.7v-2.8h-0.7V67.1z M44.9,63.7c-0.5,0-1.2,0.1-1.8,0.1L41,63.8h-2.1h-1.8v0.8
					h1.8h2.1l2.1-0.1l1.9-0.1V63.7z M44.2,64.1h0.7v-2.8h-0.7V64.1z M44.9,60.9L43,61l-2.2,0.1h-2.2h-1.8l0.1,0.8h1.8h2.2l2.2,0
					l1.9-0.1L44.9,60.9z M31.9,70.5h3.9l4.1-0.1c1.4,0,2.7-0.1,4.1-0.1s2.6-0.1,3.8-0.2v-0.8c-1.2,0.1-2.5,0.2-3.8,0.2
					s-2.7,0.1-4.1,0.1l-4.1,0.1h-3.9L31.9,70.5z M40.2,44c-0.9,0.1-1.9,0.1-2.9,0.2s-2,0-2.9,0V45h1.4h1.5h1.5l1.4-0.1V44z
					 M41.8,50.3c-1.1,0.4-2.3,0.7-3.5,0.9c-1.3,0.2-2.6,0.3-3.9,0.2v0.7c1.3,0,2.7-0.1,4-0.3c1.2-0.2,2.4-0.5,3.6-0.9L41.8,50.3z
					 M34.4,52.2l0.7-0.2v-7.2h-0.7V52.2z M48.2,48h-3.3l-0.4,0.4l0.4,0.4h3.3V48z M44.1,56.8h0.7V40.1h-0.7V56.8z"/>
				<path class="st1" d="M73.6,362.5c0.2,0.5,0.6,0.9,1.1,1.1c0.5,0.2,1.1,0.2,1.6,0c0.2-0.1,0.5-0.3,0.7-0.4
					c0.2-0.2,0.3-0.4,0.4-0.7c0.2-0.5,0.2-1.1,0-1.6c-0.1-0.2-0.3-0.5-0.4-0.7c-0.2-0.2-0.4-0.3-0.7-0.4c-0.5-0.2-1.1-0.2-1.6,0
					C73.7,360.2,73.2,361.4,73.6,362.5 M76.5,362.6c-0.5,0.5-1.4,0.5-1.9,0c-0.5-0.5-0.5-1.4,0-1.9c0.5-0.5,1.4-0.5,1.9,0
					C77,361.2,77,362.1,76.5,362.6 M70.2,342c-0.9,0.1-1.9,0.1-2.9,0.1s-2,0-2.9,0v0.9h1.4h1.5l1.5,0l1.4-0.1V342z M71.8,348.3
					c-1.1,0.4-2.3,0.7-3.4,0.9c-1.3,0.2-2.6,0.3-3.9,0.2v0.7c1.3,0,2.7-0.1,4-0.3c1.2-0.2,2.4-0.5,3.6-0.9L71.8,348.3z M64.4,350.2
					l0.7-0.2v-7.2h-0.7V350.2z M78.2,346h-3.3l-0.4,0.4l0.4,0.4h3.3V346z M74.1,354.8h0.7v-16.7h-0.7V354.8z M72,328.2
					c-1.2,0.4-2.4,0.7-3.6,0.9c-1.3,0.2-2.6,0.4-3.9,0.4v0.7c1.3-0.1,2.7-0.2,4-0.5c1.3-0.2,2.5-0.5,3.7-0.9L72,328.2z M64.5,330.2
					l0.7-0.2v-8h-0.7V330.2z M74.2,334.8h0.7v-16.6h-0.7V334.8z M76,303.1l-4.2-2.2l-0.4,0.7l2,1.1l2.1,1.1L76,303.1z M66.3,303.9
					c1.3-0.4,2.6-1.1,3.6-2.1c1-1,1.6-2.2,1.9-3.6l-0.7-0.2c-0.2,0.6-0.4,1.3-0.7,1.9c-0.3,0.5-0.6,1-1,1.4
					c-0.4,0.4-0.9,0.8-1.4,1.1c-0.6,0.3-1.2,0.6-1.9,0.8L66.3,303.9z M74.8,314.3h-7.4v-0.8h7.4L74.8,314.3z M74.8,311
					c-0.5,0-1.1,0-1.7,0.1h-2h-2h-1.6v-0.8h1.7h2l2-0.1l1.7-0.1L74.8,311z M74.8,313.8h-0.7v-5.6h0.7V313.8z M67.4,308.5h0.7v5.4
					h-0.7V308.5z M61.8,306h3.9l4.1-0.1c1.4,0,2.8-0.1,4.1-0.1s2.6-0.1,3.8-0.2v0.8c-1.2,0.1-2.5,0.1-3.8,0.2s-2.7,0.1-4.1,0.1
					l-4.1,0.1h-3.9L61.8,306z M74.6,281h-3.3v0.8h3.3L74.6,281z M74.6,284.3h-3.3v0.8h3.3L74.6,284.3z M71.2,291.9l-1.9-1.4
					l-0.4,0.6l1.7,1.3L71.2,291.9z M65,293.8c1.1-0.4,2-1.1,2.7-2c0.7-0.9,1.3-1.9,1.5-3l-0.8-0.2c-0.2,1-0.7,2-1.4,2.8
					c-0.7,0.8-1.6,1.4-2.6,1.8L65,293.8z M77.1,293.5l-3.1-2.3l-0.5,0.6l0.8,0.6l0.7,0.5l0.7,0.6l0.8,0.6L77.1,293.5z M70.4,294.2
					c0.5-0.3,1-0.6,1.4-1c0.4-0.4,0.8-0.8,1.1-1.3c0.3-0.5,0.6-1,0.8-1.5c0.2-0.5,0.4-1,0.5-1.6l-0.8-0.2c-0.2,1-0.6,2-1.2,2.9
					c-0.6,0.9-1.4,1.6-2.3,2.1L70.4,294.2z M71.3,285.9c-1.1,0.2-2.2,0.4-3.3,0.5s-2.2,0.1-3.3,0.1v-3H64v3.8c0.6,0,1.2,0,1.8,0
					s1.3-0.1,1.9-0.1s1.3-0.1,1.9-0.2s1.2-0.2,1.8-0.3L71.3,285.9z M69.9,282.9c-1.1,0.1-2.1,0.1-3,0.2s-1.9,0-2.9,0.1v0.8
					c1,0,2,0,2.9-0.1s1.9-0.1,3-0.1V282.9z M69.2,283.3h0.7v-3.2h-0.7V283.3z M69.9,279.8l-1.6,0.1l-1.5,0.1h-1.5h-1.5l0.1,0.8
					c1,0,2,0,2.9-0.1l3.1-0.1V279.8z M74.1,287.7h0.7v-9.6h-0.7V287.7z M75,261l-1.9,0.1c-0.7,0-1.5,0-2.3,0.1h-2.3h-2l0.1,0.8h1.9
					h2.1h2c0.7,0,1.2,0,1.8-0.1L75,261z M73.8,269.8c0.2-0.6,0.3-1.3,0.4-2s0.2-1.5,0.4-2.2c0.1-0.8,0.2-1.5,0.3-2.3
					s0.1-1.5,0.2-2.2l-0.8,0.3c0,0.6-0.1,1.3-0.1,2s-0.2,1.5-0.3,2.2s-0.2,1.5-0.4,2.2s-0.3,1.4-0.4,2L73.8,269.8z M62.4,272.2h3.8
					l3.9-0.1c1.3,0,2.6-0.1,3.9-0.1s2.5-0.1,3.7-0.2v-0.8c-1.2,0.1-2.5,0.1-3.8,0.2s-2.6,0.1-3.9,0.1l-3.9,0.1h-3.8L62.4,272.2z
					 M63.5,244.3c0.7-0.5,1.4-1.1,1.9-1.8c0.6-0.7,1-1.4,1.4-2.2c0.4-0.8,0.7-1.7,0.9-2.5c0.2-0.9,0.4-1.8,0.5-2.8l-0.8-0.1
					c-0.1,0.9-0.2,1.8-0.4,2.7c-0.2,0.8-0.5,1.6-0.8,2.4c-0.4,0.7-0.8,1.4-1.3,2.1c-0.6,0.7-1.2,1.3-1.9,1.8L63.5,244.3z M71.3,244
					l-2.9-4l-0.6,0.5c0.4,0.6,0.9,1.2,1.4,2s1,1.4,1.4,2.1L71.3,244z M74.3,238.5h-4v0.8h3.9L74.3,238.5z M74.2,248.8h0.7v-16.6
					h-0.7V248.8z M63.7,221.3c0.2,0.4,0.4,0.8,0.7,1.2c0.3,0.3,0.7,0.6,1.1,0.8c0.9,0.4,1.8,0.4,2.7,0c0.4-0.2,0.8-0.5,1.1-0.8
					c0.3-0.3,0.6-0.7,0.7-1.2c0.4-0.9,0.4-2,0-2.9c-0.2-0.4-0.4-0.8-0.7-1.2c-0.3-0.3-0.7-0.6-1.1-0.8c-0.9-0.4-1.8-0.4-2.7,0
					c-0.4,0.2-0.8,0.5-1.1,0.8c-0.3,0.3-0.6,0.7-0.7,1.2C63.3,219.3,63.3,220.4,63.7,221.3 M64.3,218.6c0.1-0.4,0.3-0.7,0.6-1
					c0.2-0.3,0.5-0.5,0.9-0.6c0.3-0.2,0.7-0.2,1.1-0.2c0.3,0,0.7,0.1,1,0.2c0.3,0.1,0.6,0.4,0.9,0.6c0.2,0.3,0.4,0.6,0.6,1
					c0.3,0.8,0.3,1.6,0,2.4c-0.1,0.4-0.3,0.7-0.6,1c-0.2,0.3-0.5,0.5-0.9,0.6c-0.3,0.1-0.7,0.2-1,0.2c-0.4,0-0.7-0.1-1.1-0.2
					c-0.3-0.1-0.6-0.4-0.9-0.6c-0.3-0.3-0.4-0.6-0.6-1C64.1,220.3,64.1,219.4,64.3,218.6 M74.6,217.2h-3.5v0.8h3.5V217.2z
					 M74.6,221.8h-3.5v0.8h3.5V221.8z M74.1,228.8h0.7v-16.6h-0.7V228.8z M75,192.5l-1.9,0.1l-2.2,0.1h-2.2c-0.7,0-1.4,0-1.9,0
					l0.1,0.8h1.9l2.2-0.1l2.2-0.1l1.9-0.1V192.5z M75.7,196.7l-4.2-1.6l-0.3,0.7l2.1,0.8c0.7,0.2,1.4,0.5,2.1,0.8L75.7,196.7z
					 M66.3,197.6c1.3-0.3,2.5-0.8,3.5-1.7c0.8-0.7,1.4-1.7,1.7-2.7l-0.7-0.2c-0.2,1-0.8,1.9-1.6,2.5c-0.9,0.7-2,1.2-3.2,1.4
					L66.3,197.6z M70.8,202.3h0.7v-3.1h-0.7V202.3z M76,207.3l-2,0.1c-0.8,0-1.6,0.1-2.4,0.1h-2.4c-0.8,0-1.5,0-2,0v0.8
					c0.6,0,1.2,0,2,0h2.4l2.4-0.1c0.8,0,1.4-0.1,2-0.1L76,207.3z M67.1,207.9h0.7v-2.8h-0.7V207.9z M74.9,204.5
					c-0.5,0-1.1,0.1-1.8,0.1l-2.1,0.1h-2.1h-1.8v0.8h1.7l2.1-0.1l2.1-0.1l1.8-0.1L74.9,204.5z M74.1,204.9h0.7v-2.8h-0.7V204.9z
					 M74.9,201.8l-1.9,0.1l-2.2,0.1h-2.1h-1.8l0.1,0.8h1.8l2.1-0.1l2.1-0.1l1.9-0.1L74.9,201.8z M61.9,199.8h3.9l4.1-0.1
					c1.4,0,2.7-0.1,4.1-0.1s2.6-0.1,3.8-0.2v-0.8c-1.2,0.1-2.5,0.1-3.8,0.2s-2.7,0.1-4.1,0.1l-4.1,0.1h-3.9L61.9,199.8z M75.4,171.3
					l-1.9,0.1c-0.7,0-1.5,0.1-2.2,0.1H69c-0.7,0-1.4,0-1.9,0v0.8c0.6,0,1.2,0,1.9,0h2.2l2.2-0.1c0.7,0,1.4-0.1,1.9-0.1V171.3z
					 M67.1,171.9h0.7v-2.5h-0.7V171.9z M74.9,168.8c-0.5,0-1.2,0.1-1.8,0.1L71,169h-2.1h-1.8v0.8h1.8l2.1-0.1l2.1-0.1l1.9-0.1
					L74.9,168.8z M74.2,169.2h0.7v-2.5h-0.7V169.2z M74.9,166.4l-1.9,0.1l-2.2,0.1l-2.2,0.1h-1.8l0.1,0.8h1.8h2.2l2.2-0.2l1.9-0.1
					L74.9,166.4z M75.9,181.4l-2,0.1c-0.8,0-1.6,0.1-2.4,0.1h-2.4c-0.8,0-1.5,0-2,0v0.8c0.6,0,1.2,0,2,0h2.4l2.4-0.1
					c0.8,0,1.4-0.1,2-0.1L75.9,181.4z M67.1,182h0.7v-2.5h-0.7V182z M74.8,178.9c-0.5,0-1.1,0.1-1.8,0.1l-2,0h-2.1h-1.8v0.8h1.7
					l2.1-0.1l2.1-0.1l1.8-0.1L74.8,178.9z M74.1,179.3h0.7v-2.5h-0.7V179.3z M74.8,176.4l-1.9,0.1l-2.2,0.1l-2.1,0.1h-1.8l0.1,0.8
					h1.8h2.1l2.2-0.2l1.9-0.1L74.8,176.4z M61.8,175h3.9l4.1-0.1c1.4,0,2.7-0.1,4.1-0.1s2.6-0.1,3.8-0.2v-0.8
					c-1.2,0.1-2.5,0.1-3.8,0.2s-2.7,0.1-4.1,0.1l-4.1,0.1h-3.9L61.8,175z M70.5,149.9c-1.1,0.1-2.2,0.1-3.3,0.1s-2.2,0.1-3.2,0.1
					l0.1,0.8c0.9,0,1.9,0,2.9-0.1l2.9-0.1L70.5,149.9z M63.5,159.1c0.9-0.4,1.7-1,2.4-1.6c0.8-0.7,1.5-1.4,2.1-2.2
					c0.3-0.4,0.6-0.8,0.8-1.2c0.3-0.5,0.5-0.9,0.7-1.4c0.2-0.5,0.4-1,0.6-1.4c0.2-0.5,0.3-0.9,0.4-1.4l-0.9,0.3
					c-0.2,0.8-0.4,1.6-0.8,2.4c-0.4,0.9-0.9,1.7-1.5,2.4c-0.6,0.7-1.3,1.4-2,2c-0.7,0.6-1.5,1.1-2.3,1.5L63.5,159.1z M74.1,162.9
					h0.7v-16.7h-0.7V162.9z M74.3,133c-0.7,0.1-1.3,0.3-2.1,0.4s-1.5,0.2-2.2,0.3s-1.5,0.2-2.2,0.2s-1.4,0.1-2.1,0.1l0.1,0.7
					c0.7,0,1.4-0.1,2.1-0.2s1.5-0.1,2.2-0.2s1.5-0.2,2.2-0.3s1.4-0.2,2-0.3L74.3,133z M75,128.8l-2,0.1c-0.8,0-1.6,0.1-2.4,0.1h-2.4
					h-2l0.1,0.8h2h2.2h2.2c0.7,0,1.3,0,1.8-0.1L75,128.8z M73.7,137.8c0.2-0.6,0.3-1.3,0.4-2.1s0.2-1.5,0.4-2.3s0.2-1.6,0.3-2.4
					s0.1-1.5,0.2-2.2l-0.8,0.3c0,0.6-0.1,1.3-0.1,2.1s-0.2,1.5-0.2,2.2s-0.2,1.5-0.3,2.2s-0.3,1.4-0.4,2L73.7,137.8z M62.4,140.2
					h3.8l3.9-0.1c1.3,0,2.6-0.1,3.9-0.1s2.5-0.1,3.7-0.2v-0.8c-1.2,0.1-2.5,0.1-3.8,0.2s-2.6,0.1-3.9,0.1l-3.9,0.1h-3.8L62.4,140.2z
					 M64.8,107c0.2,0.4,0.4,0.7,0.7,1c0.3,0.3,0.6,0.5,1,0.7c0.8,0.3,1.7,0.3,2.6,0c0.4-0.2,0.7-0.4,1-0.7c0.3-0.3,0.5-0.6,0.7-1
					c0.3-0.8,0.3-1.7,0-2.5c-0.2-0.4-0.4-0.7-0.7-1c-0.3-0.3-0.6-0.5-1-0.7c-0.8-0.3-1.7-0.3-2.6,0c-0.4,0.2-0.7,0.4-1,0.7
					c-0.3,0.3-0.5,0.6-0.7,1C64.5,105.3,64.5,106.2,64.8,107 M65.5,104.8c0.1-0.3,0.3-0.6,0.5-0.8c0.2-0.2,0.5-0.4,0.8-0.5
					c0.6-0.3,1.4-0.3,2,0c0.3,0.1,0.6,0.3,0.8,0.5c0.2,0.2,0.4,0.5,0.5,0.8c0.3,0.6,0.3,1.3,0,1.9c-0.1,0.3-0.3,0.6-0.5,0.8
					c-0.2,0.2-0.5,0.4-0.8,0.5c-0.6,0.3-1.4,0.3-2,0c-0.3-0.1-0.6-0.3-0.8-0.5c-0.2-0.2-0.4-0.5-0.5-0.8
					C65.3,106.1,65.3,105.4,65.5,104.8 M74.1,116.8h0.7v-16.7h-0.7V116.8z M73,111.4c-1,0.2-1.9,0.3-2.8,0.4s-1.7,0.2-2.5,0.3
					s-1.7,0.1-2.5,0.2s-1.8,0.1-2.8,0.1l0.2,0.8c1,0,1.9-0.1,2.8-0.2s1.7-0.1,2.5-0.2l2.5-0.3l2.7-0.4L73,111.4z M63.8,92.7
					c1.3-1,2.3-2.2,3.2-3.6c0.8-1.4,1.4-2.9,1.8-4.5L68,84.5c-0.2,0.8-0.4,1.5-0.7,2.3c-0.3,0.7-0.6,1.4-1,2
					c-0.4,0.6-0.8,1.2-1.3,1.7c-0.5,0.6-1.1,1.1-1.7,1.7L63.8,92.7z M78.2,87.9h-3.3l-0.4,0.4l0.4,0.4h3.3V87.9z M72.3,91.8
					l-3.9-3.6l-0.5,0.6l0.9,0.8l1,0.9l1,1c0.3,0.3,0.6,0.6,0.9,0.9L72.3,91.8z M71.5,83.9L69.8,84l-2.1,0.1h-2.1H64l0.1,0.8h1.7
					l2-0.1l2-0.1l1.7-0.1L71.5,83.9z M74.1,96.8h0.7V80.1h-0.7V96.8z M75,60.9L73.1,61c-0.7,0-1.5,0-2.2,0.1h-2.2h-1.8l0.1,0.8h1.7
					h2h2c0.7,0,1.2,0,1.7-0.1L75,60.9z M74.3,65.5c0.1-0.4,0.2-0.8,0.2-1.2s0.1-0.7,0.2-1.1s0.1-0.7,0.1-1.1s0.1-0.8,0.1-1.3
					l-0.8,0.3c0,0.4,0,0.8-0.1,1.1s-0.1,0.7-0.1,1s-0.1,0.7-0.2,1s-0.2,0.7-0.2,1.1L74.3,65.5z M76,75.1l-2,0.1
					c-0.8,0-1.6,0.1-2.4,0.1h-2.4c-0.8,0-1.5,0-2,0v0.8c0.6,0,1.2,0,2,0h2.4L74,76c0.8,0,1.4-0.1,2-0.1L76,75.1z M67.2,75.7h0.7
					v-2.9h-0.7V75.7z M74.9,72.2c-0.5,0-1.1,0.1-1.8,0.1L71,72.4h-2.1h-1.8v0.8h1.7H71l2-0.1l1.8-0.1L74.9,72.2z M74.2,72.6h0.7
					v-2.9h-0.7V72.6z M74.9,69.4L73,69.4l-2.2,0.1h-2.1h-1.8l0.1,0.8h1.8h2.1l2.1-0.1l1.9-0.1L74.9,69.4z M61.9,67.3h3.9l4.1-0.1
					c1.4,0,2.7-0.1,4.1-0.1s2.6-0.1,3.8-0.2v-0.8c-1.2,0.1-2.5,0.2-3.8,0.2s-2.7,0.1-4.1,0.1l-4.1,0.1h-3.9L61.9,67.3z M71.3,46.1
					c-0.5,0.1-1,0.2-1.5,0.4c-0.6,0.1-1.2,0.2-1.8,0.3s-1.2,0.1-1.8,0.2S65.2,47,64.7,47v0.7c0.5,0,1,0,1.6-0.1s1.2-0.1,1.8-0.2
					s1.2-0.2,1.8-0.3s1.1-0.2,1.5-0.3L71.3,46.1z M64.6,47.4h0.7V42h-0.7V47.4z M68.7,53.2h1.6H72l1.6-0.1L75,53v-0.8
					c-0.9,0-1.9,0.1-3,0.1l-3.2,0.1L68.7,53.2z M75.8,54.9L74,55c-0.7,0-1.5,0.1-2.2,0.1h-2.2c-0.7,0-1.4,0-1.9,0v0.8
					c0.6,0,1.2,0,1.9,0h2.2l2.2-0.1c0.7,0,1.4-0.1,1.9-0.1L75.8,54.9z M67.5,55.5h0.7V50l-0.7-0.2V55.5z M75.2,49.5l-1.8,0.1
					l-2.1,0.1h-2h-1.8l0.1,0.8h1.8l2-0.1l2-0.1l1.8-0.1L75.2,49.5z M78.2,44.7h-3.4L74.5,45l0.4,0.4h3.3L78.2,44.7z M74.2,48.4h0.7
					v-8.2h-0.7V48.4z"/>
				<path class="st1" d="M104,374.3c0.3,0.2,0.6,0.4,0.9,0.7c0.3,0.3,0.6,0.5,0.9,0.8s0.6,0.6,0.9,0.9l0.8,0.8l0.8-0.8l-0.8-0.8
					c-0.3-0.3-0.6-0.6-0.9-0.8l-1-0.8c-0.3-0.3-0.6-0.5-0.9-0.7L104,374.3z M92.4,366.1h3.8l3.9-0.1c1.3,0,2.6-0.1,3.9-0.1
					s2.5-0.1,3.7-0.2v-0.8c-1.2,0.1-2.5,0.1-3.8,0.2s-2.6,0.1-3.9,0.1l-3.9,0.1h-3.8L92.4,366.1z M100.8,365.4h0.7v-3.1h-0.7V365.4z
					 M105.4,360.8l-1.9,0.1c-0.7,0-1.5,0.1-2.3,0.1h-2.3c-0.7,0-1.4,0-2,0v0.8c0.6,0,1.2,0,1.9,0h2.3l2.3-0.1c0.7,0,1.4-0.1,1.9-0.1
					L105.4,360.8z M97,361.4h0.7v-3.3H97V361.4z M105,357.5c-0.5,0-1.2,0.1-1.9,0.1c-0.7,0-1.4,0-2.2,0.1l-2.2,0H97v0.8h1.8l2.2,0
					l2.2-0.1l1.9-0.1L105,357.5z M104.2,357.8h0.7v-3.3h-0.7V357.8z M105,354.2l-1.9,0.1l-2.2,0.1l-2.2,0h-1.9l0.1,0.8h1.8l2.2,0
					l2.2-0.1l1.9-0.1V354.2z M92.4,346h3.8l3.9-0.1c1.3,0,2.6-0.1,3.9-0.1s2.5-0.1,3.7-0.2v-0.8c-1.2,0.1-2.5,0.1-3.8,0.2
					s-2.6,0.1-3.9,0.1l-3.9,0.1h-3.8L92.4,346z M97.5,340.7h0.7v-5.9h-0.7V340.7z M104.9,334.7c-0.5,0-1,0-1.7,0.1h-2h-2h-1.7
					l0.1,0.8h1.7h2h2c0.6,0,1.2,0,1.7-0.1L104.9,334.7z M104.1,340.8h0.7v-5.6h-0.7V340.8z M104.9,340.4h-7.4v0.8h7.4V340.4z
					 M97.3,319.3c0.2,0.4,0.5,0.8,0.8,1.1c0.4,0.3,0.8,0.6,1.2,0.8c1,0.4,2,0.4,3,0c0.5-0.2,0.9-0.4,1.2-0.8
					c0.3-0.3,0.6-0.7,0.8-1.1c0.2-0.4,0.3-0.9,0.3-1.4c0-0.5-0.1-1-0.3-1.4c-0.2-0.4-0.5-0.8-0.8-1.1c-0.4-0.3-0.8-0.6-1.2-0.8
					c-1-0.4-2-0.4-3,0c-0.5,0.2-0.9,0.4-1.2,0.8c-0.3,0.3-0.6,0.7-0.8,1.1c-0.2,0.4-0.3,0.9-0.3,1.4C97,318.4,97.1,318.9,97.3,319.3
					 M98,316.8c0.2-0.3,0.4-0.6,0.7-0.9c0.3-0.3,0.6-0.5,1-0.6c0.8-0.3,1.7-0.3,2.5,0c0.4,0.1,0.7,0.3,1,0.6
					c0.3,0.2,0.5,0.5,0.7,0.9c0.3,0.7,0.3,1.5,0,2.2c-0.2,0.3-0.4,0.6-0.7,0.9c-0.3,0.3-0.6,0.5-1,0.6c-0.8,0.3-1.7,0.3-2.5,0
					c-0.4-0.1-0.7-0.3-1-0.6c-0.3-0.3-0.5-0.5-0.6-0.9C97.7,318.3,97.7,317.5,98,316.8 M92.4,326.3h3.8l3.9-0.1
					c1.3,0,2.6-0.1,3.9-0.1s2.5-0.1,3.7-0.2v-0.8c-1.2,0.1-2.5,0.1-3.8,0.2s-2.6,0.1-3.9,0.1l-3.9,0.1h-3.8L92.4,326.3z M96.7,303.3
					c0.2-0.7,0.4-1.3,0.6-2c0.1-0.7,0.2-1.4,0.3-2l-0.8,0.1c0,0.6-0.1,1.2-0.3,1.9c-0.1,0.6-0.3,1.2-0.6,1.8L96.7,303.3z
					 M97.1,297.1c-0.3-0.1-0.5-0.2-0.7-0.4c-0.2-0.2-0.4-0.4-0.5-0.6c-0.1-0.2-0.2-0.5-0.2-0.7c0-0.3,0.1-0.5,0.2-0.8
					c0.1-0.2,0.3-0.4,0.5-0.6c0.2-0.2,0.4-0.3,0.7-0.4c0.5-0.2,1.1-0.2,1.7,0c0.3,0.1,0.5,0.2,0.7,0.4c0.2,0.2,0.4,0.4,0.5,0.6
					c0.1,0.2,0.2,0.5,0.2,0.8c0,0.3-0.1,0.5-0.2,0.7c-0.1,0.2-0.3,0.4-0.5,0.6c-0.2,0.2-0.4,0.3-0.7,0.4
					C98.2,297.3,97.6,297.3,97.1,297.1 M96.8,293c-0.3,0.1-0.6,0.3-0.9,0.5c-0.3,0.2-0.5,0.5-0.6,0.8c-0.2,0.3-0.2,0.7-0.2,1
					c0,0.3,0.1,0.7,0.2,1c0.2,0.3,0.4,0.6,0.6,0.8c0.3,0.2,0.6,0.4,0.9,0.5c0.7,0.3,1.5,0.3,2.2,0c0.3-0.1,0.6-0.3,0.9-0.5
					c0.3-0.2,0.5-0.5,0.6-0.8c0.1-0.3,0.2-0.7,0.2-1c0-0.3-0.1-0.7-0.2-1c-0.2-0.3-0.4-0.6-0.6-0.8c-0.3-0.2-0.6-0.4-0.9-0.5
					C98.3,292.7,97.5,292.7,96.8,293 M104.7,300.6h-4.2v0.8h4.2L104.7,300.6z M102.2,298.5c-0.7,0.1-1.4,0.2-2.2,0.3
					c-0.8,0.1-1.7,0.2-2.6,0.2s-1.8,0.1-2.6,0.2s-1.6,0.1-2.3,0.1l0.1,0.8c0.7,0,1.4,0,2.3-0.1s1.7-0.1,2.6-0.2s1.8-0.1,2.6-0.2
					s1.6-0.2,2.2-0.3L102.2,298.5z M104.2,302.2h0.7v-10h-0.7V302.2z M101,306l-2-1.4l-0.4,0.6l1.9,1.3L101,306z M94.7,307.8
					c1.1-0.4,2-1.1,2.8-1.9c0.7-0.9,1.2-1.9,1.4-3l-0.8-0.2c-0.1,0.5-0.3,1.1-0.5,1.6c-0.2,0.4-0.4,0.8-0.8,1.2
					c-0.3,0.4-0.7,0.7-1.1,0.9c-0.5,0.3-1,0.6-1.5,0.8L94.7,307.8z M107,307.5l-3.2-2.3l-0.4,0.6l0.8,0.6c0.2,0.2,0.5,0.4,0.7,0.5
					l0.7,0.5l0.9,0.6L107,307.5z M100,308.2c1-0.5,1.9-1.2,2.6-2.1c0.6-0.9,1.1-1.9,1.3-3l-0.8-0.2c-0.1,0.5-0.2,1-0.4,1.5
					c-0.2,0.4-0.4,0.8-0.7,1.2c-0.3,0.4-0.6,0.7-1,1c-0.4,0.3-0.9,0.6-1.4,0.9L100,308.2z M92.3,286.1h3.8l3.9-0.1
					c1.3,0,2.6-0.1,3.9-0.1s2.5-0.1,3.7-0.2v-0.8c-1.2,0.1-2.5,0.1-3.8,0.2s-2.6,0.1-3.9,0.1l-3.9,0.1h-3.8L92.3,286.1z
					 M100.7,285.4h0.7v-3.1h-0.7V285.4z M105.3,280.8l-1.9,0.1c-0.7,0-1.5,0.1-2.3,0.1h-2.3c-0.7,0-1.4,0-2,0v0.8c0.6,0,1.2,0,1.9,0
					h2.3l2.3-0.1c0.7,0,1.4-0.1,1.9-0.1L105.3,280.8z M96.9,281.4h0.7v-3.3h-0.7V281.4z M104.9,277.5c-0.5,0-1.2,0.1-1.9,0.1
					c-0.7,0-1.4,0-2.2,0.1l-2.2,0h-1.8v0.8h1.8l2.2,0l2.2-0.1l1.9-0.1L104.9,277.5z M104.2,277.8h0.7v-3.3h-0.7V277.8z M104.9,274.2
					l-1.9,0.1l-2.2,0.1l-2.2,0h-1.9l0.1,0.8h1.8l2.2,0l2.2-0.1l1.9-0.1V274.2z M97.7,265.6h0.7v-2.1h-0.7V265.6z M101.5,256.3
					l-1.7,0.1l-2.2,0.1h-2.2c-0.7,0-1.3,0-1.7,0l0.1,0.8h1.7l2.1,0l2.2-0.1c0.7,0,1.3,0,1.7-0.1L101.5,256.3z M100.3,254.7
					c-0.7-0.2-1.4-0.5-2.1-0.7s-1.3-0.5-2.1-0.9l-0.3,0.8c0.7,0.3,1.4,0.6,2.1,0.8s1.4,0.5,2.1,0.7L100.3,254.7z M108.2,260.1h-3.3
					l-0.4,0.4l0.4,0.4h3.3V260.1z M104.1,268.8h0.7v-16.7h-0.7V268.8z M95.3,261.6c0.1,0.3,0.3,0.6,0.5,0.8c0.2,0.2,0.5,0.4,0.9,0.6
					c0.8,0.3,1.6,0.3,2.3,0c0.3-0.1,0.6-0.3,0.9-0.6c0.2-0.2,0.4-0.5,0.5-0.8c0.2-0.6,0.2-1.2,0-1.8c-0.1-0.3-0.2-0.6-0.4-0.8
					c-0.2-0.2-0.5-0.4-0.9-0.6c-0.8-0.3-1.6-0.3-2.3,0c-0.3,0.1-0.6,0.3-0.9,0.6c-0.2,0.2-0.4,0.5-0.5,0.8
					C95.2,260.4,95.2,261,95.3,261.6 M96.1,260.1c0.1-0.2,0.2-0.4,0.4-0.6c0.2-0.2,0.4-0.3,0.6-0.4c0.6-0.2,1.2-0.2,1.8,0
					c0.2,0.1,0.4,0.2,0.6,0.4c0.2,0.2,0.3,0.4,0.4,0.6c0.2,0.4,0.2,0.8,0,1.2c-0.1,0.2-0.2,0.4-0.4,0.6c-0.2,0.2-0.4,0.3-0.6,0.4
					c-0.6,0.2-1.2,0.2-1.8,0c-0.2-0.1-0.4-0.2-0.6-0.4c-0.2-0.2-0.3-0.4-0.4-0.6C95.9,260.9,95.9,260.5,96.1,260.1 M103,264.6
					c-1,0.2-1.9,0.3-2.8,0.4s-1.7,0.2-2.5,0.3s-1.7,0.1-2.5,0.2s-1.8,0.1-2.8,0.1l0.2,0.8c1,0,1.9-0.1,2.8-0.1s1.7-0.1,2.5-0.2
					s1.6-0.2,2.5-0.3l2.7-0.4L103,264.6z M105,234.7l-2,0.1l-2.3,0.1h-2.3c-0.7,0-1.4,0-2,0l0.1,0.8h1.9l2.2,0l2.2-0.1l2-0.1
					L105,234.7z M106.1,240.7l-4.5-3l-0.4,0.7l1.1,0.7l1.2,0.8l1.2,0.8l1.1,0.7L106.1,240.7z M95.9,241.6c1.4-0.5,2.7-1.3,3.7-2.4
					c1-1.1,1.7-2.5,1.9-3.9l-0.7-0.2c-0.2,1.4-0.9,2.7-1.8,3.7c-1,1-2.1,1.7-3.4,2.2L95.9,241.6z M92.4,246.3h3.8l3.9-0.1
					c1.3,0,2.6-0.1,3.9-0.1s2.5-0.1,3.7-0.2v-0.8c-1.2,0.1-2.5,0.1-3.8,0.2s-2.6,0.1-3.9,0.1l-3.9,0.1h-3.8L92.4,246.3z
					 M100.6,245.6h0.7v-4.1h-0.7V245.6z M100.6,209.8c-1.1,0.1-2.2,0.1-3.3,0.1s-2.1,0.1-3.2,0.1l0.1,0.8c0.9,0,1.9,0,2.9-0.1
					l2.9-0.1L100.6,209.8z M93.6,219c0.8-0.4,1.6-0.9,2.4-1.5c0.8-0.6,1.5-1.4,2.1-2.1c0.3-0.4,0.6-0.8,0.8-1.2
					c0.3-0.5,0.5-0.9,0.7-1.4c0.2-0.5,0.4-1,0.6-1.4c0.2-0.5,0.3-0.9,0.4-1.4l-0.9,0.3c-0.2,0.8-0.4,1.6-0.8,2.4
					c-0.4,0.9-0.8,1.7-1.4,2.4c-0.6,0.7-1.3,1.4-2,2c-0.7,0.6-1.5,1.1-2.3,1.5L93.6,219z M104.1,222.8h0.7v-16.6h-0.7V222.8z
					 M108.2,214.1h-3.3l-0.4,0.4l0.4,0.4h3.3V214.1z M98.4,197.2c0.4-0.2,0.8-0.5,1.1-0.8c0.3-0.3,0.6-0.7,0.7-1.2
					c0.3-0.9,0.3-1.9,0-2.9c-0.2-0.4-0.4-0.8-0.7-1.2c-0.3-0.3-0.7-0.6-1.1-0.8c-0.9-0.4-1.9-0.4-2.8,0c-0.8,0.4-1.5,1.1-1.8,2
					c-0.3,0.9-0.3,1.9,0,2.9c0.3,0.9,1,1.6,1.8,2C96.5,197.7,97.5,197.7,98.4,197.2 M98.1,191.2c0.3,0.1,0.6,0.4,0.9,0.6
					c0.2,0.3,0.4,0.6,0.6,0.9c0.3,0.8,0.3,1.6,0,2.3c-0.1,0.3-0.3,0.7-0.6,0.9c-0.2,0.3-0.5,0.5-0.9,0.6c-0.4,0.2-0.7,0.2-1.1,0.2
					c-0.4,0-0.8-0.1-1.1-0.2c-0.3-0.1-0.6-0.4-0.9-0.6c-0.2-0.3-0.4-0.6-0.6-0.9c-0.3-0.8-0.3-1.6,0-2.3c0.1-0.3,0.3-0.7,0.6-0.9
					c0.2-0.3,0.5-0.5,0.9-0.6c0.4-0.2,0.7-0.2,1.1-0.2C97.4,190.9,97.8,191,98.1,191.2 M104.1,202.8h0.7v-16.7h-0.7V202.8z
					 M93.5,178.3c1.4-1,2.6-2.4,3.3-3.9c0.8-1.7,1.3-3.4,1.4-5.3l-0.8-0.1c-0.1,1.7-0.6,3.4-1.3,5c-0.7,1.5-1.8,2.8-3.2,3.7
					L93.5,178.3z M108.2,173.7h-3.3l-0.4,0.4l0.4,0.4h3.3V173.7z M101.6,177.7l-3.3-4l-0.6,0.5c0.5,0.6,1,1.2,1.6,1.9
					s1.1,1.4,1.6,2.1L101.6,177.7z M104.1,182.8h0.7v-16.7h-0.7V182.8z M93.8,158.7c1.3-1,2.3-2.3,3.2-3.7c0.8-1.4,1.4-2.9,1.8-4.5
					l-0.8-0.1c-0.2,0.8-0.4,1.5-0.7,2.3c-0.3,0.7-0.6,1.4-1,2c-0.4,0.6-0.8,1.2-1.3,1.7c-0.5,0.6-1.1,1.1-1.7,1.7L93.8,158.7z
					 M108.2,153.9h-3.3l-0.4,0.4l0.4,0.4h3.3V153.9z M102.3,157.8l-3.9-3.6l-0.5,0.6l0.9,0.8l1,0.9l1,1c0.3,0.3,0.6,0.6,0.9,0.9
					L102.3,157.8z M101.5,150l-1.7,0.1l-2.1,0.1h-2.1H94l0.1,0.8h1.7l2-0.1l2-0.1l1.7-0.1L101.5,150z M104.1,162.8h0.7v-16.7h-0.7
					V162.8z M105,126.9l-1.9,0.1c-0.7,0-1.5,0-2.2,0.1h-2.2h-1.8l0.1,0.8h1.7h2h2c0.7,0,1.2,0,1.7-0.1L105,126.9z M104.3,131.6
					c0.1-0.4,0.2-0.8,0.2-1.2s0.1-0.7,0.2-1.1s0.1-0.7,0.1-1.1s0.1-0.8,0.1-1.3l-0.8,0.3c0,0.4,0,0.8-0.1,1.1s-0.1,0.7-0.1,1
					s-0.1,0.6-0.2,1s-0.2,0.7-0.2,1.1L104.3,131.6z M106,141.2l-2,0.1c-0.8,0-1.6,0.1-2.4,0.1h-2.4c-0.8,0-1.5,0-2,0v0.8
					c0.6,0,1.2,0,2,0h2.4l2.4-0.1c0.8,0,1.4-0.1,2-0.1L106,141.2z M97.1,141.8h0.7v-2.9h-0.7V141.8z M104.9,138.3
					c-0.5,0-1.1,0.1-1.8,0.1l-2.1,0.1h-2.1h-1.8v0.8h1.7l2.1-0.1l2.1-0.1l1.8-0.1L104.9,138.3z M104.1,138.7h0.7v-2.9h-0.7V138.7z
					 M104.9,135.4l-1.9,0.1l-2.2,0.1h-2.1h-1.8l0.1,0.8h1.8l2.1-0.1l2.1-0.1l1.9-0.1L104.9,135.4z M91.9,133.4h3.9l4.1-0.1
					c1.4,0,2.7-0.1,4.1-0.1s2.6-0.1,3.8-0.2v-0.8c-1.2,0.1-2.5,0.1-3.8,0.2s-2.7,0.1-4.1,0.1l-4.1,0.1h-3.9L91.9,133.4z
					 M108.1,109.9h-3.2l-0.4,0.4l0.4,0.4h3.2V109.9z M108.1,105.6h-3.2l-0.4,0.4l0.4,0.4h3.2V105.6z M98.5,111.3
					c0.4-0.2,0.8-0.5,1.1-0.8c0.3-0.3,0.5-0.7,0.7-1.2c0.3-0.9,0.3-1.9,0-2.9c-0.2-0.4-0.4-0.8-0.7-1.2c-0.3-0.3-0.7-0.6-1.1-0.8
					c-0.9-0.4-1.9-0.4-2.8,0c-0.4,0.2-0.8,0.4-1.1,0.8c-0.3,0.3-0.5,0.7-0.7,1.2c-0.3,0.9-0.3,1.9,0,2.9c0.2,0.4,0.4,0.8,0.7,1.2
					c0.3,0.3,0.7,0.6,1.1,0.8C96.6,111.6,97.6,111.6,98.5,111.3 M98.2,105.2c0.3,0.1,0.6,0.4,0.8,0.6c0.2,0.3,0.4,0.6,0.5,0.9
					c0.3,0.7,0.3,1.6,0,2.3c-0.1,0.3-0.3,0.7-0.5,0.9c-0.2,0.3-0.5,0.5-0.8,0.6c-0.4,0.2-0.7,0.2-1.1,0.2c-0.4,0-0.8-0.1-1.1-0.2
					c-0.3-0.1-0.6-0.4-0.8-0.6c-0.2-0.3-0.4-0.6-0.5-0.9c-0.3-0.7-0.3-1.6,0-2.3c0.1-0.3,0.3-0.7,0.5-0.9c0.2-0.3,0.5-0.5,0.8-0.6
					c0.4-0.2,0.7-0.2,1.1-0.2C97.5,104.9,97.9,105,98.2,105.2 M104.1,116.8h0.7v-16.7h-0.7V116.8z M104.2,89.3h-3.4v0.8h3.4V89.3z
					 M93.2,92.9c1.3-1.1,2.4-2.3,3.2-3.8c0.8-1.5,1.5-3.1,1.8-4.7l-0.8-0.1c-0.2,0.8-0.4,1.6-0.7,2.4c-0.3,0.7-0.6,1.4-1,2.1
					c-0.4,0.7-0.8,1.3-1.3,1.9c-0.5,0.6-1.1,1.2-1.8,1.7L93.2,92.9z M104.2,85.7h-3.4v0.8h3.4V85.7z M101.1,92.3l-3.2-4l-0.6,0.5
					l0.7,0.9l0.8,1c0.3,0.4,0.6,0.7,0.8,1.1l0.8,1L101.1,92.3z M100.9,83.8l-1.7,0.1l-2,0.1h-2h-1.7l0.1,0.8h1.6h2l2-0.1l1.7-0.1
					L100.9,83.8z M104.1,96.8h0.7V80.1h-0.7V96.8z M108.2,67.7h-3.3l-0.4,0.4l0.4,0.4h3.3V67.7z M98.5,71.3c0.4-0.2,0.8-0.5,1.1-0.8
					c0.3-0.3,0.5-0.7,0.7-1.2c0.3-0.9,0.3-1.9,0-2.9c-0.2-0.4-0.4-0.8-0.7-1.2c-0.3-0.3-0.7-0.6-1.1-0.8c-0.9-0.4-1.9-0.4-2.8,0
					c-0.4,0.2-0.8,0.5-1.1,0.8c-0.3,0.3-0.5,0.7-0.7,1.2c-0.3,0.9-0.3,1.9,0,2.9c0.2,0.4,0.4,0.8,0.7,1.2c0.3,0.3,0.7,0.6,1.1,0.8
					C96.6,71.7,97.6,71.7,98.5,71.3 M98.2,65.1c0.3,0.1,0.6,0.4,0.8,0.6c0.2,0.3,0.4,0.6,0.5,0.9c0.3,0.8,0.3,1.6,0,2.3
					c-0.1,0.3-0.3,0.7-0.5,0.9c-0.2,0.3-0.5,0.5-0.8,0.6c-0.4,0.2-0.7,0.2-1.1,0.2c-0.4,0-0.8-0.1-1.1-0.2c-0.3-0.1-0.6-0.4-0.8-0.6
					c-0.2-0.3-0.4-0.6-0.5-0.9c-0.3-0.8-0.3-1.6,0-2.3c0.1-0.3,0.3-0.7,0.5-0.9c0.2-0.3,0.5-0.5,0.8-0.6c0.4-0.2,0.7-0.2,1.1-0.2
					C97.5,64.9,97.9,65,98.2,65.1 M104.1,76.8h0.7V60.1h-0.7V76.8z M102,48.6l-3.5-2.9L98,46.4c0.6,0.5,1.1,0.9,1.7,1.4
					s1.1,1,1.7,1.5L102,48.6z M101.3,42.3l-1.6,0.1l-1.9,0.1l-1.9,0.1h-1.6l0.1,0.8h1.6l1.9-0.1l1.9-0.1l1.6-0.1V42.3z M94,50.1
					c1.2-0.8,2.2-1.8,3-3.1c0.7-1.3,1.2-2.7,1.5-4.1l-0.8-0.1c-0.1,0.7-0.3,1.4-0.5,2.1c-0.2,0.6-0.5,1.2-0.8,1.7
					c-0.3,0.5-0.7,1-1.2,1.5c-0.5,0.5-1,0.9-1.6,1.3L94,50.1z M104.1,50.1h0.7v-10h-0.7V50.1z M104.8,51.4l-2,0.1l-2.3,0.1h-2.3
					h-1.9l0.1,0.8h1.9h2.3l2.3-0.1l2-0.1L104.8,51.4z M104.1,56.6h0.7v-4.7h-0.7V56.6z M108.2,45.6h-3.3l-0.4,0.3l0.4,0.4h3.3V45.6z
					"/>
				<path class="st1" d="M130.6,321.8c-1.1,0.1-2.2,0.1-3.3,0.1s-2.1,0.1-3.2,0.1l0.1,0.8c0.9,0,1.9,0,2.9-0.1l2.9-0.1L130.6,321.8z
					 M123.6,331c0.9-0.4,1.7-1,2.4-1.6c0.8-0.6,1.5-1.4,2.1-2.1c0.3-0.4,0.6-0.8,0.8-1.2c0.3-0.5,0.5-0.9,0.7-1.4
					c0.2-0.5,0.4-1,0.6-1.4c0.1-0.5,0.3-0.9,0.4-1.4l-0.9,0.3c-0.2,0.8-0.4,1.6-0.8,2.4c-0.4,0.9-0.8,1.7-1.4,2.4
					c-0.6,0.7-1.3,1.4-2,2c-0.7,0.6-1.5,1.1-2.3,1.5L123.6,331z M134.1,334.8h0.7v-16.7h-0.7V334.8z M138.2,326.1h-3.3l-0.4,0.4
					l0.4,0.4h3.3V326.1z M123.8,310.7c1.2-1,2.3-2.2,3.2-3.6c0.8-1.4,1.4-2.9,1.8-4.5l-0.8-0.1c-0.2,0.8-0.4,1.5-0.7,2.3
					c-0.3,0.7-0.6,1.4-1,2c-0.4,0.6-0.8,1.2-1.3,1.8c-0.5,0.6-1.1,1.1-1.7,1.7L123.8,310.7z M138.2,305.9h-3.3l-0.4,0.4l0.4,0.4h3.3
					V305.9z M132.3,309.8l-3.9-3.6l-0.5,0.6l0.9,0.8l1,0.9l1,1c0.3,0.3,0.6,0.6,0.9,0.9L132.3,309.8z M131.5,301.9l-1.7,0.1
					l-2.1,0.1h-2.1H124l0.1,0.8h1.7h2l2-0.1l1.7-0.1L131.5,301.9z M134.1,314.8h0.7v-16.7h-0.7V314.8z M135,278.9l-1.9,0.1
					c-0.7,0-1.4,0-2.2,0.1h-2.2h-1.8l0.1,0.8h1.7h2h2c0.7,0,1.2,0,1.7-0.1L135,278.9z M134.3,283.5c0.1-0.4,0.2-0.8,0.2-1.2
					s0.1-0.7,0.2-1.1s0.1-0.7,0.1-1.1s0.1-0.8,0.1-1.3l-0.8,0.3c0,0.4,0,0.8-0.1,1.1s-0.1,0.7-0.1,1s-0.1,0.6-0.2,1
					s-0.2,0.7-0.2,1.1L134.3,283.5z M136,293.1l-2,0.1c-0.8,0-1.6,0.1-2.4,0.1h-2.4c-0.8,0-1.5,0-2,0v0.8c0.6,0,1.2,0,2,0h2.4
					l2.4-0.1c0.8,0,1.4-0.1,2-0.1L136,293.1z M127.1,293.7h0.7v-2.9h-0.7V293.7z M134.9,290.2c-0.5,0-1.1,0.1-1.8,0.1l-2.1,0.1h-2.1
					h-1.8v0.8h1.7l2.1,0l2.1-0.1l1.8-0.1L134.9,290.2z M134.1,290.6h0.7v-2.9h-0.7V290.6z M134.9,287.4l-1.9,0.1l-2.2,0.1l-2.1,0
					h-1.8l0.1,0.8h1.8l2.1,0l2.1-0.1l1.9-0.1L134.9,287.4z M121.9,285.3h3.9l4.1-0.1c1.4,0,2.7-0.1,4.1-0.1s2.6-0.1,3.8-0.2v-0.8
					c-1.2,0.1-2.5,0.1-3.9,0.2s-2.7,0.1-4.1,0.1l-4.1,0.1h-3.9L121.9,285.3z M130.9,259.8h3.6V259h-3.6V259.8z M130.9,256.4h3.6
					v-0.8h-3.6V256.4z M124.2,260.1h0.7v-5.6h-0.7V260.1z M130,254.4c-0.9,0-1.9,0.1-2.9,0.1h-2.9l0.1,0.8h2.9c1,0,2,0,2.9-0.1
					V254.4z M129.2,260.2h0.8v-5.3h-0.7L129.2,260.2z M130,259.8h-5.8v0.8h5.8L130,259.8z M134.1,264h0.7v-11.9h-0.7V264z
					 M136,266.4l-1.9,0.1c-0.7,0-1.5,0.1-2.3,0.1h-2.4c-0.8,0-1.4,0-2,0v0.8c0.6,0,1.2,0,2,0h2.4l2.4-0.1c0.8,0,1.4-0.1,1.9-0.1
					L136,266.4z M127.4,267.2h0.7V263h-0.7V267.2z M128.8,245.1c0.4-0.2,0.7-0.4,0.9-0.6c0.2-0.3,0.4-0.6,0.6-0.9
					c0.3-0.7,0.3-1.4,0-2.1c-0.1-0.3-0.3-0.7-0.6-0.9c-0.3-0.3-0.6-0.5-0.9-0.6c-0.8-0.3-1.7-0.3-2.6,0c-0.4,0.2-0.7,0.4-0.9,0.6
					c-0.2,0.3-0.4,0.6-0.6,0.9c-0.3,0.7-0.3,1.4,0,2.1c0.1,0.3,0.3,0.7,0.6,0.9c0.3,0.3,0.6,0.5,0.9,0.6
					C127.1,245.4,128,245.4,128.8,245.1 M126.5,244.5c-0.3-0.1-0.5-0.3-0.7-0.5c-0.2-0.2-0.3-0.4-0.4-0.7c-0.1-0.2-0.1-0.5-0.1-0.8
					c0-0.3,0.1-0.5,0.1-0.8c0.1-0.3,0.2-0.5,0.4-0.7c0.2-0.2,0.4-0.4,0.7-0.5c0.3-0.1,0.7-0.2,1-0.2c0.3,0,0.7,0.1,1,0.2
					c0.3,0.1,0.5,0.3,0.7,0.5c0.2,0.2,0.3,0.4,0.4,0.7c0.1,0.2,0.1,0.5,0.1,0.8c0,0.3,0,0.5-0.1,0.8c-0.1,0.3-0.2,0.5-0.4,0.7
					c-0.2,0.2-0.4,0.4-0.7,0.5c-0.3,0.1-0.7,0.2-1,0.2C127.2,244.7,126.8,244.6,126.5,244.5 M138.2,240.1h-3.3l-0.4,0.4l0.4,0.4h3.3
					V240.1z M131.4,237.2l-1.8,0.1l-2.3,0.1H125h-1.8l0.1,0.8h1.1h1.4h1.6h1.6l1.4,0h1.1V237.2z M129.7,235
					c-0.7-0.2-1.4-0.5-2.1-0.7s-1.3-0.5-2.1-0.9l-0.3,0.8c0.7,0.3,1.4,0.6,2.1,0.8c0.7,0.2,1.4,0.5,2.1,0.7L129.7,235z M134.1,248.8
					h0.7v-16.7h-0.7V248.8z M135,214.8l-2,0.1c-0.8,0-1.6,0-2.4,0.1h-2.4h-1.9l0.1,0.8h1.8h2.2h2.2c0.7,0,1.3,0,1.9-0.1L135,214.8z
					 M134.3,221.8c0.2-1.1,0.3-2.3,0.5-3.4s0.2-2.3,0.2-3.5l-0.8,0.3c0,1-0.1,2.1-0.2,3.2s-0.3,2.2-0.4,3.3L134.3,221.8z M128,225.8
					l-0.1-5.4h-0.8l0.2,5.4H128z M131,225.6h0.7v-5.5H131V225.6z M122.3,226.4h3.8l3.9-0.1c1.3,0,2.6-0.1,3.9-0.1s2.5-0.1,3.7-0.2
					v-0.8c-1.2,0.1-2.5,0.1-3.8,0.2s-2.6,0.1-3.9,0.1l-3.9,0.1h-3.8L122.3,226.4z M130.4,203.1h-6.3v0.8h6.3V203.1z M130.4,198.8
					l-3.1,0.1c-1.1,0-2.1,0.1-3.1,0.1v0.8h1.5h1.6l1.6-0.1c0.5,0,1.1,0,1.5-0.1V198.8z M130.4,195.2h-0.7v8.3h0.7V195.2z
					 M124.1,203.5h0.7v-8h-0.7V203.5z M134.1,208.8h0.7v-16.7h-0.7V208.8z M124.9,173.1c0.2,0.4,0.4,0.7,0.7,1
					c1.3,1.3,3.4,1.3,4.7,0c0.3-0.3,0.5-0.6,0.7-1c0.3-0.8,0.3-1.7,0-2.5c-0.3-0.8-1-1.4-1.7-1.7c-1.2-0.5-2.7-0.3-3.6,0.7
					c-0.3,0.3-0.5,0.6-0.7,1C124.6,171.5,124.6,172.3,124.9,173.1 M125.6,171c0.2-0.6,0.7-1.1,1.3-1.3c0.6-0.2,1.4-0.2,2,0
					c0.6,0.2,1.1,0.7,1.3,1.3c0.3,0.6,0.3,1.3,0,1.9c-0.2,0.6-0.7,1.1-1.3,1.3c-0.6,0.2-1.4,0.2-2,0c-0.6-0.2-1.1-0.7-1.3-1.3
					C125.3,172.2,125.3,171.6,125.6,171 M127.7,178.4h0.7v-2.8h-0.7V178.4z M134.1,182.8h0.7v-16.7h-0.7V182.8z M133,177.3
					c-1,0.2-1.9,0.3-2.8,0.4s-1.7,0.2-2.5,0.3s-1.7,0.1-2.5,0.2s-1.8,0.1-2.8,0.1l0.2,0.8c1,0,1.9-0.1,2.8-0.1s1.7-0.1,2.5-0.2
					l2.5-0.3l2.7-0.4L133,177.3z M138.2,174.3h-3.3l-0.4,0.4l0.4,0.4h3.3V174.3z M127.8,151c0.2,0.4,0.5,0.7,0.8,1
					c0.4,0.3,0.8,0.5,1.2,0.6c1,0.3,2,0.3,2.9,0c0.4-0.1,0.8-0.4,1.2-0.6c0.3-0.3,0.6-0.6,0.8-1c0.4-0.8,0.4-1.8,0-2.6
					c-0.2-0.4-0.5-0.7-0.8-1c-0.4-0.3-0.8-0.5-1.2-0.6c-1-0.3-2-0.3-2.9,0c-0.4,0.1-0.8,0.4-1.2,0.6c-0.3,0.3-0.6,0.6-0.8,1
					C127.4,149.2,127.4,150.2,127.8,151 M133.3,151.5c-1.3,0.8-3,0.8-4.2,0c-1-0.8-1.1-2.2-0.4-3.2c0.1-0.1,0.2-0.3,0.4-0.4
					c1.3-0.8,3-0.8,4.2,0c1,0.8,1.1,2.2,0.4,3.2C133.6,151.2,133.5,151.4,133.3,151.5 M121.9,155.8h3.9l4.1-0.1
					c1.4,0,2.7-0.1,4.1-0.1s2.6-0.1,3.8-0.2v-0.8c-1.2,0.1-2.5,0.1-3.9,0.2s-2.7,0.1-4.1,0.1l-4.1,0.1h-3.9L121.9,155.8z
					 M130.9,162.4h0.7V155h-0.7V162.4z M130.7,133.9h3.8v-0.8h-3.8V133.9z M133,142.1c0.4-0.1,0.7-0.4,1-0.6
					c0.3-0.3,0.5-0.6,0.7-0.9c0.3-0.7,0.3-1.6,0-2.3c-0.2-0.3-0.4-0.7-0.7-0.9c-0.3-0.3-0.6-0.5-1-0.6c-0.4-0.2-0.8-0.2-1.3-0.2
					c-0.4,0-0.9,0.1-1.3,0.2c-0.4,0.1-0.7,0.4-1,0.6c-0.3,0.3-0.5,0.6-0.7,0.9c-0.3,0.7-0.3,1.6,0,2.3c0.2,0.3,0.4,0.7,0.7,0.9
					c0.3,0.3,0.6,0.5,1,0.6c0.4,0.2,0.8,0.2,1.3,0.2C132.2,142.3,132.6,142.2,133,142.1 M132.7,137.4c0.3,0.1,0.6,0.3,0.8,0.5
					c0.2,0.2,0.4,0.4,0.5,0.7c0.3,0.5,0.3,1.2,0,1.7c-0.1,0.3-0.3,0.5-0.5,0.7c-0.2,0.2-0.5,0.4-0.8,0.5c-0.6,0.2-1.4,0.2-2,0
					c-0.3-0.1-0.6-0.3-0.8-0.5c-0.2-0.2-0.4-0.4-0.5-0.7c-0.3-0.5-0.3-1.2,0-1.7c0.1-0.3,0.3-0.5,0.5-0.7c0.2-0.2,0.5-0.4,0.8-0.5
					C131.4,137.1,132.1,137.1,132.7,137.4 M130.7,130.6h3.8v-0.8h-3.8V130.6z M123.9,136.5c0.8-0.4,1.5-0.9,2.2-1.5
					c0.7-0.6,1.3-1.2,1.8-1.9c0.5-0.7,1-1.4,1.4-2.2c0.4-0.8,0.7-1.6,0.9-2.4l-0.9,0.3c-0.4,1.5-1.1,2.8-2,4
					c-1.1,1.3-2.4,2.4-3.8,3.2L123.9,136.5z M130.2,128.5l-1.6,0.1l-1.4,0.1h-1.4h-1.5l0.1,0.8h1.3h1.3h1.3c0.4,0,0.9,0,1.3-0.1
					L130.2,128.5z M134.1,135.8h0.7v-9.6h-0.7V135.8z M121.9,109.4h3.9l4.1-0.1c1.4,0,2.7-0.1,4.1-0.1s2.6-0.1,3.8-0.2v-0.8
					c-1.2,0.1-2.5,0.1-3.9,0.2s-2.7,0.1-4.1,0.1l-4.1,0.1h-3.9L121.9,109.4z M135.8,114.6l-2,0.1c-0.8,0-1.6,0.1-2.4,0.1h-2.4
					c-0.8,0-1.5,0-2,0v0.8c0.6,0,1.2,0,2,0h2.4l2.4-0.1c0.8,0,1.4-0.1,2-0.1L135.8,114.6z M135.6,104.7l-1.9,0.1
					c-0.8,0-1.5,0.1-2.3,0.1h-2.4c-0.8,0-1.4,0-2,0v0.8c0.6,0,1.2,0,2,0h2.4l2.4-0.1c0.8,0,1.4-0.1,1.9-0.1L135.6,104.7z M127,105.7
					h0.7v-4.8H127V105.7z M127,115.6h0.7v-4.3H127V115.6z M128.8,93.2c0.4-0.2,0.7-0.4,0.9-0.6c0.2-0.3,0.4-0.6,0.6-0.9
					c0.3-0.7,0.3-1.4,0-2.1c-0.1-0.3-0.3-0.7-0.6-0.9c-0.3-0.3-0.6-0.5-0.9-0.6c-0.8-0.3-1.7-0.3-2.6,0c-0.4,0.2-0.7,0.4-0.9,0.6
					c-0.2,0.3-0.4,0.6-0.6,0.9c-0.3,0.7-0.3,1.4,0,2.1c0.1,0.3,0.3,0.7,0.6,0.9c0.3,0.3,0.6,0.5,0.9,0.6
					C127.1,93.5,128,93.5,128.8,93.2 M126.5,92.5c-0.3-0.1-0.5-0.3-0.7-0.5c-0.2-0.2-0.3-0.4-0.4-0.7c-0.1-0.2-0.1-0.5-0.1-0.8
					c0-0.3,0.1-0.5,0.1-0.8c0.1-0.3,0.2-0.5,0.4-0.7c0.2-0.2,0.4-0.4,0.7-0.5c0.3-0.1,0.7-0.2,1-0.2c0.3,0,0.7,0.1,1,0.2
					c0.3,0.1,0.5,0.3,0.7,0.5c0.2,0.2,0.3,0.4,0.4,0.7c0.1,0.2,0.1,0.5,0.1,0.8c0,0.3,0,0.5-0.1,0.8c-0.1,0.3-0.2,0.5-0.4,0.7
					c-0.2,0.2-0.4,0.4-0.7,0.5c-0.3,0.1-0.7,0.2-1,0.2C127.2,92.7,126.8,92.7,126.5,92.5 M138.2,88.2h-3.3l-0.4,0.4l0.4,0.4h3.3
					V88.2z M131.4,85.3l-1.8,0.1l-2.3,0.1H125h-1.8l0.1,0.8h1.1h1.4h1.6h1.6h1.4h1.1V85.3z M129.7,83c-0.7-0.2-1.4-0.5-2.1-0.7
					s-1.3-0.5-2.1-0.8l-0.3,0.8c0.7,0.3,1.4,0.6,2.1,0.8c0.7,0.2,1.4,0.5,2.1,0.7L129.7,83z M134.1,96.8h0.7V80.1h-0.7V96.8z
					 M129.7,68.6l0.3-4.5h-0.8l-0.2,4.4L129.7,68.6z M126.2,68.9l-0.3-4.5l-0.8,0.1l0.4,4.5L126.2,68.9z M132.2,68
					c-1.5,0.2-3,0.3-4.5,0.5s-3.1,0.2-4.8,0.2l0.1,0.8c1.6,0,3.2-0.1,4.7-0.3s3-0.3,4.5-0.5L132.2,68z M131.1,62.3
					c-0.5,0-1,0.1-1.7,0.1l-2,0.1l-2,0.1h-1.7l0.1,0.8h1.7l2-0.1l2-0.1l1.7-0.1L131.1,62.3z M138.1,65.9h-3.3l-0.4,0.4l0.4,0.4h3.3
					V65.9z M134.1,72h0.7V60.1h-0.7V72z M136,74.4l-1.9,0.1c-0.7,0-1.5,0.1-2.3,0.1h-2.4c-0.8,0-1.4,0-2,0v0.8c0.6,0,1.2,0,2,0h2.4
					l2.4-0.1c0.8,0,1.4-0.1,1.9-0.1L136,74.4z M127.4,75.2h0.7v-3.9h-0.7V75.2z M135,42.7l-2,0.1l-2.3,0.1h-2.3h-2l0.1,0.8h1.9h2.2
					l2.2-0.1l2-0.1L135,42.7z M136.1,48.7l-4.5-3l-0.4,0.7l1.1,0.7l1.1,0.8l1.1,0.8l1.1,0.7L136.1,48.7z M125.9,49.6
					c1.4-0.5,2.7-1.3,3.7-2.4c1-1.1,1.7-2.5,1.9-3.9l-0.7-0.2c-0.2,1.4-0.9,2.6-1.8,3.7c-1,1-2.1,1.7-3.4,2.2L125.9,49.6z
					 M122.4,54.3h3.8l3.9-0.1c1.3,0,2.6-0.1,3.9-0.1s2.5-0.1,3.7-0.2v-0.8c-1.2,0.1-2.5,0.2-3.8,0.2s-2.6,0.1-3.9,0.1l-3.9,0.1h-3.8
					L122.4,54.3z M130.6,53.6h0.7v-4.1h-0.7V53.6z"/>
				<path class="st1" d="M152.4,314.8h3.8l3.9-0.1c1.3,0,2.6-0.1,3.9-0.1s2.5-0.1,3.7-0.2v-0.8c-1.2,0.1-2.5,0.1-3.8,0.2
					s-2.6,0.1-3.9,0.1l-3.9,0.1h-3.9L152.4,314.8z M160.8,314.1h0.7V311h-0.7V314.1z M165.4,309.5l-1.9,0.1c-0.7,0-1.5,0.1-2.3,0.1
					h-2.3c-0.7,0-1.4,0-1.9,0v0.8c0.6,0,1.2,0,1.9,0h2.3l2.3-0.1c0.7,0,1.4-0.1,1.9-0.1V309.5z M156.9,310.1h0.7v-3.3h-0.7V310.1z
					 M164.9,306.2c-0.5,0-1.1,0.1-1.9,0.1l-2.2,0.1h-2.1H157v0.8h1.8l2.1,0l2.1-0.1l1.9-0.1L164.9,306.2z M164.2,306.6h0.7v-3.3
					h-0.7V306.6z M164.9,302.9L163,303l-2.2,0.1l-2.2,0h-1.9l0.1,0.8h1.8h2.2l2.2-0.1l1.9-0.1L164.9,302.9z M160.5,284.6
					c-1.1,0.1-2.2,0.1-3.3,0.1s-2.2,0.1-3.2,0.1l0.1,0.8c0.9,0,1.9,0,2.9-0.1l2.9-0.1L160.5,284.6z M153.5,293.8
					c0.9-0.4,1.7-1,2.4-1.6c0.8-0.6,1.5-1.4,2.1-2.2c0.3-0.4,0.6-0.8,0.8-1.2c0.3-0.5,0.5-0.9,0.7-1.4c0.2-0.5,0.4-1,0.6-1.4
					c0.2-0.5,0.3-0.9,0.4-1.4l-0.9,0.3c-0.2,0.8-0.4,1.6-0.8,2.4c-0.4,0.9-0.9,1.7-1.5,2.4c-0.6,0.7-1.3,1.4-2,2
					c-0.7,0.6-1.5,1.1-2.3,1.5L153.5,293.8z M164.1,297.5h0.7v-16.7h-0.7V297.5z M158,270.5l-1.7-2.5l-0.6,0.5
					c0.3,0.5,0.7,0.9,1,1.4c0.3,0.5,0.6,0.9,0.9,1.4L158,270.5z M163.2,272.4l-2.7-3.8L160,269l0.6,0.9c0.2,0.3,0.5,0.7,0.7,1
					s0.5,0.7,0.7,1s0.4,0.6,0.6,0.9L163.2,272.4z M157.5,273.6c0.4-0.6,0.8-1.2,1.1-1.9c0.3-0.7,0.6-1.4,0.9-2.1
					c0.3-0.7,0.5-1.5,0.6-2.2c0.2-0.8,0.3-1.5,0.4-2.2h-0.8c-0.1,1.4-0.4,2.8-0.9,4.2c-0.5,1.3-1.1,2.6-2,3.8L157.5,273.6z
					 M162.2,264.7l-1.1,0.1h-1h-1h-1.1l0.1,0.8h1.1h1h1l1.1-0.1L162.2,264.7z M157.6,264.7l-1.2,0.1h-1h-1h-1.2l0.1,0.8h1.1h1h1
					l1.2-0.1L157.6,264.7z M153.3,272.8c0.8-1.1,1.5-2.3,1.9-3.6c0.4-1.3,0.7-2.6,0.9-4h-0.8c-0.1,0.7-0.2,1.4-0.3,2
					c-0.1,0.6-0.3,1.2-0.5,1.8c-0.2,0.6-0.5,1.2-0.8,1.7c-0.3,0.6-0.7,1.2-1.1,1.7L153.3,272.8z M164.1,277.5h0.7v-16.6h-0.7V277.5z
					 M168.2,268.6h-3.3l-0.4,0.4l0.4,0.4h3.3V268.6z M152.4,254.8h3.8l3.9-0.1c1.3,0,2.6-0.1,3.9-0.1s2.5-0.1,3.7-0.2v-0.8
					c-1.2,0.1-2.5,0.1-3.8,0.2s-2.6,0.1-3.9,0.1l-3.9,0.1h-3.9L152.4,254.8z M160.8,254.1h0.7V251h-0.7V254.1z M165.4,249.5
					l-1.9,0.1c-0.7,0-1.5,0.1-2.3,0.1h-2.3c-0.7,0-1.4,0-1.9,0v0.8c0.6,0,1.2,0,1.9,0h2.3l2.3-0.1c0.7,0,1.4-0.1,1.9-0.1V249.5z
					 M156.9,250.1h0.7v-3.3h-0.7V250.1z M164.9,246.2c-0.5,0-1.1,0.1-1.9,0.1l-2.2,0.1h-2.1H157v0.8h1.8l2.1,0l2.1-0.1l1.9-0.1
					L164.9,246.2z M164.2,246.5h0.7v-3.3h-0.7V246.5z M164.9,242.9L163,243l-2.2,0.1l-2.2,0h-1.9l0.1,0.8h1.8h2.2l2.2-0.1l1.9-0.1
					L164.9,242.9z M160.6,224.5c-1.1,0.1-2.2,0.1-3.3,0.1s-2.1,0.1-3.2,0.1l0.1,0.8c0.9,0,1.9,0,2.9-0.1l2.9-0.1L160.6,224.5z
					 M153.7,233.7c0.9-0.4,1.7-1,2.4-1.6c0.8-0.6,1.4-1.4,2.1-2.1c0.3-0.4,0.6-0.8,0.8-1.2c0.3-0.5,0.5-0.9,0.7-1.4
					c0.2-0.5,0.4-1,0.6-1.4c0.1-0.5,0.3-0.9,0.4-1.4l-0.9,0.3c-0.2,0.8-0.4,1.6-0.8,2.4c-0.4,0.9-0.8,1.7-1.4,2.4
					c-0.6,0.7-1.3,1.4-2,2c-0.7,0.6-1.5,1.1-2.3,1.5L153.7,233.7z M164.1,237.5h0.7v-16.6h-0.7V237.5z M168.2,228.8h-3.3l-0.4,0.4
					l0.4,0.4h3.3V228.8z M163.6,210.4c0.1,0.2,0.3,0.5,0.4,0.7c0.2,0.2,0.4,0.3,0.6,0.4c0.5,0.2,1.1,0.2,1.6,0
					c0.2-0.1,0.5-0.3,0.6-0.4c0.2-0.2,0.3-0.4,0.4-0.7c0.2-0.5,0.2-1.1,0-1.6c-0.1-0.2-0.3-0.5-0.4-0.7c-0.2-0.2-0.4-0.3-0.6-0.4
					c-0.5-0.2-1.1-0.2-1.6,0c-0.2,0.1-0.5,0.3-0.6,0.4c-0.2,0.2-0.3,0.4-0.4,0.7C163.4,209.4,163.4,209.9,163.6,210.4 M166.5,210.6
					c-0.5,0.5-1.4,0.5-1.9,0c-0.5-0.5-0.5-1.4,0-1.9c0.5-0.5,1.4-0.5,1.9,0C167,209.2,167,210.1,166.5,210.6 M160.2,190
					c-0.9,0.1-1.9,0.1-2.9,0.1s-2,0-2.9,0v0.9h1.4h1.5l1.5-0.1l1.4-0.1V190z M161.8,196.3c-1.1,0.4-2.3,0.7-3.4,0.9
					c-1.3,0.2-2.6,0.3-3.9,0.2v0.7c1.3,0,2.7-0.1,4-0.3c1.2-0.2,2.4-0.5,3.6-0.9L161.8,196.3z M154.4,198.2l0.7-0.2v-7.2h-0.7V198.2
					z M168.2,194h-3.3l-0.4,0.4l0.4,0.4h3.3V194z M164.1,202.8h0.7v-16.7h-0.7V202.8z M162,176.2c-1.2,0.4-2.4,0.7-3.6,0.9
					c-1.3,0.2-2.6,0.4-3.9,0.4v0.7c1.3-0.1,2.7-0.2,4-0.5c1.3-0.2,2.5-0.5,3.7-0.9L162,176.2z M154.5,178.2l0.7-0.2v-8h-0.7V178.2z
					 M164.2,182.8h0.7v-16.6h-0.7V182.8z M166,151.1l-4.2-2.2l-0.4,0.7l2,1.1l2.1,1.1L166,151.1z M156.3,151.9
					c1.3-0.4,2.6-1.1,3.6-2.1c1-1,1.6-2.2,1.9-3.6l-0.7-0.2c-0.2,0.6-0.4,1.3-0.7,1.9c-0.3,0.5-0.6,1-1,1.4
					c-0.4,0.4-0.9,0.8-1.4,1.1c-0.6,0.3-1.2,0.6-1.9,0.8L156.3,151.9z M164.8,162.3h-7.4v-0.8h7.4V162.3z M164.8,159
					c-0.5,0-1.1,0-1.7,0.1l-2,0.1h-2h-1.6v-0.8h1.7h2l2-0.1l1.7-0.1L164.8,159z M164.8,161.8h-0.7v-5.6h0.7V161.8z M157.4,156.5h0.7
					v5.4h-0.7V156.5z M151.7,154h3.9l4.1-0.1c1.4,0,2.8-0.1,4.1-0.1s2.6-0.1,3.9-0.2v0.8c-1.2,0.1-2.5,0.1-3.8,0.2s-2.7,0.1-4.1,0.1
					l-4.1,0.1h-3.9L151.7,154z M158,127.8c-0.6-0.1-1.1-0.3-1.6-0.5c-0.5-0.2-1-0.4-1.6-0.6l-0.2,0.8c0.5,0.2,1.1,0.4,1.6,0.5
					l1.6,0.5L158,127.8z M157.3,135.8c0.3-0.1,0.6-0.3,0.8-0.5c0.2-0.2,0.4-0.5,0.5-0.8c0.3-0.6,0.3-1.2,0-1.8
					c-0.1-0.3-0.3-0.5-0.5-0.8c-0.2-0.2-0.5-0.4-0.8-0.5c-0.7-0.3-1.4-0.3-2.1,0c-0.3,0.1-0.6,0.3-0.8,0.5c-0.2,0.2-0.4,0.5-0.5,0.8
					c-0.3,0.6-0.3,1.2,0,1.8c0.1,0.3,0.3,0.5,0.5,0.8c0.2,0.2,0.5,0.4,0.8,0.5C155.8,136,156.6,136,157.3,135.8 M157.6,132.4
					c0.6,0.6,0.7,1.7,0,2.3c0,0,0,0,0,0c-0.8,0.7-1.9,0.7-2.7,0c-0.6-0.6-0.7-1.7,0-2.3c0,0,0,0,0,0
					C155.6,131.7,156.8,131.7,157.6,132.4 M159.2,129.3c-0.4,0-0.9,0.1-1.5,0.1h-1.8h-1.8h-1.5l0.1,0.8h1.5h1.7h1.7h1.5V129.3z
					 M160.9,135.3h0.7v-8h-0.7V135.3z M164.6,131.1h-3.2v0.8h3.2V131.1z M164.1,135.8h0.7v-9.6h-0.7V135.8z M161,140l-2-1.4
					l-0.4,0.6l1.9,1.3L161,140z M154.7,141.9c1.1-0.4,2-1.1,2.8-1.9c0.7-0.9,1.2-1.9,1.4-3l-0.8-0.2c-0.1,0.5-0.3,1.1-0.5,1.6
					c-0.2,0.4-0.4,0.8-0.7,1.2c-0.3,0.4-0.7,0.7-1.1,1c-0.5,0.3-1,0.6-1.5,0.8L154.7,141.9z M167,141.5l-3.2-2.3l-0.4,0.6l0.8,0.6
					c0.2,0.2,0.5,0.4,0.7,0.5l0.7,0.5l0.9,0.6L167,141.5z M160,142.2c1.1-0.5,2-1.2,2.6-2.2c0.6-0.9,1.1-2,1.2-3.1l-0.8-0.2
					c-0.1,0.5-0.2,1.1-0.4,1.6c-0.2,0.5-0.4,0.9-0.7,1.3c-0.3,0.4-0.6,0.8-1,1.1c-0.4,0.4-0.9,0.6-1.4,0.9L160,142.2z M154,115.3
					c1.1-0.7,2-1.7,2.8-2.8c0.7-1.1,1.2-2.4,1.4-3.8l-0.8-0.1c-0.1,0.7-0.3,1.3-0.5,1.9c-0.2,0.5-0.5,1.1-0.8,1.6
					c-0.3,0.5-0.7,0.9-1.1,1.3c-0.5,0.4-1,0.8-1.5,1.2L154,115.3z M164.4,110.7h-3.8v0.8h3.8V110.7z M161.1,108.1l-1.6,0.1l-1.9,0.1
					l-1.9,0.1H154l0.1,0.8h1.6l1.9-0.1l1.9-0.1l1.6-0.1V108.1z M161.2,114l-2.9-2.5l-0.5,0.6c0.5,0.4,1,0.9,1.4,1.2s0.9,0.8,1.4,1.3
					L161.2,114z M165.9,121H164c-0.8,0-1.5,0.1-2.3,0.1h-2.4c-0.8,0-1.4,0-2,0v0.8c0.6,0,1.2,0,2,0h2.4l2.4-0.1
					c0.8,0,1.4-0.1,1.9-0.1L165.9,121z M157.3,121.6h0.7v-2.7h-0.7V121.6z M164.8,118.3c-0.5,0-1.1,0.1-1.8,0.1l-2,0.1h-2h-1.7v0.8
					h1.7l2-0.1l2-0.1l1.8-0.1L164.8,118.3z M164.1,118.7h0.7v-2.8h-0.7V118.7z M164.8,115.6l-1.9,0.1l-2.1,0.1h-2.1h-1.8l0.1,0.8
					h1.8l2-0.1l2.1-0.1l1.8-0.1L164.8,115.6z M164.1,114.9h0.7v-8.7h-0.7V114.9z M165,88.8l-2,0.1l-2.3,0.1h-2.3c-0.7,0-1.4,0-2,0
					l0.1,0.8h1.9h2.2l2.2-0.1l2-0.1L165,88.8z M166.1,94.8l-4.5-3l-0.4,0.7l1.1,0.7l1.1,0.8l1.1,0.8l1.1,0.7L166.1,94.8z
					 M155.9,95.7c1.4-0.5,2.7-1.3,3.7-2.4c1-1.1,1.7-2.5,1.9-3.9l-0.7-0.2c-0.2,1.4-0.9,2.6-1.8,3.7c-1,1-2.1,1.7-3.4,2.2
					L155.9,95.7z M152.4,100.4h3.8l3.9-0.1c1.3,0,2.6-0.1,3.9-0.1s2.5-0.1,3.7-0.2v-0.8c-1.2,0.1-2.5,0.1-3.8,0.2s-2.6,0.1-3.9,0.1
					l-3.9,0.1h-3.9L152.4,100.4z M160.6,99.7h0.7v-4.1h-0.7V99.7z M161.7,71.5c-0.5,0.1-1.1,0.2-1.7,0.2l-1.8,0.2l-1.8,0.2
					c-0.6,0-1.2,0.1-1.7,0.1v-3.9H154V73c0.6,0,1.2,0,1.8-0.1l2.1-0.2c0.7-0.1,1.4-0.1,2.1-0.2s1.3-0.2,1.8-0.2L161.7,71.5z
					 M160.5,67.6c-1,0.1-2.2,0.2-3.3,0.2l-3.2,0.1v0.8c1,0,2.1,0,3.2-0.1s2.3-0.1,3.3-0.2V67.6z M159.8,68h0.7v-4h-0.7V68z
					 M160.5,63.7c-1.1,0.1-2.2,0.1-3.4,0.1l-3.3,0.1l0.1,0.8l3.3-0.1c1.1,0,2.3-0.1,3.4-0.1L160.5,63.7z M168.2,67.8h-3.3l-0.4,0.4
					l0.4,0.4h3.3V67.8z M164.1,76.9h0.7V60.1h-0.7V76.9z M168.2,47.8h-3.3l-0.4,0.4l0.4,0.4h3.3V47.8z M162.2,43.9
					c-0.4,0-0.7,0-0.9,0h-0.8h-1.8l0.1,0.8h1.7h0.8h0.9V43.9z M162.9,51c-0.7,0.2-1.4,0.3-2.1,0.4c-0.7,0.1-1.4,0.1-2.1,0.1v0.7
					c0.7,0,1.5,0,2.2-0.1c0.7-0.1,1.5-0.2,2.2-0.4L162.9,51z M158.7,52.3l0.7-0.2v-7.8l-0.7-0.4V52.3z M157.7,50.8
					c-0.6,0.3-1.2,0.5-1.8,0.7c-0.6,0.1-1.3,0.2-1.9,0.2v0.7c0.7,0,1.4-0.1,2.1-0.2c0.7-0.2,1.4-0.4,2-0.7L157.7,50.8z M154,52.3
					l0.7-0.2v-7.8l-0.7-0.4V52.3z M157.4,43.9c-0.4,0-0.7,0-0.9,0h-0.7H154l0.1,0.8h1.7h0.7h0.9V43.9z M164.1,56.8h0.7V40.1h-0.7
					V56.8z"/>
				<path class="st1" d="M183.2,347.5c0.1,0.4,0.4,0.8,0.6,1.1c1.1,1.2,2.9,1.3,4.1,0.2c0.1-0.1,0.2-0.2,0.2-0.2
					c0.3-0.3,0.5-0.7,0.6-1.1c0.3-0.9,0.3-1.9,0-2.9c-0.1-0.4-0.4-0.8-0.6-1.1c-1.1-1.2-2.9-1.3-4.1-0.2c-0.1,0.1-0.2,0.2-0.2,0.2
					c-0.3,0.3-0.5,0.7-0.6,1.1C182.9,345.5,182.9,346.5,183.2,347.5 M184.4,344c0.8-0.9,2.2-1,3.1-0.2c0.1,0.1,0.1,0.1,0.2,0.2
					c0.9,1.2,0.9,2.8,0,4.1c-0.8,0.9-2.2,1-3.1,0.2c-0.1-0.1-0.1-0.1-0.2-0.2C183.5,346.9,183.5,345.2,184.4,344 M191.8,345.5h-2.3
					v0.8h2.3V345.5z M191.3,352.8h0.7v-13.5h-0.7V352.8z M194.1,354.8h0.7v-16.7h-0.7V354.8z M188.4,329.2c0.4-0.2,0.8-0.5,1.1-0.8
					c0.3-0.3,0.6-0.7,0.7-1.2c0.3-0.9,0.3-1.9,0-2.9c-0.2-0.4-0.4-0.8-0.7-1.2c-0.3-0.3-0.7-0.6-1.1-0.8c-0.9-0.4-1.9-0.4-2.8,0
					c-0.4,0.2-0.8,0.5-1.1,0.8c-0.3,0.3-0.6,0.7-0.7,1.2c-0.3,0.9-0.3,1.9,0,2.9c0.2,0.4,0.4,0.8,0.7,1.2c0.3,0.3,0.7,0.6,1.1,0.8
					C186.5,329.6,187.5,329.6,188.4,329.2 M188.1,323.1c0.3,0.1,0.6,0.4,0.9,0.6c0.2,0.3,0.4,0.6,0.6,0.9c0.3,0.8,0.3,1.6,0,2.3
					c-0.1,0.3-0.3,0.7-0.6,0.9c-0.2,0.3-0.5,0.5-0.9,0.6c-0.4,0.2-0.7,0.2-1.1,0.2c-0.4,0-0.8-0.1-1.1-0.2c-0.3-0.1-0.6-0.4-0.9-0.6
					c-0.2-0.3-0.4-0.6-0.6-0.9c-0.3-0.8-0.3-1.6,0-2.3c0.1-0.3,0.3-0.7,0.6-0.9c0.2-0.3,0.5-0.5,0.9-0.6c0.4-0.2,0.7-0.2,1.1-0.2
					C187.4,322.9,187.8,323,188.1,323.1 M194.1,334.8h0.7v-16.7h-0.7V334.8z M183.5,310.3c1.4-1,2.6-2.4,3.4-3.9
					c0.8-1.7,1.3-3.4,1.4-5.3l-0.8-0.1c-0.1,1.7-0.6,3.4-1.3,5c-0.7,1.5-1.8,2.8-3.2,3.7L183.5,310.3z M198.2,305.7h-3.3l-0.4,0.4
					l0.4,0.4h3.3V305.7z M191.6,309.7l-3.3-4l-0.6,0.5c0.5,0.6,1.1,1.2,1.6,1.9s1.1,1.4,1.6,2.1L191.6,309.7z M194.1,314.8h0.7
					v-16.7h-0.7V314.8z M183.8,290.7c1.2-1,2.3-2.2,3.2-3.6c0.8-1.4,1.4-2.9,1.8-4.5l-0.8-0.1c-0.2,0.8-0.4,1.5-0.7,2.3
					c-0.3,0.7-0.6,1.4-1,2c-0.4,0.6-0.8,1.2-1.3,1.8c-0.5,0.6-1.1,1.1-1.7,1.7L183.8,290.7z M198.2,285.9h-3.3l-0.4,0.4l0.4,0.4h3.3
					V285.9z M192.3,289.8l-3.9-3.6l-0.5,0.6l0.9,0.8l1,0.9l1,1c0.3,0.3,0.6,0.6,0.9,0.9L192.3,289.8z M191.5,282l-1.7,0.1l-2.1,0.1
					h-2.1H184l0.1,0.8h1.6h2l2-0.1l1.7-0.1L191.5,282z M194.1,294.8h0.7v-16.7h-0.7V294.8z M195,258.9l-1.9,0.1
					c-0.7,0-1.4,0-2.2,0.1h-2.2h-1.8l0.1,0.8h1.7h2h2c0.7,0,1.2,0,1.7-0.1L195,258.9z M194.3,263.6c0.1-0.4,0.2-0.8,0.2-1.2
					s0.1-0.7,0.2-1.1s0.1-0.7,0.1-1.1s0.1-0.8,0.1-1.3l-0.8,0.3c0,0.4,0,0.8-0.1,1.1s-0.1,0.7-0.1,1s-0.1,0.6-0.2,1
					s-0.2,0.7-0.2,1.1L194.3,263.6z M196,273.2l-2,0.1c-0.8,0-1.6,0.1-2.4,0.1h-2.4c-0.8,0-1.5,0-2,0v0.8c0.6,0,1.2,0,2,0h2.4
					l2.4-0.1c0.8,0,1.4-0.1,2-0.1L196,273.2z M187.1,273.8h0.7v-2.9h-0.7V273.8z M194.9,270.3c-0.5,0-1.1,0.1-1.8,0.1l-2.1,0.1h-2.1
					h-1.8v0.8h1.7l2.1,0l2.1-0.1l1.8-0.1V270.3z M194.1,270.7h0.7v-2.9h-0.7V270.7z M194.9,267.4l-1.9,0.1l-2.2,0.1l-2.1,0h-1.8
					l0.1,0.8h1.8l2.1,0l2.1-0.1l1.9-0.1L194.9,267.4z M181.9,265.4h3.9l4.1-0.1c1.4,0,2.7-0.1,4.1-0.1s2.6-0.1,3.8-0.2v-0.8
					c-1.2,0.1-2.5,0.1-3.9,0.2s-2.7,0.1-4.1,0.1l-4.1,0.1h-3.9L181.9,265.4z M184.9,239.2c0.2,0.4,0.4,0.7,0.7,1
					c1.3,1.3,3.4,1.3,4.7,0c0.3-0.3,0.5-0.6,0.7-1c0.3-0.8,0.3-1.7,0-2.5c-0.3-0.8-1-1.4-1.7-1.7c-1.2-0.5-2.7-0.3-3.6,0.7
					C184.6,236.6,184.4,238,184.9,239.2 M185.5,237c0.2-0.6,0.7-1.1,1.3-1.3c0.3-0.1,0.7-0.2,1-0.2c0.3,0,0.7,0.1,1,0.2
					c0.6,0.2,1.1,0.7,1.3,1.3c0.3,0.6,0.3,1.3,0,1.9c-0.2,0.6-0.7,1.1-1.3,1.3c-0.3,0.1-0.7,0.2-1,0.2c-0.3,0-0.7-0.1-1-0.2
					c-0.6-0.2-1.1-0.7-1.3-1.3C185.3,238.3,185.3,237.6,185.5,237 M187.6,244.4h0.7v-2.8h-0.7V244.4z M194.1,248.8h0.7v-16.7h-0.7
					V248.8z M193,243.3c-1,0.2-1.9,0.3-2.8,0.4s-1.7,0.2-2.5,0.3s-1.6,0.1-2.5,0.2s-1.8,0.1-2.8,0.1l0.2,0.8c1,0,1.9-0.1,2.8-0.1
					s1.7-0.1,2.5-0.2l2.5-0.3l2.7-0.4L193,243.3z M198.2,240.3h-3.3l-0.4,0.4l0.4,0.4h3.3V240.3z M183.8,224.7
					c1.2-1,2.3-2.2,3.2-3.6c0.8-1.4,1.4-2.9,1.8-4.5l-0.8-0.1c-0.2,0.8-0.4,1.5-0.7,2.3c-0.3,0.7-0.6,1.4-1,2
					c-0.4,0.6-0.8,1.2-1.3,1.8c-0.5,0.6-1.1,1.1-1.7,1.7L183.8,224.7z M198.2,219.9h-3.3l-0.4,0.4l0.4,0.4h3.3V219.9z M192.3,223.8
					l-3.9-3.6l-0.5,0.6l0.9,0.8l1,0.9l1,1c0.3,0.3,0.6,0.6,0.9,0.9L192.3,223.8z M191.5,215.9l-1.7,0.1l-2.1,0.1h-2.1H184l0.1,0.8
					h1.6h2l2-0.1l1.7-0.1L191.5,215.9z M194.1,228.8h0.7v-16.7h-0.7V228.8z M195,192.9l-1.9,0.1c-0.7,0-1.5,0-2.2,0.1h-2.2h-1.8
					l0.1,0.8h1.7h2h2c0.7,0,1.2,0,1.7-0.1L195,192.9z M194.3,197.5c0.1-0.4,0.2-0.8,0.2-1.2s0.1-0.7,0.2-1.1s0.1-0.7,0.1-1.1
					s0.1-0.8,0.1-1.3l-0.8,0.3c0,0.4,0,0.8-0.1,1.1s-0.1,0.7-0.1,1s-0.1,0.6-0.2,1s-0.2,0.7-0.2,1.1L194.3,197.5z M196,207.1l-2,0.1
					c-0.8,0-1.6,0.1-2.4,0.1h-2.4c-0.8,0-1.5,0-2,0v0.8c0.6,0,1.2,0,2,0h2.4l2.4-0.1c0.8,0,1.4-0.1,2-0.1L196,207.1z M187.1,207.7
					h0.7v-2.9h-0.7V207.7z M194.9,204.2c-0.5,0-1.1,0.1-1.8,0.1l-2.1,0.1h-2.1h-1.8v0.8h1.7l2.1-0.1l2.1-0.1l1.8-0.1V204.2z
					 M194.1,204.6h0.7v-2.9h-0.7V204.6z M194.9,201.4l-1.9,0.1l-2.2,0.1h-2.1h-1.8l0.1,0.8h1.8l2.1-0.1l2.1-0.1l1.9-0.1L194.9,201.4
					z M181.9,199.3h3.9l4.1-0.1c1.4,0,2.7-0.1,4.1-0.1s2.6-0.1,3.8-0.2v-0.8c-1.2,0.1-2.5,0.1-3.9,0.2s-2.7,0.1-4.1,0.1l-4.1,0.1
					h-3.9L181.9,199.3z M181.9,175.3h3.9l4.1-0.1c1.4,0,2.7-0.1,4.1-0.1s2.6-0.1,3.8-0.2v-0.8c-1.2,0.1-2.5,0.1-3.9,0.2
					s-2.7,0.1-4.1,0.1l-4.1,0.1h-3.9L181.9,175.3z M195.8,180.5l-2,0.1c-0.8,0-1.6,0.1-2.4,0.1h-2.4c-0.8,0-1.5,0-2,0v0.8
					c0.6,0,1.2,0,2,0h2.4l2.4-0.1c0.8,0,1.4-0.1,2-0.1L195.8,180.5z M195.6,170.6l-1.9,0.1c-0.8,0-1.5,0.1-2.3,0.1h-2.4
					c-0.8,0-1.4,0-2,0v0.8c0.6,0,1.2,0,2,0h2.4l2.4-0.1c0.8,0,1.4-0.1,1.9-0.1L195.6,170.6z M186.9,171.6h0.7v-4.8h-0.7V171.6z
					 M186.9,181.5h0.7v-4.3h-0.7V181.5z M190.5,149.8c-1.1,0.1-2.2,0.1-3.3,0.1S185,150,184,150l0.1,0.8c0.9,0,1.9,0,2.9-0.1
					l2.9-0.1L190.5,149.8z M183.5,159c0.9-0.4,1.7-1,2.4-1.6c0.8-0.6,1.5-1.3,2.1-2.1c0.3-0.4,0.6-0.8,0.8-1.2
					c0.3-0.5,0.5-0.9,0.7-1.4c0.2-0.5,0.4-1,0.6-1.4c0.2-0.5,0.3-0.9,0.4-1.4l-0.9,0.3c-0.2,0.8-0.4,1.6-0.8,2.4
					c-0.4,0.9-0.9,1.7-1.5,2.4c-0.6,0.7-1.3,1.4-2,2c-0.7,0.6-1.5,1.1-2.3,1.5L183.5,159z M194.1,162.8h0.7v-16.6h-0.7V162.8z
					 M194.2,133c-0.6,0.1-1.3,0.3-2.1,0.4s-1.5,0.2-2.2,0.3s-1.5,0.2-2.2,0.2s-1.4,0.1-2.1,0.1l0.1,0.7c0.7,0,1.4-0.1,2.1-0.2
					s1.5-0.1,2.2-0.2s1.5-0.2,2.2-0.3s1.4-0.2,2.1-0.3L194.2,133z M194.9,128.8l-2,0.1c-0.8,0-1.6,0.1-2.4,0.1h-2.4h-2l0.1,0.8h2
					h2.2h2.2c0.7,0,1.3,0,1.8-0.1L194.9,128.8z M193.7,137.8c0.2-0.6,0.3-1.3,0.4-2.1s0.2-1.5,0.4-2.3s0.2-1.6,0.3-2.4
					s0.1-1.5,0.2-2.2l-0.8,0.3c0,0.6-0.1,1.3-0.1,2.1s-0.1,1.5-0.2,2.2s-0.2,1.5-0.4,2.2s-0.3,1.4-0.4,2L193.7,137.8z M182.4,140.2
					h3.8l3.9-0.1c1.3,0,2.6-0.1,3.9-0.1s2.5-0.1,3.7-0.2v-0.8c-1.2,0.1-2.5,0.1-3.8,0.2s-2.6,0.1-3.9,0.1l-3.9,0.1h-3.9L182.4,140.2
					z M184.8,107c0.2,0.4,0.4,0.7,0.7,1c0.3,0.3,0.6,0.5,1,0.7c0.8,0.3,1.7,0.3,2.6,0c0.4-0.2,0.7-0.4,1-0.7c0.3-0.3,0.5-0.6,0.7-1
					c0.3-0.8,0.3-1.7,0-2.5c-0.2-0.4-0.4-0.7-0.7-1c-0.3-0.3-0.6-0.5-1-0.7c-0.8-0.3-1.7-0.3-2.6,0c-0.4,0.2-0.7,0.4-1,0.7
					c-0.3,0.3-0.5,0.6-0.7,1C184.5,105.3,184.5,106.2,184.8,107 M185.5,104.8c0.1-0.3,0.3-0.6,0.5-0.8c1-1,2.6-1,3.6,0c0,0,0,0,0,0
					c0.2,0.2,0.4,0.5,0.5,0.8c0.3,0.6,0.3,1.3,0,1.9c-0.1,0.3-0.3,0.6-0.5,0.8c-1,1-2.6,1-3.6,0c0,0,0,0,0,0
					c-0.2-0.2-0.4-0.5-0.5-0.8C185.3,106.1,185.3,105.4,185.5,104.8 M194.1,116.8h0.7v-16.7h-0.7V116.8z M193,111.4
					c-1,0.2-1.9,0.3-2.8,0.4s-1.7,0.2-2.5,0.3s-1.6,0.1-2.5,0.2s-1.8,0.1-2.8,0.1l0.2,0.8c1,0,1.9-0.1,2.8-0.2s1.7-0.1,2.5-0.2
					l2.5-0.3l2.7-0.4L193,111.4z M183.9,92.7c1.2-1,2.3-2.2,3.2-3.6c0.8-1.4,1.4-2.9,1.8-4.5l-0.8-0.1c-0.2,0.8-0.4,1.5-0.7,2.3
					c-0.3,0.7-0.6,1.4-1,2c-0.4,0.6-0.8,1.2-1.3,1.8c-0.5,0.6-1.1,1.1-1.7,1.7L183.9,92.7z M198.2,87.9h-3.3l-0.4,0.4l0.4,0.4h3.3
					V87.9z M192.4,91.8l-3.9-3.6l-0.5,0.6l0.9,0.8l1,0.9l1,1c0.3,0.3,0.6,0.6,0.9,0.9L192.4,91.8z M191.5,83.9l-1.7,0.1l-2.1,0.1
					h-2.1h-1.7l0.1,0.8h1.6l2-0.1l2-0.1l1.7-0.1L191.5,83.9z M194.2,96.8h0.7V80.1h-0.7V96.8z M195,60.9l-1.9,0.1
					c-0.7,0-1.5,0-2.2,0.1h-2.2h-1.8l0.1,0.8h1.7h2h2c0.7,0,1.2,0,1.7-0.1L195,60.9z M194.3,65.5c0.1-0.4,0.2-0.8,0.2-1.2
					s0.1-0.7,0.2-1.1s0.1-0.7,0.1-1.1s0.1-0.8,0.1-1.3l-0.8,0.3c0,0.4,0,0.8-0.1,1.1s-0.1,0.7-0.1,1s-0.1,0.7-0.2,1
					s-0.2,0.7-0.2,1.1L194.3,65.5z M196,75.1l-2,0.1c-0.8,0-1.6,0.1-2.4,0.1h-2.4c-0.8,0-1.5,0-2,0v0.8c0.6,0,1.2,0,2,0h2.4l2.4-0.1
					c0.8,0,1.4-0.1,2-0.1L196,75.1z M187.2,75.7h0.7v-2.9h-0.7V75.7z M194.9,72.2c-0.5,0-1.1,0.1-1.8,0.1l-2.1,0.1h-2.1h-1.8v0.8
					h1.7h2.1l2.1-0.1l1.8-0.1V72.2z M194.2,72.6h0.7v-2.9h-0.7V72.6z M194.9,69.4l-1.9,0.1l-2.2,0.1h-2.1h-1.8l0.1,0.8h1.8h2.1
					l2.1-0.1l1.9-0.1L194.9,69.4z M181.9,67.3h3.9l4.1-0.1c1.4,0,2.7-0.1,4.1-0.1s2.6-0.1,3.8-0.2v-0.8c-1.2,0.1-2.5,0.2-3.9,0.2
					s-2.7,0.1-4.1,0.1l-4.1,0.1h-3.9L181.9,67.3z M191.3,46.1c-0.4,0.1-1,0.2-1.5,0.4c-0.6,0.1-1.1,0.2-1.8,0.3s-1.2,0.1-1.8,0.2
					s-1.1,0.1-1.6,0.1v0.7c0.5,0,1,0,1.6-0.1s1.2-0.1,1.8-0.2s1.2-0.2,1.8-0.3s1.1-0.2,1.6-0.3L191.3,46.1z M184.7,47.4h0.7V42h-0.7
					V47.4z M188.8,53.2h1.6h1.6l1.6-0.1L195,53v-0.8c-0.9,0-1.9,0.1-3,0.1l-3.2,0.1L188.8,53.2z M195.9,54.9L194,55
					c-0.7,0-1.5,0.1-2.2,0.1h-2.2c-0.7,0-1.4,0-1.9,0v0.8c0.5,0,1.2,0,1.9,0h2.2l2.2-0.1c0.7,0,1.4-0.1,1.9-0.1L195.9,54.9z
					 M187.6,55.5h0.7V50l-0.7-0.2V55.5z M195.3,49.5l-1.8,0.1l-2.1,0.1h-2h-1.8l0.1,0.8h1.8l2-0.1l2-0.1l1.8-0.1L195.3,49.5z
					 M198.3,44.7h-3.3l-0.4,0.4l0.4,0.4h3.3V44.7z M194.2,48.4h0.7v-8.2h-0.7V48.4z"/>
				<path class="st1" d="M253.6,170.5c0.1,0.2,0.3,0.5,0.4,0.7c0.2,0.2,0.4,0.3,0.6,0.4c0.5,0.2,1.1,0.2,1.6,0
					c0.2-0.1,0.5-0.3,0.6-0.4c0.2-0.2,0.3-0.4,0.4-0.7c0.2-0.5,0.2-1.1,0-1.6c-0.1-0.2-0.3-0.5-0.4-0.7c-0.2-0.2-0.4-0.3-0.6-0.4
					c-0.5-0.2-1.1-0.2-1.6,0c-0.2,0.1-0.5,0.3-0.6,0.4c-0.2,0.2-0.3,0.4-0.4,0.7C253.4,169.4,253.4,169.9,253.6,170.5 M256.5,170.6
					c-0.5,0.5-1.4,0.5-1.9,0c-0.5-0.5-0.5-1.4,0-1.9c0.5-0.5,1.4-0.5,1.9,0C257,169.2,257,170.1,256.5,170.6 M250.5,149.8
					c-1.1,0.1-2.2,0.1-3.3,0.1s-2.2,0.1-3.2,0.1l0.1,0.8c0.9,0,1.9,0,2.9-0.1l2.9-0.1L250.5,149.8z M243.5,159
					c0.9-0.4,1.7-1,2.4-1.6c0.8-0.6,1.5-1.3,2.1-2.1c0.3-0.4,0.6-0.8,0.8-1.2c0.3-0.5,0.5-0.9,0.7-1.4c0.2-0.5,0.4-1,0.6-1.4
					c0.2-0.5,0.3-0.9,0.4-1.4l-0.9,0.3c-0.2,0.8-0.4,1.6-0.8,2.4c-0.4,0.9-0.9,1.7-1.5,2.4c-0.6,0.7-1.3,1.4-2,2
					c-0.7,0.6-1.5,1.1-2.3,1.5L243.5,159z M254.1,162.8h0.7v-16.7h-0.7V162.8z M254.2,133c-0.6,0.1-1.3,0.3-2.1,0.4
					s-1.5,0.2-2.2,0.3s-1.5,0.2-2.2,0.2s-1.4,0.1-2.1,0.1l0.1,0.7c0.7,0,1.4-0.1,2.1-0.2s1.5-0.1,2.2-0.2s1.5-0.2,2.2-0.3
					s1.4-0.2,2.1-0.3L254.2,133z M254.9,128.8l-2,0.1c-0.8,0-1.6,0.1-2.4,0.1h-2.4h-2l0.1,0.8h2h2.2h2.2c0.7,0,1.3,0,1.8-0.1
					L254.9,128.8z M253.7,137.8c0.2-0.6,0.3-1.3,0.4-2.1s0.2-1.5,0.4-2.3s0.2-1.6,0.3-2.4s0.1-1.5,0.2-2.2l-0.8,0.3
					c0,0.6-0.1,1.3-0.1,2.1s-0.1,1.5-0.2,2.2s-0.2,1.5-0.4,2.2s-0.3,1.4-0.4,2L253.7,137.8z M242.4,140.3h3.8l3.9-0.1
					c1.3,0,2.6-0.1,3.9-0.1s2.5-0.1,3.7-0.2v-0.8c-1.2,0.1-2.5,0.1-3.8,0.2s-2.6,0.1-3.9,0.1l-3.9,0.1h-3.9L242.4,140.3z
					 M244.8,107.1c0.2,0.4,0.4,0.7,0.7,1c0.3,0.3,0.6,0.5,1,0.7c0.8,0.3,1.7,0.3,2.6,0c0.4-0.2,0.7-0.4,1-0.7c0.3-0.3,0.5-0.6,0.7-1
					c0.3-0.8,0.3-1.7,0-2.5c-0.2-0.4-0.4-0.7-0.7-1c-0.3-0.3-0.6-0.5-1-0.7c-0.8-0.3-1.7-0.3-2.6,0c-0.4,0.2-0.7,0.4-1,0.7
					c-0.3,0.3-0.5,0.6-0.7,1C244.5,105.4,244.5,106.3,244.8,107.1 M245.5,104.8c0.1-0.3,0.3-0.6,0.5-0.8c1-1,2.6-1,3.6,0
					c0,0,0,0,0,0c0.2,0.2,0.4,0.5,0.5,0.8c0.3,0.6,0.3,1.3,0,1.9c-0.1,0.3-0.3,0.6-0.5,0.8c-1,1-2.6,1-3.6,0c0,0,0,0,0,0
					c-0.2-0.2-0.4-0.5-0.5-0.8C245.3,106.1,245.3,105.5,245.5,104.8 M254.1,116.8h0.7v-16.7h-0.7V116.8z M253,111.4
					c-1,0.2-1.9,0.3-2.8,0.4s-1.7,0.2-2.5,0.3s-1.6,0.1-2.5,0.2s-1.8,0.1-2.8,0.1l0.2,0.8c1,0,1.9-0.1,2.8-0.2s1.7-0.1,2.5-0.2
					l2.5-0.3l2.7-0.4L253,111.4z M243.9,92.7c1.2-1,2.3-2.2,3.2-3.6c0.8-1.4,1.4-2.9,1.8-4.5l-0.8-0.1c-0.2,0.8-0.4,1.5-0.7,2.3
					c-0.3,0.7-0.6,1.4-1,2c-0.4,0.6-0.8,1.2-1.3,1.8c-0.5,0.6-1.1,1.1-1.7,1.7L243.9,92.7z M258.2,87.9h-3.3l-0.4,0.4l0.4,0.4h3.3
					V87.9z M252.4,91.8l-3.9-3.6l-0.5,0.6l0.9,0.8l1,0.9l1,1c0.3,0.3,0.6,0.6,0.9,0.9L252.4,91.8z M251.5,83.9l-1.7,0.1l-2.1,0.1
					h-2.1h-1.7l0.1,0.8h1.6l2-0.1l2-0.1l1.7-0.1L251.5,83.9z M254.2,96.8h0.7V80.1h-0.7V96.8z M255,60.9l-1.9,0.1
					c-0.7,0-1.5,0-2.2,0.1h-2.2h-1.8l0.1,0.8h1.7h2h2c0.7,0,1.2,0,1.7-0.1L255,60.9z M254.3,65.5c0.1-0.4,0.2-0.8,0.2-1.2
					s0.1-0.7,0.2-1.1s0.1-0.7,0.1-1.1s0.1-0.8,0.1-1.3l-0.8,0.3c0,0.4,0,0.8-0.1,1.1s-0.1,0.7-0.1,1s-0.1,0.7-0.2,1
					s-0.2,0.7-0.2,1.1L254.3,65.5z M256,75.1l-2,0.1c-0.8,0-1.6,0.1-2.4,0.1h-2.4c-0.8,0-1.5,0-2,0v0.8c0.6,0,1.2,0,2,0h2.4l2.4-0.1
					c0.8,0,1.4-0.1,2-0.1L256,75.1z M247.2,75.7h0.7v-2.9h-0.7V75.7z M254.9,72.2c-0.5,0-1.1,0.1-1.8,0.1l-2.1,0.1h-2.1h-1.8v0.8
					h1.7h2.1l2.1-0.1l1.8-0.1V72.2z M254.2,72.6h0.7v-2.9h-0.7V72.6z M254.9,69.4l-1.9,0.1l-2.2,0.1h-2.1h-1.8l0.1,0.8h1.8h2.1
					l2.1-0.1l1.9-0.1L254.9,69.4z M241.9,67.3h3.9l4.1-0.1c1.4,0,2.7-0.1,4.1-0.1s2.6-0.1,3.8-0.2v-0.8c-1.2,0.1-2.5,0.2-3.9,0.2
					s-2.7,0.1-4.1,0.1l-4.1,0.1h-3.9L241.9,67.3z M251.3,46.1c-0.4,0.1-1,0.2-1.5,0.4c-0.6,0.1-1.1,0.2-1.8,0.3s-1.2,0.1-1.8,0.2
					s-1.1,0.1-1.6,0.1v0.7c0.5,0,1,0,1.6-0.1s1.2-0.1,1.8-0.2s1.2-0.2,1.8-0.3s1.1-0.2,1.6-0.3L251.3,46.1z M244.7,47.4h0.7V42h-0.7
					V47.4z M248.8,53.2h1.6h1.6l1.6-0.1L255,53v-0.8c-0.9,0-1.9,0.1-3,0.1l-3.2,0.1L248.8,53.2z M255.9,54.9L254,55
					c-0.7,0-1.5,0.1-2.2,0.1h-2.2c-0.7,0-1.4,0-1.9,0v0.8c0.5,0,1.2,0,1.9,0h2.2l2.2-0.1c0.7,0,1.4-0.1,1.9-0.1L255.9,54.9z
					 M247.6,55.5h0.7V50l-0.7-0.2V55.5z M255.3,49.5l-1.8,0.1l-2.1,0.1h-2h-1.8l0.1,0.8h1.8l2-0.1l2-0.1l1.8-0.1L255.3,49.5z
					 M258.3,44.7h-3.3l-0.4,0.4l0.4,0.4h3.3V44.7z M254.2,48.4h0.7v-8.2h-0.7V48.4z"/>
				<line class="st2" x1="288.2" y1="-0.7" x2="288.2" y2="499.6"/>
			</g>
		</g>
		<rect x="316.7" y="39.3" class="st3" width="626.6" height="420"/>
		<g>
			<defs>
				<polygon id="SVGID_3_" points="0,0 943.3,-0.1 943.3,499.6 0,499.6 				"/>
			</defs>
			<clipPath id="SVGID_4_">
				<use xlink:href="#SVGID_3_"  style="overflow:visible;"/>
			</clipPath>
			<g class="st4">
				<path class="st5" d="M764.3,185.1c3.5-8.8,6.4-17.9,8.5-27.1c2.1-9.8,3.3-19.7,3.5-29.8l-10.8,5.5c-0.2,4.6-0.5,8.8-0.9,12.7
					c-0.4,3.8-1.1,7.6-2,11.4c-0.9,3.7-2,7.4-3.3,11.1c-1.3,3.8-2.9,7.8-4.8,12.2L764.3,185.1z M845.3,124.5
					c-4.7,0.4-9.2,0.7-13.4,0.9c-4.2,0.3-8.3,0.5-12.5,0.7s-8.3,0.3-12.5,0.4s-8.7,0.2-13.6,0.4l0.8,10.2c17-0.5,34-1.3,51.1-2.4
					V124.5z M776.4,127.4c-8.4,0.4-17.3,0.6-26.7,0.7s-18,0.2-25.7,0.4l0.8,10.2c7-0.2,14.5-0.3,22.7-0.4s16.9-0.3,26.3-0.7
					L776.4,127.4z M863.4,320.3l-65.5-28.8l-4.7,10.2l15.6,6.7c5.5,2.4,11.1,4.8,16.9,7.2s11.4,4.9,17,7.5l16,7.2L863.4,320.3z
					 M727.4,330.6c18.5-4.9,33.8-12.2,45.7-22c12-9.8,20.9-23.2,26.9-40.4l-10.8-2.6c-2.5,7.6-5.9,15-10.1,21.9
					c-3.6,5.8-8.1,11-13.4,15.3c-5.5,4.4-11.6,8-18.1,10.8c-7.9,3.3-16,6-24.2,8.1L727.4,330.6z M822.5,235.4
					c-10-0.5-19.6-1.4-29-2.5s-19-2.6-29-4.3l-0.8,11.5c9.4,1.4,19,2.6,28.7,3.7c9.7,1,19.2,1.8,28.4,2.4L822.5,235.4z M673.6,214.4
					c16.3,0,33.3-0.1,51.2-0.4c17.9-0.3,35.9-0.6,53.8-1c18-0.4,35.8-1,53.5-1.7s34.3-1.6,50.1-2.6l0.3-10.2
					c-15.9,1-32.7,1.9-50.5,2.6c-17.7,0.7-35.7,1.3-53.7,1.7c-18.1,0.4-36.1,0.8-54.1,1c-18,0.2-35.2,0.4-51.6,0.4L673.6,214.4z
					 M844,261.1c-7.2,0.3-15.5,0.7-25,1.1l-29.1,1.2c-9.9,0.4-19.5,0.7-28.8,1s-17.4,0.4-24.2,0.4l0.8,10.2c6.8,0,14.8-0.1,24-0.4
					c9.2-0.3,18.7-0.6,28.6-1c9.9-0.4,19.5-0.8,29-1.2s17.8-0.7,24.9-1L844,261.1z M835.6,179.6h9.7v-50.3h-9.7V179.6z M794.5,206.8
					h9.7V163h-9.7V206.8z"/>
				<path class="st5" d="M494.5,212.2v-46.7h-8.7v46.7H380.8v7.9h208.9v-7.9H494.5z M489.3,266.2h71.3v-7.9h-71.3V230h-8.6v28.3
					h-71.3v7.9h71.3v0.8c0,33-50.3,57.1-80.7,62.9l4.2,7.1c28.6-6.3,69.2-25.2,80.7-53.7c11.8,28.6,52.2,47.5,81,53.7l4.2-7.1
					c-30.4-5.8-80.7-29.9-80.7-62.9V266.2z M459.4,193.3c6.3-23,9.4-46.7,9.2-70.5v-5.5h-68.4v7.9h60c0,12.3-0.5,34.3-9.4,66.6
					L459.4,193.3z M556.7,193.9c4.2-23.4,6.2-47,6-70.8v-5.8h-72.8v7.9h64.5c0.1,22.6-1.9,45.1-6,67.4L556.7,193.9z"/>
				<line class="st6" x1="316.4" y1="96.2" x2="943.3" y2="96.2"/>
				<line class="st6" x1="316.4" y1="357.8" x2="943.3" y2="357.8"/>
				<path class="st5" d="M674.6,410.8c0.5,0,0.9-0.4,0.9-0.9c0,0,0,0,0,0c0.1-0.5-0.3-0.9-0.8-1c-0.5-0.1-0.9,0.3-1,0.8
					c0,0.1,0,0.1,0,0.2C673.7,410.4,674.1,410.8,674.6,410.8C674.6,410.8,674.6,410.8,674.6,410.8 M671.9,403.5h-2.7v-6.2h-0.9v15.1
					h0.9v-8.2h2.7V403.5z M659.4,407.8v-8.2h6.1v-0.8h-7v9.8h1.1c2.4,0.1,4.9-0.1,7.2-0.5l-0.1-0.8c-2.3,0.4-4.7,0.6-7.1,0.5
					L659.4,407.8z M653.5,412.5h0.9v-15.1h-0.9V412.5z M644.1,407.7v-8.8h-0.9v9.6h1.2c2.5,0,5-0.2,7.4-0.8l-0.1-0.8
					c-2.4,0.5-4.8,0.7-7.3,0.7H644.1z M630.7,398.9c1.5,0.2,2.5,1.5,2.4,2.9c-0.2,1.5-1.5,2.5-2.9,2.4c-1.4-0.1-2.4-1.3-2.4-2.6
					c0-1.5,1.3-2.7,2.8-2.7C630.6,398.9,630.7,398.9,630.7,398.9 M630.7,398.1c-2.2,0-3.8,1.4-3.8,3.4s1.6,3.4,3.8,3.4
					s3.8-1.4,3.8-3.4S633,398.1,630.7,398.1 M630.2,409.1h7.8v2.4h-7.8V409.1z M629.2,406.3v6h9.5v-6h-0.9v2.1h-7.8v-2.1H629.2z
					 M637.9,405.5h0.9v-8.1h-0.9V405.5z M619.1,409.4v-5.1h-0.9v5.1h-2.8v-5.1h-0.9v5.1h-3.7v0.8h13.7v-0.8H619.1z M621.8,400.8
					c0.1,2.2-0.1,4.3-0.5,6.4l0.9,0.1c0.4-2.2,0.6-4.3,0.5-6.5V399h-10.4v0.8h9.5V400.8z M597,403.6h5.1v4.4H597V403.6z
					 M596.1,398.7v10.1h6.9v-10.1h-0.9v4.2H597v-4.2L596.1,398.7z M606.6,412.5h0.9v-15.2h-0.9V412.5z M586.2,412.5h0.9v-15.1h-0.9
					V412.5z M575.8,399v0.8h6c-0.2,3.7-2.5,6.9-6.7,8.9l0.5,0.8c4.9-2.4,7.1-6.2,7.1-10.5H575.8z M559.2,410.1h13.7v-0.8h-13.7
					V410.1z M560.5,403.6l0.2,0.8l9.4-0.5c-0.1,1.4-0.3,2.8-0.6,4.1l0.9,0.1c0.5-2.3,0.7-4.7,0.6-7.1v-2h-10.1v0.8h9.2v1.2
					c0,0.8,0,1.5,0,2.3L560.5,403.6z M557.7,403.6H555v-6.3h-0.9v15.1h0.9v-8h2.7L557.7,403.6z M548.4,399.7h3.5V399h-8v0.8h3.6v2.5
					c-0.2,2.7-1.8,5.1-4.1,6.5l0.6,0.8c1.9-1.2,3.4-3.1,4-5.3c0.7,2.1,2.1,3.8,3.9,4.9l0.5-0.7c-2.3-1.2-3.8-3.5-4-6.1L548.4,399.7z
					 M539.4,403.1c0.3-1.4,0.4-2.8,0.3-4.2V398h-10v0.8h9.2v0.2c0,1.4-0.1,2.8-0.4,4.2h-10.6v0.8h13.7v-0.8L539.4,403.1z
					 M530.5,409.2h9.3v-3.5h-10.2v0.8h9.4v2.1h-9.3v3.7h10.6v-0.8h-9.7L530.5,409.2z M507.8,409c3.3,0.1,6.7-0.1,10-0.6l-0.1-0.7
					c-3.3,0.4-6.7,0.6-10,0.5L507.8,409z M518.8,412.5h0.9v-15.1h-0.9V412.5z M512.5,399.3c1.5,0.2,2.5,1.6,2.3,3.1
					c-0.2,1.5-1.6,2.5-3.1,2.3c-1.3-0.2-2.3-1.3-2.3-2.7c0.1-1.6,1.4-2.8,3-2.7C512.4,399.3,512.4,399.3,512.5,399.3 M512.5,398.5
					c-2.3,0-4,1.4-4,3.5s1.6,3.5,4,3.5s4-1.4,4-3.5S514.8,398.5,512.5,398.5 M506,404h-2.6v-6.6h-0.9v15.1h0.9v-7.7h2.6V404z
					 M497,406.6c1.8-0.1,3-1.2,3-2.7s-1.4-2.8-3.5-2.8s-3.5,1.1-3.5,2.8s1.2,2.6,3,2.7v1.9c-1.6,0.1-3.1,0.1-4.4,0.1l0.2,0.8
					c3.2,0.1,6.4-0.1,9.6-0.6l-0.1-0.7c-1.5,0.2-3,0.4-4.5,0.4L497,406.6z M493.9,403.9c0-1.2,1-2,2.6-2s2.6,0.8,2.6,2s-1.1,2-2.6,2
					S493.9,405,493.9,403.9 M501,399.3H497v-1.9h-1v1.9h-4.1v0.8h9.1L501,399.3z M489.9,406.1h-13.7v0.8h3.8v5.6h0.9v-5.6h4.3v5.6
					h0.9v-5.6h3.8L489.9,406.1z M483,404.5c3.1,0,5.2-1.2,5.2-3.2s-2-3.2-5.2-3.2s-5.2,1.2-5.2,3.2S479.9,404.5,483,404.5
					 M483,398.8c2.5,0,4.3,1,4.3,2.5s-1.8,2.5-4.3,2.5s-4.2-1-4.2-2.5S480.5,398.8,483,398.8 M472.2,402.1v-4.8h-0.9v11.2h0.9v-5.7
					h2.4v-0.8L472.2,402.1z M464,407.5h-0.9v4.6h9.9v-0.8h-9V407.5z M469.3,405.2c-2.1-0.8-3.9-2.7-3.9-4.9v-2.1h-0.9v2
					c-0.1,2.4-1.6,4.6-3.9,5.4l0.5,0.7c1.8-0.7,3.3-2.3,3.9-4.2c0.7,1.7,2,3.1,3.8,3.8L469.3,405.2z M454.3,403.8h-2.7v-6.4h-0.9
					v15.1h0.9v-7.9h2.6L454.3,403.8z M445.3,405.3c1.9,0,3.4-1.5,3.5-3.4c0-2.1-1.6-3.5-3.9-3.5s-4,1.4-4,3.5c0,1.9,1.6,3.5,3.5,3.4
					c0,0,0,0,0,0v2.9c-1.5,0-3,0.1-4.3,0.1l0.2,0.8c3.2,0.1,6.4-0.1,9.5-0.6l-0.1-0.7c-1.4,0.2-2.9,0.3-4.5,0.4L445.3,405.3z
					 M441.8,401.8c-0.2-1.7,1-3.2,2.7-3.4c1.7-0.2,3.2,1,3.4,2.7c0.2,1.7-1,3.2-2.7,3.4c-0.1,0-0.2,0-0.4,0c-1.5,0.1-2.9-1-3-2.5
					C441.8,402,441.8,401.9,441.8,401.8 M424.6,410.3h13.7v-0.8h-13.7V410.3z M437.5,405.2c-2.1-0.4-5.6-2.7-5.6-5.5v-1.2H431v1.2
					c0,2.8-3.4,5-5.6,5.5l0.4,0.8c2-0.5,4.7-2.2,5.6-4.5c0.9,2.4,3.7,4,5.7,4.5L437.5,405.2z M420.6,402.1v-4.8h-0.9v11.2h0.9v-5.7
					h2.4v-0.8H420.6z M412.4,407.5h-0.9v4.6h9.9v-0.8h-9L412.4,407.5z M417.6,405.2c-2.1-0.8-3.9-2.7-3.9-4.9v-2.1h-0.9v2
					c-0.1,2.4-1.6,4.6-3.9,5.4l0.5,0.7c1.8-0.7,3.3-2.3,3.9-4.2c0.7,1.7,2.1,3.1,3.8,3.8L417.6,405.2z M395.9,409.7v-3.5h4.8v-0.8
					h-9.3v-2.7h8.8V402h-8.8v-2.5h9.1v-0.8h-10.1v7.5h4.5v3.5h-6.4v0.8h13.7v-0.8L395.9,409.7z M380.2,409.6v-4.4h4.8v-0.8h-9.4
					v-5.7h-0.9v6.5h4.6v4.4h-6.4v0.8h13.7v-0.8L380.2,409.6z M367,402.7l1.2-1.6l1.2,1.6l0.6-0.4l-1.1-1.7l1.7-0.7l-0.2-0.6
					l-1.8,0.5l-0.1-1.9h-0.7l-0.1,2l-1.8-0.5l-0.2,0.6l1.7,0.7l-1,1.7L367,402.7z"/>
			</g>
		</g>
	</g>
</g>
</svg>
