<?xml version="1.0" encoding="utf-8"?>
<!-- Generator: Adobe Illustrator 21.0.2, SVG Export Plug-In . SVG Version: 6.00 Build 0)  -->
<svg version="1.1" id="Layer_1" xmlns="http://www.w3.org/2000/svg" xmlns:xlink="http://www.w3.org/1999/xlink" x="0px" y="0px"
	 viewBox="0 0 943.3 750" style="enable-background:new 0 0 943.3 750;" xml:space="preserve">
<style type="text/css">
	.st0{fill:#231815;}
	.st1{fill:none;stroke:#231815;stroke-width:0.5;}
	.st2{fill:none;stroke:#231815;stroke-width:0.3;}
	.st3{fill:none;stroke:#231815;stroke-width:1.2;}
	.st4{fill:#433F3F;}
	.st5{fill:#F4F4F4;}
	.st6{fill:none;stroke:#433F3F;stroke-width:2.87;}
	.st7{fill:#FFFFFF;}
	.st8{fill:none;stroke:#FFFFFF;}
</style>
<title>SAN대지 17</title>
<g>
	<g>
		<path class="st0" d="M515.9,262c0.3-0.1,0.6-0.3,0.9-0.6c0.2-0.2,0.4-0.5,0.5-0.8c0.2-0.6,0.2-1.2,0-1.8c-0.1-0.3-0.3-0.6-0.5-0.8
			c-0.2-0.2-0.5-0.4-0.9-0.6c-0.8-0.3-1.6-0.3-2.3,0c-0.3,0.1-0.6,0.3-0.9,0.6c-0.2,0.2-0.4,0.5-0.5,0.8c-0.2,0.6-0.2,1.2,0,1.8
			c0.1,0.3,0.3,0.6,0.5,0.8c0.2,0.2,0.5,0.4,0.9,0.6C514.3,262.3,515.1,262.3,515.9,262 M515.6,258.1c0.2,0.1,0.5,0.2,0.6,0.4
			c0.2,0.2,0.3,0.4,0.4,0.6c0.2,0.4,0.2,0.9,0,1.3c-0.1,0.2-0.2,0.4-0.4,0.6c-0.2,0.2-0.4,0.3-0.6,0.4c-0.6,0.2-1.2,0.2-1.8,0
			c-0.2-0.1-0.5-0.2-0.6-0.4c-0.2-0.2-0.3-0.4-0.4-0.6c-0.2-0.4-0.2-0.9,0-1.3c0.1-0.2,0.2-0.4,0.4-0.6c0.2-0.2,0.4-0.3,0.6-0.4
			C514.4,257.8,515,257.8,515.6,258.1 M518.4,255.2l-1.7,0.1l-2.2,0.1h-2.2h-1.7l0.1,0.8h1.7h2.1l2.2-0.1l1.7-0.1V255.2z
			 M517.1,253.5c-0.7-0.2-1.4-0.5-2.1-0.7s-1.4-0.5-2.1-0.9l-0.3,0.8c0.7,0.3,1.4,0.6,2.1,0.8l2.1,0.7L517.1,253.5z M520.9,267.6
			h0.7v-16.7h-0.7V267.6z M519.8,263.3c-1,0.2-1.9,0.3-2.8,0.4c-0.9,0.1-1.7,0.2-2.5,0.3c-0.8,0.1-1.7,0.1-2.5,0.2
			c-0.8,0.1-1.8,0.1-2.8,0.1l0.2,0.8c1,0,1.9-0.1,2.8-0.1c0.8-0.1,1.7-0.1,2.5-0.2c0.8-0.1,1.6-0.2,2.5-0.3l2.7-0.4L519.8,263.3z
			 M510.9,241.1c1.2-0.8,2.2-1.8,2.9-3.1c0.7-1.3,1.2-2.7,1.5-4.1l-0.8-0.1c-0.1,0.7-0.3,1.4-0.5,2.1c-0.2,0.6-0.5,1.2-0.8,1.7
			c-0.3,0.5-0.7,1-1.2,1.5c-0.5,0.5-1,0.9-1.6,1.3L510.9,241.1z M518.6,240.1l-3.5-2.9l-0.5,0.6c0.5,0.4,1.1,0.9,1.6,1.4
			s1.1,1,1.8,1.6L518.6,240.1z M518.1,233.3l-1.6,0.1l-1.9,0.1l-1.9,0.1H511l0.1,0.8h1.6l1.9-0.1l1.9-0.1l1.6-0.1L518.1,233.3z
			 M522.8,245.3l-2,0.1c-0.8,0-1.6,0.1-2.4,0.1H516c-0.8,0-1.4,0-2,0v0.8c0.5,0,1.2,0,2,0h2.4l2.4-0.1c0.8,0,1.4,0,2-0.1
			L522.8,245.3z M514,246h0.7v-4.3H514V246z M520.9,242.8h0.7v-11.8h-0.7V242.8z M513.2,222.1c0.2-0.7,0.4-1.3,0.6-2
			c0.1-0.7,0.2-1.4,0.3-2.1l-0.8,0.1c0,0.6-0.1,1.3-0.3,1.9c-0.1,0.6-0.3,1.3-0.6,1.9L513.2,222.1z M518.9,217.1
			c-0.7,0.1-1.4,0.2-2.2,0.3s-1.7,0.2-2.6,0.2l-2.6,0.1c-0.9,0-1.6,0.1-2.3,0.1l0.1,0.8c0.7,0,1.4,0,2.3-0.1l2.6-0.2l2.6-0.2
			c0.8-0.1,1.6-0.2,2.3-0.3L518.9,217.1z M517.6,212.2c-1,0.1-2.1,0.1-3.1,0.1l-3.1,0.1l0.1,0.8l2.8-0.1l2.8-0.1L517.6,212.2z
			 M516.6,216.6c0.3-0.7,0.5-1.4,0.7-2.1c0.2-0.7,0.3-1.5,0.3-2.3l-0.8,0.3c0,0.6-0.1,1.3-0.2,1.9c-0.2,0.7-0.4,1.3-0.7,1.9
			L516.6,216.6z M522.7,225.5l-1.9,0.1c-0.7,0-1.5,0.1-2.3,0.1h-2.3c-0.7,0-1.4,0-2,0v0.8c0.5,0,1.2,0,1.9,0h2.3l2.3-0.1l1.9-0.1
			L522.7,225.5z M514.3,226.5h0.7v-4.3h-0.7V226.5z M521.4,220h-4.2v0.8h4.2V220z M520.8,223.7h0.7v-12.8h-0.7V223.7z M511.6,162.5
			c0.2,0.4,0.4,0.7,0.7,1c0.3,0.3,0.6,0.5,1,0.7c0.8,0.3,1.7,0.3,2.5,0c0.4-0.2,0.7-0.4,1-0.7c0.3-0.3,0.5-0.6,0.7-1
			c0.3-0.8,0.3-1.7,0-2.5c-0.2-0.4-0.4-0.7-0.7-1c-0.3-0.3-0.6-0.5-1-0.7c-0.8-0.3-1.7-0.3-2.5,0c-0.4,0.2-0.7,0.4-1,0.7
			c-0.6,0.6-0.9,1.4-0.9,2.3C511.3,161.7,511.4,162.1,511.6,162.5 M512.2,160.3c0.1-0.3,0.3-0.6,0.5-0.8c0.2-0.2,0.5-0.4,0.8-0.5
			c0.6-0.3,1.4-0.3,2,0c0.3,0.1,0.6,0.3,0.8,0.5c1,1,1,2.5,0,3.5c-0.2,0.2-0.5,0.4-0.8,0.5c-0.6,0.3-1.4,0.3-2,0
			c-0.3-0.1-0.6-0.3-0.8-0.5C512.1,162.3,511.9,161.3,512.2,160.3 M520.8,172.3h0.7v-16.7h-0.7V172.3z M519.7,166.8
			c-1,0.2-1.9,0.3-2.8,0.4c-0.9,0.1-1.7,0.2-2.5,0.3c-0.8,0.1-1.7,0.1-2.5,0.2c-0.8,0.1-1.8,0.1-2.8,0.1l0.2,0.8
			c1,0,1.9-0.1,2.8-0.2c0.8-0.1,1.7-0.1,2.5-0.2c0.8-0.1,1.6-0.2,2.5-0.3l2.7-0.4L519.7,166.8z M511,143.5h0.7V138H511V143.5z
			 M516.8,137.9c-0.9,0.1-1.9,0.1-2.9,0.1H511l0.1,0.8h2.9c1,0,2,0,2.9-0.1V137.9z M516.1,143.6h0.7v-5.2h-0.7V143.6z M516.8,143.2
			H511v0.8h5.9V143.2z M520.8,147.5h0.7v-11.9h-0.7V147.5z M522.7,149.9l-1.9,0.1c-0.8,0-1.5,0.1-2.3,0.1h-2.3c-0.8,0-1.4,0-2,0v0.8
			c0.5,0,1.2,0,2,0h2.3l2.3-0.1c0.8,0,1.4,0,1.9-0.1L522.7,149.9z M514.1,150.7h0.7v-4.3h-0.7V150.7z M508.6,125.9h3.9l4.1-0.1
			l4.1-0.1c1.3,0,2.6-0.1,3.8-0.1v-0.8l-3.8,0.2c-1.3,0-2.7,0.1-4.1,0.1l-4.1,0.1h-3.9L508.6,125.9z M519.2,131.9
			c0.4-0.1,0.7-0.3,1.1-0.5c0.3-0.2,0.5-0.5,0.7-0.8c0.3-0.6,0.3-1.4,0-2c-0.2-0.3-0.4-0.6-0.7-0.8c-0.3-0.2-0.7-0.4-1.1-0.5
			c-0.9-0.2-1.8-0.2-2.7,0c-0.4,0.1-0.7,0.3-1.1,0.5c-0.3,0.2-0.5,0.5-0.7,0.8c-0.3,0.6-0.3,1.4,0,2c0.2,0.3,0.4,0.6,0.7,0.8
			c0.3,0.2,0.7,0.4,1.1,0.5C517.4,132.1,518.3,132.1,519.2,131.9 M519.7,128.3c0.7,0.4,0.9,1.3,0.5,2c-0.1,0.2-0.3,0.4-0.5,0.5
			c-1.2,0.6-2.6,0.6-3.7,0c-0.7-0.4-0.9-1.3-0.5-2c0.1-0.2,0.3-0.4,0.5-0.5C517.1,127.7,518.5,127.7,519.7,128.3 M517.4,125.5h0.7
			v-2.3h-0.7V125.5z M514.8,122.2c0.2,0.3,0.4,0.5,0.7,0.7c0.3,0.2,0.6,0.3,1,0.4c0.8,0.2,1.6,0.2,2.4,0c0.4-0.1,0.7-0.2,1-0.4
			c0.3-0.2,0.5-0.4,0.7-0.7c0.2-0.3,0.2-0.6,0.2-0.9c0-0.3-0.1-0.6-0.2-0.9c-0.2-0.3-0.4-0.5-0.7-0.7c-0.3-0.2-0.6-0.4-1-0.4
			c-0.8-0.2-1.6-0.2-2.4,0c-0.4,0.1-0.7,0.2-1,0.4c-0.3,0.2-0.5,0.4-0.7,0.7c-0.2,0.3-0.2,0.6-0.2,0.9
			C514.6,121.6,514.7,121.9,514.8,122.2 M516,120.2c1-0.5,2.2-0.5,3.2,0c0.4,0.2,0.7,0.6,0.7,1.1c0,0.5-0.2,0.9-0.7,1.1
			c-1,0.5-2.2,0.5-3.2,0c-0.4-0.2-0.7-0.6-0.7-1.1C515.3,120.9,515.6,120.4,516,120.2 M520,115.6c-0.8,0-1.5-0.1-2.2-0.2
			s-1.5-0.2-2.2-0.3l-0.1,0.9c0.7,0.1,1.5,0.2,2.2,0.3c0.7,0.1,1.5,0.1,2.2,0.2L520,115.6z M522,117.3l-2.1,0.1l-2.6,0.1l-2.6,0.1
			h-2.1l0.1,0.8h1.3h1.6h1.8h1.8l1.6-0.1h1.3L522,117.3z M520.8,103l0.9,0.7c0.3,0.3,0.6,0.5,0.9,0.8l0.9,0.9
			c0.3,0.3,0.6,0.5,0.8,0.8l0.8-0.8l-0.8-0.8l-1-0.8l-1-0.8c-0.3-0.3-0.6-0.5-0.9-0.7L520.8,103z M521.8,81.5l-1.9,0.1l-2.2,0.1
			h-2.1h-1.8l0.1,0.8h1.6h2h2l1.7-0.1L521.8,81.5z M520.7,87.1c0.3-0.9,0.5-1.8,0.7-2.7c0.2-0.9,0.3-1.9,0.4-2.9l-0.8,0.3
			c-0.1,0.9-0.2,1.7-0.3,2.6c-0.2,0.9-0.4,1.7-0.7,2.6L520.7,87.1z M520.9,96.9h0.7v-8.1h-0.7V96.9z M515.4,90.4
			c-0.1,0.5-0.3,1-0.5,1.5c-0.2,0.5-0.4,1.1-0.6,1.6c-0.2,0.5-0.5,1.1-0.7,1.6c-0.3,0.5-0.5,1-0.8,1.4l0.7,0.4
			c0.3-0.4,0.5-0.9,0.8-1.4s0.5-1.1,0.7-1.6c0.2-0.6,0.4-1.1,0.6-1.7c0.2-0.6,0.3-1.1,0.5-1.6L515.4,90.4z M521.7,88.4
			c-1.1,0.1-2.2,0.1-3.3,0.1l-3.3,0.1l-3.3,0.1h-3.2l0.1,0.8h3.1l3.3-0.1l3.3-0.1l3.3-0.1V88.4z M519.8,76.7
			c0.4-0.1,0.8-0.3,1.1-0.6c0.3-0.2,0.5-0.5,0.7-0.9c0.3-0.7,0.3-1.5,0-2.2c-0.2-0.3-0.4-0.6-0.7-0.9c-0.3-0.3-0.7-0.5-1.1-0.6
			c-0.9-0.3-1.8-0.3-2.7,0c-0.4,0.1-0.8,0.3-1.1,0.6c-0.3,0.2-0.5,0.5-0.7,0.9c-0.3,0.7-0.3,1.5,0,2.2c0.2,0.3,0.4,0.6,0.7,0.9
			c0.3,0.3,0.7,0.5,1.1,0.6C518,77,518.9,77,519.8,76.7 M520.3,72.6c0.8,0.6,1,1.8,0.3,2.7c-0.1,0.1-0.2,0.2-0.3,0.3
			c-1.1,0.8-2.6,0.8-3.8,0c-0.8-0.6-1-1.8-0.3-2.7c0.1-0.1,0.2-0.2,0.3-0.3C517.7,71.8,519.2,71.8,520.3,72.6 M510.9,70.6
			c1.1-0.6,2.1-1.5,2.8-2.6c0.8-1.1,1.3-2.3,1.7-3.5l-0.8-0.2c-0.3,1.2-0.8,2.3-1.5,3.3c-0.7,0.9-1.6,1.7-2.6,2.3L510.9,70.6z
			 M518.7,69.2l-3.4-2.3l-0.4,0.6l1.6,1.1l1.7,1.2L518.7,69.2z M516.7,62.1c-0.7-0.1-1.4-0.3-2-0.4c-0.6-0.1-1.3-0.3-2-0.6l-0.2,0.8
			c0.7,0.2,1.4,0.4,2,0.5l2,0.4L516.7,62.1z M518.2,63.9l-1.7,0.1l-2,0.1h-2h-1.7l0.1,0.8h1.7h2l2-0.1l1.7-0.1L518.2,63.9z
			 M525,65.9h-3.3l-0.4,0.4l0.4,0.4h3.3V65.9z M521,70.6h0.7v-9.8H521V70.6z M510.8,51c0.8-0.4,1.5-0.9,2.2-1.5
			c0.7-0.6,1.3-1.2,1.9-1.9c0.5-0.7,1-1.4,1.4-2.2c0.4-0.7,0.7-1.5,0.9-2.3l-0.9,0.3c-0.2,0.7-0.4,1.4-0.7,2
			c-0.4,0.7-0.8,1.3-1.3,1.9c-0.5,0.6-1.1,1.2-1.8,1.8c-0.7,0.6-1.4,1-2.2,1.4L510.8,51z M514.3,56l0.7-0.2v-4.4h-0.7V56z
			 M521.7,51.3l-1.7,0.1h-2h-2h-1.7l0.1,0.8h1.7h2h2l1.7-0.1L521.7,51.3z M520.9,56.2h0.7v-4.3h-0.7V56.2z M521.7,55.7h-7.4v0.8h7.4
			V55.7z M517.2,43l-1.6,0.1h-1.5h-1.4h-1.5l0.1,0.8h2.6c0.8,0,1.7,0,2.7-0.1L517.2,43z M520.9,49.8h0.7v-9h-0.7V49.8z"/>
		<path class="st0" d="M544.9,281.2c0.4,1,1.6,1.5,2.7,1.1c0.2-0.1,0.5-0.3,0.7-0.4c0.2-0.2,0.3-0.4,0.4-0.7
			c0.3-0.8,0.1-1.7-0.4-2.3c-0.8-0.8-2-0.9-2.8-0.1c-0.2,0.2-0.4,0.5-0.5,0.8C544.7,280.2,544.7,280.7,544.9,281.2 M547.8,281.4
			c-0.5,0.5-1.4,0.5-1.9,0c-0.5-0.5-0.5-1.4,0-1.9c0.5-0.5,1.4-0.5,1.9,0C548.3,280,548.3,280.9,547.8,281.4 M533.2,265.4
			c1.2,0,2.5,0,3.9,0l4.1-0.1l4.1-0.1c1.3,0,2.6-0.1,3.8-0.1v-0.8l-3.8,0.1c-1.3,0-2.7,0.1-4.1,0.1l-4.1,0.1h-3.9L533.2,265.4z
			 M542.2,268.2h0.7V265h-0.7V268.2z M544,262.5c0.4-0.1,0.7-0.3,1-0.5c1.2-1,1.4-2.8,0.4-4c-0.1-0.1-0.2-0.3-0.4-0.4
			c-0.3-0.3-0.7-0.5-1.1-0.6c-0.9-0.3-1.9-0.3-2.8,0c-0.4,0.1-0.8,0.3-1.1,0.6c-0.3,0.3-0.6,0.6-0.7,0.9c-0.4,0.8-0.4,1.7,0,2.5
			c0.2,0.4,0.4,0.7,0.7,0.9c0.3,0.3,0.7,0.5,1.1,0.6C542,262.9,543,262.9,544,262.5 M541.4,261.9c-0.3-0.1-0.6-0.2-0.9-0.4
			c-0.2-0.2-0.4-0.4-0.6-0.7c-0.3-0.6-0.3-1.3,0-1.9c0.1-0.3,0.3-0.5,0.6-0.7c0.3-0.2,0.6-0.3,0.9-0.4c0.7-0.2,1.5-0.2,2.2,0
			c0.3,0.1,0.6,0.2,0.9,0.4c0.2,0.2,0.4,0.4,0.6,0.7c0.3,0.6,0.3,1.3,0,1.9c-0.1,0.3-0.3,0.5-0.6,0.7c-0.3,0.2-0.6,0.3-0.9,0.4
			C542.9,262.1,542.1,262.1,541.4,261.9 M538.9,272l0.7-0.2v-3.9h-0.7V272z M546.2,267.8l-1.7,0.1h-2h-2h-1.7l0.1,0.8h1.7h1.9h1.9
			l1.7-0.1L546.2,267.8z M545.4,272.1h0.8v-3.9h-0.8V272.1z M546.2,271.7h-7.3v0.8h7.3V271.7z M533.7,251c1.2,0,2.5,0,3.8,0l3.9-0.1
			l3.9-0.1l3.7-0.1v-0.8l-3.8,0.1c-1.3,0-2.6,0.1-3.9,0.1l-4,0.1c-1.3,0-2.6,0-3.8,0L533.7,251z M546.7,244.2l-1.9,0.1
			c-0.7,0-1.5,0.1-2.2,0.1h-2.2c-0.7,0-1.4,0-1.9,0v0.8c0.5,0,1.2,0,1.9,0h2.2l2.2-0.1l1.9-0.1V244.2z M546.5,239
			c-0.3,0-0.7,0-1.1,0.1H544h-1.5h-1.5h-2.5v0.9h1.8h2.3h2.3l1.8-0.1L546.5,239z M538.4,245.2l0.7-0.2v-5.4h-0.7V245.2z
			 M542.2,250.4h0.7v-4.4h-0.7V250.4z M533.2,217.8h3.9l4.1-0.1l4.1-0.1l3.8-0.1v-0.8l-3.8,0.1c-1.3,0-2.7,0.1-4.1,0.1L537,217h-3.9
			L533.2,217.8z M546.3,211.4l-1.9,0.1l-2.2,0.1h-2.2h-1.8l0.1,0.8h1.7h2h2l1.7-0.1L546.3,211.4z M545.6,216
			c0.1-0.4,0.2-0.8,0.2-1.2c0.1-0.4,0.1-0.7,0.2-1.1c0.1-0.3,0.1-0.7,0.1-1.1c0-0.4,0.1-0.8,0.1-1.3l-0.8,0.3c0,0.4,0,0.8-0.1,1.1
			s-0.1,0.7-0.1,1s-0.1,0.6-0.2,1s-0.2,0.7-0.2,1.1L545.6,216z M547.3,225.6l-2,0.1c-0.8,0-1.6,0.1-2.4,0.1h-2.4c-0.8,0-1.5,0-2,0
			v0.8c0.5,0,1.2,0,2,0h2.4l2.4-0.1c0.8,0,1.4-0.1,2-0.1L547.3,225.6z M538.5,226.2h0.7v-2.9h-0.7V226.2z M546.2,222.7
			c-0.5,0-1.1,0.1-1.8,0.1l-2.1,0.1h-2.1h-1.8v0.8h1.7l2.1-0.1l2.1-0.1l1.8-0.1V222.7z M545.5,223.1h0.7v-2.9h-0.7V223.1z
			 M546.2,219.9l-1.9,0.1l-2.2,0.1L540,220h-1.8l0.1,0.8h1.8h2.1l2.1-0.1l1.9-0.1V219.9z M545,191.2c0.2,0.5,0.6,0.9,1.1,1.1
			c0.5,0.2,1.1,0.2,1.6,0c0.2-0.1,0.5-0.3,0.7-0.4c0.2-0.2,0.3-0.4,0.4-0.7c0.2-0.5,0.2-1.1,0-1.6c-0.1-0.2-0.3-0.5-0.4-0.7
			c-0.2-0.2-0.4-0.3-0.7-0.4c-0.5-0.2-1.1-0.2-1.6,0C545,188.9,544.5,190.1,545,191.2 M547.8,191.3c-0.5,0.5-1.4,0.5-1.9,0
			c-0.5-0.5-0.5-1.4,0-1.9c0.5-0.5,1.4-0.5,1.9,0C548.3,189.9,548.3,190.8,547.8,191.3 M543.5,174.5l-3.5-2.7l-0.4,0.6
			c0.6,0.5,1.2,0.9,1.7,1.3l1.8,1.4L543.5,174.5z M535.3,176c0.7-0.4,1.3-0.9,1.8-1.5c0.5-0.5,1-1.1,1.3-1.8
			c0.4-0.7,0.7-1.4,0.9-2.1c0.2-0.8,0.4-1.6,0.5-2.5l-0.7-0.1c-0.1,0.8-0.3,1.6-0.5,2.4c-0.2,0.7-0.5,1.3-0.8,1.9
			c-0.3,0.6-0.8,1.1-1.2,1.6c-0.5,0.5-1.1,1-1.8,1.4L535.3,176z M545.4,175.9h0.7v-9.1h-0.7V175.9z M540.1,181.2
			c0.2,0.4,0.4,0.7,0.7,1c0.3,0.3,0.6,0.5,1,0.6c0.8,0.3,1.7,0.3,2.5,0c0.4-0.2,0.7-0.4,1-0.6c0.3-0.3,0.5-0.6,0.7-1
			c0.3-0.8,0.3-1.6,0-2.4c-0.2-0.4-0.4-0.7-0.7-1c-0.3-0.3-0.6-0.5-1-0.6c-0.8-0.3-1.7-0.3-2.5,0c-0.4,0.2-0.7,0.4-1,0.6
			c-0.3,0.3-0.5,0.6-0.7,1C539.7,179.5,539.7,180.4,540.1,181.2 M545.4,180.9c-0.1,0.3-0.3,0.5-0.5,0.7c-1,0.9-2.5,0.9-3.5,0
			c-0.2-0.2-0.4-0.5-0.5-0.7c-0.3-0.6-0.3-1.2,0-1.8c0.1-0.3,0.3-0.5,0.5-0.7c1-0.9,2.5-0.9,3.5,0c0.2,0.2,0.4,0.5,0.5,0.7
			C545.6,179.6,545.6,180.3,545.4,180.9 M549.5,172h-3.3l-0.4,0.4l0.4,0.4h3.3V172z M546,153.2h-3.4v0.8h3.4V153.2z M546,149.7h-3.4
			v0.8h3.4V149.7z M540.1,161.2c0.2,0.4,0.4,0.7,0.7,0.9c0.3,0.3,0.6,0.5,1,0.6c0.8,0.3,1.7,0.3,2.5,0c0.4-0.1,0.7-0.4,1-0.6
			c0.3-0.3,0.5-0.6,0.7-0.9c0.3-0.8,0.3-1.6,0-2.4c-0.2-0.4-0.4-0.7-0.7-1c-0.3-0.3-0.6-0.5-1-0.6c-0.8-0.3-1.7-0.3-2.5,0
			c-0.4,0.1-0.7,0.4-1,0.6c-0.3,0.3-0.5,0.6-0.7,1C539.7,159.6,539.7,160.4,540.1,161.2 M545.4,160.9c-0.1,0.3-0.3,0.5-0.5,0.7
			c-0.2,0.2-0.5,0.4-0.8,0.5c-0.6,0.2-1.3,0.2-2,0c-0.3-0.1-0.6-0.3-0.8-0.5c-0.2-0.2-0.4-0.5-0.5-0.7c-0.3-0.6-0.3-1.2,0-1.8
			c0.1-0.3,0.3-0.5,0.5-0.7c0.2-0.2,0.5-0.4,0.8-0.5c0.6-0.2,1.3-0.2,2,0c0.3,0.1,0.6,0.3,0.8,0.5c0.2,0.2,0.4,0.5,0.5,0.7
			C545.6,159.7,545.6,160.3,545.4,160.9 M535.5,153.1c0.2,0.4,0.4,0.7,0.7,1c0.3,0.3,0.6,0.5,1,0.7c0.8,0.3,1.7,0.3,2.5,0
			c0.4-0.2,0.7-0.4,1-0.7c0.3-0.3,0.5-0.6,0.7-1c0.3-0.8,0.3-1.7,0-2.4c-0.2-0.4-0.4-0.7-0.7-1c-0.3-0.3-0.6-0.5-1-0.7
			c-0.8-0.3-1.7-0.3-2.5,0c-0.4,0.2-0.7,0.4-1,0.7c-0.3,0.3-0.5,0.6-0.7,1C535.2,151.5,535.2,152.4,535.5,153.1 M536.2,151
			c0.2-0.6,0.7-1.1,1.3-1.3c0.6-0.3,1.3-0.3,1.9,0c0.3,0.1,0.5,0.3,0.8,0.5c0.2,0.2,0.4,0.5,0.5,0.8c0.3,0.6,0.3,1.3,0,1.9
			c-0.2,0.6-0.7,1.1-1.3,1.3c-0.6,0.3-1.3,0.3-1.9,0c-0.6-0.3-1-0.7-1.3-1.3C535.9,152.3,535.9,151.6,536.2,151 M545.4,156h0.7v-9.1
			h-0.7V156z M536.2,127.8c0.2,0.4,0.4,0.7,0.7,1c0.3,0.3,0.6,0.5,1,0.7c0.8,0.3,1.8,0.3,2.6,0c0.4-0.2,0.7-0.4,1-0.7
			c0.3-0.3,0.5-0.6,0.7-1c0.3-0.8,0.3-1.7,0-2.5c-0.2-0.4-0.4-0.7-0.7-1c-0.3-0.3-0.6-0.5-1-0.7c-0.8-0.3-1.8-0.3-2.6,0
			c-0.4,0.2-0.7,0.4-1,0.7c-0.3,0.3-0.5,0.6-0.7,1C535.9,126.1,535.9,127,536.2,127.8 M536.9,125.6c0.2-0.6,0.7-1.1,1.3-1.3
			c0.6-0.2,1.4-0.2,2,0c1.2,0.5,1.8,1.9,1.3,3.2c-0.2,0.6-0.7,1.1-1.3,1.3c-0.6,0.2-1.4,0.2-2,0C537,128.3,536.4,126.9,536.9,125.6
			C536.9,125.6,536.9,125.6,536.9,125.6 M539,133.1h0.7v-2.8H539V133.1z M545.4,137.5h0.7v-16.7h-0.7V137.5z M544.3,132
			c-1,0.2-1.9,0.3-2.8,0.4s-1.7,0.2-2.5,0.3c-0.8,0.1-1.7,0.1-2.5,0.2s-1.8,0.1-2.8,0.1l0.2,0.8c1,0,1.9-0.1,2.8-0.1
			s1.7-0.1,2.5-0.2c0.8-0.1,1.6-0.2,2.5-0.3l2.7-0.4L544.3,132z M549.5,129h-3.3l-0.4,0.4l0.4,0.4h3.3V129z M533.7,114.9h3.8
			l3.9-0.1l3.9-0.1l3.7-0.1v-0.8l-3.8,0.2c-1.3,0-2.6,0.1-3.9,0.1l-4,0.1h-3.8L533.7,114.9z M539.8,107.4h1.6l1.7-0.1l1.6-0.1
			l1.5-0.1v-0.8l-1.5,0.1l-1.6,0.1h-1.7h-1.6V107.4z M546.7,109.5l-1.9,0.1c-0.7,0-1.5,0.1-2.3,0.1h-2.3c-0.7,0-1.4,0-2,0v0.8
			c0.5,0,1.2,0,1.9,0h2.3l2.3-0.1l1.9-0.1L546.7,109.5z M546.4,103.1l-1.8,0.1l-2.3,0.1H540h-1.8v0.8h1.7h2.3h2.3l1.8-0.1
			L546.4,103.1z M538.3,110.5l0.7-0.2v-6.7h-0.7V110.5z M539.8,92c0.4-0.2,0.8-0.5,1.1-0.8c0.3-0.3,0.6-0.7,0.7-1.2
			c0.3-0.9,0.3-1.9,0-2.9c-0.2-0.4-0.4-0.8-0.7-1.2c-1.3-1.4-3.5-1.4-4.8-0.2c-0.1,0-0.1,0.1-0.2,0.2c-0.3,0.3-0.6,0.7-0.7,1.2
			c-0.3,0.9-0.3,1.9,0,2.9c0.2,0.4,0.4,0.8,0.7,1.2c0.3,0.3,0.7,0.6,1.1,0.8C537.9,92.3,538.9,92.3,539.8,92 M539.5,85.8
			c0.3,0.1,0.6,0.4,0.9,0.6c0.2,0.3,0.4,0.6,0.5,0.9c0.3,0.8,0.3,1.6,0,2.3c-0.1,0.3-0.3,0.7-0.5,0.9c-0.2,0.3-0.5,0.5-0.9,0.6
			c-0.7,0.3-1.5,0.3-2.2,0c-0.3-0.1-0.6-0.4-0.9-0.6c-0.2-0.3-0.4-0.6-0.5-0.9c-0.3-0.8-0.3-1.6,0-2.3c0.1-0.3,0.3-0.7,0.5-0.9
			c0.2-0.3,0.5-0.5,0.9-0.6C538,85.5,538.8,85.5,539.5,85.8 M545.5,97.5h0.7V80.8h-0.7V97.5z M534.8,73c1.4-1,2.6-2.4,3.3-3.9
			c0.8-1.7,1.3-3.4,1.5-5.3l-0.8-0.1c-0.1,1.7-0.6,3.4-1.3,5c-0.7,1.5-1.8,2.8-3.2,3.7L534.8,73z M549.5,68.4h-3.3l-0.4,0.4l0.4,0.4
			h3.3V68.4z M542.9,72.4l-3.3-4l-0.6,0.5l1.6,1.9c0.6,0.7,1.1,1.4,1.6,2.1L542.9,72.4z M545.4,77.5h0.7V60.8h-0.7V77.5z
			 M537.4,48.5c-0.1,0.6-0.2,1.2-0.3,1.8c-0.1,0.6-0.3,1.2-0.5,1.7l0.7,0.3c0.2-0.6,0.4-1.2,0.6-1.9c0.1-0.6,0.2-1.3,0.3-1.9
			L537.4,48.5z M539.3,46.8c0.3-0.1,0.6-0.3,0.9-0.5c0.2-0.2,0.4-0.5,0.6-0.7c0.3-0.6,0.3-1.2,0-1.8c-0.1-0.3-0.3-0.5-0.6-0.7
			c-0.3-0.2-0.6-0.4-0.9-0.5c-0.7-0.3-1.5-0.3-2.2,0c-0.3,0.1-0.6,0.3-0.9,0.5c-0.2,0.2-0.4,0.5-0.6,0.7c-0.3,0.6-0.3,1.2,0,1.8
			c0.1,0.3,0.3,0.5,0.6,0.7c0.3,0.2,0.6,0.4,0.9,0.5C537.8,47,538.6,47,539.3,46.8 M539.7,43.5c0.6,0.5,0.8,1.3,0.3,2
			c-0.1,0.1-0.2,0.2-0.3,0.3c-0.9,0.6-2.1,0.6-3,0c-0.6-0.5-0.8-1.3-0.3-2c0.1-0.1,0.2-0.2,0.3-0.3
			C537.6,42.9,538.8,42.9,539.7,43.5 M543.5,49.6h-3v0.8h3V49.6z M541.4,47.6c-1.3,0.2-2.6,0.4-3.9,0.6c-1.4,0.2-2.7,0.3-4,0.3
			l0.1,0.8c1.3-0.1,2.6-0.2,4-0.3c1.4-0.2,2.7-0.4,4-0.6L541.4,47.6z M543.1,51.2h0.7V42h-0.7V51.2z M545.5,51h0.7V40.8h-0.7V51z
			 M546.2,56.4h-7.5v0.8h7.5V56.4z M546.2,53.5l-1.7,0.1l-2,0.1h-2h-1.7v0.8h1.7h2h2l1.7-0.1L546.2,53.5z M546.2,51.9h-0.8v4.8h0.8
			V51.9z M538.7,56.8l0.7-0.2v-4.6h-0.7V56.8z"/>
		<path class="st0" d="M584.6,107.4c0.2,0.4,0.4,0.7,0.7,1c0.3,0.3,0.6,0.5,1,0.7c0.8,0.3,1.7,0.3,2.5,0c0.4-0.2,0.7-0.4,1-0.7
			c0.3-0.3,0.5-0.6,0.7-1c0.3-0.8,0.3-1.7,0-2.5c-0.2-0.4-0.4-0.7-0.7-1c-0.3-0.3-0.6-0.5-1-0.7c-0.8-0.3-1.7-0.3-2.5,0
			c-0.4,0.2-0.7,0.4-1,0.7c-0.3,0.3-0.5,0.6-0.7,1C584.2,105.7,584.2,106.6,584.6,107.4 M585.3,105.2c0.1-0.3,0.3-0.6,0.5-0.8
			c0.2-0.2,0.5-0.4,0.8-0.5c0.6-0.3,1.4-0.3,2,0c0.6,0.3,1.1,0.7,1.3,1.3c0.3,0.6,0.3,1.3,0,1.9c-0.3,0.6-0.7,1.1-1.3,1.3
			c-0.6,0.3-1.4,0.3-2,0c-0.3-0.1-0.6-0.3-0.8-0.5c-0.2-0.2-0.4-0.5-0.5-0.8C585,106.5,585,105.8,585.3,105.2 M596.3,115.1l-2,0.1
			c-0.8,0-1.6,0.1-2.4,0.1h-2.4c-0.8,0-1.4,0-2,0v0.8c0.5,0,1.2,0,2,0h2.4l2.4-0.1c0.8,0,1.4,0,2-0.1L596.3,115.1z M587.6,115.9h0.7
			v-4.2h-0.7V115.9z M594.4,112.7h0.7v-11.9h-0.7V112.7z M584.1,93.4c1.2-1,2.3-2.2,3.2-3.6c0.8-1.4,1.4-2.9,1.8-4.5l-0.8-0.1
			c-0.2,0.8-0.4,1.5-0.7,2.3c-0.3,0.7-0.6,1.4-1,2c-0.4,0.6-0.8,1.2-1.3,1.8c-0.5,0.6-1.1,1.1-1.7,1.7L584.1,93.4z M598.5,88.6h-3.3
			l-0.4,0.4l0.4,0.4h3.3V88.6z M592.6,92.5l-3.9-3.6l-0.5,0.6l0.9,0.8l1,0.9l1,1l0.9,0.9L592.6,92.5z M591.8,84.6l-1.7,0.1l-2.1,0.1
			H586h-1.7l0.1,0.8h1.7h2l2-0.1l1.7-0.1L591.8,84.6z M594.4,97.5h0.7V80.8h-0.7V97.5z M590.5,64.7c-0.9,0.1-1.9,0.1-2.9,0.2
			c-1,0-2,0-2.9,0v0.8h1.4h1.5l1.5-0.1l1.4-0.1V64.7z M592,71.1c-1.1,0.4-2.3,0.7-3.5,0.9c-1.3,0.2-2.6,0.3-3.9,0.2V73
			c1.3,0,2.7-0.1,4-0.3c1.2-0.2,2.4-0.5,3.6-0.9L592,71.1z M584.7,73l0.7-0.2v-7.3h-0.7V73z M594.4,77.5h0.7V60.8h-0.7V77.5z
			 M588.3,45c0.2,0.4,0.4,0.7,0.8,0.9c0.3,0.2,0.7,0.4,1.1,0.5c0.9,0.3,1.9,0.3,2.8,0c0.4-0.1,0.8-0.3,1.1-0.5
			c0.3-0.2,0.6-0.5,0.8-0.9c0.4-0.8,0.4-1.6,0-2.4c-0.2-0.4-0.4-0.7-0.8-0.9c-0.3-0.2-0.7-0.4-1.1-0.5c-0.9-0.3-1.9-0.3-2.8,0
			c-0.4,0.1-0.8,0.3-1.1,0.5c-0.3,0.2-0.6,0.5-0.8,0.9C587.9,43.4,587.9,44.2,588.3,45 M589,42.9c0.1-0.3,0.4-0.5,0.6-0.6
			c0.3-0.2,0.6-0.3,0.9-0.4c0.7-0.2,1.5-0.2,2.2,0c0.3,0.1,0.6,0.2,0.9,0.4c0.9,0.5,1.1,1.7,0.6,2.5c-0.1,0.2-0.3,0.4-0.6,0.6
			c-0.3,0.2-0.6,0.3-0.9,0.4c-0.7,0.2-1.5,0.2-2.2,0c-0.3-0.1-0.6-0.2-0.9-0.4C588.8,44.8,588.5,43.7,589,42.9 M589.1,49.1
			c-0.3,0.6-0.7,1.2-1.2,1.7c-0.5,0.6-1.1,1.1-1.7,1.4l0.5,0.6c0.3-0.2,0.6-0.4,0.9-0.7c0.3-0.3,0.6-0.6,0.8-0.8
			c0.3-0.3,0.5-0.6,0.7-0.9c0.2-0.3,0.4-0.6,0.6-0.9L589.1,49.1z M594.4,52.8h0.8V48h-0.8V52.8z M595.2,47.7
			c-1.1,0.1-2.2,0.1-3.3,0.1l-3.3,0.1l-3.3,0.1h-3.2l0.1,0.8h3.1l3.3-0.1l3.3-0.1l3.3-0.1L595.2,47.7z M596.1,55.3l-1.8,0.1
			c-0.7,0-1.4,0.1-2.1,0.1h-2.2c-0.7,0-1.3,0-1.9,0v0.8c0.5,0,1.2,0,1.9,0h2.2l2.2-0.1l1.8-0.1L596.1,55.3z M588.1,56.3l0.8-0.4
			v-3.1H588L588.1,56.3z"/>
		<path class="st0" d="M618.4,125.2c0.2,0.5,0.6,0.9,1.1,1.1c0.5,0.2,1.1,0.2,1.6,0c0.2-0.1,0.5-0.3,0.7-0.4c0.8-0.8,0.8-2.1,0-2.9
			c-0.2-0.2-0.4-0.3-0.7-0.4c-0.5-0.2-1.1-0.2-1.6,0C618.5,122.9,618,124.1,618.4,125.2 M621.3,125.3c-0.5,0.5-1.4,0.5-1.9,0
			c-0.5-0.5-0.5-1.4,0-1.9c0.5-0.5,1.4-0.5,1.9,0C621.8,123.9,621.8,124.8,621.3,125.3 M613.5,102.4c0.3,0.1,0.5,0.2,0.7,0.4
			c0.2,0.2,0.4,0.4,0.5,0.6c0.3,0.5,0.3,1.1,0,1.6c-0.1,0.2-0.3,0.4-0.5,0.6c-0.2,0.2-0.5,0.3-0.7,0.4c-0.5,0.2-1.1,0.2-1.7,0
			c-0.3-0.1-0.5-0.2-0.7-0.4c-0.2-0.2-0.4-0.4-0.5-0.6c-0.3-0.5-0.3-1.1,0-1.6c0.1-0.2,0.3-0.4,0.5-0.6c0.2-0.2,0.5-0.3,0.7-0.4
			C612.4,102.2,613,102.2,613.5,102.4 M613.8,106.6c0.3-0.1,0.7-0.3,0.9-0.5c0.3-0.2,0.5-0.5,0.6-0.8c0.3-0.7,0.3-1.5,0-2.2
			c-0.2-0.3-0.4-0.6-0.6-0.8c-0.3-0.2-0.6-0.4-0.9-0.5c-0.7-0.3-1.5-0.3-2.2,0c-0.3,0.1-0.7,0.3-0.9,0.5c-0.3,0.2-0.5,0.5-0.6,0.8
			c-0.3,0.7-0.3,1.5,0,2.2c0.2,0.3,0.4,0.6,0.6,0.8c0.3,0.2,0.6,0.4,0.9,0.5C612.3,106.9,613.1,106.9,613.8,106.6 M611.1,112.6
			c0.1-0.4,0.2-0.7,0.3-1c0.1-0.3,0.2-0.6,0.2-1c0.1-0.3,0.1-0.7,0.2-1s0.1-0.7,0.1-1.1l-0.8,0.3c0,0.3-0.1,0.7-0.1,1
			s-0.1,0.6-0.2,0.8c-0.1,0.3-0.1,0.6-0.2,0.8c-0.1,0.3-0.2,0.6-0.3,0.9L611.1,112.6z M620.8,115.4l-1.9,0.1c-0.7,0-1.5,0.1-2.3,0.1
			h-2.3c-0.7,0-1.4,0-2,0v0.8c0.5,0,1.2,0,1.9,0h2.3l2.3-0.1l1.9-0.1L620.8,115.4z M612.4,116.4h0.7v-4h-0.7V116.4z M619.5,110.5
			h-4.2v0.8h4.2V110.5z M616.5,107.7c-0.7,0.1-1.4,0.2-2.2,0.3c-0.8,0.1-1.6,0.2-2.4,0.2c-0.8,0.1-1.6,0.1-2.5,0.2s-1.6,0.1-2.2,0.1
			l0.1,0.8c0.7,0,1.4,0,2.2-0.1c0.8,0,1.6-0.1,2.5-0.2c0.8-0.1,1.7-0.1,2.5-0.2s1.5-0.2,2.2-0.3L616.5,107.7z M618.9,113.6h0.7
			v-12.7h-0.7V113.6z M617.1,92.4l-3.8-3.6l-0.5,0.6l0.9,0.8l1,0.9l1,1l0.9,0.9L617.1,92.4z M608.6,93.4c1.2-1,2.3-2.2,3.2-3.6
			c0.8-1.4,1.4-2.9,1.8-4.5l-0.8-0.1c-0.2,0.8-0.4,1.5-0.7,2.3c-0.3,0.7-0.6,1.4-1,2c-0.4,0.6-0.8,1.2-1.3,1.8
			c-0.5,0.6-1.1,1.1-1.7,1.6L608.6,93.4z M616.2,84.6l-1.7,0.1l-2.1,0.1h-2.1h-1.7l0.1,0.8h1.7h2l2-0.1l1.7-0.1L616.2,84.6z
			 M619,97.5h0.7V80.8H619V97.5z M616.8,69.3l-3.5-2.9l-0.5,0.6c0.6,0.5,1.1,0.9,1.7,1.4c0.5,0.5,1.1,1,1.7,1.5L616.8,69.3z
			 M616.2,63l-1.6,0.1l-1.9,0.1l-1.9,0.1h-1.6l0.1,0.8h1.6l1.9-0.1l1.9-0.1l1.6-0.1L616.2,63z M608.9,70.8c1.2-0.8,2.2-1.8,2.9-3
			c0.7-1.3,1.2-2.7,1.5-4.1l-0.8-0.1c-0.1,0.7-0.3,1.4-0.5,2.1c-0.2,0.6-0.5,1.2-0.8,1.7c-0.3,0.5-0.7,1-1.2,1.5
			c-0.5,0.5-1,0.9-1.6,1.3L608.9,70.8z M618.9,70.8h0.7v-10h-0.7V70.8z M619.7,72.1l-2,0.1l-2.3,0.1l-2.3,0.1h-1.9l0.1,0.8h1.9h2.3
			l2.3-0.1l2-0.1L619.7,72.1z M618.9,77.3h0.7v-4.7h-0.7V77.3z M623,66.3h-3.3l-0.4,0.3l0.4,0.4h3.3V66.3z M614.2,52.1l-2.4-3.5
			l-0.6,0.5c0.4,0.6,0.8,1.1,1.2,1.8s0.8,1.2,1.1,1.8L614.2,52.1z M613.8,44.6c-0.9,0.1-1.9,0.1-3,0.1s-2.1,0-3,0l0.1,0.8h1.4h1.5
			l1.5,0l1.4-0.1L613.8,44.6z M607.8,52.7c0.5-0.5,1-1.1,1.5-1.7c0.4-0.6,0.8-1.1,1.1-1.8c0.3-0.6,0.6-1.3,0.8-1.9
			c0.2-0.7,0.4-1.4,0.5-2.2h-0.8c-0.2,1.3-0.6,2.6-1.2,3.8c-0.6,1.2-1.4,2.3-2.4,3.2L607.8,52.7z M616.4,47.6h-3.2v0.8h3.2V47.6z
			 M616,55.1h0.7V42H616V55.1z M619,57.5h0.7V40.8H619V57.5z"/>
		<path class="st0" d="M672,106.6h-3.3l-0.4,0.4l0.4,0.4h3.3V106.6z M664.3,103.1l-1.6,0.1l-1.5,0.1h-1.4h-1.5l0.1,0.8h2.6
			c0.8,0,1.7,0,2.7-0.1L664.3,103.1z M657.9,111.5c0.8-0.5,1.5-1,2.2-1.7c0.7-0.6,1.3-1.3,1.9-2.1c0.6-0.7,1.1-1.5,1.5-2.3
			c0.4-0.7,0.7-1.5,0.9-2.3l-0.9,0.3c-0.2,0.7-0.4,1.4-0.8,2c-0.4,0.7-0.8,1.4-1.3,2c-0.5,0.7-1.1,1.3-1.8,1.9
			c-0.7,0.6-1.4,1.1-2.1,1.6L657.9,111.5z M667.9,112.5h0.7v-11.6h-0.7V112.5z M669.7,115.1l-1.9,0.1c-0.8,0-1.5,0.1-2.3,0.1h-2.3
			c-0.8,0-1.4,0-2,0v0.8c0.5,0,1.2,0,2,0h2.3l2.3-0.1l1.9-0.1L669.7,115.1z M661.1,115.9h0.7v-4.3h-0.7V115.9z M655.7,89.2h3.9
			l4.1-0.1l4.1-0.1l3.8-0.1v-0.8l-3.8,0.2c-1.3,0-2.7,0.1-4.1,0.1l-4.1,0.1h-3.9L655.7,89.2z M663.2,88.7h0.8v-3.9h-0.7L663.2,88.7z
			 M668.8,81.3l-1.9,0.1l-2.2,0.1h-2.2h-1.8l0.1,0.8h1.7h2h2l1.7-0.1L668.8,81.3z M668,86.1l0.3-1.2c0.1-0.4,0.1-0.8,0.2-1.1
			s0.1-0.8,0.1-1.2c0-0.4,0.1-0.8,0.1-1.3l-0.8,0.3c0,0.4,0,0.8-0.1,1.1c-0.1,0.4-0.1,0.7-0.1,1c0,0.3-0.1,0.7-0.2,1l-0.3,1.1
			L668,86.1z M666.2,96.6c0.4-0.1,0.8-0.3,1.1-0.6c0.3-0.3,0.6-0.6,0.7-0.9c0.4-0.8,0.4-1.6,0-2.4c-0.2-0.4-0.4-0.7-0.7-0.9
			c-0.3-0.3-0.7-0.5-1.1-0.6c-0.9-0.3-1.8-0.3-2.7,0c-0.4,0.1-0.8,0.3-1.1,0.6c-0.3,0.3-0.6,0.6-0.7,0.9c-0.4,0.8-0.4,1.6,0,2.4
			c0.2,0.4,0.4,0.7,0.7,0.9c0.3,0.3,0.7,0.5,1.1,0.6C664.4,96.8,665.3,96.8,666.2,96.6 M663.8,95.9c-0.3-0.1-0.6-0.2-0.9-0.4
			c-0.2-0.2-0.4-0.4-0.6-0.7c-0.3-0.6-0.3-1.3,0-1.8c0.1-0.3,0.3-0.5,0.6-0.7c0.3-0.2,0.6-0.3,0.9-0.4c0.7-0.2,1.4-0.2,2.1,0
			c0.3,0.1,0.6,0.2,0.9,0.4c0.2,0.2,0.4,0.4,0.6,0.7c0.3,0.6,0.3,1.3,0,1.8c-0.1,0.3-0.3,0.5-0.6,0.7c-0.3,0.2-0.6,0.3-0.9,0.4
			C665.2,96.1,664.5,96.1,663.8,95.9 M657.6,73.4c1.2-1,2.3-2.2,3.2-3.6c0.8-1.4,1.4-2.9,1.8-4.5l-0.8-0.1c-0.2,0.8-0.4,1.5-0.7,2.3
			c-0.3,0.7-0.6,1.4-1,2c-0.4,0.6-0.8,1.2-1.3,1.8c-0.5,0.6-1.1,1.1-1.7,1.7L657.6,73.4z M672,68.6h-3.3l-0.4,0.4l0.4,0.4h3.3V68.6z
			 M666.1,72.5l-3.9-3.6l-0.5,0.6l0.9,0.8l1,0.9l1,1l0.9,0.9L666.1,72.5z M665.3,64.6l-1.7,0.1l-2.1,0.1h-2.1h-1.7l0.1,0.8h1.7h2
			l2-0.1l1.7-0.1L665.3,64.6z M667.9,77.5h0.7V60.8h-0.7V77.5z M663.9,47.7c0.5-0.3,0.7-0.8,0.8-1.4c0-0.6-0.3-1.1-0.8-1.4
			c-1.3-0.7-2.9-0.7-4.1,0c-0.5,0.3-0.8,0.8-0.8,1.4c0,0.6,0.3,1.1,0.8,1.4C661,48.4,662.6,48.4,663.9,47.7 M663.4,45.4
			c0.5,0.3,0.6,0.9,0.3,1.4c-0.1,0.1-0.2,0.3-0.3,0.3c-1,0.4-2.1,0.4-3.1,0c-0.5-0.3-0.6-0.9-0.3-1.4c0.1-0.1,0.2-0.3,0.3-0.3
			C661.3,45,662.4,45,663.4,45.4 M663.9,41.3c-0.7-0.1-1.4-0.3-2-0.4c-0.6-0.1-1.3-0.3-2-0.6l-0.2,0.8c0.7,0.2,1.4,0.4,2,0.5l2,0.4
			L663.9,41.3z M665.5,42.7l-1.8,0.1l-2.2,0.1h-2.2h-1.8l0.1,0.8h1.7h2.2l2.2-0.1l1.8-0.1V42.7z M661.5,49.9h0.7v-1.8h-0.7V49.9z
			 M666.6,48.9c-0.7,0.1-1.4,0.3-2.3,0.4c-0.9,0.1-1.8,0.2-2.8,0.3c-1,0.1-1.9,0.2-2.8,0.3c-0.9,0.1-1.7,0.1-2.4,0.1l0.1,0.8
			c0.7,0,1.5-0.1,2.5-0.2c0.9-0.1,1.9-0.2,2.8-0.3c0.9-0.1,1.9-0.2,2.8-0.3s1.7-0.2,2.3-0.4L666.6,48.9z M672,46.2h-3.3l-0.4,0.4
			l0.4,0.4l3.3,0L672,46.2z M669.8,55.9l-1.9,0.1c-0.7,0-1.5,0.1-2.3,0.1h-2.3c-0.8,0-1.4,0-2,0v0.8c0.5,0,1.2,0,2,0h2.3l2.3-0.1
			l1.9-0.1L669.8,55.9z M661.3,56.5h0.7v-2.3h-0.7L661.3,56.5z M668.7,53.6l-1.8,0.1l-2,0.1h-2h-1.7v0.8h1.7h2l2-0.1l1.8-0.1
			L668.7,53.6z M668,54h0.7v-2.3H668V54z M668.7,51.3l-1.8,0.1l-2,0.1l-2,0h-1.7l0.1,0.8h1.7l1.9,0l2-0.1l1.8-0.1L668.7,51.3z
			 M668,50.3h0.7v-9.5H668V50.3z"/>
		<path class="st0" d="M691.9,145.2c0.2,0.5,0.6,0.9,1.1,1.1c0.5,0.2,1.1,0.2,1.6,0c0.2-0.1,0.5-0.3,0.7-0.4c0.8-0.8,0.8-2.1,0-2.9
			c-0.2-0.2-0.4-0.3-0.7-0.4c-0.5-0.2-1.1-0.2-1.6,0C692,142.9,691.5,144.1,691.9,145.2 M694.8,145.3c-0.5,0.5-1.4,0.5-1.9,0
			c-0.5-0.5-0.5-1.4,0-1.9c0.5-0.5,1.4-0.5,1.9,0C695.3,143.9,695.3,144.8,694.8,145.3 M680.7,134.9h3.8l3.9-0.1l3.9-0.1l3.7-0.1
			v-0.8l-3.8,0.1c-1.3,0-2.6,0.1-3.9,0.1l-4,0.1h-3.8L680.7,134.9z M686.8,127.3h1.6h1.7l1.6-0.1l1.5-0.1v-0.8l-1.5,0.1l-1.6,0.1
			h-1.7h-1.6V127.3z M693.7,129.5l-1.9,0.1c-0.7,0-1.5,0.1-2.3,0.1h-2.3c-0.7,0-1.4,0-2,0v0.8c0.5,0,1.2,0,1.9,0h2.3l2.3-0.1
			l1.9-0.1L693.7,129.5z M693.4,123l-1.8,0.1l-2.3,0.1H687h-1.8v0.8h1.7h2.3h2.3l1.8-0.1L693.4,123z M685.3,130.5l0.7-0.2v-6.7h-0.7
			V130.5z M686.8,111.9c0.4-0.2,0.8-0.5,1.1-0.8c0.3-0.3,0.6-0.7,0.7-1.2c0.3-0.9,0.3-1.9,0-2.9c-0.2-0.4-0.4-0.8-0.7-1.2
			c-1.3-1.4-3.5-1.4-4.8-0.2c-0.1,0-0.1,0.1-0.2,0.2c-0.3,0.3-0.6,0.7-0.7,1.2c-0.3,0.9-0.3,1.9,0,2.9c0.2,0.4,0.4,0.8,0.7,1.2
			c0.3,0.3,0.7,0.6,1.1,0.8C684.9,112.3,685.9,112.3,686.8,111.9 M686.5,105.8c0.3,0.1,0.6,0.4,0.9,0.6c0.2,0.3,0.4,0.6,0.5,0.9
			c0.3,0.8,0.3,1.6,0,2.3c-0.1,0.3-0.3,0.7-0.5,0.9c-0.2,0.3-0.5,0.5-0.9,0.6c-0.7,0.3-1.5,0.3-2.2,0c-0.3-0.1-0.6-0.4-0.9-0.6
			c-0.2-0.3-0.4-0.6-0.5-0.9c-0.3-0.8-0.3-1.6,0-2.3c0.1-0.3,0.3-0.7,0.5-0.9c0.2-0.3,0.5-0.5,0.9-0.6
			C685,105.5,685.8,105.5,686.5,105.8 M692.5,117.5h0.7v-16.7h-0.7V117.5z M687.5,91.9l-1.5,0.2l-1.2,0.1c-0.4,0-0.8,0-1.2,0h-1.3
			v-3.4h-0.7V93h1.5c0.5,0,1,0,1.4,0c0.5,0,1,0,1.4-0.1l1.5-0.2L687.5,91.9z M686.6,88.2l-1.3,0.1l-1.1,0.1H683h-1.3v0.8h1.3h1.1
			l1.1-0.1l1.3-0.1V88.2z M685.8,88.6h0.7v-3.8h-0.7V88.6z M686.6,84.4l-1.4,0.1H684h-1.2h-1.3l0.1,0.8h1.3h1.1h1.2l1.4-0.1
			L686.6,84.4z M690,88.3h-2.7V89h2.7V88.3z M689.6,95.5h0.7V82h-0.7V95.5z M692.6,97.5h0.7V80.8h-0.7V97.5z M688,67.6h4.8v-0.8H688
			V67.6z M689.6,71.5c-1.1,0.3-2.3,0.5-3.4,0.6c-1.3,0.1-2.5,0.2-3.8,0.2v0.7c1.3,0,2.6-0.1,3.9-0.2c1.2-0.1,2.4-0.3,3.6-0.6
			L689.6,71.5z M682.4,73l0.7-0.2v-8.2h-0.7V73z M692.4,77.5h0.7V60.8h-0.7V77.5z M687.7,52.1l-2.4-3.5l-0.6,0.5
			c0.4,0.6,0.8,1.1,1.2,1.8c0.4,0.6,0.8,1.2,1.1,1.8L687.7,52.1z M687.3,44.6c-0.9,0.1-1.9,0.1-3,0.1c-1.1,0-2.1,0-3,0l0.1,0.8h1.4
			h1.5l1.5,0l1.4-0.1L687.3,44.6z M681.3,52.6c0.5-0.5,1-1.1,1.5-1.6c0.4-0.6,0.8-1.1,1.1-1.8c0.3-0.6,0.6-1.3,0.8-1.9
			c0.2-0.7,0.4-1.4,0.5-2.2h-0.8c-0.2,1.3-0.6,2.6-1.2,3.8c-0.6,1.2-1.4,2.3-2.4,3.2L681.3,52.6z M689.9,47.5h-3.2v0.8h3.2
			L689.9,47.5z M689.4,55.1h0.7V42h-0.7V55.1z M692.4,57.5h0.7V40.8h-0.7V57.5z"/>
		<path class="st0" d="M740.9,271.2c0.5,1,1.7,1.5,2.7,1.1c1-0.5,1.5-1.7,1.1-2.7c-0.1-0.2-0.2-0.4-0.4-0.6c-0.8-0.8-2-0.9-2.8-0.1
			c-0.2,0.2-0.4,0.5-0.5,0.8C740.7,270.1,740.7,270.6,740.9,271.2 M743.8,271.3c-0.5,0.5-1.4,0.5-1.9,0c-0.5-0.5-0.5-1.4,0-1.9
			c0.5-0.5,1.4-0.5,1.9,0C744.3,269.9,744.3,270.8,743.8,271.3 M737.6,250.7c-0.9,0.1-1.9,0.1-2.9,0.1c-1,0-2,0-2.9,0v0.8h1.4h1.5
			l1.5-0.1l1.4-0.1V250.7z M739.1,257.1c-1.1,0.4-2.3,0.7-3.5,0.9c-1.3,0.2-2.6,0.3-3.9,0.2v0.7c1.3,0,2.7-0.1,4-0.3
			c1.2-0.2,2.4-0.5,3.6-0.9L739.1,257.1z M731.7,259l0.7-0.2v-7.3h-0.7V259z M745.5,254.7h-3.3l-0.4,0.4l0.4,0.4h3.3V254.7z
			 M741.4,263.5h0.7v-16.7h-0.7V263.5z M739.3,236.9c-1.2,0.4-2.4,0.7-3.6,0.9c-1.3,0.2-2.6,0.4-3.9,0.4v0.7c1.3-0.1,2.7-0.2,4-0.5
			c1.3-0.2,2.5-0.5,3.7-0.9L739.3,236.9z M731.8,238.9l0.7-0.2v-8h-0.7V238.9z M741.4,243.5h0.7v-16.7h-0.7V243.5z M729.1,214.4h3.9
			l4.1-0.1c1.4,0,2.7,0,4.1-0.1l3.8-0.1v0.8c-1.2,0.1-2.5,0.1-3.8,0.1l-4.1,0.1l-4.1,0.1h-3.9L729.1,214.4z M743.4,211.5l-4.2-2.2
			l-0.4,0.7l2,1.1l2.1,1.1L743.4,211.5z M733.7,212.3c1.3-0.4,2.6-1.1,3.6-2.1c1-1,1.6-2.2,1.9-3.6l-0.7-0.2
			c-0.2,0.6-0.4,1.3-0.7,1.9c-0.3,0.5-0.6,1-1,1.4c-0.4,0.4-0.9,0.8-1.5,1.1c-0.6,0.3-1.2,0.6-1.9,0.8L733.7,212.3z M742.2,222.7
			h-7.4v-0.8h7.4V222.7z M742.2,219.4l-1.7,0.1h-2h-2h-1.7v-0.8h1.7h2l2-0.1l1.7-0.1L742.2,219.4z M742.2,222.2h-0.7v-5.6h0.7V222.2
			z M734.8,216.9h0.7v5.4h-0.7V216.9z M730.8,196c0.7-0.5,1.3-1,1.8-1.6c0.5-0.6,1-1.2,1.3-1.8c0.4-0.7,0.7-1.4,0.9-2.1
			c0.3-0.8,0.4-1.6,0.5-2.5l-0.7-0.2c-0.1,0.8-0.3,1.6-0.5,2.3c-0.2,0.7-0.5,1.4-0.8,2c-0.4,0.6-0.8,1.2-1.3,1.7
			c-0.5,0.6-1.1,1.1-1.8,1.5L730.8,196z M738.7,200.4l-1.9-1.5l-0.4,0.6l1.7,1.4L738.7,200.4z M744.4,202.2l-3-2.4l-0.5,0.6l0.7,0.6
			l0.7,0.6l0.7,0.6l0.8,0.7L744.4,202.2z M732.4,202.5c1.1-0.5,2.1-1.2,2.9-2.2c0.8-1,1.3-2.2,1.5-3.4l-0.8-0.2
			c-0.2,1.2-0.6,2.3-1.3,3.2c-0.7,0.9-1.7,1.6-2.7,2L732.4,202.5z M737.7,202.9c1.1-0.6,2-1.4,2.7-2.5c0.7-1,1.1-2.1,1.3-3.3
			l-0.8-0.2c-0.2,1.1-0.5,2.2-1.1,3.1c-0.6,0.9-1.5,1.7-2.5,2.2L737.7,202.9z M741.8,193.1h-3.6v0.8h3.6V193.1z M738.1,195.1
			l-2.8-2.6l-0.5,0.6l0.7,0.7l0.6,0.6l0.6,0.6l0.8,0.8L738.1,195.1z M741.8,189.9h-3.6v0.8h3.6V189.9z M741.4,195.9h0.7v-9h-0.7
			V195.9z M729.2,176.5h3.9l4.1-0.1l4.1-0.1c1.3,0,2.6-0.1,3.8-0.1v-0.8l-3.8,0.1c-1.3,0-2.7,0.1-4.1,0.1l-4.1,0.1h-3.9L729.2,176.5
			z M733.3,173.7c1.3-0.5,2.6-1.3,3.6-2.3c0.9-0.9,1.6-2.1,2-3.3l-0.8-0.2c-0.4,1.2-1,2.2-1.9,3.1c-0.9,0.9-2.1,1.6-3.3,2
			L733.3,173.7z M742.3,167.5l-2,0.1l-2.3,0.1h-2.3h-2l0.1,0.8h1.9h2.2l2.2-0.1l2-0.1L742.3,167.5z M743,172.7l-4.2-2.5l-0.4,0.7
			c0.7,0.4,1.4,0.8,2.1,1.2l2.1,1.3L743,172.7z M738.2,183h0.8v-7.2h-0.7L738.2,183z M732.2,153.9c0.2,0.4,0.4,0.7,0.7,1
			c0.3,0.3,0.6,0.5,1,0.7c0.8,0.3,1.8,0.3,2.6,0c0.4-0.2,0.7-0.4,1-0.7c0.3-0.3,0.5-0.6,0.7-1c0.3-0.8,0.3-1.7,0-2.5
			c-0.2-0.4-0.4-0.7-0.7-1c-0.3-0.3-0.6-0.5-1-0.7c-0.8-0.3-1.8-0.3-2.6,0c-0.4,0.2-0.7,0.4-1,0.7c-0.3,0.3-0.5,0.6-0.7,1
			C731.9,152.2,731.9,153.1,732.2,153.9 M732.9,151.7c0.2-0.6,0.7-1.1,1.3-1.3c0.6-0.2,1.4-0.2,2,0c1.2,0.5,1.8,1.9,1.3,3.2
			c-0.2,0.6-0.7,1.1-1.3,1.3c-0.6,0.2-1.4,0.2-2,0C732.9,154.4,732.4,153,732.9,151.7C732.9,151.7,732.9,151.7,732.9,151.7
			 M735,159.1h0.7v-2.8H735V159.1z M741.4,163.5h0.7v-16.7h-0.7V163.5z M740.3,158c-1,0.2-1.9,0.3-2.8,0.4s-1.7,0.2-2.5,0.3
			c-0.8,0.1-1.7,0.1-2.5,0.2s-1.8,0.1-2.8,0.1l0.2,0.8c1,0,1.9-0.1,2.8-0.1s1.7-0.1,2.5-0.2c0.8-0.1,1.6-0.2,2.5-0.3l2.7-0.4
			L740.3,158z M745.5,155h-3.3l-0.4,0.4l0.4,0.4h3.3V155z M729.7,140.9h3.8l3.9-0.1l3.9-0.1l3.7-0.1v-0.8l-3.8,0.1
			c-1.3,0-2.6,0.1-3.9,0.1l-4,0.1h-3.8L729.7,140.9z M742.7,134.1l-1.9,0.1c-0.7,0-1.5,0.1-2.2,0.1h-2.2c-0.7,0-1.4,0-1.9,0v0.8
			c0.5,0,1.2,0,1.9,0h2.2l2.2-0.1l1.9-0.1V134.1z M742.5,128.9c-0.3,0-0.7,0-1.1,0.1H740h-1.5h-1.5h-2.5v0.8h1.8h2.3h2.3l1.8-0.1
			L742.5,128.9z M734.4,135.1l0.7-0.2v-5.4h-0.7V135.1z M738.2,140.3h0.7v-4.4h-0.7V140.3z M735.8,111.9c0.4-0.2,0.8-0.5,1.1-0.8
			c0.3-0.3,0.6-0.7,0.7-1.2c0.3-0.9,0.3-1.9,0-2.9c-0.2-0.4-0.4-0.8-0.7-1.2c-1.3-1.4-3.5-1.4-4.8-0.2c-0.1,0-0.1,0.1-0.2,0.2
			c-0.3,0.3-0.6,0.7-0.7,1.2c-0.3,0.9-0.3,1.9,0,2.9c0.2,0.4,0.4,0.8,0.7,1.2c0.3,0.3,0.7,0.6,1.1,0.8
			C733.9,112.3,734.9,112.3,735.8,111.9 M735.6,105.8c0.3,0.1,0.6,0.4,0.9,0.6c0.2,0.3,0.4,0.6,0.5,0.9c0.3,0.8,0.3,1.6,0,2.3
			c-0.1,0.3-0.3,0.7-0.5,0.9c-0.2,0.3-0.5,0.5-0.9,0.6c-0.7,0.3-1.5,0.3-2.2,0c-0.3-0.1-0.6-0.4-0.9-0.6c-0.2-0.3-0.4-0.6-0.5-0.9
			c-0.3-0.8-0.3-1.6,0-2.3c0.1-0.3,0.3-0.7,0.5-0.9c0.2-0.3,0.5-0.5,0.9-0.6C734,105.5,734.8,105.5,735.6,105.8 M741.6,117.5h0.7
			v-16.7h-0.7V117.5z M738.7,87.3c-0.5,0.1-1,0.3-1.5,0.4c-0.6,0.1-1.2,0.2-1.8,0.3c-0.6,0.1-1.2,0.1-1.8,0.2
			c-0.6,0-1.1,0.1-1.6,0.1v0.7c0.5,0,1,0,1.6-0.1c0.6,0,1.2-0.1,1.8-0.2s1.2-0.2,1.8-0.3c0.6-0.1,1.1-0.2,1.6-0.3L738.7,87.3z
			 M732,88.6h0.7v-5.7H732V88.6z M734.7,96.2l0.7-0.2v-4.6h-0.7V96.2z M742.3,91.2l-1.7,0.1h-2.1h-2.1h-1.7l0.1,0.8h1.7h2h2l1.7-0.1
			L742.3,91.2z M741.5,96.3h0.7v-4.6h-0.7V96.3z M742.3,95.9h-7.6v0.8h7.6V95.9z M741.5,89.7h0.7v-8.9h-0.7V89.7z M729.1,69.6h3.9
			l4.1-0.1c1.4,0,2.7,0,4.1-0.1l3.8-0.2v0.8l-3.8,0.1l-4.1,0.1l-4.1,0.1h-3.9L729.1,69.6z M743.2,66.1l-4-2.2l-0.4,0.7l1.9,1.1
			c0.6,0.4,1.3,0.8,2,1.2L743.2,66.1z M733.6,67c1.4-0.5,2.7-1.3,3.8-2.4c1-1.2,1.7-2.6,2-4.1l-0.7-0.2c-0.2,0.7-0.4,1.5-0.8,2.2
			c-0.3,0.6-0.6,1.1-1.1,1.6c-0.4,0.5-1,0.9-1.5,1.2c-0.6,0.4-1.3,0.7-2,0.9L733.6,67z M738.2,69.8h0.8v7.1h-0.7L738.2,69.8z
			 M729.7,54.7h3.8l3.9-0.1l3.9-0.1l3.7-0.1v-0.8l-3.8,0.2c-1.3,0-2.6,0.1-3.9,0.1l-4,0.1h-3.8L729.7,54.7z M742.3,43.2l-2,0.1
			l-2.4,0.1h-2.4h-1.9l0.1,0.8h1.8h2.2h2.2c0.7,0,1.3,0,1.8-0.1L742.3,43.2z M741.6,50.1c0.2-1.1,0.3-2.3,0.5-3.4
			c0.1-1.1,0.2-2.3,0.2-3.5l-0.8,0.3c0,1-0.1,2.1-0.2,3.2c-0.1,1.1-0.3,2.2-0.5,3.3L741.6,50.1z M735.3,54.1l-0.1-5.4h-0.8l0.2,5.5
			L735.3,54.1z M738.3,54h0.7v-5.5h-0.7V54z"/>
		<path class="st0" d="M753.7,239.1h3.9l4.1-0.1l4.1-0.1l3.8-0.1V238l-3.8,0.1c-1.3,0-2.7,0.1-4.1,0.1l-4.1,0.1h-3.9L753.7,239.1z
			 M762.8,242.8h0.7v-4.2h-0.7V242.8z M764.3,236.3c0.4-0.1,0.8-0.3,1.1-0.6c0.3-0.2,0.6-0.6,0.7-0.9c0.4-0.8,0.4-1.7,0-2.4
			c-0.2-0.4-0.4-0.7-0.7-0.9c-0.3-0.3-0.7-0.5-1.1-0.6c-0.9-0.3-1.9-0.3-2.8,0c-0.4,0.1-0.8,0.3-1.1,0.6c-0.3,0.2-0.6,0.6-0.7,0.9
			c-0.4,0.8-0.4,1.7,0,2.4c0.2,0.4,0.4,0.7,0.7,0.9c0.3,0.3,0.7,0.5,1.1,0.6C762.5,236.6,763.4,236.6,764.3,236.3 M760.9,235.2
			c-0.9-0.7-1.1-2-0.4-2.9c0.1-0.1,0.2-0.3,0.4-0.4c1.2-0.7,2.8-0.7,4,0c0.9,0.7,1.1,2,0.4,2.9c-0.1,0.1-0.2,0.3-0.4,0.4
			C763.7,236,762.2,236,760.9,235.2 M767.6,244.6l-2,0.1c-0.8,0-1.6,0.1-2.4,0.1h-2.4c-0.8,0-1.5,0-2,0v0.8c0.5,0,1.2,0,2,0h2.4
			l2.4-0.1c0.8,0,1.4-0.1,2-0.1L767.6,244.6z M758.7,245.6h0.7v-4.4h-0.7V245.6z M761.7,221.3l-2.7-3.4l-0.6,0.5
			c0.4,0.5,0.9,1.1,1.4,1.7c0.5,0.6,0.9,1.2,1.3,1.7L761.7,221.3z M761,214.1c-0.9,0.1-1.9,0.1-3,0.1c-1.1,0-2.1,0-3,0l0.1,0.8h1.4
			h1.5l1.5-0.1l1.4-0.1L761,214.1z M755.1,222.1c0.5-0.5,1-1,1.4-1.6c0.4-0.5,0.8-1.1,1.1-1.7c0.3-0.6,0.6-1.2,0.8-1.9
			c0.2-0.7,0.4-1.4,0.5-2.1h-0.8c-0.1,0.7-0.3,1.3-0.5,2c-0.2,0.6-0.4,1.2-0.7,1.8c-0.3,0.6-0.6,1.1-1,1.6c-0.4,0.5-0.9,1-1.4,1.5
			L755.1,222.1z M766.2,217.4h-3.1v0.8h3.1V217.4z M762.8,224.9h0.7v-13.5h-0.7V224.9z M765.9,226.9h0.7v-16.7h-0.7V226.9z
			 M755.7,200.4c1.2-0.8,2.2-1.8,3-3.1c0.8-1.3,1.3-2.7,1.5-4.1l-0.8-0.1c-0.1,0.7-0.3,1.4-0.5,2.1c-0.4,1.2-1.2,2.3-2.1,3.2
			c-0.5,0.5-1,0.9-1.6,1.3L755.7,200.4z M766,195.5h-3.6v0.8h3.6V195.5z M763.3,199.8l-3.2-3.2l-0.5,0.6c0.5,0.5,1,1,1.5,1.5
			l1.6,1.7L763.3,199.8z M762.9,192.7l-1.6,0.1l-1.9,0.1l-1.9,0.1h-1.6l0.1,0.8h1.6l1.9-0.1l1.9-0.1l1.6-0.1L762.9,192.7z
			 M767.7,204.6l-2,0.1c-0.8,0-1.6,0.1-2.4,0.1H761c-0.8,0-1.4,0-2,0v0.8c0.5,0,1.2,0,2,0h2.4l2.4-0.1c0.8,0,1.4-0.1,2-0.1
			L767.7,204.6z M759,205.4h0.7v-4.3H759L759,205.4z M765.9,202.1h0.7v-11.9h-0.7V202.1z M765.7,177.7l0.9,0.7
			c0.3,0.3,0.6,0.5,0.9,0.8l0.9,0.9c0.3,0.3,0.6,0.5,0.8,0.8l0.8-0.8l-0.8-0.8l-1-0.8l-1-0.8c-0.3-0.3-0.6-0.5-0.9-0.7L765.7,177.7z
			 M761.6,157c-0.7-0.1-1.4-0.3-2-0.4c-0.6-0.1-1.3-0.3-2-0.6l-0.2,0.8c0.7,0.2,1.4,0.4,2,0.5l2,0.4L761.6,157z M756.9,164.1
			c0.1,0.3,0.3,0.6,0.6,0.8c0.3,0.2,0.6,0.4,0.9,0.6c0.8,0.3,1.6,0.3,2.3,0c0.3-0.1,0.6-0.3,0.9-0.6c0.7-0.7,1-1.8,0.6-2.8
			c-0.1-0.3-0.3-0.6-0.6-0.8c-0.3-0.2-0.6-0.4-0.9-0.5c-0.8-0.3-1.6-0.3-2.3,0c-0.3,0.1-0.6,0.3-0.9,0.5c-0.2,0.2-0.4,0.5-0.6,0.8
			C756.6,162.8,756.6,163.5,756.9,164.1 M761,164.5c-0.9,0.7-2.2,0.7-3.1,0c-0.3-0.3-0.5-0.8-0.5-1.3c0-0.5,0.2-0.9,0.5-1.3
			c0.9-0.7,2.2-0.7,3.1,0c0.3,0.3,0.5,0.8,0.5,1.3C761.6,163.7,761.4,164.1,761,164.5 M763,158.7l-1.8,0.1l-2.1,0.1H757h-1.8
			l0.1,0.8h1.7l2.1-0.1l2.1-0.1l1.8-0.1L763,158.7z M770,161.3h-3.3l-0.4,0.4l0.4,0.4h3.3V161.3z M766,165.7h0.7v-10.2H766V165.7z
			 M766.7,167.3l-1.9,0.1l-2.3,0.1l-2.3,0.1h-1.9l0.1,0.8h1.9h2.2l2.3-0.1l1.9-0.1V167.3z M766,171.8h0.7v-4H766V171.8z
			 M760.3,150.1c0.2,0.3,0.4,0.6,0.7,0.9c0.3,0.2,0.7,0.4,1.1,0.6c0.9,0.3,1.8,0.3,2.7,0c0.4-0.1,0.8-0.3,1.1-0.6
			c0.3-0.2,0.6-0.5,0.7-0.9c0.4-0.7,0.4-1.5,0-2.2c-0.2-0.3-0.4-0.6-0.7-0.9c-0.3-0.2-0.7-0.4-1.1-0.6c-0.9-0.3-1.8-0.3-2.7,0
			c-0.4,0.1-0.8,0.3-1.1,0.5c-0.3,0.2-0.6,0.5-0.7,0.9C759.9,148.6,759.9,149.4,760.3,150.1 M760.9,148.1c0.1-0.3,0.3-0.5,0.6-0.6
			c0.3-0.2,0.5-0.3,0.8-0.4c0.7-0.2,1.4-0.2,2.1,0c0.3,0.1,0.6,0.2,0.8,0.4c0.2,0.2,0.4,0.4,0.6,0.6c0.3,0.5,0.3,1.1,0,1.7
			c-0.1,0.3-0.3,0.5-0.6,0.6c-0.3,0.2-0.5,0.3-0.8,0.4c-0.7,0.2-1.4,0.2-2.1,0c-0.3-0.1-0.6-0.2-0.8-0.4c-0.2-0.2-0.4-0.4-0.6-0.6
			C760.7,149.3,760.7,148.7,760.9,148.1 M762.9,143.1h3.5v-0.8h-3.5V143.1z M762.9,139.9h3.5v-0.8h-3.5V139.9z M762,143.7h-6v0.8h6
			V143.7z M761.6,139.9l-2.8,0.1c-0.9,0-1.9,0.1-2.8,0.1v0.8c0.9,0,1.9,0,2.8,0l2.8-0.1V139.9z M762,137h-0.7v7.1h0.7V137z
			 M756,144.1h0.7v-6.8H756V144.1z M766,145.1h0.7v-9.5H766V145.1z M770,121.3h-3.3l-0.4,0.4l0.4,0.4h3.3V121.3z M756.2,122.1
			c0.2,0.4,0.4,0.7,0.7,1c0.3,0.3,0.6,0.5,1,0.7c0.8,0.3,1.7,0.3,2.5,0c0.4-0.2,0.7-0.4,1-0.7c0.3-0.3,0.5-0.6,0.7-1
			c0.3-0.8,0.3-1.7,0-2.5c-0.2-0.4-0.4-0.7-0.7-1c-0.3-0.3-0.6-0.5-1-0.7c-0.8-0.3-1.7-0.3-2.5,0c-0.4,0.2-0.7,0.4-1,0.7
			c-0.3,0.3-0.5,0.6-0.7,1C755.8,120.4,755.8,121.3,756.2,122.1 M756.8,119.9c0.3-0.6,0.7-1.1,1.3-1.3c0.6-0.3,1.4-0.3,2,0
			c0.6,0.3,1.1,0.7,1.3,1.3c0.3,0.6,0.3,1.3,0,1.9c-0.1,0.3-0.3,0.6-0.5,0.8c-0.2,0.2-0.5,0.4-0.8,0.5c-0.6,0.3-1.4,0.3-2,0
			c-0.6-0.3-1.1-0.7-1.3-1.3C756.6,121.2,756.6,120.5,756.8,119.9 M767.8,129.9l-2,0.1c-0.8,0-1.6,0.1-2.4,0.1H761c-0.8,0-1.4,0-2,0
			v0.8c0.5,0,1.2,0,2,0h2.4l2.4-0.1c0.8,0,1.4,0,2-0.1L767.8,129.9z M759.1,130.7h0.7v-4.2H759L759.1,130.7z M766,127.4h0.7v-11.9
			H766V127.4z M765.8,103l0.9,0.7c0.3,0.3,0.6,0.5,0.9,0.8l0.9,0.9c0.3,0.3,0.6,0.5,0.8,0.8l0.8-0.8l-0.8-0.8l-1-0.8l-1-0.8
			c-0.3-0.3-0.6-0.5-0.9-0.7L765.8,103z M760.5,82.4c0.3,0.1,0.5,0.2,0.7,0.4c0.2,0.2,0.4,0.4,0.5,0.6c0.3,0.5,0.3,1.1,0,1.6
			c-0.1,0.2-0.3,0.4-0.5,0.6c-0.2,0.2-0.5,0.3-0.7,0.4c-0.5,0.2-1.1,0.2-1.7,0c-0.3-0.1-0.5-0.2-0.7-0.4c-0.2-0.2-0.4-0.4-0.5-0.6
			c-0.3-0.5-0.3-1.1,0-1.6c0.1-0.2,0.3-0.4,0.5-0.6c0.2-0.2,0.5-0.3,0.7-0.4C759.4,82.2,760,82.2,760.5,82.4 M760.8,86.6
			c0.3-0.1,0.7-0.3,0.9-0.5c0.3-0.2,0.5-0.5,0.6-0.8c0.3-0.7,0.3-1.5,0-2.2c-0.2-0.3-0.4-0.6-0.6-0.8c-0.3-0.2-0.6-0.4-0.9-0.5
			c-0.7-0.3-1.5-0.3-2.2,0c-0.3,0.1-0.7,0.3-0.9,0.5c-0.3,0.2-0.5,0.5-0.6,0.8c-0.3,0.7-0.3,1.5,0,2.2c0.2,0.3,0.4,0.6,0.6,0.8
			c0.3,0.2,0.6,0.4,0.9,0.5C759.3,86.9,760.1,86.9,760.8,86.6 M758.1,92.6c0.1-0.4,0.3-0.7,0.3-1s0.2-0.6,0.2-1
			c0.1-0.3,0.1-0.7,0.2-1s0.1-0.7,0.1-1.1l-0.8,0.3c0,0.3-0.1,0.7-0.1,1s-0.1,0.6-0.2,0.8c-0.1,0.3-0.1,0.6-0.2,0.8
			c-0.1,0.3-0.2,0.6-0.3,0.9L758.1,92.6z M767.8,95.4l-1.9,0.1c-0.7,0-1.5,0.1-2.3,0.1h-2.3c-0.7,0-1.4,0-2,0v0.8c0.5,0,1.2,0,1.9,0
			h2.3l2.3-0.1l1.9-0.1L767.8,95.4z M759.4,96.4h0.7v-4h-0.7V96.4z M766.5,90.5h-4.2v0.8h4.2V90.5z M763.5,87.7
			c-0.7,0.1-1.4,0.2-2.2,0.3s-1.6,0.2-2.4,0.2c-0.8,0.1-1.6,0.1-2.5,0.2c-0.8,0-1.6,0.1-2.2,0.1l0.1,0.8c0.7,0,1.4,0,2.2-0.1
			c0.8,0,1.6-0.1,2.5-0.2c0.8-0.1,1.7-0.1,2.5-0.2c0.8-0.1,1.5-0.2,2.2-0.3L763.5,87.7z M765.9,93.6h0.7V80.8h-0.7V93.6z
			 M761.7,71.8l-2.7-3.4l-0.6,0.5c0.4,0.5,0.9,1.1,1.4,1.7s0.9,1.2,1.2,1.7L761.7,71.8z M761,64.7c-0.9,0.1-1.9,0.1-3,0.1
			c-1.1,0-2.1,0-3,0l0.1,0.8h1.4h1.5h1.5l1.4-0.1L761,64.7z M755.1,72.6c0.5-0.5,1-1,1.5-1.6c0.4-0.5,0.8-1.1,1.1-1.7
			c0.3-0.6,0.6-1.2,0.8-1.9c0.2-0.7,0.4-1.4,0.5-2.2h-0.8c-0.1,0.7-0.3,1.3-0.5,2c-0.2,0.6-0.4,1.2-0.7,1.8c-0.3,0.6-0.6,1.1-1,1.6
			c-0.4,0.5-0.9,1-1.4,1.5L755.1,72.6z M766.2,67.9h-3.1v0.8h3.1V67.9z M762.8,75.5h0.7V62h-0.7V75.5z M765.9,77.5h0.7V60.8h-0.7
			V77.5z M755.5,50.3c0.7-0.5,1.3-1.1,1.9-1.7c0.5-0.6,1-1.2,1.4-1.8c0.4-0.7,0.7-1.4,0.9-2.1c0.2-0.8,0.4-1.7,0.5-2.5l-0.7-0.2
			c-0.1,0.8-0.3,1.6-0.5,2.4c-0.4,1.4-1.1,2.7-2.1,3.7c-0.6,0.6-1.2,1.1-1.8,1.6L755.5,50.3z M766.3,44.9h-3.7v0.8h3.7V44.9z
			 M763.2,49.1l-3-2.7l-0.5,0.6l0.8,0.7l0.7,0.6l0.7,0.7l0.8,0.8L763.2,49.1z M765.9,50.4h0.7v-9.6h-0.7V50.4z M766.7,51.9l-1.9,0.1
			l-2.3,0.1l-2.3,0h-1.9l0.1,0.8h1.9l2.2,0l2.3-0.1l1.9-0.1V51.9z M765.9,57.1h0.7v-4.6h-0.7V57.1z"/>
		<path class="st0" d="M779.5,228.2c0.1,0.4,0.4,0.8,0.6,1.1c0.3,0.3,0.6,0.6,1,0.7c0.8,0.3,1.7,0.3,2.4,0c0.4-0.2,0.7-0.4,1-0.7
			c0.3-0.3,0.5-0.7,0.6-1.1c0.3-0.9,0.3-1.9,0-2.9c-0.1-0.4-0.4-0.8-0.6-1.1c-0.3-0.3-0.6-0.6-1-0.7c-0.8-0.3-1.7-0.3-2.4,0
			c-0.4,0.2-0.7,0.4-1,0.7c-0.3,0.3-0.5,0.7-0.6,1.1C779.2,226.2,779.2,227.2,779.5,228.2 M780.7,224.7c0.8-0.9,2.2-1,3.1-0.2
			c0.1,0.1,0.1,0.1,0.2,0.2c0.9,1.2,0.9,2.8,0,4.1c-0.8,0.9-2.2,1-3.1,0.2c-0.1-0.1-0.1-0.1-0.2-0.2
			C779.8,227.6,779.8,225.9,780.7,224.7 M788.1,226.2h-2.3v0.8h2.3V226.2z M787.6,233.5h0.7V220h-0.7V233.5z M790.5,235.5h0.7v-16.7
			h-0.7V235.5z M779.8,211c1.4-1,2.6-2.4,3.3-3.9c0.8-1.7,1.3-3.4,1.5-5.3l-0.8-0.1c-0.1,1.7-0.6,3.4-1.3,5
			c-0.7,1.5-1.8,2.8-3.2,3.7L779.8,211z M794.5,206.4h-3.3l-0.4,0.4l0.4,0.4h3.3V206.4z M787.9,210.4l-3.3-4l-0.6,0.5l1.6,1.9
			c0.6,0.7,1.1,1.4,1.6,2.1L787.9,210.4z M790.4,215.5h0.7v-16.7h-0.7V215.5z M780.3,187.9c1.2-0.8,2.3-2,3-3.3
			c0.7-1.4,1.2-2.8,1.4-4.4L784,180c-0.1,0.7-0.3,1.5-0.5,2.2c-0.2,0.7-0.5,1.3-0.8,1.9c-0.3,0.6-0.7,1.1-1.2,1.6
			c-0.5,0.5-1,1-1.7,1.4L780.3,187.9z M788.2,186.9l-3.2-3l-0.5,0.6l1.5,1.4c0.5,0.5,1,1,1.6,1.6L788.2,186.9z M783.6,194.2l0.7-0.2
			v-4.3h-0.7V194.2z M791.2,189.6l-1.7,0.1h-2.1h-2.1h-1.7l0.1,0.8h1.7h2h2c0.7,0,1.2,0,1.7-0.1L791.2,189.6z M790.4,194.4h0.7V190
			h-0.7V194.4z M791.2,193.9h-7.6v0.8h7.6V193.9z M790.4,188.1h0.7v-9.2h-0.7V188.1z M780.6,160.3l0.7-0.2v-4.9h-0.7V160.3z
			 M786.5,155.1c-0.9,0.1-1.9,0.1-3,0.1h-3l0.1,0.8h2.9c1,0,2,0,3-0.1L786.5,155.1z M785.8,160.4h0.7v-4.8h-0.7V160.4z M786.5,160
			h-5.9v0.8h5.9V160z M790.4,161.4h0.7v-8.5h-0.7V161.4z M792.1,168.4l-4.5-1.8l-0.2,0.7l2.1,0.9l2.2,1L792.1,168.4z M782.5,169.2
			c1.2-0.3,2.3-0.8,3.3-1.4c0.4-0.3,0.8-0.6,1.1-1c0.4-0.5,0.8-1.1,1-1.7l-0.8-0.2c-0.2,0.5-0.4,0.9-0.8,1.4c-0.3,0.4-0.7,0.7-1.1,1
			c-0.4,0.3-0.9,0.5-1.3,0.7c-0.5,0.2-1.1,0.4-1.7,0.5L782.5,169.2z M789.5,162.6c-0.8,0-1.5-0.1-2.2-0.2c-0.7-0.1-1.5-0.2-2.2-0.3
			L785,163c0.7,0.1,1.4,0.2,2.2,0.3c0.7,0.1,1.5,0.1,2.2,0.2L789.5,162.6z M791.2,164.5l-1.9,0.1l-2.2,0.1l-2.2,0.1H783l0.1,0.8h1.8
			l2.2-0.1l2.2-0.1l1.9-0.1L791.2,164.5z M778.7,141h3.8l3.9-0.1l3.9-0.1l3.7-0.1v-0.8l-3.8,0.1c-1.3,0-2.6,0.1-3.9,0.1l-4,0.1h-3.8
			L778.7,141z M791.7,134.2l-1.9,0.1c-0.7,0-1.5,0.1-2.2,0.1h-2.2c-0.7,0-1.4,0-1.9,0v0.8c0.5,0,1.2,0,1.9,0h2.2l2.2-0.1l1.9-0.1
			V134.2z M791.4,129c-0.3,0-0.7,0-1.1,0.1H789h-1.5h-1.5h-2.5v0.8h1.8h2.3h2.3l1.8-0.1L791.4,129z M783.4,135.2l0.7-0.2v-5.5h-0.7
			V135.2z M787.1,140.4h0.7v-4.4h-0.7V140.4z M788.6,118.5l-3.8-3.6l-0.5,0.6l0.9,0.8l1,0.9l1,1l0.9,0.9L788.6,118.5z M780.1,119.5
			c1.2-1,2.3-2.2,3.2-3.6c0.8-1.4,1.4-2.9,1.8-4.5l-0.8-0.1c-0.2,0.8-0.4,1.5-0.7,2.3c-0.3,0.7-0.6,1.4-1,2
			c-0.4,0.6-0.8,1.2-1.3,1.8c-0.5,0.6-1.1,1.1-1.7,1.7L780.1,119.5z M787.8,110.7l-1.7,0.1l-2.1,0.1H782h-1.7l0.1,0.8h1.7l2-0.1
			l2-0.1l1.7-0.1L787.8,110.7z M790.5,123.6h0.7v-16.7h-0.7V123.6z M791.3,83.4l-2,0.1l-2.4,0.1h-2.4h-1.9l0.1,0.8h1.8h2.2h2.2
			c0.7,0,1.3,0,1.8-0.1L791.3,83.4z M790.2,90.5c0.1-0.5,0.3-1.1,0.4-1.7c0.1-0.6,0.2-1.2,0.3-1.8c0.1-0.6,0.2-1.2,0.3-1.9
			c0.1-0.6,0.1-1.2,0.2-1.8l-0.8,0.3c0,0.5,0,1-0.1,1.6c-0.1,0.6-0.2,1.2-0.2,1.8c-0.1,0.6-0.2,1.2-0.3,1.8s-0.2,1.1-0.4,1.6
			L790.2,90.5z M778.7,94.7h3.8l3.9-0.1l3.9-0.1l3.7-0.1v-0.8l-3.8,0.2c-1.3,0-2.6,0.1-3.9,0.1l-4,0.1h-3.8L778.7,94.7z M785.3,94.3
			h0.7v-6.1h-0.7L785.3,94.3z M788,72.3l-1.7,0.2l-1.8,0.2l-1.8,0.2c-0.6,0-1.2,0.1-1.7,0.1v-4.1h-0.7v4.7c0.5,0,1.2,0,1.8-0.1
			l2.1-0.2c0.7-0.1,1.4-0.1,2.1-0.2l1.8-0.2L788,72.3z M790.5,77.6h0.7V60.8h-0.7V77.6z M786.8,68.4c-1.1,0.1-2.2,0.2-3.3,0.2
			l-3.3,0.1v0.8h1.6h1.7l1.7-0.1c0.6,0,1.1,0,1.6-0.1V68.4z M786.1,68.8h0.7v-4H786L786.1,68.8z M786.8,64.4
			c-1.1,0.1-2.2,0.1-3.4,0.1l-3.3,0.1l0.1,0.8l3.3-0.1c1.2,0,2.3,0,3.4-0.1V64.4z M778.7,54.7h3.8l3.9-0.1l3.9-0.1l3.7-0.1v-0.8
			l-3.8,0.2c-1.3,0-2.6,0.1-3.9,0.1l-4,0.1h-3.8L778.7,54.7z M791.3,43.4l-1.9,0.1l-2.3,0.1h-2.3h-2l0.1,0.8h1.9h2.1h2l1.8-0.1
			L791.3,43.4z M790,52.1c0.1-0.6,0.3-1.3,0.4-2c0.1-0.7,0.3-1.5,0.4-2.2c0.1-0.8,0.2-1.5,0.3-2.3c0.1-0.8,0.1-1.5,0.2-2.2l-0.8,0.3
			c0,0.6,0,1.3-0.1,2c-0.1,0.7-0.2,1.4-0.3,2.2c-0.1,0.7-0.2,1.5-0.4,2.2c-0.1,0.7-0.3,1.4-0.4,2L790,52.1z"/>
		<path class="st0" d="M838.9,237.2c0.5,1,1.7,1.5,2.7,1.1s1.5-1.7,1.1-2.7c-0.1-0.2-0.2-0.4-0.4-0.6c-0.8-0.8-2-0.9-2.8-0.1
			c-0.2,0.2-0.4,0.5-0.5,0.8C838.7,236.1,838.7,236.6,838.9,237.2 M841.8,237.3c-0.5,0.5-1.4,0.5-1.9,0c-0.5-0.5-0.5-1.4,0-1.9
			c0.5-0.5,1.4-0.5,1.9,0C842.3,235.9,842.3,236.8,841.8,237.3 M836.5,219.3c-0.5,0.1-1,0.3-1.5,0.4c-0.6,0.1-1.2,0.2-1.8,0.3
			c-0.6,0.1-1.2,0.1-1.8,0.2c-0.6,0-1.1,0.1-1.6,0.1v0.7c0.5,0,1,0,1.6-0.1c0.6,0,1.2-0.1,1.8-0.2c0.6-0.1,1.2-0.2,1.8-0.3
			c0.6-0.1,1.1-0.2,1.6-0.3L836.5,219.3z M829.9,220.6h0.7v-5.7h-0.7V220.6z M832.6,228.2l0.7-0.2v-4.6h-0.7V228.2z M840.2,223.2
			l-1.7,0.1h-2.1h-2.1h-1.7l0.1,0.8h1.7h2h2c0.7,0,1.2,0,1.7-0.1L840.2,223.2z M839.4,228.3h0.7v-4.6h-0.7V228.3z M840.2,227.9h-7.6
			v0.8h7.6V227.9z M839.4,221.7h0.7v-8.9h-0.7V221.7z M833.7,199.7l-1.2,0.1l-1.1,0.1h-1.1h-1.2v0.8h1.2h1.1l1.1-0.1l1.2-0.1V199.7z
			 M839.9,200.1h-3.2v0.8h3.2V200.1z M836.2,207.5h0.8V194h-0.7L836.2,207.5z M839.4,209.5h0.7v-16.7h-0.7V209.5z M834.1,203.6h-5.3
			v0.8h5.3V203.6z M834.1,196.5h-0.7v7.6h0.7V196.5z M828.8,204.1h0.7v-7.3h-0.7V204.1z M828.8,182.7c1.3-1,2.5-2.3,3.3-3.7
			c0.8-1.5,1.3-3.2,1.5-4.9l-0.7-0.1c-0.1,0.8-0.3,1.7-0.5,2.5c-0.2,0.7-0.5,1.5-0.9,2.1c-0.4,0.7-0.8,1.3-1.3,1.9
			c-0.5,0.6-1.1,1.2-1.8,1.6L828.8,182.7z M837,181.7l-3.2-3.4l-0.5,0.5l1.6,1.6c0.5,0.5,1.1,1.1,1.6,1.7L837,181.7z M841.2,187.1
			l-2,0.1c-0.8,0-1.6,0.1-2.4,0.1h-2.4c-0.8,0-1.4,0-2,0v0.8c0.5,0,1.2,0,2,0h2.4l2.4-0.1c0.8,0,1.4,0,2-0.1L841.2,187.1z
			 M839.8,177h-3.7v0.8h3.7V177z M832.5,188h0.7v-4.3h-0.7V188z M839.4,184.8h0.7v-11.9h-0.7V184.8z M838.3,158l-2.6,0.4
			c-0.8,0.1-1.7,0.2-2.5,0.3c-0.9,0.1-1.7,0.2-2.6,0.2l-2.8,0.1l0.2,0.8c1,0,1.9-0.1,2.8-0.1s1.7-0.1,2.6-0.2
			c0.8-0.1,1.7-0.2,2.5-0.3c0.8-0.1,1.7-0.2,2.6-0.4L838.3,158z M836.5,150c-1.1,0.1-2.3,0.1-3.5,0.2s-2.4,0.1-3.5,0.1l0.1,0.8
			c1,0,2,0,3.1,0c1.1,0,2.1,0,3.1-0.1L836.5,150z M835.5,156.3c0.3-1,0.5-2,0.7-3.1c0.2-1,0.3-2.1,0.4-3.3l-0.8,0.3
			c-0.1,0.9-0.2,1.9-0.4,2.9c-0.2,1-0.4,2-0.7,2.9L835.5,156.3z M831.5,159.1h0.7v-4.5h-0.7V159.1z M843.5,156.3h-3.3l-0.4,0.4
			l0.4,0.4h3.3V156.3z M839.4,163.5h0.7v-16.6h-0.7V163.5z M836.5,133.2c-0.5,0.1-1,0.3-1.5,0.4c-0.6,0.1-1.2,0.2-1.8,0.3
			s-1.2,0.1-1.8,0.2s-1.1,0.1-1.6,0.1v0.7c0.5,0,1,0,1.6-0.1s1.2-0.1,1.8-0.2s1.2-0.2,1.8-0.3c0.6-0.1,1.1-0.2,1.6-0.3L836.5,133.2z
			 M829.8,134.5h0.7v-5.7h-0.7V134.5z M832.5,142.1l0.7-0.2v-4.6h-0.7V142.1z M840.1,137.2l-1.7,0.1h-2.1h-2.1h-1.7l0.1,0.8h1.7h2h2
			c0.7,0,1.2,0,1.7-0.1L840.1,137.2z M839.4,142.2h0.7v-4.6h-0.7V142.2z M840.1,141.8h-7.6v0.8h7.6V141.8z M839.4,135.7h0.7v-8.9
			h-0.7V135.7z M833.7,121.2c0.2,0.3,0.4,0.7,0.7,0.9c0.3,0.3,0.7,0.5,1.1,0.6c0.9,0.3,1.8,0.3,2.7,0c0.4-0.1,0.7-0.3,1.1-0.6
			c0.3-0.3,0.5-0.6,0.7-0.9c0.3-0.7,0.3-1.6,0-2.3c-0.2-0.4-0.4-0.7-0.7-0.9c-0.3-0.3-0.7-0.5-1.1-0.6c-0.9-0.3-1.8-0.3-2.7,0
			c-0.4,0.1-0.7,0.3-1.1,0.6c-0.3,0.3-0.5,0.6-0.7,0.9C833.4,119.6,833.4,120.5,833.7,121.2 M834.4,119.2c0.1-0.3,0.3-0.5,0.5-0.7
			c0.2-0.2,0.5-0.3,0.8-0.4c0.7-0.2,1.4-0.2,2.1,0c0.3,0.1,0.6,0.2,0.8,0.4c0.2,0.2,0.4,0.4,0.5,0.7c0.3,0.6,0.3,1.2,0,1.8
			c-0.1,0.3-0.3,0.5-0.5,0.7c-0.2,0.2-0.5,0.3-0.8,0.4c-0.7,0.2-1.4,0.2-2.1,0c-0.3-0.1-0.6-0.2-0.8-0.4c-0.2-0.2-0.4-0.4-0.5-0.7
			C834.1,120.4,834.1,119.8,834.4,119.2 M835.3,115.6l-2.5-2.8l-0.5,0.5c0.4,0.5,0.8,0.9,1.2,1.4l1.2,1.4L835.3,115.6z M828.5,116.6
			c0.6-0.5,1.2-1,1.8-1.6c0.5-0.5,0.9-1.1,1.2-1.7c0.3-0.6,0.5-1.3,0.7-2c0.2-0.8,0.3-1.6,0.3-2.4l-0.8-0.1c0,0.8-0.1,1.5-0.3,2.3
			c-0.1,0.6-0.3,1.3-0.6,1.9c-0.3,0.6-0.7,1.1-1.1,1.6c-0.5,0.5-1.1,1-1.7,1.5L828.5,116.6z M839.9,111.6h-3.3v0.8h3.3V111.6z
			 M836.2,116h0.7v-8h-0.7V116z M839.5,116.5h0.7v-9.6h-0.7V116.5z M828.9,96.7c1.3-1,2.4-2.2,3.2-3.7c0.8-1.5,1.3-3.2,1.5-4.9
			l-0.7-0.1c-0.1,0.8-0.3,1.7-0.5,2.5c-0.2,0.7-0.5,1.5-0.9,2.1c-0.4,0.7-0.8,1.3-1.3,1.8c-0.5,0.6-1.1,1.2-1.8,1.6L828.9,96.7z
			 M837.1,95.7l-3.2-3.4l-0.5,0.5l1.6,1.6c0.5,0.5,1.1,1.1,1.6,1.7L837.1,95.7z M841.3,101.1l-2,0.1c-0.8,0-1.6,0.1-2.4,0.1h-2.4
			c-0.8,0-1.4,0-2,0v0.8c0.5,0,1.2,0,2,0h2.4l2.4-0.1c0.8,0,1.4,0,2-0.1L841.3,101.1z M839.8,91h-3.7v0.8h3.7V91z M832.5,102h0.7
			v-4.3h-0.7V102z M839.4,98.8h0.7V86.8h-0.7V98.8z M836.5,68.8h3.3v-0.9h-3.3V68.8z M836.8,72.3l-1.7,0.2l-1.8,0.2l-1.8,0.2
			c-0.6,0-1.1,0.1-1.7,0.1v-4h-0.7v4.7c0.5,0,1.2,0,1.8-0.1l2-0.2c0.7-0.1,1.3-0.1,2-0.2l1.8-0.2L836.8,72.3z M839.4,77.6h0.7V60.8
			h-0.7V77.6z M835.5,68.3c-1.1,0.1-2.1,0.2-3.2,0.2l-3.2,0.1v0.8l3.2-0.1c1.1,0,2.2-0.1,3.2-0.2V68.3z M834.8,68.7h0.7v-4.2h-0.7
			V68.7z M835.5,64.2c-1.1,0.1-2.2,0.1-3.3,0.1l-3.2,0.1l0.1,0.8l3.2-0.1c1.1,0,2.2,0,3.3-0.1L835.5,64.2z M829,50
			c0.2,0.4,0.4,0.8,0.7,1.2c0.3,0.3,0.7,0.6,1.1,0.8c0.9,0.4,1.8,0.4,2.7,0c0.4-0.2,0.8-0.5,1.1-0.8c0.3-0.3,0.5-0.7,0.7-1.2
			c0.4-0.9,0.4-2,0-2.9c-0.2-0.4-0.4-0.8-0.7-1.2c-0.3-0.3-0.7-0.6-1.1-0.8c-0.9-0.4-1.8-0.4-2.7,0c-0.4,0.2-0.8,0.5-1.1,0.8
			c-0.3,0.3-0.6,0.7-0.7,1.2C828.6,48,828.6,49.1,829,50 M829.7,47.3c0.1-0.4,0.3-0.7,0.6-1c0.2-0.3,0.5-0.5,0.8-0.6
			c0.3-0.2,0.7-0.2,1.1-0.2c0.4,0,0.7,0.1,1,0.2c0.3,0.2,0.6,0.4,0.8,0.6c0.2,0.3,0.4,0.6,0.6,1c0.3,0.8,0.3,1.6,0,2.4
			c-0.1,0.4-0.3,0.7-0.6,1c-0.2,0.3-0.5,0.5-0.8,0.6c-0.3,0.2-0.7,0.2-1,0.2c-0.4,0-0.7-0.1-1.1-0.2c-0.3-0.2-0.6-0.4-0.8-0.6
			c-0.3-0.3-0.4-0.6-0.6-1C829.4,49,829.4,48.1,829.7,47.3 M839.9,45.9h-3.5v0.8h3.5V45.9z M839.9,50.5h-3.5v0.8h3.5V50.5z
			 M839.4,57.5h0.7V40.8h-0.7V57.5z"/>
		<path class="st0" d="M854.7,263.2c0.2,0.4,0.4,0.7,0.7,1c0.3,0.3,0.6,0.5,1,0.7c0.8,0.3,1.8,0.3,2.6,0c0.4-0.2,0.7-0.4,1-0.7
			c0.3-0.3,0.5-0.6,0.7-1c0.3-0.8,0.3-1.7,0-2.5c-0.2-0.4-0.4-0.7-0.7-1c-0.3-0.3-0.6-0.5-1-0.7c-0.8-0.3-1.8-0.3-2.6,0
			c-0.4,0.2-0.7,0.4-1,0.7c-0.3,0.3-0.5,0.6-0.7,1C854.3,261.6,854.3,262.5,854.7,263.2 M855.4,261.1c0.2-0.6,0.7-1.1,1.3-1.3
			c0.6-0.2,1.4-0.2,2,0c1.2,0.5,1.8,1.9,1.3,3.2c-0.2,0.6-0.7,1.1-1.3,1.3c-0.6,0.2-1.4,0.2-2,0
			C855.4,263.8,854.8,262.3,855.4,261.1C855.4,261.1,855.4,261.1,855.4,261.1 M857.5,268.5h0.7v-2.8h-0.7V268.5z M863.9,272.9h0.7
			v-16.7h-0.7V272.9z M862.7,267.4c-1,0.2-1.9,0.3-2.8,0.4s-1.7,0.2-2.5,0.3s-1.7,0.1-2.5,0.2s-1.8,0.1-2.8,0.1l0.2,0.8
			c1,0,1.9-0.1,2.8-0.1s1.7-0.1,2.5-0.2c0.8-0.1,1.6-0.2,2.5-0.3l2.7-0.4L862.7,267.4z M864.4,236.6h-3.4v0.8h3.4V236.6z
			 M864.4,233.1h-3.4v0.8h3.4V233.1z M858.6,244.6c0.2,0.4,0.4,0.7,0.7,0.9c0.3,0.3,0.6,0.5,1,0.6c0.8,0.3,1.7,0.3,2.5,0
			c0.4-0.1,0.7-0.4,1-0.6c0.3-0.3,0.5-0.6,0.7-0.9c0.3-0.8,0.3-1.6,0-2.4c-0.2-0.4-0.4-0.7-0.7-1c-0.3-0.3-0.6-0.5-1-0.6
			c-0.8-0.3-1.7-0.3-2.5,0c-0.4,0.1-0.7,0.4-1,0.6c-0.3,0.3-0.5,0.6-0.7,1C858.2,243,858.2,243.9,858.6,244.6 M863.9,244.3
			c-0.1,0.3-0.3,0.5-0.5,0.7c-0.2,0.2-0.5,0.4-0.8,0.5c-0.6,0.2-1.3,0.2-2,0c-0.3-0.1-0.6-0.3-0.8-0.5c-0.2-0.2-0.4-0.5-0.5-0.7
			c-0.3-0.6-0.3-1.2,0-1.8c0.1-0.3,0.3-0.5,0.5-0.7c0.2-0.2,0.5-0.4,0.8-0.5c0.6-0.2,1.3-0.2,2,0c0.3,0.1,0.6,0.3,0.8,0.5
			c0.2,0.2,0.4,0.5,0.5,0.7C864.1,243.1,864.1,243.7,863.9,244.3 M854,236.6c0.2,0.4,0.4,0.7,0.7,1c0.3,0.3,0.6,0.5,1,0.7
			c0.8,0.3,1.7,0.3,2.5,0c0.4-0.2,0.7-0.4,1-0.7c0.3-0.3,0.5-0.6,0.7-1c0.3-0.8,0.3-1.7,0-2.4c-0.2-0.4-0.4-0.7-0.7-1
			c-0.3-0.3-0.6-0.5-1-0.7c-0.8-0.3-1.7-0.3-2.5,0c-0.4,0.2-0.7,0.4-1,0.7c-0.3,0.3-0.5,0.6-0.7,1
			C853.7,234.9,853.7,235.8,854,236.6 M854.7,234.4c0.1-0.3,0.3-0.6,0.5-0.8c0.2-0.2,0.5-0.4,0.8-0.5c0.6-0.3,1.3-0.3,1.9,0
			c0.6,0.3,1,0.7,1.3,1.3c0.3,0.6,0.3,1.3,0,1.9c-0.2,0.6-0.7,1.1-1.3,1.3c-0.6,0.3-1.3,0.3-1.9,0c-0.3-0.1-0.5-0.3-0.8-0.5
			c-0.2-0.2-0.4-0.5-0.5-0.8C854.4,235.7,854.4,235,854.7,234.4 M863.9,239.4h0.7v-9.1h-0.7V239.4z M851.6,219.1h3.9l4.1-0.1
			c1.4,0,2.7,0,4.1-0.1l3.8-0.1v0.8l-3.8,0.1l-4.1,0.1l-4.1,0.1h-3.9L851.6,219.1z M865.7,215.6l-4-2.2l-0.4,0.7l1.9,1.1
			c0.6,0.4,1.3,0.8,2,1.2L865.7,215.6z M856.1,216.4c1.4-0.5,2.7-1.3,3.8-2.4c1-1.2,1.7-2.6,2-4.1l-0.7-0.2
			c-0.2,0.7-0.4,1.5-0.8,2.2c-0.3,0.6-0.6,1.1-1.1,1.6c-0.4,0.5-1,0.9-1.5,1.2c-0.6,0.4-1.3,0.7-2,0.9L856.1,216.4z M860.7,219.2
			h0.7v7.1h-0.7V219.2z M854,200.1c1.2-0.8,2.2-1.8,2.9-3c0.7-1.2,1.2-2.6,1.4-4l-0.8-0.1c-0.1,0.7-0.3,1.3-0.5,2
			c-0.4,1.2-1,2.3-1.9,3.1c-0.5,0.5-1,0.9-1.6,1.3L854,200.1z M861.3,198.6l-3.2-2.6l-0.5,0.6l1.5,1.2c0.5,0.4,1,0.9,1.6,1.4
			L861.3,198.6z M858.6,204.6c0.2,0.4,0.4,0.7,0.7,1c0.3,0.3,0.6,0.5,1,0.6c0.8,0.3,1.7,0.3,2.5,0c0.4-0.2,0.7-0.4,1-0.6
			c0.3-0.3,0.5-0.6,0.7-1c0.3-0.8,0.3-1.6,0-2.4c-0.2-0.4-0.4-0.7-0.7-1c-0.3-0.3-0.6-0.5-1-0.6c-0.8-0.3-1.7-0.3-2.5,0
			c-0.4,0.2-0.7,0.4-1,0.6c-0.3,0.3-0.5,0.6-0.7,1C858.2,202.9,858.2,203.8,858.6,204.6 M863.9,204.3c-0.1,0.3-0.3,0.5-0.5,0.7
			c-1,0.9-2.5,0.9-3.5,0c-0.2-0.2-0.4-0.5-0.5-0.7c-0.3-0.6-0.3-1.2,0-1.8c0.1-0.3,0.3-0.5,0.5-0.7c1-0.9,2.5-0.9,3.5,0
			c0.2,0.2,0.4,0.5,0.5,0.7C864.1,203,864.1,203.7,863.9,204.3 M861.2,192.4l-1.6,0.1l-1.9,0.1l-1.9,0.1h-1.6l0.1,0.8h1.6l1.9-0.1
			l1.9-0.1l1.6-0.1L861.2,192.4z M863.9,200h0.7v-9.8h-0.7V200z M868,195.6h-3.3l-0.4,0.4l0.4,0.4h3.3V195.6z M863.8,177.7l0.9,0.7
			c0.3,0.3,0.6,0.5,0.9,0.8l0.9,0.9c0.3,0.3,0.6,0.5,0.8,0.8l0.8-0.8l-0.8-0.8l-1-0.8l-1-0.8c-0.3-0.3-0.6-0.5-0.9-0.7L863.8,177.7z
			 M859.2,166.9l-2.4-3.5l-0.6,0.5c0.4,0.6,0.8,1.1,1.2,1.8c0.4,0.6,0.8,1.2,1.1,1.8L859.2,166.9z M858.8,159.3
			c-0.9,0.1-1.9,0.1-3,0.1s-2.1,0-3,0l0.1,0.8h1.4h1.5l1.5-0.1l1.4-0.1L858.8,159.3z M852.8,167.4c0.5-0.5,1-1.1,1.4-1.6
			c0.4-0.6,0.8-1.1,1.1-1.8c0.3-0.6,0.6-1.3,0.8-1.9c0.2-0.7,0.4-1.4,0.5-2.2h-0.8c-0.2,1.3-0.6,2.6-1.2,3.9
			c-0.6,1.2-1.4,2.3-2.4,3.2L852.8,167.4z M861.4,162.3h-3.2v0.8h3.2V162.3z M860.9,169.8h0.7v-13H861L860.9,169.8z M863.9,172.2
			h0.7v-16.6h-0.7V172.2z M851.6,144.9h3.9l4.1-0.1l4.1-0.1c1.3,0,2.6-0.1,3.8-0.1v-0.8l-3.8,0.1c-1.3,0-2.7,0.1-4.1,0.1l-4.1,0.1
			h-3.9L851.6,144.9z M859.1,144.6L859,142h-0.8l0.2,2.7L859.1,144.6z M862.9,144.5h0.7v-2.7h-0.7V144.5z M862.3,141
			c0.4-0.1,0.8-0.3,1.1-0.6c0.3-0.2,0.5-0.5,0.7-0.9c0.3-0.7,0.3-1.5,0-2.2c-0.2-0.3-0.4-0.7-0.7-0.9c-0.3-0.3-0.7-0.5-1.1-0.6
			c-0.9-0.3-1.9-0.3-2.8,0c-0.4,0.1-0.8,0.3-1.1,0.6c-0.3,0.2-0.5,0.6-0.7,0.9c-0.3,0.7-0.3,1.5,0,2.2c0.2,0.3,0.4,0.6,0.7,0.9
			c0.3,0.3,0.7,0.5,1.1,0.6C860.5,141.3,861.4,141.3,862.3,141 M862,136.4c0.3,0.1,0.6,0.3,0.8,0.5c0.2,0.2,0.4,0.4,0.5,0.7
			c0.3,0.5,0.3,1.1,0,1.6c-0.1,0.3-0.3,0.5-0.5,0.7c-0.3,0.2-0.5,0.4-0.8,0.5c-0.7,0.2-1.5,0.2-2.2,0c-0.3-0.1-0.6-0.3-0.8-0.5
			c-0.2-0.2-0.4-0.4-0.5-0.7c-0.3-0.5-0.3-1.1,0-1.6c0.1-0.3,0.3-0.5,0.5-0.7c0.3-0.2,0.5-0.4,0.8-0.5
			C860.6,136.2,861.3,136.2,862,136.4 M862.3,151.4c0.4-0.1,0.7-0.3,1-0.6c0.3-0.2,0.5-0.5,0.7-0.9c0.3-0.7,0.3-1.4,0-2.1
			c-0.2-0.3-0.4-0.6-0.7-0.9c-0.3-0.3-0.6-0.4-1-0.6c-0.4-0.1-0.9-0.2-1.3-0.2c-0.5,0-0.9,0.1-1.3,0.2c-0.4,0.1-0.7,0.3-1,0.6
			c-0.3,0.2-0.5,0.5-0.7,0.9c-0.3,0.7-0.3,1.4,0,2.1c0.2,0.3,0.4,0.6,0.7,0.9c0.3,0.3,0.6,0.4,1,0.6c0.4,0.1,0.9,0.2,1.3,0.2
			C861.4,151.7,861.9,151.6,862.3,151.4 M862.8,147.5c0.8,0.6,0.9,1.7,0.3,2.5c-0.1,0.1-0.2,0.2-0.3,0.3c-1.1,0.8-2.6,0.8-3.8,0
			c-0.8-0.6-0.9-1.7-0.3-2.5c0.1-0.1,0.2-0.2,0.3-0.3C860.2,146.8,861.7,146.8,862.8,147.5 M858.2,126.6c0.4-0.2,0.8-0.5,1.1-0.8
			c0.3-0.3,0.6-0.7,0.7-1.2c0.3-0.9,0.3-1.9,0-2.9c-0.2-0.4-0.4-0.8-0.7-1.2c-1.3-1.4-3.5-1.4-4.8-0.2c-0.1,0-0.1,0.1-0.2,0.2
			c-0.3,0.3-0.6,0.7-0.7,1.2c-0.3,0.9-0.3,1.9,0,2.9c0.2,0.4,0.4,0.8,0.7,1.2c0.3,0.3,0.7,0.6,1.1,0.8
			C856.3,127,857.3,127,858.2,126.6 M858,120.5c0.3,0.1,0.6,0.4,0.9,0.6c0.2,0.3,0.4,0.6,0.5,0.9c0.3,0.8,0.3,1.6,0,2.3
			c-0.1,0.3-0.3,0.7-0.5,0.9c-0.2,0.3-0.5,0.5-0.9,0.6c-0.7,0.3-1.5,0.3-2.2,0c-0.3-0.1-0.6-0.4-0.9-0.6c-0.2-0.3-0.4-0.6-0.5-0.9
			c-0.3-0.8-0.3-1.6,0-2.3c0.1-0.3,0.3-0.7,0.5-0.9c0.2-0.3,0.5-0.5,0.9-0.6C856.4,120.2,857.2,120.2,858,120.5 M864,132.2h0.7
			v-16.7H864V132.2z M863.8,103l0.9,0.7c0.3,0.3,0.6,0.5,0.9,0.8l0.9,0.9c0.3,0.3,0.6,0.5,0.8,0.8l0.8-0.8l-0.8-0.8l-1-0.8l-1-0.8
			c-0.3-0.3-0.6-0.5-0.9-0.7L863.8,103z M864.5,86.8h-3.4v0.8h3.4V86.8z M864.5,83.6h-3.4v0.8h3.4V83.6z M854,86.9
			c0.2,0.4,0.4,0.7,0.7,1c0.3,0.3,0.6,0.5,1,0.7c0.8,0.3,1.7,0.3,2.5,0c0.4-0.2,0.7-0.4,1-0.7c0.3-0.3,0.5-0.6,0.7-1
			c0.3-0.8,0.3-1.6,0-2.4c-0.2-0.4-0.4-0.7-0.7-1c-0.3-0.3-0.6-0.5-1-0.7c-0.8-0.3-1.7-0.3-2.5,0c-0.4,0.2-0.7,0.4-1,0.7
			c-0.3,0.3-0.5,0.6-0.7,1C853.7,85.3,853.7,86.2,854,86.9 M854.7,84.8c0.1-0.3,0.3-0.5,0.5-0.7c0.2-0.2,0.5-0.4,0.8-0.5
			c0.6-0.2,1.3-0.2,1.9,0c0.3,0.1,0.5,0.3,0.8,0.5c0.2,0.2,0.4,0.5,0.5,0.7c0.3,0.6,0.3,1.2,0,1.8c-0.1,0.3-0.3,0.5-0.5,0.7
			c-0.2,0.2-0.5,0.4-0.8,0.5c-0.6,0.2-1.3,0.2-1.9,0c-0.3-0.1-0.5-0.3-0.8-0.5c-0.2-0.2-0.4-0.5-0.5-0.7
			C854.4,86,854.4,85.4,854.7,84.8 M865.7,95.7l-1.9,0.1c-0.8,0-1.5,0.1-2.3,0.1H859c-0.8,0-1.4,0-2,0v0.8c0.5,0,1.2,0,2,0h2.4
			l2.3-0.1l1.9-0.1L865.7,95.7z M857.1,96.3h0.7v-2.7h-0.7V96.3z M864.7,93l-1.8,0.1l-2,0.1h-2h-1.7V94h1.7h2l2-0.1l1.8-0.1
			L864.7,93z M863.9,93.4h0.7v-2.8h-0.7V93.4z M864.7,90.2l-1.8,0.1l-2.1,0.1l-2.1,0.1h-1.8l0.1,0.8h1.8l2-0.1l2.1-0.1l1.8-0.1
			L864.7,90.2z M863.9,89.6h0.7v-8.7h-0.7V89.6z M853.9,69.8c1.2-0.8,2.3-2,3-3.3c0.7-1.4,1.2-2.8,1.4-4.4l-0.7-0.1
			c-0.1,0.7-0.3,1.5-0.5,2.2c-0.2,0.7-0.5,1.3-0.8,1.9c-0.3,0.6-0.7,1.1-1.2,1.6c-0.5,0.5-1,1-1.7,1.4L853.9,69.8z M861.8,68.8
			l-3.2-3l-0.5,0.6l1.5,1.5c0.5,0.5,1,1,1.6,1.6L861.8,68.8z M857.1,76.2l0.7-0.2v-4.3h-0.7V76.2z M864.7,71.6l-1.7,0.1h-2.1h-2.1
			h-1.7l0.1,0.8h1.7h2h2c0.7,0,1.2,0,1.7-0.1L864.7,71.6z M864,76.3h0.7V72H864V76.3z M864.7,75.9h-7.6v0.8h7.6V75.9z M863.9,70h0.7
			v-9.2h-0.7V70z M868,65.8h-3.3l-0.4,0.4l0.4,0.4h3.3V65.8z M868,46.6h-3.3l-0.4,0.4l0.4,0.4h3.3V46.6z M854.2,47.4
			c0.2,0.4,0.4,0.7,0.7,1c0.3,0.3,0.6,0.5,1,0.7c0.8,0.3,1.7,0.3,2.5,0c0.4-0.2,0.7-0.4,1-0.7c0.3-0.3,0.5-0.6,0.7-1
			c0.3-0.8,0.3-1.7,0-2.5c-0.2-0.4-0.4-0.7-0.7-1c-0.3-0.3-0.6-0.5-1-0.7c-0.8-0.3-1.7-0.3-2.5,0c-0.4,0.2-0.7,0.4-1,0.7
			c-0.3,0.3-0.5,0.6-0.7,1C853.8,45.7,853.8,46.6,854.2,47.4 M854.8,45.2c0.3-0.6,0.7-1.1,1.3-1.3c0.6-0.3,1.4-0.3,2,0
			c0.3,0.1,0.6,0.3,0.8,0.5c0.2,0.2,0.4,0.5,0.5,0.8c0.3,0.6,0.3,1.3,0,1.9c-0.1,0.3-0.3,0.6-0.5,0.8c-0.2,0.2-0.5,0.4-0.8,0.5
			c-0.6,0.3-1.4,0.3-2,0c-0.6-0.3-1.1-0.7-1.3-1.3C854.6,46.5,854.6,45.8,854.8,45.2 M865.8,55.1l-2,0.1c-0.8,0-1.6,0.1-2.4,0.1H859
			c-0.8,0-1.4,0-2,0v0.8c0.5,0,1.2,0,2,0h2.4l2.4-0.1c0.8,0,1.4-0.1,2-0.1L865.8,55.1z M857.1,55.9h0.7v-4.2H857L857.1,55.9z
			 M863.9,52.7h0.7V40.8h-0.7V52.7z"/>
		<path class="st0" d="M888.3,269.7l0.9,0.7c0.3,0.3,0.6,0.5,0.9,0.8l0.9,0.9c0.3,0.3,0.6,0.5,0.8,0.8l0.8-0.8l-0.8-0.8l-1-0.8
			l-1-0.8c-0.3-0.3-0.6-0.5-0.9-0.7L888.3,269.7z M884.2,258.6l-2.7-3.4l-0.6,0.5c0.4,0.5,0.9,1.1,1.4,1.7s0.9,1.2,1.3,1.7
			L884.2,258.6z M883.5,251.4c-0.9,0.1-1.9,0.1-3,0.1c-1.1,0-2.1,0-3,0l0.1,0.8h1.4h1.5l1.5-0.1l1.4-0.1L883.5,251.4z M877.6,259.3
			c0.5-0.5,1-1,1.4-1.6c0.4-0.5,0.8-1.1,1.1-1.7c0.3-0.6,0.6-1.2,0.8-1.9c0.2-0.7,0.4-1.4,0.5-2.1h-0.8c-0.1,0.7-0.3,1.3-0.5,2
			c-0.2,0.6-0.4,1.2-0.7,1.8c-0.3,0.6-0.6,1.1-1,1.6c-0.4,0.5-0.9,1-1.4,1.5L877.6,259.3z M888.7,254.6h-3.1v0.8h3.1V254.6z
			 M885.3,262.2h0.7v-13.5h-0.7L885.3,262.2z M888.5,264.2h0.7v-16.7h-0.7V264.2z M878.6,235.5h0.7V230h-0.7V235.5z M884.4,229.8
			c-0.9,0.1-1.9,0.1-2.9,0.1h-2.9l0.1,0.8h2.9c1,0,2,0,2.9-0.1V229.8z M883.7,235.6h0.7v-5.2h-0.7V235.6z M884.4,235.2h-5.9v0.8h5.9
			V235.2z M888.4,239.4h0.7v-11.9h-0.7V239.4z M890.3,241.9l-1.9,0.1c-0.8,0-1.5,0.1-2.3,0.1h-2.3c-0.8,0-1.4,0-2,0v0.8
			c0.5,0,1.2,0,2,0h2.3l2.3-0.1l1.9-0.1L890.3,241.9z M881.7,242.7h0.7v-4.3h-0.7V242.7z M878.3,217.7c0.8-0.4,1.5-0.9,2.2-1.5
			c0.7-0.6,1.3-1.2,1.9-1.9c0.5-0.7,1-1.4,1.4-2.2c0.4-0.7,0.7-1.5,0.9-2.3l-0.9,0.3c-0.2,0.7-0.4,1.4-0.7,2
			c-0.4,0.7-0.8,1.3-1.3,1.9c-0.5,0.6-1.1,1.2-1.8,1.7c-0.7,0.6-1.4,1-2.2,1.4L878.3,217.7z M881.8,222.7l0.7-0.2v-4.4h-0.7V222.7z
			 M889.2,218l-1.7,0.1h-2h-2h-1.7l0.1,0.8h1.7h2h2l1.7-0.1L889.2,218z M888.4,222.9h0.7v-4.4h-0.7V222.9z M889.2,222.5h-7.4v0.8
			h7.4V222.5z M884.7,209.8l-1.6,0.1h-1.5h-1.4h-1.5l0.1,0.8h2.6c0.8,0,1.7,0,2.7-0.1L884.7,209.8z M888.4,216.5h0.7v-9h-0.7V216.5z
			 M888.3,195l0.9,0.7c0.3,0.3,0.6,0.5,0.9,0.8l0.9,0.9c0.3,0.3,0.6,0.6,0.8,0.8l0.8-0.8l-0.8-0.8l-1-0.8l-1-0.8
			c-0.3-0.3-0.6-0.5-0.9-0.7L888.3,195z M876.2,182.1h3.9l4.1-0.1l4.1-0.1c1.3,0,2.6-0.1,3.8-0.1V181l-3.8,0.1
			c-1.3,0-2.7,0.1-4.1,0.1l-4.1,0.1h-3.9L876.2,182.1z M886.9,178.9c0.4-0.1,0.8-0.3,1.1-0.6c1.2-1,1.4-2.7,0.4-3.9
			c-0.1-0.1-0.3-0.3-0.4-0.4c-0.3-0.3-0.7-0.5-1.1-0.6c-0.9-0.3-1.9-0.3-2.8,0c-0.4,0.1-0.8,0.3-1.1,0.6c-1.2,1-1.4,2.7-0.4,3.9
			c0.1,0.2,0.3,0.3,0.4,0.4c0.3,0.3,0.7,0.5,1.1,0.6C885,179.2,885.9,179.2,886.9,178.9 M883.5,177.9c-0.9-0.7-1.1-2-0.3-3
			c0.1-0.1,0.2-0.2,0.3-0.3c1.2-0.8,2.8-0.8,4,0c0.9,0.7,1.1,2,0.3,3c-0.1,0.1-0.2,0.2-0.3,0.3C886.2,178.6,884.7,178.6,883.5,177.9
			 M890.1,187.1l-2,0.1c-0.8,0-1.6,0.1-2.4,0.1h-2.4c-0.8,0-1.5,0-2,0v0.8c0.5,0,1.2,0,2,0h2.4l2.4-0.1c0.8,0,1.4,0,2-0.1
			L890.1,187.1z M881.2,188.1h0.8v-4.3h-0.7L881.2,188.1z M878.1,165.4c1.2-1,2.3-2.2,3.2-3.6c0.8-1.4,1.4-2.9,1.8-4.5l-0.8-0.1
			c-0.2,0.8-0.4,1.5-0.7,2.3c-0.3,0.7-0.6,1.4-1,2c-0.4,0.6-0.8,1.2-1.3,1.8c-0.5,0.6-1.1,1.1-1.7,1.7L878.1,165.4z M892.5,160.6
			h-3.3l-0.4,0.4l0.4,0.4h3.3V160.6z M886.6,164.5l-3.9-3.6l-0.5,0.6l0.9,0.8l1,0.9l1,1l0.9,0.9L886.6,164.5z M885.8,156.6l-1.7,0.1
			l-2.1,0.1H880h-1.7l0.1,0.8h1.7h2l2-0.1l1.7-0.1L885.8,156.6z M888.4,169.5h0.7v-16.7h-0.7V169.5z M876.2,141.6h3.9l4.1-0.1
			l4.1-0.1c1.3,0,2.6-0.1,3.8-0.1v-0.8l-3.8,0.1c-1.3,0-2.7,0.1-4.1,0.1l-4.1,0.1h-3.9L876.2,141.6z M885.2,148.9h0.8v-8.1h-0.7
			L885.2,148.9z M889.2,133.5l-1.9,0.1l-2.2,0.1h-2.1h-1.8l0.1,0.8h1.6h2h2l1.7-0.1L889.2,133.5z M888,139.5c0.3-1,0.6-2,0.8-3
			c0.2-1,0.4-2,0.5-3.1l-0.8,0.3c0,0.4,0,0.8-0.1,1.3c-0.1,0.5-0.2,0.9-0.2,1.4c-0.1,0.5-0.2,1-0.3,1.4s-0.3,0.9-0.4,1.4L888,139.5z
			 M876.1,116.1h3.9l4.1-0.1l4.1-0.1c1.3,0,2.6-0.1,3.8-0.1V115l-3.8,0.2c-1.3,0-2.7,0.1-4.1,0.1l-4.1,0.1H876L876.1,116.1z
			 M886.8,112.9c0.4-0.1,0.8-0.3,1.1-0.6c1-0.8,1.3-2.2,0.7-3.4c-0.2-0.4-0.4-0.7-0.7-0.9c-0.3-0.3-0.7-0.5-1.1-0.6
			c-0.9-0.3-1.9-0.3-2.8,0c-0.4,0.1-0.8,0.3-1.1,0.6c-1,0.8-1.3,2.2-0.7,3.4c0.2,0.4,0.4,0.7,0.7,0.9c0.3,0.3,0.7,0.5,1.1,0.6
			C884.9,113.2,885.9,113.2,886.8,112.9 M883.4,111.8c-0.9-0.7-1.1-2-0.3-3c0.1-0.1,0.2-0.2,0.3-0.3c1.2-0.8,2.8-0.8,4,0
			c0.9,0.7,1.1,2,0.3,3c-0.1,0.1-0.2,0.2-0.3,0.3C886.2,112.6,884.7,112.6,883.4,111.8 M890,121l-2,0.1c-0.8,0-1.6,0.1-2.4,0.1h-2.4
			c-0.8,0-1.5,0-2,0v0.8c0.5,0,1.2,0,2,0h2.4l2.4-0.1c0.8,0,1.4,0,2-0.1L890,121z M881.2,122h0.8v-4.3h-0.7L881.2,122z M876.1,94
			h3.9l4.1-0.1l4.1-0.1c1.3,0,2.6-0.1,3.8-0.1v-0.8l-3.8,0.2c-1.3,0-2.7,0.1-4.1,0.1l-4.1,0.1H876L876.1,94z M889.2,87.1l-1,0.1h-1
			h-1h-1l0.1,0.8c1.3,0,2.6-0.1,3.9-0.2L889.2,87.1z M884,87.4c-0.7,0-1.3,0-2,0h-2l0.1,0.8h1.7l2-0.1L884,87.4z M883.2,91.9
			c0.3-0.7,0.5-1.4,0.6-2.2c0.1-0.8,0.2-1.6,0.2-2.4l-0.8,0.4c0,0.7-0.1,1.3-0.2,2c-0.1,0.6-0.3,1.2-0.5,1.8L883.2,91.9z
			 M888.5,91.4h0.7v-4.1h-0.7V91.4z M885.4,93.5h0.7v-3.5h-0.7V93.5z M890.3,101.6l-2,0.1c-0.8,0-1.6,0.1-2.4,0.1h-2.4
			c-0.8,0-1.5,0-2,0v0.8c0.5,0,1.2,0,2,0h2.4l2.4-0.1c0.8,0,1.4,0,2-0.1L890.3,101.6z M881.4,102.2h0.7v-2.9h-0.7V102.2z
			 M889.2,98.7c-0.5,0-1.1,0.1-1.8,0.1l-2.1,0.1h-2.1h-1.8v0.8h1.7h2.1l2.1-0.1l1.8-0.1V98.7z M888.4,99.1h0.7v-2.9h-0.7V99.1z
			 M889.2,95.9l-1.9,0.1l-2.2,0.1l-2.1,0.1h-1.8l0.1,0.8h1.8l2.1-0.1l2.1-0.1l1.9-0.1V95.9z M876.2,73.7h3.9l4.1-0.1l4.1-0.1
			c1.3,0,2.6-0.1,3.8-0.1v-0.8l-3.8,0.2c-1.3,0-2.7,0.1-4.1,0.1l-4.1,0.1h-3.9L876.2,73.7z M889.3,67.3l-1.9,0.1l-2.2,0.1H883h-1.8
			l0.1,0.8h1.7h2h2l1.7-0.1L889.3,67.3z M888.6,71.9c0.1-0.4,0.2-0.8,0.2-1.2c0.1-0.4,0.1-0.7,0.2-1.1c0.1-0.3,0.1-0.7,0.1-1.1
			c0-0.4,0.1-0.8,0.1-1.3l-0.8,0.3c0,0.4,0,0.8-0.1,1.1s-0.1,0.7-0.1,1s-0.1,0.7-0.2,1s-0.2,0.7-0.2,1.1L888.6,71.9z M890.3,81.5
			l-2,0.1c-0.8,0-1.6,0.1-2.4,0.1h-2.4c-0.8,0-1.5,0-2,0v0.8c0.5,0,1.2,0,2,0h2.4l2.4-0.1c0.8,0,1.4,0,2-0.1L890.3,81.5z
			 M881.4,82.1h0.7v-2.9h-0.7V82.1z M889.2,78.6c-0.5,0-1.1,0.1-1.8,0.1l-2.1,0.1h-2.1h-1.8v0.8h1.7l2.1-0.1l2.1-0.1l1.8-0.1V78.6z
			 M888.4,79h0.7v-2.9h-0.7V79z M889.2,75.8l-1.9,0.1l-2.2,0.1L883,76h-1.8l0.1,0.8h1.8h2.1l2.1-0.1l1.9-0.1L889.2,75.8z
			 M882.7,51.9c0.4-0.2,0.8-0.5,1.1-0.8c0.3-0.3,0.6-0.7,0.7-1.2c0.3-0.9,0.3-1.9,0-2.9c-0.2-0.4-0.4-0.8-0.7-1.2
			c-1.3-1.4-3.5-1.4-4.8-0.2c-0.1,0-0.1,0.1-0.2,0.2c-0.3,0.3-0.6,0.7-0.7,1.2c-0.3,0.9-0.3,1.9,0,2.9c0.2,0.4,0.4,0.8,0.7,1.2
			c0.3,0.3,0.7,0.6,1.1,0.8C880.9,52.3,881.9,52.3,882.7,51.9 M882.5,45.8c0.3,0.1,0.6,0.4,0.9,0.6c0.2,0.3,0.4,0.6,0.5,0.9
			c0.3,0.8,0.3,1.6,0,2.3c-0.1,0.3-0.3,0.7-0.5,0.9c-0.2,0.3-0.5,0.5-0.9,0.6c-0.7,0.3-1.5,0.3-2.2,0c-0.3-0.1-0.6-0.4-0.9-0.6
			c-0.2-0.3-0.4-0.6-0.5-0.9c-0.3-0.8-0.3-1.6,0-2.3c0.1-0.3,0.3-0.7,0.5-0.9c0.2-0.3,0.5-0.5,0.9-0.6
			C881,45.5,881.8,45.5,882.5,45.8 M888.5,57.5h0.7V40.8h-0.7V57.5z"/>
		<path class="st0" d="M936.9,177.2c0.5,1,1.7,1.5,2.7,1.1s1.5-1.7,1.1-2.7c-0.1-0.2-0.2-0.4-0.4-0.6c-0.8-0.8-2-0.9-2.8-0.1
			c-0.2,0.2-0.4,0.5-0.5,0.8C936.7,176.1,936.7,176.6,936.9,177.2 M939.8,177.3c-0.5,0.5-1.4,0.5-1.9,0c-0.5-0.5-0.5-1.4,0-1.9
			c0.5-0.5,1.4-0.5,1.9,0C940.3,175.9,940.3,176.8,939.8,177.3 M925.2,160.4h3.9l4.1-0.1l4.1-0.1c1.3,0,2.6-0.1,3.8-0.1v-0.8
			l-3.8,0.1c-1.3,0-2.7,0.1-4.1,0.1l-4.1,0.1h-3.9L925.2,160.4z M938.7,156.6l-1.9,0.1c-0.7,0-1.4,0.1-2.2,0.1h-2.2
			c-0.7,0-1.3,0-1.9,0v0.8c0.5,0,1.2,0,1.9,0h2.2l2.2-0.1l1.9-0.1V156.6z M938.2,153.1l-1.7,0.1l-2.1,0.1h-2.1h-1.7v0.8h1.7h2.1
			l2.1-0.1l1.7-0.1L938.2,153.1z M930.6,157.6l0.7-0.2v-3.5h-0.7V157.6z M939.3,167.8l-2,0.1c-0.8,0-1.6,0.1-2.4,0.1h-2.4
			c-0.8,0-1.5,0-2,0v0.8c0.5,0,1.2,0,2,0h2.4l2.4-0.1c0.8,0,1.4,0,2-0.1L939.3,167.8z M930.5,168.4h0.7v-2.8h-0.7V168.4z M938.2,165
			c-0.5,0-1.1,0.1-1.8,0.1l-2.1,0.1h-2.1h-1.8v0.8h1.7h2.1l2.1-0.1l1.8-0.1V165z M937.4,165.4h0.7v-2.8h-0.7V165.4z M938.2,162.3
			l-1.9,0.1l-2.2,0.1l-2.1,0.1h-1.8l0.1,0.8h1.8h2.1l2.1-0.1l1.9-0.1V162.3z M925.2,142.4h3.9l4.1-0.1l4.1-0.1
			c1.3,0,2.6-0.1,3.8-0.1v-0.8l-3.8,0.1c-1.3,0-2.7,0.1-4.1,0.1l-4.1,0.1h-3.9L925.2,142.4z M938.1,138.6h-7.3v0.8h7.3V138.6z
			 M938.1,135.3l-1.7,0.1l-1.9,0.1h-1.9h-1.7v0.8h1.7h2l2-0.1l1.7-0.1L938.1,135.3z M938.1,132.9h-0.7v5.9h0.7V132.9z M930.8,139.1
			h0.7v-5.8h-0.7V139.1z M934.3,145.3h0.7v-3.6h-0.7V145.3z M939.1,147.2l-2,0.1c-0.8,0-1.6,0.1-2.4,0.1h-2.4c-0.8,0-1.5,0-2,0v0.8
			c0.5,0,1.2,0,2,0h2.4l2.4-0.1c0.8,0,1.4,0,2-0.1L939.1,147.2z M930.2,148.2h0.8v-4.1h-0.7L930.2,148.2z M927.1,116.6
			c1.3-1,2.3-2.2,3.1-3.6c0.8-1.5,1.3-3.1,1.5-4.7l-0.7-0.1c-0.1,0.8-0.3,1.7-0.5,2.5c-0.2,0.7-0.5,1.4-0.8,2
			c-0.3,0.6-0.8,1.2-1.2,1.8c-0.5,0.6-1.1,1.1-1.7,1.6L927.1,116.6z M935.1,115.2l-3.5-3.1l-0.5,0.6l1.7,1.5c0.5,0.5,1.1,1,1.7,1.6
			L935.1,115.2z M937.4,118.7h0.7v-11.9h-0.7V118.7z M939.2,121.1l-1.9,0.1c-0.8,0-1.5,0.1-2.3,0.1h-2.3c-0.8,0-1.4,0-2,0v0.8
			c0.5,0,1.2,0,2,0h2.4l2.3-0.1c0.8,0,1.4,0,1.9-0.1L939.2,121.1z M930.6,121.9h0.7v-4.4h-0.7V121.9z M925.1,96.4h3.9l4.1-0.1
			l4.1-0.1c1.3,0,2.6-0.1,3.8-0.1v-0.8l-3.8,0.2c-1.3,0-2.7,0.1-4.1,0.1l-4.1,0.1H925L925.1,96.4z M929.2,93.6
			c1.3-0.5,2.6-1.3,3.6-2.3c0.9-0.9,1.6-2.1,2-3.3l-0.8-0.2c-0.4,1.2-1,2.2-1.9,3.1c-0.9,0.9-2.1,1.6-3.3,2L929.2,93.6z M938.2,87.4
			l-2,0.1l-2.3,0.1h-2.3h-2l0.1,0.8h1.9h2.2l2.2-0.1l2-0.1L938.2,87.4z M938.9,92.6l-4.2-2.5l-0.4,0.7c0.7,0.4,1.4,0.8,2.1,1.2
			l2.1,1.3L938.9,92.6z M934.1,102.9h0.9v-7.2h-0.7L934.1,102.9z M925.1,69.3h3.9l4.1-0.1l4.1-0.1L941,69v-0.8l-3.8,0.2
			c-1.3,0-2.7,0.1-4.1,0.1l-4.1,0.1H925L925.1,69.3z M934.1,72.2h0.7v-3.3h-0.7V72.2z M935.9,66.5c0.4-0.1,0.8-0.3,1.1-0.6
			c1-0.8,1.3-2.2,0.7-3.4c-0.2-0.4-0.4-0.7-0.7-0.9c-0.3-0.3-0.7-0.5-1.1-0.6c-0.9-0.3-1.9-0.3-2.8,0c-0.4,0.1-0.8,0.3-1.1,0.6
			c-0.3,0.3-0.6,0.6-0.7,0.9c-0.6,1.2-0.3,2.6,0.7,3.4c0.3,0.3,0.7,0.5,1.1,0.6C934,66.8,935,66.8,935.9,66.5 M933.4,65.8
			c-0.3-0.1-0.6-0.2-0.9-0.4c-0.2-0.2-0.4-0.4-0.6-0.7c-0.3-0.6-0.3-1.3,0-1.9c0.1-0.3,0.3-0.5,0.6-0.7c0.3-0.2,0.6-0.3,0.9-0.4
			c0.7-0.2,1.5-0.2,2.2,0c0.3,0.1,0.6,0.2,0.9,0.4c0.2,0.2,0.4,0.4,0.6,0.7c0.3,0.6,0.3,1.3,0,1.9c-0.1,0.3-0.3,0.5-0.6,0.7
			c-0.3,0.2-0.6,0.3-0.9,0.4C934.9,66,934.1,66,933.4,65.8 M930.9,75.9l0.7-0.2v-3.9h-0.7V75.9z M938.1,71.7l-1.7,0.1h-2h-2h-1.7
			l0.1,0.8h1.7h1.9h1.9l1.7-0.1L938.1,71.7z M937.4,76.1h0.8v-3.9h-0.8V76.1z M938.1,75.7h-7.3v0.8h7.3V75.7z M925.6,54.9h3.8
			l3.9-0.1l3.9-0.1l3.7-0.1v-0.8l-3.8,0.2c-1.3,0-2.6,0.1-3.9,0.1l-4,0.1h-3.8L925.6,54.9z M938.6,48.1l-1.9,0.1
			c-0.7,0-1.5,0.1-2.2,0.1h-2.2c-0.7,0-1.4,0-1.9,0v0.8c0.5,0,1.2,0,1.9,0h2.2l2.2-0.1l1.9-0.1V48.1z M938.4,42.9
			c-0.3,0-0.7,0-1.1,0.1h-1.4h-1.5h-1.5h-2.5v0.8h1.8h2.3l2.3,0l1.8-0.1L938.4,42.9z M930.3,49.1l0.7-0.2v-5.4h-0.7V49.1z
			 M934.1,54.3h0.7v-4.4h-0.7V54.3z"/>
	</g>
</g>
<line class="st1" x1="479.8" y1="40" x2="479.8" y2="460"/>
<line class="st2" x1="685.1" y1="360" x2="685.1" y2="460"/>
<g>
	<g>
		<line class="st2" x1="0" y1="0.2" x2="943.3" y2="0.2"/>
	</g>
</g>
<line class="st2" x1="514.2" y1="320.1" x2="943.3" y2="320.1"/>
<g>
	<g>
		<path class="st0" d="M871.3,453c0.5,0,0.9-0.4,0.9-0.9c0,0,0-0.1,0-0.1c0-0.5-0.4-0.9-0.9-0.9c-0.5,0-0.9,0.4-0.9,0.9c0,0,0,0,0,0
			c0,0.5,0.3,0.9,0.8,1C871.3,453,871.3,453,871.3,453 M864.5,452.4c-1.5,0-2.3-1.2-2.3-3.2s1.1-3.2,2.5-3.2c0.8,0,1.5,0.3,2.1,0.9
			v4.4C866.2,451.9,865.4,452.3,864.5,452.4 M864.2,453.4c1,0,1.9-0.5,2.5-1.2l0,0l0.1,1h1v-11.9h-1.2v3.2l0.1,1.4
			c-0.6-0.6-1.5-1-2.3-1c-1.9,0-3.5,1.6-3.5,4.3S862.2,453.4,864.2,453.4 M853.8,448.5c0-1.4,1-2.6,2.4-2.7c1.3,0,2.1,0.9,2.1,2.7
			H853.8z M856.4,453.4c0.9,0,1.9-0.3,2.7-0.8l-0.5-0.8c-0.6,0.4-1.3,0.7-2.1,0.7c-1.5,0-2.8-1.3-2.8-2.8c0-0.1,0-0.1,0-0.2h5.5
			c0-0.2,0.1-0.5,0.1-0.7c0-2.3-1.2-3.8-3.2-3.8c-1.9,0-3.6,1.6-3.6,4.3S854.3,453.4,856.4,453.4 M847.4,453.2h1.4l2.9-8.1h-1.2
			l-1.6,4.7c-0.2,0.8-0.5,1.6-0.8,2.4H848c-0.3-0.8-0.5-1.6-0.8-2.4l-1.6-4.7h-1.3L847.4,453.2z M839.5,453.2h1.2v-5.3
			c0.5-1.4,1.4-1.9,2.1-1.9c0.3,0,0.5,0,0.8,0.1l0.2-1.1c-0.3-0.1-0.6-0.2-0.8-0.2c-1,0.1-1.9,0.8-2.3,1.7l0,0l-0.1-1.5h-1
			L839.5,453.2z M831.8,448.5c0-1.4,1-2.6,2.4-2.7c1.3,0,2.1,0.9,2.1,2.7H831.8z M834.5,453.4c0.9,0,1.9-0.3,2.7-0.8l-0.5-0.8
			c-0.6,0.4-1.3,0.7-2,0.7c-1.5,0-2.8-1.3-2.8-2.8c0-0.1,0-0.1,0-0.2h5.5c0-0.2,0.1-0.5,0.1-0.7c0-2.3-1.2-3.8-3.2-3.8
			c-1.9,0-3.6,1.6-3.6,4.3S832.3,453.4,834.5,453.4 M826.4,453.4c1.9,0,2.9-1.1,2.9-2.4c0-1.5-1.3-2-2.5-2.5
			c-0.9-0.3-1.8-0.6-1.8-1.5c0-0.7,0.5-1.2,1.6-1.2c0.7,0,1.4,0.3,1.9,0.7l0.6-0.8c-0.7-0.6-1.6-0.9-2.5-0.9c-1.7,0-2.7,1-2.7,2.3
			s1.3,1.9,2.4,2.3c0.9,0.3,1.9,0.7,1.9,1.6s-0.6,1.4-1.7,1.4c-0.9,0-1.8-0.4-2.5-1l-0.6,0.8C824.2,452.9,825.3,453.3,826.4,453.4
			 M816.6,448.5c0-1.4,1-2.6,2.4-2.7c1.3,0,2.1,0.9,2.1,2.7H816.6z M819.3,453.3c0.9,0,1.9-0.3,2.7-0.8l-0.5-0.8
			c-0.6,0.4-1.3,0.7-2,0.7c-1.5,0-2.8-1.3-2.8-2.8c0-0.1,0-0.1,0-0.2h5.5c0-0.2,0.1-0.5,0.1-0.7c0-2.3-1.2-3.8-3.2-3.8
			c-1.9,0-3.6,1.6-3.6,4.3S817.1,453.4,819.3,453.3 M810.5,453.2h1.2v-5.3c0.5-1.4,1.4-1.9,2.1-1.9c0.3,0,0.5,0,0.8,0.1l0.2-1.1
			c-0.3-0.1-0.6-0.2-0.8-0.2c-1,0.1-1.9,0.8-2.3,1.7l0,0l-0.1-1.5h-1L810.5,453.2z M801.5,453.4c1.9,0,2.9-1.1,2.9-2.4
			c0-1.5-1.3-2-2.5-2.5c-0.9-0.3-1.8-0.6-1.8-1.5c0-0.7,0.5-1.2,1.6-1.2c0.7,0,1.4,0.3,1.9,0.7l0.6-0.8c-0.7-0.6-1.6-0.9-2.5-0.9
			c-1.7,0-2.7,1-2.7,2.3s1.3,1.9,2.4,2.3c0.9,0.3,1.9,0.7,1.9,1.6s-0.6,1.4-1.7,1.4c-0.9,0-1.8-0.4-2.5-1l-0.6,0.8
			C799.3,452.9,800.3,453.3,801.5,453.4 M796.4,453.3c0.5,0,1-0.1,1.4-0.3l-0.2-0.9c-0.3,0.1-0.6,0.2-1,0.2c-1,0-1.3-0.6-1.3-1.6
			V446h2.2v-1h-2.2v-2.3h-1l-0.1,2.3l-1.3,0.1v0.9h1.2v4.6C794.2,452.3,794.8,453.3,796.4,453.3 M785,453.2h1.2v-5.9
			c0.5-0.8,1.4-1.2,2.3-1.3c1.1,0,1.6,0.7,1.6,2.2v5h1.2v-5.1c0-2.1-0.8-3.2-2.5-3.2c-1.1,0.1-2,0.6-2.7,1.4v-1.7v-3.3H785V453.2z
			 M779.5,456.1c-1.5,0-2.4-0.6-2.4-1.5c0-0.6,0.4-1.1,0.9-1.5c0.3,0.1,0.7,0.1,1,0.1h1.5c1.1,0,1.7,0.3,1.7,1.1
			S781.1,456.1,779.5,456.1 M779.3,449.8c-1,0-1.8-0.9-1.8-1.9c0,0,0-0.1,0-0.1c-0.1-1,0.7-1.9,1.7-1.9c1-0.1,1.9,0.7,1.9,1.7
			c0,0.1,0,0.2,0,0.3C781.2,448.8,780.4,449.7,779.3,449.8C779.3,449.8,779.3,449.8,779.3,449.8 M779.3,457c2.5,0,4-1.3,4-2.8
			s-0.9-1.9-2.8-1.9H779c-1.1,0-1.4-0.4-1.4-0.9c0-0.4,0.2-0.8,0.5-1c0.4,0.2,0.8,0.3,1.2,0.3c1.5,0.1,2.8-1.1,2.9-2.6
			c0-0.1,0-0.1,0-0.2c0-0.7-0.2-1.3-0.7-1.8h1.7v-0.9h-2.8c-0.4-0.1-0.7-0.2-1.1-0.2c-1.6-0.1-2.9,1.1-3,2.7c-0.1,0.9,0.3,1.8,1,2.4
			v0c-0.5,0.3-0.8,0.9-0.9,1.5c0,0.5,0.3,1.1,0.7,1.3v0.1c-0.7,0.4-1.1,1.1-1.2,1.9C776,456.2,777.3,456.9,779.3,457 M773.2,443.3
			c0.5,0,0.9-0.3,0.9-0.8c0,0,0,0,0,0c0-0.5-0.4-0.8-0.8-0.8c0,0,0,0-0.1,0c-0.4,0-0.8,0.3-0.9,0.7c0,0,0,0.1,0,0.1
			C772.3,443,772.7,443.4,773.2,443.3C773.2,443.4,773.2,443.4,773.2,443.3 M772.6,453.2h1.2v-8.1h-1.2V453.2z M766.9,453.2h1.2
			v-5.3c0.5-1.4,1.4-1.9,2.1-1.9c0.3,0,0.5,0,0.8,0.1l0.2-1.1c-0.3-0.1-0.6-0.2-0.8-0.2c-1,0.1-1.9,0.8-2.3,1.7l0,0l-0.1-1.5h-1
			L766.9,453.2z M759.8,453.4c0.2,0,0.5,0,0.7-0.1l-0.2-0.9c-0.1,0-0.2,0-0.3,0c-0.2,0-0.4-0.2-0.4-0.6v-10.5h-1.2v10.5
			C758.5,452.8,758.9,453.4,759.8,453.4 M755.7,453.4c0.2,0,0.5,0,0.7-0.1l-0.2-0.9c-0.1,0-0.2,0-0.3,0c-0.2,0-0.4-0.2-0.4-0.6
			v-10.5h-1.2v10.5C754.4,452.8,754.8,453.4,755.7,453.4 M748.2,452.4c-0.7,0.1-1.4-0.4-1.5-1.1c0-0.1,0-0.2,0-0.3
			c0-1.1,1-1.8,3.8-2.1v2.4C749.9,451.9,749.1,452.3,748.2,452.4 M747.9,453.4c1-0.1,2-0.5,2.7-1.2l0,0l0.1,1h1v-5
			c0-2-0.8-3.3-2.7-3.3c-1.1,0-2.2,0.4-3.2,1.1l0.5,0.9c0.7-0.5,1.6-0.9,2.5-0.9c1.4,0,1.7,1.1,1.7,2.2c-3.5,0.4-5,1.3-5,3
			c-0.1,1.2,0.9,2.2,2,2.3C747.6,453.4,747.7,453.4,747.9,453.4"/>
		<path class="st0" d="M917.1,435.6c1.2-0.5,2-1.7,2.1-3c0-0.9-0.4-1.5-1.1-1.5c-0.5-0.1-0.9,0.3-1,0.8c0,0,0,0.1,0,0.1
			c0,0.5,0.4,0.9,0.9,0.9c0,0,0,0,0.1,0h0.2c0,0.9-0.6,1.7-1.5,2L917.1,435.6z M911.9,436.1c-1.5,0-2.4-0.6-2.4-1.5
			c0-0.6,0.4-1.2,0.9-1.5c0.3,0.1,0.7,0.1,1,0.1h1.5c1.1,0,1.7,0.3,1.7,1.1S913.5,436.1,911.9,436.1 M911.7,429.8
			c-1,0-1.8-0.9-1.8-1.9c0,0,0-0.1,0-0.1c-0.1-1,0.7-1.9,1.7-1.9c1-0.1,1.9,0.7,1.9,1.7c0,0.1,0,0.2,0,0.3
			C913.5,428.8,912.8,429.7,911.7,429.8C911.7,429.8,911.7,429.8,911.7,429.8 M911.7,437c2.5,0,4-1.3,4-2.8s-0.9-1.9-2.8-1.9h-1.6
			c-1.1,0-1.4-0.4-1.4-0.9c0-0.4,0.2-0.8,0.5-1c0.4,0.2,0.8,0.3,1.2,0.3c1.5,0.1,2.8-1.1,2.9-2.6c0-0.1,0-0.1,0-0.2
			c0-0.7-0.2-1.3-0.7-1.8h1.7v-0.9h-2.8c-0.4-0.1-0.7-0.2-1.1-0.2c-1.6-0.1-2.9,1.1-3,2.7c-0.1,0.9,0.3,1.8,1,2.4v0
			c-0.5,0.3-0.8,0.9-0.9,1.5c0,0.5,0.3,1.1,0.7,1.3v0.1c-0.7,0.4-1.1,1.1-1.2,1.9C908.2,436.2,909.6,436.9,911.7,437 M899.8,433.2
			h1.2v-5.9c0.5-0.8,1.4-1.2,2.3-1.3c1.1,0,1.6,0.7,1.6,2.2v5h1.2V428c0-2.1-0.8-3.2-2.5-3.2c-1.1,0.1-2,0.6-2.7,1.4l0,0l-0.1-1.2
			h-1L899.8,433.2z M893.9,432.4c-1.5,0-2.5-1.3-2.5-3.2s1-3.2,2.5-3.2s2.5,1.3,2.5,3.2S895.3,432.4,893.9,432.4 M893.9,433.4
			c2,0,3.7-1.6,3.7-4.2s-1.8-4.3-3.7-4.3s-3.7,1.6-3.7,4.3S891.9,433.4,893.9,433.4 M883.2,436.7c1.6,0,2.4-1.2,3-2.8l3.1-8.9h-1.2
			l-1.5,4.6c-0.2,0.7-0.5,1.5-0.7,2.3h-0.1c-0.3-0.7-0.5-1.6-0.8-2.3l-1.7-4.6H882l3.3,8.1l-0.2,0.6c-0.4,1-1,1.8-1.9,1.8
			c-0.2,0-0.4,0-0.6-0.1l-0.3,1C882.6,436.7,882.9,436.7,883.2,436.7 M877,433.2h1.2v-5.3c0.6-1.4,1.4-1.9,2.1-1.9
			c0.3,0,0.5,0,0.8,0.1l0.2-1.1c-0.3-0.1-0.6-0.2-0.8-0.2c-1,0.1-1.9,0.8-2.3,1.7l0,0l-0.1-1.5h-1L877,433.2z M871.1,427.9h3.8V427
			h-3.8V427.9z M864.2,428.5c0-1.4,1-2.6,2.4-2.7c1.3,0,2.1,0.9,2.1,2.7H864.2z M866.9,433.4c0.9,0,1.9-0.3,2.7-0.8l-0.5-0.8
			c-0.6,0.4-1.3,0.7-2,0.7c-1.5,0-2.8-1.3-2.8-2.8c0-0.1,0-0.1,0-0.2h5.5c0-0.2,0.1-0.5,0.1-0.7c0-2.3-1.2-3.8-3.2-3.8
			c-1.9,0-3.6,1.6-3.6,4.3S864.7,433.4,866.9,433.4 M857.4,432.4c-0.7,0.1-1.4-0.5-1.4-1.2c0-0.1,0-0.1,0-0.2c0-1.1,1-1.8,3.8-2.1
			v2.4C859.2,431.9,858.4,432.3,857.4,432.4 M857.2,433.4c1-0.1,2-0.5,2.7-1.2l0,0l0.1,1h1v-5c0-2-0.8-3.3-2.7-3.3
			c-1.1,0-2.2,0.4-3.2,1.1l0.5,0.9c0.7-0.5,1.6-0.9,2.5-0.9c1.4,0,1.7,1.1,1.7,2.2c-3.5,0.4-5,1.3-5,3c-0.1,1.2,0.9,2.2,2,2.3
			C856.9,433.4,857,433.4,857.2,433.4 M852.6,433.4c0.5,0,1-0.1,1.4-0.3l-0.2-0.9c-0.3,0.1-0.6,0.2-1,0.2c-1,0-1.3-0.6-1.3-1.6v-4.7
			h2.2v-1h-2.2v-2.3h-1l-0.1,2.3l-1.3,0.1v0.9h1.2v4.6C850.4,432.3,850.9,433.4,852.6,433.4 M841.6,435.6c1.2-0.5,2-1.7,2.1-3
			c0-0.9-0.4-1.5-1.1-1.5c-0.5-0.1-0.9,0.3-1,0.8c0,0,0,0.1,0,0.1c0,0.5,0.4,0.9,0.9,0.9c0,0,0,0,0.1,0h0.2c0,0.9-0.6,1.7-1.5,2
			L841.6,435.6z M828.2,433.2h1.2v-5.9c0.5-0.7,1.3-1.2,2.1-1.3c1.1,0,1.6,0.7,1.6,2.2v5h1.2v-5.9c0.5-0.7,1.3-1.2,2.1-1.3
			c1.1,0,1.6,0.7,1.6,2.2v5h1.2V428c0-2.1-0.8-3.2-2.5-3.2c-1.1,0.1-2.1,0.7-2.7,1.6c-0.3-1-1.2-1.7-2.2-1.6c-1,0.1-1.9,0.6-2.5,1.4
			l0,0l-0.1-1.2h-1L828.2,433.2z M824.7,423.4c0.5,0,0.9-0.3,0.9-0.8c0,0,0,0,0,0c0-0.5-0.4-0.8-0.8-0.8c0,0,0,0-0.1,0
			c-0.4,0-0.8,0.3-0.9,0.7c0,0,0,0.1,0,0.1C823.9,423,824.2,423.4,824.7,423.4C824.7,423.4,824.7,423.4,824.7,423.4 M824.1,433.2
			h1.2v-8.1h-1.2V433.2z M816,433.2h1.2V431l1.6-1.9l2.4,4h1.3l-3.1-4.9l2.7-3.2h-1.4l-3.6,4.4l0,0v-8.3H816L816,433.2z
			 M808.7,433.4c0.5,0,1-0.1,1.4-0.3l-0.2-0.9c-0.3,0.1-0.6,0.2-1,0.2c-1,0-1.3-0.6-1.3-1.6v-4.7h2.2v-1h-2.2v-2.3h-1l-0.1,2.3
			l-1.3,0.1v0.9h1.2v4.6C806.5,432.3,807,433.4,808.7,433.4 M797.2,433.2h1.2v-5.9c0.5-0.8,1.4-1.2,2.3-1.3c1.1,0,1.6,0.7,1.6,2.2v5
			h1.2V428c0-2.1-0.8-3.2-2.5-3.2c-1.1,0.1-2,0.6-2.7,1.4v-1.7v-3.3h-1.2L797.2,433.2z M791.8,436.1c-1.5,0-2.4-0.6-2.4-1.5
			c0-0.6,0.4-1.2,0.9-1.5c0.3,0.1,0.7,0.1,1,0.1h1.5c1.1,0,1.7,0.3,1.7,1.1S793.4,436.1,791.8,436.1 M791.5,429.8
			c-1,0-1.8-0.9-1.8-1.9c0,0,0-0.1,0-0.1c-0.1-1,0.7-1.9,1.7-1.9c1-0.1,1.9,0.7,1.9,1.7c0,0.1,0,0.2,0,0.3
			C793.4,428.8,792.7,429.7,791.5,429.8C791.6,429.8,791.6,429.8,791.5,429.8 M791.5,437c2.5,0,4-1.3,4-2.8s-0.9-1.9-2.8-1.9h-1.6
			c-1.1,0-1.4-0.4-1.4-0.9c0-0.4,0.2-0.8,0.5-1c0.4,0.2,0.8,0.3,1.2,0.3c1.5,0.1,2.8-1.1,2.9-2.6c0-0.1,0-0.1,0-0.2
			c0-0.7-0.2-1.3-0.7-1.8h1.7v-0.9h-2.8c-0.4-0.1-0.7-0.2-1.1-0.2c-1.6-0.1-2.9,1.1-3,2.7c-0.1,0.9,0.3,1.8,1,2.4v0
			c-0.5,0.3-0.8,0.9-0.9,1.5c0,0.5,0.3,1.1,0.7,1.3v0.1c-0.7,0.4-1.1,1.1-1.2,1.9C788.1,436.2,789.5,436.9,791.5,437 M785.3,423.3
			c0.5,0,0.9-0.3,0.9-0.8c0,0,0,0,0,0c0-0.5-0.4-0.8-0.8-0.8c0,0,0,0-0.1,0c-0.5,0-0.8,0.3-0.9,0.8c0,0,0,0.1,0,0.1
			C784.5,423,784.8,423.4,785.3,423.3C785.3,423.4,785.3,423.4,785.3,423.3 M784.7,433.2h1.3v-8.1h-1.2L784.7,433.2z M779,433.2h1.2
			v-5.3c0.5-1.4,1.4-1.9,2.1-1.9c0.3,0,0.5,0,0.8,0.1l0.2-1.1c-0.3-0.1-0.6-0.2-0.8-0.2c-1,0.1-1.9,0.7-2.3,1.7l0,0l-0.1-1.5h-1
			L779,433.2z M771.4,436.7c1.6,0,2.4-1.2,3-2.8l3.1-8.9h-1.2l-1.5,4.6c-0.2,0.7-0.5,1.5-0.7,2.3h0c-0.3-0.7-0.5-1.6-0.8-2.3
			l-1.7-4.6h-1.3l3.3,8.1l-0.2,0.6c-0.4,1-1,1.8-1.9,1.8c-0.2,0-0.4,0-0.6-0.1l-0.2,1C770.8,436.7,771.1,436.7,771.4,436.7
			 M765.5,432.4c-0.8,0-1.5-0.4-2.1-0.9v-4.4c0.6-0.7,1.4-1.1,2.3-1.2c1.6,0,2.2,1.3,2.2,3.1C768,431.1,767,432.4,765.5,432.4
			 M762.3,436.7h1.2v-2.8v-1.4c0.6,0.6,1.4,0.9,2.3,0.9c1.9,0,3.5-1.6,3.5-4.4c0-2.5-1.1-4.1-3.2-4.1c-1,0.1-1.9,0.5-2.6,1.1l0,0
			l-0.1-0.9h-1L762.3,436.7z M756.3,432.4c-1.5,0-2.5-1.3-2.5-3.2s1-3.2,2.5-3.2s2.5,1.3,2.5,3.2S757.8,432.4,756.3,432.4
			 M756.3,433.4c2,0,3.7-1.6,3.7-4.2s-1.8-4.3-3.7-4.3s-3.7,1.6-3.7,4.3S754.3,433.4,756.3,433.4 M749.1,433.4c1,0,1.9-0.4,2.6-1
			l-0.5-0.8c-0.5,0.5-1.3,0.8-2,0.8c-1.6,0-2.6-1.3-2.6-3.2s1.1-3.2,2.6-3.2c0.6,0,1.2,0.3,1.7,0.8l0.7-0.8c-0.6-0.6-1.5-1-2.4-1
			c-2,0-3.8,1.6-3.8,4.3S747,433.4,749.1,433.4"/>
		<path class="st0" d="M873.5,413.2h1.2v-5.9c0.5-0.7,1.3-1.2,2.1-1.3c1.1,0,1.6,0.7,1.6,2.2v5h1.2v-5.9c0.5-0.7,1.3-1.2,2.1-1.3
			c1.1,0,1.6,0.7,1.6,2.2v5h1.2v-5.1c0-2.1-0.8-3.2-2.5-3.2c-1.1,0.1-2.1,0.7-2.7,1.6c-0.3-1-1.2-1.7-2.2-1.6
			c-1,0.1-1.9,0.6-2.5,1.4l0,0l-0.1-1.2h-1L873.5,413.2z M867.5,412.4c-1.5,0-2.5-1.3-2.5-3.2s1-3.2,2.5-3.2s2.5,1.3,2.5,3.2
			S869,412.4,867.5,412.4 M867.5,413.4c2,0,3.7-1.6,3.7-4.2s-1.8-4.3-3.7-4.3s-3.7,1.6-3.7,4.3S865.5,413.4,867.5,413.4
			 M860.3,413.4c1,0,1.9-0.4,2.6-1l-0.5-0.8c-0.5,0.5-1.3,0.8-2,0.8c-1.6,0-2.6-1.3-2.6-3.2s1.1-3.2,2.6-3.2c0.6,0,1.2,0.3,1.7,0.8
			l0.7-0.8c-0.6-0.6-1.5-1-2.4-1c-2,0-3.8,1.6-3.8,4.3S858.2,413.4,860.3,413.4 M853.7,413c0.5,0,0.9-0.4,0.9-0.9c0,0,0-0.1,0-0.1
			c0-0.5-0.4-0.9-0.9-0.9c-0.5,0-0.9,0.4-0.9,0.9c0,0,0,0,0,0c0,0.5,0.3,0.9,0.8,1C853.6,413,853.7,413,853.7,413 M847.4,413.2h1.2
			v-5.3c0.5-1.4,1.4-1.9,2.1-1.9c0.3,0,0.5,0,0.8,0.1l0.2-1.1c-0.3-0.1-0.6-0.2-0.8-0.2c-1,0.1-1.9,0.8-2.3,1.7l0,0l-0.1-1.5h-1
			L847.4,413.2z M839.8,408.5c0-1.4,1-2.6,2.4-2.7c1.3,0,2.1,0.9,2.1,2.7H839.8z M842.4,413.4c0.9,0,1.9-0.3,2.7-0.8l-0.5-0.8
			c-0.6,0.4-1.3,0.7-2.1,0.7c-1.5,0-2.8-1.3-2.8-2.8c0-0.1,0-0.1,0-0.2h5.5c0-0.2,0.1-0.5,0.1-0.7c0-2.3-1.2-3.8-3.2-3.8
			c-1.9,0-3.6,1.6-3.6,4.3S840.3,413.4,842.4,413.4 M833.3,413.2h1.4l2.9-8.1h-1.2l-1.6,4.7c-0.2,0.8-0.5,1.6-0.8,2.4H834
			c-0.3-0.8-0.5-1.6-0.8-2.4l-1.6-4.7h-1.3L833.3,413.2z M825.4,412.4c-0.7,0.1-1.4-0.4-1.5-1.1c0-0.1,0-0.2,0-0.3
			c0-1.1,1-1.8,3.8-2.1v2.4C827.1,411.9,826.3,412.3,825.4,412.4 M825,413.4c1-0.1,2-0.5,2.7-1.2l0,0l0.1,1h1v-5
			c0-2-0.8-3.3-2.7-3.3c-1.1,0-2.2,0.4-3.2,1.1l0.5,0.9c0.7-0.5,1.6-0.9,2.5-0.9c1.4,0,1.7,1.1,1.7,2.2c-3.5,0.4-5,1.3-5,3
			c-0.1,1.2,0.9,2.2,2,2.3C824.8,413.4,824.9,413.4,825,413.4 M814.1,413.2h1.2v-5.9c0.5-0.8,1.4-1.2,2.3-1.3c1.1,0,1.6,0.7,1.6,2.2
			v5h1.2v-5.1c0-2.1-0.8-3.2-2.5-3.2c-1.1,0.1-2,0.6-2.7,1.4l0,0l-0.1-1.2h-1L814.1,413.2z M805,411.4c-0.7,0-1.2-0.4-1.2-1.6
			c0-1.3,0.8-2.9,2.2-2.9c0.5,0,0.9,0.3,1.1,0.7l-0.5,2.7C806.3,410.9,805.7,411.3,805,411.4 M805.3,415.7c1.1,0,2.2-0.3,3.2-0.9
			l-0.3-0.8c-0.8,0.5-1.8,0.8-2.7,0.8c-2.6,0.1-4.9-1.9-5-4.5c0-0.2,0-0.4,0-0.6c-0.2-3.4,2.4-6.3,5.8-6.5c0,0,0.1,0,0.1,0
			c2.4-0.2,4.5,1.6,4.7,3.9c0,0.3,0,0.5,0,0.8c0,2.2-1.2,3.5-2.3,3.5s-1.3-0.6-0.9-2l0.7-3.3h-0.8l-0.2,0.7l0,0
			c-0.2-0.6-0.8-0.9-1.4-0.9c-2,0-3.2,2.1-3.2,3.8c0,1.5,0.9,2.4,2,2.4c0.8-0.1,1.5-0.5,2-1.1l0,0c0.1,0.9,0.8,1.3,1.7,1.3
			c1.5,0,3.3-1.5,3.3-4.4c0.2-2.8-1.9-5.3-4.7-5.5c-0.2,0-0.5,0-0.7,0c-3.9,0.1-7,3.2-6.9,7.1c0,0.1,0,0.2,0,0.3
			c-0.2,3.1,2.1,5.7,5.1,5.9C804.8,415.7,805.1,415.7,805.3,415.7 M793.4,413.2h1.3c0.2-4.3,0.7-6.9,3.3-10.2v-0.7h-6.8v1h5.4
			C794.3,406.2,793.6,408.9,793.4,413.2 M789.9,409.1h-1.5v-7h-1.3l-4.7,7.1v0.8h4.8v3.1h1.2v-3.1h1.6L789.9,409.1z M783.7,409.1
			l2.7-3.9c0.3-0.5,0.6-1.1,0.9-1.6h0.1c0,0.5-0.1,1.4-0.1,2v3.6L783.7,409.1z M777.3,412.3c-1.5,0-2.3-1.2-2.3-3.2s1.1-3.2,2.5-3.2
			c0.8,0,1.5,0.3,2.1,0.9v4.4C779,411.8,778.2,412.2,777.3,412.3 M777.1,413.3c1,0,1.9-0.5,2.5-1.2l0,0l0.1,1h1v-11.9h-1.2v3.2
			l0.1,1.4c-0.6-0.6-1.4-1-2.3-1c-1.9,0-3.5,1.6-3.5,4.3S775,413.4,777.1,413.3 M766.7,416.7c1.6,0,2.4-1.2,3-2.8l3.1-8.9h-1.2
			l-1.5,4.6c-0.2,0.7-0.5,1.5-0.7,2.3h-0.1c-0.3-0.7-0.5-1.6-0.8-2.3l-1.7-4.6h-1.3l3.3,8.1l-0.2,0.6c-0.4,1-1,1.8-1.9,1.8
			c-0.2,0-0.4,0-0.6-0.1l-0.2,1C766.1,416.7,766.4,416.7,766.7,416.7 M765.8,401.3c-0.4-0.2-0.9-0.3-1.3-0.3c-1.5,0-2.3,1-2.3,2.6
			v1.4l-1.1,0.1v0.9h1.1v7.1h1.2v-7.1h1.7v-1h-1.7v-1.4c0-1.1,0.4-1.6,1.2-1.6c0.3,0,0.6,0.1,0.9,0.2L765.8,401.3z M756,412.3
			c-1.5,0-2.5-1.3-2.5-3.2s1-3.2,2.5-3.2s2.5,1.3,2.5,3.2S757.5,412.3,756,412.3 M756,413.3c2,0,3.7-1.6,3.7-4.2s-1.8-4.3-3.7-4.3
			s-3.7,1.6-3.7,4.3S754.1,413.3,756,413.3 M744.7,413.1h1.3l1.2-2c0.3-0.5,0.5-1,0.8-1.5h0.1c0.3,0.5,0.6,1,0.9,1.5l1.2,2h1.3
			l-2.6-4l2.5-4h-1.3l-1.1,1.8l-0.8,1.4h-0.1c-0.3-0.5-0.6-0.9-0.8-1.4l-1.1-1.8H745l2.5,3.9L744.7,413.1z"/>
		<path class="st0" d="M841.9,396.1c-1.5,0-2.4-0.6-2.4-1.5c0-0.6,0.4-1.2,0.9-1.5c0.3,0.1,0.7,0.1,1,0.1h1.5c1.1,0,1.7,0.3,1.7,1.1
			S843.6,396.1,841.9,396.1 M841.7,389.8c-1,0-1.8-0.9-1.8-1.9c0,0,0-0.1,0-0.1c-0.1-1,0.7-1.9,1.7-1.9c1-0.1,1.9,0.7,1.9,1.7
			c0,0.1,0,0.2,0,0.3C843.6,388.8,842.8,389.7,841.7,389.8C841.7,389.8,841.7,389.8,841.7,389.8 M841.7,397c2.5,0,4-1.3,4-2.8
			s-0.9-1.9-2.8-1.9h-1.6c-1.1,0-1.4-0.4-1.4-0.9c0-0.4,0.2-0.8,0.5-1c0.4,0.2,0.8,0.3,1.2,0.3c1.5,0.1,2.8-1.1,2.9-2.6
			c0-0.1,0-0.1,0-0.2c0-0.7-0.2-1.3-0.7-1.8h1.7v-0.9h-2.8c-0.4-0.1-0.7-0.2-1.1-0.2c-1.6-0.1-2.9,1.1-3,2.7c-0.1,0.9,0.3,1.8,1,2.4
			v0c-0.5,0.3-0.8,0.9-0.9,1.5c0,0.5,0.3,1.1,0.7,1.3v0.1c-0.7,0.4-1.1,1.1-1.2,1.9C838.3,396.1,839.6,396.9,841.7,397 M830,393.2
			h1.2v-5.9c0.5-0.8,1.4-1.2,2.3-1.3c1.1,0,1.6,0.7,1.6,2.2v5h1.2v-5.1c0-2.1-0.8-3.2-2.5-3.2c-1.1,0.1-2,0.6-2.7,1.4l0,0l-0.2-1.2
			h-1V393.2z M824.1,392.4c-1.5,0-2.5-1.3-2.5-3.2s1-3.2,2.5-3.2s2.5,1.3,2.5,3.2S825.5,392.4,824.1,392.4 M824.1,393.4
			c2,0,3.7-1.6,3.7-4.2s-1.8-4.3-3.7-4.3s-3.7,1.6-3.7,4.3S822.1,393.4,824.1,393.4 M813.4,396.7c1.6,0,2.4-1.2,3-2.8l3.1-8.9h-1.2
			l-1.5,4.6c-0.2,0.7-0.5,1.5-0.7,2.3H816c-0.3-0.7-0.5-1.6-0.8-2.3l-1.7-4.6h-1.3l3.3,8.1l-0.2,0.6c-0.4,1-1,1.8-1.9,1.8
			c-0.2,0-0.4,0-0.6-0.1l-0.3,1C812.7,396.7,813,396.8,813.4,396.7 M807.2,393.2h1.2v-5.3c0.5-1.4,1.4-1.9,2.1-1.9
			c0.3,0,0.5,0,0.8,0.1l0.2-1.1c-0.3-0.1-0.6-0.2-0.9-0.2c-1,0.1-1.9,0.8-2.3,1.7l0,0l-0.1-1.5h-1L807.2,393.2z M801.3,388h3.8v-1
			h-3.8V388z M794.4,388.6c0-1.4,1-2.6,2.4-2.7c1.3,0,2.1,0.9,2.1,2.7H794.4z M797,393.4c0.9,0,1.9-0.3,2.7-0.8l-0.5-0.8
			c-0.6,0.4-1.3,0.7-2,0.7c-1.5,0-2.8-1.3-2.8-2.8c0-0.1,0-0.1,0-0.2h5.5c0-0.2,0.1-0.5,0.1-0.7c0-2.3-1.2-3.8-3.2-3.8
			c-1.9,0-3.6,1.6-3.6,4.3S794.9,393.4,797,393.4 M787.6,392.4c-0.7,0.1-1.4-0.4-1.5-1.1c0-0.1,0-0.2,0-0.3c0-1.1,1-1.8,3.8-2.1v2.4
			C789.3,392,788.5,392.4,787.6,392.4 M787.2,393.4c1-0.1,2-0.5,2.7-1.2l0,0l0.1,1h1v-5c0-2-0.8-3.3-2.7-3.3c-1.1,0-2.2,0.4-3.2,1.1
			l0.5,0.9c0.7-0.5,1.6-0.9,2.5-0.9c1.4,0,1.7,1.1,1.7,2.2c-3.5,0.4-5,1.3-5,3c-0.1,1.2,0.9,2.2,2,2.3
			C787,393.5,787.1,393.4,787.2,393.4 M782.7,393.4c0.5,0,1-0.1,1.4-0.3l-0.2-0.9c-0.3,0.1-0.6,0.2-1,0.2c-1,0-1.3-0.6-1.3-1.6v-4.7
			h2.2v-1h-2.2v-2.3h-1l-0.1,2.3l-1.3,0.1v0.9h1.2v4.6C780.5,392.4,781,393.4,782.7,393.4 M771.7,395.6c1.2-0.5,2-1.7,2.1-3
			c0-0.9-0.4-1.5-1.1-1.5c-0.5-0.1-0.9,0.3-1,0.8c0,0,0,0.1,0,0.1c0,0.5,0.4,0.9,0.9,0.9c0,0,0,0,0.1,0h0.2c0,0.9-0.6,1.7-1.5,2
			L771.7,395.6z M758.2,393.2h1.2v-5.9c0.5-0.7,1.3-1.2,2.1-1.3c1.1,0,1.6,0.7,1.6,2.2v5h1.2v-5.9c0.5-0.7,1.3-1.2,2.1-1.3
			c1.1,0,1.6,0.7,1.6,2.2v5h1.2v-5.1c0-2.1-0.8-3.2-2.5-3.2c-1.1,0.1-2.1,0.7-2.7,1.6c-0.3-1-1.2-1.7-2.2-1.6
			c-1,0.1-1.9,0.6-2.5,1.4l0,0l-0.1-1.2h-1L758.2,393.2z M754.8,383.4c0.5,0,0.9-0.3,0.9-0.8c0,0,0,0,0,0c0-0.5-0.4-0.8-0.8-0.8
			c0,0,0,0-0.1,0c-0.4,0-0.8,0.3-0.9,0.7c0,0,0,0.1,0,0.1C753.9,383,754.3,383.4,754.8,383.4C754.8,383.4,754.8,383.4,754.8,383.4
			 M754.2,393.2h1.2v-8.1h-1.2V393.2z M746,393.2h1.2v-2.1l1.6-1.9l2.5,4h1.3l-3.1-4.9l2.7-3.2h-1.3l-3.6,4.4l0,0v-8.3H746
			L746,393.2z"/>
		<path class="st0" d="M867.2,373.2h2.2v-9.3h3.2v-1.8h-8.5v1.8h3.1V373.2z M855.8,373.2h7v-1.9H858v-3h3.9v-1.9H858v-2.6h4.6v-1.8
			h-6.8L855.8,373.2z M849.8,373.4c2.6,0,4.1-1.5,4.1-3.4c0-1.4-0.9-2.6-2.2-3l-1.5-0.6c-0.9-0.4-1.7-0.7-1.7-1.5s0.6-1.2,1.6-1.2
			c0.9,0,1.7,0.3,2.3,0.9l1.1-1.4c-0.9-0.9-2.2-1.4-3.5-1.4c-2.2,0-3.8,1.4-3.8,3.2c0,1.4,0.9,2.6,2.2,3l1.5,0.6
			c1,0.4,1.7,0.7,1.7,1.5s-0.6,1.3-1.8,1.3c-1.1-0.1-2.1-0.5-2.8-1.2l-1.3,1.5C846.8,372.8,848.2,373.4,849.8,373.4 M835,373.2h2.2
			v-9.3h3.2v-1.8h-8.5v1.8h3.1V373.2z M821.6,373.2h2.1v-4.5c0-1.3-0.2-2.7-0.3-3.9h0.1l1.1,2.4l3.2,5.9h2.2v-11.1h-2v4.4
			c0,1.3,0.2,2.7,0.3,3.9h-0.1l-1.1-2.4l-3.2-5.9h-2.3L821.6,373.2z M812.3,373.2h7v-1.9h-4.8v-3h3.9v-1.9h-3.9v-2.6h4.6v-1.8h-6.8
			L812.3,373.2z M801.1,373.2h2.1v-4.5c0-1.3-0.2-2.7-0.3-3.9h0.1l1.1,2.4l3.2,5.9h2.2v-11.1h-2.1v4.4c0,1.3,0.2,2.7,0.3,3.9h-0.1
			l-1.1-2.4l-3.2-5.9h-2.3V373.2z M794,371.5c-1.7,0-2.7-1.5-2.7-3.9s1-3.8,2.7-3.8s2.7,1.4,2.7,3.8S795.7,371.5,794,371.5
			 M794,373.4c2.9,0,5-2.2,5-5.8s-2-5.7-5-5.7s-5,2.1-5,5.7S791,373.4,794,373.4 M781.8,367.5v-3.6h1.3c1.5,0,2.3,0.4,2.3,1.7
			s-0.7,1.9-2.3,1.9L781.8,367.5z M779.6,373.2h2.2v-4h1.5c2.4,0,4.3-1.1,4.3-3.7s-1.9-3.5-4.3-3.5h-3.6L779.6,373.2z M766.8,373.2
			h2v-4.6c0-1-0.2-2.6-0.3-3.6h0.1l0.9,2.6l1.7,4.7h1.3l1.7-4.7l0.9-2.6h0.1c-0.1,1-0.3,2.6-0.3,3.6v4.6h2v-11.1h-2.5l-1.8,5.2
			c-0.2,0.7-0.4,1.4-0.7,2.1h-0.1c-0.2-0.7-0.4-1.5-0.7-2.1l-1.9-5.2h-2.5L766.8,373.2z M759.6,371.5c-1.7,0-2.7-1.5-2.7-3.9
			s1-3.8,2.7-3.8s2.7,1.4,2.7,3.8S761.3,371.5,759.6,371.5 M759.6,373.4c2.9,0,5-2.2,5-5.8s-2-5.7-5-5.7s-5,2.1-5,5.7
			S756.6,373.4,759.6,373.4 M750.5,373.4c1.4,0,2.7-0.6,3.5-1.6l-1.2-1.4c-0.6,0.7-1.4,1.1-2.3,1.1c-1.8,0-2.9-1.5-2.9-3.9
			s1.3-3.8,2.9-3.8c0.8,0,1.5,0.4,2,0.9l1.2-1.4c-0.8-0.9-2-1.4-3.3-1.4c-2.8,0-5.2,2.1-5.2,5.8S747.6,373.4,750.5,373.4"/>
		<circle class="st3" cx="581.7" cy="410" r="49.4"/>
		<path class="st0" d="M556,424.9c1.1,4,2.9,7.8,5.3,11.2c2.2,3.1,5.2,5.5,8.6,7.2c3.6,1.7,7.6,2.6,11.7,2.5
			c3.7,0.1,7.3-0.7,10.6-2.2c3.1-1.5,5.9-3.6,8.1-6.3l3.8,3.3l1.4-1.7l1.2-13.4l-2.4-2.1l-13.1,2.9l-1.4,1.7l3.9,3.3
			c-2.8,3.3-6.8,5-12.1,5c-2.9,0.1-5.7-0.6-8.2-1.9c-2.3-1.3-4.2-3.1-5.6-5.4c-1.5-2.5-2.6-5.3-3.2-8.2c-1.4-6.9-1.4-14,0-20.9
			c0.6-2.9,1.7-5.7,3.2-8.2c1.4-2.2,3.3-4.1,5.6-5.4c2.5-1.3,5.4-2,8.2-1.9c5.3,0,9.3,1.6,12.1,5l-3.9,3.3l1.4,1.7l13.1,2.9l2.4-2.1
			l-1.2-13.4l-1.4-1.7l-3.8,3.3c-2.2-2.7-5-4.8-8.1-6.3c-3.3-1.5-7-2.3-10.6-2.2c-4-0.1-8,0.8-11.7,2.5c-3.4,1.7-6.3,4.1-8.6,7.2
			c-2.4,3.4-4.2,7.1-5.3,11.1C553.5,405.5,553.5,415.5,556,424.9 M558.2,396.9c0.9-3.7,2.5-7.3,4.7-10.4c2-2.8,4.7-5.1,7.8-6.6
			c3.4-1.6,7.1-2.4,10.9-2.3c3.7-0.1,7.4,0.8,10.6,2.5c3,1.7,5.7,4,7.7,6.9l3.6-3.1l0.9,11.4l-11.2-2.4l3.5-3
			c-3.2-5-8.2-7.5-15.1-7.5c-3.2-0.1-6.4,0.6-9.3,2.1c-2.5,1.4-4.7,3.5-6.2,5.9c-1.7,2.8-2.9,5.8-3.6,9c-1.7,7.4-1.7,15,0,22.4
			c0.7,3.2,1.9,6.2,3.6,8.9c1.5,2.5,3.7,4.5,6.2,5.9c2.9,1.5,6.1,2.2,9.3,2.1c6.8,0,11.9-2.5,15.1-7.5l-3.5-3l11.2-2.4l-0.9,11.4
			l-3.6-3.1c-2,2.8-4.6,5.2-7.7,6.9c-3.3,1.7-6.9,2.6-10.6,2.5c-3.8,0.1-7.5-0.7-10.9-2.3c-3.1-1.5-5.8-3.8-7.8-6.6
			c-2.2-3.2-3.8-6.7-4.7-10.4C555.9,415.2,555.9,405.8,558.2,396.9"/>
	</g>
</g>
<rect y="40" class="st4" width="451.5" height="420"/>
<g>
	<g>
		<path class="st5" d="M223.7,238.5l-0.6,0.6v5.1l0.6,0.6l75.8-9.6l0.6-1.3v-3.8l-0.6-1.3L223.7,238.5z M316.7,388.2H200.2v-19.1
			h116.5L316.7,388.2z M191.3,141.8c0-11.5,1.3-17.8,9.6-17.8s9.6,6.4,9.6,17.8l1.9,58.6c-0.2,3.3,2.3,6.2,5.6,6.4
			c0.3,0,0.5,0,0.8,0h2.6c3.3,0.2,6.2-2.3,6.4-5.6c0-0.3,0-0.5,0-0.8l1.9-84c0-11.5,1.3-17.8,9.6-17.8s9.6,6.4,9.6,17.8l1.9,80.9
			c-0.2,3.3,2.3,6.2,5.6,6.4c0.3,0,0.5,0,0.8,0h2.5c3.3,0.2,6.2-2.3,6.4-5.6c0-0.3,0-0.5,0-0.8l1.9-93.6c0-11.5,1.3-17.8,9.5-17.8
			s9.5,6.4,9.5,17.8l1.9,90.4c-0.2,3.3,2.3,6.2,5.6,6.4c0.3,0,0.5,0,0.8,0h2.5c3.3,0.2,6.2-2.3,6.4-5.6c0-0.3,0-0.5,0-0.8l1.9-71.3
			c0-11.5,1.3-17.8,9.5-17.8s9.5,6.4,9.5,17.8V180c-3.2,3.8-5.1,10.2-5.7,19.1l-5.7,41.4c-1.3,8.3-3.2,11.5-7.6,14l-42,22.9
			c-4.5,3.2-7,7-7,12.7V322l0.6,0.6l5.1-0.6l0.6-0.6V292c0-3.8,1.3-7.6,4.5-9.5l41.4-22.9c6.4-3.2,8.9-8.9,10.2-17.8l6.4-42.7
			c1.9-11.5,2.5-17.8,10.8-17.8s10.8,6.4,10.8,17.8v16.6c0,13.4,0,24.8,1.3,38.2c0.6,4.5-0.6,11.5-3.8,16.6l-28,45.2
			c-4.5,7.6-6.4,19.7-6.4,27.4v19.7l-103.1,0.6v-12.7l-0.6-3.2c-6.4-19.1-15.3-54.1-15.3-71.9L191.3,141.8z M256.9,197.2l-1.9-80.9
			c-0.6-17.2-4.5-24.8-15.9-24.8c-10.2,0-15.9,8.3-15.9,24.8l-1.9,84h-2.6l-1.9-58.6c-0.6-17.2-4.5-24.8-15.9-24.8
			c-10.2,0-15.9,8.3-15.9,24.8v131.2c0,18.5,7.6,52.8,15.3,74.5l0.6,3.2v12.7h-6.4l-0.6,0.6v24.2h-2.6l-0.6,0.6v31.8l0.6,0.6h134.4
			l0.6-0.6v-31.8l-0.6-0.6h-2.5v-24.8l-0.6-0.6h-5.7v-21c0-9.5,2.5-17.2,7.6-26.1l24.8-40.1c4.4-6.8,6.4-14.9,5.7-22.9
			c-1.3-13.4-1.3-24.2-1.3-36.9v-16.6c-0.6-17.2-5.7-24.8-17.2-24.8c-1.9,0-3.8,0-5.1,0.6v-52.2c-0.6-17.2-4.5-24.8-15.9-24.8
			c-10.2,0-15.9,8.3-15.9,24.8l-1.9,71.3H295l-1.9-90.4c-0.6-17.2-4.5-24.8-15.9-24.8c-10.2,0-15.9,8.2-15.9,24.8l-1.9,93.6H256.9z"
			/>
		<path class="st6" d="M223.7,238.5l-0.6,0.6v5.1l0.6,0.6l75.8-9.6l0.6-1.3v-3.8l-0.6-1.3L223.7,238.5z M316.7,388.2H200.2v-19.1
			h116.5L316.7,388.2z M191.3,141.8c0-11.5,1.3-17.8,9.6-17.8s9.6,6.4,9.6,17.8l1.9,58.6c-0.2,3.3,2.3,6.2,5.6,6.4
			c0.3,0,0.5,0,0.8,0h2.6c3.3,0.2,6.2-2.3,6.4-5.6c0-0.3,0-0.5,0-0.8l1.9-84c0-11.5,1.3-17.8,9.6-17.8s9.6,6.4,9.6,17.8l1.9,80.9
			c-0.2,3.3,2.3,6.2,5.6,6.4c0.3,0,0.5,0,0.8,0h2.5c3.3,0.2,6.2-2.3,6.4-5.6c0-0.3,0-0.5,0-0.8l1.9-93.6c0-11.5,1.3-17.8,9.5-17.8
			s9.5,6.4,9.5,17.8l1.9,90.4c-0.2,3.3,2.3,6.2,5.6,6.4c0.3,0,0.5,0,0.8,0h2.5c3.3,0.2,6.2-2.3,6.4-5.6c0-0.3,0-0.5,0-0.8l1.9-71.3
			c0-11.5,1.3-17.8,9.5-17.8s9.5,6.4,9.5,17.8V180c-3.2,3.8-5.1,10.2-5.7,19.1l-5.7,41.4c-1.3,8.3-3.2,11.5-7.6,14l-42,22.9
			c-4.5,3.2-7,7-7,12.7V322l0.6,0.6l5.1-0.6l0.6-0.6V292c0-3.8,1.3-7.6,4.5-9.5l41.4-22.9c6.4-3.2,8.9-8.9,10.2-17.8l6.4-42.7
			c1.9-11.5,2.5-17.8,10.8-17.8s10.8,6.4,10.8,17.8v16.6c0,13.4,0,24.8,1.3,38.2c0.6,4.5-0.6,11.5-3.8,16.6l-28,45.2
			c-4.5,7.6-6.4,19.7-6.4,27.4v19.7l-103.1,0.6v-12.7l-0.6-3.2c-6.4-19.1-15.3-54.1-15.3-71.9L191.3,141.8z M256.9,197.2l-1.9-80.9
			c-0.6-17.2-4.5-24.8-15.9-24.8c-10.2,0-15.9,8.3-15.9,24.8l-1.9,84h-2.6l-1.9-58.6c-0.6-17.2-4.5-24.8-15.9-24.8
			c-10.2,0-15.9,8.3-15.9,24.8v131.2c0,18.5,7.6,52.8,15.3,74.5l0.6,3.2v12.7h-6.4l-0.6,0.6v24.2h-2.6l-0.6,0.6v31.8l0.6,0.6h134.4
			l0.6-0.6v-31.8l-0.6-0.6h-2.5v-24.8l-0.6-0.6h-5.7v-21c0-9.5,2.5-17.2,7.6-26.1l24.8-40.1c4.4-6.8,6.4-14.9,5.7-22.9
			c-1.3-13.4-1.3-24.2-1.3-36.9v-16.6c-0.6-17.2-5.7-24.8-17.2-24.8c-1.9,0-3.8,0-5.1,0.6v-52.2c-0.6-17.2-4.5-24.8-15.9-24.8
			c-10.2,0-15.9,8.3-15.9,24.8l-1.9,71.3H295l-1.9-90.4c-0.6-17.2-4.5-24.8-15.9-24.8c-10.2,0-15.9,8.2-15.9,24.8l-1.9,93.6H256.9z"
			/>
		<path class="st7" d="M71,287c0.2,0.5,0.5,1,0.9,1.4c1.7,1.7,4.6,1.7,6.3,0c1.7-1.7,1.7-4.5,0-6.3c-1.7-1.7-4.6-1.7-6.3,0
			C70.7,283.4,70.3,285.3,71,287 M77.1,287.3c-1.1,1.1-2.9,1.1-4.1,0c-1.1-1.2-1.1-2.9,0-4.1c1.1-1.1,2.9-1.1,4.1,0
			C78.2,284.4,78.2,286.2,77.1,287.3 M65.9,245.3c-2,0.1-4.1,0.2-6.3,0.3c-2.2,0.1-4.3,0.1-6.3,0.1v1.6h3l3.2-0.1l3.2-0.1
			c1.1,0,2.1-0.1,3.1-0.1L65.9,245.3z M69.2,259c-2.4,0.9-4.9,1.6-7.4,2c-2.8,0.4-5.6,0.6-8.4,0.5l-0.1,1.6c2.9,0.1,5.8-0.1,8.7-0.6
			c2.6-0.4,5.3-1.1,7.8-2L69.2,259z M53.3,263l1.6-0.4v-15.7h-1.6V263z M83,253.8h-7.2l-0.8,0.8l0.8,0.9l7.2,0.1L83,253.8z
			 M74.2,272.8h1.6v-35.9h-1.6L74.2,272.8z M69.6,215.3c-2.5,0.8-5.1,1.4-7.7,1.9c-2.8,0.5-5.6,0.8-8.4,0.9l-0.1,1.6
			c2.9-0.1,5.8-0.5,8.7-1c2.7-0.5,5.4-1.2,7.9-1.9L69.6,215.3z M53.4,219.7l1.6-0.4V202h-1.6L53.4,219.7z M74.2,229.6h1.6v-35.9
			h-1.6L74.2,229.6z M78.4,161.1l-9-4.7l-0.8,1.5c1.6,0.8,3,1.6,4.4,2.3c1.4,0.7,2.9,1.5,4.5,2.4L78.4,161.1z M57.5,162.9
			c2.9-0.8,5.6-2.4,7.7-4.5c2-2.1,3.5-4.8,4.1-7.7l-1.6-0.4c-0.4,1.4-0.9,2.7-1.5,4c-0.6,1.1-1.3,2.2-2.2,3.1
			c-0.9,0.9-2,1.7-3.1,2.3c-1.3,0.7-2.7,1.3-4.1,1.8L57.5,162.9z M75.8,185.3h-16v-1.7h16V185.3z M75.8,178.2
			c-1.1,0.1-2.3,0.1-3.7,0.1l-4.3,0.1c-1.5,0-2.9,0.1-4.3,0.1h-3.6V177h3.7c1.4,0,2.8,0,4.3-0.1l4.3-0.1c1.4,0,2.6-0.1,3.7-0.1
			L75.8,178.2z M75.8,184.3h-1.6v-12.2h1.6L75.8,184.3z M59.8,172.8h1.6v11.7h-1.6V172.8z M47.6,167.4c2.7,0,5.5,0,8.5-0.1
			c3,0,5.9-0.1,8.9-0.2c3-0.1,5.9-0.2,8.8-0.3s5.7-0.3,8.3-0.4v1.7c-2.6,0.2-5.3,0.3-8.2,0.4s-5.8,0.2-8.8,0.3
			c-3,0.1-5.9,0.1-8.9,0.2c-3,0-5.8,0.1-8.4,0.1L47.6,167.4z M75.8,139.9H59.4v1.7h16.4V139.9z M83,118.1h-7.2l-0.8,0.8l0.8,0.9
			l7.2,0.1L83,118.1z M53.1,123.4l1.6-0.4v-10.5h-1.6V123.4z M65.8,112.2c-2,0.1-4.1,0.2-6.3,0.2c-2.2,0-4.3,0-6.3,0l0.1,1.6
			c2,0,4.1,0,6.2,0s4.3-0.1,6.3-0.2L65.8,112.2z M64.2,123.6h1.6v-10.3h-1.6V123.6z M65.8,122.7H53.1v1.7h12.7V122.7z M74.2,125.7
			h1.6v-18.3h-1.6L74.2,125.7z M75.8,132.5c-1.1,0.1-2.3,0.1-3.7,0.1l-4.4,0.1c-1.5,0-3,0.1-4.4,0.1h-3.7v1.6h3.7
			c1.4,0,2.9,0,4.4-0.1l4.4-0.1c1.4,0,2.7,0,3.8-0.1L75.8,132.5z M75.8,127.8h-1.6v12.9h1.6L75.8,127.8z M59.4,141.1H61v-12.9h-1.6
			V141.1z M76,70.3c-1.2,0.1-2.6,0.1-4.3,0.2c-1.7,0.1-3.4,0.1-5.2,0.1l-5.1,0.1c-1.6,0-3,0-4.1,0l0.1,1.7c1,0,2.3,0,3.8,0l4.7-0.1
			l4.8-0.1c1.5,0,2.9,0,3.9-0.1L76,70.3z M73.6,85.6c0.3-1.1,0.6-2.3,0.8-3.6c0.3-1.3,0.5-2.6,0.7-3.9c0.2-1.3,0.4-2.7,0.6-4
			c0.2-1.3,0.3-2.6,0.4-3.8l-1.7,0.6c-0.1,1-0.2,2.1-0.3,3.4c-0.1,1.2-0.3,2.5-0.5,3.8c-0.2,1.3-0.4,2.6-0.7,3.8
			c-0.3,1.3-0.5,2.4-0.8,3.5L73.6,85.6z M48.9,94.8c2.7,0,5.4,0,8.3-0.1c2.8,0,5.7-0.1,8.5-0.2c2.8-0.1,5.6-0.2,8.4-0.3
			c2.8-0.1,5.5-0.3,8.1-0.4v-1.7c-2.6,0.2-5.3,0.3-8.1,0.4c-2.8,0.1-5.6,0.2-8.5,0.3C62.6,92.9,59.8,93,57,93
			c-2.8,0-5.6,0.1-8.3,0.1L48.9,94.8z M63.1,93.8h1.6V80.6h-1.6L63.1,93.8z"/>
	</g>
</g>
<line class="st8" x1="122.4" y1="40" x2="122.4" y2="460"/>
<line class="st8" x1="414.5" y1="40" x2="414.5" y2="460"/>
</svg>
