<svg id="Layer_1" data-name="Layer 1" xmlns="http://www.w3.org/2000/svg" xmlns:xlink="http://www.w3.org/1999/xlink" viewBox="0 0 943.3 750"><defs><style>.cls-1,.cls-4{fill:none;}.cls-2{clip-path:url(#clip-path);}.cls-3{fill:#231815;}.cls-4{stroke:#231815;stroke-width:0.5px;}</style><clipPath id="clip-path"><rect class="cls-1" width="943.31" height="460.4"/></clipPath></defs><title>SAN대지 14</title><g class="cls-2"><path class="cls-3" d="M546.92,145.56a2,2,0,0,0,1.09,1.1,2.06,2.06,0,0,0,1.59,0,2,2,0,0,0,.66-.44,2.08,2.08,0,0,0,0-2.92,2,2,0,0,0-.66-.44,2.06,2.06,0,0,0-1.59,0,2.07,2.07,0,0,0-1.09,2.7m2.84.14a1.37,1.37,0,0,1-1.89,0,1.35,1.35,0,0,1,0-1.88,1.37,1.37,0,0,1,1.89,0,1.35,1.35,0,0,1,0,1.88m-6.22-20.56q-1.36.1-2.92.15t-2.9,0v.76h1.4l1.49,0,1.5-.05,1.43-.07Zm1.54,6.34a15.91,15.91,0,0,1-3.45.92,22.57,22.57,0,0,1-3.87.24l0,.74a22.4,22.4,0,0,0,4-.28,19.15,19.15,0,0,0,3.6-.92Zm-7.36,1.88.74-.2V125.9h-.74Zm13.76-4.28h-3.32l-.38.36.38.42,3.32,0Zm-4.06,8.82h.74V121.24h-.74Zm-2.16-26.62a30.26,30.26,0,0,1-3.56.88,29.24,29.24,0,0,1-3.88.44l0,.74a28.71,28.71,0,0,0,4-.46q1.89-.36,3.67-.88Zm-7.48,2,.74-.2v-8h-.74Zm9.64,4.58h.74V101.24h-.74ZM535.08,88.8l3.94,0,4.13-.07q2.07,0,4.1-.11l3.85-.15,0,.78-3.82.14-4.08.11-4.11.08-3.91,0Zm14.26-2.9-4.16-2.16-.36.68,2,1.07,2.07,1.13Zm-9.68.8a8.38,8.38,0,0,0,3.57-2.1A7.5,7.5,0,0,0,545.14,81l-.72-.18a9.25,9.25,0,0,1-.7,1.85,5.75,5.75,0,0,1-1,1.43,6.49,6.49,0,0,1-1.45,1.08,11.3,11.3,0,0,1-1.91.82Zm8.5,10.4h-7.42v-.78h7.42Zm0-3.28-1.71.06-2,0-2,0H540.8v-.76h1.7l2,0,2-.06,1.7-.07Zm0,2.82h-.74V91h.74Zm-7.42-5.34h.74v5.44h-.74Zm10.74-25.12h-3.32l-.38.36.38.42,3.32,0Zm-6.32,2.62q-1.66.34-3.42.54t-3.36.26V66.66h-.74v3.76q.86,0,1.85-.09l2-.17q1-.1,2-.25t1.82-.33ZM543.64,66q-1.58.14-3,.18l-3,.06v.78q1.5,0,3-.07t3-.15Zm-.74.4h.74V63.38h-.74Zm.74-3.4q-1.66.09-3.13.13l-3,.05.06.78,3-.06q1.45,0,3.09-.12Zm3.78,7.56h.74V61.24h-.74ZM544.6,75l-2-1.36-.4.6L544,75.5Zm-6.26,2a7.85,7.85,0,0,0,2.81-2.06,6.75,6.75,0,0,0,1.47-3.18l-.76-.16a6.32,6.32,0,0,1-1.31,2.9,7.32,7.32,0,0,1-2.65,1.92Zm12-.38-3.16-2.22-.44.64.82.57.7.5.71.53.85.64Zm-6.72.7a8.21,8.21,0,0,0,4-5.64l-.76-.16a8,8,0,0,1-1.22,3,7.62,7.62,0,0,1-2.42,2.2Zm.18-25.08h-6.32V53h6.32Zm0-4.32q-1.48.08-3.13.13t-3.13.05v.78h1.51l1.6,0,1.61-.06,1.54-.07Zm0-3.58h-.74V52.5h.74Zm-6.32,8.3h.74v-8h-.74Zm14-3.8-3.32,0-.38.37.38.43,3.32,0Zm-4.06,9.12h.74V41.24h-.74Z"/><path class="cls-3" d="M567.52,374.24a11,11,0,0,0,4-2.74,8.8,8.8,0,0,0,2.16-4.1l-.92.26a6.46,6.46,0,0,1-.69,1.84,8.16,8.16,0,0,1-1.22,1.65,9.87,9.87,0,0,1-1.69,1.41,10.71,10.71,0,0,1-2.1,1.08Zm11.74,5.8-1.94.12q-1.14.06-2.34.09l-2.35,0q-1.15,0-2,0V381q.82,0,2,0l2.36,0,2.35-.08q1.14,0,1.94-.11Zm-8.62.6h.74v-2.88h-.74Zm7.52-3.48-1.79.09-2,.06-2,0-1.73,0v.78l1.71,0,2-.05,2-.07,1.81-.08Zm-.74.38h.74v-3h-.74Zm.74-3.34-1.85.07-2.09.07-2.06.05-1.78,0,.06.78,1.77,0,2,0,2.07-.07,1.84-.08Zm-4.48-6.8-1.57.07-1.47,0-1.44,0h-1.5l.06.78,2.63,0q1.23,0,2.65-.08Zm3.74,6.12h.74v-8.28h-.74Zm-1.86-16.66-3.84-3.64-.54.58.86.79,1,.94,1,1,.91.94Zm-8.5.94a14.52,14.52,0,0,0,3.16-3.62,16,16,0,0,0,1.8-4.52l-.78-.06a18.76,18.76,0,0,1-.7,2.26,11.68,11.68,0,0,1-1,2,12.19,12.19,0,0,1-1.33,1.76,17.5,17.5,0,0,1-1.74,1.66Zm7.68-8.78-1.68.08-2.06.07-2.06,0-1.68,0,.06.78,1.65,0,2,0,2.05-.07,1.68-.08Zm2.7,12.88h.74V345.24h-.74Zm-2.36-29.08-3.36-2.14-.42.66,1.64,1.07,1.68,1.13Zm-7.64,1a10.23,10.23,0,0,0,2.54-2.09A9.57,9.57,0,0,0,571.7,329l-.78-.18a8.15,8.15,0,0,1-1.54,2.56,10.38,10.38,0,0,1-2.4,1.92Zm7.22-5.58-1.67.08-2,.07-2.05,0-1.67,0,.06.78,1.64,0,2-.05,2-.07,1.67-.08Zm-1.34-1.62q-1-.34-2-.71t-2-.79l-.28.8q1,.42,2,.77l2,.69Zm4.62,11.06H573.5v.78h4.44Zm-7.54-2.18q-.24,1.26-.6,2.53a24.46,24.46,0,0,1-.9,2.59l.74.26q.54-1.38.91-2.7a24.27,24.27,0,0,0,.59-2.68Zm7,6.36h.74V325.24h-.74Zm-2.26-7.1q-2.46.34-4.81.54t-5,.28l.16.78q2.58-.1,4.93-.32t4.73-.52Zm-1.38-18.62h-6.32V317h6.32Zm0-4.32q-1.48.08-3.13.13t-3.13,0v.76H569l1.6,0,1.61,0,1.54-.06Zm0-3.58H573v8.26h.74Zm-6.32,8.32h.74v-8h-.74Zm10,5.3h.74V305.24h-.74Zm-11.74-28.62,3.83,0,3.93-.08,3.9-.11,3.74-.14,0-.78-3.77.15q-1.95.07-3.93.11l-4,.07-3.85,0Zm8.38-.68h.74v-3.14h-.74Zm4.6-4.64-1.91.12q-1.11.06-2.28.09l-2.28,0q-1.11,0-2,0V289q.82,0,1.94,0l2.29,0,2.28-.08,1.91-.11Zm-8.42.6H571v-3.3h-.74Zm8-3.9q-.8.06-1.86.09l-2.17.06-2.15,0-1.8,0v.78l1.78,0,2.15-.05,2.17-.07,1.88-.08Zm-.74.38h.74v-3.3h-.74Zm.74-3.64-1.92.07-2.24.06-2.22.06-1.86,0,.06.78,1.84,0,2.2-.05,2.23-.07,1.91-.08Zm-12.54-8.22,3.83,0,3.93-.08,3.9-.11,3.74-.14,0-.78-3.77.15q-1.95.07-3.93.11l-4,.07-3.85,0Zm12.62-11.6-2,.08-2.27.07-2.26,0-2,0,.06.76,1.94,0,2.25,0,2.25-.06,2-.07Zm1.1,6.06-4.5-3-.42.66,1.07.72,1.15.78,1.15.79,1.07.73Zm-10.2.88a9.61,9.61,0,0,0,3.69-2.38,8.3,8.3,0,0,0,1.93-3.94l-.74-.2a7.49,7.49,0,0,1-1.77,3.66,8.64,8.64,0,0,1-3.45,2.16Zm4.72,4h.74v-4.06h-.74ZM565.16,248l3.91,0,4.11-.08,4.08-.11q2-.06,3.82-.14l0-.78-3.85.15q-2,.07-4.1.11l-4.13.07-3.94,0Zm9.06,7.32H575v-8.06h-.74Zm4-15.4-1.88.08-2.16.06-2.13,0-1.81,0,.06.78,1.64,0,2,0,2,0,1.72-.06Zm-1.2,6a27,27,0,0,0,.75-2.95,30.25,30.25,0,0,0,.45-3.07l-.8.26q0,.6-.14,1.3t-.25,1.42q-.15.72-.34,1.44t-.41,1.38Zm-11.9-23.58,3.91,0,4.11-.08,4.08-.11,3.82-.14,0-.78-3.85.15q-2,.07-4.1.11l-4.13.07-3.94,0Zm13.9,5.16-2,.12q-1.17.06-2.41.09l-2.42,0q-1.18,0-2,0v.78q.82,0,2,0l2.43,0,2.42-.08q1.17-.05,2-.11Zm-.2-9.84-1.94.12q-1.14.06-2.34.09l-2.35,0q-1.15,0-2,0v.78q.82,0,2,0l2.36,0,2.35-.08,1.94-.11Zm-8.62,1H571v-4.84h-.74Zm0,9.84H571v-4.34h-.74Zm1.86-22.29a2.75,2.75,0,0,0,1.5-1.57,2.91,2.91,0,0,0,0-2.12,2.75,2.75,0,0,0-1.5-1.57,3.4,3.4,0,0,0-2.56,0,2.75,2.75,0,0,0-1.5,1.57,2.91,2.91,0,0,0,0,2.12,2.75,2.75,0,0,0,1.5,1.57,3.4,3.4,0,0,0,2.56,0m-2.28-.66a2,2,0,0,1-.69-.5,2.2,2.2,0,0,1-.41-.69,2.21,2.21,0,0,1,0-1.55,2.16,2.16,0,0,1,.41-.7,2,2,0,0,1,.69-.5,2.7,2.7,0,0,1,2,0,2,2,0,0,1,.7.5,2.16,2.16,0,0,1,.41.7,2.21,2.21,0,0,1,0,1.55,2.2,2.2,0,0,1-.41.69,2,2,0,0,1-.7.5,2.7,2.7,0,0,1-2,0m11.66-4.37h-3.32l-.38.36.38.42,3.32,0Zm-6.82-2.88-1.79.08-2.3.07-2.3,0-1.79,0,.06.78h1.09l1.4,0,1.55,0,1.56,0,1.41-.05,1.11,0ZM573,196.06q-1.08-.34-2.08-.73t-2.06-.85l-.28.82q1,.44,2.06.81l2.06.71Zm4.44,13.84h.74V193.24h-.74Zm-4.24-25.66-2.7-3.44-.58.48q.66.8,1.36,1.7t1.28,1.72Zm-.68-7.16q-1.36.1-3,.14t-3,0l.06.76h1.4l1.5,0,1.51-.05,1.43-.07ZM566.6,185a14,14,0,0,0,1.44-1.63,12.46,12.46,0,0,0,1.08-1.72,11.72,11.72,0,0,0,.77-1.88,14.78,14.78,0,0,0,.49-2.15l-.78,0a15.6,15.6,0,0,1-.47,2,10.68,10.68,0,0,1-.72,1.77,10.89,10.89,0,0,1-1,1.6A13,13,0,0,1,566,184.5Zm11.06-4.7h-3.1v.78h3.1Zm-3.36,7.58H575V174.44h-.74Zm3.14,2h.74V173.24h-.74Zm-12.28-26.56,3.91,0,4.11-.08,4.08-.11,3.82-.14,0-.78-3.85.15q-2,.07-4.1.11l-4.13.07-3.94,0Zm4.34-3.68a8.62,8.62,0,0,0,3.43-1.91,6.68,6.68,0,0,0,1.87-3.11l-.74-.2A6.54,6.54,0,0,1,569.2,159Zm4.52,3h.74v-3.2H574ZM578.3,154l-2,.08-2.22.07-2.2,0-1.89,0,.06.77,1.87,0,2.19,0,2.2-.06,1.94-.07Zm.92,4.86-4.28-2.14-.36.72,2.15,1.08,2.13,1.08Zm-.16,8.82-1.94.12q-1.14.06-2.34.09l-2.35,0q-1.15,0-2,0v.78q.82,0,2,0l2.36,0,2.35-.08q1.14,0,1.94-.11Zm-8.62,1h.74V165h-.74Zm-4-28.5a10,10,0,0,0,2-1.8,12.78,12.78,0,0,0,1.57-2.29,13.17,13.17,0,0,0,1-2.58,12.33,12.33,0,0,0,.47-2.71l-.78.26a10.79,10.79,0,0,1-.44,2.38,12.11,12.11,0,0,1-1,2.32,11.57,11.57,0,0,1-1.47,2.1,10.08,10.08,0,0,1-1.92,1.7Zm5.1-9.36q-1.26.06-2.57.09l-2.55,0,.06.76,2.36-.05,2.42-.07Zm3.22,3.9h-3.2v.78h3.2Zm-.48,7.2H575V128.44h-.74Zm3.16,2h.74V127.24h-.74Zm-3.12-29.42h3.54v-.78h-3.54Zm0-3.1h3.54v-.78h-3.54Zm3.84,11.12h-7.5v.78h7.5Zm-4.76-7.64h-6v.78h6Zm-.3-3.56-2.83.13q-1.39,0-2.83.05v.76q1.42,0,2.82,0l2.84-.11Zm.3-2.74h-.74v6.74h.74Zm-6,6.76h.74v-6.48h-.74Zm10,.7h.74v-8.78h-.74Zm.74,3.14-1.72.07-2,.06-2,0h-1.72v.77h1.7l2,0,2-.05,1.72-.06Zm0-2.16h-.74v5.9h.74Zm-7.5,6,.74,0v-5.92h-.74Zm3.2-32.1q-1.66.1-3.28.15l-3.18.07.06.78,2.87-.07,2.89-.11Zm-6.92,9.2a12.25,12.25,0,0,0,2.38-1.59,14.54,14.54,0,0,0,2.08-2.13,9.93,9.93,0,0,0,.83-1.25q.39-.69.71-1.41a14.15,14.15,0,0,0,.55-1.44q.23-.72.37-1.38l-.9.26a12.71,12.71,0,0,1-.75,2.37A10.24,10.24,0,0,1,570.78,96a13.18,13.18,0,0,1-2,2,12.19,12.19,0,0,1-2.26,1.48Zm10.48,3.76h.74V87.24h-.74Zm4.06-8.7h-3.32l-.38.35.38.41,3.32,0Zm0-28.22h-3.32l-.38.36.38.42,3.32,0Zm-7.7-3.44-1.57.07-1.47,0-1.44,0h-1.5l.06.78,2.63,0q1.23,0,2.65-.08Zm-6.4,8.34a14.57,14.57,0,0,0,2.16-1.66,17.33,17.33,0,0,0,1.9-2.06,14.56,14.56,0,0,0,1.47-2.28,9.72,9.72,0,0,0,.87-2.34l-.92.26a8.24,8.24,0,0,1-.76,2,12.28,12.28,0,0,1-1.33,2A15.69,15.69,0,0,1,569,69.69a17.09,17.09,0,0,1-2.12,1.61Zm10,1h.74V61.24h-.74Zm1.84,2.64-1.93.12q-1.13.06-2.34.09l-2.35,0q-1.14,0-2,0v.78q.82,0,2,0l2.35,0,2.35-.08q1.14,0,1.94-.11Zm-8.6.8h.74V72.08h-.74Zm1-32.2a2.53,2.53,0,0,1,.79.53,2.42,2.42,0,0,1,.52.78,2.36,2.36,0,0,1,0,1.86,2.42,2.42,0,0,1-.52.78,2.53,2.53,0,0,1-.79.53,2.52,2.52,0,0,1-2,0,2.52,2.52,0,0,1-.79-.53,2.42,2.42,0,0,1-.52-.78,2.36,2.36,0,0,1,0-1.86,2.42,2.42,0,0,1,.52-.78,2.52,2.52,0,0,1,.79-.53,2.52,2.52,0,0,1,2,0m.28,5.15a3.22,3.22,0,0,0,1-.69,3.3,3.3,0,0,0,.69-1,3.06,3.06,0,0,0,0-2.42,3.3,3.3,0,0,0-.69-1,3.25,3.25,0,0,0-4.59,0,3.26,3.26,0,0,0-.69,1,3.06,3.06,0,0,0,0,2.42,3.26,3.26,0,0,0,.69,1,3.29,3.29,0,0,0,3.56.69m5.48,1.21h.74V41.24h-.74Zm.74,1.38-1.94.07-2.29.06-2.27.06-1.88,0,.06.78,1.87,0,2.25-.05,2.27-.07,1.93-.08Zm-.74,5.6h.74V52.4h-.74Zm4-13.4h-3.22l-.38.36.38.42,3.22,0Zm0,3.6h-3.22l-.38.36.38.42,3.22,0Z"/><path class="cls-3" d="M603.54,389.14q-1.36.1-2.92.15t-2.9,0v.76h1.4l1.49,0,1.5-.05,1.43-.07Zm1.54,6.34a15.91,15.91,0,0,1-3.45.92,22.58,22.58,0,0,1-3.87.24l0,.74a22.39,22.39,0,0,0,4-.28,19.14,19.14,0,0,0,3.6-.92Zm-7.36,1.88.74-.2V389.9h-.74Zm13.76-4.28h-3.32l-.38.36.38.42,3.32,0Zm-4.06,8.82h.74V385.24h-.74Zm-11.74-23,3.83,0,3.93-.08,3.9-.11,3.74-.14,0-.78-3.77.15q-1.95.07-3.93.11l-4,.07-3.85,0Zm12.42-5.36h-7.42v.78h7.42Zm0-3.92-1.7.07-2,.06-2,0h-1.7v.76h1.68l2,0,2,0,1.71-.06Zm0-2.86h-.74v7h.74Zm-7.42,7.28h.74v-6.94h-.74Zm3.44,4.18h.74v-3.1h-.74Zm-.3-29.3q-1.66.1-3.31.15l-3.21.07.06.78,2.9-.07,2.92-.11Zm-7,9.2a12.25,12.25,0,0,0,2.38-1.59,14.54,14.54,0,0,0,2.08-2.13,10.79,10.79,0,0,0,.84-1.25q.4-.69.73-1.41a14.36,14.36,0,0,0,.57-1.44,12.66,12.66,0,0,0,.38-1.38l-.9.26a11.59,11.59,0,0,1-.78,2.37,11.11,11.11,0,0,1-1.46,2.41,13.19,13.19,0,0,1-2,2,12.19,12.19,0,0,1-2.26,1.48Zm10.58,3.76h.74V345.24h-.74Zm-9.12-21a6.8,6.8,0,0,0,2.92-2.17,7.6,7.6,0,0,0,1.46-3.39l-.76-.16a7.29,7.29,0,0,1-1.31,3.17,6.35,6.35,0,0,1-2.75,2Zm9.12-6.74h.74v-9h-.74Zm-2.78,4.64-1.86-1.48-.44.6,1.74,1.42Zm5.76,1.74-3-2.4-.48.64.73.58.69.56.7.58.78.66Zm-6.74.68a7.55,7.55,0,0,0,2.7-2.52,8.63,8.63,0,0,0,1.3-3.4l-.76-.16a8.43,8.43,0,0,1-1.18,3.2,6.81,6.81,0,0,1-2.5,2.28Zm-6.11-9.76a3.12,3.12,0,0,0,.69,1,3.29,3.29,0,0,0,1,.68,3.23,3.23,0,0,0,2.49,0,3.3,3.3,0,0,0,1-.68,3.15,3.15,0,0,0,.69-1,3.21,3.21,0,0,0,0-2.48,3.15,3.15,0,0,0-.69-1,3.3,3.3,0,0,0-1-.68,3.23,3.23,0,0,0-2.49,0,3.29,3.29,0,0,0-1,.68,3.18,3.18,0,0,0-.69,3.49m.68-2.19a2.54,2.54,0,0,1,.52-.79,2.36,2.36,0,0,1,.78-.53,2.59,2.59,0,0,1,1.95,0,2.36,2.36,0,0,1,.78.53,2.54,2.54,0,0,1,.52.79,2.41,2.41,0,0,1,.19.95,2.39,2.39,0,0,1-.19,1,2.58,2.58,0,0,1-.52.78,2.36,2.36,0,0,1-.78.53,2.59,2.59,0,0,1-1.95,0,2.36,2.36,0,0,1-.78-.53,2.58,2.58,0,0,1-.52-.78,2.37,2.37,0,0,1-.19-1,2.4,2.4,0,0,1,.19-.95m-1.79-17.15a10,10,0,0,0,2-1.8,12.78,12.78,0,0,0,1.57-2.29,13.17,13.17,0,0,0,1.05-2.58,12.33,12.33,0,0,0,.47-2.71l-.78.26a10.79,10.79,0,0,1-.44,2.38,12.11,12.11,0,0,1-1,2.32,11.57,11.57,0,0,1-1.47,2.1,10.08,10.08,0,0,1-1.92,1.7Zm5.1-9.36q-1.26.06-2.57.09l-2.55.05.06.76,2.36-.05,2.42-.07Zm3.22,3.9h-3.2v.78h3.2Zm-.48,7.2H605V300.44h-.74Zm3.16,2h.74V299.24h-.74Zm-3.68-30.62h4.12v-.78h-4.12Zm4.4,9.16h-7.5v.78h7.5Zm-10.7-6a11.38,11.38,0,0,0,4-2.88,9.21,9.21,0,0,0,2.1-4.12l-.92.26a7.4,7.4,0,0,1-1.85,3.51A11.15,11.15,0,0,1,597,287.8Zm6.12-7-1.56.07-1.45.05-1.43,0h-1.5l.06.78H599l1.27,0,1.28,0,1.35-.05Zm3.84,6.24h.74v-8.4h-.74Zm.74,3.14-1.72.07-2,.06-2,0h-1.72v.76h1.7l2,0,2-.05,1.72-.06Zm0-2.16h-.74v6.08h.74Zm-7.5,6.22h.74v-6.18h-.74Zm-5.5-25.9,3.91,0,4.11-.08,4.08-.11,3.82-.14,0-.78-3.85.15q-2,.07-4.1.11l-4.13.07-3.94,0Zm5.74-4h.74v-5h-.74Zm7.26-5.18-1.67.07-2,0-2,0H600.9l.06.76h1.66l1.93,0,1.93,0,1.68-.06Zm-.74,5.3h.74v-4.78h-.74Zm.74-.42H600.9v.78h7.26Zm-3.94,10.62H605v-6.9h-.74Zm-2.47-31a3.35,3.35,0,0,0,1.1-.79,3.54,3.54,0,0,0,.71-1.17,4.23,4.23,0,0,0,0-2.86,3.56,3.56,0,0,0-.71-1.17,3.43,3.43,0,0,0-5,0,3.54,3.54,0,0,0-.71,1.17,4.23,4.23,0,0,0,0,2.86,3.52,3.52,0,0,0,.71,1.17,3.34,3.34,0,0,0,1.1.79,3.6,3.6,0,0,0,2.83,0m-.29-6.12a2.64,2.64,0,0,1,.86.63,2.75,2.75,0,0,1,.55.94,3.62,3.62,0,0,1,0,2.32,2.74,2.74,0,0,1-.55.94,2.61,2.61,0,0,1-.86.63,2.86,2.86,0,0,1-2.25,0,2.61,2.61,0,0,1-.86-.63,2.74,2.74,0,0,1-.55-.94,3.62,3.62,0,0,1,0-2.32,2.75,2.75,0,0,1,.55-.94,2.64,2.64,0,0,1,.86-.63,2.86,2.86,0,0,1,2.25,0m6,11.69h.74V233.24h-.74Zm-12.26-28,3.91,0,4.11-.08,4.08-.11q2-.06,3.82-.14l0-.78-3.85.15q-2,.07-4.1.11l-4.13.07-3.94,0Zm13,2-1.67.07-2,0-2,0H600.9l.06.78h1.66l1.94,0,1.93,0,1.68-.06Zm-2.29-5a3.5,3.5,0,0,0,1.12-.6,2.8,2.8,0,0,0,0-4.36,3.48,3.48,0,0,0-1.12-.6,4.67,4.67,0,0,0-2.77,0,3.48,3.48,0,0,0-1.12.6,2.8,2.8,0,0,0,0,4.36,3.5,3.5,0,0,0,1.12.6,4.69,4.69,0,0,0,2.77,0m-2.49-.66a2.71,2.71,0,0,1-.88-.43,2,2,0,0,1-.59-.71,2.28,2.28,0,0,1,0-1.95,2,2,0,0,1,.59-.71,2.67,2.67,0,0,1,.88-.43,4.13,4.13,0,0,1,2.21,0,2.67,2.67,0,0,1,.88.43,2.06,2.06,0,0,1,.59.71,2.28,2.28,0,0,1,0,1.95,2.07,2.07,0,0,1-.59.71,2.71,2.71,0,0,1-.88.43,4.15,4.15,0,0,1-2.21,0m-2.5,10.08.76-.2v-4.09h-.76Zm6.52.15h.76v-4h-.76Zm.76-.44H600.9v.78h7.28Zm-12.5-20.92,3.83,0,3.93-.08,3.9-.11,3.74-.14,0-.78-3.77.15q-1.95.07-3.93.11l-4,.07-3.85,0Zm8.38-.68h.74v-3.86h-.74Zm-3.36-5.26h.74v-5.44h-.74Zm7.46-5.58-1.7.07-2,0-2,0H600.7l.06.76h1.69l2,0,2,0,1.72-.06Zm-.74,5.7h.74v-5.18h-.74Zm.74-.42H600.7v.78h7.46ZM597,176.4a3.78,3.78,0,0,0,.73,1.18,3.37,3.37,0,0,0,1.09.79,3.27,3.27,0,0,0,2.69,0,3.37,3.37,0,0,0,1.09-.79,3.8,3.8,0,0,0,.73-1.18,4.1,4.1,0,0,0,0-2.92,3.83,3.83,0,0,0-.73-1.18,3.4,3.4,0,0,0-1.09-.79,3.27,3.27,0,0,0-2.69,0,3.4,3.4,0,0,0-1.09.79,3.81,3.81,0,0,0-.73,1.18,4.1,4.1,0,0,0,0,2.92m.67-2.65a2.86,2.86,0,0,1,.56-1,2.67,2.67,0,0,1,.85-.63,2.51,2.51,0,0,1,1.07-.23,2.46,2.46,0,0,1,1.05.23,2.67,2.67,0,0,1,.85.63,3,3,0,0,1,.57,1,3.46,3.46,0,0,1,0,2.38,3,3,0,0,1-.57.95,2.64,2.64,0,0,1-.85.63,2.45,2.45,0,0,1-1.05.23,2.49,2.49,0,0,1-1.07-.23,2.64,2.64,0,0,1-.85-.63,2.84,2.84,0,0,1-.56-.95,3.62,3.62,0,0,1,0-2.38m10.22-1.45h-3.5v.78h3.5Zm0,4.56h-3.5v.78h3.5Zm-.44,7h.74V167.24h-.74Zm-5.32-23.69a2.75,2.75,0,0,0,1.5-1.57,2.91,2.91,0,0,0,0-2.12,2.75,2.75,0,0,0-1.5-1.57,3.4,3.4,0,0,0-2.56,0,2.75,2.75,0,0,0-1.5,1.57,2.91,2.91,0,0,0,0,2.12,2.75,2.75,0,0,0,1.5,1.57,3.4,3.4,0,0,0,2.56,0m-2.28-.66a2,2,0,0,1-.69-.5,2.18,2.18,0,0,1-.41-.69,2.24,2.24,0,0,1-.14-.78,2.28,2.28,0,0,1,.14-.77,2.17,2.17,0,0,1,.41-.7,2,2,0,0,1,.69-.5,2.7,2.7,0,0,1,2,0,2,2,0,0,1,.7.5,2.17,2.17,0,0,1,.41.7,2.28,2.28,0,0,1,.14.77,2.24,2.24,0,0,1-.14.78,2.18,2.18,0,0,1-.41.69,2,2,0,0,1-.7.5,2.7,2.7,0,0,1-2,0m11.66-4.37h-3.32l-.38.36.38.42,3.32,0Zm-6.82-2.88-1.79.08-2.3.07-2.3,0-1.79,0,.06.78h1.09l1.4,0,1.55,0,1.56,0,1.41,0,1.11-.05ZM603,150.06q-1.08-.34-2.08-.73t-2.06-.85l-.28.82q1,.44,2.06.81l2.06.71Zm4.44,13.84h.74V147.24h-.74Zm-5.24-28.26a23.62,23.62,0,0,1-2.65.58q-1.27.2-2.71.3v.76q1.45-.12,2.8-.32a22.64,22.64,0,0,0,2.72-.58Zm-4-1.92q.84,0,1.81,0t1.79-.1v-.78q-.8.08-1.78.11l-1.82,0Zm3.64-4.1q-1.28.1-2.52.13t-2.5,0v.78l2.49,0q1.23,0,2.53-.1Zm-5,7.32h.74V130h-.74Zm11.1-4.82h-3.24v.78h3.24Zm-3.7,4.72H605v-8.4h-.74Zm3.22.3h.74v-9.9h-.74Zm-5.86,4.66a2.49,2.49,0,0,0,.72.85,3.39,3.39,0,0,0,1.09.54,5.06,5.06,0,0,0,2.75,0,3.39,3.39,0,0,0,1.09-.54,2.51,2.51,0,0,0,.72-.85,2.53,2.53,0,0,0,0-2.24,2.53,2.53,0,0,0-.72-.85,3.43,3.43,0,0,0-1.09-.54,5.06,5.06,0,0,0-2.75,0,3.43,3.43,0,0,0-1.09.54,2.51,2.51,0,0,0-.72.85,2.53,2.53,0,0,0,0,2.24m1.23-2.59a3.93,3.93,0,0,1,3.87,0,1.81,1.81,0,0,1,0,2.94,3.93,3.93,0,0,1-3.87,0,1.81,1.81,0,0,1,0-2.94m2.75-20.35-3.84-3.64-.54.58.86.79,1,.94,1,1,.91.94Zm-8.5.94a14.51,14.51,0,0,0,3.16-3.62,16,16,0,0,0,1.8-4.52l-.78-.06a18.7,18.7,0,0,1-.7,2.26,11.65,11.65,0,0,1-1,2,12.14,12.14,0,0,1-1.33,1.76,17.39,17.39,0,0,1-1.74,1.66Zm7.68-8.78-1.68.08-2.06.07-2.06,0-1.68,0,.06.78,1.65,0,2,0,2-.07,1.68-.08Zm2.7,12.88h.74V107.24h-.74Zm-12.28-34,3.91,0,4.11-.08,4.08-.11,3.82-.14,0-.78-3.85.15q-2,.07-4.1.11l-4.13.07-3.94,0Zm13.5-3.62-1.88.12q-1.08.06-2.23.09l-2.24,0q-1.09,0-1.93,0v.78q.82,0,1.91,0l2.24,0,2.24-.08,1.89-.11Zm-8.28.6h.74V84.4h-.74Zm7.84-3.1q-.8.06-1.84.09l-2.12.06-2.1,0-1.78,0v.78l1.76,0,2.1-.05,2.12-.07,1.86-.08Zm-.74.38h.74v-2.5h-.74Zm.74-2.84-1.9.07-2.2.06-2.17.05-1.83,0,.06.78,1.82,0,2.15-.05,2.18-.07,1.89-.08Zm1,15-2,.12q-1.17.06-2.41.09l-2.42,0q-1.18,0-2,0v.78q.82,0,2,0l2.43,0,2.42-.08q1.17-.05,2-.11Zm-8.82.6h.74V94.4h-.74Zm7.72-3.1q-.8.06-1.82.09l-2.08.06-2.06,0-1.76,0v.78l1.74,0,2.06-.05,2.08-.07,1.84-.08Zm-.74.38h.74v-2.5h-.74Zm.74-2.84-1.88.07-2.16.06-2.13.05-1.81,0,.06.78,1.8,0,2.11-.05,2.14-.07,1.87-.08ZM596.44,74.16a10,10,0,0,0,2-1.8A12.78,12.78,0,0,0,600,70.07a13.17,13.17,0,0,0,1.05-2.58,12.33,12.33,0,0,0,.47-2.71l-.78.26a10.79,10.79,0,0,1-.44,2.38,12.11,12.11,0,0,1-1,2.32,11.57,11.57,0,0,1-1.47,2.1,10.08,10.08,0,0,1-1.92,1.7Zm5.1-9.36q-1.26.06-2.57.09l-2.55.05.06.76,2.36,0,2.42-.07Zm3.22,3.9h-3.2v.78h3.2Zm-.48,7.2H605V62.44h-.74Zm3.16,2h.74V61.24h-.74Zm-12.28-27,3.91,0,4.11-.08,4.08-.11,3.82-.14,0-.78-3.85.15q-2,.07-4.1.11l-4.13.07-3.94,0Zm5.74-4h.74v-5h-.74Zm7.26-5.18-1.67.07-2,0-2,0H600.9l.06.76h1.66l1.93,0,1.93,0,1.68-.06Zm-.74,5.3h.74V42.32h-.74Zm.74-.42H600.9v.78h7.26ZM604.22,57.3H605V50.4h-.74Z"/><path class="cls-3" d="M628.15,352.17a3.17,3.17,0,0,0,1.73,1.72,3.38,3.38,0,0,0,2.55,0,3.19,3.19,0,0,0,1-.69,3.24,3.24,0,0,0,.69-1,3.26,3.26,0,0,0,0-2.5,3.24,3.24,0,0,0-.69-1,3.19,3.19,0,0,0-1-.69,3.38,3.38,0,0,0-2.55,0,3.23,3.23,0,0,0-1.73,4.22m.68-2.22a2.45,2.45,0,0,1,.53-.79,2.59,2.59,0,0,1,.79-.54,2.57,2.57,0,0,1,2,0,2.61,2.61,0,0,1,.79.54,2.49,2.49,0,0,1,0,3.52,2.6,2.6,0,0,1-.79.54,2.57,2.57,0,0,1-2,0,2.59,2.59,0,0,1-.79-.54,2.52,2.52,0,0,1-.53-2.73m8.59,11.95h.74V345.24h-.74Zm-1.16-5.44q-1.5.26-2.78.43t-2.51.29q-1.23.12-2.5.2t-2.77.14l.16.78q1.48-.06,2.75-.16t2.49-.23q1.22-.13,2.48-.3l2.74-.39Zm-9.14-18.66a14.53,14.53,0,0,0,3.16-3.62,16,16,0,0,0,1.8-4.52l-.78-.06a18.75,18.75,0,0,1-.7,2.26,11.68,11.68,0,0,1-1,2,12.19,12.19,0,0,1-1.33,1.76,17.49,17.49,0,0,1-1.74,1.66ZM641.48,333h-3.32l-.38.36.38.42,3.32,0Zm-5.86,3.88-3.86-3.64-.52.58.86.79,1,.94,1,1,.91.94ZM634.8,329l-1.68.08-2.06.07-2.06,0-1.68,0,.06.78,1.65,0,2,0,2-.07,1.68-.08Zm2.62,12.88h.74V325.24h-.74Zm-12.26-29.78,3.91,0,4.11-.08,4.08-.11,3.82-.14,0-.78-3.85.15q-2,.07-4.1.11l-4.13.07-3.94,0Zm13.1-6.42-1.9.08-2.19.06-2.16,0-1.83,0,.06.78,1.66,0,2,0,2,0,1.74-.06Zm-.68,4.62q.14-.62.25-1.16t.19-1.06q.08-.52.14-1.1t.1-1.3l-.8.26c0,.39-.05.75-.08,1.08s-.06.66-.11,1-.11.65-.18,1-.16.7-.25,1.1Zm1.68,9.62-2,.12q-1.17.06-2.41.09l-2.42,0q-1.18,0-2,0v.78q.82,0,2,0l2.43,0,2.42-.08q1.17,0,2-.11Zm-8.82.6h.74v-2.9h-.74Zm7.72-3.5q-.8.06-1.82.09l-2.08.06-2.06,0-1.76,0V318l1.74,0,2.06,0,2.08-.07,1.84-.08Zm-.74.38h.74v-2.9h-.74Zm.74-3.24-1.88.07-2.16.07-2.13.05-1.81,0,.06.78,1.8,0,2.11-.05,2.14-.07,1.87-.08Zm-5.1-33.48q-1.1-.2-2-.42t-2.05-.56l-.16.84q1.06.3,2,.51l2,.41Zm-4.71,7.41a2.3,2.3,0,0,0,.56.82,2.8,2.8,0,0,0,.89.56,3.42,3.42,0,0,0,2.36,0,2.8,2.8,0,0,0,.89-.56,2.3,2.3,0,0,0,.56-.82,2.67,2.67,0,0,0,0-2,2.31,2.31,0,0,0-.56-.82,2.82,2.82,0,0,0-.89-.56,3.42,3.42,0,0,0-2.36,0,2.82,2.82,0,0,0-.89.56,2.32,2.32,0,0,0-.56.82,2.67,2.67,0,0,0,0,2m4.18.31a2.43,2.43,0,0,1-3.1,0,1.86,1.86,0,0,1,0-2.6,2.43,2.43,0,0,1,3.1,0,1.86,1.86,0,0,1,0,2.6m2-6-1.75.08-2.14.07-2.14,0-1.75,0,.06.78,1.72,0,2.12-.05,2.13-.07,1.75-.08Zm7,2.54h-3.32l-.38.36.38.42,3.32,0Zm-2.22,8.56-2,.12q-1.15.06-2.38.09l-2.39,0q-1.16,0-2,0v.78q.82,0,2,0l2.39,0,2.39-.08q1.16,0,2-.11Zm-8.72.8h.74V291.1h-.74Zm6.88-3.24h.74V279.24h-.74ZM632,266.21a2.93,2.93,0,0,0,.94-.65,2.77,2.77,0,0,0,.58-.92,2.91,2.91,0,0,0,0-2.12,2.75,2.75,0,0,0-.58-.92,2.9,2.9,0,0,0-.94-.65,3.4,3.4,0,0,0-2.56,0,2.9,2.9,0,0,0-.94.65,2.75,2.75,0,0,0-.58.92,2.91,2.91,0,0,0,0,2.12,2.77,2.77,0,0,0,.58.92,2.93,2.93,0,0,0,.94.65,3.4,3.4,0,0,0,2.56,0m-2.28-.66a2.08,2.08,0,0,1-1.12-1.19,2.21,2.21,0,0,1,0-1.55,2.06,2.06,0,0,1,1.12-1.2,2.7,2.7,0,0,1,2,0,2,2,0,0,1,1.13,1.2,2.21,2.21,0,0,1,0,1.55,2.11,2.11,0,0,1-.42.69,2.08,2.08,0,0,1-.71.5,2.7,2.7,0,0,1-2,0m4.88-7.27-1.12.06-1.42.05-1.58,0-1.58,0-1.43,0h-1.11l.06.78,1.76,0,2.3-.05,2.32-.07,1.8-.08Zm-1.68-2.22q-1.08-.34-2.08-.73t-2.06-.85l-.28.82q1,.44,2.06.81l2.06.71Zm4.48,13.84h.74V253.24h-.74Zm-10.26-26.52a10.66,10.66,0,0,0,3-3.05,11,11,0,0,0,1.53-4.13l-.82-.06a12.31,12.31,0,0,1-.54,2.1,8.49,8.49,0,0,1-.86,1.74,8.4,8.4,0,0,1-1.23,1.48,14.36,14.36,0,0,1-1.61,1.32Zm10.38-4.88H634v.78h3.56Zm-2.72,4.28-3.24-3.2-.52.6q.76.7,1.53,1.51l1.61,1.71Zm-.42-7.16-1.62.08-1.93.08-1.92.05-1.61,0,.06.78,1.58,0,1.9-.06,1.92-.08,1.62-.08Zm4.86,11.92-2,.12q-1.15.06-2.38.09l-2.39,0q-1.16,0-2,0v.78q.82,0,2,0l2.39,0,2.39-.08q1.16-.05,2-.11Zm-8.72.8h.74v-4.28h-.74Zm6.88-3.24h.74V233.24h-.74Zm-12.26-22,3.91,0,4.11-.08,4.08-.11,3.82-.14,0-.78-3.85.15q-2,.07-4.1.11l-4.13.07-3.94,0Zm10.76-3.7a3.39,3.39,0,0,0,1.12-.62,2.89,2.89,0,0,0,.74-1,2.86,2.86,0,0,0,0-2.43,3,3,0,0,0-.74-1,3.29,3.29,0,0,0-1.12-.63,4.67,4.67,0,0,0-2.83,0,3.28,3.28,0,0,0-1.12.63,3,3,0,0,0-.74,1,2.86,2.86,0,0,0,0,2.43,2.86,2.86,0,0,0,.74,1,3.38,3.38,0,0,0,1.12.62,4.65,4.65,0,0,0,2.83,0m.6-4.47a2.15,2.15,0,0,1,0,3.34,3.53,3.53,0,0,1-4,0,2.15,2.15,0,0,1,0-3.34,3.53,3.53,0,0,1,4,0m-2.4,7.53h.74v-3.12h-.74Zm4.94,5.08-1.94.12q-1.14.06-2.34.09l-2.35,0q-1.15,0-2,0v.78q.82,0,2,0l2.36,0,2.35-.08,1.94-.11Zm-8.62,1h.74v-3.8h-.74Zm1.31-30.21a3.36,3.36,0,0,0,1.1-.79,3.55,3.55,0,0,0,.71-1.17,4.23,4.23,0,0,0,0-2.86,3.55,3.55,0,0,0-.71-1.17,3.43,3.43,0,0,0-5,0,3.52,3.52,0,0,0-.71,1.17,4.23,4.23,0,0,0,0,2.86,3.52,3.52,0,0,0,.71,1.17,3.35,3.35,0,0,0,1.1.79,3.6,3.6,0,0,0,2.83,0m-.29-6.12a2.62,2.62,0,0,1,.86.63,2.75,2.75,0,0,1,.55.94,3.62,3.62,0,0,1,0,2.32,2.75,2.75,0,0,1-.55.94,2.62,2.62,0,0,1-.86.63,2.86,2.86,0,0,1-2.25,0,2.6,2.6,0,0,1-.86-.63,2.75,2.75,0,0,1-.55-.94,3.62,3.62,0,0,1,0-2.32,2.75,2.75,0,0,1,.55-.94,2.6,2.6,0,0,1,.86-.63,2.86,2.86,0,0,1,2.25,0m6,11.69h.74V187.24h-.74Zm-12.26-28.46,3.91,0,4.11-.08,4.08-.11,3.82-.14,0-.78-3.85.15q-2,.07-4.1.11l-4.13.07-3.94,0Zm13.48-4.26-1.86.12q-1.06.06-2.17.09l-2.17,0q-1.06,0-1.9,0v.78q.82,0,1.89,0l2.18,0,2.17-.08,1.86-.11Zm-.44-3.74-1.71.08-2.13.06-2.13,0h-1.69v.77h1.68l2.12,0,2.14,0,1.72-.07Zm-7.66,4.74.74-.2V168.2h-.74Zm4.93,6.27a2.57,2.57,0,0,1,.86.43,2.11,2.11,0,0,1,.57.67,1.85,1.85,0,0,1,0,1.71,2.13,2.13,0,0,1-.57.67,2.61,2.61,0,0,1-.86.43,3.8,3.8,0,0,1-2.12,0,2.61,2.61,0,0,1-.85-.43,2.12,2.12,0,0,1-.57-.67,1.85,1.85,0,0,1,0-1.71,2.09,2.09,0,0,1,.57-.67,2.58,2.58,0,0,1,.85-.43,3.8,3.8,0,0,1,2.12,0m.29,4.58a3.55,3.55,0,0,0,1.09-.59,2.71,2.71,0,0,0,.73-.9,2.6,2.6,0,0,0,0-2.27,2.7,2.7,0,0,0-.73-.9,3.53,3.53,0,0,0-1.09-.59,4.43,4.43,0,0,0-2.69,0,3.52,3.52,0,0,0-1.09.59,2.68,2.68,0,0,0-.73.9,2.6,2.6,0,0,0,0,2.27,2.69,2.69,0,0,0,.73.9,3.54,3.54,0,0,0,1.09.59,4.43,4.43,0,0,0,2.69,0m-1.69-5.27h.74V175h-.74Zm-.24-26.82q-1.66.1-3.31.15l-3.21.07.06.78,2.9-.07,2.92-.11Zm-7,9.2a12.25,12.25,0,0,0,2.38-1.59,14.54,14.54,0,0,0,2.08-2.13,10.79,10.79,0,0,0,.84-1.25q.4-.69.73-1.41a14.33,14.33,0,0,0,.57-1.44,12.66,12.66,0,0,0,.38-1.38l-.9.26a11.59,11.59,0,0,1-.78,2.37,11.1,11.1,0,0,1-1.46,2.41,13.18,13.18,0,0,1-2,2,12.19,12.19,0,0,1-2.26,1.48Zm10.58,3.76h.74V147.24h-.74Zm-11.74-22.62,3.83,0,3.93-.08,3.9-.11,3.74-.14,0-.78-3.77.15q-1.95.07-3.93.11l-4,.07-3.85,0Zm8.38-.68h.74v-3.14h-.74Zm4.6-4.64-1.91.12q-1.11.06-2.28.09l-2.28,0q-1.11,0-2,0V137q.82,0,1.94,0l2.29,0,2.28-.08,1.91-.11Zm-8.42.6H631v-3.3h-.74Zm8-3.9q-.8.06-1.86.09l-2.17.06-2.15,0-1.8,0v.78l1.78,0,2.15-.05,2.17-.07,1.88-.08Zm-.74.38h.74v-3.3h-.74Zm.74-3.64-1.92.07-2.24.06-2.22.05-1.86,0,.06.78,1.84,0,2.2,0,2.23-.07,1.91-.08Zm-12.16-9.92a10.16,10.16,0,0,0,1.66-1.84,10.73,10.73,0,0,0,1.13-2.09,12.72,12.72,0,0,0,.69-2.33,17.31,17.31,0,0,0,.3-2.58l-.78,0a14,14,0,0,1-.89,4.61,9,9,0,0,1-2.65,3.67Zm6.68-.78-2.56-3.5-.62.48,1.25,1.71q.67.93,1.25,1.83Zm2.22-5.06H631.8v.78H635Zm-.5,8.26h.74V108.44h-.74Zm3,2h.74V107.24h-.74ZM625.16,90.52l3.91,0,4.11-.08,4.08-.11,3.82-.14,0-.78-3.85.15q-2,.07-4.1.11l-4.13.07-3.94,0Zm10.69-3.18a3.32,3.32,0,0,0,1.12-.58,2.75,2.75,0,0,0,.74-.92,2.78,2.78,0,0,0-.74-3.39,3.32,3.32,0,0,0-1.12-.58,5,5,0,0,0-2.79,0,3.33,3.33,0,0,0-1.11.58,2.76,2.76,0,0,0,0,4.31,3.33,3.33,0,0,0,1.11.58,5,5,0,0,0,2.79,0m-3.39-1.08a2.1,2.1,0,0,1,0-3.29,3.81,3.81,0,0,1,4,0,2.1,2.1,0,0,1,0,3.29,3.81,3.81,0,0,1-4,0m6.6,9.2-2,.12q-1.17.06-2.41.09l-2.42,0q-1.18,0-2,0v.78q.82,0,2,0l2.43,0,2.42-.08q1.17,0,2-.11Zm-8.82,1H631V92.12h-.74Zm-5.08-28,3.91,0,4.11-.08,4.08-.11,3.82-.14,0-.78-3.85.15q-2,.07-4.1.11l-4.13.07-3.94,0Zm13.1-6.9-1,.07-1,.05-.95,0-1,0,.06.78q1.94-.06,3.9-.18ZM633,61.8q-1,0-2,0l-2,0,.06.78,1.73,0,2,0Zm-.82,4.52a12.46,12.46,0,0,0,.59-2.15A16.5,16.5,0,0,0,633,61.8l-.8.42a13,13,0,0,1-.21,2,10.34,10.34,0,0,1-.55,1.84Zm5.34-.52h.74V61.74h-.74Zm-3.14,2.12h.74V64.46h-.74ZM639.26,76l-2,.12q-1.17.06-2.41.09l-2.42,0q-1.18,0-2,0V77q.82,0,2,0l2.43,0,2.42-.08q1.17,0,2-.11Zm-8.82.6h.74v-2.9h-.74Zm7.72-3.5q-.8.06-1.82.09l-2.08.06-2.06,0-1.76,0v.78l1.74,0,2.06,0,2.08-.07,1.84-.08Zm-.74.38h.74v-2.9h-.74Zm.74-3.24-1.88.07-2.16.06-2.13.06-1.81,0,.06.78,1.8,0,2.11,0,2.14-.07,1.87-.08Zm-13-22.16,3.91,0,4.11-.08,4.08-.11,3.82-.14,0-.78-3.85.15q-2,.07-4.1.11l-4.13.07-3.94,0Zm13.1-6.42-1.9.08-2.19.06-2.16,0-1.83,0,.06.78,1.66,0,2,0,2,0,1.74-.06Zm-.68,4.62q.14-.62.25-1.16T638,44.1q.08-.52.14-1.1t.1-1.3l-.8.26c0,.39-.05.75-.08,1.08s-.06.66-.11,1-.11.65-.18,1-.16.7-.25,1.1Zm1.68,9.62-2,.12q-1.17.06-2.41.09l-2.42,0q-1.18,0-2,0v.78q.82,0,2,0l2.43,0,2.42-.08q1.17,0,2-.11Zm-8.82.6h.74v-2.9h-.74Zm7.72-3.5q-.8.06-1.82.09l-2.08.06-2.06,0-1.76,0V54l1.74,0,2.06-.05,2.08-.07,1.84-.08Zm-.74.38h.74v-2.9h-.74Zm.74-3.24-1.88.07-2.16.06-2.13.06-1.81,0,.06.78,1.8,0,2.11,0,2.14-.07,1.87-.08Z"/><path class="cls-3" d="M655.16,403.06l3.91,0,4.11-.08,4.08-.11,3.82-.14,0-.78-3.85.15q-2,.07-4.1.11l-4.13.07-3.94,0Zm13.9,5.16-2,.12q-1.17.06-2.41.09l-2.42,0q-1.18,0-2,0v.78q.82,0,2,0l2.43,0,2.42-.08q1.17-.05,2-.11Zm-.2-9.84-1.94.12q-1.14.06-2.34.09l-2.35,0q-1.15,0-2,0v.78q.82,0,2,0l2.36,0,2.35-.08q1.14,0,1.94-.11Zm-8.62,1H661v-4.84h-.74Zm0,9.84H661v-4.34h-.74Zm1.86-22.29a2.75,2.75,0,0,0,1.5-1.57,2.91,2.91,0,0,0,0-2.12,2.75,2.75,0,0,0-1.5-1.57,3.4,3.4,0,0,0-2.56,0,2.75,2.75,0,0,0-1.5,1.57,2.91,2.91,0,0,0,0,2.12,2.75,2.75,0,0,0,1.5,1.57,3.4,3.4,0,0,0,2.56,0m-2.28-.66a2,2,0,0,1-.69-.5,2.2,2.2,0,0,1-.41-.69,2.24,2.24,0,0,1-.14-.78,2.28,2.28,0,0,1,.14-.77,2.17,2.17,0,0,1,.41-.7,2,2,0,0,1,.69-.5,2.7,2.7,0,0,1,2,0,2,2,0,0,1,.7.5,2.17,2.17,0,0,1,.41.7,2.28,2.28,0,0,1,.14.77,2.24,2.24,0,0,1-.14.78,2.2,2.2,0,0,1-.41.69,2,2,0,0,1-.7.5,2.7,2.7,0,0,1-2,0m11.66-4.37h-3.32l-.38.36.38.42,3.32,0ZM664.66,379l-1.79.08-2.3.07-2.3,0-1.79,0,.06.78h1.09l1.4,0,1.55,0,1.56,0,1.41,0,1.11,0ZM663,376.78q-1.08-.34-2.08-.73t-2.06-.85l-.28.82q1,.44,2.06.81l2.06.71Zm4.44,13.84h.74V374h-.74Zm-3.72-29.68h-6.06v.78h6.06Zm-.2-3.24-2.9.13q-1.46,0-2.9,0v.77q1.42,0,2.89-.05l2.91-.11Zm.2-2.4H663v6.08h.74Zm-6.06,6.1h.74v-5.82h-.74Zm13.84-2.3h-3.32l-.38.36.38.42,3.32,0Zm-2.22,9.56-2,.12q-1.15.06-2.38.09l-2.39,0q-1.16,0-2,0v.78q.82,0,2,0l2.39,0,2.39-.08q1.16-.05,2-.11Zm-8.72.6h.74v-2.72h-.74Zm7.62-3.32-1.81.09-2.05.06-2,0-1.74,0v.78l1.73,0,2-.05,2-.07,1.83-.08Zm-.74.38h.74v-2.84h-.74Zm.74-3.18-1.86.07-2.12.06-2.1.05-1.8,0,.06.78,1.79,0,2.08,0,2.1-.07,1.85-.08Zm-.74-.68h.74V354h-.74ZM656.56,346.7a12,12,0,0,0,3.58-4,12.45,12.45,0,0,0,1.54-5.21l-.82.26a11.61,11.61,0,0,1-1.4,4.54,11,11,0,0,1-3.4,3.72Zm5.12-9.14q-1.28.06-2.61.09l-2.59.05.06.76,2.41,0,2.45-.07Zm5.94,3.58H664.4v.78h3.22ZM664,348.62h.72V335.16H664Zm3.48,2h.74V334h-.74ZM656.8,320.2a9.36,9.36,0,0,0,1.92-1.81,12.21,12.21,0,0,0,1.41-2.23,12.94,12.94,0,0,0,.93-2.55,18.81,18.81,0,0,0,.48-2.79l-.76-.1a19.23,19.23,0,0,1-.45,2.71,11.86,11.86,0,0,1-.85,2.38,10.41,10.41,0,0,1-1.32,2.06,9.86,9.86,0,0,1-1.86,1.73Zm7.74-.3-2.9-4.06-.64.5q.68.9,1.42,2t1.44,2.11Zm3-5.54h-3.92v.78h3.92Zm-.12,10.26h.74V308h-.74Zm-10.91-27.33a3.37,3.37,0,0,0,.63,1.11,2.76,2.76,0,0,0,1,.71,3.07,3.07,0,0,0,2.43,0,2.76,2.76,0,0,0,1-.71,3.39,3.39,0,0,0,.63-1.11,4.54,4.54,0,0,0,0-2.86,3.4,3.4,0,0,0-.63-1.11,2.76,2.76,0,0,0-1-.71,3.07,3.07,0,0,0-2.43,0,2.76,2.76,0,0,0-1,.71,3.38,3.38,0,0,0-.63,1.11,4.54,4.54,0,0,0,0,2.86m1.15-3.46a2.2,2.2,0,0,1,3.31,0,3.55,3.55,0,0,1,0,4.06,2.2,2.2,0,0,1-3.31,0,3.55,3.55,0,0,1,0-4.06m7.4,1.53h-2.32v.78h2.32Zm-.5,7.26h.74V289.16h-.74Zm2.88,2h.74V288h-.74ZM655.16,276.7l3.91,0,4.11-.08,4.08-.11,3.82-.14,0-.78-3.85.15q-2,.07-4.1.11l-4.13.07-3.94,0Zm9.06,7.32H665V276h-.74Zm4-15.4-1.88.08-2.16.06-2.13,0-1.81,0,.06.78,1.64,0,1.95,0,2,0,1.72-.06Zm-1.2,6a26.93,26.93,0,0,0,.75-2.95,30.29,30.29,0,0,0,.45-3.07l-.8.26q0,.6-.14,1.3t-.25,1.42q-.15.72-.34,1.44t-.41,1.38Zm.88-19.06h-3.36v.76h3.36Zm0-4.22h-3.36v.78h3.36Zm-10.42,3.16a3.06,3.06,0,0,0,.67,1,3.33,3.33,0,0,0,1,.69,3.24,3.24,0,0,0,2.54,0,3.3,3.3,0,0,0,1-.69,3.1,3.1,0,0,0,.67-1,3.34,3.34,0,0,0,0-2.48,3.1,3.1,0,0,0-.67-1,3.3,3.3,0,0,0-1-.69,3.24,3.24,0,0,0-2.54,0,3.33,3.33,0,0,0-1,.69,3.06,3.06,0,0,0-.67,1,3.34,3.34,0,0,0,0,2.48m.68-2.19a2.47,2.47,0,0,1,.5-.79,2.36,2.36,0,0,1,.77-.54,2.57,2.57,0,0,1,2,0,2.36,2.36,0,0,1,.77.54,2.55,2.55,0,0,1,0,3.48,2.36,2.36,0,0,1-.77.54,2.57,2.57,0,0,1-2,0,2.36,2.36,0,0,1-.77-.54,2.47,2.47,0,0,1-.5-.79,2.58,2.58,0,0,1,0-1.9m11.06,9.93-2,.12q-1.15.06-2.38.09l-2.39,0q-1.16,0-2,0v.78q.82,0,2,0l2.39,0,2.39-.08q1.16,0,2-.11Zm-8.72.8h.74v-4.24h-.74Zm6.88-3.24h.74V248h-.74ZM661.75,233a3.35,3.35,0,0,0,1.1-.79,3.55,3.55,0,0,0,.71-1.17,4.23,4.23,0,0,0,0-2.86,3.57,3.57,0,0,0-.71-1.17,3.43,3.43,0,0,0-5,0,3.54,3.54,0,0,0-.71,1.17,4.23,4.23,0,0,0,0,2.86,3.52,3.52,0,0,0,.71,1.17,3.34,3.34,0,0,0,1.1.79,3.6,3.6,0,0,0,2.83,0m-.29-6.12a2.65,2.65,0,0,1,.86.63,2.75,2.75,0,0,1,.55.94,3.62,3.62,0,0,1,0,2.32,2.74,2.74,0,0,1-.55.94,2.62,2.62,0,0,1-.86.63,2.86,2.86,0,0,1-2.25,0,2.6,2.6,0,0,1-.86-.63,2.73,2.73,0,0,1-.55-.94,3.62,3.62,0,0,1,0-2.32,2.73,2.73,0,0,1,.55-.94,2.63,2.63,0,0,1,.86-.63,2.86,2.86,0,0,1,2.25,0m6,11.69h.74V222h-.74ZM655.68,210l3.83,0,3.93-.08,3.9-.11,3.74-.14,0-.78-3.77.15-3.93.11-4,.07-3.85,0Zm8.38-.68h.74v-3.14h-.74Zm4.6-4.64-1.91.12q-1.11.06-2.28.09l-2.28,0q-1.11,0-2,0v.78q.82,0,1.94,0l2.29,0,2.28-.08,1.91-.11Zm-8.42.6H661V202h-.74Zm8-3.9q-.8.05-1.86.09l-2.17.06-2.15,0-1.8,0v.78l1.78,0,2.15-.05,2.17-.07,1.88-.08Zm-.74.38h.74v-3.3h-.74Zm.74-3.64-1.92.07-2.24.06-2.22.05-1.86,0,.06.78,1.84,0,2.2,0,2.23-.07,1.91-.08Zm-12.54-8.42,3.83,0,3.93-.08,3.9-.11,3.74-.14,0-.78-3.77.15-3.93.11-4,.07-3.85,0Zm4.89-7a3.41,3.41,0,0,0,.81,1.13,3.83,3.83,0,0,0,1.21.75,4.34,4.34,0,0,0,3,0,3.81,3.81,0,0,0,1.22-.75,3.44,3.44,0,0,0,.81-1.13,3.48,3.48,0,0,0,0-2.79,3.43,3.43,0,0,0-.81-1.13,3.81,3.81,0,0,0-1.22-.75,4.35,4.35,0,0,0-3,0,3.83,3.83,0,0,0-1.21.75,3.46,3.46,0,0,0-.81,3.92m.69-2.49a2.86,2.86,0,0,1,1.63-1.47,3.7,3.7,0,0,1,2.45,0,2.86,2.86,0,0,1,1.63,1.47,2.63,2.63,0,0,1,0,2.19,2.92,2.92,0,0,1-.65.88,2.89,2.89,0,0,1-1,.59,3.68,3.68,0,0,1-2.45,0,2.85,2.85,0,0,1-1.62-1.46,2.63,2.63,0,0,1,0-2.19m-3.62-16.59.74-.2v-5.06h-.74Zm5.86-5.38q-1.38.08-2.92.1l-2.94,0,.06.76,2.89,0q1.51,0,2.91-.08Zm-.74,5.5h.74v-5h-.74Zm.74-.42h-5.86v.78h5.86Zm8-2.22h-3.32l-.38.36.38.42,3.32,0Zm-4.06,4.16h.74V156h-.74Zm.74,1.64-1.94.07-2.29.06-2.27.05-1.88,0,.06.78,1.87,0,2.25,0,2.27-.07,1.93-.08Zm-.74,5.3h.74v-4.78h-.74Zm-1.86-24.62-3.84-3.64-.54.58.86.79,1,.94q.51.49,1,1l.91.94Zm-8.5.94a14.54,14.54,0,0,0,3.16-3.62,16,16,0,0,0,1.8-4.52l-.78-.06a18.81,18.81,0,0,1-.7,2.26,11.72,11.72,0,0,1-1,2,12.19,12.19,0,0,1-1.33,1.76A17.49,17.49,0,0,1,656.5,148Zm7.68-8.78-1.68.08-2.06.07-2.06,0-1.68,0,.06.78,1.65,0,2,0,2-.07,1.68-.08Zm2.7,12.88h.74V136h-.74Zm-10.06-25.8.74-.2v-6.16h-.74Zm6.44-6.48-1.53.06-1.69,0-1.69,0h-1.53l.06.76h1.5l1.67,0,1.68,0q.83,0,1.53-.05Zm-.74,6.6h.74v-6.08h-.74Zm.74-.42h-6.44v.78h6.44Zm3.6,6.1h.74V116h-.74Zm4.06-9h-3.32l-.38.36.38.42,3.32,0Zm-4.56-18a2,2,0,0,0,1.1,1.1,2.06,2.06,0,0,0,1.59,0,2,2,0,0,0,.66-.44,2.08,2.08,0,0,0,.44-.66,2.09,2.09,0,0,0,0-1.6,2.08,2.08,0,0,0-.44-.66,2.06,2.06,0,0,0-1.45-.6,2.06,2.06,0,0,0-1.45.6,2.09,2.09,0,0,0-.44,2.26m2.84.14a1.37,1.37,0,0,1-1.89,0,1.35,1.35,0,0,1,0-1.88,1.37,1.37,0,0,1,1.89,0,1.35,1.35,0,0,1,0,1.88m-6.22-20.56q-1.36.1-2.92.15t-2.9,0v.76h1.4l1.49,0,1.5,0,1.43-.07Zm1.54,6.34a15.91,15.91,0,0,1-3.45.92,22.58,22.58,0,0,1-3.87.24l0,.74a22.39,22.39,0,0,0,4-.28,19.15,19.15,0,0,0,3.6-.92Zm-7.36,1.88.74-.2V85.9h-.74Zm13.76-4.28h-3.32l-.38.36.38.42,3.32,0Zm-4.06,8.82h.74V81.24h-.74Zm-2.16-26.62a30.24,30.24,0,0,1-3.56.88,29.23,29.23,0,0,1-3.88.44l0,.74a28.7,28.7,0,0,0,4-.46q1.89-.36,3.67-.88Zm-7.48,2,.74-.2v-8h-.74Zm9.64,4.58h.74V61.24h-.74Zm-4.36-35.44q-1.1-.2-2-.42t-2-.56l-.16.84q1.06.3,2,.51l2,.41Zm-4.74,6.6a2.35,2.35,0,0,0,.57.75,2.72,2.72,0,0,0,.9.52,3.82,3.82,0,0,0,2.38,0,2.72,2.72,0,0,0,.9-.52,2.35,2.35,0,0,0,.57-.75,2.12,2.12,0,0,0,0-1.8,2.35,2.35,0,0,0-.57-.75,2.72,2.72,0,0,0-.9-.52,3.82,3.82,0,0,0-2.38,0,2.72,2.72,0,0,0-.9.52,2.35,2.35,0,0,0-.57.75,2.12,2.12,0,0,0,0,1.8m1.09-2a2.71,2.71,0,0,1,3.14,0,1.46,1.46,0,0,1,0,2.28,2.71,2.71,0,0,1-3.14,0,1.46,1.46,0,0,1,0-2.28M664.52,44l-1.75.08-2.14.07-2.14,0-1.75,0,.06.78,1.72,0,2.12,0,2.13-.07,1.75-.08Zm3.64,12.44h-7.6v.78h7.6ZM667.42,50h.74v-8.8h-.74Zm.74,3.18-1.73.07-2,.06-2,0h-1.73v.76h1.71l2,0,2,0q1,0,1.74-.06Zm0-2h-.74v5.6h.74Zm-7.6,5.54.74,0V51.4h-.74Zm10.92-10h-3.32l-.38.36.38.42,3.32,0Z"/><path class="cls-3" d="M685.68,353.32l3.83,0,3.93-.08,3.9-.11,3.74-.14,0-.78-3.77.15q-2,.07-3.93.11l-3.95.07-3.85,0Zm13-6.8-1.89.12q-1.09.06-2.23.09l-2.24,0q-1.1,0-1.94,0v.78q.82,0,1.92,0l2.25,0,2.24-.08,1.89-.11Zm-.24-5.2q-.46,0-1.1.06l-1.39,0-1.55,0-1.54,0h-2.48v.78h1.75l2.26,0,2.27,0,1.78-.07Zm-8.06,6.2.74-.2V341.9h-.74Zm3.76,5.18h.74v-4.44h-.74Zm-.28-29.76q-1.66.1-3.31.15t-3.21.07l.06.78,2.9-.07,2.92-.11Zm-7,9.2a12.22,12.22,0,0,0,2.38-1.59,14.54,14.54,0,0,0,2.08-2.13,10.55,10.55,0,0,0,.84-1.25q.4-.69.73-1.41a14.36,14.36,0,0,0,.57-1.44,12.66,12.66,0,0,0,.38-1.38l-.9.26a11.43,11.43,0,0,1-.78,2.37,11.11,11.11,0,0,1-1.46,2.41,13.18,13.18,0,0,1-2,2,12.11,12.11,0,0,1-2.26,1.48Zm10.58,3.76h.74V319.24h-.74Zm-5.67-25.57a3.34,3.34,0,0,0,1.1-.79,3.52,3.52,0,0,0,.71-1.17,4.23,4.23,0,0,0,0-2.86,3.54,3.54,0,0,0-.71-1.17,3.43,3.43,0,0,0-5,0,3.56,3.56,0,0,0-.71,1.17,4.23,4.23,0,0,0,0,2.86,3.54,3.54,0,0,0,.71,1.17,3.33,3.33,0,0,0,1.1.79,3.6,3.6,0,0,0,2.83,0m-.29-6.12a2.64,2.64,0,0,1,.86.63,2.75,2.75,0,0,1,.55.94,3.64,3.64,0,0,1,0,2.32,2.74,2.74,0,0,1-.55.94,2.61,2.61,0,0,1-.86.63,2.86,2.86,0,0,1-2.25,0,2.62,2.62,0,0,1-.86-.63,2.74,2.74,0,0,1-.55-.94,3.62,3.62,0,0,1,0-2.32,2.75,2.75,0,0,1,.55-.94,2.77,2.77,0,0,1,3.11-.63m6,11.69h.74V299.24h-.74Zm-5.34-22.37a3.13,3.13,0,0,0,.7,1,3.36,3.36,0,0,0,1,.65,3.38,3.38,0,0,0,2.5,0,3.34,3.34,0,0,0,1-.65,3.1,3.1,0,0,0,.7-1,2.85,2.85,0,0,0,0-2.38,3.12,3.12,0,0,0-.7-1,3.34,3.34,0,0,0-1-.65,3.38,3.38,0,0,0-2.5,0,3.36,3.36,0,0,0-1,.65,3.16,3.16,0,0,0-.7,1,2.85,2.85,0,0,0,0,2.38m5.27-.28a2.18,2.18,0,0,1-.53.74,2.65,2.65,0,0,1-3.53,0,2.19,2.19,0,0,1-.53-.74,2.24,2.24,0,0,1,.53-2.56,2.65,2.65,0,0,1,3.53,0,2.25,2.25,0,0,1,.53,2.56m-9.66-7.74a3.17,3.17,0,0,0,.69,1,3.28,3.28,0,0,0,1,.68,3.23,3.23,0,0,0,2.49,0,3.27,3.27,0,0,0,1-.68,3.14,3.14,0,0,0,.69-1,3.06,3.06,0,0,0,0-2.42,3.15,3.15,0,0,0-.69-1,3.3,3.3,0,0,0-1-.68,3.23,3.23,0,0,0-2.49,0,3.31,3.31,0,0,0-1,.68,3.18,3.18,0,0,0-.69,1,3.06,3.06,0,0,0,0,2.42m.68-2.13a2.45,2.45,0,0,1,.52-.77,2.59,2.59,0,0,1,.78-.53,2.47,2.47,0,0,1,1.95,0,2.59,2.59,0,0,1,.78.53,2.45,2.45,0,0,1,.52.77,2.31,2.31,0,0,1,0,1.84,2.44,2.44,0,0,1-.52.77,2.57,2.57,0,0,1-.78.53,2.47,2.47,0,0,1-1.95,0,2.57,2.57,0,0,1-.78-.53,2.44,2.44,0,0,1-.52-.77,2.31,2.31,0,0,1,0-1.84m9,4.94h.74v-9.08h-.74Zm4-6.34h-3.22l-.38.36.38.42,3.22,0Zm0,3.3h-3.22l-.38.36.38.42,3.22,0Zm-15.7-12.12,3.83,0,3.93-.08,3.9-.11,3.74-.14,0-.78-3.77.15q-2,.07-3.93.11l-3.95.07-3.85,0Zm8.38-.68h.74v-3.86h-.74Zm-3.36-5.26h.74v-5.44h-.74Zm7.46-5.58-1.7.07-2,0-2,0H690.7l.06.76h1.69l2,0,2,0,1.72-.06Zm-.74,5.7h.74v-5.18h-.74Zm.74-.42H690.7v.78h7.46Zm-5.1-32.22q-1.1-.2-2-.42t-2-.56l-.16.84q1.06.3,2,.51l2,.41Zm-4.71,7.41a2.31,2.31,0,0,0,.56.82,2.83,2.83,0,0,0,.89.56,3.42,3.42,0,0,0,2.36,0,2.8,2.8,0,0,0,.89-.56,2.3,2.3,0,0,0,.56-.82,2.67,2.67,0,0,0,0-2,2.28,2.28,0,0,0-.56-.82,2.77,2.77,0,0,0-.89-.56,3.42,3.42,0,0,0-2.36,0,2.79,2.79,0,0,0-.89.56,2.3,2.3,0,0,0-.56.82,2.67,2.67,0,0,0,0,2m4.18.31a2.42,2.42,0,0,1-3.1,0,1.86,1.86,0,0,1,0-2.6,2.43,2.43,0,0,1,3.1,0,1.86,1.86,0,0,1,0,2.6m2-6-1.75.08-2.14.07-2.14,0-1.75,0,.06.78,1.72,0,2.12-.05,2.13-.07,1.75-.08Zm7,2.54h-3.32l-.38.36.38.42,3.32,0Zm-2.22,8.56-2,.12q-1.15.06-2.38.09l-2.39,0q-1.16,0-2,0v.78q.82,0,2,0l2.39,0,2.39-.08q1.16-.05,2-.11Zm-8.72.8h.74V245.1h-.74Zm6.88-3.24h.74V233.24h-.74ZM691,226.74h.74v-2.1H691Zm3.84-9.36-1.72.08-2.17.07-2.17,0-1.72,0,.06.76,1.69,0,2.14-.05,2.16-.06,1.73-.07Zm-1.28-1.6q-1.08-.34-2.08-.73t-2.06-.85l-.28.82q1,.44,2.06.81l2.06.71Zm7.9,5.4h-3.32l-.38.36.38.42,3.32,0Zm-4.06,8.72h.74V213.24h-.74Zm-8.75-7.22a2.27,2.27,0,0,0,.52.79,2.75,2.75,0,0,0,.86.57,3.22,3.22,0,0,0,2.34,0,2.74,2.74,0,0,0,.86-.57,2.26,2.26,0,0,0,.52-.79,2.36,2.36,0,0,0,0-1.76,2.24,2.24,0,0,0-.52-.79,2.7,2.7,0,0,0-.86-.57,3.22,3.22,0,0,0-2.34,0,2.71,2.71,0,0,0-.86.57,2.25,2.25,0,0,0-.52.79,2.36,2.36,0,0,0,0,1.76m.69-1.47a1.67,1.67,0,0,1,.36-.56,2,2,0,0,1,.61-.42,2.41,2.41,0,0,1,1.78,0,2,2,0,0,1,.61.42,1.67,1.67,0,0,1,.36.56,1.51,1.51,0,0,1,0,1.18,1.8,1.8,0,0,1-.36.57,1.78,1.78,0,0,1-.61.42,2.56,2.56,0,0,1-1.78,0,1.76,1.76,0,0,1-1-1,1.51,1.51,0,0,1,0-1.18m6.9,4.47q-1.5.26-2.78.43t-2.51.29q-1.23.12-2.5.2t-2.77.14l.16.78q1.48-.06,2.75-.15t2.49-.23q1.22-.13,2.48-.31l2.74-.39Zm-11.18-24.12,3.94,0,4.13-.07q2.07,0,4.1-.11l3.85-.15,0,.78-3.82.14-4.08.11-4.11.08-3.91,0Zm14.12-3-4-2.26-.36.66,1.94,1.12q1,.56,2,1.2Zm-9.66,1a8.3,8.3,0,0,0,3.64-2.12,8.59,8.59,0,0,0,2-3.72l-.7-.24a11.59,11.59,0,0,1-.78,2,6.12,6.12,0,0,1-1.07,1.49,6.51,6.51,0,0,1-1.47,1.11,10.55,10.55,0,0,1-2,.83Zm4.78,2.18h.74v4.1h-.74Zm4.74,6.88q-.8.06-2,.11l-2.42.08-2.43,0q-1.18,0-2,0V208q.84,0,2,0l2.42,0q1.24,0,2.41-.09l2-.12Zm-8.82-3.84H691v4h-.74Zm11.24-25.42h-3.32l-.38.36.38.42,3.32,0Zm-8-3.68q-1.36.1-2.92.15t-2.9,0v.77h1.4l1.49,0,1.5-.05,1.43-.07Zm1.34,4.6a17.14,17.14,0,0,1-1.69.46q-.83.18-1.7.29t-1.79.15q-.92,0-1.94,0l0,.74q1.06,0,2,0t1.85-.15q.9-.11,1.76-.29T695,181Zm-7.16,1.64.74-.2V176.4h-.74Zm9.76,2.86h.74v-11.5h-.74Zm1.84,2.8-1.93.12q-1.13.06-2.34.09l-2.35,0q-1.14,0-2,0v.78q.82,0,2,0l2.35,0,2.35-.08,1.94-.11Zm-8.6.8h.74v-4.26h-.74Zm-5.5-33.24,3.91,0,4.11-.08,4.08-.11,3.82-.14,0-.78-3.85.15q-2,.07-4.1.11l-4.13.07-3.94,0Zm14.1,7-2,.12q-1.17.06-2.41.09l-2.42,0q-1.18,0-2,0v.78q.82,0,2,0l2.43,0,2.42-.08q1.17-.05,2-.11Zm-8.82.6h.74V160h-.74Zm7.72-3.32q-.8.06-1.82.09l-2.08.06-2.06,0-1.76,0v.78l1.74,0,2.06-.05,2.08-.07,1.84-.08Zm-.74.38h.74V157h-.74Zm.74-3.06-1.88.07-2.16.06-2.13.05-1.81,0,.06.78,1.8,0,2.11-.05,2.14-.07,1.87-.08Zm-.36-7.93a2.68,2.68,0,0,0-.77-.86,3.61,3.61,0,0,0-1.15-.55,5.4,5.4,0,0,0-2.84,0,3.62,3.62,0,0,0-1.15.55,2.7,2.7,0,0,0-.77.86,2.4,2.4,0,0,0,0,2.25,2.71,2.71,0,0,0,.77.86,3.6,3.6,0,0,0,1.15.55,5.37,5.37,0,0,0,2.84,0,3.59,3.59,0,0,0,1.15-.55,2.69,2.69,0,0,0,.77-.86,2.4,2.4,0,0,0,0-2.25m-6,.28a2,2,0,0,1,.61-.63,3.05,3.05,0,0,1,.92-.4,4.79,4.79,0,0,1,2.29,0,3.06,3.06,0,0,1,.92.4,2,2,0,0,1,.61.63,1.74,1.74,0,0,1,0,1.69,2,2,0,0,1-.61.63,3,3,0,0,1-.92.4,4.76,4.76,0,0,1-2.29,0,3,3,0,0,1-.92-.4,2,2,0,0,1-.61-.63,1.74,1.74,0,0,1,0-1.69m5.94-16.84H694V133h3.76Zm-10.5,4.64a10,10,0,0,0,2.87-3A10.62,10.62,0,0,0,691.5,130l-.82-.06a11.67,11.67,0,0,1-.49,2,8.09,8.09,0,0,1-.78,1.63,7.75,7.75,0,0,1-1.14,1.41,12.8,12.8,0,0,1-1.57,1.3Zm7.44-1.12-3.2-2.66-.5.66q.8.64,1.53,1.28l1.61,1.42Zm-.28-6.34-1.62.08-1.93.08-1.92.05-1.61,0,.06.78,1.58,0,1.9-.06,1.92-.08,1.62-.08Zm-3.84,13.17.74-.2v-4.13h-.74Zm7.6-4.47-1.73.07-2.07,0-2.06,0h-1.74l.06.76h1.71l2,0,2,0q1,0,1.74-.06Zm-.74,4.6h.74V138.6h-.74Zm.74-.42h-7.6V143h7.6Zm-.74-5.68h.74v-9.34h-.74Zm-2.46-18-1.68.23-1.83.2-1.83.16q-.9.07-1.7.09v-3.94h-.74V120q.82,0,1.84-.09l2.08-.16q1.06-.09,2.09-.2l1.85-.23Zm2.46,5.36h.74V107.24h-.74Zm-3.64-9.26q-1.58.14-3.33.18l-3.27.06v.78l1.58,0,1.69-.05,1.7-.06q.85,0,1.63-.09Zm-.74.4h.74v-4H693Zm.74-4.38q-1.66.09-3.43.13l-3.33.05.06.78,3.31-.06q1.75,0,3.39-.12ZM687.22,99H688V91.2h-.74Zm5.26-1.38q-1.36.38-2.59.62t-2.67.38v.72q1.46-.14,2.75-.37t2.67-.61Zm5.44-3.2h-3.6v.78h3.6Zm-4.06,7.48h.74V88.44h-.74Zm3.58,2h.74V87.24h-.74ZM685.16,70.34l3.91,0,4.11-.08,4.08-.11,3.82-.14,0-.78-3.85.15q-2,.07-4.1.11l-4.13.07-3.94,0Zm13.9,5.16-2,.12q-1.17.06-2.41.09l-2.42,0q-1.18,0-2,0v.78q.82,0,2,0l2.43,0,2.42-.08q1.17,0,2-.11Zm-.2-9.84-1.94.12q-1.14.06-2.34.09l-2.35,0q-1.15,0-2,0v.78q.82,0,2,0l2.36,0,2.35-.08q1.14,0,1.94-.11Zm-8.62,1H691V61.82h-.74Zm0,9.84H691V72.16h-.74ZM688.3,56.94a6.79,6.79,0,0,0,2.92-2.17,7.59,7.59,0,0,0,1.46-3.39l-.76-.16a7.27,7.27,0,0,1-1.31,3.17,6.35,6.35,0,0,1-2.75,2Zm9.12-6.74h.74v-9h-.74Zm-2.78,4.64-1.86-1.48-.44.6,1.74,1.42Zm5.76,1.74-3-2.4-.48.64.73.58.69.56.7.58.78.66Zm-6.74.68a7.55,7.55,0,0,0,2.7-2.52,8.61,8.61,0,0,0,1.3-3.4l-.76-.16a8.43,8.43,0,0,1-1.18,3.2,6.8,6.8,0,0,1-2.5,2.28Zm-6.11-9.76a3.15,3.15,0,0,0,.69,1,3.3,3.3,0,0,0,1,.68,3.23,3.23,0,0,0,2.49,0,3.27,3.27,0,0,0,1-.68,3.16,3.16,0,0,0,0-4.5,3.27,3.27,0,0,0-1-.68,3.23,3.23,0,0,0-2.49,0,3.3,3.3,0,0,0-1,.68,3.15,3.15,0,0,0-.69,1,3.21,3.21,0,0,0,0,2.48m.68-2.19a2.54,2.54,0,0,1,.52-.79,2.36,2.36,0,0,1,.78-.53,2.59,2.59,0,0,1,1.95,0,2.36,2.36,0,0,1,.78.53,2.54,2.54,0,0,1,.52.79,2.4,2.4,0,0,1,.19,1,2.37,2.37,0,0,1-.19,1,2.58,2.58,0,0,1-.52.78,2.36,2.36,0,0,1-.78.53,2.59,2.59,0,0,1-1.95,0,2.36,2.36,0,0,1-.78-.53,2.58,2.58,0,0,1-.52-.78,2.39,2.39,0,0,1-.19-1,2.41,2.41,0,0,1,.19-1"/><path class="cls-3" d="M715.08,400l3.94,0,4.13-.07q2.07,0,4.1-.11l3.85-.15,0,.78-3.82.14-4.08.11-4.11.08-3.91,0Zm14.1-3.52-4-2.24-.36.66,1.92,1.11q.94.55,2,1.19Zm-9.6.86a9.16,9.16,0,0,0,3.76-2.36,8.41,8.41,0,0,0,2-4.08l-.72-.18a11.92,11.92,0,0,1-.76,2.16,6.47,6.47,0,0,1-1.09,1.62,6.86,6.86,0,0,1-1.52,1.22,11.75,11.75,0,0,1-2,.94Zm4.64,2.8H725v7.12h-.74Zm-9.06-26.56,3.91,0,4.11-.08,4.08-.11,3.82-.14,0-.78-3.85.15q-2,.07-4.1.11l-4.13.07-3.94,0Zm12.94-3.68h-7.32v.78h7.32Zm0-2.82-1.69.07-1.94.06-1.94,0h-1.69v.76h1.67l2,0,2-.05,1.69-.06Zm0-2h-.74v5.2h.74Zm-7.32,5.26h.74v-4.92h-.74Zm3.28,3h.74v-2.76h-.74Zm5.2,6.94-2,.12q-1.17.06-2.41.09l-2.42,0q-1.18,0-2,0v.78q.82,0,2,0l2.43,0,2.42-.08q1.17,0,2-.11Zm-8.82.6h.74v-2.6h-.74Zm7.72-3.2q-.8.06-1.82.09l-2.08.06-2.06,0-1.76,0v.78l1.74,0,2.06,0,2.08-.07,1.84-.08Zm-.74.38h.74v-2.6h-.74Zm.74-2.94-1.88.07-2.16.07-2.13.06-1.81,0,.06.78,1.8,0,2.11,0,2.14-.07,1.87-.08Zm3.32-22.3h-3.32l-.38.36.38.42,3.32,0Zm-9.68,3.55a3.28,3.28,0,0,0,1.08-.79,3.63,3.63,0,0,0,.7-1.17,4.23,4.23,0,0,0,0-2.86,3.63,3.63,0,0,0-.7-1.17,3.28,3.28,0,0,0-1.08-.79,3.55,3.55,0,0,0-2.81,0,3.27,3.27,0,0,0-1.08.79,3.61,3.61,0,0,0-.7,1.17,4.23,4.23,0,0,0,0,2.86,3.61,3.61,0,0,0,.7,1.17,3.27,3.27,0,0,0,1.08.79,3.55,3.55,0,0,0,2.81,0m-.28-6.12a2.41,2.41,0,0,1,.84.63,2.93,2.93,0,0,1,.53.94,3.62,3.62,0,0,1,0,2.32,2.93,2.93,0,0,1-.53.94,2.41,2.41,0,0,1-.84.63,2.86,2.86,0,0,1-2.25,0,2.4,2.4,0,0,1-.84-.63,2.93,2.93,0,0,1-.53-.94,3.62,3.62,0,0,1,0-2.32,2.93,2.93,0,0,1,.53-.94,2.4,2.4,0,0,1,.84-.63,2.86,2.86,0,0,1,2.25,0m5.91,11.69h.74V345.24h-.74ZM717.34,335a9.19,9.19,0,0,0,2.8-2.55A10.29,10.29,0,0,0,721.8,329l-.76-.18a9.8,9.8,0,0,1-1.54,3.32,8.75,8.75,0,0,1-2.66,2.34Zm7.94-1.74-3.52-2.06-.38.7.85.5.82.49.85.52.94.59Zm-2.12-6.82q-1.1-.2-2-.42t-2-.56l-.16.84q1.06.3,2,.51l2,.41Zm1.52,1.86-1.71.08-2,.07-2,0-1.71,0,.06.78,1.68,0,2-.05,2-.07,1.71-.08Zm6.8,2h-3.32l-.38.36.38.42,3.32,0Zm-4.06,3.9h.74v-9h-.74Zm2.24,6.28-4.74-2.74-.38.7,1.1.63,1.22.72,1.23.74,1.15.69Zm-10.3.78a9.12,9.12,0,0,0,3.53-1.79,7.28,7.28,0,0,0,2-3.13l-.78-.2a8.73,8.73,0,0,1-.8,1.62,5.27,5.27,0,0,1-1.05,1.19,6.35,6.35,0,0,1-1.41.88,14.17,14.17,0,0,1-1.86.69Zm9-5.64-2,.08-2.38.08-2.36.07-1.92,0,.06.78,1.91,0,2.34-.07,2.36-.08,2-.08Zm-11.6-24.22a9.36,9.36,0,0,0,1.92-1.81,12.18,12.18,0,0,0,1.41-2.23,12.94,12.94,0,0,0,.93-2.55,18.8,18.8,0,0,0,.48-2.79l-.76-.1a19.19,19.19,0,0,1-.45,2.71,11.85,11.85,0,0,1-.85,2.38,10.4,10.4,0,0,1-1.32,2.06,9.83,9.83,0,0,1-1.86,1.73Zm7.74-.3-2.9-4.06-.64.5q.68.9,1.42,2t1.44,2.11Zm3-5.54h-3.92v.78h3.92Zm-.12,10.26h.74V299.24h-.74Zm-10.91-27.33a3.36,3.36,0,0,0,.63,1.11,2.75,2.75,0,0,0,1,.71,3.07,3.07,0,0,0,2.43,0,2.75,2.75,0,0,0,1-.71,3.38,3.38,0,0,0,.63-1.11,4.54,4.54,0,0,0,0-2.86,3.4,3.4,0,0,0-.63-1.11,2.77,2.77,0,0,0-1-.71,3.07,3.07,0,0,0-2.43,0,2.77,2.77,0,0,0-1,.71,3.38,3.38,0,0,0-.63,1.11,4.54,4.54,0,0,0,0,2.86m1.15-3.46a2.2,2.2,0,0,1,3.31,0,3.55,3.55,0,0,1,0,4.06,2.2,2.2,0,0,1-3.31,0,3.55,3.55,0,0,1,0-4.06m7.4,1.53h-2.32v.78h2.32Zm-.5,7.26h.74V280.44h-.74Zm2.88,2h.74V279.24h-.74Zm-11-23.84a12.19,12.19,0,0,0,1.24-1.56,15.8,15.8,0,0,0,1-1.78,15.59,15.59,0,0,0,.79-1.87A14,14,0,0,0,720,265l-.78,0a11.52,11.52,0,0,1-.48,1.73A15,15,0,0,1,717,270.1a11.07,11.07,0,0,1-1.17,1.44Zm6.12-.58-2.38-3-.62.52q.64.78,1.17,1.46t1.17,1.58Zm-.34-7-1.43.08-1.57.07-1.58.05-1.46,0,.06.78,1.43,0,1.56-.05,1.56-.06,1.43-.07Zm-1-1.6q-.9-.28-1.65-.58t-1.61-.7l-.3.8q.82.36,1.61.66t1.67.58Zm3.8,4.34H721.9V268H725Zm-.5,6.32h.74V260.44h-.74Zm3,2.4h.74V259.24h-.74ZM716.8,251.48a9.36,9.36,0,0,0,1.92-1.81,12.18,12.18,0,0,0,1.41-2.23,12.94,12.94,0,0,0,.93-2.55,18.8,18.8,0,0,0,.48-2.79l-.76-.1a19.19,19.19,0,0,1-.45,2.71,11.85,11.85,0,0,1-.85,2.38,10.4,10.4,0,0,1-1.32,2.06,9.83,9.83,0,0,1-1.86,1.73Zm7.74-.3-2.9-4.06-.64.5q.68.9,1.42,2t1.44,2.11Zm3-5.54h-3.92v.78h3.92Zm-.12,10.26h.74V239.24h-.74Zm-12.26-29.58,3.91,0,4.11-.08,4.08-.11q2-.06,3.82-.14l0-.78-3.85.15q-2,.07-4.1.11l-4.13.07-3.94,0Zm6.08,7.12a2.92,2.92,0,0,0,.72.93,3.3,3.3,0,0,0,1.09.62,4.3,4.3,0,0,0,2.71,0,3.3,3.3,0,0,0,1.09-.62,2.93,2.93,0,0,0,.72-.93,2.71,2.71,0,0,0,0-2.32,2.9,2.9,0,0,0-.72-.94,3.32,3.32,0,0,0-1.09-.62,4.28,4.28,0,0,0-2.71,0,3.32,3.32,0,0,0-1.09.62,2.89,2.89,0,0,0-.72.94,2.71,2.71,0,0,0,0,2.32m5.65-.28a2.3,2.3,0,0,1-.57.7,2.54,2.54,0,0,1-.85.46,3.63,3.63,0,0,1-2.13,0,2.54,2.54,0,0,1-.85-.46,2.28,2.28,0,0,1-.57-.7,2,2,0,0,1,0-1.77,2.29,2.29,0,0,1,.57-.7,2.52,2.52,0,0,1,.85-.46,3.61,3.61,0,0,1,2.13,0,2.52,2.52,0,0,1,.85.46,2.31,2.31,0,0,1,.57.7,2,2,0,0,1,0,1.77m1.37-13.37-1.9.08-2.19.06L722,220l-1.83,0,.06.78,1.66,0,2,0,2,0,1.74-.06Zm-.7,4.72q.14-.64.25-1.18t.19-1.08q.08-.54.14-1.13t.12-1.33l-.8.26c0,.4-.05.77-.08,1.11s-.07.68-.12,1-.12.67-.19,1-.16.71-.25,1.11Zm-3.5,5.22h.74v-3.88h-.74Zm-5.85-29.51a3.17,3.17,0,0,0,.69,1,3.28,3.28,0,0,0,1,.68,3.48,3.48,0,0,0,2.59,0,3.28,3.28,0,0,0,1-.68,3.18,3.18,0,0,0,.69-1,3.16,3.16,0,0,0,0-2.46,3.17,3.17,0,0,0-.69-1,3.27,3.27,0,0,0-1-.68,3.48,3.48,0,0,0-2.59,0,3.27,3.27,0,0,0-1,.68,3.16,3.16,0,0,0-.69,1,3.16,3.16,0,0,0,0,2.46m.68-2.18a2.42,2.42,0,0,1,.52-.78,2.38,2.38,0,0,1,.79-.52,2.85,2.85,0,0,1,2,0,2.43,2.43,0,0,1,0,4.5,2.85,2.85,0,0,1-2,0,2.44,2.44,0,0,1-1.32-3.2M721,205.5h.74v-2.78H721Zm6.44,4.4h.74V193.24h-.74Zm-1.16-5.5q-1.5.24-2.78.41t-2.51.29q-1.23.12-2.5.2t-2.77.14l.16.78q1.48-.06,2.75-.15t2.49-.22q1.22-.13,2.48-.3l2.74-.39Zm5.22-3h-3.32l-.38.36.38.42,3.32,0ZM716.4,186.06a12.33,12.33,0,0,0,1.24-1.56,16,16,0,0,0,1-1.78,15.72,15.72,0,0,0,.79-1.87A14.06,14.06,0,0,0,720,179l-.78,0a11.55,11.55,0,0,1-.48,1.73A15,15,0,0,1,717,184.1a11.21,11.21,0,0,1-1.17,1.44Zm6.12-.58-2.38-3-.62.52q.64.78,1.17,1.46t1.17,1.58Zm-.34-7-1.43.08-1.57.07-1.58.05-1.46,0,.06.78,1.43,0,1.56-.05,1.56-.06,1.43-.07Zm-1-1.6q-.9-.28-1.65-.58t-1.61-.7l-.3.8q.82.36,1.61.66t1.67.58Zm3.8,4.34H721.9V182H725Zm-.5,6.32h.74V174.44h-.74Zm3,2.4h.74V173.24h-.74Zm4-30.92h-3.32l-.38.36.38.42,3.32,0Zm-7.7-3.44-1.57.07-1.47,0-1.44,0h-1.5l.06.78,2.63,0q1.23,0,2.65-.08Zm-6.4,8.34a14.5,14.5,0,0,0,2.16-1.66,17.33,17.33,0,0,0,1.9-2.06,14.62,14.62,0,0,0,1.47-2.28,9.7,9.7,0,0,0,.87-2.34l-.92.26a8.25,8.25,0,0,1-.76,2,12.31,12.31,0,0,1-1.33,2,15.69,15.69,0,0,1-1.79,1.87,17.2,17.2,0,0,1-2.12,1.61Zm10,1h.74V153.24h-.74Zm1.84,2.64-1.93.12q-1.13.06-2.34.09l-2.35,0q-1.14,0-2,0v.78q.82,0,2,0l2.35,0,2.35-.08,1.94-.11Zm-8.6.8h.74v-4.26h-.74Zm-3.84-22.86a9.39,9.39,0,0,0,1.92-1.81,12.21,12.21,0,0,0,1.41-2.23,12.94,12.94,0,0,0,.93-2.55,18.8,18.8,0,0,0,.48-2.79l-.76-.1a19.22,19.22,0,0,1-.45,2.71,11.87,11.87,0,0,1-.85,2.38,10.43,10.43,0,0,1-1.32,2.06,9.82,9.82,0,0,1-1.86,1.73Zm7.74-.3-2.9-4.06-.64.5q.68.9,1.42,1.95t1.44,2.11Zm3-5.54h-3.92v.78h3.92Zm-.12,10.26h.74V133.24h-.74Zm-12.26-33.56,3.91,0,4.11-.08,4.08-.11,3.82-.14,0-.78-3.85.15q-2,.07-4.1.11l-4.13.07-3.94,0Zm13.9,5.16-2,.12q-1.17.06-2.41.09l-2.42,0q-1.18,0-2,0v.78q.82,0,2,0l2.43,0,2.42-.08q1.17-.05,2-.11Zm-.2-9.84-1.94.12q-1.14.06-2.34.09l-2.35,0q-1.15,0-2,0v.78q.82,0,2,0l2.36,0,2.35-.08q1.14,0,1.94-.11Zm-8.62,1H721v-4.84h-.74Zm0,9.84H721v-4.34h-.74ZM720,97l-1.26-2-.6.4,1.42,2.34Zm4.5,1.86-1.86-3-.64.42q.54.82,1,1.52t.89,1.5Zm-4.52,1a18,18,0,0,0,1.76-3.92,21.44,21.44,0,0,0,.88-4.28l-.76,0a20.41,20.41,0,0,1-.83,4.11,16.59,16.59,0,0,1-1.69,3.69Zm4.16-8.76q-1,.1-1.93.13t-2,0l.06.78q1,0,1.92,0t1.92-.11Zm-4.26,0q-1,.1-2,.13t-2,0l.06.78q1,0,2,0t2-.11Zm-3.92,8.08a16.73,16.73,0,0,0,2.74-7.52l-.76,0a15.56,15.56,0,0,1-.84,3.72,16.06,16.06,0,0,1-1.78,3.4Zm12.2-4.62h-2.72v.78h2.72Zm-3.32,7.36h.74V88.44h-.74Zm2.62,2h.74V87.24h-.74Zm-4-28.44h-6v.78h6Zm-.2-3.9q-1.44.08-2.79.12t-2.79,0v.76q1.42,0,2.78,0l2.8-.1Zm.2-2.84h-.74v7h.74Zm-6,7.3h.74V69h-.74Zm7-3.08h3.52v-.78h-3.52Zm3.08,5.68h.74V67.24h-.74Zm1.84,2.92-1.93.12q-1.13.06-2.34.09l-2.35,0q-1.14,0-2,0v.78q.82,0,2,0l2.35,0,2.35-.08,1.94-.11Zm-8.6.8h.74v-4h-.74Zm-5.5-31.42,3.91,0,4.11-.08,4.08-.11,3.82-.14,0-.78-3.85.15q-2,.07-4.1.11l-4.13.07-3.94,0Zm9.06,6.38H725v-7h-.74Zm4.3-11.12-1.82.12q-1,.06-2.1.09l-2.11,0q-1,0-1.87,0v.78q.82,0,1.85,0l2.11,0,2.11-.08,1.83-.11Zm-.24-4.58-1.71.08-2.13.06-2.13,0h-1.69v.76h1.68l2.12,0,2.14,0,1.72-.07Zm-7.66,5.58.74-.2V42.16h-.74Z"/><path class="cls-3" d="M757.26,347.4l.87.72q.47.4.93.83l.9.86q.44.43.78.79l.78-.8-.84-.78-1-.84-1-.82q-.49-.4-.93-.72Zm1-19.68-2,.08-2.4.06-2.37,0-1.92,0,.06.78,1.75,0,2.19,0,2.21,0q1.07,0,1.83-.06Zm-1.14,7.12q.2-.78.38-1.67t.33-1.82q.15-.93.26-1.86t.17-1.77l-.8.26q0,.7-.14,1.56t-.24,1.76q-.14.9-.32,1.77t-.38,1.61Zm-11.44,4.22,3.83,0,3.93-.08,3.9-.11,3.74-.14,0-.78-3.77.15q-2,.07-3.93.11l-4,.07-3.85,0Zm6.62-.48H753v-6.06h-.74Zm9.18-28.4h-3.32l-.38.36.38.42,3.32,0Zm-6.32,2.62q-1.66.34-3.42.54t-3.36.26v-2.94h-.74v3.76q.86,0,1.85-.09l2-.17q1-.1,2-.25t1.82-.33ZM753.64,310q-1.58.14-3,.18l-3,.06v.78q1.5,0,3-.07t3-.15Zm-.74.4h.74v-3.06h-.74Zm.74-3.4q-1.66.09-3.13.13l-3,.05.06.78,3-.06q1.45,0,3.09-.12Zm3.78,7.56h.74v-9.36h-.74ZM754.6,319l-2-1.36-.4.6L754,319.5Zm-6.26,2a7.84,7.84,0,0,0,2.81-2.06,6.75,6.75,0,0,0,1.47-3.18l-.76-.16a6.32,6.32,0,0,1-1.31,2.9,7.31,7.31,0,0,1-2.65,1.92Zm12-.38-3.16-2.22-.44.64.82.57.7.5.71.53.85.64Zm-6.72.7a8.21,8.21,0,0,0,4-5.64l-.76-.16a8,8,0,0,1-1.22,3,7.61,7.61,0,0,1-2.42,2.2Zm.18-25.08h-6.32V297h6.32Zm0-4.32q-1.48.08-3.13.13t-3.13.05v.78h1.51l1.6,0,1.61-.06,1.54-.07Zm0-3.58h-.74v8.22h.74Zm-6.32,8.3h.74v-8h-.74Zm14-3.8-3.32,0-.38.37.38.43,3.32,0Zm-4.06,9.12h.74V285.24h-.74Zm-9.9-33.66a11,11,0,0,0,4-2.74,8.8,8.8,0,0,0,2.16-4.1l-.92.26a6.45,6.45,0,0,1-.69,1.84,8.16,8.16,0,0,1-1.22,1.65,9.78,9.78,0,0,1-1.69,1.41,10.71,10.71,0,0,1-2.1,1.08Zm11.74,5.8-1.94.12q-1.14.06-2.34.09l-2.35,0q-1.15,0-2,0V275q.82,0,2,0l2.36,0,2.35-.08q1.14,0,1.94-.11Zm-8.62.6h.74v-2.88h-.74Zm7.52-3.48-1.79.09-2,.06-2,0-1.73,0v.78l1.71,0,2-.05,2-.07,1.81-.08Zm-.74.38h.74v-3h-.74Zm.74-3.34-1.85.07-2.09.06-2.06.06-1.78,0,.06.78,1.77,0,2-.05,2.07-.07,1.84-.08Zm-4.48-6.8-1.57.07-1.47.05-1.44,0h-1.5l.06.78,2.63,0q1.23,0,2.65-.08Zm3.74,6.12h.74v-8.28h-.74Zm-5.32-15.31a2.79,2.79,0,0,0,.93-.65,2.82,2.82,0,0,0,.57-.92,2.91,2.91,0,0,0,0-2.12,2.75,2.75,0,0,0-1.5-1.57,3.4,3.4,0,0,0-2.56,0,2.75,2.75,0,0,0-1.5,1.57,2.91,2.91,0,0,0,0,2.12,2.75,2.75,0,0,0,1.5,1.57,3.4,3.4,0,0,0,2.56,0m-2.28-.66a2,2,0,0,1-.69-.5,2.18,2.18,0,0,1-.41-.69,2.25,2.25,0,0,1-.14-.78,2.28,2.28,0,0,1,.14-.77,2.17,2.17,0,0,1,.41-.7,2,2,0,0,1,.69-.5,2.7,2.7,0,0,1,2,0,2,2,0,0,1,.7.5,2.17,2.17,0,0,1,.41.7,2.28,2.28,0,0,1,.14.77,2.24,2.24,0,0,1-.14.78,2.18,2.18,0,0,1-.41.69,2,2,0,0,1-.7.5,2.7,2.7,0,0,1-2,0m11.66-4.37h-3.32l-.38.36.38.42,3.32,0Zm-6.82-2.88-1.79.08-2.3.07-2.3,0-1.79,0,.06.78h1.09l1.4,0,1.55,0,1.56,0,1.41-.05,1.11-.05ZM753,242.06q-1.08-.34-2.08-.73t-2.06-.85l-.28.82q1,.44,2.06.81l2.06.71Zm4.44,13.84h.74V239.24h-.74Zm-11.82-24,3.85,0,4-.07q2,0,3.93-.11l3.77-.15,0,.78-3.74.14-3.9.11-3.93.08-3.83,0Zm14-5.08-4.42-3.06-.42.66,1,.7,1.13.79,1.13.81,1.06.78Zm-10.18.7a10.73,10.73,0,0,0,2.19-1.17,8.08,8.08,0,0,0,1.65-1.54,8.4,8.4,0,0,0,1.17-2,12.8,12.8,0,0,0,.75-2.41l-.72-.18a13.82,13.82,0,0,1-.69,2.28,7.25,7.25,0,0,1-1,1.79,7,7,0,0,1-1.53,1.41,12,12,0,0,1-2.12,1.14Zm4.62-.18h.74V232H754Zm-3.46-15.67a2.55,2.55,0,0,0,.82-.56,2.51,2.51,0,0,0,.53-.82,2.67,2.67,0,0,0,0-2,2.53,2.53,0,0,0-.53-.82,2.57,2.57,0,0,0-.82-.56,2.78,2.78,0,0,0-2.12,0,2.57,2.57,0,0,0-.82.56,2.53,2.53,0,0,0-.53.82,2.68,2.68,0,0,0,0,2,2.51,2.51,0,0,0,.53.82,2.55,2.55,0,0,0,.82.56,2.78,2.78,0,0,0,2.12,0m.31-3.67a2,2,0,0,1,0,2.6,2,2,0,0,1-2.74,0,2,2,0,0,1,0-2.6,2,2,0,0,1,2.74,0m.25-5.06q-.8-.28-1.57-.59t-1.57-.67l-.28.82q.76.34,1.56.63l1.58.57Zm1.42,1.76-1.49.06-1.75,0-1.76,0h-1.48l.06.76h1.46l1.73,0,1.74,0,1.49,0Zm5.08,1.94h-3v.76h3Zm-3.52,7.26h.74V200.44h-.74Zm3.34,2h.74V199.24h-.74Zm-12.28-34.8,3.91,0,4.11-.08,4.08-.11,3.82-.14,0-.78-3.85.15q-2,.07-4.1.11l-4.13.07-3.94,0Zm14.1,7-2,.12q-1.17.06-2.41.09l-2.42,0q-1.18,0-2,0v.78q.82,0,2,0l2.43,0,2.42-.08q1.17-.05,2-.11Zm-8.82.6h.74V186h-.74Zm7.72-3.32q-.8.05-1.82.09l-2.08.06-2.06,0-1.76,0v.78l1.74,0,2.06,0,2.08-.07,1.84-.08Zm-.74.38h.74V183h-.74Zm.74-3.06-1.88.07-2.16.06-2.13.05-1.81,0,.06.78,1.8,0,2.11,0,2.14-.07,1.87-.08Zm-.36-7.93a2.71,2.71,0,0,0-.77-.86,3.6,3.6,0,0,0-1.15-.55,5.4,5.4,0,0,0-2.84,0,3.6,3.6,0,0,0-1.15.55,2.7,2.7,0,0,0-.77.86,2.4,2.4,0,0,0,0,2.25,2.7,2.7,0,0,0,.77.86,3.6,3.6,0,0,0,1.15.55,5.37,5.37,0,0,0,2.84,0,3.6,3.6,0,0,0,1.15-.55,2.71,2.71,0,0,0,.77-.86,2.4,2.4,0,0,0,0-2.25m-6,.28a2,2,0,0,1,.61-.63,3.06,3.06,0,0,1,.92-.4,4.79,4.79,0,0,1,2.29,0,3.07,3.07,0,0,1,.92.4,2,2,0,0,1,.61.63,1.74,1.74,0,0,1,0,1.69,2,2,0,0,1-.61.63,3,3,0,0,1-.92.4,4.76,4.76,0,0,1-2.29,0,3,3,0,0,1-.92-.4,1.94,1.94,0,0,1-.61-.63,1.74,1.74,0,0,1,0-1.69m-4.6-12.1a9.72,9.72,0,0,0,2.82-2.5A9.61,9.61,0,0,0,751.7,157l-.76-.18a9.17,9.17,0,0,1-1.56,3.26,9.28,9.28,0,0,1-2.68,2.3Zm8-1.6-3.54-2-.38.68.87.5.83.48.85.51,1,.59Zm-2.08-6.86q-1.1-.2-2-.42t-2-.56l-.16.84q1.06.3,2,.51l2,.41Zm1.52,1.84-1.71.08-2,.07-2,0-1.71,0,.06.78,1.68,0,2,0,2-.07,1.71-.08Zm-4,12.23.74-.2V164.4h-.74Zm7.56-4.29-1.72.07-2,0-2.05,0H750.6l.06.76h1.71l2,0,2,0,1.73-.06Zm-.74,4.42h.74v-3.9h-.74Zm.74-.42H750.6V169h7.56Zm-.74-5.5h.74v-9.52h-.74Zm-12.26-21.2,3.91,0,4.11-.08,4.08-.11,3.82-.14,0-.78-3.85.15q-2,.07-4.1.11l-4.13.07-3.94,0Zm5.58-3.8h.74V133.6h-.74Zm7.42-4.3-1.7.07-2,0-2,0h-1.72l.06.76h1.68l2,0,2,0,1.71-.06Zm-.74,4.44h.74V134h-.74Zm.74-.44h-7.42v.78h7.42Zm-2.7,7.07a2.75,2.75,0,0,1,.87.43,2.07,2.07,0,0,1,.58.67,1.84,1.84,0,0,1,0,1.71,2.07,2.07,0,0,1-.58.67,2.75,2.75,0,0,1-.87.43,3.83,3.83,0,0,1-2.13,0,2.76,2.76,0,0,1-.86-.43,2.07,2.07,0,0,1-.58-.67,1.84,1.84,0,0,1,0-1.71,2.07,2.07,0,0,1,.58-.67,2.76,2.76,0,0,1,.86-.43,3.86,3.86,0,0,1,2.13,0m.31,4.58a3.35,3.35,0,0,0,1.09-.59,2.85,2.85,0,0,0,.73-.9,2.52,2.52,0,0,0,0-2.27,2.85,2.85,0,0,0-.73-.9,3.35,3.35,0,0,0-1.09-.59,4.46,4.46,0,0,0-2.7,0,3.35,3.35,0,0,0-1.09.59,2.85,2.85,0,0,0-.73.9,2.52,2.52,0,0,0,0,2.27,2.85,2.85,0,0,0,.73.9,3.35,3.35,0,0,0,1.09.59,4.44,4.44,0,0,0,2.7,0m-1.71-5.27h.74v-2.76h-.74Zm-.72-35.7q-1.1-.2-2-.42t-2-.56l-.16.84q1.06.3,2,.51l2,.41Zm1.56,1.36-1.77.08-2.17.07-2.17,0-1.77,0,.06.78,1.74,0,2.15,0,2.16-.07,1.77-.08Zm-5.71,5.34a3.87,3.87,0,0,0,4.14,0,1.84,1.84,0,0,0,.73-1.48,1.87,1.87,0,0,0-.73-1.49,3.82,3.82,0,0,0-4.14,0,1.87,1.87,0,0,0-.73,1.49,1.84,1.84,0,0,0,.73,1.48m.52-2.46a3.22,3.22,0,0,1,3.1,0,1.18,1.18,0,0,1,0,1.95,3.22,3.22,0,0,1-3.1,0,1.18,1.18,0,0,1,0-1.95m1.15,5.26h.74v-2.4h-.74Zm5.24-.94q-1,.16-2.33.3t-2.79.24q-1.44.1-2.84.15t-2.44.05l.06.78q1.06,0,2.45-.07L751,118q1.43-.1,2.78-.22t2.33-.28Zm1.32,1.72h.74V107.24h-.74Zm.74,1.18-1.94.07-2.29.06-2.27.05-1.88,0,.06.78,1.87,0,2.25,0,2.27-.07,1.93-.08Zm-.74,3.88h.74v-3.36h-.74ZM745.16,90.34l3.91,0,4.11-.08,4.08-.11,3.82-.14,0-.78-3.85.15q-2,.07-4.1.11l-4.13.07-3.94,0Zm13.9,5.16-2,.12q-1.17.06-2.41.09l-2.42,0q-1.18,0-2,0v.78q.82,0,2,0l2.43,0,2.42-.08q1.17,0,2-.11Zm-.2-9.84-1.94.12q-1.14.06-2.34.09l-2.35,0q-1.15,0-2,0v.78q.82,0,2,0l2.36,0,2.35-.08q1.14,0,1.94-.11Zm-8.62,1H751V81.82h-.74Zm0,9.84H751V92.16h-.74ZM750,71l-1.26-2-.6.4,1.42,2.34Zm4.5,1.86-1.86-3-.64.42q.54.82,1,1.52t.89,1.5Zm-4.52,1a18,18,0,0,0,1.76-3.92,21.43,21.43,0,0,0,.88-4.28l-.76,0a20.41,20.41,0,0,1-.83,4.11,16.6,16.6,0,0,1-1.69,3.69Zm4.16-8.76q-1,.1-1.93.13t-2,0l.06.78q1,0,1.92,0t1.92-.11Zm-4.26,0q-1,.1-2,.13t-2,0l.06.78q1,0,2,0t2-.11Zm-3.92,8.08a16.73,16.73,0,0,0,2.74-7.52l-.76,0a15.56,15.56,0,0,1-.84,3.72,16.06,16.06,0,0,1-1.78,3.4Zm12.2-4.62h-2.72v.78h2.72Zm-3.32,7.36h.74V62.44h-.74Zm2.62,2h.74V61.24h-.74ZM754.6,50.2,751.46,48l-.46.66.79.54.74.53.75.56.82.61Zm3.14-3.26H754v.78h3.76Zm-10.56,4.44a8.59,8.59,0,0,0,1.52-1.17,10.73,10.73,0,0,0,1.3-1.5A10.33,10.33,0,0,0,751,47a9.8,9.8,0,0,0,.64-1.88l-.76-.18a9.51,9.51,0,0,1-1.52,3.41,9,9,0,0,1-2.68,2.45ZM753,42.62q-1.1-.2-2-.42t-2-.56l-.16.84q1.06.3,2,.51l2,.41Zm1.22,1.8-1.66.08-1.93.07-1.93,0-1.66,0,.06.78,1.63,0,1.91,0,1.92-.07,1.66-.08Zm3.2,7.34h.74V41.24h-.74Zm2.4,4.74-5-2.66-.38.72L757,55.9l2.44,1.34Zm-10.42.76a7.86,7.86,0,0,0,3.51-1.93,8,8,0,0,0,2-3.37l-.72-.22a9.47,9.47,0,0,1-.75,1.76,5.88,5.88,0,0,1-1,1.34,6.1,6.1,0,0,1-1.42,1,9.64,9.64,0,0,1-1.9.73Z"/><path class="cls-3" d="M786.92,343.56a2,2,0,0,0,1.09,1.1,2.06,2.06,0,0,0,1.59,0,2,2,0,0,0,.66-.44,2.08,2.08,0,0,0,0-2.92,2,2,0,0,0-.66-.44,2.06,2.06,0,0,0-1.59,0,2.07,2.07,0,0,0-1.09,2.7m2.84.14a1.37,1.37,0,0,1-1.89,0,1.35,1.35,0,0,1,0-1.88,1.37,1.37,0,0,1,1.89,0,1.35,1.35,0,0,1,0,1.88m-6.22-20.56q-1.36.1-2.92.15t-2.9,0v.76h1.4l1.49,0,1.5-.05,1.43-.07Zm1.54,6.34a15.9,15.9,0,0,1-3.45.92,22.57,22.57,0,0,1-3.87.24l0,.74a22.4,22.4,0,0,0,4-.28,19.15,19.15,0,0,0,3.6-.92Zm-7.36,1.88.74-.2V323.9h-.74Zm13.76-4.28h-3.32l-.38.36.38.42,3.32,0Zm-4.06,8.82h.74V319.24h-.74Zm-2.16-26.62a30.25,30.25,0,0,1-3.56.88,29.24,29.24,0,0,1-3.88.44l0,.74a28.71,28.71,0,0,0,4-.46q1.89-.36,3.67-.88Zm-7.48,2,.74-.2v-8h-.74Zm9.64,4.58h.74V299.24h-.74Zm-12.34-29.1,3.94,0,4.13-.07q2.07,0,4.1-.11l3.85-.15,0,.78-3.82.14-4.08.11-4.11.08-3.91,0Zm14.26-2.9-4.16-2.16-.36.68,2,1.07,2.07,1.13Zm-9.68.8a8.38,8.38,0,0,0,3.57-2.1,7.5,7.5,0,0,0,1.91-3.56l-.72-.18a9.25,9.25,0,0,1-.7,1.85,5.75,5.75,0,0,1-1,1.43,6.49,6.49,0,0,1-1.45,1.08,11.3,11.3,0,0,1-1.91.82Zm8.5,10.4h-7.42v-.78h7.42Zm0-3.28-1.71.06-2,.05-2,0H780.8v-.76h1.7l2,0,2-.06,1.7-.07Zm0,2.82h-.74V289h.74Zm-7.42-5.34h.74v5.44h-.74Zm.56-28.44q-.82-.22-1.59-.48t-1.61-.58l-.24.8q.78.28,1.59.54t1.61.48Zm-.68,8a2.47,2.47,0,0,0,.82-.52,2.4,2.4,0,0,0,.53-.76,2.27,2.27,0,0,0,0-1.82,2.4,2.4,0,0,0-.53-.76,2.47,2.47,0,0,0-.82-.52,3.05,3.05,0,0,0-2.12,0,2.47,2.47,0,0,0-.82.52,2.4,2.4,0,0,0-.53.76,2.27,2.27,0,0,0,0,1.82,2.4,2.4,0,0,0,.53.76,2.47,2.47,0,0,0,.82.52,3.05,3.05,0,0,0,2.12,0m.31-3.35a1.62,1.62,0,0,1,0,2.32,2.13,2.13,0,0,1-2.74,0,1.62,1.62,0,0,1,0-2.32,2.13,2.13,0,0,1,2.74,0m1.59-3.08-1.49.06-1.75,0-1.75,0h-1.47l.06.76h1.46l1.72,0,1.73,0,1.49,0Zm1.68,6h.74v-8h-.74Zm3.72-4.2h-3.24V265h3.24Zm-.48,4.62h.74v-9.58h-.74Zm-3.1,4.24-2-1.36-.4.6,1.86,1.28Zm-6.3,1.88a6.71,6.71,0,0,0,2.79-1.94,7.18,7.18,0,0,0,1.39-3l-.76-.16a9.15,9.15,0,0,1-.49,1.56,4.7,4.7,0,0,1-.74,1.21,5.06,5.06,0,0,1-1.09.95,8.72,8.72,0,0,1-1.54.78Zm12.34-.38-3.2-2.26-.44.64.83.58.71.52.72.54.86.64Zm-7.06.7a6.63,6.63,0,0,0,2.65-2.2,7.76,7.76,0,0,0,1.25-3.12l-.76-.16a10.17,10.17,0,0,1-.42,1.58,5.6,5.6,0,0,1-.68,1.32,5.29,5.29,0,0,1-1,1.09,7.37,7.37,0,0,1-1.45.89Zm-5.94-25.92a13.9,13.9,0,0,0,4.11-3.32,11.12,11.12,0,0,0,2.29-4.46l-.92.26a9.19,9.19,0,0,1-2,3.87,14.06,14.06,0,0,1-3.94,3.07Zm6.4-7.78-1.57.07-1.47.05-1.44,0h-1.5l.06.78,2.63,0q1.23,0,2.65-.08Zm7.7,3h-3.32l-.38.36.38.42,3.32,0Zm-4.06,4.12h.74v-9.46h-.74Zm.74,1.38-1.94.07-2.29.06-2.27.06-1.88,0,.06.78,1.87,0L784,251l2.27-.07,1.93-.08Zm-.74,5.4h.74V250.6h-.74Zm-5.68-21.82a2.91,2.91,0,0,0,.71.91,3.19,3.19,0,0,0,1.06.6,4.34,4.34,0,0,0,2.67,0,3.19,3.19,0,0,0,1.06-.6,2.93,2.93,0,0,0,.71-.91,2.69,2.69,0,0,0,0-2.31,2.9,2.9,0,0,0-.71-.92,3.19,3.19,0,0,0-1.06-.6,4.34,4.34,0,0,0-2.67,0,3.19,3.19,0,0,0-1.06.6,2.88,2.88,0,0,0-.71.92,2.69,2.69,0,0,0,0,2.31m.68-2a2.05,2.05,0,0,1,.54-.68,2.55,2.55,0,0,1,.82-.44,3.49,3.49,0,0,1,2.09,0,2.54,2.54,0,0,1,.82.44,2.07,2.07,0,0,1,.54.68,2,2,0,0,1,0,1.76,2.07,2.07,0,0,1-.54.68,2.54,2.54,0,0,1-.82.44,3.49,3.49,0,0,1-2.09,0,2.55,2.55,0,0,1-.82-.44,2.05,2.05,0,0,1-.54-.68,2,2,0,0,1,0-1.76m.88-3.58-2.54-2.82-.54.52q.64.7,1.24,1.39l1.24,1.45Zm-6.76.92a12.49,12.49,0,0,0,1.79-1.62,7.74,7.74,0,0,0,1.16-1.71,8.45,8.45,0,0,0,.68-2,20.05,20.05,0,0,0,.35-2.43l-.78-.08a16.28,16.28,0,0,1-.29,2.29,7.74,7.74,0,0,1-.63,1.86,6.93,6.93,0,0,1-1.09,1.59,11.37,11.37,0,0,1-1.67,1.48ZM787.92,224h-3.3v.78h3.3Zm-3.76,4.36h.74v-7.94h-.74Zm3.28.5h.74v-9.64h-.74Zm-12.28-27,3.91,0,4.11-.08,4.08-.11q2-.06,3.82-.14l0-.78-3.85.15q-2,.07-4.1.11l-4.13.07-3.94,0Zm13.5-3.62-1.88.12q-1.08.06-2.23.09l-2.24,0q-1.09,0-1.93,0v.78q.82,0,1.91,0l2.24,0,2.24-.08,1.89-.11Zm-8.28.6h.74v-2.5h-.74Zm7.84-3.1q-.8.06-1.84.09l-2.12.06-2.1,0-1.78,0v.78l1.76,0,2.1,0,2.12-.07,1.86-.08Zm-.74.38h.74v-2.5h-.74Zm.74-2.84-1.9.07-2.2.06-2.17.05-1.83,0,.06.78,1.82,0,2.15-.05,2.18-.07,1.89-.08Zm1,15-2,.12q-1.17.06-2.41.09l-2.42,0q-1.18,0-2,0v.78q.82,0,2,0l2.43,0,2.42-.08q1.17,0,2-.11Zm-8.82.6h.74v-2.5h-.74Zm7.72-3.1q-.8.06-1.82.09l-2.08.06-2.06,0-1.76,0v.78l1.74,0,2.06-.05,2.08-.07,1.84-.08Zm-.74.38h.74v-2.5h-.74Zm.74-2.84-1.88.07-2.16.06-2.13.05-1.81,0,.06.78,1.8,0,2.11-.05,2.14-.07,1.87-.08Zm-2.6-18.48-3.84-3.64-.54.58.86.79,1,.94,1,1,.91.94Zm-8.5.94a14.51,14.51,0,0,0,3.16-3.62,16,16,0,0,0,1.8-4.52l-.78-.06a18.7,18.7,0,0,1-.7,2.26,11.65,11.65,0,0,1-1,2,12.14,12.14,0,0,1-1.33,1.76,17.39,17.39,0,0,1-1.74,1.66Zm7.68-8.78-1.68.08-2.06.07-2.06,0-1.68,0,.06.78,1.65,0,2,0,2-.07,1.68-.08Zm2.7,12.88h.74V173.24h-.74Zm-3.58-33q-1.66.1-3.28.15t-3.18.07l.06.78q1.4,0,2.87-.07l2.89-.11Zm-6.92,9.2a12.25,12.25,0,0,0,2.38-1.59,14.54,14.54,0,0,0,2.08-2.13,9.93,9.93,0,0,0,.83-1.25q.39-.69.71-1.41a14.16,14.16,0,0,0,.55-1.44q.23-.72.37-1.38l-.9.26a12.66,12.66,0,0,1-.75,2.37,10.24,10.24,0,0,1-1.43,2.41,13.18,13.18,0,0,1-2,2,12.14,12.14,0,0,1-2.26,1.48Zm10.48,3.76h.74V153.24h-.74Zm4.06-8.7h-3.32l-.38.35.38.41,3.32,0Zm-15.42-21.72a10.13,10.13,0,0,0,1.66-1.84,10.73,10.73,0,0,0,1.13-2.09,12.71,12.71,0,0,0,.69-2.33,17.31,17.31,0,0,0,.3-2.58l-.78,0a14,14,0,0,1-.89,4.61,9,9,0,0,1-2.65,3.67Zm6.68-.78-2.56-3.5-.62.48,1.25,1.71q.67.93,1.25,1.83Zm2.22-5.06H781.8v.78H785Zm-.5,8.26h.74V128.44h-.74Zm3,2h.74V127.24h-.74Zm-12.28-33.56,3.91,0,4.11-.08,4.08-.11,3.82-.14,0-.78-3.85.15q-2,.07-4.1.11l-4.13.07-3.94,0Zm13.9,5.16-2,.12q-1.17.06-2.41.09l-2.42,0q-1.18,0-2,0v.78q.82,0,2,0l2.43,0,2.42-.08q1.17-.05,2-.11Zm-.2-9.84-1.94.12q-1.14.06-2.34.09l-2.35,0q-1.15,0-2,0v.78q.82,0,2,0l2.36,0,2.35-.08q1.14,0,1.94-.11Zm-8.62,1H781v-4.84h-.74Zm0,9.84H781v-4.34h-.74Zm-3.73-25.93a3.38,3.38,0,0,0,.63,1.11,2.76,2.76,0,0,0,1,.71,3.07,3.07,0,0,0,2.43,0,2.76,2.76,0,0,0,1-.71,3.4,3.4,0,0,0,.63-1.11,4.54,4.54,0,0,0,0-2.86,3.4,3.4,0,0,0-.63-1.11,2.76,2.76,0,0,0-1-.71,3.07,3.07,0,0,0-2.43,0,2.76,2.76,0,0,0-1,.71,3.38,3.38,0,0,0-.63,1.11,4.54,4.54,0,0,0,0,2.86m1.15-3.46a2.2,2.2,0,0,1,3.31,0,3.55,3.55,0,0,1,0,4.06,2.2,2.2,0,0,1-3.31,0,3.55,3.55,0,0,1,0-4.06m7.4,1.53h-2.32v.78h2.32Zm-.5,7.26h.74V82.44h-.74Zm2.88,2h.74V81.24h-.74Zm-3.62-33q-1.66.1-3.31.15l-3.21.07.06.78,2.9-.07,2.92-.11Zm-7,9.2a12.25,12.25,0,0,0,2.38-1.59,14.54,14.54,0,0,0,2.08-2.13,10.79,10.79,0,0,0,.84-1.25q.4-.69.73-1.41a14.35,14.35,0,0,0,.57-1.44,12.66,12.66,0,0,0,.38-1.38l-.9.26a11.59,11.59,0,0,1-.78,2.37A11.11,11.11,0,0,1,780.68,70a13.19,13.19,0,0,1-2,2,12.19,12.19,0,0,1-2.26,1.48Zm10.58,3.76h.74V61.24h-.74ZM777,50.4a3.79,3.79,0,0,0,.73,1.18,3.38,3.38,0,0,0,1.09.79,3.27,3.27,0,0,0,2.69,0,3.38,3.38,0,0,0,1.09-.79,3.81,3.81,0,0,0,.73-1.18,4.1,4.1,0,0,0,0-2.92,3.81,3.81,0,0,0-.73-1.18,3.38,3.38,0,0,0-1.09-.79,3.27,3.27,0,0,0-2.69,0,3.38,3.38,0,0,0-1.09.79,3.8,3.8,0,0,0-.73,1.18,4.1,4.1,0,0,0,0,2.92m.67-2.65a2.85,2.85,0,0,1,.56-1,2.64,2.64,0,0,1,.85-.63,2.51,2.51,0,0,1,1.07-.23,2.46,2.46,0,0,1,1.05.23,2.64,2.64,0,0,1,.85.63,3,3,0,0,1,.57,1,3.46,3.46,0,0,1,0,2.38,3,3,0,0,1-.57.95,2.64,2.64,0,0,1-.85.63,2.46,2.46,0,0,1-1.05.23,2.51,2.51,0,0,1-1.07-.23,2.64,2.64,0,0,1-.85-.63,2.85,2.85,0,0,1-.56-.95,3.62,3.62,0,0,1,0-2.38m10.22-1.45h-3.5v.78h3.5Zm0,4.56h-3.5v.78h3.5Zm-.44,7h.74V41.24h-.74Z"/><path class="cls-3" d="M816.92,381.56a2,2,0,0,0,1.1,1.1,2.06,2.06,0,0,0,1.59,0,2,2,0,0,0,.66-.44,2.08,2.08,0,0,0,.44-.66,2.09,2.09,0,0,0,0-1.6,2.08,2.08,0,0,0-.44-.66,2,2,0,0,0-.66-.44,2.06,2.06,0,0,0-1.59,0,2.07,2.07,0,0,0-1.1,2.7m2.84.14a1.37,1.37,0,0,1-1.89,0,1.35,1.35,0,0,1,0-1.88,1.37,1.37,0,0,1,1.89,0,1.35,1.35,0,0,1,0,1.88m-6.22-20.56q-1.36.1-2.92.15t-2.9,0v.76h1.4l1.49,0,1.5-.05,1.43-.07Zm1.54,6.34a15.91,15.91,0,0,1-3.45.92,22.57,22.57,0,0,1-3.87.24l0,.74a22.4,22.4,0,0,0,4-.28,19.15,19.15,0,0,0,3.6-.92Zm-7.36,1.88.74-.2V361.9h-.74Zm13.76-4.28h-3.32l-.38.36.38.42,3.32,0Zm-4.06,8.82h.74V357.24h-.74Zm-2.16-26.62a30.26,30.26,0,0,1-3.56.88,29.24,29.24,0,0,1-3.88.44l0,.74a28.7,28.7,0,0,0,4-.46q1.89-.36,3.67-.88Zm-7.48,2,.74-.2v-8h-.74Zm9.64,4.58h.74V337.24h-.74Zm-12.34-29.1,3.94,0,4.13-.07q2.07,0,4.1-.11l3.85-.15,0,.78-3.82.14-4.08.11-4.11.08-3.91,0Zm14.26-2.9-4.16-2.16-.36.68,2,1.07,2.07,1.13Zm-9.68.8a8.38,8.38,0,0,0,3.57-2.1,7.5,7.5,0,0,0,1.91-3.56l-.72-.18a9.25,9.25,0,0,1-.7,1.85,5.75,5.75,0,0,1-1,1.43,6.49,6.49,0,0,1-1.45,1.08,11.3,11.3,0,0,1-1.91.82Zm8.5,10.4h-7.42v-.78h7.42Zm0-3.28-1.71.06-2,0-2,0H810.8v-.76h1.7l2,0,2-.06,1.7-.07Zm0,2.82h-.74V327h.74Zm-7.42-5.34h.74v5.44h-.74Zm-2.44-14.36a6.8,6.8,0,0,0,2.92-2.17,7.6,7.6,0,0,0,1.46-3.39l-.76-.16a7.28,7.28,0,0,1-1.31,3.17,6.35,6.35,0,0,1-2.75,2Zm9.12-6.74h.74v-9h-.74Zm-2.78,4.64-1.86-1.48-.44.6,1.74,1.42Zm5.76,1.74-3-2.4-.48.64.73.58.69.56.7.58.78.66Zm-6.74.68a7.55,7.55,0,0,0,2.7-2.52,8.63,8.63,0,0,0,1.3-3.4l-.76-.16a8.43,8.43,0,0,1-1.18,3.2,6.81,6.81,0,0,1-2.5,2.28Zm-6.11-9.76a3.12,3.12,0,0,0,.69,1,3.29,3.29,0,0,0,1,.68,3.23,3.23,0,0,0,2.49,0,3.3,3.3,0,0,0,1-.68,3.15,3.15,0,0,0,.69-1,3.21,3.21,0,0,0,0-2.48,3.15,3.15,0,0,0-.69-1,3.3,3.3,0,0,0-1-.68,3.23,3.23,0,0,0-2.49,0,3.29,3.29,0,0,0-1,.68,3.18,3.18,0,0,0-.69,3.49m.68-2.19a2.54,2.54,0,0,1,.52-.79,2.36,2.36,0,0,1,.78-.53,2.59,2.59,0,0,1,1.95,0,2.36,2.36,0,0,1,.78.53,2.54,2.54,0,0,1,.52.79,2.41,2.41,0,0,1,.19.95,2.39,2.39,0,0,1-.19,1,2.58,2.58,0,0,1-.52.78,2.36,2.36,0,0,1-.78.53,2.59,2.59,0,0,1-1.95,0,2.36,2.36,0,0,1-.78-.53,2.58,2.58,0,0,1-.52-.78,2.37,2.37,0,0,1-.19-1,2.4,2.4,0,0,1,.19-.95M805.08,280l3.94,0,4.13-.07q2.07,0,4.1-.11l3.85-.15,0,.78q-1.8.08-3.82.14l-4.08.11-4.11.08-3.91,0Zm14.1-3.52-4-2.24-.36.66,1.92,1.11,2,1.19Zm-9.6.86a9.16,9.16,0,0,0,3.76-2.36,8.41,8.41,0,0,0,2-4.08l-.72-.18a11.92,11.92,0,0,1-.76,2.16,6.43,6.43,0,0,1-1.09,1.62,6.83,6.83,0,0,1-1.52,1.22,11.75,11.75,0,0,1-2,.94Zm4.64,2.8H815v7.12h-.74Zm-9.06-26.56,3.91,0,4.11-.08,4.08-.11q2-.06,3.82-.14l0-.78-3.85.15q-2,.07-4.1.11l-4.13.07-3.94,0Zm12.94-3.68h-7.32v.78h7.32Zm0-2.82-1.69.07-1.94.06-1.94,0h-1.69v.76h1.67l2,0,2-.05,1.69-.06Zm0-2h-.74v5.2h.74Zm-7.32,5.26h.74v-4.92h-.74Zm3.28,3h.74v-2.76h-.74Zm5.2,6.94-2,.12q-1.17.06-2.41.09l-2.42,0q-1.18,0-2,0v.78q.82,0,2,0l2.43,0,2.42-.08q1.17,0,2-.11Zm-8.82.6h.74v-2.6h-.74Zm7.72-3.2q-.8.06-1.82.09l-2.08.06-2.06,0-1.76,0v.78l1.74,0,2.06-.05,2.08-.07,1.84-.08Zm-.74.38h.74v-2.6h-.74Zm.74-2.94-1.88.07-2.16.06-2.13.05-1.81,0,.06.78,1.8,0,2.11-.05,2.14-.07,1.87-.08Zm3.32-28.3h-3.32l-.38.36.38.42,3.32,0Zm-9.68,3.55a3.28,3.28,0,0,0,1.08-.79,3.63,3.63,0,0,0,.7-1.17,4.23,4.23,0,0,0,0-2.86,3.63,3.63,0,0,0-.7-1.17,3.28,3.28,0,0,0-1.08-.79,3.55,3.55,0,0,0-2.81,0,3.27,3.27,0,0,0-1.08.79,3.61,3.61,0,0,0-.7,1.17,4.23,4.23,0,0,0,0,2.86,3.61,3.61,0,0,0,.7,1.17,3.27,3.27,0,0,0,1.08.79,3.55,3.55,0,0,0,2.81,0m-.28-6.12a2.4,2.4,0,0,1,.84.63,2.93,2.93,0,0,1,.53.94,3.62,3.62,0,0,1,0,2.32,2.93,2.93,0,0,1-.53.94,2.4,2.4,0,0,1-.84.63,2.86,2.86,0,0,1-2.25,0,2.4,2.4,0,0,1-.84-.63,2.93,2.93,0,0,1-.53-.94,3.62,3.62,0,0,1,0-2.32,2.93,2.93,0,0,1,.53-.94,2.4,2.4,0,0,1,.84-.63,2.86,2.86,0,0,1,2.25,0m5.91,11.69h.74V219.24h-.74ZM807.34,209a9.19,9.19,0,0,0,2.8-2.55A10.29,10.29,0,0,0,811.8,203l-.76-.18a9.8,9.8,0,0,1-1.54,3.32,8.75,8.75,0,0,1-2.66,2.34Zm7.94-1.74-3.52-2.06-.38.7.85.5.82.49.85.52.94.59Zm-2.12-6.82q-1.1-.2-2-.42t-2-.56l-.16.84q1.06.3,2,.51l2,.41Zm1.52,1.86-1.71.08-2,.07-2,0-1.71,0,.06.78,1.68,0,2-.05,2-.07,1.71-.08Zm6.8,2h-3.32l-.38.36.38.42,3.32,0Zm-4.06,3.9h.74v-9h-.74Zm2.24,6.28-4.74-2.74-.38.7,1.1.63,1.22.72,1.23.74,1.15.69Zm-10.3.78a9.13,9.13,0,0,0,3.53-1.79,7.28,7.28,0,0,0,2-3.13l-.78-.2a8.73,8.73,0,0,1-.8,1.62,5.27,5.27,0,0,1-1.05,1.19,6.35,6.35,0,0,1-1.41.88,14.46,14.46,0,0,1-1.86.69Zm9-5.64-2,.08-2.38.08-2.36.07-1.92,0,.06.78,1.91,0,2.34-.07,2.36-.08,2-.08Zm-13.24-28.6,3.91,0,4.11-.08,4.08-.11,3.82-.14,0-.78-3.85.15q-2,.07-4.1.11l-4.13.07-3.94,0Zm14.1,7-2,.12q-1.17.06-2.41.09l-2.42,0q-1.18,0-2,0v.78q.82,0,2,0l2.43,0,2.42-.08q1.17-.05,2-.11Zm-8.82.6h.74V186h-.74Zm7.72-3.32q-.8.06-1.82.09l-2.08.06-2.06,0-1.76,0v.78l1.74,0,2.06,0,2.08-.07,1.84-.08Zm-.74.38h.74V183h-.74Zm.74-3.06-1.88.07-2.16.06-2.13.05-1.81,0,.06.78,1.8,0,2.11,0,2.14-.07,1.87-.08Zm-.36-7.93a2.7,2.7,0,0,0-.77-.86,3.6,3.6,0,0,0-1.15-.55,5.37,5.37,0,0,0-2.84,0,3.6,3.6,0,0,0-1.15.55,2.7,2.7,0,0,0-.77.86,2.4,2.4,0,0,0,0,2.25,2.7,2.7,0,0,0,.77.86,3.6,3.6,0,0,0,1.15.55,5.37,5.37,0,0,0,2.84,0,3.6,3.6,0,0,0,1.15-.55,2.7,2.7,0,0,0,.77-.86,2.4,2.4,0,0,0,0-2.25m-6,.28a2,2,0,0,1,.61-.63,3.06,3.06,0,0,1,.92-.4,4.79,4.79,0,0,1,2.29,0,3.06,3.06,0,0,1,.92.4,2,2,0,0,1,.61.63,1.74,1.74,0,0,1,0,1.69,2,2,0,0,1-.61.63,3.06,3.06,0,0,1-.92.4,4.79,4.79,0,0,1-2.29,0,3.06,3.06,0,0,1-.92-.4,2,2,0,0,1-.61-.63,1.74,1.74,0,0,1,0-1.69m-6.72-14.24,3.94,0,4.13-.07q2.07,0,4.1-.11l3.85-.15,0,.78-3.82.14-4.08.11-4.11.08-3.91,0Zm14.26-2.9-4.16-2.16-.36.68,2,1.07,2.07,1.13Zm-9.68.8a8.38,8.38,0,0,0,3.57-2.1,7.5,7.5,0,0,0,1.91-3.56l-.72-.18a9.25,9.25,0,0,1-.7,1.85,5.75,5.75,0,0,1-1,1.43,6.49,6.49,0,0,1-1.45,1.08,11.3,11.3,0,0,1-1.91.82Zm8.5,10.4h-7.42v-.78h7.42Zm0-3.28-1.71.06-2,0-2,0H810.8v-.76h1.7l2,0,2-.06,1.7-.07Zm0,2.82h-.74V163h.74Zm-7.42-5.34h.74v5.44h-.74Zm-5.06-16.14,3.83,0,3.93-.08,3.9-.11,3.74-.14,0-.78-3.77.15q-1.95.07-3.93.11l-4,.07-3.85,0Zm8.38-.68h.74v-3.86h-.74Zm-3.36-5.26h.74v-5.44h-.74Zm7.46-5.58-1.7.07-2,0-2,0H810.7l.06.76h1.69l2,0,2,0,1.72-.06Zm-.74,5.7h.74v-5.18h-.74Zm.74-.42H810.7v.78h7.46Zm-12.48-20,3.83,0,3.93-.08,3.9-.11,3.74-.14,0-.78-3.77.15q-1.95.07-3.93.11l-4,.07-3.85,0Zm12.58-11.24-1.93.08-2.28.06-2.29,0-2,0,.06.78,1.88,0,2.1,0,2,0,1.75-.06ZM817,118.54q.22-.94.42-2t.36-2.25q.16-1.15.28-2.31t.18-2.22l-.8.26q0,.94-.14,2t-.26,2.2q-.16,1.11-.36,2.18t-.44,2ZM806.8,93.48a9.36,9.36,0,0,0,1.92-1.81,12.18,12.18,0,0,0,1.41-2.23,12.94,12.94,0,0,0,.93-2.55,18.8,18.8,0,0,0,.48-2.79l-.76-.1a19.19,19.19,0,0,1-.45,2.71,11.85,11.85,0,0,1-.85,2.38,10.4,10.4,0,0,1-1.32,2.06,9.83,9.83,0,0,1-1.86,1.73Zm7.74-.3-2.9-4.06-.64.5q.68.9,1.42,2t1.44,2.11Zm3-5.54h-3.92v.78h3.92Zm-.12,10.26h.74V81.24h-.74ZM806.51,70.57a3.36,3.36,0,0,0,.63,1.11,2.75,2.75,0,0,0,1,.71,3.07,3.07,0,0,0,2.43,0,2.75,2.75,0,0,0,1-.71,3.38,3.38,0,0,0,.63-1.11,4.54,4.54,0,0,0,0-2.86,3.4,3.4,0,0,0-.63-1.11,2.77,2.77,0,0,0-1-.71,3.07,3.07,0,0,0-2.43,0,2.77,2.77,0,0,0-1,.71,3.38,3.38,0,0,0-.63,1.11,4.54,4.54,0,0,0,0,2.86m1.15-3.46a2.2,2.2,0,0,1,3.31,0,3.55,3.55,0,0,1,0,4.06,2.2,2.2,0,0,1-3.31,0,3.55,3.55,0,0,1,0-4.06m7.4,1.53h-2.32v.78h2.32Zm-.5,7.26h.74V62.44h-.74Zm2.88,2h.74V61.24h-.74ZM805.16,49.76l3.91,0,4.11-.08,4.08-.11q2-.06,3.82-.14l0-.78-3.85.15q-2,.07-4.1.11l-4.13.07-3.94,0Zm13.48-4.28-1.86.12q-1.06.06-2.17.09l-2.17,0q-1.06,0-1.9,0v.78q.82,0,1.89,0l2.18,0,2.17-.08,1.86-.11Zm-.44-4-1.71.08-2.13.06-2.13,0h-1.69v.76h1.68l2.12,0,2.14,0,1.72-.07Zm-7.66,5,.74-.2v-4h-.74Zm5.2,10.58a3.36,3.36,0,0,0,1.1-.58,2.81,2.81,0,0,0,.74-.9,2.69,2.69,0,0,0,0-2.35,2.81,2.81,0,0,0-.74-.9,3.34,3.34,0,0,0-1.1-.58,4.82,4.82,0,0,0-2.75,0,3.34,3.34,0,0,0-1.1.58,2.79,2.79,0,0,0-.74.9,2.69,2.69,0,0,0,0,2.35,2.8,2.8,0,0,0,.74.9,3.36,3.36,0,0,0,1.1.58,4.84,4.84,0,0,0,2.75,0m-.29-4.64a2.66,2.66,0,0,1,.88.41,2,2,0,0,1,0,3.15,2.68,2.68,0,0,1-.88.41,4.28,4.28,0,0,1-2.17,0,2.68,2.68,0,0,1-.88-.41,2,2,0,0,1,0-3.15,2.66,2.66,0,0,1,.88-.41,4.25,4.25,0,0,1,2.17,0"/><path class="cls-3" d="M851,343.1l-.48-.6-6.76,3.88L837,342.5l-.48.6,7.24,4.14Zm-15.86-12,3.91,0,4.11-.08,4.08-.11,3.82-.14,0-.78-3.85.15q-2,.07-4.1.11l-4.13.07-3.94,0Zm10.57-2.81a3.37,3.37,0,0,0,1.11-.6,2.83,2.83,0,0,0,.74-.94,2.82,2.82,0,0,0,0-2.41,2.82,2.82,0,0,0-.74-.94,3.37,3.37,0,0,0-1.11-.6,4.69,4.69,0,0,0-2.77,0,3.36,3.36,0,0,0-1.11.6,2.8,2.8,0,0,0-.74.94,2.82,2.82,0,0,0,0,2.41,2.8,2.8,0,0,0,.74.94,3.36,3.36,0,0,0,1.11.6,4.69,4.69,0,0,0,2.77,0m-.29-4.82a2.73,2.73,0,0,1,.88.44,2.07,2.07,0,0,1,.59.7,2.19,2.19,0,0,1,0,1.87,2.07,2.07,0,0,1-.59.7,2.71,2.71,0,0,1-.88.44,4.05,4.05,0,0,1-2.19,0,2.7,2.7,0,0,1-.88-.44,2.06,2.06,0,0,1,0-3.27,2.72,2.72,0,0,1,.88-.44,4.08,4.08,0,0,1,2.19,0m3.81,14.37-4.4-2.36-.38.72,2.18,1.18,2.2,1.2Zm-10,.68a9.27,9.27,0,0,0,3.55-2,7.82,7.82,0,0,0,2-3.12l-.8-.14a6.39,6.39,0,0,1-1.87,2.84,8.85,8.85,0,0,1-3.23,1.72Zm9.14-5.7-2,.08L844,333l-2.36.07-1.92,0,.06.78,1.91,0,2.34-.07,2.36-.08,2-.08Zm-2.84-18.56-3.84-3.64-.54.58.86.79,1,.94q.51.49,1,1l.91.94Zm-8.5.94a14.54,14.54,0,0,0,3.16-3.62,16,16,0,0,0,1.8-4.52l-.78-.06a19,19,0,0,1-.7,2.26,11.72,11.72,0,0,1-1,2,12.19,12.19,0,0,1-1.33,1.76,17.5,17.5,0,0,1-1.74,1.66Zm7.68-8.78-1.68.08-2.06.07-2.06,0-1.68,0,.06.78,1.65,0,2-.05,2-.07,1.68-.08Zm2.7,12.88h.74V302.68h-.74Zm-.18-29.22.87.72q.47.4.93.83l.9.86q.44.43.78.79l.78-.8-.84-.78-1-.84-1-.82q-.49-.4-.93-.72Zm-12.1-12.94,3.91,0,4.11-.08,4.08-.11,3.82-.14,0-.78-3.85.15q-2,.07-4.1.11l-4.13.07-3.94,0Zm14.38,6.18-4.3-3-.4.62q1,.64,2.08,1.44l2.16,1.56Zm-10.2.62a10.36,10.36,0,0,0,3.72-2,6.49,6.49,0,0,0,2-3.39l-.72-.18a7.47,7.47,0,0,1-.71,1.81,5.09,5.09,0,0,1-1.07,1.31,6.9,6.9,0,0,1-1.52,1,16.43,16.43,0,0,1-2,.81Zm2-12a2.61,2.61,0,0,0,.71.91,3.51,3.51,0,0,0,1.08.6,4.41,4.41,0,0,0,2.76,0,3.49,3.49,0,0,0,1.09-.6,2.61,2.61,0,0,0,.71-.91,2.78,2.78,0,0,0,0-2.31,2.72,2.72,0,0,0-.71-.92,3.4,3.4,0,0,0-1.09-.61,4.41,4.41,0,0,0-2.76,0,3.41,3.41,0,0,0-1.08.61,2.72,2.72,0,0,0-.71.92,2.78,2.78,0,0,0,0,2.31m.69-2a2.12,2.12,0,0,1,.55-.69,2.65,2.65,0,0,1,.85-.46,3.62,3.62,0,0,1,2.19,0,2.65,2.65,0,0,1,.85.46,2.12,2.12,0,0,1,.55.69,2,2,0,0,1,0,1.76,2.12,2.12,0,0,1-.55.69,2.65,2.65,0,0,1-.85.46,3.62,3.62,0,0,1-2.19,0,2.65,2.65,0,0,1-.85-.46,2.12,2.12,0,0,1-.55-.69,2,2,0,0,1,0-1.76m2.14,6.66h.74v-3.2h-.74Zm.72-17.14-3.34-4-.6.54,1.64,1.93q.88,1,1.64,2.07Zm-8.18.68a10.55,10.55,0,0,0,3.37-4,15.17,15.17,0,0,0,1.47-5.29l-.76-.1a14.5,14.5,0,0,1-1.35,5,10.09,10.09,0,0,1-3.23,3.73Zm10.76,4.48h.74V248h-.74Zm-3.64-22.9-7.24,4.14.48.6,6.76-3.88,6.76,3.88.48-.6ZM835.68,230l3.83,0,3.93-.08,3.9-.11,3.74-.14,0-.78-3.77.15-3.93.11-3.95.07-3.85,0Zm8.38-.68h.74v-3.14h-.74Zm4.6-4.64-1.91.12q-1.11.06-2.28.09l-2.28,0q-1.11,0-2,0v.78q.82,0,1.94,0l2.29,0,2.28-.08,1.91-.11Zm-8.42.6H841V222h-.74Zm8-3.9q-.8.05-1.86.09l-2.17.06-2.15,0-1.8,0v.78l1.78,0,2.15-.05,2.17-.07,1.88-.08Zm-.74.38h.74v-3.3h-.74Zm.74-3.64-1.92.07-2.24.06-2.22.06-1.86,0,.06.78,1.84,0,2.2-.05,2.23-.07,1.91-.08Zm-12.54-8.42,3.83,0,3.93-.08,3.9-.11,3.74-.14,0-.78-3.77.15-3.93.11-3.95.07-3.85,0Zm4.89-7a3.41,3.41,0,0,0,.81,1.13,3.82,3.82,0,0,0,1.21.75,4.34,4.34,0,0,0,3,0,3.81,3.81,0,0,0,1.22-.75,3.44,3.44,0,0,0,.81-1.13,3.48,3.48,0,0,0,0-2.79,3.43,3.43,0,0,0-.81-1.13,3.81,3.81,0,0,0-1.22-.75,4.35,4.35,0,0,0-3,0,3.83,3.83,0,0,0-1.21.75,3.46,3.46,0,0,0-.81,3.92m.69-2.49a2.86,2.86,0,0,1,1.63-1.46,3.7,3.7,0,0,1,2.45,0,2.86,2.86,0,0,1,1.63,1.46,2.63,2.63,0,0,1,0,2.19,2.92,2.92,0,0,1-.65.88,2.89,2.89,0,0,1-1,.59,3.68,3.68,0,0,1-2.45,0,2.85,2.85,0,0,1-1.62-1.46,2.63,2.63,0,0,1,0-2.19m-4.06-14.37a11,11,0,0,0,3-3,10.39,10.39,0,0,0,1.52-4.05l-.82-.06a11.75,11.75,0,0,1-.54,2.08,7.68,7.68,0,0,1-.86,1.68,8.74,8.74,0,0,1-1.22,1.42,15.08,15.08,0,0,1-1.6,1.3Zm10.34-4.66H844V182h3.56Zm-2.84,3.92-3.1-3-.54.6q.76.7,1.47,1.43t1.55,1.63Zm-.3-6.9-1.62.08-1.93.08-1.92.05-1.61,0,.06.78,1.58,0,1.9-.06,1.92-.08,1.62-.08Zm3,7.88h.74V176h-.74Zm.74,1.28-2,.07-2.35.06-2.32.05-1.9,0,.06.78,1.89,0,2.3-.05,2.33-.07,2-.08Zm-.74,5h.74v-4.52h-.74Zm-11.74-22.3,3.83,0,3.93-.08,3.9-.11,3.74-.14,0-.78-3.77.14-3.93.1-3.95.07-3.85,0Zm12.66-6.18h-9v.78h9Zm-1.72.4.44-4.72-.78-.08-.42,4.72Zm-4.22-.1-.27-4.56-.79.06.34,4.54Zm6-6.4-1.24.07-1.53.06L844,158l-1.69,0-1.55,0h-1.27l.06.78h1.24l1.54,0,1.68,0,1.67,0,1.53-.05,1.24-.07Zm-6,11.62-.16-3.32-.74,0,.17,3.34Zm3.78-.12H847V165.9h-.74Zm-4.28-29.78q-1.28.1-2.42.13t-2.4,0v.78l2.39,0q1.13,0,2.43-.1Zm5.68,3.7h-3.2V144h3.2Zm-10.5,4.48h.74v-7.8h-.74Zm6.82,2.9h.74V137.16h-.74Zm-1.64-4.26q-1.36.38-2.55.6t-2.63.34v.76q1.46-.14,2.72-.36t2.62-.6Zm5.14,6.26h.74V136h-.74Zm-.18-29.22.87.72q.47.4.93.83l.9.86q.44.43.78.79l.78-.8-.84-.78-1-.84-1-.82q-.49-.4-.93-.72Zm-5.42-18.58q-1.28.1-2.42.13t-2.4,0v.78l2.39,0q1.13,0,2.43-.1Zm2.88,3.4h-3.46V109h3.46ZM837,113h.74v-7.8H837Zm7.36,2.9h.74V102.44h-.74Zm-2.18-4.1q-1.32.34-2.55.53a21.22,21.22,0,0,1-2.63.23v.78a21.31,21.31,0,0,0,2.72-.25,26.49,26.49,0,0,0,2.62-.55Zm5.24,6.1h.74V101.24h-.74ZM835.16,90.34l3.91,0,4.11-.08,4.08-.11,3.82-.14,0-.78-3.85.15q-2,.07-4.1.11l-4.13.07-3.94,0Zm13.9,5.16-2,.12q-1.17.06-2.41.09l-2.42,0q-1.18,0-2,0v.78q.82,0,2,0l2.43,0,2.42-.08q1.17,0,2-.11Zm-.2-9.84-1.94.12q-1.14.06-2.34.09l-2.35,0q-1.15,0-2,0v.78q.82,0,2,0l2.36,0,2.35-.08q1.14,0,1.94-.11Zm-8.62,1H841V81.82h-.74Zm0,9.84H841V92.16h-.74Zm7.62-32.36H844.6v.78h3.26Zm0,3.32H844.6v.78h3.26ZM844.48,75l-1.9-1.36-.4.6,1.74,1.26Zm-6.18,1.94a7.38,7.38,0,0,0,4.26-5.06l-.76-.16a6.56,6.56,0,0,1-1.36,2.8,7,7,0,0,1-2.58,1.82Zm12.08-.36-3.06-2.3-.46.64.76.57.72.54.73.56.79.63Zm-6.68.68a7.2,7.2,0,0,0,1.4-1A7.93,7.93,0,0,0,846.23,75a8.57,8.57,0,0,0,.83-1.48,7.66,7.66,0,0,0,.5-1.6l-.76-.16a7.33,7.33,0,0,1-1.18,2.86,7.21,7.21,0,0,1-2.36,2.08Zm.92-8.24q-1.66.3-3.32.45a31.89,31.89,0,0,1-3.26.13v-3h-.74v3.78q.86,0,1.82,0t1.93-.11q1-.07,1.92-.19t1.79-.28Zm-1.42-3q-1.58.14-3,.18l-2.92.06V67q1.5,0,2.92-.07t3-.15Zm-.74.4h.74V63.24h-.74Zm.74-3.52-1.58.07-1.5.05-1.47,0-1.51,0,.06.78,2.95-.06q1.41,0,3.05-.12Zm4.22,7.9h.74V61.24h-.74ZM835.68,55l3.83,0,3.93-.08,3.9-.11,3.74-.14,0-.78-3.77.15q-2,.07-3.93.11l-3.95.07-3.85,0Zm12.58-11.24-1.93.08-2.28.06-2.29,0-2,0,.06.78,1.88,0,2.1,0,2,0,1.75-.06ZM847,52.54q.22-.94.42-2t.36-2.25q.16-1.15.28-2.31t.18-2.22l-.8.26q0,.94-.14,2t-.26,2.2q-.16,1.11-.36,2.18t-.44,2Z"/><path class="cls-3" d="M877.86,370.54H874.5v.78h3.36Zm0,4.52H874.5v.78h3.36Zm-4.2,1.84q-1.54.22-2.91.34t-3,.18v-4.14h-.74v4.92q1.64-.06,3.34-.19t3.34-.34Zm3.76,5h.74V365.24h-.74Zm-4-9.26q-1.58.14-3.22.18l-3.16.06v.78l3.16-.07q1.66,0,3.22-.15Zm-.74.4h.74v-4.2h-.74Zm.74-4.54q-1.66.09-3.32.13l-3.22.05.06.78,3.2-.06q1.64,0,3.28-.12Zm-7.76-9.3,3.83,0,3.93-.08,3.9-.11,3.74-.14,0-.78-3.77.15q-1.95.07-3.93.11l-4,.07-3.85,0Zm8-6.36-1,.28a9,9,0,0,1-.89.19q-.44.07-.93.1c-.33,0-.7,0-1.13,0v.78q.62,0,1.13,0t1-.1q.48-.07,1-.18t1-.27Zm5.16.38-1.12.07-.94.05-.94,0h-1.12v.78h1.12l.93,0,.94,0,1.13-.07Zm0-5.58-1.14.07-1,0-.94,0h-1.08l.06.76h1l.92,0,.95,0,1.14-.07Zm-5,0-1.14.07-1,0-.94,0h-1.08l.06.76h1l.92,0,1,0,1.14-.07Zm.86,6.52.74-.2v-6.18h-.74Zm-5,.06.74-.2v-6.24h-.74Zm8.12-21.7h-3.38v.78h3.38Zm-6.23,3.81a3.36,3.36,0,0,0,1.1-.79,3.66,3.66,0,0,0,.72-1.17,4.08,4.08,0,0,0,0-2.86,3.66,3.66,0,0,0-.72-1.17,3.4,3.4,0,0,0-5,0,3.66,3.66,0,0,0-.72,1.17,4.08,4.08,0,0,0,0,2.86,3.66,3.66,0,0,0,.72,1.17,3.45,3.45,0,0,0,3.89.79m-.29-6.12a2.61,2.61,0,0,1,.86.63,2.89,2.89,0,0,1,.56.94,3.45,3.45,0,0,1,0,2.32,2.89,2.89,0,0,1-.56.94,2.66,2.66,0,0,1-3.93,0,2.87,2.87,0,0,1-.56-.94,3.45,3.45,0,0,1,0-2.32,2.87,2.87,0,0,1,.56-.94,2.6,2.6,0,0,1,2-.86,2.63,2.63,0,0,1,1.1.23m6.09,11.69h.74V325.24h-.74Zm-2.18-30a15.66,15.66,0,0,1-1.89.34,17.86,17.86,0,0,1-2,.1l0,.74a19.4,19.4,0,0,0,2.07-.1q.93-.1,2-.32Zm-.62-4.78-.88.05-.74,0h-1.68l.06.78H873l.73,0,.88,0Zm.24,3.08h3v-.78h-3Zm-3.54,2.86.74-.2v-5.26l-.74-.4Zm-1-1.38a7.07,7.07,0,0,1-.79.36,6.36,6.36,0,0,1-.74.23,5.64,5.64,0,0,1-.79.13q-.42,0-1,0l0,.72a9.67,9.67,0,0,0,1,0c.31,0,.61-.08.9-.14a6.16,6.16,0,0,0,.86-.24q.43-.16.91-.37ZM867,313.18l.74-.2v-5.36l-.74-.4Zm3.3-6-.88.05-.74,0H867l.06.78h1.63l.73,0,.88,0Zm8.94,13-2,.12q-1.15.06-2.38.09l-2.39,0q-1.16,0-2,0v.78q.82,0,2,0l2.39,0,2.39-.08q1.16-.05,2-.11Zm-8.72.6h.74V318h-.74Zm7.62-3.32-1.81.09-2,.06-2,0-1.74,0v.78l1.73,0,2,0,2-.07,1.83-.08Zm-.74.38h.74V315h-.74Zm.74-3.18-1.86.07-2.12.06-2.1.05-1.8,0,.06.78,1.79,0,2.08-.05,2.1-.07,1.85-.08Zm-.74-.88h.74v-8.5h-.74Zm-10-24.4a13.9,13.9,0,0,0,4.11-3.32,11.12,11.12,0,0,0,2.29-4.46l-.92.26a9.19,9.19,0,0,1-2,3.87,14.06,14.06,0,0,1-3.94,3.07Zm6.4-7.78-1.57.07-1.47.05-1.44,0h-1.5l.06.78,2.63,0q1.23,0,2.65-.08Zm7.7,3h-3.32l-.38.36.38.42,3.32,0Zm-4.06,4.12h.74v-9.46h-.74Zm.74,1.38-1.94.07-2.29.06-2.27.06-1.88,0,.06.78,1.87,0L874,291l2.27-.07,1.93-.08Zm-.74,5.4h.74V290.6h-.74Zm-10-26.14a13.9,13.9,0,0,0,4.11-3.32,11.12,11.12,0,0,0,2.29-4.46l-.92.26a9.19,9.19,0,0,1-2,3.87,14.06,14.06,0,0,1-3.94,3.07Zm6.4-7.78-1.57.07-1.47.05-1.44,0h-1.5l.06.78,2.63,0q1.23,0,2.65-.08Zm7.7,3h-3.32l-.38.36.38.42,3.32,0Zm-4.06,4.12h.74v-9.46h-.74Zm.74,1.38-1.94.07-2.29.06-2.27.06-1.88,0,.06.78,1.87,0L874,271l2.27-.07,1.93-.08Zm-.74,5.4h.74V270.6h-.74ZM865.16,241.1l3.91,0,4.11-.08,4.08-.11q2-.06,3.82-.14l0-.78-3.85.15q-2,.07-4.1.11l-4.13.07-3.94,0Zm14.1,7-2,.12q-1.17.06-2.41.09l-2.42,0q-1.18,0-2,0v.78q.82,0,2,0l2.43,0,2.42-.08q1.17,0,2-.11Zm-8.82.6h.74V246h-.74Zm7.72-3.32q-.8.06-1.82.09l-2.08.06-2.06,0-1.76,0v.78l1.74,0,2.06-.05,2.08-.07,1.84-.08Zm-.74.38h.74V243h-.74Zm.74-3.06-1.88.07-2.16.06-2.13.06-1.81,0,.06.78,1.8,0,2.11-.05,2.14-.07,1.87-.08Zm-.36-7.93a2.71,2.71,0,0,0-.77-.86,3.6,3.6,0,0,0-1.15-.55,5.37,5.37,0,0,0-2.84,0,3.6,3.6,0,0,0-1.15.55,2.71,2.71,0,0,0-.77.86,2.4,2.4,0,0,0,0,2.25,2.7,2.7,0,0,0,.77.86,3.6,3.6,0,0,0,1.15.55,5.4,5.4,0,0,0,2.84,0,3.6,3.6,0,0,0,1.15-.55,2.7,2.7,0,0,0,.77-.86,2.4,2.4,0,0,0,0-2.25m-6,.28a1.94,1.94,0,0,1,.61-.63,3,3,0,0,1,.92-.4,4.76,4.76,0,0,1,2.29,0,3,3,0,0,1,.92.4,2,2,0,0,1,.61.63,1.74,1.74,0,0,1,0,1.69,2,2,0,0,1-.61.63,3,3,0,0,1-.92.4,4.79,4.79,0,0,1-2.29,0,3,3,0,0,1-.92-.4,1.94,1.94,0,0,1-.61-.63,1.74,1.74,0,0,1,0-1.69m3.3-14q-1.66.3-3.44.52t-3.38.28v-3h-.74v3.8q.86,0,1.85-.09t2-.18q1-.11,2-.26t1.83-.31Zm-1.52-2.8q-1.58.14-3,.18l-3,.06v.78q1.5,0,3-.07t3-.15Zm-.74.4h.74v-3.1h-.74Zm.74-3.44q-1.66.09-3.15.13l-3,.05.06.78,3-.06q1.47,0,3.11-.12Zm-2.92,13.37.74-.2v-4.07h-.74Zm7.5-4.41-1.71.07-2,0-2,0h-1.73l.06.76h1.7l2,0,2,0,1.72-.06Zm-.74,4.56h.74v-4h-.74Zm.74-.42h-7.5V229h7.5Zm-.74-5.64h.74v-9.38h-.74ZM867.22,205H868v-7.8h-.74Zm5.26-1.38q-1.36.38-2.59.62t-2.67.38v.72q1.46-.14,2.75-.37t2.67-.61Zm5.44-3.2h-3.6v.78h3.6Zm-4.06,7.48h.74V194.44h-.74Zm3.58,2h.74V193.24h-.74Zm-1.18-31.52-2.62.4q-1.26.18-2.54.31t-2.61.21l-2.79.14.16.78q1.46-.06,2.78-.15t2.57-.22q1.25-.13,2.5-.3t2.61-.39Zm-1.72-7.94q-1.66.1-3.47.16t-3.45.06l.06.78q1.48,0,3.1,0t3.12-.14Zm-1.08,6.34q.4-1.5.67-3.07t.41-3.27l-.8.26q-.1,1.42-.36,2.93a28.63,28.63,0,0,1-.66,2.93Zm-4,2.72h.74V175h-.74Zm12-2.72h-3.32l-.38.36.38.42,3.32,0Zm-4.06,7.12h.74V167.24h-.74Zm-10.22-27a9.7,9.7,0,0,0,2.82-2.5A9.57,9.57,0,0,0,871.7,151l-.76-.18a8.67,8.67,0,0,1-4.24,5.56Zm8-1.6-3.54-2-.38.68.87.5.83.48.85.51,1,.59Zm-2.08-6.86q-1.1-.2-2-.42T869,147.5l-.16.84q1.06.3,2,.51l2,.41Zm1.52,1.84-1.71.08-2,.07-2,0-1.71,0,.06.78,1.68,0,2,0,2-.07,1.71-.08Zm-4,12.23.74-.2v-4h-.74Zm7.56-4.29-1.72.07-2.05,0-2,0H870.6l.06.76h1.71l2,0,2,0,1.73-.06Zm-.74,4.42h.74v-3.9h-.74Zm.74-.42H870.6V163h7.56Zm-.74-5.5h.74v-9.52h-.74ZM870,134.2l-1.28.06-1.26,0v.78l1.24,0L870,135Zm5-.2-1.28.06-1.26,0v.78l1.24,0,1.3-.06Zm.56,4.38h-3.72v.72h3.72Zm-5,0h-3.72v.72h3.72Zm5-8.1h-.74v8.42h.74Zm-3.72,8.48h.74V130.6h-.74Zm-1.28-8.06h-.74v7.94h.74Zm-3.72,8.1h.74V131h-.74Zm10.5,5.08h.74V127.24h-.74ZM866.8,113.48a9.36,9.36,0,0,0,1.92-1.81,12.21,12.21,0,0,0,1.41-2.23,12.94,12.94,0,0,0,.93-2.55,18.81,18.81,0,0,0,.48-2.79l-.76-.1a19.22,19.22,0,0,1-.45,2.71,11.85,11.85,0,0,1-.85,2.38,10.4,10.4,0,0,1-1.32,2.06,9.86,9.86,0,0,1-1.86,1.73Zm7.74-.3-2.9-4.06-.64.5q.68.9,1.42,2t1.44,2.11Zm3-5.54h-3.92v.78h3.92Zm-.12,10.26h.74V101.24h-.74ZM866.51,90.57a3.38,3.38,0,0,0,.63,1.11,2.76,2.76,0,0,0,1,.71,3.07,3.07,0,0,0,2.43,0,2.76,2.76,0,0,0,1-.71,3.4,3.4,0,0,0,.63-1.11,4.54,4.54,0,0,0,0-2.86,3.4,3.4,0,0,0-.63-1.11,2.76,2.76,0,0,0-1-.71,3.07,3.07,0,0,0-2.43,0,2.76,2.76,0,0,0-1,.71,3.38,3.38,0,0,0-.63,1.11,4.54,4.54,0,0,0,0,2.86m1.15-3.46a2.2,2.2,0,0,1,3.31,0,3.55,3.55,0,0,1,0,4.06,2.2,2.2,0,0,1-3.31,0,3.55,3.55,0,0,1,0-4.06m7.4,1.53h-2.32v.78h2.32Zm-.5,7.26h.74V82.44h-.74Zm2.88,2h.74V81.24h-.74Zm-12.28-28,3.91,0,4.11-.08,4.08-.11,3.82-.14,0-.78-3.85.15q-2,.07-4.1.11l-4.13.07-3.94,0Zm13,2-1.67.07-2,0-2,0H870.9l.06.78h1.66l1.94,0,1.93,0,1.68-.06Zm-2.29-5a3.48,3.48,0,0,0,1.12-.6A2.8,2.8,0,0,0,877,62a3.5,3.5,0,0,0-1.12-.6,4.69,4.69,0,0,0-2.77,0A3.5,3.5,0,0,0,872,62a2.8,2.8,0,0,0,0,4.37,3.48,3.48,0,0,0,1.12.6,4.67,4.67,0,0,0,2.77,0m-2.49-.66a2.67,2.67,0,0,1-.88-.43,2,2,0,0,1-.59-.71,2.28,2.28,0,0,1,0-1.95,2.06,2.06,0,0,1,.59-.71,2.71,2.71,0,0,1,.88-.43,4.15,4.15,0,0,1,2.21,0,2.71,2.71,0,0,1,.88.43,2.08,2.08,0,0,1,.59.71,2.28,2.28,0,0,1,0,1.95,2.06,2.06,0,0,1-.59.71,2.67,2.67,0,0,1-.88.43,4.13,4.13,0,0,1-2.21,0m-2.5,10.08.76-.2V72.08h-.76Zm6.52.15h.76v-4h-.76Zm.76-.44H870.9v.78h7.28Zm-12.5-20.92,3.83,0,3.93-.08,3.9-.11,3.74-.14,0-.78-3.77.15q-1.95.07-3.93.11l-4,.07-3.85,0Zm8.38-.68h.74V50.62h-.74Zm-3.36-5.26h.74V43.78h-.74Zm7.46-5.58-1.7.07-2,0-2,0H870.7l.06.76h1.69l2,0,2,0,1.72-.06Zm-.74,5.7h.74V44.16h-.74Zm.74-.42H870.7v.78h7.46Z"/><path class="cls-3" d="M936.92,197.56a2.05,2.05,0,1,0,3.34-2.26,2,2,0,0,0-3.34.66,2.09,2.09,0,0,0,0,1.6m2.84.14a1.37,1.37,0,0,1-1.89,0,1.35,1.35,0,0,1,0-1.88,1.37,1.37,0,0,1,1.89,0,1.35,1.35,0,0,1,0,1.88m-6.42-23.56q-1.1-.2-2-.42t-2-.56l-.16.84q1.06.3,2,.51l2,.41Zm1.56,1.36-1.77.08-2.17.07-2.17,0-1.77,0,.06.78,1.74,0,2.15-.05,2.16-.07,1.77-.08Zm-5.71,5.34a3.87,3.87,0,0,0,4.14,0,1.84,1.84,0,0,0,.73-1.48,1.87,1.87,0,0,0-.73-1.49,3.82,3.82,0,0,0-4.14,0,1.87,1.87,0,0,0-.73,1.49,1.84,1.84,0,0,0,.73,1.48m.52-2.46a3.22,3.22,0,0,1,3.1,0,1.18,1.18,0,0,1,0,1.95,3.22,3.22,0,0,1-3.1,0,1.18,1.18,0,0,1,0-1.95m1.15,5.26h.74v-2.4h-.74Zm5.24-.94q-1,.16-2.33.3t-2.79.24q-1.44.1-2.84.15t-2.44,0l.06.78q1.06,0,2.45-.07L931,184q1.43-.1,2.78-.22t2.33-.28Zm1.32,1.72h.74V173.24h-.74Zm.74,1.18-1.94.07-2.29.06-2.27.05-1.88,0,.06.78,1.87,0,2.25,0,2.27-.07,1.93-.08Zm-.74,3.88h.74v-3.36h-.74Zm-10.08-32.1a9.72,9.72,0,0,0,2.91-3.05,11.93,11.93,0,0,0,1.45-4.13l-.82-.06a13.77,13.77,0,0,1-.52,2.1,8.61,8.61,0,0,1-.81,1.74,8,8,0,0,1-1.17,1.48,12.22,12.22,0,0,1-1.58,1.32Zm7.72-1-3.48-2.86-.48.6q.78.64,1.63,1.37t1.75,1.55Zm-.46-6.76-1.62.08-1.93.08-1.92.05-1.61,0,.06.78,1.58,0,1.9-.06,1.92-.08,1.62-.08Zm4.66,12-2,.12q-1.15.06-2.38.09l-2.39,0q-1.16,0-2,0v.78q.82,0,2,0l2.39,0,2.39-.08q1.16,0,2-.11Zm-8.72.8h.74v-4.28h-.74Zm6.88-3.24h.74V147.24h-.74Zm.44-24.58h-3.38v.78h3.38Zm-6.23,3.81a3.35,3.35,0,0,0,1.1-.79,3.66,3.66,0,0,0,.72-1.17,4.08,4.08,0,0,0,0-2.86,3.68,3.68,0,0,0-.72-1.17,3.34,3.34,0,0,0-2.49-1.08,3.34,3.34,0,0,0-1.4.29,3.37,3.37,0,0,0-1.1.79,3.68,3.68,0,0,0-.72,1.17,4.08,4.08,0,0,0,0,2.86,3.66,3.66,0,0,0,.72,1.17,3.45,3.45,0,0,0,3.89.79m-.29-6.12a2.65,2.65,0,0,1,.86.63,2.89,2.89,0,0,1,.56.94,3.45,3.45,0,0,1,0,2.32,2.88,2.88,0,0,1-.56.94,2.66,2.66,0,0,1-3.93,0,2.86,2.86,0,0,1-.56-.94,3.45,3.45,0,0,1,0-2.32,2.87,2.87,0,0,1,.56-.94,2.71,2.71,0,0,1,3.07-.63m6.09,11.69h.74V127.24h-.74Zm-2.18-30a15.48,15.48,0,0,1-1.89.34,17.87,17.87,0,0,1-2,.1l0,.74a19.4,19.4,0,0,0,2.07-.1q.93-.1,2-.32Zm-.62-4.78-.88,0-.74,0h-1.68l.06.78H933l.73,0,.88,0Zm.24,3.08h3v-.78h-3Zm-3.54,2.86.74-.2v-5.26l-.74-.4Zm-1-1.38a7.07,7.07,0,0,1-.79.36,6.17,6.17,0,0,1-.74.23,5.5,5.5,0,0,1-.79.13q-.42,0-1,0l0,.72a9.67,9.67,0,0,0,1,0c.31,0,.61-.08.9-.14a6.16,6.16,0,0,0,.86-.24q.43-.15.91-.37ZM927,115.18l.74-.2v-5.36l-.74-.4Zm3.3-6-.88,0-.74,0H927l.06.78h1.63l.73,0,.88,0Zm8.94,13-2,.12q-1.15.06-2.38.09l-2.39,0q-1.16,0-2,0v.78q.82,0,2,0l2.39,0,2.39-.08q1.16,0,2-.11Zm-8.72.6h.74V120h-.74Zm7.62-3.32q-.8.06-1.81.09l-2,.06-2,0-1.74,0v.78l1.73,0,2,0,2-.07,1.83-.08Zm-.74.38h.74V117h-.74Zm.74-3.18-1.86.07-2.12.06-2.1.05-1.8,0,.06.78,1.79,0,2.08-.05,2.1-.07,1.85-.08Zm-.74-.88h.74v-8.5h-.74Zm-9.27-27.57a3.17,3.17,0,0,0,1.72,1.72,3.38,3.38,0,0,0,2.55,0,3.19,3.19,0,0,0,1-.69,3.24,3.24,0,0,0,.69-1,3.26,3.26,0,0,0,0-2.5,3.24,3.24,0,0,0-.69-1,3.19,3.19,0,0,0-1-.69,3.38,3.38,0,0,0-2.55,0,3.23,3.23,0,0,0-1.72,4.22m.68-2.22a2.45,2.45,0,0,1,.53-.79,2.59,2.59,0,0,1,.79-.54,2.57,2.57,0,0,1,2,0,2.6,2.6,0,0,1,.79.54,2.49,2.49,0,0,1,0,3.52,2.6,2.6,0,0,1-.79.54,2.57,2.57,0,0,1-2,0,2.59,2.59,0,0,1-.79-.54,2.52,2.52,0,0,1-.53-2.73m8.59,12h.74V81.24h-.74Zm-1.16-5.44q-1.5.26-2.78.43t-2.51.29q-1.23.12-2.5.2t-2.77.14l.16.78q1.48-.06,2.75-.16t2.49-.23q1.22-.13,2.48-.3l2.74-.39Zm-11.1-22.54,3.91,0,4.11-.08,4.08-.11,3.82-.14,0-.78-3.85.15q-2,.07-4.1.11l-4.13.07-3.94,0Zm13,2-1.67.07-2,0-2,0H930.9l.06.78h1.66l1.94,0,1.93,0,1.68-.06Zm-2.29-5a3.48,3.48,0,0,0,1.12-.6A2.8,2.8,0,0,0,937,62a3.5,3.5,0,0,0-1.12-.6,4.69,4.69,0,0,0-2.77,0A3.5,3.5,0,0,0,932,62a2.8,2.8,0,0,0,0,4.37,3.48,3.48,0,0,0,1.12.6,4.67,4.67,0,0,0,2.77,0m-2.49-.66a2.67,2.67,0,0,1-.88-.43,2,2,0,0,1-.59-.71,2.28,2.28,0,0,1,0-1.95,2.06,2.06,0,0,1,.59-.71,2.71,2.71,0,0,1,.88-.43,4.15,4.15,0,0,1,2.21,0,2.71,2.71,0,0,1,.88.43,2.08,2.08,0,0,1,.59.71,2.28,2.28,0,0,1,0,1.95,2.06,2.06,0,0,1-.59.71,2.67,2.67,0,0,1-.88.43,4.13,4.13,0,0,1-2.21,0m-2.5,10.08.76-.2V72.08h-.76Zm6.52.15h.76v-4h-.76Zm.76-.44H930.9v.78h7.28Zm-12.5-20.92,3.83,0,3.93-.08,3.9-.11,3.74-.14,0-.78-3.77.15q-1.95.07-3.93.11l-4,.07-3.85,0Zm8.38-.68h.74V50.62h-.74Zm-3.36-5.26h.74V43.78h-.74Zm7.46-5.58-1.7.07-2,0-2,0H930.7l.06.76h1.69l2,0,2,0,1.72-.06Zm-.74,5.7h.74V44.16h-.74Zm.74-.42H930.7v.78h7.46Z"/><line class="cls-4" x1="504.81" y1="40.4" x2="504.81" y2="460.4"/><line class="cls-4" y1="0.25" x2="943.3" y2="0.25"/><path class="cls-3" d="M90.63,287.68a8.07,8.07,0,0,0,4.38,4.4,8.23,8.23,0,0,0,9-1.76,8.24,8.24,0,0,0-2.63-13.44,8.23,8.23,0,0,0-9,1.76,8.35,8.35,0,0,0-1.75,9m11.35.56a5.48,5.48,0,0,1-7.58,0,5.38,5.38,0,0,1,0-7.52,5.48,5.48,0,0,1,7.58,0,5.38,5.38,0,0,1,0,7.52m-16.55-36A13.43,13.43,0,0,0,89.11,251a6.84,6.84,0,0,0,2.52-2.31,7,7,0,0,0,0-7,6.72,6.72,0,0,0-2.52-2.35A13.4,13.4,0,0,0,85.43,238a21.72,21.72,0,0,0-8.68,0,13.42,13.42,0,0,0-3.64,1.31,6.7,6.7,0,0,0-2.52,2.35,7,7,0,0,0,0,7A6.83,6.83,0,0,0,73.11,251a13.45,13.45,0,0,0,3.64,1.31,21.77,21.77,0,0,0,8.68,0m-9.8,2.88a15.28,15.28,0,0,1-4.6-2,9.91,9.91,0,0,1-3.16-3.33,9.93,9.93,0,0,1,0-9.32A9.91,9.91,0,0,1,71,237.17a15.31,15.31,0,0,1,4.6-2,22.33,22.33,0,0,1,11,0,15.33,15.33,0,0,1,4.6,2,9.93,9.93,0,0,1,3.16,3.33,9.93,9.93,0,0,1,0,9.32,9.93,9.93,0,0,1-3.16,3.33,15.31,15.31,0,0,1-4.6,2,22.36,22.36,0,0,1-11,0m4.92-51.56-7-3.92-1.44,2.56,5.92,3.44Zm-23.2,8.24A46,46,0,0,0,64,208a22.4,22.4,0,0,0,4.28-4.12,22.64,22.64,0,0,0,3.2-5,50.32,50.32,0,0,0,2.64-7.28l-2.88-.8a44,44,0,0,1-2.36,6.68,22.68,22.68,0,0,1-2.68,4.36,20,20,0,0,1-1.72,2,21.27,21.27,0,0,1-2.12,1.84,27.18,27.18,0,0,1-2.76,1.84q-1.56.92-3.64,2Zm35.28,7h3v15h-3ZM73,223.36a28.45,28.45,0,0,1-2.64,7.28A28.17,28.17,0,0,1,65.83,237l-2.64-1.6a29.57,29.57,0,0,0,4.4-6,25.93,25.93,0,0,0,2.4-6.6Zm22.64-2.72-13,.48q-6.64.24-13.28.4t-13.12.24l-12.56.16-.32-3.12q6.08,0,12.64-.08t13.24-.26q6.68-.17,13.36-.38t13.08-.56Zm8.32-10.8-13.28-8.08L89,204.48q3.12,1.84,6.6,4t6.52,4.24Zm-29,3a40.26,40.26,0,0,0,6.72-4.08,29.75,29.75,0,0,0,4.56-4.4,22.77,22.77,0,0,0,3.24-5.16,52.36,52.36,0,0,0,2.68-7.4l-2.88-.8a44.16,44.16,0,0,1-2.4,6.76,23.19,23.19,0,0,1-2.72,4.44,26.66,26.66,0,0,1-4,4.12,33.72,33.72,0,0,1-6.6,4Zm8-94H80.63v64h2.24ZM43.27,79q7.52,0,15.76-.12t16.52-.28q8.28-.16,16.4-.44t15.4-.6l-.08,3.12q-7.2.32-15.28.56t-16.32.44q-8.24.2-16.44.32t-15.64.12ZM57,68.24A49.25,49.25,0,0,0,67.71,57,44.55,44.55,0,0,0,74.23,42.4l-2.88-.72a38.62,38.62,0,0,1-6,13.76A45.06,45.06,0,0,1,55,66Zm20.72-10-5-3.68L71,56.88l4.8,3.68ZM101.75,66,89.59,56.8l-1.76,2.56q2.88,2.08,6.08,4.56t5.84,4.64ZM75,69.76a42.81,42.81,0,0,0,10.16-12A59.11,59.11,0,0,0,91,42.48l-2.88-.72a53.93,53.93,0,0,1-5.4,14.44A38.44,38.44,0,0,1,73,67.52Zm4.88,9.76h3V108h-3Z"/><path class="cls-3" d="M197.11,270.4q-4.48-.56-9-1.4t-9-2l-.48,3.44q4.32,1,9,1.76t8.8,1.36Zm-29,32.4a37.38,37.38,0,0,0,13.92-9,34.47,34.47,0,0,0,7.68-12.64l-3-.8A30.86,30.86,0,0,1,179.67,292a34.7,34.7,0,0,1-13,8ZM204.47,279l-8.28.33q-4.84.19-9.92.33t-9.8.26q-4.72.11-8,.11l.24,3.12q3.2,0,7.92-.12t9.76-.28l9.84-.32q4.8-.16,8.24-.32Zm2.8,19.84-17.2-9-1.52,2.88q3.68,1.92,8.32,4.4t8.8,4.8Zm-29.12,16.08a70,70,0,0,1-4.8,9.28,72.36,72.36,0,0,1-5.92,8.4l2.8,1.68q1.44-1.84,2.92-4t2.92-4.6q1.44-2.4,2.72-4.88t2.32-4.88Zm22.48,19.76h3V309.52h-3Zm3-26.4q-6.4.34-13.08.55t-13.36.38q-6.68.17-13.24.26t-12.64.09l.32,3.12,12.56-.16q6.48-.08,13.12-.24t13.28-.4l13-.48Zm-52-74.48q7.44,0,15.64-.12t16.44-.32q8.24-.2,16.32-.44t15.28-.56l.08-3.12q-7.28.32-15.4.6t-16.4.44q-8.28.16-16.52.28t-15.76.12Zm45.52-43.36q-4.48-.56-9-1.4t-9-2l-.48,3.44q4.32,1,9,1.76t8.8,1.36Zm-28.8,32.32a37.58,37.58,0,0,0,13.76-9,34.6,34.6,0,0,0,7.68-12.56l-3-.8a30.49,30.49,0,0,1-7.12,11.6,35.15,35.15,0,0,1-12.8,7.92ZM204.47,199l-8.28.34q-4.84.19-9.92.33t-9.8.26q-4.72.11-8,.11l.24,3.12q3.2,0,7.92-.12t9.76-.28l9.84-.32q4.8-.16,8.24-.32Zm2.64,19.92-17-9.2-1.52,2.88q3.68,1.92,8.2,4.4t8.68,5Zm-19.28,35.76h3v-23h-3Zm3-135.84h-2.24v64h2.24ZM151.59,82.56q7.44,0,15.64-.12t16.44-.32q8.24-.2,16.32-.44t15.28-.56l.08-3.12q-7.28.32-15.4.6t-16.4.44q-8.28.16-16.52.28t-15.76.12ZM185.51,62.8l-5.76-5.36L178,59.76l5.36,5.12Zm22.16,4.4-9.84-9-1.92,2.4q2.32,2.08,4.8,4.36t4.88,4.6ZM184.79,71a31.46,31.46,0,0,0,8.44-10,36.36,36.36,0,0,0,4.28-13.12l-3-.16a34,34,0,0,1-3.76,11.92,28.65,28.65,0,0,1-7.92,9.12Zm19.68-25.28L200,46q-2,.11-4,.17t-4,.11q-2,0-4.44,0l.24,3.12q2.32,0,4.32,0l3.92-.08q1.92,0,4-.16l4.52-.28Zm-19.12.4-4.6.24q-2.12.11-4.16.17t-4.12.11q-2.08,0-4.48,0l.24,3.12q2.32,0,4.36,0l4-.08q2,0,4.12-.16l4.6-.28Zm-19,24.48a30.24,30.24,0,0,0,8.8-9.68,37,37,0,0,0,4.64-12.64l-3-.16a29.44,29.44,0,0,1-12.4,20.24ZM187.83,108h3V79.6h-3Z"/><path class="cls-3" d="M306.63,221a8.07,8.07,0,0,0,4.38,4.4,8.23,8.23,0,0,0,9-1.76A8.33,8.33,0,0,0,320,212a8.23,8.23,0,0,0-11.62,0,8.35,8.35,0,0,0-1.75,9m11.35.56a5.48,5.48,0,0,1-7.58,0,5.38,5.38,0,0,1,0-7.52,5.48,5.48,0,0,1,7.58,0,5.38,5.38,0,0,1,0,7.52m-58.39-66.32q7.44,0,15.64-.12t16.44-.32q8.24-.2,16.32-.44t15.28-.56l.08-3.12q-7.28.32-15.4.6t-16.4.44q-8.28.16-16.52.28t-15.76.12Zm56.32,29.52-17.84-8.24-1.36,2.88,8.76,4.12q4.36,2,9,4.36ZM276,188a35.63,35.63,0,0,0,13.76-6.6,27.34,27.34,0,0,0,8-11.16l-3-.88a29.56,29.56,0,0,1-3.08,5.72,21.79,21.79,0,0,1-4.08,4.36,24.32,24.32,0,0,1-5.52,3.32,51,51,0,0,1-7.32,2.52Zm29-27.2q-4.56-.24-8.84-.76t-8.84-1.32l-.24,3.52q4.32.64,8.76,1.12t8.68.72Zm6.56,7.2-7.64.34-8.88.37q-4.52.19-8.8.3t-7.4.11l.24,3.12q3.12,0,7.32-.12t8.72-.32q4.52-.2,8.84-.36t7.6-.32Zm-27.24-28.26a10.51,10.51,0,0,0,2.93,3.55,13.8,13.8,0,0,0,4.37,2.23,17.65,17.65,0,0,0,5.34.8,17.25,17.25,0,0,0,5.29-.8,14.41,14.41,0,0,0,4.37-2.23,10.42,10.42,0,0,0,0-16.58,14.43,14.43,0,0,0-4.37-2.23,17.25,17.25,0,0,0-5.29-.8,17.65,17.65,0,0,0-5.34.8,13.82,13.82,0,0,0-4.37,2.23,10.52,10.52,0,0,0-2.93,3.55,10.93,10.93,0,0,0,0,9.49m2.71-8.36a7.39,7.39,0,0,1,2.31-2.65,11.27,11.27,0,0,1,3.43-1.61,15.86,15.86,0,0,1,8.37,0,11.27,11.27,0,0,1,3.43,1.61,7.39,7.39,0,0,1,2.31,2.65,8.32,8.32,0,0,1,0,7.28,7.49,7.49,0,0,1-2.31,2.61,11.24,11.24,0,0,1-3.43,1.61,15.83,15.83,0,0,1-8.37,0,11.24,11.24,0,0,1-3.43-1.61,7.49,7.49,0,0,1-2.31-2.61,8.33,8.33,0,0,1,0-7.28M266.23,94.32a60.08,60.08,0,0,0,6.12-5.44A66.34,66.34,0,0,0,278,82.36a62.09,62.09,0,0,0,4.76-7.28,52.47,52.47,0,0,0,3.56-7.8l-3.12-.72a51.78,51.78,0,0,1-7.6,14.08A53.69,53.69,0,0,1,264.15,92ZM297.51,64.8l-6.76.33q-4,.18-8.36.29t-8.36.18q-4,.07-6.76.07l.24,3.12q2.64,0,6.64-.08t8.28-.2q4.28-.12,8.32-.28t6.76-.32Zm-5.92-8.4q-4.32-1.36-8.32-2.92T275,50.08l-1.12,3.28q4.08,1.76,8.24,3.24t8.24,2.84Zm7.92,33.92-13.12-12-2.16,2.32q3.12,2.72,6.32,5.68t6.56,6.48Zm9.12,20.08h3V43.76h-3Z"/><path class="cls-3" d="M367.59,376.48q7.44,0,15.64-.12t16.44-.32q8.24-.2,16.32-.44t15.28-.56l.08-3.12q-7.28.32-15.4.6t-16.4.44q-8.28.16-16.52.28t-15.76.12Zm42.3-11.24a13.48,13.48,0,0,0,4.45-2.39,11.26,11.26,0,0,0,3-3.75,11.28,11.28,0,0,0,0-9.65,11.29,11.29,0,0,0-3-3.75,13.49,13.49,0,0,0-4.45-2.39,18.72,18.72,0,0,0-11.07,0,13.49,13.49,0,0,0-4.45,2.39,11.29,11.29,0,0,0-3,3.75,11.29,11.29,0,0,0,0,9.65,11.27,11.27,0,0,0,3,3.75,13.48,13.48,0,0,0,4.45,2.39,18.74,18.74,0,0,0,11.07,0M408.74,346a10.85,10.85,0,0,1,3.51,1.77,8.23,8.23,0,0,1,0,13.1,10.81,10.81,0,0,1-3.51,1.77,16.24,16.24,0,0,1-8.77,0,10.81,10.81,0,0,1-3.51-1.77,8.22,8.22,0,0,1,0-13.1A10.85,10.85,0,0,1,400,346a16.27,16.27,0,0,1,8.77,0M424,403.44,406.39,394l-1.52,2.88,8.72,4.72,8.8,4.8Zm-40,2.72a37.07,37.07,0,0,0,14.2-7.92,31.22,31.22,0,0,0,8.12-12.48l-3.2-.56a25.51,25.51,0,0,1-7.48,11.36,35.36,35.36,0,0,1-12.92,6.88Zm36.56-22.8-7.92.33q-4.64.19-9.52.33t-9.44.26q-4.56.11-7.68.11l.24,3.12q3.12,0,7.64-.12t9.36-.28l9.44-.32q4.6-.16,7.88-.32Zm-11.36-74.24-15.36-14.56-2.16,2.32q1.52,1.36,3.44,3.16t4,3.76q2,2,4,4t3.64,3.76Zm-34,3.76a58.06,58.06,0,0,0,12.64-14.48,64.1,64.1,0,0,0,7.2-18.08l-3.12-.24a75.31,75.31,0,0,1-2.8,9,46.62,46.62,0,0,1-3.88,7.84,48.81,48.81,0,0,1-5.32,7,69.55,69.55,0,0,1-7,6.64Zm30.72-35.12-6.72.33q-4,.18-8.24.29t-8.24.18q-4,.07-6.72.07l.24,3.12q2.64,0,6.6-.08t8.16-.2q4.2-.12,8.2-.28t6.72-.32Zm10.8,51.52h3V262.64h-3ZM416,212.4q1.6,1.28,3.48,2.88t3.72,3.32q1.84,1.72,3.6,3.44t3.12,3.16L433,222q-1.52-1.44-3.36-3.12t-3.8-3.36q-2-1.68-3.92-3.28t-3.72-2.88Zm-48.4-51.76q7.44,0,15.64-.12t16.44-.32q8.24-.2,16.32-.44t15.28-.56l.08-3.12q-7.28.32-15.4.6t-16.4.44q-8.28.16-16.52.28t-15.76.12Zm57.52,24.72-17.2-11.84-1.6,2.48q3.84,2.56,8.32,5.76t8.64,6.24Zm-40.8,2.48a41.47,41.47,0,0,0,14.88-8A26,26,0,0,0,407,166.32l-2.88-.72a30,30,0,0,1-2.84,7.24,20.39,20.39,0,0,1-4.28,5.24,27.56,27.56,0,0,1-6.08,4,66.3,66.3,0,0,1-8.08,3.24Zm7.8-48.06a10.49,10.49,0,0,0,2.85,3.65,14.14,14.14,0,0,0,4.33,2.41,17.67,17.67,0,0,0,11,0,14.06,14.06,0,0,0,4.37-2.41,10.49,10.49,0,0,0,2.85-3.65,11.11,11.11,0,0,0,0-9.23,10.89,10.89,0,0,0-2.85-3.69,13.63,13.63,0,0,0-4.37-2.45,17.65,17.65,0,0,0-11,0,13.7,13.7,0,0,0-4.33,2.45,10.89,10.89,0,0,0-2.85,3.69,11.12,11.12,0,0,0,0,9.23m2.75-8.1a8.49,8.49,0,0,1,2.19-2.76,10.6,10.6,0,0,1,3.39-1.84,14.47,14.47,0,0,1,8.77,0,10.61,10.61,0,0,1,3.39,1.84,8.49,8.49,0,0,1,2.19,2.76,8.17,8.17,0,0,1,0,7,8.47,8.47,0,0,1-2.19,2.76,10.58,10.58,0,0,1-3.39,1.84,14.47,14.47,0,0,1-8.77,0,10.56,10.56,0,0,1-3.39-1.84,8.47,8.47,0,0,1-2.19-2.76,8.18,8.18,0,0,1,0-7m8.56,26.64h3v-12.8h-3Zm2.88-68.56L393,73.76l-2.4,2.16q3,3.52,6.56,7.72t6.56,8.28Zm-32.72,2.72A42.22,42.22,0,0,0,387.07,76.6,60.62,60.62,0,0,0,393,55.44l-3-.4a58,58,0,0,1-5.4,20.12,40.39,40.39,0,0,1-12.92,14.92Zm43,17.92h3V43.76h-3Z"/></g></svg>