<svg id="Layer_1" data-name="Layer 1" xmlns="http://www.w3.org/2000/svg" xmlns:xlink="http://www.w3.org/1999/xlink" viewBox="0 0 943.3 750"><defs><style>.cls-1,.cls-4,.cls-6{fill:none;}.cls-2{clip-path:url(#clip-path);}.cls-3{fill:#231815;}.cls-4{stroke:#231815;stroke-width:0.5px;}.cls-5{fill:#433f3f;}.cls-6{stroke:#fff;}.cls-7{fill:#fff;}.cls-8{clip-path:url(#clip-path-3);}</style><clipPath id="clip-path"><rect class="cls-1" width="943.31" height="460.4"/></clipPath><clipPath id="clip-path-3"><rect class="cls-1" y="750" width="943.31" height="460.4"/></clipPath></defs><title>SAN대지 13</title><g class="cls-2"><path class="cls-3" d="M696.93,317.56a2.05,2.05,0,1,0,3.34-2.26,2,2,0,0,0-3.34.66,2.09,2.09,0,0,0,0,1.6m2.84.14a1.37,1.37,0,0,1-1.89,0,1.34,1.34,0,0,1,0-1.88,1.37,1.37,0,0,1,1.89,0,1.34,1.34,0,0,1,0,1.88m-6.22-20.56q-1.36.1-2.92.15t-2.9,0v.76h1.4l1.49,0,1.5-.05,1.43-.07Zm1.54,6.34a15.85,15.85,0,0,1-3.45.92,22.57,22.57,0,0,1-3.87.24l0,.74a22.3,22.3,0,0,0,4-.28,19.15,19.15,0,0,0,3.6-.92Zm-7.36,1.88.74-.2V297.9h-.74Zm13.76-4.28h-3.32l-.38.36.38.42,3.32,0Zm-4.06,8.82h.74V293.24h-.74Zm-2.16-26.62a30.05,30.05,0,0,1-3.56.88,29.07,29.07,0,0,1-3.88.44l0,.74a28.56,28.56,0,0,0,4-.46q1.89-.36,3.67-.88Zm-7.48,2,.74-.2v-8h-.74Zm9.64,4.58h.74V273.24h-.74Zm.74-21.6h-7.5v.78h7.5Zm-.74-6.72h.74v-8.34h-.74Zm.74,3.28-1.72.07-2,.06-2,0h-1.72v.76h1.7l2,0,2-.05,1.72-.06Zm0-2.3h-.74v6.06h.74Zm-7.5,6.18.74-.16V262.9h-.74Zm-3-9.33a3.09,3.09,0,0,0,.69,1,3.25,3.25,0,0,0,1,.66,3.3,3.3,0,0,0,2.47,0,3.27,3.27,0,0,0,1-.66,3.12,3.12,0,0,0,.69-1,2.94,2.94,0,0,0,0-2.37,3.1,3.1,0,0,0-.69-1,3.27,3.27,0,0,0-1-.66,3.3,3.3,0,0,0-2.47,0,3.25,3.25,0,0,0-1,.66,3.07,3.07,0,0,0-.69,1,2.94,2.94,0,0,0,0,2.37m.68-2.1a2.26,2.26,0,0,1,.52-.74,2.68,2.68,0,0,1,.77-.5,2.52,2.52,0,0,1,1.92,0,2.64,2.64,0,0,1,.78.5,2.26,2.26,0,0,1,.52.74,2.27,2.27,0,0,1-.52,2.56,2.6,2.6,0,0,1-.78.5,2.52,2.52,0,0,1-1.92,0,2.64,2.64,0,0,1-.77-.5,2.26,2.26,0,0,1-.52-2.56m-1.53-11.83a9.36,9.36,0,0,0,1.92-1.81,12.18,12.18,0,0,0,1.41-2.23,12.94,12.94,0,0,0,.93-2.55,18.81,18.81,0,0,0,.48-2.79l-.76-.1a19.19,19.19,0,0,1-.45,2.71,11.85,11.85,0,0,1-.85,2.38,10.4,10.4,0,0,1-1.32,2.06,9.83,9.83,0,0,1-1.86,1.73Zm7.74-.3-2.9-4.06-.64.5q.68.9,1.42,2t1.44,2.11Zm3-5.54h-3.92v.78h3.92Zm-.12,10.26h.74V233.24h-.74Zm-6.86-24.23a2.55,2.55,0,0,0,.82-.56,2.51,2.51,0,0,0,.53-.82,2.67,2.67,0,0,0,0-2,2.53,2.53,0,0,0-.53-.82,2.57,2.57,0,0,0-.82-.56,2.78,2.78,0,0,0-2.12,0,2.57,2.57,0,0,0-.82.56,2.53,2.53,0,0,0-.53.82,2.67,2.67,0,0,0,0,2,2.51,2.51,0,0,0,.53.82,2.55,2.55,0,0,0,.82.56,2.78,2.78,0,0,0,2.12,0m.31-3.67a2,2,0,0,1,0,2.6,2,2,0,0,1-2.74,0,2,2,0,0,1,0-2.6,2,2,0,0,1,2.74,0m.25-5.06q-.8-.28-1.57-.59t-1.57-.67l-.28.82q.76.34,1.56.63l1.58.57Zm1.42,1.76-1.49.06-1.75,0-1.76,0h-1.48l.06.76h1.46l1.73,0,1.74,0,1.49,0Zm5.08,1.94h-3v.76h3Zm-3.52,7.26h.74V214.44h-.74Zm3.34,2h.74V213.24h-.74Zm-9.3-31.1a2.91,2.91,0,0,0,.65.92,3.07,3.07,0,0,0,1,.62,3.4,3.4,0,0,0,2.45,0,3.07,3.07,0,0,0,1-.62,2.91,2.91,0,0,0,.65-.92,2.77,2.77,0,0,0,0-2.25,2.92,2.92,0,0,0-.65-.92,3.05,3.05,0,0,0-1-.62,3.38,3.38,0,0,0-2.45,0,3.05,3.05,0,0,0-1,.62,2.92,2.92,0,0,0-.65.92,2.77,2.77,0,0,0,0,2.25m1.15-2.67a2.62,2.62,0,0,1,3.39,0,2.16,2.16,0,0,1,0,3.09,2.62,2.62,0,0,1-3.39,0,2.16,2.16,0,0,1,0-3.09m1.39,6.76a14.86,14.86,0,0,1-.44,2.88,14.37,14.37,0,0,1-1.06,2.92l.74.26a15.2,15.2,0,0,0,.56-1.43q.26-.77.45-1.57t.32-1.58a14,14,0,0,0,.17-1.48Zm6.74,7h.74V193.24h-.74Zm-1.26-8q-1.46.24-2.77.41t-2.59.29q-1.28.12-2.6.2l-2.8.14.16.78q1.46-.06,2.76-.15t2.58-.23l2.58-.3q1.3-.16,2.74-.38Zm-2.34-30.92q-1.66.1-3.31.15t-3.21.07l.06.78,2.9-.07,2.92-.11Zm-7,9.2a12.25,12.25,0,0,0,2.38-1.59,14.54,14.54,0,0,0,2.08-2.13,10.79,10.79,0,0,0,.84-1.25q.4-.69.73-1.41a14.36,14.36,0,0,0,.57-1.44,12.66,12.66,0,0,0,.38-1.38l-.9.26a11.55,11.55,0,0,1-.78,2.37,11.11,11.11,0,0,1-1.46,2.41,13.18,13.18,0,0,1-2,2,12.14,12.14,0,0,1-2.26,1.48Zm10.58,3.76h.74V167.24h-.74ZM687.23,159H688v-7.8h-.74Zm5.26-1.38q-1.36.38-2.59.62t-2.67.38v.72q1.46-.14,2.75-.37t2.67-.61Zm5.44-3.2h-3.6v.78h3.6Zm-4.06,7.48h.74V148.44h-.74Zm3.58,2h.74V147.24h-.74Zm-2.92-28.82h3.34v-.78h-3.34Zm.24,3.56-1.66.23-1.78.2-1.78.16q-.88.07-1.68.09v-4h-.74v4.82q.82,0,1.82-.09l2-.15,2-.2,1.83-.23Zm2.66,5.26h.74V127.24h-.74Zm-3.88-9.26q-1.58.14-3.24.18l-3.18.06v.78l3.18-.07q1.68,0,3.24-.15Zm-.74.4h.74V130.9h-.74Zm.74-4.48q-1.66.09-3.34.13l-3.24.05.06.78,3.22-.06q1.66,0,3.3-.12ZM685.69,121l3.83,0,3.93-.08,3.9-.11,3.74-.14,0-.78-3.77.15q-1.95.07-3.93.11l-4,.07-3.85,0Zm13-6.1-1.89.12q-1.09.06-2.23.09l-2.24,0q-1.1,0-1.94,0v.78q.82,0,1.92,0l2.25,0,2.24-.08,1.89-.11Zm-.24-5.3c-.31,0-.67,0-1.1.06l-1.39,0-1.55,0-1.54,0h-2.48v.78h1.75l2.26,0,2.27,0,1.78-.07Zm-8.06,6.3.74-.2v-5.52h-.74Zm-3.9-21.78a10,10,0,0,0,2-1.8A12.78,12.78,0,0,0,690,90.07a13.17,13.17,0,0,0,1.05-2.58,12.33,12.33,0,0,0,.47-2.71l-.78.26a10.79,10.79,0,0,1-.44,2.38,12.11,12.11,0,0,1-1,2.32,11.57,11.57,0,0,1-1.47,2.1,10.08,10.08,0,0,1-1.92,1.7Zm5.1-9.36q-1.26.06-2.57.09l-2.55.05.06.76,2.36,0,2.42-.07Zm3.22,3.9h-3.2v.78h3.2Zm-.48,7.2H695V82.44h-.74Zm3.16,2h.74V81.24h-.74Zm-5.34-23.69a2.75,2.75,0,0,0,1.5-1.57,2.91,2.91,0,0,0,0-2.12,2.75,2.75,0,0,0-1.5-1.57,3.4,3.4,0,0,0-2.56,0,2.75,2.75,0,0,0-1.5,1.57,2.91,2.91,0,0,0,0,2.12,2.75,2.75,0,0,0,1.5,1.57,3.4,3.4,0,0,0,2.56,0m-2.28-.66a2,2,0,0,1-.69-.5,2.2,2.2,0,0,1-.41-.69,2.24,2.24,0,0,1-.14-.78,2.28,2.28,0,0,1,.14-.77,2.17,2.17,0,0,1,.41-.7,2,2,0,0,1,.69-.5,2.7,2.7,0,0,1,2,0,2,2,0,0,1,.7.5,2.17,2.17,0,0,1,.41.7,2.28,2.28,0,0,1,.14.77,2.24,2.24,0,0,1-.14.78,2.2,2.2,0,0,1-.41.69,2,2,0,0,1-.7.5,2.7,2.7,0,0,1-2,0m11.66-4.37h-3.32l-.38.36.38.42,3.32,0Zm-6.82-2.88-1.79.08-2.3.07-2.3,0-1.79,0,.06.78h1.09l1.4,0,1.55,0,1.56,0,1.41,0,1.11-.05ZM693,64.06q-1.08-.34-2.08-.73t-2.06-.85l-.28.82q1,.44,2.06.81l2.06.71Zm4.44,13.84h.74V61.24h-.74Zm-10-26.46a13.63,13.63,0,0,0,2.25-1.52,13.89,13.89,0,0,0,1.85-1.86,12.21,12.21,0,0,0,1.41-2.14,10.68,10.68,0,0,0,.89-2.36l-.92.26a9.57,9.57,0,0,1-2,3.92,13.6,13.6,0,0,1-3.94,3.12Zm6.4-7.88-1.57.07-1.47,0-1.44,0h-1.5l.06.78,2.63,0q1.23,0,2.65-.08Zm-1.64,11.95a3,3,0,0,0,.67,1,3.14,3.14,0,0,0,1,.66,3.48,3.48,0,0,0,2.54,0,3.14,3.14,0,0,0,1-.66,3,3,0,0,0,.67-1,3,3,0,0,0,0-2.37,3,3,0,0,0-.67-1,3.14,3.14,0,0,0-1-.66,3.48,3.48,0,0,0-2.54,0,3.14,3.14,0,0,0-1,.66,3,3,0,0,0-.67,1,3,3,0,0,0,0,2.37m.68-2.1a2.12,2.12,0,0,1,.51-.74,2.64,2.64,0,0,1,.77-.5,2.64,2.64,0,0,1,2,0,2.66,2.66,0,0,1,.77.5,2.14,2.14,0,0,1,.51.74,2.38,2.38,0,0,1,0,1.82,2.15,2.15,0,0,1-.51.74,2.69,2.69,0,0,1-.77.5,2.64,2.64,0,0,1-2,0,2.66,2.66,0,0,1-.77-.5,2.13,2.13,0,0,1-.51-.74,2.38,2.38,0,0,1,0-1.82m8.66-7.23h-3.32l-.38.36.38.42,3.32,0Zm-4.06,4.14h.74V41.24h-.74Z"/><path class="cls-3" d="M721.75,385a3.36,3.36,0,0,0,1.1-.79,3.56,3.56,0,0,0,.71-1.17,4.23,4.23,0,0,0,0-2.86,3.54,3.54,0,0,0-.71-1.17,3.43,3.43,0,0,0-5,0,3.52,3.52,0,0,0-.71,1.17,4.23,4.23,0,0,0,0,2.86,3.54,3.54,0,0,0,.71,1.17,3.5,3.5,0,0,0,3.93.79m-.29-6.12a2.61,2.61,0,0,1,.86.63,2.73,2.73,0,0,1,.55.94,3.62,3.62,0,0,1,0,2.32,2.75,2.75,0,0,1-.55.94,2.62,2.62,0,0,1-.86.63,2.85,2.85,0,0,1-2.25,0,2.62,2.62,0,0,1-.86-.63,2.75,2.75,0,0,1-.55-.94,3.62,3.62,0,0,1,0-2.32,2.73,2.73,0,0,1,.55-.94,2.61,2.61,0,0,1,.86-.63,2.86,2.86,0,0,1,2.25,0m6,11.69h.74V374h-.74Zm-10.56-26.8a11.51,11.51,0,0,0,3.23-3.71,14.6,14.6,0,0,0,1.55-4.87l-.72-.14a17.77,17.77,0,0,1-.54,2.5,10.61,10.61,0,0,1-.89,2.13,10.44,10.44,0,0,1-1.31,1.85,12,12,0,0,1-1.8,1.64Zm8.2-1-3.24-3.36-.52.54,1.56,1.62q.78.82,1.62,1.74Zm4.2,5.4-2,.12q-1.16.06-2.39.09l-2.4,0q-1.17,0-2,0v.78q.82,0,2,0l2.41,0,2.4-.08q1.16,0,2-.11Zm-1.5-10.16h-3.7v.78h3.7Zm-7.26,11h.74v-4.24h-.74Zm6.92-3.24h.74V354h-.74Zm-12.26-22.18q1.86,0,3.91,0l4.11-.08,4.08-.11q2-.06,3.82-.14l0-.78-3.85.15q-2,.07-4.1.11l-4.13.07q-2.06,0-3.94,0Zm5.4,5.65.74-.2V345.3h-.74Zm7.6-4.13-1.73.07-2.07,0-2.06,0h-1.74l.06.76h1.71l2,0,2,0,1.74-.06Zm-.74,4.28h.74v-3.76h-.74Zm.74-.42h-7.6v.78h7.6Zm.5-9.12-1.87.12q-1.07.06-2.21.09l-2.22,0q-1.08,0-1.92,0v.78q.82,0,1.9,0l2.22,0,2.22-.08,1.88-.11Zm-8.22.6h.74v-2.84h-.74Zm7.78-3.44q-.8.05-1.83.09l-2.1.06-2.08,0-1.77,0v.78l1.75,0,2.08,0,2.1-.07,1.85-.08Zm-.74.38h.74V334.6h-.74Zm.74-3.18-1.89.07-2.18.06-2.15.06-1.82,0,.06.78,1.81,0,2.13,0,2.16-.07,1.88-.08Zm-12.54-5.82,3.83,0,3.93-.08,3.9-.11,3.74-.14,0-.78-3.77.15-3.93.11-4,.07-3.85,0Zm9.75-3.35a3.27,3.27,0,0,0,1-.62,3,3,0,0,0,.68-.9,2.49,2.49,0,0,0,0-2.17,3,3,0,0,0-.68-.9,3.29,3.29,0,0,0-1-.62,3.45,3.45,0,0,0-2.47,0,3.29,3.29,0,0,0-1,.62,3,3,0,0,0-.68.9,2.49,2.49,0,0,0,0,2.17,3,3,0,0,0,.68.9,3.27,3.27,0,0,0,1,.62,3.44,3.44,0,0,0,2.47,0m-.28-4.56a2.24,2.24,0,0,1,.77.43,2.12,2.12,0,0,1,.51.67,2,2,0,0,1,0,1.71,2.12,2.12,0,0,1-.51.67,2.24,2.24,0,0,1-.77.43,3.12,3.12,0,0,1-1.92,0,2.25,2.25,0,0,1-.76-.43,2.11,2.11,0,0,1-.51-.67,2,2,0,0,1,0-1.71,2.11,2.11,0,0,1,.51-.67,2.25,2.25,0,0,1,.76-.43,3.14,3.14,0,0,1,1.92,0m1.4-5.27q-1.12-.14-2.25-.35t-2.27-.49l-.12.86q1.08.24,2.25.44t2.21.34Zm2.06,2.16-1.35.06-1.64,0-1.79.06-1.77,0-1.61,0-1.3,0,.06.78,1.29,0,1.6,0,1.76,0,1.78-.05,1.64,0,1.33-.05Zm-11.22-13.36a13.9,13.9,0,0,0,4.11-3.32,11.14,11.14,0,0,0,2.29-4.46l-.92.26a9.19,9.19,0,0,1-2,3.87,14.05,14.05,0,0,1-3.94,3.07Zm6.4-7.78-1.57.07-1.47,0-1.44,0h-1.5l.06.78,2.63,0q1.23,0,2.65-.08Zm7.7,3h-3.32l-.38.36.38.42,3.32,0Zm-4.06,4.12h.74V294h-.74Zm.74,1.38-1.94.07-2.29.06-2.27.06-1.88,0,.06.78,1.87,0,2.25-.05,2.27-.07,1.93-.08Zm-.74,5.4h.74v-4.88h-.74Zm-2.58-24.74-3.34-4-.6.54q.76.88,1.64,1.93t1.64,2.07Zm-8.18.68a10.56,10.56,0,0,0,3.37-4,15.18,15.18,0,0,0,1.47-5.29l-.76-.1a14.51,14.51,0,0,1-1.35,5,10.1,10.1,0,0,1-3.23,3.73Zm10.76,4.48h.74V274h-.74Zm-12.26-33.08,3.91,0,4.11-.08,4.08-.11,3.82-.14,0-.78-3.85.15q-2,.07-4.1.11l-4.13.07-3.94,0Zm13.14-8.8-1.94.08-2.2.07-2.19,0L720,249l.06.77,1.91,0,2.18-.05,2.18-.06,1.93-.07Zm1,5-4.52-2-.34.74,2.24,1,2.26,1Zm-9.92.8a11.45,11.45,0,0,0,2-.84,7.33,7.33,0,0,0,1.53-1.11A6.56,6.56,0,0,0,724,251.2a8.64,8.64,0,0,0,.79-1.84l-.74-.2a6.21,6.21,0,0,1-1.74,3,8.52,8.52,0,0,1-3.24,1.76Zm8.76,5.28-1.94.07-2.29.06-2.27.06-1.88,0,.06.78,1.87,0,2.25,0,2.27-.07,1.93-.08Zm-.74,4.44h.74v-3.92h-.74Zm-.16-28.9.87.72q.47.4.93.83l.9.86q.44.43.78.79l.78-.8-.84-.78-1-.84-1-.82q-.49-.4-.93-.72Zm-12.1-14,3.91,0,4.11-.08,4.08-.11q2-.06,3.82-.14l0-.78-3.85.15q-2,.07-4.1.11l-4.13.07-3.94,0Zm13.48-4.26-1.86.12q-1.06.06-2.17.09l-2.17,0q-1.06,0-1.9,0v.78q.82,0,1.89,0l2.18,0,2.17-.08,1.86-.11Zm-.44-3.74-1.71.08-2.13.06-2.13,0h-1.69v.76h1.68l2.12,0,2.14,0,1.72-.07Zm-7.66,4.74.74-.2V214.2h-.74Zm4.93,6.27a2.61,2.61,0,0,1,.86.43,2.13,2.13,0,0,1,.57.67,1.85,1.85,0,0,1,0,1.71,2.11,2.11,0,0,1-.57.67,2.59,2.59,0,0,1-.86.43,3.83,3.83,0,0,1-2.12,0,2.6,2.6,0,0,1-.85-.43,2.11,2.11,0,0,1-.57-.67,1.85,1.85,0,0,1,0-1.71,2.13,2.13,0,0,1,.57-.67,2.61,2.61,0,0,1,.85-.43,3.8,3.8,0,0,1,2.12,0m.29,4.58a3.52,3.52,0,0,0,1.09-.59,2.7,2.7,0,0,0,.73-.9,2.6,2.6,0,0,0,0-2.27,2.71,2.71,0,0,0-.73-.9,3.52,3.52,0,0,0-1.09-.59,4.41,4.41,0,0,0-2.69,0,3.52,3.52,0,0,0-1.09.59,2.7,2.7,0,0,0-.73.9,2.6,2.6,0,0,0,0,2.27,2.69,2.69,0,0,0,.73.9,3.52,3.52,0,0,0,1.09.59,4.43,4.43,0,0,0,2.69,0m-1.69-5.27h.74V221h-.74Zm-.24-26.82q-1.66.1-3.31.15t-3.21.07l.06.78,2.9-.07,2.92-.11Zm-7,9.2a12.25,12.25,0,0,0,2.38-1.59,14.54,14.54,0,0,0,2.08-2.13,10.79,10.79,0,0,0,.84-1.25q.4-.69.73-1.41a14.36,14.36,0,0,0,.57-1.44,12.66,12.66,0,0,0,.38-1.38l-.9.26a11.55,11.55,0,0,1-.78,2.37,11.11,11.11,0,0,1-1.46,2.41,13.18,13.18,0,0,1-2,2,12.14,12.14,0,0,1-2.26,1.48Zm10.58,3.76h.74V193.24h-.74Zm-11.74-22.62,3.83,0,3.93-.08,3.9-.11,3.74-.14,0-.78-3.77.15q-1.95.07-3.93.11l-4,.07-3.85,0Zm8.38-.68h.74v-3.14h-.74Zm4.6-4.64-1.91.12q-1.11.06-2.28.09l-2.28,0q-1.11,0-2,0V183q.82,0,1.94,0l2.29,0,2.28-.08,1.91-.11Zm-8.42.6H721v-3.3h-.74Zm8-3.9q-.8.06-1.86.09l-2.17.06-2.15,0-1.8,0v.78l1.78,0,2.15-.05,2.17-.07,1.88-.08Zm-.74.38h.74v-3.3h-.74Zm.74-3.64-1.92.07-2.24.06-2.22.05-1.86,0,.06.78,1.84,0,2.2-.05,2.23-.07,1.91-.08Zm-12.16-9.92a10.13,10.13,0,0,0,1.66-1.84,10.73,10.73,0,0,0,1.13-2.09,12.71,12.71,0,0,0,.69-2.33,17.31,17.31,0,0,0,.3-2.58l-.78,0a14,14,0,0,1-.89,4.61,9,9,0,0,1-2.65,3.67Zm6.68-.78-2.56-3.5-.62.48,1.25,1.71q.67.93,1.25,1.83Zm2.22-5.06h-3.16v.78H725Zm-.5,8.26h.74V154.44h-.74Zm3,2h.74V153.24h-.74Zm-4.06-39q-.78.06-1.41.07h-1.49l.06.78H722l.67,0,.74,0Zm.44,7.16a7.86,7.86,0,0,1-.86.25q-.4.09-.78.14t-.78.07l-.88,0,0,.74.91,0q.43,0,.85-.07t.85-.14l1-.23Zm-3.34,1.2.74-.2v-7.68l-.74-.4Zm-.66-1.3c-.29.13-.56.24-.79.33a5.89,5.89,0,0,1-.68.21,4.44,4.44,0,0,1-.69.11q-.36,0-.82,0l0,.72c.32,0,.61,0,.88,0a7.47,7.47,0,0,0,.78-.12,6.44,6.44,0,0,0,.78-.21q.4-.14.86-.33Zm-3,1.4.74-.2v-7.78l-.74-.4Zm2.8-8.46-.72,0-.64,0h-1.44l.06.78h1.39l.63,0,.72,0Zm8.24,3.56H725v.78h2.86Zm-3.48,7.48h.74V128.44h-.74Zm3.08,2h.74V127.24h-.74Zm-12.28-34.8,3.91,0,4.11-.08,4.08-.11,3.82-.14,0-.78-3.85.15q-2,.07-4.1.11l-4.13.07-3.94,0Zm14.1,7-2,.12q-1.17.06-2.41.09l-2.42,0q-1.18,0-2,0v.78q.82,0,2,0l2.43,0,2.42-.08q1.17-.05,2-.11Zm-8.82.6h.74V114h-.74Zm7.72-3.32q-.8.06-1.82.09l-2.08.06-2.06,0-1.76,0v.78l1.74,0,2.06,0,2.08-.07,1.84-.08Zm-.74.38h.74V111h-.74Zm.74-3.06-1.88.07-2.16.06-2.13.05-1.81,0,.06.78,1.8,0,2.11,0,2.14-.07,1.87-.08Zm-.36-7.93a2.69,2.69,0,0,0-.77-.86,3.62,3.62,0,0,0-1.15-.55,5.4,5.4,0,0,0-2.84,0,3.62,3.62,0,0,0-1.15.55,2.69,2.69,0,0,0-.77.86,2.4,2.4,0,0,0,0,2.25,2.71,2.71,0,0,0,.77.86,3.6,3.6,0,0,0,1.15.55,5.37,5.37,0,0,0,2.84,0,3.6,3.6,0,0,0,1.15-.55,2.71,2.71,0,0,0,.77-.86,2.4,2.4,0,0,0,0-2.25m-6,.28a2,2,0,0,1,.61-.63,3.06,3.06,0,0,1,.92-.4,4.79,4.79,0,0,1,2.29,0,3.06,3.06,0,0,1,.92.4,2,2,0,0,1,.61.63,1.74,1.74,0,0,1,0,1.69,2,2,0,0,1-.61.63,3,3,0,0,1-.92.4,4.76,4.76,0,0,1-2.29,0,3,3,0,0,1-.92-.4,2,2,0,0,1-.61-.63,1.74,1.74,0,0,1,0-1.69m-.5-20.18q-.82-.22-1.59-.48t-1.61-.58l-.24.8q.78.28,1.59.54t1.61.48Zm-.68,8a2.47,2.47,0,0,0,.82-.52,2.4,2.4,0,0,0,.53-.76,2.27,2.27,0,0,0,0-1.82,2.4,2.4,0,0,0-.53-.76,2.47,2.47,0,0,0-.82-.52,3.05,3.05,0,0,0-2.12,0,2.47,2.47,0,0,0-.82.52,2.4,2.4,0,0,0-.53.76,2.27,2.27,0,0,0,0,1.82,2.4,2.4,0,0,0,.53.76,2.47,2.47,0,0,0,.82.52,3.05,3.05,0,0,0,2.12,0m.31-3.35a1.62,1.62,0,0,1,0,2.32,2.13,2.13,0,0,1-2.74,0,1.62,1.62,0,0,1,0-2.32,2.13,2.13,0,0,1,2.74,0m1.59-3.08-1.49.06-1.75,0-1.75,0h-1.47l.06.76h1.46l1.72,0,1.73,0,1.49,0Zm1.68,6h.74v-8h-.74Zm3.72-4.2h-3.24V87h3.24Zm-.48,4.62h.74V81.24h-.74Zm-3.1,4.24-2-1.36-.4.6,1.86,1.28ZM718,96.94A6.71,6.71,0,0,0,720.84,95a7.18,7.18,0,0,0,1.39-3l-.76-.16A9.15,9.15,0,0,1,721,93.4a4.7,4.7,0,0,1-.74,1.21,5.06,5.06,0,0,1-1.09,1,8.72,8.72,0,0,1-1.54.78Zm12.34-.38-3.2-2.26-.44.64.83.58.71.52.72.54.86.64Zm-7.06.7a6.63,6.63,0,0,0,2.65-2.2,7.76,7.76,0,0,0,1.25-3.12l-.76-.16a10.17,10.17,0,0,1-.42,1.58,5.6,5.6,0,0,1-.68,1.32,5.29,5.29,0,0,1-1,1.09,7.41,7.41,0,0,1-1.45.89ZM723,69.64l.28-4.46-.78,0-.24,4.44Zm-3.54.3-.32-4.48-.8.06.4,4.48Zm6.08-.94q-2.24.3-4.47.46t-4.75.22l.12.78q2.44-.08,4.67-.26t4.55-.46Zm-1.1-5.68-1.69.11-2,.09-2,.06-1.69,0,.06.78,1.66,0,2-.06,2-.09,1.71-.09Zm7,3.66h-3.32l-.38.36.38.42,3.32,0Zm-4.06,6.12h.74V61.24h-.74Zm1.84,2.44-1.93.12q-1.13.06-2.34.09l-2.35,0q-1.14,0-2,0v.78q.82,0,2,0l2.35,0,2.35-.08,1.94-.11Zm-8.6.8h.74V72.42h-.74Zm-5-21.16,3.83,0,3.93-.08,3.9-.11,3.74-.14,0-.78-3.77.15q-1.95.07-3.93.11l-4,.07-3.85,0Zm12.62-11.6-2,.08-2.27.07-2.26,0-2,0,.06.77,1.94,0,2.25-.05,2.25-.06,2-.07Zm1.1,6.06-4.5-3-.42.66,1.07.72,1.15.78,1.15.79,1.07.73Zm-10.2.88a9.62,9.62,0,0,0,3.69-2.38,8.3,8.3,0,0,0,1.93-3.94l-.74-.2a7.49,7.49,0,0,1-1.77,3.66,8.64,8.64,0,0,1-3.45,2.16Zm4.72,4h.74V50.44h-.74Z"/><path class="cls-3" d="M745.69,420l3.83,0,3.93-.08,3.9-.11,3.74-.14,0-.78-3.77.15q-1.95.07-3.93.11l-4,.07-3.85,0Zm8.38-.68h.74v-3.14h-.74Zm4.6-4.64-1.91.12q-1.11.06-2.28.09l-2.28,0q-1.11,0-2,0v.78q.82,0,1.94,0l2.29,0,2.28-.08,1.91-.11Zm-8.42.6H751V412h-.74Zm8-3.9q-.8.06-1.86.09l-2.17.06-2.15,0-1.8,0v.78l1.78,0,2.15,0,2.17-.07,1.88-.08Zm-.74.38h.74v-3.3h-.74Zm.74-3.64-1.92.07-2.24.06-2.22.06-1.86,0,.06.78,1.84,0,2.2-.05,2.23-.07,1.91-.08Zm-13.06-15.28,3.91,0,4.11-.08,4.08-.11,3.82-.14,0-.78-3.85.15q-2,.07-4.1.11L749,392l-3.94,0Zm13.1-6.42-1.9.08-2.19.06-2.16,0-1.83,0,.06.78,1.66,0,2,0,2,0,1.74-.06Zm-.68,4.62q.14-.62.25-1.16t.19-1.06q.08-.52.14-1.1t.1-1.3l-.8.26c0,.39-.05.75-.08,1.08s-.06.66-.11,1-.11.65-.18,1-.16.7-.25,1.1Zm1.68,9.62-2,.12q-1.17.06-2.41.09l-2.42,0q-1.18,0-2,0v.78q.82,0,2,0l2.43,0,2.42-.08q1.17,0,2-.11Zm-8.82.6h.74v-2.9h-.74Zm7.72-3.5q-.8.06-1.82.09l-2.08.06-2.06,0-1.76,0v.78l1.74,0,2.06-.05,2.08-.07,1.84-.08Zm-.74.38h.74v-2.9h-.74Zm.74-3.24-1.88.07-2.16.07-2.13.06-1.81,0,.06.78,1.8,0,2.11,0,2.14-.07,1.87-.08Zm-4.5-32.64-1.57.07-1.47,0-1.44,0h-1.5l.06.78,2.63,0q1.23,0,2.65-.08Zm-6.4,8.34a14.51,14.51,0,0,0,2.16-1.66,17.26,17.26,0,0,0,1.9-2.06,14.56,14.56,0,0,0,1.47-2.28,9.69,9.69,0,0,0,.87-2.34l-.92.26a8.22,8.22,0,0,1-.76,2,12.27,12.27,0,0,1-1.33,2,15.61,15.61,0,0,1-1.79,1.87,17,17,0,0,1-2.12,1.61Zm10.14,1h.74V360h-.74Zm1.84,2.64-1.93.12q-1.13.06-2.34.09l-2.35,0q-1.14,0-2,0v.78q.82,0,2,0l2.35,0,2.35-.08q1.14,0,1.94-.11Zm-8.6.8h.74v-4.22h-.74Zm1.11-30a3.36,3.36,0,0,0,1.1-.79,3.56,3.56,0,0,0,.71-1.17,4.23,4.23,0,0,0,0-2.86,3.54,3.54,0,0,0-.71-1.17,3.43,3.43,0,0,0-5,0,3.52,3.52,0,0,0-.71,1.17,4.23,4.23,0,0,0,0,2.86,3.54,3.54,0,0,0,.71,1.17,3.5,3.5,0,0,0,3.93.79m-.29-6.12a2.61,2.61,0,0,1,.86.63,2.73,2.73,0,0,1,.55.94,3.62,3.62,0,0,1,0,2.32,2.75,2.75,0,0,1-.55.94,2.62,2.62,0,0,1-.86.63,2.85,2.85,0,0,1-2.25,0,2.62,2.62,0,0,1-.86-.63,2.75,2.75,0,0,1-.55-.94,3.62,3.62,0,0,1,0-2.32,2.73,2.73,0,0,1,.55-.94,2.61,2.61,0,0,1,.86-.63,2.86,2.86,0,0,1,2.25,0m6,11.69h.74V334h-.74Zm-12.26-27,3.91,0,4.11-.08,4.08-.11,3.82-.14,0-.78-3.85.15q-2,.07-4.1.11l-4.13.07-3.94,0Zm6.24-3.18a2.19,2.19,0,0,0,.65.67,3.13,3.13,0,0,0,1,.43,4.76,4.76,0,0,0,2.37,0,3.14,3.14,0,0,0,1-.43,2.21,2.21,0,0,0,.65-.67,1.76,1.76,0,0,0,0-1.77,2.22,2.22,0,0,0-.65-.67,3.16,3.16,0,0,0-1-.43,4.76,4.76,0,0,0-2.37,0,3.15,3.15,0,0,0-1,.43,2.2,2.2,0,0,0-.65.67,1.76,1.76,0,0,0,0,1.77m1.18-2a4.22,4.22,0,0,1,3.24,0,1.23,1.23,0,0,1,0,2.17,4.22,4.22,0,0,1-3.24,0,1.23,1.23,0,0,1,0-2.17m4-4.52q-1.14-.06-2.21-.19t-2.21-.33l-.06.88q1.08.16,2.19.28t2.17.18Zm2,1.7-2.13.08-2.61.07-2.58.06-2.06,0,.06.78,1.28,0,1.59,0,1.75,0,1.75-.05,1.62,0,1.33-.05Zm-.4,13.66h-7.62v.78h7.62Zm0-2.88-1.74.07-2,.06-2,0h-1.73v.76h1.72l2,0,2-.05,1.74-.06Zm0-1.84h-.74v5h.74Zm-7.62,5.14h.74v-4.88h-.74Zm-4.86-21.26,3.83,0,3.93-.08,3.9-.11,3.74-.14,0-.78-3.77.15q-1.95.07-3.93.11l-4,.07-3.85,0Zm9.74-4a3.17,3.17,0,0,0,1-.57,2.59,2.59,0,0,0,.66-.86,2.54,2.54,0,0,0,0-2.15,2.6,2.6,0,0,0-.66-.86,3.19,3.19,0,0,0-1-.57,3.7,3.7,0,0,0-2.45,0,3.19,3.19,0,0,0-1,.57,2.59,2.59,0,0,0-.66.86,2.54,2.54,0,0,0,0,2.15,2.58,2.58,0,0,0,.66.86,3.17,3.17,0,0,0,1,.57,3.68,3.68,0,0,0,2.45,0m.47-4a1.94,1.94,0,0,1,0,2.93,3,3,0,0,1-3.39,0,1.94,1.94,0,0,1,0-2.93,3,3,0,0,1,3.39,0m.65-5.28q-1.12-.14-2.25-.35t-2.27-.49l-.12.86q1.08.24,2.25.44t2.21.34Zm2.06,1.92-1.35.06-1.64,0-1.79.06-1.77,0-1.61,0-1.3,0,.06.78,1.29,0,1.6,0,1.76,0,1.78-.05,1.64,0,1.33-.05Zm-4.78,10.64h.74v-2.5h-.74Zm-8.66-30.72,3.91,0,4.11-.08,4.08-.11,3.82-.14,0-.78-3.85.15q-2,.07-4.1.11l-4.13.07-3.94,0Zm13.9,5.16-2,.12q-1.17.06-2.41.09l-2.42,0q-1.18,0-2,0v.78q.82,0,2,0l2.43,0,2.42-.08q1.17-.05,2-.11Zm-.2-9.84-1.94.12q-1.14.06-2.34.09l-2.35,0q-1.15,0-2,0v.78q.82,0,2,0l2.36,0,2.35-.08q1.14,0,1.94-.11Zm-8.62,1H751v-4.84h-.74Zm0,9.84H751v-4.34h-.74ZM751.75,259a3.36,3.36,0,0,0,1.1-.79,3.54,3.54,0,0,0,.71-1.17,4.23,4.23,0,0,0,0-2.86,3.54,3.54,0,0,0-.71-1.17,3.43,3.43,0,0,0-5,0,3.52,3.52,0,0,0-.71,1.17,4.23,4.23,0,0,0,0,2.86,3.52,3.52,0,0,0,.71,1.17,3.35,3.35,0,0,0,1.1.79,3.6,3.6,0,0,0,2.83,0m-.29-6.12a2.61,2.61,0,0,1,.86.63,2.75,2.75,0,0,1,.55.94,3.62,3.62,0,0,1,0,2.32,2.75,2.75,0,0,1-.55.94,2.61,2.61,0,0,1-.86.63,2.86,2.86,0,0,1-2.25,0,2.61,2.61,0,0,1-.86-.63,2.75,2.75,0,0,1-.55-.94,3.62,3.62,0,0,1,0-2.32,2.75,2.75,0,0,1,.55-.94,2.61,2.61,0,0,1,.86-.63,2.86,2.86,0,0,1,2.25,0m6,11.69h.74V248h-.74Zm-.5-27.06a2.05,2.05,0,1,0,3.34-2.26,2,2,0,0,0-3.34.66,2.09,2.09,0,0,0,0,1.6m2.84.14a1.37,1.37,0,0,1-1.89,0,1.35,1.35,0,0,1,0-1.88,1.37,1.37,0,0,1,1.89,0,1.35,1.35,0,0,1,0,1.88m-6.22-20.56q-1.36.1-2.92.15t-2.9,0v.76h1.4l1.49,0,1.5-.05,1.43-.07Zm1.54,6.34a15.85,15.85,0,0,1-3.45.92,22.57,22.57,0,0,1-3.87.24l0,.74a22.3,22.3,0,0,0,4-.28,19.15,19.15,0,0,0,3.6-.92Zm-7.36,1.88.74-.2V217.9h-.74Zm13.76-4.28h-3.32l-.38.36.38.42,3.32,0Zm-4.06,8.82h.74V213.24h-.74Zm-2.16-26.62a30.05,30.05,0,0,1-3.56.88,29.07,29.07,0,0,1-3.88.44l0,.74a28.56,28.56,0,0,0,4-.46q1.89-.36,3.67-.88Zm-7.48,2,.74-.2v-8h-.74Zm9.64,4.58h.74V193.24h-.74Zm-12.34-29.1,3.94,0,4.13-.07q2.07,0,4.1-.11l3.85-.15,0,.78q-1.8.08-3.82.14l-4.08.11-4.11.08-3.91,0Zm14.26-2.9-4.16-2.16-.36.68,2,1.07,2.07,1.13Zm-9.68.8a8.38,8.38,0,0,0,3.57-2.1,7.5,7.5,0,0,0,1.91-3.56l-.72-.18a9.23,9.23,0,0,1-.7,1.85,5.75,5.75,0,0,1-1,1.43,6.43,6.43,0,0,1-1.45,1.08,11.3,11.3,0,0,1-1.91.82Zm8.5,10.4h-7.42v-.78h7.42Zm0-3.28-1.71.06-2,0-2,0h-1.68v-.76h1.7l2,0,2-.06,1.7-.07Zm0,2.82h-.74V183h.74Zm-7.42-5.34h.74v5.44h-.74Zm7.12-27.16h-3.26v.78h3.26Zm0,3.32h-3.26v.78h3.26ZM754.49,167l-1.9-1.36-.4.6,1.74,1.26Zm-6.18,1.94a7.38,7.38,0,0,0,4.26-5.06l-.76-.16a6.56,6.56,0,0,1-1.36,2.8,7,7,0,0,1-2.58,1.82Zm12.08-.36-3.06-2.3-.46.64.76.57.72.54.73.56.79.63Zm-6.68.68a7.2,7.2,0,0,0,1.4-1,7.93,7.93,0,0,0,1.13-1.29,8.47,8.47,0,0,0,.83-1.48,7.66,7.66,0,0,0,.5-1.6l-.76-.16a7.33,7.33,0,0,1-1.18,2.86,7.2,7.2,0,0,1-2.36,2.08Zm.92-8.24q-1.66.3-3.32.45a31.6,31.6,0,0,1-3.26.13v-3h-.74v3.78q.86,0,1.82,0t1.93-.11q1-.07,1.92-.19t1.79-.28Zm-1.42-3q-1.58.14-3,.18l-2.92.06V159q1.5,0,2.92-.07t3-.15Zm-.74.4h.74v-3.18h-.74Zm.74-3.52-1.58.07-1.5.05-1.47,0-1.51,0,.06.78,3-.06q1.41,0,3-.12Zm4.22,7.9h.74v-9.56h-.74ZM745.69,147l3.83,0,3.93-.08,3.9-.11,3.74-.14,0-.78-3.77.15q-1.95.07-3.93.11l-4,.07-3.85,0Zm12.58-11.24-1.93.08-2.28.06-2.29,0-2,0,.06.78,1.88,0,2.1,0,2,0,1.75-.06ZM757,144.54q.22-.94.42-2t.36-2.25q.16-1.15.28-2.31t.18-2.22l-.8.26q0,.94-.14,2t-.26,2.2q-.16,1.11-.36,2.18t-.44,2Zm-6.46-24.87a2.55,2.55,0,0,0,.82-.56,2.51,2.51,0,0,0,.53-.82,2.67,2.67,0,0,0,0-2,2.53,2.53,0,0,0-.53-.82,2.57,2.57,0,0,0-.82-.56,2.78,2.78,0,0,0-2.12,0,2.57,2.57,0,0,0-.82.56,2.53,2.53,0,0,0-.53.82,2.67,2.67,0,0,0,0,2,2.51,2.51,0,0,0,.53.82,2.55,2.55,0,0,0,.82.56,2.78,2.78,0,0,0,2.12,0m.31-3.67a2,2,0,0,1,0,2.6,2,2,0,0,1-2.74,0,2,2,0,0,1,0-2.6,2,2,0,0,1,2.74,0m.25-5.06q-.8-.28-1.57-.59t-1.57-.67l-.28.82q.76.34,1.56.63l1.58.57Zm1.42,1.76-1.49.06-1.75,0-1.76,0h-1.48l.06.76h1.46l1.73,0,1.74,0,1.49,0Zm5.08,1.94h-3v.76h3Zm-3.52,7.26h.74V108.44h-.74Zm3.34,2h.74V107.24h-.74Zm-11.76-22.72,3.83,0,3.93-.08,3.9-.11,3.74-.14,0-.78-3.77.15q-1.95.07-3.93.11l-4,.07-3.85,0Zm12.62-11.6-2,.08-2.27.07-2.26,0-2,0,.06.76,1.94,0,2.25-.05,2.25-.06,2-.07Zm1.1,6.06-4.5-3-.42.66,1.07.72,1.15.78,1.15.79,1.07.73Zm-10.2.88a9.61,9.61,0,0,0,3.69-2.38,8.3,8.3,0,0,0,1.93-3.94l-.74-.2a7.49,7.49,0,0,1-1.77,3.66,8.64,8.64,0,0,1-3.45,2.16Zm4.72,4h.74V96.44h-.74Zm-6.54-23.06a13.57,13.57,0,0,0,2.25-1.52,13.89,13.89,0,0,0,1.85-1.86,12.17,12.17,0,0,0,1.41-2.14,10.66,10.66,0,0,0,.89-2.36l-.92.26a9.56,9.56,0,0,1-2,3.92,13.6,13.6,0,0,1-3.94,3.12Zm6.4-7.88-1.57.07-1.47,0-1.44,0h-1.5l.06.78,2.63,0q1.23,0,2.65-.08Zm-1.64,12a3,3,0,0,0,.67,1,3.14,3.14,0,0,0,1,.66,3.48,3.48,0,0,0,2.54,0,3.14,3.14,0,0,0,1-.66,3,3,0,0,0,.67-1,3,3,0,0,0,0-2.37,3,3,0,0,0-.67-1,3.14,3.14,0,0,0-1-.66,3.48,3.48,0,0,0-2.54,0,3.14,3.14,0,0,0-1,.66,3,3,0,0,0-.67,1,3,3,0,0,0,0,2.37m.68-2.1a2.13,2.13,0,0,1,.51-.74,2.66,2.66,0,0,1,.77-.5,2.64,2.64,0,0,1,2,0,2.68,2.68,0,0,1,.77.5,2.15,2.15,0,0,1,.51.74,2.38,2.38,0,0,1,0,1.82,2.13,2.13,0,0,1-.51.74,2.64,2.64,0,0,1-.77.5,2.64,2.64,0,0,1-2,0,2.62,2.62,0,0,1-.77-.5,2.11,2.11,0,0,1-.51-.74,2.38,2.38,0,0,1,0-1.82m8.66-7.23h-3.32l-.38.36.38.42,3.32,0Zm-4.06,4.14h.74V67.24h-.74Zm-4-27.38h4.4v-.78h-4.4Zm0-4.14-1.44.08-1.54.06-1.55,0h-1.43v.76h1.42l1.54,0,1.55,0,1.45-.07Zm.9,7.34q-.84.26-1.63.44a16,16,0,0,1-1.61.28q-.82.1-1.69.13t-1.89,0l0,.74a27.6,27.6,0,0,0,3.68-.15,20.49,20.49,0,0,0,3.38-.69Zm-6.86,1.58.74-.2v-8h-.74Zm10,4.18h.74V41.24h-.74Z"/><path class="cls-3" d="M775.17,375.76l3.91,0,4.11-.08,4.08-.11q2-.06,3.82-.14l0-.78-3.85.15q-2,.07-4.1.11l-4.13.07-3.94,0Zm14.1,7-2,.12q-1.17.06-2.41.09l-2.42,0q-1.18,0-2,0v.78q.82,0,2,0l2.43,0,2.42-.08q1.17,0,2-.11Zm-8.82.6h.74v-2.72h-.74Zm7.72-3.32q-.8.06-1.82.09l-2.08.06-2.06,0-1.76,0V381l1.74,0,2.06-.05,2.08-.07,1.84-.08Zm-.74.38h.74V377.7h-.74Zm.74-3.06-1.88.07-2.16.06-2.13.05-1.81,0,.06.78,1.8,0,2.11-.05,2.14-.07,1.87-.08Zm-.36-7.93a2.71,2.71,0,0,0-.77-.86,3.6,3.6,0,0,0-1.15-.55,5.37,5.37,0,0,0-2.84,0,3.6,3.6,0,0,0-1.15.55,2.71,2.71,0,0,0-.77.86,2.4,2.4,0,0,0,0,2.25,2.7,2.7,0,0,0,.77.86,3.6,3.6,0,0,0,1.15.55,5.4,5.4,0,0,0,2.84,0,3.6,3.6,0,0,0,1.15-.55,2.7,2.7,0,0,0,.77-.86,2.4,2.4,0,0,0,0-2.25m-6,.28a1.94,1.94,0,0,1,.61-.63,3,3,0,0,1,.92-.4,4.76,4.76,0,0,1,2.29,0,3,3,0,0,1,.92.4,2,2,0,0,1,.61.63,1.74,1.74,0,0,1,0,1.69,2,2,0,0,1-.61.63,3,3,0,0,1-.92.4,4.79,4.79,0,0,1-2.29,0,3,3,0,0,1-.92-.4,1.94,1.94,0,0,1-.61-.63,1.74,1.74,0,0,1,0-1.69m-6.64-13.61,3.91,0,4.11-.08,4.08-.11q2-.06,3.82-.14l0-.78-3.85.15q-2,.07-4.1.11l-4.13.07-3.94,0Zm13.48-4.26-1.86.12q-1.06.06-2.17.09l-2.17,0q-1.06,0-1.9,0v.78q.82,0,1.89,0l2.18,0,2.17-.08,1.86-.11Zm-.44-3.74-1.71.08-2.13.06-2.13,0h-1.69V349h1.68l2.12,0,2.14,0,1.72-.07Zm-7.66,4.74.74-.2v-3.78h-.74Zm4.93,6.27a2.61,2.61,0,0,1,.86.43,2.13,2.13,0,0,1,.57.67,1.85,1.85,0,0,1,0,1.71,2.11,2.11,0,0,1-.57.67,2.59,2.59,0,0,1-.86.43,3.83,3.83,0,0,1-2.12,0,2.6,2.6,0,0,1-.85-.43,2.09,2.09,0,0,1-.57-.67,1.85,1.85,0,0,1,0-1.71,2.12,2.12,0,0,1,.57-.67,2.61,2.61,0,0,1,.85-.43,3.8,3.8,0,0,1,2.12,0m.29,4.58a3.5,3.5,0,0,0,1.09-.59,2.69,2.69,0,0,0,.73-.9,2.6,2.6,0,0,0,0-2.27,2.71,2.71,0,0,0-.73-.9,3.52,3.52,0,0,0-1.09-.59,4.41,4.41,0,0,0-2.69,0A3.52,3.52,0,0,0,782,359a2.69,2.69,0,0,0-.73.9,2.6,2.6,0,0,0,0,2.27,2.67,2.67,0,0,0,.73.9,3.5,3.5,0,0,0,1.09.59,4.43,4.43,0,0,0,2.69,0m-1.69-5.27h.74v-2.8h-.74Zm-.24-26.82q-1.66.1-3.31.15t-3.21.07l.06.78,2.9-.07,2.92-.11Zm-7,9.2a12.25,12.25,0,0,0,2.38-1.59,14.54,14.54,0,0,0,2.08-2.13,10.79,10.79,0,0,0,.84-1.25q.4-.69.73-1.41a14.33,14.33,0,0,0,.57-1.44,12.66,12.66,0,0,0,.38-1.38l-.9.26a11.55,11.55,0,0,1-.78,2.37,11.1,11.1,0,0,1-1.46,2.41,13.18,13.18,0,0,1-2,2,12.14,12.14,0,0,1-2.26,1.48Zm10.58,3.76h.74V327.9h-.74Zm-11.74-22.62,3.83,0,3.93-.08,3.9-.11,3.74-.14,0-.78-3.77.15q-1.95.07-3.93.11l-4,.07-3.85,0Zm8.38-.68h.74v-3.14h-.74Zm4.6-4.64-1.91.12q-1.11.06-2.28.09l-2.28,0q-1.11,0-2,0v.78q.82,0,1.94,0l2.29,0,2.28-.08,1.91-.11Zm-8.42.6H781v-3.3h-.74Zm8-3.9q-.8.06-1.86.09l-2.17.06-2.15,0-1.8,0v.78l1.78,0,2.15-.05,2.17-.07,1.88-.08Zm-.74.38h.74v-3.3h-.74Zm.74-3.64-1.92.07-2.24.06-2.22.05-1.86,0,.06.78,1.84,0,2.2,0,2.23-.07,1.91-.08Zm-12.16-9.92a10.13,10.13,0,0,0,1.66-1.84,10.73,10.73,0,0,0,1.13-2.09,12.7,12.7,0,0,0,.69-2.33,17.31,17.31,0,0,0,.3-2.58l-.78,0a14,14,0,0,1-.89,4.61,9,9,0,0,1-2.65,3.67Zm6.68-.78-2.56-3.5-.62.48,1.25,1.71q.67.93,1.25,1.83ZM785,294.3h-3.16v.78H785Zm-.5,8.26h.74V289.1h-.74Zm3,2h.74V287.9h-.74ZM777,271.06a3.79,3.79,0,0,0,.73,1.18,3.4,3.4,0,0,0,1.09.79,3.27,3.27,0,0,0,2.69,0,3.4,3.4,0,0,0,1.09-.79,3.83,3.83,0,0,0,.73-1.18,4.1,4.1,0,0,0,0-2.92,3.8,3.8,0,0,0-.73-1.18,3.37,3.37,0,0,0-1.09-.79,3.27,3.27,0,0,0-2.69,0,3.37,3.37,0,0,0-1.09.79,3.76,3.76,0,0,0-.73,1.18,4.1,4.1,0,0,0,0,2.92m.67-2.65a2.84,2.84,0,0,1,.56-.95,2.63,2.63,0,0,1,.85-.63,2.49,2.49,0,0,1,1.07-.23,2.45,2.45,0,0,1,1.05.23,2.64,2.64,0,0,1,.85.63,3,3,0,0,1,.57.95,3.46,3.46,0,0,1,0,2.38,3,3,0,0,1-.57.95,2.67,2.67,0,0,1-.85.63,2.46,2.46,0,0,1-1.05.23,2.51,2.51,0,0,1-1.07-.23,2.66,2.66,0,0,1-.85-.63,2.86,2.86,0,0,1-.56-.95,3.62,3.62,0,0,1,0-2.38M787.87,267h-3.5v.78h3.5Zm0,4.56h-3.5v.78h3.5Zm-.44,7h.74V261.9h-.74Zm-5.32-23.69a2.75,2.75,0,0,0,1.5-1.57,2.91,2.91,0,0,0,0-2.12,2.82,2.82,0,0,0-.57-.92,2.8,2.8,0,0,0-.93-.65,3.4,3.4,0,0,0-2.56,0,2.75,2.75,0,0,0-1.5,1.57,2.91,2.91,0,0,0,0,2.12,2.75,2.75,0,0,0,1.5,1.57,3.4,3.4,0,0,0,2.56,0m-2.28-.66a2,2,0,0,1-.69-.5,2.2,2.2,0,0,1-.41-.69,2.22,2.22,0,0,1,0-1.55,2.16,2.16,0,0,1,.41-.7,2,2,0,0,1,.69-.5,2.7,2.7,0,0,1,2,0,2,2,0,0,1,.7.5,2.16,2.16,0,0,1,.41.7,2.21,2.21,0,0,1,0,1.55,2.2,2.2,0,0,1-.41.69,2,2,0,0,1-.7.5,2.7,2.7,0,0,1-2,0m11.66-4.37h-3.32l-.38.36.38.42,3.32,0ZM784.67,247l-1.79.08-2.3.07-2.3,0-1.79,0,.06.78h1.09l1.4,0,1.55,0,1.56,0,1.41-.05,1.11-.05ZM783,244.72q-1.08-.34-2.08-.73t-2.06-.85l-.28.82q1,.44,2.06.81l2.06.71Zm4.44,13.84h.74V241.9h-.74Zm.32-28.62h-3.06v.78h3.06Zm0-3.34h-3.06v.78h3.06Zm-4.82-3.38q-1.1-.2-2-.42t-2-.56l-.16.84q1.06.3,2,.51l2,.41Zm-.44,13.27a2.33,2.33,0,0,0,.63.81,3.22,3.22,0,0,0,1,.54,3.76,3.76,0,0,0,2.42,0,3.22,3.22,0,0,0,1-.54,2.33,2.33,0,0,0,.63-.81,2.31,2.31,0,0,0,.22-1,2.24,2.24,0,0,0-.22-1,2.45,2.45,0,0,0-.63-.81,3.06,3.06,0,0,0-1-.55,3.76,3.76,0,0,0-2.42,0,3.06,3.06,0,0,0-1,.55,2.45,2.45,0,0,0-.63.81,2.24,2.24,0,0,0-.22,1,2.31,2.31,0,0,0,.22,1m1.14-2.28a2.82,2.82,0,0,1,3.29,0,1.65,1.65,0,0,1,0,2.58,2.82,2.82,0,0,1-3.29,0,1.65,1.65,0,0,1,0-2.58m-5.44-3.66a2.43,2.43,0,0,0,.57.82,2.8,2.8,0,0,0,.89.56,3.29,3.29,0,0,0,2.31,0,2.81,2.81,0,0,0,.89-.56,2.45,2.45,0,0,0,.57-.82,2.53,2.53,0,0,0,.2-1,2.44,2.44,0,0,0-.77-1.79,2.8,2.8,0,0,0-.89-.56,3.29,3.29,0,0,0-2.31,0,2.78,2.78,0,0,0-.89.56,2.44,2.44,0,0,0-.77,1.79,2.51,2.51,0,0,0,.2,1m4.13.31a2.35,2.35,0,0,1-3,0,1.8,1.8,0,0,1-.55-1.3,1.77,1.77,0,0,1,.55-1.29,2.38,2.38,0,0,1,3,0,1.77,1.77,0,0,1,.55,1.29,1.8,1.8,0,0,1-.55,1.3m1.95-5.9-1.74.08-2.1.07-2.09,0-1.73,0,.06.78,1.7,0,2.07,0,2.09-.07,1.74-.08Zm3.16,7.06h.74V221.9h-.74Zm-3.1-22.48h3.54v-.78h-3.54Zm0-3.2h3.54v-.78h-3.54Zm-.94,3.78h-6v.78h6Zm0-3.92q-1.44.08-2.87.12t-2.87,0v.76q1.42,0,2.86,0l2.88-.1Zm0-2.82h-.74v7h.74Zm-6,7.3h.74v-7h-.74Zm10,2.6h.74V201.9h-.74Zm1.84,2.92-1.93.12q-1.13.06-2.34.09l-2.35,0q-1.14,0-2,0v.78q.82,0,2,0l2.35,0,2.35-.08,1.94-.11Zm-8.6.8h.74v-4h-.74Zm-5.5-33.24,3.91,0,4.11-.08,4.08-.11,3.82-.14,0-.78-3.85.15q-2,.07-4.1.11l-4.13.07-3.94,0Zm14.1,7-2,.12q-1.17.06-2.41.09l-2.42,0q-1.18,0-2,0v.78q.82,0,2,0l2.43,0,2.42-.08q1.17-.05,2-.11Zm-8.82.6h.74v-2.72h-.74Zm7.72-3.32q-.8.06-1.82.09l-2.08.06-2.06,0-1.76,0V189l1.74,0,2.06-.05,2.08-.07,1.84-.08Zm-.74.38h.74V185.7h-.74Zm.74-3.06-1.88.07-2.16.06-2.13.05-1.81,0,.06.78,1.8,0,2.11-.05,2.14-.07,1.87-.08Zm-.36-7.93a2.7,2.7,0,0,0-.77-.86,3.62,3.62,0,0,0-1.15-.55,5.4,5.4,0,0,0-2.84,0,3.62,3.62,0,0,0-1.15.55,2.7,2.7,0,0,0-.77.86,2.4,2.4,0,0,0,0,2.25,2.7,2.7,0,0,0,.77.86,3.6,3.6,0,0,0,1.15.55,5.37,5.37,0,0,0,2.84,0,3.6,3.6,0,0,0,1.15-.55,2.7,2.7,0,0,0,.77-.86,2.4,2.4,0,0,0,0-2.25m-6,.28a2,2,0,0,1,.61-.63,3.06,3.06,0,0,1,.92-.4,4.79,4.79,0,0,1,2.29,0,3.07,3.07,0,0,1,.92.4,2,2,0,0,1,.61.63,1.74,1.74,0,0,1,0,1.69,2,2,0,0,1-.61.63,3,3,0,0,1-.92.4,4.76,4.76,0,0,1-2.29,0,3,3,0,0,1-.92-.4,2,2,0,0,1-.61-.63,1.74,1.74,0,0,1,0-1.69m.28-7.51a3.14,3.14,0,0,0,.7,1,3.35,3.35,0,0,0,1,.65,3.38,3.38,0,0,0,2.5,0,3.35,3.35,0,0,0,1-.65,3.14,3.14,0,0,0,.7-1,2.85,2.85,0,0,0,0-2.38,3.12,3.12,0,0,0-.7-1,3.35,3.35,0,0,0-1-.65,3.38,3.38,0,0,0-2.5,0,3.35,3.35,0,0,0-1,.65,3.12,3.12,0,0,0-.7,1,2.85,2.85,0,0,0,0,2.38m5.27-.28a2.2,2.2,0,0,1-.53.74,2.65,2.65,0,0,1-3.53,0,2.18,2.18,0,0,1-.53-.74,2.26,2.26,0,0,1,0-1.82,2.18,2.18,0,0,1,.53-.74,2.65,2.65,0,0,1,3.53,0,2.19,2.19,0,0,1,.53.74,2.26,2.26,0,0,1,0,1.82m-9.66-7.74a3.15,3.15,0,0,0,.69,1,3.29,3.29,0,0,0,1,.68,3.23,3.23,0,0,0,2.49,0,3.3,3.3,0,0,0,1-.68,3.18,3.18,0,0,0,.69-1,3.06,3.06,0,0,0,0-2.42,3.18,3.18,0,0,0-.69-1,3.3,3.3,0,0,0-1-.68,3.23,3.23,0,0,0-2.49,0,3.29,3.29,0,0,0-1,.68,3.15,3.15,0,0,0-.69,1,3.06,3.06,0,0,0,0,2.42m.68-2.13a2.45,2.45,0,0,1,.52-.77,2.57,2.57,0,0,1,.78-.53,2.47,2.47,0,0,1,1.95,0,2.57,2.57,0,0,1,.78.53,2.45,2.45,0,0,1,.52.77,2.31,2.31,0,0,1,0,1.84,2.45,2.45,0,0,1-.52.77,2.57,2.57,0,0,1-.78.53,2.47,2.47,0,0,1-1.95,0,2.57,2.57,0,0,1-.78-.53,2.45,2.45,0,0,1-.52-.77,2.31,2.31,0,0,1,0-1.84m9,4.94h.74V155.9h-.74Zm4-6.34h-3.22l-.38.36.38.42,3.22,0Zm0,3.3h-3.22l-.38.36.38.42,3.22,0Zm-15.7-12.12,3.83,0,3.93-.08,3.9-.11,3.74-.14,0-.78-3.77.15q-1.95.07-3.93.11l-4,.07-3.85,0Zm8.38-.68h.74v-3.86h-.74Zm-3.36-5.26h.74v-5.44h-.74Zm7.46-5.58-1.7.07-2,0-2,0h-1.72l.06.76h1.69l2,0,2,0,1.72-.06Zm-.74,5.7h.74v-5.18h-.74Zm.74-.42h-7.46v.78h7.46Zm-10-26.75a3.17,3.17,0,0,0,1.73,1.72,3.38,3.38,0,0,0,2.55,0,3.19,3.19,0,0,0,1-.69,3.23,3.23,0,0,0,.69-1,3.26,3.26,0,0,0,0-2.5,3.24,3.24,0,0,0-.69-1,3.19,3.19,0,0,0-1-.69,3.38,3.38,0,0,0-2.55,0,3.23,3.23,0,0,0-1.73,4.22m.68-2.22a2.45,2.45,0,0,1,.53-.79,2.61,2.61,0,0,1,.79-.54,2.57,2.57,0,0,1,2,0,2.62,2.62,0,0,1,.79.54,2.49,2.49,0,0,1,0,3.52,2.61,2.61,0,0,1-.79.54,2.57,2.57,0,0,1-2,0,2.59,2.59,0,0,1-.79-.54,2.52,2.52,0,0,1-.53-2.73m8.59,12h.74V109.9h-.74Zm-1.16-5.44q-1.5.26-2.78.43t-2.51.29q-1.23.12-2.5.2t-2.77.14l.16.78q1.48-.06,2.75-.16t2.49-.23q1.22-.13,2.48-.3l2.74-.39Zm4.76-16.8-.48-.6-6.76,3.88L777,103.72l-.48.6,7.24,4.14Zm-1.22-4.86-4.44-2.86-.42.66q1,.62,2.15,1.39l2.19,1.49Zm-10.4.62a7.24,7.24,0,0,0,3.67-2,8.23,8.23,0,0,0,2-3.75l-.72-.18a7.53,7.53,0,0,1-1.85,3.46,7.22,7.22,0,0,1-3.45,1.78Zm8-5h.74V90.76h-.74Zm-5.62-3.2a6.92,6.92,0,0,1-.63,1.79A7.27,7.27,0,0,1,780,95.36l.66.4A8.54,8.54,0,0,0,781.85,94a7.23,7.23,0,0,0,.7-1.93Zm6.36-1.48q-1.6.09-3.27.14l-3.34.1-3.31.06-3.16,0,.08.78,3.14,0,3.28-.06,3.32-.1,3.26-.12ZM788,85.31a2.7,2.7,0,0,0-.79-.88,3.7,3.7,0,0,0-1.17-.55,5.45,5.45,0,0,0-2.86,0,3.7,3.7,0,0,0-1.17.55,2.7,2.7,0,0,0-.79.88,2.56,2.56,0,0,0,0,2.37,2.71,2.71,0,0,0,.79.88,3.7,3.7,0,0,0,1.17.55,5.48,5.48,0,0,0,2.86,0,3.7,3.7,0,0,0,1.17-.55,2.71,2.71,0,0,0,.79-.88,2.56,2.56,0,0,0,0-2.37m-6.1.3a1.86,1.86,0,0,1,.63-.64,3.14,3.14,0,0,1,.94-.38,5.2,5.2,0,0,1,2.31,0,3.14,3.14,0,0,1,.94.38,1.87,1.87,0,0,1,.63.64,1.85,1.85,0,0,1,0,1.78,1.9,1.9,0,0,1-.63.63,3.14,3.14,0,0,1-.94.38,5.24,5.24,0,0,1-2.31,0,3.14,3.14,0,0,1-.94-.38,1.89,1.89,0,0,1-.63-.63,1.85,1.85,0,0,1,0-1.78M785,66.8h-.56v16H785Zm-3.89-15a3,3,0,0,0,.79,1,3.72,3.72,0,0,0,1.18.64,4.62,4.62,0,0,0,2.88,0,3.72,3.72,0,0,0,1.18-.64,3,3,0,0,0,.79-1,3,3,0,0,0,0-2.57,3,3,0,0,0-.79-1,3.72,3.72,0,0,0-1.18-.64,4.6,4.6,0,0,0-2.88,0,3.72,3.72,0,0,0-1.18.64,3,3,0,0,0-.79,1,3,3,0,0,0,0,2.57m.68-2.26a2.21,2.21,0,0,1,.64-.75,3.09,3.09,0,0,1,.95-.48,4,4,0,0,1,2.31,0,3,3,0,0,1,.94.48,2.4,2.4,0,0,1,.64.75,2.11,2.11,0,0,1,0,2,2.37,2.37,0,0,1-.64.75,3,3,0,0,1-.94.48,4,4,0,0,1-2.31,0,3.07,3.07,0,0,1-.95-.48,2.2,2.2,0,0,1-.64-.75,2.19,2.19,0,0,1,0-2m5.65,13.73h.74V56h-.74ZM782,57.74a13.89,13.89,0,0,1-1.16,2.6,15.48,15.48,0,0,1-1.72,2.44l.68.42a19.3,19.3,0,0,0,1.71-2.54A15.2,15.2,0,0,0,782.73,58Zm6.16-2q-1.6.09-3.27.14l-3.34.1-3.31.06-3.16,0,.08.78,3.14,0,3.28-.06,3.32-.1,3.26-.12ZM783.79,41l-7.24,4.14.48.6,6.76-3.88,6.76,3.88.48-.6Z"/><path class="cls-3" d="M805.17,334.34l3.91,0,4.11-.08,4.08-.11,3.82-.14,0-.78-3.85.15q-2,.07-4.1.11l-4.13.07-3.94,0Zm13.9,5.16-2,.12q-1.17.06-2.41.09l-2.42,0q-1.18,0-2,0v.78q.82,0,2,0l2.43,0,2.42-.08q1.17,0,2-.11Zm-.2-9.84-1.94.12q-1.14.06-2.34.09l-2.35,0q-1.15,0-2,0v.78q.82,0,2,0l2.36,0,2.35-.08q1.14,0,1.94-.11Zm-8.62,1H811v-4.84h-.74Zm0,9.84H811v-4.34h-.74Zm5.08-25.22a30.61,30.61,0,0,1-3.54.88,28.66,28.66,0,0,1-3.86.44l0,.74a28.19,28.19,0,0,0,4-.46q1.87-.36,3.65-.88Zm-7.44,2,.74-.2v-8h-.74Zm13.6-4.34h-3.32l-.38.36.38.42,3.32,0Zm-4.06,8.92h.74V305.24h-.74Zm-8.54-28.1q1.2,0,2.46,0l2.34-.11v-.78q-1.08.08-2.34.12t-2.46,0Zm6.78,2.2a16.28,16.28,0,0,1-1.83.61q-1,.27-2,.45t-2.13.26q-1.07.08-2.09.06l0,.74q1,0,2.13-.07t2.21-.28q1.1-.19,2.14-.46a17.59,17.59,0,0,0,1.92-.61Zm-8.14,2.1.74-.2v-8.4h-.74Zm6.22-9.36-1.48.08-1.63.07-1.64,0h-1.47v.76H809l1.63,0,1.64-.06,1.49-.07Zm7.74,4.26h-3.32l-.38.35.38.41,3.32,0Zm-4.06,8.9h.74V285.24h-.74Zm-2.1-26.62a30.62,30.62,0,0,1-3.54.88,28.66,28.66,0,0,1-3.86.44l0,.74a28.19,28.19,0,0,0,4-.46q1.87-.36,3.65-.88Zm-7.44,2,.74-.2v-8h-.74Zm13.6-4.34h-3.32l-.38.36.38.42,3.32,0Zm-4.06,8.92h.74V265.24h-.74Zm-10.62-30.42a9.36,9.36,0,0,0,1.92-1.81,12.18,12.18,0,0,0,1.41-2.23,12.94,12.94,0,0,0,.93-2.55,18.8,18.8,0,0,0,.48-2.79l-.76-.1a19.2,19.2,0,0,1-.45,2.71,11.85,11.85,0,0,1-.85,2.38,10.41,10.41,0,0,1-1.32,2.06,9.83,9.83,0,0,1-1.86,1.73Zm7.74-.3-2.9-4.06-.64.5q.68.9,1.42,1.95t1.44,2.11Zm3-5.54h-3.92v.78h3.92Zm-.12,10.26h.74V239.24h-.74Zm-10.91-27.33a3.36,3.36,0,0,0,.63,1.11,2.75,2.75,0,0,0,1,.71,3.07,3.07,0,0,0,2.43,0,2.75,2.75,0,0,0,1-.71,3.38,3.38,0,0,0,.63-1.11,4.54,4.54,0,0,0,0-2.86,3.4,3.4,0,0,0-.63-1.11,2.77,2.77,0,0,0-1-.71,3.07,3.07,0,0,0-2.43,0,2.77,2.77,0,0,0-1,.71,3.38,3.38,0,0,0-.63,1.11,4.54,4.54,0,0,0,0,2.86m1.15-3.46a2.2,2.2,0,0,1,3.31,0,3.55,3.55,0,0,1,0,4.06,2.2,2.2,0,0,1-3.31,0,3.55,3.55,0,0,1,0-4.06m7.4,1.53h-2.32v.78h2.32Zm-.5,7.26h.74V220.44h-.74Zm2.88,2h.74V219.24h-.74Zm-3.1-31.16h3.52V204h-3.52Zm3.82,9.76h-7.5v.78h7.5Zm-4.74-7.74h-6v.78h6Zm-.32-3.48-2.83.13q-1.39,0-2.83,0v.76q1.42,0,2.82,0l2.84-.11Zm.32-2.72h-.74v6.64h.74Zm-6,6.66h.74v-6.38h-.74Zm10,.7h.74v-8.68h-.74Zm.74,3.18-1.72.07-2,.06-2,0h-1.72v.78h1.7l2,0,2-.05,1.72-.06Zm0-2.18h-.74v6h.74Zm-7.5,6.12.74,0v-6h-.74Zm1.14-21.35a2.62,2.62,0,0,0,.72.9,3.51,3.51,0,0,0,1.07.58,4.32,4.32,0,0,0,2.66,0,3.51,3.51,0,0,0,1.07-.58,2.66,2.66,0,0,0,0-4.14,3.53,3.53,0,0,0-1.07-.58,4.32,4.32,0,0,0-2.66,0,3.53,3.53,0,0,0-1.07.58,2.7,2.7,0,0,0-.72,3.24M813,191a3.36,3.36,0,0,1,3.77,0,2,2,0,0,1,0,3.12,3.36,3.36,0,0,1-3.77,0,2,2,0,0,1,0-3.12m.6-3.78h-6V188h6Zm-.32-3.72-2.8.13q-1.36,0-2.8,0v.76q1.42,0,2.79-.05l2.81-.11Zm.32-2.74h-.74v6.9h.74Zm-6,6.92h.74V181h-.74Zm9.78.88h.74v-9.28h-.74Zm4.06-3.94h-3.32l-.38.36.38.42,3.32,0Zm-7-23.5h3.34v-.78h-3.34Zm.24,3.56-1.66.23-1.78.2-1.78.16q-.88.07-1.68.09v-4h-.74v4.82q.82,0,1.82-.09l2-.15q1-.09,2-.2l1.83-.23Zm2.66,5.26h.74V153.24h-.74Zm-3.88-9.26q-1.58.14-3.24.18l-3.18.06v.78l3.18-.07q1.68-.05,3.24-.15Zm-.74.4h.74V156.9h-.74Zm.74-4.48q-1.66.09-3.34.13l-3.24.06.06.78,3.22-.06q1.66,0,3.3-.12ZM807,142.4a3.77,3.77,0,0,0,.73,1.18,3.39,3.39,0,0,0,1.09.79,3.27,3.27,0,0,0,2.69,0,3.39,3.39,0,0,0,1.09-.79,3.81,3.81,0,0,0,.73-1.18,4.1,4.1,0,0,0,0-2.92,3.82,3.82,0,0,0-.73-1.18,3.4,3.4,0,0,0-1.09-.79,3.28,3.28,0,0,0-2.69,0,3.4,3.4,0,0,0-1.09.79,3.78,3.78,0,0,0-.73,1.18,4.1,4.1,0,0,0,0,2.92m.67-2.65a2.85,2.85,0,0,1,.56-1,2.64,2.64,0,0,1,.85-.63,2.49,2.49,0,0,1,1.07-.23,2.45,2.45,0,0,1,1.05.23,2.65,2.65,0,0,1,.85.63,3,3,0,0,1,.57,1,3.46,3.46,0,0,1,0,2.38,3,3,0,0,1-.57,1,2.66,2.66,0,0,1-.85.63,2.46,2.46,0,0,1-1.05.23,2.51,2.51,0,0,1-1.07-.23,2.65,2.65,0,0,1-.85-.63,2.84,2.84,0,0,1-.56-1,3.62,3.62,0,0,1,0-2.38m10.22-1.45h-3.5v.78h3.5Zm0,4.56h-3.5v.78h3.5Zm-.44,7h.74V133.24h-.74Zm-12.26-33.56,3.91,0,4.11-.08,4.08-.11,3.82-.14,0-.78-3.85.15q-2,.07-4.1.11l-4.13.07-3.94,0Zm13.9,5.16-2,.12q-1.17.06-2.41.09l-2.42,0q-1.18,0-2,0v.78q.82,0,2,0l2.43,0,2.42-.08q1.17-.05,2-.11Zm-.2-9.84-1.94.12q-1.14.06-2.34.09l-2.35,0q-1.15,0-2,0v.78q.82,0,2,0l2.36,0,2.35-.08q1.14,0,1.94-.11Zm-8.62,1H811v-4.84h-.74Zm0,9.84H811v-4.34h-.74Zm-4.64-22.6,3.85,0,4-.07q2,0,3.93-.11l3.77-.15,0,.78-3.74.14-3.9.11-3.93.08-3.83,0Zm14.22-5-3.14-2.62-.5.62.75.62.83.7.82.7.72.62Zm-11.2.7a12,12,0,0,0,2.71-3,13.39,13.39,0,0,0,1.67-4l-.72-.18a11.13,11.13,0,0,1-1.54,3.75A11.55,11.55,0,0,1,808.11,95Zm5.28-2.78-1.3-1.1-.5.6,1.3,1.1ZM813,96a13,13,0,0,0,2.6-3.26,16.28,16.28,0,0,0,1.58-4.1l-.72-.18A14.19,14.19,0,0,1,815,92.35a11.94,11.94,0,0,1-2.53,3.11Zm-7.82-26.08,3.91,0,4.11-.08,4.08-.11,3.82-.14,0-.78-3.85.15q-2,.07-4.1.11l-4.13.07-3.94,0Zm13.5-3.62-1.88.12q-1.08.06-2.23.09l-2.24,0q-1.09,0-1.93,0v.78q.82,0,1.91,0l2.24,0,2.24-.08,1.89-.11Zm-8.28.6h.74V64.4h-.74Zm7.84-3.1q-.8.06-1.84.09l-2.12.06-2.1,0-1.78,0v.78l1.76,0,2.1-.05,2.12-.07,1.86-.08Zm-.74.38h.74v-2.5h-.74Zm.74-2.84-1.9.07-2.2.07-2.17.05-1.83,0,.06.78,1.82,0,2.15,0,2.18-.07,1.89-.08Zm1,15-2,.12q-1.17.06-2.41.09l-2.42,0q-1.18,0-2,0v.78q.82,0,2,0l2.43,0,2.42-.08q1.17,0,2-.11Zm-8.82.6h.74V74.4h-.74Zm7.72-3.1q-.8.06-1.82.09l-2.08.06-2.06,0-1.76,0v.78l1.74,0,2.06-.05,2.08-.07,1.84-.08Zm-.74.38h.74v-2.5h-.74Zm.74-2.84-1.88.07-2.16.07-2.13.05-1.81,0,.06.78,1.8,0,2.11,0,2.14-.07,1.87-.08ZM811.1,45.83a3,3,0,0,0,.79,1,3.69,3.69,0,0,0,1.18.64,4.6,4.6,0,0,0,2.88,0,3.69,3.69,0,0,0,1.18-.64,3,3,0,0,0,.79-1,3,3,0,0,0,0-2.57,3,3,0,0,0-.79-1,3.72,3.72,0,0,0-1.18-.64,4.6,4.6,0,0,0-2.88,0,3.72,3.72,0,0,0-1.18.64,3,3,0,0,0-.79,1,3,3,0,0,0,0,2.57m.68-2.26a2.21,2.21,0,0,1,.64-.75,3.11,3.11,0,0,1,.95-.48,4,4,0,0,1,2.31,0,3,3,0,0,1,.94.48,2.4,2.4,0,0,1,.64.75,2.11,2.11,0,0,1,0,2,2.4,2.4,0,0,1-.64.75,3,3,0,0,1-.94.48,4,4,0,0,1-2.31,0,3.09,3.09,0,0,1-.95-.48,2.21,2.21,0,0,1-.64-.75,2.19,2.19,0,0,1,0-2m5.65,13.73h.74V50h-.74ZM812,51.74a13.92,13.92,0,0,1-1.16,2.6,15.48,15.48,0,0,1-1.72,2.44l.68.42a19.37,19.37,0,0,0,1.71-2.54A15.24,15.24,0,0,0,812.73,52Zm6.16-2q-1.6.09-3.27.14l-3.34.1-3.31.06-3.16,0,.08.78,3.14,0,3.28-.06,3.32-.1,3.26-.12Z"/><path class="cls-3" d="M846.93,369.56a2,2,0,0,0,1.09,1.1,2.06,2.06,0,0,0,1.59,0,2,2,0,0,0,.66-.44,2.08,2.08,0,0,0,0-2.92,2,2,0,0,0-.66-.44,2.06,2.06,0,0,0-1.59,0,2.07,2.07,0,0,0-1.09,2.7m2.84.14a1.37,1.37,0,0,1-1.89,0,1.35,1.35,0,0,1,0-1.88,1.37,1.37,0,0,1,1.89,0,1.35,1.35,0,0,1,0,1.88m-6.22-20.56q-1.36.1-2.92.15t-2.9,0v.76h1.4l1.49,0,1.5-.05,1.43-.07Zm1.54,6.34a15.91,15.91,0,0,1-3.45.92,22.58,22.58,0,0,1-3.87.24l0,.74a22.39,22.39,0,0,0,4-.28,19.14,19.14,0,0,0,3.6-.92Zm-7.36,1.88.74-.2V349.9h-.74Zm13.76-4.28h-3.32l-.38.36.38.42,3.32,0Zm-4.06,8.82h.74V345.24h-.74Zm-2.16-26.62a30.25,30.25,0,0,1-3.56.88,29.23,29.23,0,0,1-3.88.44l0,.74a28.7,28.7,0,0,0,4-.46q1.89-.36,3.67-.88Zm-7.48,2,.74-.2v-8h-.74Zm9.64,4.58h.74V325.24h-.74Zm.74-21.56h-7.5v.78h7.5Zm-3.64-9.08a15.8,15.8,0,0,1-1.54.36q-.86.16-1.76.28t-1.78.19q-.88.07-1.6.07v.72q.74,0,1.64-.07t1.83-.19q.93-.12,1.82-.28t1.59-.34Zm-6.68,1.28h.74V307.1h-.74Zm9.58.74h.74v-8h-.74Zm.74,3.36-1.72.07-2,.06-2,0h-1.72v.76h1.7l2,0,2-.05,1.72-.06Zm0-2.38h-.74v6.44h.74Zm-7.5,6.58h.74V314.4h-.74Zm10.82-28.06h-3.32l-.38.36.38.42,3.32,0Zm-9.68,3.55a3.27,3.27,0,0,0,1.08-.79,3.63,3.63,0,0,0,.7-1.17,4.23,4.23,0,0,0,0-2.86,3.63,3.63,0,0,0-.7-1.17,3.27,3.27,0,0,0-1.08-.79,3.55,3.55,0,0,0-2.81,0,3.27,3.27,0,0,0-1.08.79,3.62,3.62,0,0,0-.7,1.17,4.23,4.23,0,0,0,0,2.86,3.62,3.62,0,0,0,.7,1.17,3.27,3.27,0,0,0,1.08.79,3.55,3.55,0,0,0,2.81,0m-.28-6.12a2.4,2.4,0,0,1,.84.63,2.93,2.93,0,0,1,.53.94,3.62,3.62,0,0,1,0,2.32,2.93,2.93,0,0,1-.53.94,2.4,2.4,0,0,1-.84.63,2.86,2.86,0,0,1-2.25,0,2.4,2.4,0,0,1-.84-.63,2.93,2.93,0,0,1-.53-.94,3.62,3.62,0,0,1,0-2.32,2.93,2.93,0,0,1,.53-.94,2.4,2.4,0,0,1,.84-.63,2.86,2.86,0,0,1,2.25,0m5.91,11.69h.74V285.24h-.74Zm-5.67-31.57a3.36,3.36,0,0,0,1.1-.79,3.54,3.54,0,0,0,.71-1.17,4.23,4.23,0,0,0,0-2.86,3.54,3.54,0,0,0-.71-1.17,3.43,3.43,0,0,0-5,0,3.52,3.52,0,0,0-.71,1.17,4.23,4.23,0,0,0,0,2.86,3.52,3.52,0,0,0,.71,1.17,3.35,3.35,0,0,0,1.1.79,3.6,3.6,0,0,0,2.83,0m-.29-6.12a2.61,2.61,0,0,1,.86.63,2.75,2.75,0,0,1,.55.94,3.62,3.62,0,0,1,0,2.32,2.75,2.75,0,0,1-.55.94,2.61,2.61,0,0,1-.86.63,2.86,2.86,0,0,1-2.25,0,2.61,2.61,0,0,1-.86-.63,2.75,2.75,0,0,1-.55-.94,3.62,3.62,0,0,1,0-2.32,2.75,2.75,0,0,1,.55-.94,2.61,2.61,0,0,1,.86-.63,2.86,2.86,0,0,1,2.25,0m6,11.69h.74V259.24h-.74Zm-4.08-35.76q-1.1-.2-2-.42t-2-.56l-.16.84q1.06.3,2,.51l2,.41Zm1.56,1.36-1.77.08-2.17.07-2.17,0-1.77,0,.06.78,1.74,0,2.15,0,2.16-.07,1.77-.08Zm-5.71,5.34a3.87,3.87,0,0,0,4.14,0,1.84,1.84,0,0,0,.73-1.48,1.87,1.87,0,0,0-.73-1.49,3.82,3.82,0,0,0-4.14,0,1.87,1.87,0,0,0-.73,1.49,1.84,1.84,0,0,0,.73,1.48m.52-2.46a3.22,3.22,0,0,1,3.1,0,1.18,1.18,0,0,1,0,1.95,3.22,3.22,0,0,1-3.1,0,1.18,1.18,0,0,1,0-1.95m1.15,5.26h.74v-2.4h-.74Zm5.24-.94q-1,.16-2.33.3t-2.79.24q-1.44.1-2.84.15t-2.44.05l.06.78q1.06,0,2.45-.07L841,250q1.43-.1,2.78-.23t2.33-.28Zm1.32,1.72h.74V239.24h-.74Zm.74,1.18-1.94.07-2.29.06-2.27.06-1.88,0,.06.78,1.87,0,2.25-.05,2.27-.07,1.93-.08Zm-.74,3.88h.74v-3.36h-.74Zm-12.26-31.9,3.91,0,4.11-.08,4.08-.11q2-.06,3.82-.14l0-.78-3.85.15q-2,.07-4.1.11l-4.13.07-3.94,0Zm13.9,4-2,.12q-1.17.06-2.41.09l-2.42,0q-1.18,0-2,0v.78q.82,0,2,0l2.43,0,2.42-.08q1.17,0,2-.11Zm-8.82,1H841v-3.7h-.74Zm8.42-9-1.88.12q-1.08.06-2.23.09l-2.24,0q-1.09,0-1.93,0v.78q.82,0,1.91,0l2.24,0,2.24-.08,1.89-.11Zm-8.28.6h.74v-2.82h-.74Zm7.84-3.42q-.8.06-1.84.09l-2.12.06-2.1,0-1.78,0v.78l1.76,0,2.1,0,2.12-.07,1.86-.08Zm-.74.38h.74v-2.82h-.74Zm.74-3.16-1.9.07-2.2.06-2.17.06-1.83,0,.06.78,1.82,0,2.15,0,2.18-.07,1.89-.08Zm3.26-13.22h-3.32l-.38.36.38.42,3.32,0Zm-6-3.82-.94.05-.77,0H842l.06.78h1.73l.77,0,.94,0Zm.72,7.08a18.39,18.39,0,0,1-2.08.42,15.05,15.05,0,0,1-2.1.14l0,.74a18.06,18.06,0,0,0,4.44-.54ZM842,205.32l.74-.2v-7.68L842,197Zm-1-1.52a6.81,6.81,0,0,1-1.77.69,9.57,9.57,0,0,1-1.91.21l0,.72a11.08,11.08,0,0,0,2.08-.22,8.2,8.2,0,0,0,2-.72Zm-3.72,1.62.74-.2v-7.78l-.74-.4Zm3.4-8.46-.92.05-.74,0h-1.74l.06.78H839l.73,0,.92,0Zm6.74,12.94h.74V193.24h-.74Zm-12.26-34.8,3.91,0,4.11-.08,4.08-.11q2-.06,3.82-.14l0-.78-3.85.15q-2,.07-4.1.11l-4.13.07-3.94,0Zm14.1,7-2,.12q-1.17.06-2.41.09l-2.42,0q-1.18,0-2,0v.78q.82,0,2,0l2.43,0,2.42-.08q1.17,0,2-.11Zm-8.82.6h.74V180h-.74Zm7.72-3.32q-.8.06-1.82.09l-2.08.06-2.06,0-1.76,0v.78l1.74,0,2.06-.05,2.08-.07,1.84-.08Zm-.74.38h.74V177h-.74Zm.74-3.06-1.88.07-2.16.06-2.13.05-1.81,0,.06.78,1.8,0,2.11,0,2.14-.07,1.87-.08Zm-.36-7.93a2.71,2.71,0,0,0-.77-.86,3.6,3.6,0,0,0-1.15-.55,5.37,5.37,0,0,0-2.84,0,3.6,3.6,0,0,0-1.15.55,2.71,2.71,0,0,0-.77.86,2.4,2.4,0,0,0,0,2.25,2.71,2.71,0,0,0,.77.86,3.6,3.6,0,0,0,1.15.55,5.4,5.4,0,0,0,2.84,0,3.6,3.6,0,0,0,1.15-.55,2.71,2.71,0,0,0,.77-.86,2.4,2.4,0,0,0,0-2.25m-6,.28a1.94,1.94,0,0,1,.61-.63,3,3,0,0,1,.92-.4,4.76,4.76,0,0,1,2.29,0,3,3,0,0,1,.92.4,2,2,0,0,1,.61.63,1.74,1.74,0,0,1,0,1.69,2,2,0,0,1-.61.63,3,3,0,0,1-.92.4,4.79,4.79,0,0,1-2.29,0,3,3,0,0,1-.92-.4,1.94,1.94,0,0,1-.61-.63,1.74,1.74,0,0,1,0-1.69m-6.72-13.49,3.94,0,4.13-.07q2.07,0,4.1-.11l3.85-.15,0,.78q-1.8.08-3.82.14l-4.08.11-4.11.08-3.91,0Zm14.12-3-4-2.26-.36.66,1.94,1.12q1,.56,2,1.2Zm-9.66,1a8.28,8.28,0,0,0,3.64-2.12,8.59,8.59,0,0,0,2-3.72l-.7-.24a11.68,11.68,0,0,1-.78,2,6.08,6.08,0,0,1-1.07,1.49,6.48,6.48,0,0,1-1.47,1.11,10.55,10.55,0,0,1-2,.83Zm4.78,2.18h.74v4.1h-.74Zm4.74,6.88q-.8.06-2,.11l-2.42.08-2.43,0q-1.18,0-2,0V162q.84,0,2,0l2.42,0q1.24,0,2.41-.09l2-.12Zm-8.82-3.84H841v4h-.74ZM843,134.32l.24-3.7-.78,0-.2,3.68Zm-3.66.36L839,130.9l-.8.06.34,3.78Zm6.12-1.2q-2.24.38-4.48.62t-4.76.38l.14.78q2.46-.16,4.7-.42t4.54-.62Zm-1.06-4.62q-.7.06-1.7.11l-2.06.09-2,.06-1.69,0,.06.78,1.66,0,2-.06,2-.09,1.71-.09Zm4.88,13.08-2,.12q-1.15.06-2.38.09l-2.39,0q-1.16,0-2,0v.78q.82,0,2,0l2.39,0,2.39-.08q1.16,0,2-.11Zm-8.72.6h.74v-2.6h-.74Zm7.62-3.2q-.8.06-1.81.09l-2,.06-2,0-1.74,0v.78l1.73,0,2-.05,2-.07,1.83-.08Zm-.74.38h.74V137h-.74Zm.74-3.06-1.86.07-2.12.06-2.1.05-1.8,0,.06.78,1.79,0,2.08-.05,2.1-.07,1.85-.08Zm-.74-.68h.74v-8.74h-.74Zm-9.84-28.18a3.19,3.19,0,0,0,.71,1,3.52,3.52,0,0,0,1,.69,3.16,3.16,0,0,0,2.51,0,3.52,3.52,0,0,0,1-.69,3.19,3.19,0,0,0,.71-1,3.1,3.1,0,0,0,0-2.48,3.19,3.19,0,0,0-.71-1,3.52,3.52,0,0,0-1-.69,3.16,3.16,0,0,0-2.51,0,3.52,3.52,0,0,0-1,.69,3.19,3.19,0,0,0-.71,1,3.1,3.1,0,0,0,0,2.48m.68-2.19a2.57,2.57,0,0,1,1.34-1.33,2.52,2.52,0,0,1,2,0,2.57,2.57,0,0,1,.8.54,2.61,2.61,0,0,1,.54.79,2.35,2.35,0,0,1,0,1.9,2.61,2.61,0,0,1-.54.79,2.57,2.57,0,0,1-.8.54,2.52,2.52,0,0,1-2,0,2.57,2.57,0,0,1-1.34-1.33,2.35,2.35,0,0,1,0-1.9m11,9.93-2,.12q-1.15.06-2.38.09l-2.39,0q-1.16,0-2,0v.78q.82,0,2,0l2.39,0,2.39-.08q1.16-.05,2-.11Zm-8.72.8h.74V112.1h-.74Zm6.88-3.24h.74V101.24h-.74Zm-10.22-22a11,11,0,0,0,3-3,10.39,10.39,0,0,0,1.52-4l-.82-.06a11.73,11.73,0,0,1-.54,2.08,7.68,7.68,0,0,1-.86,1.68,8.7,8.7,0,0,1-1.22,1.42,15.08,15.08,0,0,1-1.6,1.3Zm10.34-4.66H844v.78h3.56Zm-2.84,3.92-3.1-3-.54.6q.76.7,1.47,1.43T844.09,91Zm-.3-6.9-1.62.08-1.93.08-1.92.05-1.61,0,.06.78,1.58,0,1.9-.06,1.92-.08,1.62-.08Zm3,7.88h.74V81.24h-.74Zm.74,1.28-2,.07-2.35.06-2.32.05-1.9,0,.06.78,1.89,0,2.3,0,2.33-.07,2-.08Zm-.74,5h.74V93.16h-.74Zm.32-29.88h-2.92v.78h2.92Zm0-3.4h-2.92v.78h2.92ZM842.89,70l.24-4.82-.78,0-.2,4.8Zm-3.6.36-.42-4.88-.8.06.5,4.88Zm5-7.3q-.7.06-1.7.11l-2,.09-2,.06-1.69,0,.06.78,1.66,0,2-.06,2-.09,1.71-.09Zm.76,6.5q-2.14.22-4.3.34t-4.62.18l.12.78,2.32-.1,2.2-.12,2.16-.14,2.2-.18Zm2.42,3.56h.74V61.24h-.74Zm1.84,2.44-1.93.12q-1.13.06-2.34.09l-2.35,0q-1.14,0-2,0v.78q.82,0,2,0l2.35,0,2.35-.08,1.94-.11Zm-8.6.8h.74V72.62h-.74Zm-5-21.42,3.83,0,3.93-.08,3.9-.11,3.74-.14,0-.78-3.77.15q-1.95.07-3.93.11l-4,.07-3.85,0Zm12.42-5.36h-7.42v.78h7.42Zm0-3.92-1.7.07-2,.06-2,0h-1.7v.76h1.68l2,0,2-.05,1.71-.06Zm0-2.86h-.74v7h.74Zm-7.42,7.28h.74V43.12h-.74Zm3.44,4.18h.74v-3.1h-.74Z"/><path class="cls-3" d="M870.57,375.67a2.57,2.57,0,0,0,.82-.56,2.52,2.52,0,0,0,.53-.82,2.67,2.67,0,0,0,0-2,2.52,2.52,0,0,0-.53-.82,2.57,2.57,0,0,0-.82-.56,2.78,2.78,0,0,0-2.12,0,2.57,2.57,0,0,0-.82.56,2.52,2.52,0,0,0-.53.82,2.67,2.67,0,0,0,0,2,2.52,2.52,0,0,0,.53.82,2.57,2.57,0,0,0,.82.56,2.78,2.78,0,0,0,2.12,0m.31-3.67a2,2,0,0,1,0,2.6,2,2,0,0,1-2.74,0,2,2,0,0,1,0-2.6,2,2,0,0,1,2.74,0m.25-5.06q-.8-.28-1.57-.59t-1.57-.67l-.28.82q.76.34,1.56.63l1.58.57Zm1.42,1.76-1.49.06-1.75,0-1.76,0h-1.48l.06.76h1.46l1.73,0,1.74,0,1.49,0Zm5.08,1.94h-3v.76h3Zm-3.52,7.26h.74V364.44h-.74Zm3.34,2h.74V363.24h-.74Zm-9.8-29.46.74-.2v-4.76h-.74Zm5.86-5.08q-1.38.08-2.92.1l-2.94,0,.06.76,2.89,0q1.51,0,2.91-.08Zm-.74,5.2h.74v-4.68h-.74Zm.74-.42h-5.86v.78h5.86Zm8-2.16h-3.32l-.38.36.38.42,3.32,0Zm-2.22,10-2,.12q-1.15.06-2.38.09l-2.39,0q-1.16,0-2,0v.78q.82,0,2,0l2.39,0,2.39-.08q1.16,0,2-.11Zm-8.72.6h.74v-2.66h-.74Zm7.62-3.26-1.81.09-2,.06-2,0-1.74,0v.78l1.73,0,2-.05,2-.07,1.83-.08Zm-.74.38h.74v-2.78h-.74Zm.74-3.12-1.86.07-2.12.06-2.1.06-1.8,0,.06.78,1.79,0,2.08,0,2.1-.07,1.85-.08Zm-.74-.68h.74v-8.62h-.74ZM872,330.21a2.9,2.9,0,0,0,.94-.65,2.75,2.75,0,0,0,.58-.92,2.91,2.91,0,0,0,0-2.12,2.77,2.77,0,0,0-.58-.92,2.93,2.93,0,0,0-.94-.65,3.4,3.4,0,0,0-2.56,0,2.94,2.94,0,0,0-.94.65,2.77,2.77,0,0,0-.58.92,2.91,2.91,0,0,0,0,2.12,2.75,2.75,0,0,0,.58.92,2.9,2.9,0,0,0,.94.65,3.4,3.4,0,0,0,2.56,0m-2.28-.66a2.08,2.08,0,0,1-1.12-1.19,2.24,2.24,0,0,1-.14-.78,2.28,2.28,0,0,1,.14-.77,2.08,2.08,0,0,1,.42-.7,2.11,2.11,0,0,1,.7-.5,2.7,2.7,0,0,1,2,0,2,2,0,0,1,1.13,1.2,2.28,2.28,0,0,1,.14.77,2.24,2.24,0,0,1-.14.78,2.09,2.09,0,0,1-.42.69,2.05,2.05,0,0,1-.71.5,2.7,2.7,0,0,1-2,0m4.88-7.27q-.46,0-1.12.06l-1.42.05-1.58,0-1.58,0-1.43,0h-1.11l.06.78,1.76,0,2.3-.05,2.32-.07,1.8-.08Zm-1.68-2.22q-1.08-.34-2.08-.73t-2.06-.85l-.28.82q1,.44,2.06.81l2.06.71Zm4.48,13.84h.74V317.24h-.74Zm-9.86-29.46.74-.2v-4.76h-.74Zm5.9-5.08q-1.38.08-2.94.1l-3,0,.06.76,2.91,0q1.53,0,2.93-.08Zm-.74,5.2h.74v-4.68h-.74Zm.74-.42h-5.9v.78h5.9Zm5.8,7.8-2,.12q-1.15.06-2.38.09l-2.39,0q-1.16,0-2,0v.78q.82,0,2,0l2.39,0,2.39-.08q1.16,0,2-.11Zm-8.72.6h.74v-2.66h-.74Zm7.62-3.26q-.8.06-1.81.09l-2,.06-2,0-1.74,0v.78l1.73,0,2-.05,2-.07,1.83-.08Zm-.74.38h.74v-2.78h-.74Zm.74-3.12-1.86.07-2.12.06-2.1.05-1.8,0,.06.78,1.79,0,2.08-.05,2.1-.07,1.85-.08Zm-.74-.68h.74v-8.62h-.74Zm.52-24h-3.16v.78h3.16Zm-10.37,1.58a3.06,3.06,0,0,0,.69,1,3.37,3.37,0,0,0,1,.67,3.23,3.23,0,0,0,2.49,0,3.38,3.38,0,0,0,1-.67,3.09,3.09,0,0,0,.69-1,3,3,0,0,0,0-2.4,3.1,3.1,0,0,0-.69-1,3.4,3.4,0,0,0-1-.67,3.23,3.23,0,0,0-2.49,0,3.39,3.39,0,0,0-1,.67,3.07,3.07,0,0,0-.69,1,3,3,0,0,0,0,2.4m.68-2.12a2.34,2.34,0,0,1,.52-.76,2.54,2.54,0,0,1,.78-.51,2.59,2.59,0,0,1,1.95,0,2.54,2.54,0,0,1,.78.51,2.34,2.34,0,0,1,.52.76,2.31,2.31,0,0,1,0,1.84,2.32,2.32,0,0,1-.52.76,2.55,2.55,0,0,1-3.51,0,2.32,2.32,0,0,1-.52-.76,2.31,2.31,0,0,1,0-1.84m2.31,11.25.74-.2V288h-.74Zm7.6-4.73-1.73.07-2.07,0-2.06,0h-1.74l.06.76h1.71l2,0,2,0q1,0,1.74-.06Zm-.74,4.86h.74v-4.34h-.74Zm.74-.42h-7.6V293h7.6Zm-.74-5.94h.74v-9.08h-.74Zm-12.26-25.8,3.91,0,4.11-.08,4.08-.11q2-.06,3.82-.14l0-.78-3.85.15q-2,.07-4.1.11l-4.13.07-3.94,0Zm10.69-3.18a3.3,3.3,0,0,0,1.12-.58,2.84,2.84,0,0,0,.74-3.38,2.71,2.71,0,0,0-.74-.93,3.3,3.3,0,0,0-1.12-.58,5,5,0,0,0-2.79,0,3.31,3.31,0,0,0-1.11.58,2.85,2.85,0,0,0-.74,3.39,2.74,2.74,0,0,0,.74.92,3.31,3.31,0,0,0,1.11.58,5,5,0,0,0,2.79,0m-3.39-1.08a2.1,2.1,0,0,1,0-3.29,3.81,3.81,0,0,1,4,0,2.1,2.1,0,0,1,0,3.29,3.81,3.81,0,0,1-4,0m6.6,9.2-2,.12q-1.17.06-2.41.09l-2.42,0q-1.18,0-2,0v.78q.82,0,2,0l2.43,0,2.42-.08q1.17,0,2-.11Zm-8.82,1H871v-4.34h-.74ZM881,245.66l-.48-.6-6.76,3.88L867,245.06l-.48.6,7.24,4.14Zm-1.22-4.86-4.44-2.86-.42.66q1,.62,2.15,1.39l2.19,1.49Zm-10.4.62a7.25,7.25,0,0,0,3.67-2,8.24,8.24,0,0,0,2-3.75l-.72-.18a7.53,7.53,0,0,1-1.85,3.46,7.23,7.23,0,0,1-3.45,1.78Zm8-5h.74V232.1h-.74Zm-5.62-3.2a6.92,6.92,0,0,1-.63,1.79A7.31,7.31,0,0,1,870,236.7l.66.4a8.57,8.57,0,0,0,1.22-1.75,7.25,7.25,0,0,0,.7-1.93Zm6.36-1.48q-1.6.09-3.27.14l-3.34.1-3.31.06-3.16,0,.08.78,3.14,0,3.28-.06,3.32-.1,3.26-.12Zm-.17-5.13a2.69,2.69,0,0,0-.79-.88,3.72,3.72,0,0,0-1.17-.55,5.48,5.48,0,0,0-2.86,0,3.72,3.72,0,0,0-1.17.55,2.69,2.69,0,0,0-.79.88,2.56,2.56,0,0,0,0,2.37,2.7,2.7,0,0,0,.79.88,3.7,3.7,0,0,0,1.17.55,5.45,5.45,0,0,0,2.86,0,3.7,3.7,0,0,0,1.17-.55A2.7,2.7,0,0,0,878,229a2.56,2.56,0,0,0,0-2.37m-6.1.3a1.86,1.86,0,0,1,.63-.64,3.16,3.16,0,0,1,.94-.38,5.24,5.24,0,0,1,2.31,0,3.16,3.16,0,0,1,.94.38,1.86,1.86,0,0,1,.63.64,1.72,1.72,0,0,1,.23.89,1.7,1.7,0,0,1-.23.9,1.87,1.87,0,0,1-.63.63,3.14,3.14,0,0,1-.94.38,5.2,5.2,0,0,1-2.31,0,3.14,3.14,0,0,1-.94-.38,1.87,1.87,0,0,1-.63-.63,1.69,1.69,0,0,1-.23-.9,1.71,1.71,0,0,1,.23-.89m1.89-7.94-7.24,4.14.48.6,6.76-3.88,6.76,3.88.48-.6Zm-.72-24.3q-1.1-.2-2-.42t-2-.56l-.16.84q1.06.3,2,.51l2,.41Zm-4.71,7.41a2.3,2.3,0,0,0,.56.82,2.8,2.8,0,0,0,.89.56,3.42,3.42,0,0,0,2.36,0,2.8,2.8,0,0,0,.89-.56,2.3,2.3,0,0,0,.56-.82,2.67,2.67,0,0,0,0-2,2.31,2.31,0,0,0-.56-.82,2.82,2.82,0,0,0-.89-.56,3.42,3.42,0,0,0-2.36,0,2.82,2.82,0,0,0-.89.56,2.31,2.31,0,0,0-.56.82,2.67,2.67,0,0,0,0,2m4.18.31a2.43,2.43,0,0,1-3.1,0,1.86,1.86,0,0,1,0-2.6,2.43,2.43,0,0,1,3.1,0,1.86,1.86,0,0,1,0,2.6m2-6-1.75.08-2.14.07-2.14,0-1.75,0,.06.78,1.72,0,2.12-.05,2.13-.07,1.75-.08Zm7,2.54h-3.32l-.38.36.38.42,3.32,0Zm-2.22,8.56-2,.12q-1.15.06-2.38.09l-2.39,0q-1.16,0-2,0v.78q.82,0,2,0l2.39,0,2.39-.08q1.16,0,2-.11Zm-8.72.8h.74V205.1h-.74Zm6.88-3.24h.74V193.24h-.74Zm-12.26-22.54,3.91,0,4.11-.08,4.08-.11q2-.06,3.82-.14l0-.78-3.85.15q-2,.07-4.1.11l-4.13.07-3.94,0Zm7.48-.28-.12-2.64-.78,0,.16,2.66Zm3.78-.12h.74v-2.68h-.74Zm-.58-3.47a3.66,3.66,0,0,0,1.09-.61,2.66,2.66,0,0,0,.71-.89,2.46,2.46,0,0,0,.25-1.09,2.48,2.48,0,0,0-.25-1.08,2.66,2.66,0,0,0-.71-.9,3.68,3.68,0,0,0-1.09-.61,4.23,4.23,0,0,0-2.76,0,3.7,3.7,0,0,0-1.08.61,2.66,2.66,0,0,0-.71.9,2.47,2.47,0,0,0-.25,1.08,2.44,2.44,0,0,0,.25,1.09,2.66,2.66,0,0,0,.71.89,3.68,3.68,0,0,0,1.08.61,4.25,4.25,0,0,0,2.76,0m-.28-4.54a2.53,2.53,0,0,1,.85.47,2.31,2.31,0,0,1,.55.68,1.69,1.69,0,0,1,0,1.59,2.3,2.3,0,0,1-.55.68,2.55,2.55,0,0,1-.85.47,3.64,3.64,0,0,1-2.19,0,2.56,2.56,0,0,1-.85-.47,2.3,2.3,0,0,1-.55-.68,1.69,1.69,0,0,1,0-1.59,2.31,2.31,0,0,1,.55-.68,2.54,2.54,0,0,1,.85-.47,3.62,3.62,0,0,1,2.19,0m.27,15a3.3,3.3,0,0,0,1-.58,2.59,2.59,0,0,0,.68-.87,2.43,2.43,0,0,0,0-2.11,2.59,2.59,0,0,0-.68-.87,3.3,3.3,0,0,0-1-.58,4.06,4.06,0,0,0-1.34-.21,4.15,4.15,0,0,0-1.35.21,3.16,3.16,0,0,0-1,.58,2.64,2.64,0,0,0-.67.87,2.43,2.43,0,0,0,0,2.11,2.64,2.64,0,0,0,.67.87,3.16,3.16,0,0,0,1,.58,4.18,4.18,0,0,0,1.35.21,4.09,4.09,0,0,0,1.34-.21m.53-3.92a1.79,1.79,0,0,1,0,2.83,3.35,3.35,0,0,1-3.75,0,1.79,1.79,0,0,1,0-2.83,3.35,3.35,0,0,1,3.75,0m-9.16-22.09a11,11,0,0,0,3-3,10.37,10.37,0,0,0,1.52-4l-.82-.06a11.71,11.71,0,0,1-.54,2.08,7.64,7.64,0,0,1-.86,1.68,8.7,8.7,0,0,1-1.22,1.42,15,15,0,0,1-1.6,1.3Zm10.34-4.66H874v.78h3.56Zm-2.84,3.92-3.1-3-.54.6q.76.7,1.47,1.43t1.55,1.63Zm-.3-6.9-1.62.08-1.93.08-1.92.06-1.61,0,.06.78,1.58,0,1.9-.06,1.92-.08,1.62-.08Zm3,7.88h.74V153.24h-.74Zm.74,1.28-2,.07-2.35.06-2.32.05-1.9,0,.06.78,1.89,0,2.3,0,2.33-.07,2-.08Zm-.74,5h.74v-4.52h-.74Zm-10.62-30.2a9.36,9.36,0,0,0,1.92-1.81,12.18,12.18,0,0,0,1.41-2.23,12.94,12.94,0,0,0,.93-2.55,18.81,18.81,0,0,0,.48-2.79l-.76-.1a19.19,19.19,0,0,1-.45,2.71,11.85,11.85,0,0,1-.85,2.38,10.4,10.4,0,0,1-1.32,2.06,9.83,9.83,0,0,1-1.86,1.73Zm7.74-.3-2.9-4.06-.64.5q.68.9,1.42,2t1.44,2.11Zm3-5.54h-3.92v.78h3.92Zm-.12,10.26h.74V127.24h-.74Zm-10.91-27.33a3.36,3.36,0,0,0,.63,1.11,2.75,2.75,0,0,0,1,.71,3.07,3.07,0,0,0,2.43,0,2.75,2.75,0,0,0,1-.71,3.38,3.38,0,0,0,.63-1.11,4.54,4.54,0,0,0,0-2.86,3.4,3.4,0,0,0-.63-1.11,2.77,2.77,0,0,0-1-.71,3.07,3.07,0,0,0-2.43,0,2.77,2.77,0,0,0-1,.71,3.38,3.38,0,0,0-.63,1.11,4.54,4.54,0,0,0,0,2.86m1.15-3.46a2.2,2.2,0,0,1,3.31,0,3.55,3.55,0,0,1,0,4.06,2.2,2.2,0,0,1-3.31,0,3.55,3.55,0,0,1,0-4.06m7.4,1.53h-2.32v.78h2.32Zm-.5,7.26h.74V108.44h-.74Zm2.88,2h.74V107.24h-.74ZM865.17,96l3.91,0,4.11-.08,4.08-.11q2-.06,3.82-.14l0-.78-3.85.15q-2,.07-4.1.11l-4.13.07-3.94,0Zm9.06,7.32H875V95.24h-.74Zm4-15.4-1.88.08-2.16.06-2.13,0-1.81,0,.06.78,1.64,0,2,0,2,0,1.72-.06Zm-1.2,6a27,27,0,0,0,.75-3,30.27,30.27,0,0,0,.45-3.07l-.8.26q0,.6-.14,1.3t-.25,1.42q-.15.72-.34,1.44t-.41,1.38Zm.88-19.06h-3.36v.76h3.36Zm0-4.22h-3.36v.78h3.36ZM867.53,73.8a3.05,3.05,0,0,0,.67,1,3.33,3.33,0,0,0,1,.69,3.24,3.24,0,0,0,2.54,0,3.3,3.3,0,0,0,1-.69,3.07,3.07,0,0,0,.67-1,3.34,3.34,0,0,0,0-2.48,3.09,3.09,0,0,0-.67-1,3.34,3.34,0,0,0-1-.69,3.24,3.24,0,0,0-2.54,0,3.36,3.36,0,0,0-1,.69,3.08,3.08,0,0,0-.67,1,3.34,3.34,0,0,0,0,2.48m.68-2.19a2.47,2.47,0,0,1,.5-.79,2.39,2.39,0,0,1,.77-.54,2.57,2.57,0,0,1,2,0,2.39,2.39,0,0,1,.77.54,2.55,2.55,0,0,1,0,3.48,2.36,2.36,0,0,1-.77.54,2.57,2.57,0,0,1-2,0,2.36,2.36,0,0,1-.77-.54,2.46,2.46,0,0,1-.5-.79,2.58,2.58,0,0,1,0-1.9m11.06,9.93-2,.12q-1.15.06-2.38.09l-2.39,0q-1.16,0-2,0v.78q.82,0,2,0l2.39,0,2.39-.08q1.16,0,2-.11Zm-8.72.8h.74V78.1h-.74Zm6.88-3.24h.74V67.24h-.74Zm-5.67-26.77a3.36,3.36,0,0,0,1.1-.79,3.54,3.54,0,0,0,.71-1.17,4.23,4.23,0,0,0,0-2.86,3.54,3.54,0,0,0-.71-1.17,3.43,3.43,0,0,0-5,0,3.52,3.52,0,0,0-.71,1.17,4.23,4.23,0,0,0,0,2.86,3.52,3.52,0,0,0,.71,1.17,3.35,3.35,0,0,0,1.1.79,3.6,3.6,0,0,0,2.83,0m-.29-6.12a2.61,2.61,0,0,1,.86.63,2.75,2.75,0,0,1,.55.94,3.62,3.62,0,0,1,0,2.32,2.75,2.75,0,0,1-.55.94,2.61,2.61,0,0,1-.86.63,2.86,2.86,0,0,1-2.25,0,2.61,2.61,0,0,1-.86-.63,2.75,2.75,0,0,1-.55-.94,3.62,3.62,0,0,1,0-2.32,2.75,2.75,0,0,1,.55-.94,2.61,2.61,0,0,1,.86-.63,2.86,2.86,0,0,1,2.25,0m6,11.69h.74V41.24h-.74Z"/><path class="cls-3" d="M936.93,173.6a2,2,0,0,0,1.09,1.1,2.06,2.06,0,0,0,1.59,0,2,2,0,0,0,.66-.44,2.08,2.08,0,0,0,0-2.92,2,2,0,0,0-.66-.44,2.06,2.06,0,0,0-1.59,0,2.07,2.07,0,0,0-1.09,2.7m2.84.14a1.37,1.37,0,0,1-1.89,0,1.35,1.35,0,0,1,0-1.88,1.37,1.37,0,0,1,1.89,0,1.35,1.35,0,0,1,0,1.88m0-8.9L935.37,162l-.42.66q1,.62,2.15,1.39l2.19,1.49Zm-10.4.62a7.24,7.24,0,0,0,3.67-2,8.24,8.24,0,0,0,2-3.75l-.72-.18a7.53,7.53,0,0,1-1.85,3.46,7.23,7.23,0,0,1-3.45,1.78Zm8-5h.74v-4.36h-.74Zm-5.62-3.2a6.92,6.92,0,0,1-.63,1.79,7.31,7.31,0,0,1-1.21,1.65l.66.4a8.57,8.57,0,0,0,1.22-1.75,7.25,7.25,0,0,0,.7-1.93Zm6.36-1.48q-1.6.09-3.27.14l-3.34.1-3.31.06-3.16,0,.08.78,3.14,0,3.28-.06,3.32-.1,3.26-.12Zm-.17-5.13a2.7,2.7,0,0,0-.79-.88,3.7,3.7,0,0,0-1.17-.55,5.45,5.45,0,0,0-2.86,0,3.7,3.7,0,0,0-1.17.55,2.7,2.7,0,0,0-.79.88,2.56,2.56,0,0,0,0,2.37,2.69,2.69,0,0,0,.79.88,3.7,3.7,0,0,0,1.17.55,5.45,5.45,0,0,0,2.86,0,3.7,3.7,0,0,0,1.17-.55,2.69,2.69,0,0,0,.79-.88,2.56,2.56,0,0,0,0-2.37m-6.1.3a1.87,1.87,0,0,1,.63-.64,3.19,3.19,0,0,1,.94-.38,5.24,5.24,0,0,1,2.31,0,3.19,3.19,0,0,1,.94.38,1.87,1.87,0,0,1,.63.64,1.85,1.85,0,0,1,0,1.78,1.88,1.88,0,0,1-.63.63,3.17,3.17,0,0,1-.94.38,5.24,5.24,0,0,1-2.31,0,3.16,3.16,0,0,1-.94-.38,1.88,1.88,0,0,1-.63-.63,1.85,1.85,0,0,1,0-1.78m3.09-18.8h-.56v16H935Zm-3.89-15a3,3,0,0,0,.79,1,3.68,3.68,0,0,0,1.18.64,4.6,4.6,0,0,0,2.88,0,3.68,3.68,0,0,0,1.18-.64,3,3,0,0,0,.79-1,3,3,0,0,0,0-2.57,3,3,0,0,0-.79-1,3.72,3.72,0,0,0-1.18-.64,4.6,4.6,0,0,0-2.88,0,3.72,3.72,0,0,0-1.18.64,3,3,0,0,0-.79,1,3,3,0,0,0,0,2.57m.68-2.26a2.21,2.21,0,0,1,.64-.75,3.11,3.11,0,0,1,.95-.48,4,4,0,0,1,2.31,0,3,3,0,0,1,.94.48,2.4,2.4,0,0,1,.64.75,2.11,2.11,0,0,1,0,2,2.4,2.4,0,0,1-.64.75,3,3,0,0,1-.94.48,4,4,0,0,1-2.31,0,3.09,3.09,0,0,1-.95-.48,2.21,2.21,0,0,1-.64-.75,2.19,2.19,0,0,1,0-2m5.65,13.73h.74v-7.26h-.74ZM932,123.12a13.89,13.89,0,0,1-1.16,2.6,15.47,15.47,0,0,1-1.72,2.44l.68.42a19.37,19.37,0,0,0,1.71-2.54,15.21,15.21,0,0,0,1.21-2.68Zm6.16-2q-1.6.09-3.27.14l-3.34.1-3.31.06-3.16,0,.08.78,3.14,0,3.28-.06,3.32-.1,3.26-.12Zm-.9-21,.87.72q.47.4.93.83l.9.86q.44.43.78.79l.78-.8-.84-.78-1-.84-1-.82q-.49-.4-.93-.72Zm-12.1-13.6,3.91,0,4.11-.08,4.08-.11,3.82-.14,0-.78-3.85.15q-2,.07-4.1.11l-4.13.07-3.94,0Zm6.07-4.58a2.71,2.71,0,0,0,.75.91,3.74,3.74,0,0,0,1.13.6,4.53,4.53,0,0,0,2.79,0,3.74,3.74,0,0,0,1.13-.6,2.72,2.72,0,0,0,.75-.91,2.56,2.56,0,0,0,0-2.29,2.73,2.73,0,0,0-.75-.91,3.74,3.74,0,0,0-1.13-.6,4.55,4.55,0,0,0-2.79,0,3.74,3.74,0,0,0-1.13.6,2.72,2.72,0,0,0-.75.91,2.56,2.56,0,0,0,0,2.29m.69-2a2.13,2.13,0,0,1,.6-.67,3,3,0,0,1,.89-.44,3.9,3.9,0,0,1,2.21,0,3,3,0,0,1,.89.44,2.15,2.15,0,0,1,.6.67,1.86,1.86,0,0,1,0,1.75,2.15,2.15,0,0,1-.6.67,3,3,0,0,1-.89.44,3.88,3.88,0,0,1-2.21,0,3,3,0,0,1-.89-.44,2.13,2.13,0,0,1-.6-.67,1.86,1.86,0,0,1,0-1.75m7.76,13.45-4.38-3-.4.62q1,.64,2.12,1.47l2.2,1.59Zm-10.2.62a7,7,0,0,0,3.4-1.79,7.63,7.63,0,0,0,1.94-3.19l-.72-.22a6.54,6.54,0,0,1-1.75,3,6.85,6.85,0,0,1-3.25,1.57Zm4.64-5.72h.74V85.88h-.74ZM935,60.8h-.56v16H935Zm-9.82-10.12,3.91,0,4.11-.08,4.08-.11,3.82-.14,0-.78-3.85.15q-2,.07-4.1.11l-4.13.07-3.94,0Zm5.92-4.81a3,3,0,0,0,.78,1,3.47,3.47,0,0,0,1.18.64,5,5,0,0,0,2.93,0,3.48,3.48,0,0,0,1.18-.64,3,3,0,0,0,.78-1,3,3,0,0,0-.78-3.61,3.48,3.48,0,0,0-1.18-.64,5,5,0,0,0-2.93,0,3.47,3.47,0,0,0-1.18.64,3.08,3.08,0,0,0-.78,3.61m5.55.46a3.9,3.9,0,0,1-4.25,0,2.26,2.26,0,0,1,0-3.52,3.91,3.91,0,0,1,4.25,0,2.26,2.26,0,0,1,0,3.52m-2.41,11H935V49.94h-.74Z"/><line class="cls-4" x1="654.81" y1="40.4" x2="654.81" y2="460.4"/><line class="cls-4" y1="0.25" x2="943.31" y2="0.25"/></g><rect class="cls-5" y="40.4" width="626.61" height="420"/><g class="cls-2"><line class="cls-6" x1="503.84" y1="40.4" x2="503.84" y2="460.4"/><line class="cls-6" x1="408.39" y1="40.4" x2="408.39" y2="460.4"/><line class="cls-6" x1="312.95" y1="40.4" x2="312.95" y2="460.4"/><line class="cls-6" x1="217.5" y1="40.4" x2="217.5" y2="460.4"/><line class="cls-6" x1="122.06" y1="40.4" x2="122.06" y2="460.4"/><line class="cls-6" x1="26.61" y1="40.4" x2="26.61" y2="460.4"/><line class="cls-6" x1="599.28" y1="40.4" x2="599.28" y2="460.4"/><path class="cls-7" d="M51.06,333.74a52.27,52.27,0,0,0,11.38-13,57.65,57.65,0,0,0,6.48-16.27l-2.81-.22a67.67,67.67,0,0,1-2.52,8.14,42,42,0,0,1-3.49,7.06,43.92,43.92,0,0,1-4.79,6.34,62.82,62.82,0,0,1-6.26,6Zm51.7-17.35h-12l-1.37,1.3,1.37,1.51,12,.14Zm-21.1,14-13.9-13.1-1.87,2.09q1.37,1.23,3.1,2.84t3.56,3.38q1.84,1.77,3.6,3.56t3.28,3.38Zm-3-28.22-6,.3q-3.6.17-7.42.26t-7.42.17q-3.6.07-6,.06l.22,2.81q2.38,0,5.94-.07t7.34-.18q3.78-.11,7.38-.25t6-.29Zm9.43,46.37H90.8v-60H88.14ZM80.87,244.1l-12.74-9.65-1.58,2.23q3.24,2.45,6.16,4.75l6.37,5Zm-29.23,5.33A40.28,40.28,0,0,0,58.19,244,31.87,31.87,0,0,0,63,237.58a36.77,36.77,0,0,0,3.2-7.56,57.39,57.39,0,0,0,1.87-8.89l-2.59-.43a57.88,57.88,0,0,1-1.76,8.53,32.92,32.92,0,0,1-2.92,6.95A27.87,27.87,0,0,1,56.35,242a43,43,0,0,1-6.3,5.18Zm36.5-.22H90.8V216.52H88.14ZM68.92,268a11.23,11.23,0,0,0,2.52,3.46,12,12,0,0,0,3.71,2.34,12.15,12.15,0,0,0,9,0,12.06,12.06,0,0,0,3.71-2.34A11.27,11.27,0,0,0,90.37,268a10.27,10.27,0,0,0,0-8.57,11.27,11.27,0,0,0-2.52-3.46,12.06,12.06,0,0,0-3.71-2.34,12.15,12.15,0,0,0-9,0,12,12,0,0,0-3.71,2.34,11.23,11.23,0,0,0-2.52,3.46,10.27,10.27,0,0,0,0,8.57m19-1A7.88,7.88,0,0,1,86,269.62a9.54,9.54,0,0,1-12.72,0A7.88,7.88,0,0,1,71.33,267a8.17,8.17,0,0,1,0-6.55,7.88,7.88,0,0,1,1.92-2.66,9.54,9.54,0,0,1,12.72,0,7.88,7.88,0,0,1,1.92,2.66,8.15,8.15,0,0,1,0,6.55M102.76,235h-12l-1.37,1.3,1.37,1.51,12,.14ZM79.28,185.2q-2.81.43-6,.83t-6.59.72q-3.35.32-6.59.58t-6.12.32V173.46H51.28v17q3-.07,6.62-.31t7.49-.56q3.82-.31,7.52-.73t6.66-.84Zm8.86,19.3H90.8v-60H88.14ZM75,171.16q-5.69.5-12,.65T51.28,172v2.81q2.66,0,5.69-.07t6.08-.18l6.12-.22q3.06-.11,5.87-.32Zm-2.66,1.44H75V158.06H72.37ZM75,156.83q-6,.32-12.35.45t-12,.2l.22,2.81q5.62-.07,11.92-.22t12.2-.43ZM65.35,89.06a10.82,10.82,0,0,0,2.84,3.58,13.36,13.36,0,0,0,4.25,2.31,16.6,16.6,0,0,0,10.37,0,13.38,13.38,0,0,0,4.25-2.31,10.84,10.84,0,0,0,2.84-3.58,10.76,10.76,0,0,0,0-9.25,10.86,10.86,0,0,0-2.84-3.58,13.4,13.4,0,0,0-4.25-2.31,16.58,16.58,0,0,0-10.37,0,13.37,13.37,0,0,0-4.25,2.31,10.84,10.84,0,0,0-2.84,3.58,10.76,10.76,0,0,0,0,9.25m2.44-8.14a8,8,0,0,1,2.3-2.69,11.17,11.17,0,0,1,3.41-1.72,14.5,14.5,0,0,1,8.32,0,10.69,10.69,0,0,1,3.37,1.72,8.57,8.57,0,0,1,2.3,2.69,7.59,7.59,0,0,1,0,7,8.54,8.54,0,0,1-2.3,2.69,10.65,10.65,0,0,1-3.37,1.72,14.53,14.53,0,0,1-8.32,0,11.13,11.13,0,0,1-3.41-1.72,8,8,0,0,1-2.3-2.69,7.89,7.89,0,0,1,0-7m20.34,49.41H90.8V104.2H88.14Zm-19.51-20a50.07,50.07,0,0,1-4.18,9.36,55.78,55.78,0,0,1-6.19,8.78L60.71,130a70,70,0,0,0,6.16-9.14,54.9,54.9,0,0,0,4.36-9.65ZM90.8,103q-5.76.31-11.77.5t-12,.35q-6,.15-11.92.23t-11.38.08L44,107l11.3-.14q5.83-.07,11.81-.22t12-.36l11.74-.43Z"/><path class="cls-7" d="M140,321.28q6.7,0,14.08-.11t14.8-.29q7.41-.18,14.69-.4t13.75-.5l.07-2.81q-6.55.29-13.86.54t-14.76.4q-7.45.15-14.87.25t-14.18.11Zm50,18.58q-2.88.22-7.09.43t-8.68.32q-4.47.11-8.71.14t-7.27-.11v2.81q3,.14,7.2.11t8.75-.14q4.5-.11,8.71-.29t7.09-.4Zm-.72-35.42q-2.88.22-7,.43t-8.42.32q-4.32.11-8.46.14t-7.16-.11V308q3,.15,7.09.11t8.5-.14q4.36-.11,8.46-.29t7-.4Zm-31,3.6H161V290.61h-2.66Zm0,35.42H161V327.83h-2.66Zm8.64-98.64h2.66V226.6h-2.66Zm5-8.71h13.82V233.3H171.9Zm-23.4,8.28,2.66-.72v-18.5H148.5Zm21.1-19.66q-5,.29-10.51.36t-10.58.07l.22,2.74q5,0,10.4-.07t10.48-.29Zm0,18.58H148.5v2.81h21.1Zm14.54,6.7h2.66V216.52h-2.66Zm2.66,5.54q-3,.13-7,.26t-8.24.23l-8.17.2q-4,.1-6.77.1l.22,2.81q2.81,0,6.73-.07t8.1-.18q4.17-.11,8.17-.25t6.95-.29ZM184.14,275h2.66V257.42h-2.66Zm-22.82-84a68.61,68.61,0,0,0,9.86-14.54,65.52,65.52,0,0,0,5.9-17.35l-3.1.86a60.59,60.59,0,0,1-2.16,7.81,63.49,63.49,0,0,1-3.28,7.7,62.34,62.34,0,0,1-4.28,7.24,68.63,68.63,0,0,1-5,6.48Zm15.77-31.9-4.14.25q-1.84.11-3.53.18t-3.38.11q-1.69,0-3.64,0l.22,2.81,6.34-.14q2.81-.07,5.83-.29Zm-16.56,0-4.14.25q-1.84.11-3.53.18t-3.38.11q-1.69,0-3.64,0l.22,2.81,6.34-.14q2.81-.07,5.83-.29Zm-15.7,28.51a72.9,72.9,0,0,0,5.58-6.23,50.17,50.17,0,0,0,4.43-6.59,48.65,48.65,0,0,0,3.35-7.34,62.06,62.06,0,0,0,2.34-8.35l-3.1.86a46.23,46.23,0,0,1-5.22,13.82,57.69,57.69,0,0,1-9.47,12Zm53.93-14.47h-12l-1.37,1.3,1.37,1.51,12,.14ZM184.14,204.5h2.66v-60h-2.66Zm3-130.68q-3,.15-6.88.29t-8,.22l-7.85.14q-3.82.07-6.62.07l.22,2.81q2.52,0,6-.07l7.2-.14,7.27-.14q3.56-.07,6.3-.22Zm-2.3,15.62q.5-2,.86-3.78t.61-3.6q.25-1.84.47-3.82t.36-4.43l-2.88.94a59.14,59.14,0,0,1-.65,7q-.5,3.17-1.44,6.91Zm-22,7.2a22.32,22.32,0,0,1-3,5.58,26.19,26.19,0,0,1-4.93,4.79l2.09,1.8a28.2,28.2,0,0,0,5.08-5.08,22.8,22.8,0,0,0,3.28-6.08ZM184.14,103h2.66V93h-2.66Zm2.66-11.16q-5.76.31-11.77.5t-12,.35q-6,.15-11.92.23T139.72,93l.29,2.81,11.3-.14q5.83-.07,11.81-.22t12-.36l11.74-.43Zm4,34.13q-2.88.22-7,.43t-8.42.32q-4.32.11-8.46.14t-7.16-.11v2.81q3,.14,7.09.11t8.5-.14q4.36-.11,8.46-.29t7-.4Zm-31,2.16h2.66V117.59h-2.66Zm27.07-12.67q-2.88.2-6.44.33t-7.24.23q-3.67.1-7.16.17t-6.23.07V119q2.66,0,6.16-.07t7.16-.18q3.67-.11,7.24-.25l6.52-.29Zm-2.66,1.37h2.66V106.29h-2.66Zm-21.38-8.21,5.8-.14q3.13-.07,6.34-.18t6.26-.18q3.06-.07,5.65-.22V105q-2.59.15-5.69.25l-6.34.22q-3.24.11-6.37.18l-5.87.14Z"/><path class="cls-7" d="M283.16,146.9q-3,.15-6.77.29t-7.78.22l-7.67.14q-3.71.07-6.52.07l.22,2.81q2.52,0,5.9-.07l7-.14,7.09-.14q3.46-.07,6.19-.22Zm-4,20.16a78.18,78.18,0,0,0,2.48-9.68q1-5.08,1.48-10.48l-2.88.94a71,71,0,0,1-1.26,9.25,68.34,68.34,0,0,1-2.48,9.18Zm.94,35.28h2.66v-29h-2.66ZM260.05,179q-.65,2.59-1.62,5.47t-2.16,5.76q-1.19,2.88-2.59,5.62t-2.84,5l2.59,1.37q1.37-2.31,2.77-5.11t2.63-5.83q1.22-3,2.27-6t1.69-5.76Zm22.75-7.13q-5.76.31-11.77.5t-12,.35q-6,.15-11.92.23t-11.38.08l.29,2.81,11.3-.14q5.83-.07,11.81-.22t12-.36l11.74-.43ZM236,104q6.7,0,14.08-.11t14.8-.29q7.41-.18,14.69-.4t13.75-.5l.07-2.81q-6.55.29-13.86.54t-14.76.4q-7.45.15-14.87.25t-14.18.11Zm32.62,26.35h2.66v-29h-2.66ZM283.16,74.9q-3,.15-6.77.29t-7.78.22l-7.67.14q-3.71.07-6.52.07l.22,2.81q2.52,0,5.9-.07l7-.14,7.09-.14q3.46-.07,6.19-.22Zm-4.32,21.67a96.92,96.92,0,0,0,2.7-10.62,109.69,109.69,0,0,0,1.62-11.05l-2.88.94q-.15,2.16-.5,4.68t-.9,5.11q-.54,2.59-1.22,5.18t-1.48,5Z"/><path class="cls-7" d="M353.35,365a10.81,10.81,0,0,0,2.84,3.58,13.38,13.38,0,0,0,4.25,2.31,16.6,16.6,0,0,0,10.37,0,13.4,13.4,0,0,0,4.25-2.31A10.84,10.84,0,0,0,377.9,365a10.76,10.76,0,0,0,0-9.25,10.86,10.86,0,0,0-2.84-3.57,13.4,13.4,0,0,0-4.25-2.31,16.59,16.59,0,0,0-10.37,0,13.37,13.37,0,0,0-4.25,2.31,10.84,10.84,0,0,0-2.84,3.57,10.76,10.76,0,0,0,0,9.25m2.44-8.14a8,8,0,0,1,2.3-2.69,11.14,11.14,0,0,1,3.41-1.72,14.5,14.5,0,0,1,8.32,0,10.67,10.67,0,0,1,3.37,1.72,8.56,8.56,0,0,1,2.3,2.69,7.59,7.59,0,0,1,0,7,8.53,8.53,0,0,1-2.3,2.69,10.67,10.67,0,0,1-3.37,1.72,14.52,14.52,0,0,1-8.32,0,11.14,11.14,0,0,1-3.41-1.72,8,8,0,0,1-2.3-2.69,7.89,7.89,0,0,1,0-7m20.34,49.41h2.66V380.17h-2.66Zm-19.51-20a50.07,50.07,0,0,1-4.18,9.36,55.78,55.78,0,0,1-6.19,8.78l2.45,1.51a70.1,70.1,0,0,0,6.16-9.14,54.9,54.9,0,0,0,4.36-9.65ZM378.8,379q-5.76.31-11.77.5t-12,.35q-6,.15-11.92.23t-11.38.08L332,383l11.3-.14q5.83-.07,11.81-.22t12-.36l11.74-.43ZM332,310.48q6.7,0,14.08-.11t14.8-.29q7.41-.18,14.69-.4t13.75-.5l.07-2.81q-6.55.29-13.86.54t-14.76.4q-7.45.15-14.87.25t-14.18.11Zm21.31-17.3a10.8,10.8,0,0,0,2.82,3.61,12.53,12.53,0,0,0,4.26,2.31,17.89,17.89,0,0,0,10.54,0,12.55,12.55,0,0,0,4.26-2.31,10.81,10.81,0,0,0,2.82-3.61,11.4,11.4,0,0,0,0-9.39,10.81,10.81,0,0,0-2.82-3.61,12.57,12.57,0,0,0-4.26-2.31,17.89,17.89,0,0,0-10.54,0,12.55,12.55,0,0,0-4.26,2.31,10.8,10.8,0,0,0-2.82,3.61,11.42,11.42,0,0,0,0,9.39m20,1.65a14.06,14.06,0,0,1-15.28,0,8.13,8.13,0,0,1,0-12.69,14.06,14.06,0,0,1,15.28,0,8.13,8.13,0,0,1,0,12.69m-8.69,39.48h2.66v-26.5h-2.66Zm2.74-122.25h-2v57.6h2Zm11.81-64.87-3.56.25q-1.62.11-3.17.18t-3.17.11l-3.64.11.22,2.81,6.66-.29q3.13-.14,6.66-.36Zm-17.5.43q-3.46.15-7.34.22t-7.06.07l.22,2.81q2.88-.07,6.23-.11t7.24-.18Zm14.83,18.72h2.66V147.76H376.5Zm-18.36-.22a51.16,51.16,0,0,0,2.48-8.82,61.11,61.11,0,0,0,1-9.68l-3,1.51a51.39,51.39,0,0,1-.9,8.17,41.94,41.94,0,0,1-2.34,7.74Zm18,36.22h2.66V174.61h-2.66Zm-18.65-22.68a76.37,76.37,0,0,1-4.86,10.87,72.91,72.91,0,0,1-6.37,9.94l2.45,1.51q1.58-2.16,3.17-4.75t3.1-5.4q1.51-2.81,2.81-5.69t2.38-5.62Zm21.31-6.55q-5.76.31-11.77.5t-12,.35q-6,.15-11.92.23t-11.38.08l.29,2.81,11.3-.14q5.83-.07,11.81-.22t12-.36l11.74-.43ZM332,105.42q6.7,0,14.08-.11t14.8-.29q7.41-.18,14.69-.4t13.75-.5l.07-2.81q-6.55.29-13.86.54t-14.76.4q-7.45.15-14.87.25t-14.18.11Zm47.16-30.24-3.56.25q-1.62.11-3.17.18t-3.17.11l-3.64.11.22,2.81,6.66-.29q3.13-.14,6.66-.36Zm-17.5.43q-3.46.15-7.34.22t-7.06.07l.22,2.81q2.88-.07,6.23-.11t7.24-.18ZM376.5,94.33h2.66V75.76H376.5Zm-18.65.22a54.31,54.31,0,0,0,2.66-9.07,57.1,57.1,0,0,0,1.15-9.86l-3,1.51a47.39,47.39,0,0,1-1,8.35,45.23,45.23,0,0,1-2.52,8Zm6.77,35.78h2.66V102.76h-2.66Z"/><path class="cls-7" d="M428,382.48q6.7,0,14.08-.11t14.8-.29q7.41-.18,14.69-.4t13.75-.5l.07-2.81q-6.55.29-13.86.54t-14.76.4q-7.45.15-14.87.25t-14.18.11Zm21.31-17.3a10.79,10.79,0,0,0,2.82,3.61,12.51,12.51,0,0,0,4.26,2.31,17.89,17.89,0,0,0,10.54,0,12.53,12.53,0,0,0,4.26-2.31,10.82,10.82,0,0,0,2.82-3.61,11.4,11.4,0,0,0,0-9.39,10.82,10.82,0,0,0-2.82-3.61,12.55,12.55,0,0,0-4.26-2.31,17.87,17.87,0,0,0-10.54,0,12.52,12.52,0,0,0-4.26,2.31,10.8,10.8,0,0,0-2.82,3.61,11.42,11.42,0,0,0,0,9.39m20,1.65a14.07,14.07,0,0,1-15.28,0,8.13,8.13,0,0,1,0-12.69,14.06,14.06,0,0,1,15.28,0,8.13,8.13,0,0,1,0,12.69m-8.69,39.48h2.66v-26.5h-2.66Zm2.74-122.25h-2v57.6h2Zm13-48.24q-2.88.22-6.7.43t-7.88.32q-4.07.11-7.92.14t-6.88-.11v2.81q3,.15,6.8.11t7.92-.14q4.07-.11,7.92-.29t6.73-.4ZM447,238h2.66v-9.29H447Zm27.79-11.45q-2.88.2-6.55.33t-7.49.23q-3.82.1-7.42.17t-6.34.07v2.81q2.66,0,6.26-.07t7.42-.18q3.82-.11,7.49-.25t6.62-.29Zm-2.66,1.37h2.66v-9.29h-2.66Zm2.66-10.51q-3,.13-6.77.26t-7.78.23l-7.67.2q-3.71.1-6.52.1l.22,2.81q2.81,0,6.48-.07t7.6-.18q3.92-.11,7.7-.25t6.73-.29ZM480.56,273l-16.27-9.65-1.44,2.45q3.67,2.09,7.92,4.68t8.06,5Zm-37.3,2.3a29.48,29.48,0,0,0,12.67-6.3,24.41,24.41,0,0,0,7.2-11.56l-2.59-.65a25.36,25.36,0,0,1-2.74,6,20.42,20.42,0,0,1-3.92,4.54,22.5,22.5,0,0,1-5.22,3.31,38.29,38.29,0,0,1-6.62,2.3Zm28.87-15.7h2.66V246.4h-2.66Zm-21.67-9a22.58,22.58,0,0,1-1.91,5.36,21.44,21.44,0,0,1-3.06,4.36l2.38,1.58a22.53,22.53,0,0,0,3.24-4.86,26,26,0,0,0,2-5.87Zm24.34-5.33q-5.76.31-11.77.5t-12,.35q-6,.15-11.92.23t-11.38.08l.29,2.81,11.3-.14q5.83-.07,11.81-.22t12-.36l11.74-.43ZM428,182.54q6.7,0,14.08-.11t14.8-.29q7.41-.18,14.69-.4t13.75-.5l.07-2.81q-6.55.29-13.86.54t-14.76.4q-7.45.15-14.87.25t-14.18.11Zm48.6-15.84q-2.88.22-6.66.43t-7.78.32q-4,.11-7.81.14t-6.84-.11v2.81q3,.15,6.77.11t7.81-.14q4-.11,7.81-.29t6.7-.4Zm-29.09,2.16h2.66V158.42h-2.66Zm27.5-12.6q-2.88.2-6.52.33t-7.38.23q-3.74.1-7.31.17t-6.3.07v2.81q2.66,0,6.23-.07t7.31-.18q3.74-.11,7.38-.25t6.59-.29Zm-2.66,1.37H475V147.18h-2.66ZM475,146q-3,.13-6.73.26t-7.67.23l-7.56.2q-3.67.1-6.48.1l.22,2.81q2.81,0,6.44-.07t7.49-.18q3.85-.11,7.6-.25t6.7-.29Zm-14.4,56.38h2.66v-22.1h-2.66Zm16-107.86q-2.88.22-6.66.43t-7.78.32q-4,.11-7.81.14t-6.84-.11v2.81q3,.15,6.77.11T462.1,98q4-.11,7.81-.29t6.7-.4Zm-29.09,2.16h2.66V86.34h-2.66ZM475,84.18q-2.88.2-6.52.33t-7.38.23q-3.74.1-7.31.17t-6.3.07v2.81q2.66,0,6.23-.07t7.31-.18q3.74-.11,7.38-.25T475,87Zm-2.66,1.37H475V75.26h-2.66ZM475,74q-3,.13-6.73.26t-7.67.23l-7.56.2q-3.67.1-6.48.1l.22,2.81q2.81,0,6.44-.07t7.49-.18q3.85-.11,7.6-.25t6.7-.29Zm-2.88,56.3h2.66v-23h-2.66Zm-20.23-17.78a58,58,0,0,1-4.28,8.42,60,60,0,0,1-5.36,7.49l2.45,1.51a71.57,71.57,0,0,0,5.33-7.7,67.3,67.3,0,0,0,4.54-8.86Zm22.9-6.77q-5.76.31-11.77.5t-12,.35q-6,.15-11.92.23t-11.38.08l.29,2.81,11.3-.14q5.83-.07,11.81-.22t12-.36l11.74-.43Z"/><path class="cls-7" d="M566.34,304.07a7.26,7.26,0,0,0,3.94,4,7.41,7.41,0,0,0,8.1-1.58,7.5,7.5,0,0,0,0-10.51,7.41,7.41,0,0,0-10.46,0,7.51,7.51,0,0,0-1.58,8.14m10.22.5a4.93,4.93,0,0,1-6.82,0,4.84,4.84,0,0,1,0-6.77,4.93,4.93,0,0,1,6.82,0,4.84,4.84,0,0,1,0,6.77m-28.84-48.13a12.05,12.05,0,0,0,3.95-2.84,12.7,12.7,0,0,0,2.55-4.21,15.2,15.2,0,0,0,0-10.3,12.73,12.73,0,0,0-2.55-4.21,12.34,12.34,0,0,0-18.09,0,12.71,12.71,0,0,0-2.55,4.21,15.22,15.22,0,0,0,0,10.3,12.69,12.69,0,0,0,2.55,4.21,12,12,0,0,0,3.95,2.84,13,13,0,0,0,10.19,0m-1-22a9.46,9.46,0,0,1,3.11,2.27,9.93,9.93,0,0,1,2,3.38,13.05,13.05,0,0,1,0,8.35,9.92,9.92,0,0,1-2,3.38,9.43,9.43,0,0,1-3.11,2.27,10.3,10.3,0,0,1-8.09,0,9.4,9.4,0,0,1-3.11-2.27,9.9,9.9,0,0,1-2-3.38,13.05,13.05,0,0,1,0-8.35,9.91,9.91,0,0,1,2-3.38,9.43,9.43,0,0,1,3.11-2.27,10.3,10.3,0,0,1,8.09,0m21.48,42.08h2.66v-60h-2.66ZM524,170.8q6.7,0,14.08-.11t14.8-.29q7.41-.18,14.69-.4t13.75-.5l.07-2.81q-6.55.29-13.86.54t-14.76.4q-7.45.15-14.87.25t-14.18.11Zm31.9-1.51h2.66v-12H555.9Zm17.42-14.4q-2.88.22-7,.43t-8.42.32q-4.32.11-8.46.14t-7.16-.11v2.81q3,.15,7.09.11t8.5-.14q4.36-.11,8.46-.29t7-.4Zm-31,3.6H545V143.22h-2.66Zm32.47,38.59q-2.88.22-7.09.43t-8.68.32q-4.47.11-8.71.14t-7.27-.11v2.81q3,.14,7.2.11t8.75-.14q4.5-.11,8.71-.29t7.09-.4ZM543,199.24h2.66V189.09H543Zm27.79-12.31q-2.88.2-6.55.33t-7.49.23q-3.82.1-7.42.17t-6.34.07v2.81q2.66,0,6.26-.07t7.42-.18q3.82-.11,7.49-.25t6.62-.29Zm-2.66,1.37h2.66V178.14h-2.66Zm2.66-11.38q-3,.13-6.77.26t-7.78.23l-7.67.2q-3.71.1-6.52.1l.22,2.81q2.81,0,6.48-.07t7.6-.18q3.92-.11,7.7-.25t6.73-.29Zm-9-101.63a10.79,10.79,0,0,1,3.27,1.22,6.31,6.31,0,0,1,2.19,2.08,6,6,0,0,1,0,5.94,6.3,6.3,0,0,1-2.19,2.08,10.76,10.76,0,0,1-3.27,1.22,20.68,20.68,0,0,1-8,0,10.76,10.76,0,0,1-3.26-1.22,6.3,6.3,0,0,1-2.19-2.08,6,6,0,0,1,0-5.94,6.31,6.31,0,0,1,2.19-2.08,10.78,10.78,0,0,1,3.26-1.22,20.68,20.68,0,0,1,8,0m1,15.12A12.41,12.41,0,0,0,567,88.57a9.45,9.45,0,0,0,2.74-3,8.54,8.54,0,0,0,0-8.06,9.31,9.31,0,0,0-2.74-3,12.41,12.41,0,0,0-4.11-1.84,21.26,21.26,0,0,0-10.15,0,12.44,12.44,0,0,0-4.08,1.84,9.31,9.31,0,0,0-2.74,3,8.54,8.54,0,0,0,0,8.06,9.45,9.45,0,0,0,2.74,3,12.44,12.44,0,0,0,4.08,1.84,21.26,21.26,0,0,0,10.15,0M568.14,109h2.74V95.13h-2.74ZM547.76,98.51a25.86,25.86,0,0,1-3.06,5.83,24.12,24.12,0,0,1-5,5l2.09,1.8a26.3,26.3,0,0,0,5.15-5.33,25.92,25.92,0,0,0,3.35-6.34ZM570.88,94q-5.76.31-11.77.5t-12,.35q-6,.15-11.92.23t-11.38.08l.29,2.81,11.3-.14q5.83-.07,11.81-.22t12-.36l11.74-.43Zm3.46,34.7-15.41-8.5-1.15,2.3,7.34,4.18q3.82,2.16,7.63,4.54Zm-35.57,1.87a48.47,48.47,0,0,0,7.27-2.3,22,22,0,0,0,5.18-3,32.09,32.09,0,0,0,4.14-4,19.4,19.4,0,0,0,3.35-5.51l-2.88-.5a13.93,13.93,0,0,1-2.59,4.46,26.49,26.49,0,0,1-3.53,3.46,24.22,24.22,0,0,1-4.86,2.77,32.67,32.67,0,0,1-7.16,2.12Zm26.06-23.83q-3.67-.14-7.06-.43a59.74,59.74,0,0,1-6.91-1l-.29,3q3.46.56,7.06.88t7.06.39Zm6.55,6.91-6.77.3-7.78.34q-4,.17-7.67.27t-6.52.1l.29,2.81q2.81,0,6.48-.11t7.6-.29l7.7-.32q3.78-.14,6.73-.29Z"/></g><g class="cls-8"><line class="cls-4" y1="750.25" x2="943.3" y2="750.25"/></g></svg>