<?xml version="1.0" encoding="utf-8"?>
<!-- Generator: Adobe Illustrator 21.1.0, SVG Export Plug-In . SVG Version: 6.00 Build 0)  -->
<svg version="1.1" id="Layer_1" xmlns="http://www.w3.org/2000/svg" xmlns:xlink="http://www.w3.org/1999/xlink" x="0px" y="0px"
	 viewBox="0 0 943.3 497" style="enable-background:new 0 0 943.3 497;" xml:space="preserve">
<style type="text/css">
	.st0{clip-path:url(#SVGID_2_);}
	.st1{fill:#231815;}
	.st2{fill:none;stroke:#231815;stroke-width:0.5;}
	.st3{fill:#433F3F;}
	.st4{clip-path:url(#SVGID_4_);}
	.st5{fill:#FFFFFF;}
	.st6{fill:none;stroke:#FFFFFF;}
</style>
<title>SAN대지 10</title>
<g>
	<defs>
		<rect id="SVGID_1_" width="943.3" height="460.4"/>
	</defs>
	<clipPath id="SVGID_2_">
		<use xlink:href="#SVGID_1_"  style="overflow:visible;"/>
	</clipPath>
	<g class="st0">
		<path class="st1" d="M13.6,191.6c0.2,0.5,0.6,0.9,1.1,1.1c0.5,0.2,1.1,0.2,1.6,0c0.2-0.1,0.5-0.3,0.7-0.4c0.2-0.2,0.3-0.4,0.4-0.7
			c0.2-0.5,0.2-1.1,0-1.6c-0.1-0.2-0.3-0.5-0.4-0.7c-0.2-0.2-0.4-0.3-0.7-0.4c-0.8-0.3-1.7-0.1-2.3,0.4
			C13.5,189.9,13.3,190.8,13.6,191.6 M16.5,191.7c-0.5,0.5-1.4,0.5-1.9,0c-0.5-0.5-0.5-1.4,0-1.9c0.5-0.5,1.4-0.5,1.9,0
			C17,190.3,17,191.2,16.5,191.7 M10.2,171.1c-0.9,0.1-1.9,0.1-2.9,0.1s-2,0-2.9,0v0.8h1.4h1.5h1.5l1.4-0.1V171.1z M11.8,177.5
			c-1.1,0.4-2.3,0.7-3.4,0.9c-1.3,0.2-2.6,0.3-3.9,0.2v0.7c1.3,0,2.7-0.1,4-0.3c1.2-0.2,2.4-0.5,3.6-0.9L11.8,177.5z M4.4,179.4
			l0.7-0.2v-7.3H4.4L4.4,179.4z M18.2,175.1h-3.3l-0.4,0.4l0.4,0.4h3.3V175.1z M14.1,183.9h0.7v-16.7h-0.7V183.9z M12,157.3
			c-1.2,0.4-2.4,0.7-3.6,0.9c-1.3,0.2-2.6,0.4-3.9,0.4v0.7c1.3-0.1,2.7-0.2,4-0.5c1.3-0.2,2.5-0.5,3.7-0.9L12,157.3z M4.5,159.3
			l0.7-0.2v-8H4.5L4.5,159.3z M14.2,163.9h0.7v-16.6h-0.7V163.9z M1.8,134.8h3.9l4.1-0.1c1.4,0,2.7,0,4.1-0.1l3.9-0.1v0.8l-3.8,0.1
			l-4.1,0.1l-4.1,0.1H1.9L1.8,134.8z M16,131.9l-4.2-2.2l-0.4,0.7l2,1.1l2.1,1.1L16,131.9z M6.3,132.7c1.3-0.4,2.6-1.1,3.6-2.1
			c1-1,1.6-2.2,2-3.6l-0.7-0.2c-0.2,0.6-0.4,1.3-0.7,1.8c-0.3,0.5-0.6,1-1,1.4c-0.4,0.4-0.9,0.8-1.4,1.1c-0.6,0.3-1.3,0.6-2,0.8
			L6.3,132.7z M14.8,143.1H7.4v-0.8h7.4L14.8,143.1z M14.8,139.8l-1.7,0.1l-2,0.1h-2H7.5v-0.8h1.7h2l2-0.1l1.7-0.1L14.8,139.8z
			 M14.8,142.6h-0.7V137h0.7V142.6z M7.4,137.3h0.7v5.4H7.4V137.3z M12,115.7l-3.5-2.9L8,113.5c0.6,0.5,1.1,0.9,1.7,1.4
			s1.1,1,1.7,1.5L12,115.7z M11.3,109.4l-1.6,0.1l-1.9,0.1l-1.9,0.1H4.3l0.1,0.8h1.6l1.9-0.1l1.9-0.1l1.6-0.1V109.4z M4,117.2
			c1.2-0.8,2.2-1.8,3-3.1c0.7-1.3,1.2-2.7,1.5-4.2H7.6c-0.1,0.7-0.3,1.4-0.5,2.1c-0.2,0.6-0.5,1.2-0.8,1.7c-0.3,0.5-0.7,1-1.2,1.5
			c-0.5,0.5-1,0.9-1.6,1.3L4,117.2z M14.1,117.2h0.7v-10h-0.7V117.2z M14.8,118.5l-2,0.1l-2.4,0.1l-2.3,0.1H6.3l0.1,0.8h1.9h2.3
			l2.3-0.1l2-0.1L14.8,118.5z M14.1,123.7h0.7V119h-0.7V123.7z M18.2,112.7h-3.3l-0.4,0.3l0.4,0.4h3.3L18.2,112.7z M10.6,84.9
			c-1.1,0.1-2.2,0.1-3.3,0.2l-3.2,0.1l0.1,0.8L7,85.9l2.9-0.1L10.6,84.9z M3.6,94.1c0.8-0.4,1.6-1,2.4-1.6c0.8-0.6,1.5-1.3,2.1-2.1
			c0.3-0.4,0.6-0.8,0.8-1.3c0.3-0.5,0.5-0.9,0.7-1.4c0.2-0.5,0.4-1,0.6-1.4c0.2-0.5,0.3-0.9,0.4-1.4l-0.9,0.3
			c-0.2,0.8-0.4,1.6-0.8,2.4c-0.4,0.9-0.8,1.7-1.4,2.4c-0.6,0.7-1.3,1.4-2,2c-0.7,0.6-1.5,1.1-2.3,1.5L3.6,94.1z M14.1,97.9h0.7
			V81.2h-0.7V97.9z M18.2,89.2h-3.3l-0.4,0.3l0.4,0.4h3.3V89.2z M10.5,64.9c-1.1,0.1-2.2,0.1-3.3,0.2L4,65.2l0.1,0.8L7,65.9l2.9-0.1
			L10.5,64.9z M3.5,74.1c0.9-0.4,1.7-1,2.4-1.6c0.8-0.6,1.5-1.3,2.1-2.1c0.3-0.4,0.6-0.8,0.8-1.3c0.3-0.5,0.5-0.9,0.7-1.4
			c0.2-0.5,0.4-1,0.6-1.4c0.2-0.5,0.3-0.9,0.4-1.4l-0.9,0.3c-0.2,0.8-0.4,1.6-0.8,2.4C8.5,68.4,8,69.3,7.4,70c-0.6,0.7-1.3,1.4-2,2
			c-0.7,0.6-1.5,1.1-2.3,1.5L3.5,74.1z M14.1,77.9h0.7V61.2h-0.7V77.9z M2.4,55h3.8l3.9-0.1l3.9-0.1l3.7-0.1v-0.8L14,54
			c-1.3,0-2.6,0.1-3.9,0.1l-4,0.1H2.2L2.4,55z M14.3,47.7c-0.7,0.1-1.4,0.3-2.1,0.4c-0.7,0.1-1.4,0.2-2.2,0.3l-2.2,0.2
			c-0.7,0.1-1.4,0.1-2.1,0.1l0.1,0.7c0.7,0,1.4-0.1,2.1-0.2l2.2-0.2c0.7-0.1,1.5-0.2,2.2-0.3c0.7-0.1,1.4-0.2,2.1-0.3V47.7z
			 M15,43.6l-2,0.1l-2.4,0.1H8.1h-2l0.1,0.8h2h2.2h2.2l1.8-0.1L15,43.6z M13.7,52.6c0.2-0.6,0.3-1.3,0.4-2.1s0.3-1.5,0.4-2.3
			s0.2-1.6,0.3-2.4s0.1-1.5,0.2-2.2l-0.8,0.3c0,0.6,0,1.3-0.1,2c-0.1,0.7-0.2,1.5-0.3,2.3c-0.1,0.8-0.2,1.5-0.4,2.2s-0.3,1.4-0.4,2
			L13.7,52.6z"/>
		<path class="st1" d="M32.4,383.3h3.8l3.9-0.1l3.9-0.1l3.7-0.1v-0.8l-3.8,0.1c-1.3,0-2.6,0.1-3.9,0.1l-4,0.1h-3.8L32.4,383.3z
			 M40.8,382.6h0.7v-3.1h-0.7V382.6z M45.4,378l-1.9,0.1c-0.7,0-1.5,0.1-2.3,0.1h-2.3c-0.7,0-1.4,0-2,0v0.8c0.5,0,1.2,0,1.9,0h2.3
			l2.3-0.1l1.9-0.1L45.4,378z M36.9,378.6h0.7v-3.3h-0.7V378.6z M44.9,374.7c-0.5,0-1.2,0.1-1.9,0.1l-2.2,0.1h-2.2H37v0.8h1.8h2.2
			l2.2-0.1l1.9-0.1L44.9,374.7z M44.2,375h0.7v-3.3h-0.7V375z M44.9,371.4l-1.9,0.1l-2.2,0.1l-2.2,0.1h-1.9l0.1,0.8h1.8h2.2l2.2-0.1
			l1.9-0.1V371.4z M38.5,360.3c0.4-0.2,0.8-0.5,1.1-0.8c0.3-0.3,0.6-0.7,0.7-1.2c0.3-0.9,0.3-1.9,0-2.9c-0.2-0.4-0.4-0.8-0.7-1.2
			c-1.3-1.4-3.5-1.4-4.8-0.2c-0.1,0-0.1,0.1-0.2,0.2c-0.3,0.3-0.6,0.7-0.7,1.2c-0.3,0.9-0.3,1.9,0,2.9c0.2,0.4,0.4,0.8,0.7,1.2
			c0.3,0.3,0.7,0.6,1.1,0.8C36.6,360.7,37.6,360.7,38.5,360.3 M38.2,354.2c0.3,0.1,0.6,0.4,0.9,0.6c0.2,0.3,0.4,0.6,0.5,0.9
			c0.3,0.8,0.3,1.6,0,2.3c-0.1,0.3-0.4,0.6-0.6,0.9c-0.2,0.3-0.5,0.5-0.9,0.6c-0.7,0.3-1.5,0.3-2.3,0c-0.3-0.1-0.6-0.4-0.9-0.6
			c-0.2-0.3-0.4-0.6-0.5-0.9c-0.3-0.8-0.3-1.6,0-2.3c0.1-0.3,0.3-0.7,0.5-0.9c0.2-0.3,0.5-0.5,0.9-0.6
			C36.6,353.9,37.4,353.9,38.2,354.2 M44.1,365.9h0.7v-16.6h-0.7V365.9z M33.6,341.8c0.5-0.4,1-0.9,1.5-1.4c0.5-0.5,1-1,1.4-1.6
			c0.4-0.6,0.8-1.2,1.2-1.8c0.4-0.6,0.7-1.3,0.9-2l-0.8-0.2c-0.2,0.6-0.5,1.2-0.8,1.8c-0.3,0.6-0.7,1.2-1.1,1.7
			c-0.4,0.5-0.9,1.1-1.3,1.5c-0.5,0.5-1,0.9-1.5,1.3L33.6,341.8z M41.5,334.5l-1.7,0.1l-2.1,0.1h-2.1h-1.7l0.1,0.8h1.7l2.1,0
			l2.1-0.1l1.7-0.1V334.5z M40,332.4c-0.7-0.2-1.4-0.5-2.1-0.7s-1.4-0.5-2.1-0.9l-0.3,0.8c0.7,0.3,1.4,0.6,2.1,0.8l2.1,0.7L40,332.4
			z M41.8,340.8l-3.2-3l-0.5,0.6c0.5,0.5,1,0.9,1.6,1.4c0.5,0.5,1.1,1,1.6,1.6L41.8,340.8z M44.1,345.9h0.7v-16.7h-0.7V345.9z
			 M48.2,337h-3.3l-0.4,0.4l0.4,0.4h3.3V337z M32.4,317.3h3.8l3.9-0.1l3.9-0.1l3.7-0.1v-0.8l-3.8,0.1l-3.9,0.1l-4,0.1h-3.8
			L32.4,317.3z M38.5,309.8h1.6l1.7,0l1.6-0.1l1.5-0.1v-0.8l-1.5,0.1l-1.6,0.1l-1.7,0h-1.6V309.8z M45.3,311.9l-1.9,0.1
			c-0.7,0-1.5,0.1-2.3,0.1h-2.3c-0.7,0-1.4,0-2,0v0.8c0.5,0,1.2,0,1.9,0h2.3l2.3-0.1l1.9-0.1L45.3,311.9z M45.1,305.5l-1.8,0.1
			l-2.3,0.1h-2.3h-1.8v0.8h1.8H41h2.3l1.8-0.1L45.1,305.5z M36.9,312.9l0.7-0.2V306h-0.7V312.9z M32.9,293.2c1.2-0.8,2.2-2,2.9-3.3
			c0.6-1.4,1-2.9,1-4.5l-0.8-0.1c0,0.8-0.1,1.5-0.3,2.3c-0.1,0.7-0.4,1.3-0.7,1.9c-0.3,0.6-0.7,1.1-1.1,1.6c-0.5,0.5-1,1-1.6,1.4
			L32.9,293.2z M39.7,292.3l-2.5-2.8l-0.6,0.5l1.2,1.4l1.2,1.5L39.7,292.3z M41.6,287.9h-2.7v0.8h2.7V287.9z M41.2,294h0.7v-9.6
			h-0.7V294z M44.1,294.8h0.7v-11.6h-0.7V294.8z M46,297.5l-1.9,0.1c-0.8,0-1.5,0.1-2.3,0.1h-2.3c-0.8,0-1.4,0-2,0v0.8
			c0.5,0,1.2,0,2,0h2.3l2.3-0.1l1.9-0.1L46,297.5z M37.4,298.3h0.7v-3.9h-0.7V298.3z M39.3,275.3l0.3-6.5h-0.8l-0.2,6.5H39.3z
			 M41.8,274.5l-2.3,0.3l-2.2,0.3l-2.2,0.2l-2.5,0.2l0.2,0.8l2.5-0.2l2.2-0.2l2.1-0.3l2.4-0.3L41.8,274.5z M36.1,275.5l-0.5-6.4
			l-0.8,0.1l0.6,6.3L36.1,275.5z M40.8,267l-1.7,0.1l-2,0.1l-2,0.1h-1.7l0.1,0.8l1.5,0l2-0.1l2-0.1l1.7-0.1L40.8,267z M44.2,270.5
			h-3.3v0.8h3.3V270.5z M44.1,279.9h0.7v-16.7h-0.7V279.9z M45.2,257.8c-0.2,0.4-0.5,0.8-0.9,1.1c-0.5,0.3-1,0.6-1.6,0.7
			c-1.6,0.3-3.4,0.3-5,0c-0.6-0.1-1.1-0.4-1.6-0.7c-0.4-0.3-0.7-0.6-0.9-1.1c-0.3-0.9-0.3-1.9,0-2.7c0.2-0.4,0.5-0.8,0.9-1.1
			c0.5-0.3,1-0.6,1.6-0.7c1.6-0.3,3.4-0.3,5,0c0.6,0.1,1.1,0.4,1.6,0.7c0.4,0.3,0.7,0.6,0.9,1.1C45.6,255.9,45.6,256.9,45.2,257.8
			 M34.5,258c0.2,0.5,0.6,1,1,1.3c0.6,0.4,1.2,0.7,1.9,0.9c0.9,0.2,1.9,0.3,2.8,0.3c1,0,1.9-0.1,2.8-0.3c0.7-0.2,1.3-0.4,1.9-0.9
			c0.4-0.3,0.8-0.8,1-1.3c0.4-1.1,0.4-2.2,0-3.3c-0.2-0.5-0.6-1-1-1.3c-0.6-0.4-1.2-0.7-1.9-0.9c-0.9-0.2-1.9-0.3-2.8-0.3
			c-1,0-1.9,0.1-2.8,0.3c-0.7,0.2-1.3,0.4-1.9,0.9c-0.4,0.3-0.8,0.8-1,1.3C34.1,255.8,34.1,257,34.5,258 M40,244.7
			c0,0.5-0.1,0.9-0.2,1.4c-0.1,0.4-0.3,0.8-0.5,1.1c-0.2,0.3-0.5,0.5-0.8,0.7c-0.3,0.2-0.6,0.3-1,0.3c-0.3,0-0.7-0.1-1-0.2
			c-0.3-0.2-0.6-0.4-0.8-0.7c-0.2-0.3-0.4-0.6-0.5-1c-0.1-0.4-0.2-0.8-0.2-1.2c0-0.4,0.1-0.8,0.2-1.2c0.1-0.3,0.3-0.6,0.5-0.9
			c0.2-0.3,0.4-0.5,0.7-0.7c0.2-0.2,0.5-0.3,0.7-0.4l-0.3-0.8c-0.7,0.3-1.3,0.8-1.8,1.4c-0.3,0.3-0.4,0.7-0.6,1.1
			c-0.1,0.5-0.2,1-0.2,1.4c0,0.5,0.1,1.1,0.3,1.6c0.2,0.4,0.4,0.9,0.7,1.2c0.3,0.3,0.6,0.6,1,0.8c0.4,0.2,0.8,0.3,1.2,0.3
			c0.4,0,0.7-0.1,1.1-0.2c0.3-0.1,0.6-0.3,0.9-0.6c0.2-0.2,0.5-0.5,0.6-0.8c0.1-0.3,0.2-0.6,0.3-0.9h0.1c0.1,0.3,0.2,0.5,0.3,0.8
			c0.2,0.3,0.4,0.5,0.6,0.7c0.3,0.2,0.5,0.4,0.8,0.5c0.3,0.1,0.7,0.2,1,0.2c0.4,0,0.8-0.1,1.2-0.3c0.4-0.2,0.7-0.4,1-0.7
			c0.3-0.3,0.5-0.7,0.7-1.1c0.2-0.5,0.3-1,0.3-1.5c0-0.5-0.1-0.9-0.3-1.4c-0.1-0.4-0.4-0.7-0.6-1c-0.2-0.3-0.5-0.5-0.8-0.7
			c-0.3-0.2-0.6-0.3-0.9-0.4l-0.3,0.8c0.3,0.1,0.5,0.2,0.8,0.3c0.3,0.1,0.5,0.3,0.7,0.6c0.5,0.5,0.7,1.2,0.7,1.9
			c0,0.4-0.1,0.7-0.2,1.1c-0.1,0.3-0.3,0.6-0.5,0.9c-0.2,0.2-0.4,0.5-0.7,0.6c-0.3,0.1-0.6,0.2-0.9,0.2c-0.3,0-0.7-0.1-0.9-0.2
			c-0.3-0.2-0.6-0.4-0.8-0.7c-0.2-0.3-0.4-0.6-0.5-1c-0.1-0.4-0.2-0.8-0.2-1.3v-1H40V244.7z M38.4,216.1c0.3,0.1,0.6,0.3,0.8,0.5
			c0.2,0.2,0.4,0.5,0.5,0.8c0.3,0.6,0.3,1.3,0,1.9c-0.1,0.3-0.3,0.6-0.5,0.8c-0.2,0.2-0.5,0.4-0.8,0.5c-0.6,0.3-1.4,0.3-2,0
			c-0.3-0.1-0.6-0.3-0.8-0.5c-0.2-0.2-0.4-0.5-0.5-0.8c-0.3-0.6-0.3-1.3,0-1.9c0.1-0.3,0.3-0.6,0.5-0.8c0.2-0.2,0.5-0.4,0.8-0.5
			C37,215.9,37.7,215.9,38.4,216.1 M38.6,221.3c0.4-0.2,0.7-0.4,1-0.7c0.3-0.3,0.5-0.6,0.7-1c0.3-0.8,0.3-1.6,0-2.4
			c-0.2-0.4-0.4-0.7-0.7-1c-1.3-1.3-3.3-1.3-4.6,0c-0.3,0.3-0.5,0.6-0.7,1c-0.3,0.8-0.3,1.6,0,2.4c0.2,0.4,0.4,0.7,0.7,1
			C36,221.5,37.4,221.8,38.6,221.3 M44.1,222.5h0.7v-9.3h-0.7V222.5z M44.8,223.9l-1.9,0.1l-2.3,0.1l-2.3,0.1h-1.9l0.1,0.8h1.9
			l2.3-0.1l2.3-0.1l1.9-0.1V223.9z M44.1,229.5h0.7v-5.1h-0.7V229.5z M48.1,216.1h-3.2l-0.4,0.4l0.4,0.4h3.2L48.1,216.1z
			 M48.1,219.7h-3.2l-0.4,0.4l0.4,0.4h3.2L48.1,219.7z M40.9,194.9h3.6v-0.8h-3.7L40.9,194.9z M40.9,191.5h3.6v-0.8h-3.7L40.9,191.5
			z M34.2,195.2h0.7v-5.6h-0.7V195.2z M40,189.5c-0.9,0.1-1.9,0.1-2.9,0.1h-2.9l0.1,0.8h2.9c1,0,1.9,0,2.9-0.1L40,189.5z
			 M39.2,195.3H40V190h-0.7L39.2,195.3z M40,194.9h-5.8v0.8H40L40,194.9z M44.1,199.1h0.7v-11.9h-0.7V199.1z M46,201.5l-1.9,0.1
			c-0.8,0-1.5,0.1-2.3,0.1h-2.3c-0.8,0-1.4,0-2,0v0.8c0.5,0,1.2,0,2,0h2.3l2.3-0.1c0.8,0,1.4,0,1.9-0.1L46,201.5z M37.4,202.3h0.7
			v-4.3h-0.7V202.3z M38.8,180.2c0.7-0.3,1.2-0.9,1.5-1.6c0.3-0.7,0.3-1.4,0-2.1c-0.3-0.7-0.8-1.3-1.5-1.6c-0.8-0.3-1.7-0.3-2.6,0
			c-0.7,0.3-1.2,0.9-1.5,1.6c-0.3,0.7-0.3,1.4,0,2.1c0.3,0.7,0.8,1.3,1.5,1.6C37.1,180.5,38,180.5,38.8,180.2 M36.6,179.5
			c-0.3-0.1-0.5-0.3-0.7-0.5c-0.2-0.2-0.3-0.4-0.4-0.7c-0.1-0.2-0.1-0.5-0.1-0.8c0-0.3,0-0.5,0.1-0.8c0.1-0.3,0.2-0.5,0.4-0.7
			c0.2-0.2,0.4-0.4,0.7-0.5c0.6-0.3,1.4-0.3,2,0c0.3,0.1,0.5,0.3,0.7,0.5c0.2,0.2,0.3,0.4,0.4,0.7c0.1,0.2,0.1,0.5,0.1,0.8
			c0,0.3,0,0.5-0.1,0.8c-0.1,0.3-0.2,0.5-0.4,0.7c-0.2,0.2-0.4,0.4-0.7,0.5C37.9,179.8,37.2,179.8,36.6,179.5 M48.2,175.2h-3.4
			l-0.4,0.4l0.4,0.4h3.3L48.2,175.2z M41.4,172.3l-1.8,0.1l-2.3,0.1H35h-1.8l0.1,0.8h1.1h1.4h1.5h1.6h1.4l1.1-0.1L41.4,172.3z
			 M39.7,170.1c-0.7-0.2-1.4-0.5-2.1-0.7s-1.4-0.5-2.1-0.9l-0.3,0.8c0.7,0.3,1.4,0.6,2.1,0.8l2.1,0.7L39.7,170.1z M44.2,183.9h0.7
			v-16.7h-0.7V183.9z M39.7,155.6l0.3-4.5h-0.8l-0.2,4.4L39.7,155.6z M36.2,155.9l-0.3-4.5l-0.8,0.1l0.4,4.5L36.2,155.9z M42.2,155
			c-1.5,0.2-3,0.4-4.5,0.5c-1.5,0.1-3.1,0.2-4.8,0.2l0.1,0.8c1.6-0.1,3.2-0.1,4.7-0.3s3-0.3,4.5-0.5L42.2,155z M41.1,149.3l-1.7,0.1
			l-2,0.1l-2,0.1h-1.7l0.1,0.8h1.7l2-0.1l2-0.1l1.7-0.1L41.1,149.3z M48.1,153h-3.3l-0.4,0.4l0.4,0.4h3.3L48.1,153z M44.1,159.1h0.7
			v-11.9h-0.7V159.1z M46,161.5l-1.9,0.1c-0.8,0-1.5,0.1-2.3,0.1h-2.3c-0.8,0-1.4,0-2,0v0.8c0.5,0,1.2,0,2,0h2.3l2.3-0.1
			c0.8,0,1.4,0,1.9-0.1L46,161.5z M37.4,162.3h0.7v-3.9h-0.7V162.3z M32.4,141.2h3.8l3.9-0.1L44,141l3.7-0.1v-0.8l-3.8,0.1
			c-1.3,0-2.6,0.1-3.9,0.1l-4,0.1h-3.8L32.4,141.2z M45,129.6l-2,0.1l-2.3,0.1h-2.3h-2l0.1,0.8h1.9l2.3-0.1l2.3-0.1l2-0.1L45,129.6z
			 M46.1,135.6l-4.5-3l-0.4,0.7l1.1,0.7l1.2,0.8l1.2,0.8l1.1,0.7L46.1,135.6z M35.9,136.5c1.4-0.5,2.7-1.3,3.7-2.4
			c1-1.1,1.7-2.5,1.9-3.9l-0.7-0.2c-0.2,1.4-0.9,2.6-1.8,3.7c-1,1-2.1,1.7-3.5,2.2L35.9,136.5z M40.6,140.5h0.7v-4.1h-0.7V140.5z
			 M32.4,115.3h3.8l3.9-0.1l3.9-0.1l3.7-0.1v-0.8l-3.8,0.2c-1.3,0-2.6,0.1-3.9,0.1l-4,0.1h-3.8L32.4,115.3z M40.8,114.6h0.7v-3.1
			h-0.7V114.6z M45.4,110l-1.9,0.1c-0.7,0-1.5,0.1-2.3,0.1h-2.3c-0.7,0-1.4,0-2,0v0.8c0.5,0,1.2,0,1.9,0h2.3l2.3-0.1l1.9-0.1
			L45.4,110z M36.9,110.6h0.7v-3.3h-0.7V110.6z M44.9,106.7c-0.5,0-1.2,0.1-1.9,0.1l-2.2,0.1h-2.2H37v0.8h1.8h2.2l2.2-0.1l1.9-0.1
			L44.9,106.7z M44.2,107.1h0.7v-3.3h-0.7V107.1z M44.9,103.4l-1.9,0.1l-2.2,0.1l-2.2,0.1h-1.9l0.1,0.8h1.8l2.2-0.1l2.2-0.1l1.9-0.1
			V103.4z M32.4,95.3h3.8l3.9-0.1l3.9-0.1l3.8-0.1v-0.8L44,94.3c-1.3,0-2.6,0.1-3.9,0.1l-4,0.1h-3.8L32.4,95.3z M38.5,87.7h1.6h1.7
			l1.6-0.1l1.5-0.1v-0.8l-1.5,0.1L41.8,87h-1.7l-1.6,0V87.7z M45.3,89.9L43.4,90c-0.7,0-1.5,0.1-2.3,0.1h-2.3c-0.7,0-1.4,0-2,0v0.8
			c0.5,0,1.2,0,1.9,0h2.3l2.3-0.1l1.9-0.1L45.3,89.9z M45.1,83.4l-1.8,0.1L41,83.6h-2.3h-1.8v0.8h1.8H41h2.3l1.8-0.1L45.1,83.4z
			 M36.9,90.9l0.7-0.2V84h-0.7V90.9z M34.3,67.8c0.2,0.4,0.4,0.7,0.7,1c0.3,0.3,0.6,0.5,1,0.7c0.8,0.3,1.7,0.3,2.5,0
			c0.4-0.2,0.7-0.4,1-0.7c0.3-0.3,0.5-0.6,0.7-1c0.3-0.8,0.3-1.7,0-2.5c-0.2-0.4-0.4-0.7-0.7-1c-0.3-0.3-0.6-0.5-1-0.7
			c-0.8-0.3-1.7-0.3-2.5,0c-0.4,0.2-0.7,0.4-1,0.7c-0.3,0.3-0.5,0.6-0.7,1C33.9,66.1,33.9,67,34.3,67.8 M35,65.6
			c0.3-0.6,0.7-1.1,1.3-1.3c0.6-0.3,1.4-0.3,2,0c0.3,0.1,0.6,0.3,0.8,0.5c0.2,0.2,0.4,0.5,0.5,0.8c0.3,0.6,0.3,1.3,0,1.9
			c-0.1,0.3-0.3,0.6-0.5,0.8c-0.2,0.2-0.5,0.4-0.8,0.5c-0.6,0.3-1.4,0.3-2,0c-0.6-0.3-1.1-0.7-1.3-1.3C34.7,66.9,34.7,66.2,35,65.6
			 M46,75.5l-2,0.1c-0.8,0-1.6,0.1-2.4,0.1h-2.4c-0.8,0-1.4,0-2,0v0.8c0.5,0,1.2,0,2,0h2.4l2.4-0.1c0.8,0,1.4-0.1,2-0.1V75.5z
			 M37.3,76.3H38v-4.2h-0.7L37.3,76.3z M44.2,73.1h0.7V61.2h-0.7V73.1z M32.4,55.3h3.8l3.9-0.1l3.9-0.1l3.7-0.1v-0.8L44,54.3
			c-1.3,0-2.6,0.1-3.9,0.1l-4,0.1h-3.8L32.4,55.3z M45,49.3h-9v0.8h9V49.3z M43.3,49.7l0.4-4.8L43,44.8l-0.4,4.8L43.3,49.7z
			 M39.1,49.6L38.8,45H38l0.3,4.6L39.1,49.6z M45.1,43.1l-1.2,0.1l-1.5,0l-1.7,0.1h-1.7h-1.5h-1.2l0.1,0.8h1.2H39h1.7h1.7l1.5-0.1
			l1.2-0.1L45.1,43.1z M40.5,54.7h0.7v-3.8h-0.7V54.7z"/>
		<path class="st1" d="M61.9,403.2h3.9l4.1-0.1L74,403l3.8-0.1v-0.8l-3.8,0.1c-1.3,0-2.7,0.1-4.1,0.1l-4.1,0.1h-3.9L61.9,403.2z
			 M72.6,400.1c0.4-0.1,0.8-0.3,1.1-0.6c0.3-0.2,0.6-0.6,0.7-0.9c0.6-1.2,0.3-2.6-0.7-3.4c-0.3-0.3-0.7-0.5-1.1-0.6
			c-0.9-0.3-1.9-0.3-2.8,0c-0.4,0.1-0.8,0.3-1.1,0.6c-1,0.8-1.3,2.2-0.7,3.4c0.2,0.4,0.4,0.7,0.7,0.9c0.3,0.3,0.7,0.5,1.1,0.6
			C70.7,400.3,71.6,400.3,72.6,400.1 M69.2,399c-0.9-0.7-1.1-2-0.4-2.9c0.1-0.1,0.2-0.2,0.4-0.4c1.2-0.8,2.8-0.8,4,0
			c0.9,0.7,1.1,2,0.4,2.9c-0.1,0.1-0.2,0.2-0.4,0.4C71.9,399.8,70.4,399.8,69.2,399 M75.8,408.2l-2,0.1c-0.8,0-1.6,0.1-2.4,0.1h-2.4
			c-0.8,0-1.5,0-2,0v0.8c0.5,0,1.2,0,2,0h2.4l2.4-0.1c0.8,0,1.4-0.1,2-0.1L75.8,408.2z M66.9,409.2h0.7v-4.3h-0.7V409.2z M64.3,383
			c1.5-0.7,2.9-1.6,4-2.8c1.1-1.1,1.8-2.5,2.1-4l-0.9,0.3c-0.3,1.3-0.9,2.5-1.9,3.4c-1.1,1.1-2.4,2-3.8,2.5L64.3,383z M70.5,376.2
			l-1.6,0.1l-1.5,0H66h-1.5l0.1,0.8h2.6c0.8,0,1.7,0,2.7-0.1L70.5,376.2z M68.7,387h1.6H72l1.6-0.1l1.4-0.2v-0.8
			c-0.9,0.1-1.9,0.1-3,0.1l-3.2,0.1L68.7,387z M75.8,388.7l-1.9,0.1c-0.7,0-1.5,0.1-2.2,0.1h-2.3c-0.7,0-1.4,0-1.9,0v0.8
			c0.5,0,1.2,0,1.9,0h2.3l2.3-0.1l1.9-0.1V388.7z M67.5,389.3h0.7v-5.7l-0.7-0.2V389.3z M75.2,383.2l-1.8,0.1l-2.1,0.1l-2,0h-1.8
			l0.1,0.8h1.8l2-0.1l2-0.1l1.8-0.1L75.2,383.2z M78.2,378.7h-3.4l-0.4,0.4l0.4,0.4h3.3L78.2,378.7z M74.1,382h0.7v-8h-0.7V382z
			 M73,359.1l-2.6,0.4c-0.8,0.1-1.7,0.2-2.5,0.3c-0.9,0.1-1.7,0.2-2.6,0.2l-2.8,0.1l0.2,0.8c1,0,1.9-0.1,2.8-0.1
			c0.9-0.1,1.7-0.1,2.6-0.2c0.8-0.1,1.7-0.2,2.5-0.3s1.7-0.2,2.6-0.4L73,359.1z M71.3,351.2c-1.1,0.1-2.3,0.1-3.5,0.2
			c-1.2,0-2.4,0.1-3.4,0.1l0.1,0.8c1,0,2,0,3.1,0c1.1,0,2.1-0.1,3.1-0.2L71.3,351.2z M70.2,357.5c0.3-1,0.5-2,0.7-3.1
			c0.2-1,0.3-2.1,0.4-3.3l-0.8,0.3c-0.1,0.9-0.2,1.9-0.4,2.9c-0.2,1-0.4,2-0.7,2.9L70.2,357.5z M66.2,360.2h0.7v-4.5h-0.7V360.2z
			 M78.2,357.5h-3.3l-0.4,0.4l0.4,0.4h3.3L78.2,357.5z M74.1,364.6h0.7V348h-0.7V364.6z M61.9,335.2h3.9l4.1-0.1L74,335l3.8-0.1
			v-0.8l-3.8,0.1c-1.3,0-2.7,0.1-4.1,0.1l-4.1,0.1h-3.9L61.9,335.2z M75,328.3l-1,0.1h-0.9h-0.9h-1l0.1,0.8c1.3,0,2.6-0.1,3.9-0.2
			L75,328.3z M69.7,328.5c-0.7,0-1.3,0-2,0h-2l0.1,0.8h1.7h2L69.7,328.5z M68.9,333c0.3-0.7,0.5-1.4,0.6-2.1
			c0.1-0.8,0.2-1.6,0.2-2.4l-0.8,0.4c0,0.7-0.1,1.3-0.2,2c-0.1,0.6-0.3,1.2-0.6,1.8L68.9,333z M74.2,332.5H75v-4.1h-0.7L74.2,332.5z
			 M71.1,334.6h0.7v-3.5h-0.7V334.6z M76,342.8l-2,0.1c-0.8,0-1.6,0.1-2.4,0.1h-2.4c-0.8,0-1.5,0-2,0v0.8c0.5,0,1.2,0,2,0h2.4
			l2.4-0.1c0.8,0,1.4,0,2-0.1L76,342.8z M67.2,343.4h0.7v-2.9h-0.7V343.4z M74.9,339.9c-0.5,0-1.1,0.1-1.8,0.1l-2.1,0h-2.1h-1.8v0.8
			h1.7l2.1,0l2.1-0.1l1.8-0.1L74.9,339.9z M74.2,340.2h0.7v-2.9h-0.7V340.2z M74.9,337l-1.9,0.1l-2.2,0.1l-2.1,0.1h-1.8L67,338h1.8
			h2.1l2.1-0.1l1.9-0.1L74.9,337z M61.9,314.8h3.9l4.1-0.1l4.1-0.1l3.8-0.1v-0.8l-3.8,0.1c-1.3,0-2.7,0.1-4.1,0.1l-4.1,0.1h-3.9
			L61.9,314.8z M75,308.4l-1.9,0.1l-2.2,0.1h-2.2h-1.8l0.1,0.8h1.7h2h2l1.7-0.1L75,308.4z M74.3,313c0.1-0.4,0.2-0.8,0.3-1.2
			c0.1-0.4,0.1-0.7,0.2-1.1c0.1-0.3,0.1-0.7,0.1-1.1s0.1-0.8,0.1-1.3l-0.8,0.3c0,0.4-0.1,0.8-0.1,1.1s-0.1,0.7-0.1,1s-0.1,0.6-0.2,1
			s-0.2,0.7-0.3,1.1L74.3,313z M76,322.7l-2,0.1c-0.8,0-1.6,0.1-2.4,0.1h-2.4c-0.8,0-1.5,0-2,0v0.8c0.5,0,1.2,0,2,0h2.4l2.4-0.1
			c0.8,0,1.4,0,2-0.1L76,322.7z M67.2,323.3h0.7v-2.9h-0.7V323.3z M74.9,319.8c-0.5,0-1.1,0.1-1.8,0.1l-2.1,0.1h-2.1h-1.8v0.8h1.7
			l2.1,0l2.1-0.1l1.8-0.1L74.9,319.8z M74.2,320.1h0.7v-2.9h-0.7V320.1z M74.9,316.9L73,317l-2.2,0.1l-2.1,0h-1.8l0.1,0.8h1.8h2.1
			l2.1-0.1l1.9-0.1L74.9,316.9z M61.9,291.3h3.9l4.1-0.1l4.1-0.1c1.3,0,2.6-0.1,3.8-0.1v-0.8l-3.8,0.1c-1.3,0-2.7,0.1-4.1,0.1
			l-4.1,0.1h-3.9L61.9,291.3z M69.4,291l-0.1-2.6h-0.8l0.1,2.6L69.4,291z M73.2,290.9h0.7v-2.7h-0.7V290.9z M72.6,287.4
			c0.4-0.1,0.8-0.3,1.1-0.6c0.3-0.2,0.5-0.5,0.7-0.9c0.3-0.7,0.3-1.5,0-2.2c-0.2-0.3-0.4-0.7-0.7-0.9c-0.3-0.3-0.7-0.5-1.1-0.6
			c-0.9-0.3-1.9-0.3-2.8,0c-0.4,0.1-0.8,0.3-1.1,0.6c-0.3,0.2-0.5,0.6-0.7,0.9c-0.3,0.7-0.3,1.5,0,2.2c0.2,0.3,0.4,0.6,0.7,0.9
			c0.3,0.3,0.7,0.5,1.1,0.6C70.7,287.7,71.7,287.7,72.6,287.4 M72.3,282.9c0.3,0.1,0.6,0.3,0.8,0.5c0.2,0.2,0.4,0.4,0.6,0.7
			c0.3,0.5,0.3,1.1,0,1.6c-0.1,0.3-0.3,0.5-0.6,0.7c-0.3,0.2-0.5,0.4-0.8,0.5c-0.7,0.2-1.5,0.2-2.2,0c-0.3-0.1-0.6-0.3-0.8-0.5
			c-0.2-0.2-0.4-0.4-0.6-0.7c-0.3-0.5-0.3-1.1,0-1.6c0.1-0.3,0.3-0.5,0.6-0.7c0.3-0.2,0.5-0.4,0.8-0.5
			C70.8,282.6,71.6,282.6,72.3,282.9 M72.6,297.9c0.4-0.1,0.7-0.3,1-0.6c0.3-0.2,0.5-0.5,0.7-0.9c0.3-0.7,0.3-1.4,0-2.1
			c-0.2-0.3-0.4-0.6-0.7-0.9c-0.3-0.3-0.6-0.4-1-0.6c-0.4-0.1-0.9-0.2-1.3-0.2c-0.5,0-0.9,0.1-1.3,0.2c-0.4,0.1-0.7,0.3-1,0.6
			c-0.3,0.2-0.5,0.5-0.7,0.9c-0.3,0.7-0.3,1.4,0,2.1c0.2,0.3,0.4,0.6,0.7,0.9c0.3,0.3,0.6,0.5,1,0.6c0.4,0.1,0.9,0.2,1.3,0.2
			C71.7,298.1,72.1,298,72.6,297.9 M73.1,294c0.8,0.6,0.9,1.7,0.3,2.5c-0.1,0.1-0.2,0.2-0.3,0.3c-1.1,0.8-2.6,0.8-3.7,0
			c-0.8-0.6-0.9-1.7-0.3-2.5c0.1-0.1,0.2-0.2,0.3-0.3C70.5,293.2,72,293.2,73.1,294 M70.6,265.7c-1.1,0.1-2.2,0.1-3.3,0.1
			s-2.2,0.1-3.2,0.1l0.1,0.8l2.9-0.1l2.9-0.1L70.6,265.7z M63.6,274.9c0.9-0.4,1.7-1,2.4-1.6c0.8-0.6,1.4-1.4,2.1-2.2
			c0.3-0.4,0.6-0.8,0.8-1.3c0.3-0.5,0.5-0.9,0.7-1.4c0.2-0.5,0.4-1,0.6-1.4c0.2-0.5,0.3-0.9,0.4-1.4l-0.9,0.3
			c-0.2,0.8-0.4,1.6-0.8,2.4c-0.4,0.9-0.9,1.7-1.5,2.4c-0.6,0.7-1.3,1.4-2,2c-0.7,0.6-1.5,1.1-2.3,1.5L63.6,274.9z M74.1,278.6h0.7
			V262h-0.7V278.6z M68,251.6l-1.7-2.5l-0.6,0.5c0.3,0.5,0.7,0.9,1,1.4s0.6,0.9,0.9,1.4L68,251.6z M73.2,253.5l-2.7-3.8l-0.6,0.5
			l0.7,0.9l0.7,1l0.7,1l0.6,0.9L73.2,253.5z M67.5,254.7c0.4-0.6,0.8-1.2,1.1-1.9c0.3-0.7,0.6-1.4,0.9-2.1c0.3-0.7,0.5-1.5,0.6-2.2
			c0.2-0.7,0.3-1.5,0.4-2.2h-0.8c-0.1,1.4-0.4,2.8-0.9,4.2c-0.5,1.3-1.1,2.6-1.9,3.8L67.5,254.7z M72.2,245.8l-1.2,0.1h-1h-1h-1.2
			l0.1,0.8h1.1h1h1l1.2-0.1L72.2,245.8z M67.6,245.8l-1.2,0.1h-1h-1h-1.3l0.1,0.8h1.1h1h1l1.2-0.1L67.6,245.8z M63.4,253.9
			c0.8-1.1,1.5-2.3,1.9-3.6c0.4-1.3,0.7-2.6,0.9-4h-0.8c-0.1,0.7-0.2,1.3-0.3,2c-0.1,0.6-0.3,1.2-0.5,1.8c-0.2,0.6-0.5,1.2-0.8,1.7
			c-0.3,0.6-0.7,1.2-1.1,1.7L63.4,253.9z M74.1,258.6h0.7V242h-0.7V258.6z M78.2,249.7h-3.3l-0.4,0.4l0.4,0.4h3.3L78.2,249.7z
			 M62.4,236h3.8l3.9-0.1l3.9-0.1l3.7-0.1v-0.8L74,235c-1.3,0-2.6,0.1-3.9,0.1l-4,0.1h-3.8L62.4,236z M70.8,235.3h0.7v-3.1h-0.7
			V235.3z M75.4,230.7l-1.9,0.1c-0.7,0-1.5,0.1-2.3,0.1h-2.3c-0.7,0-1.4,0-2,0v0.8c0.5,0,1.2,0,1.9,0h2.3l2.3-0.1l1.9-0.1
			L75.4,230.7z M66.9,231.3h0.7V228h-0.7V231.3z M74.9,227.4c-0.5,0-1.2,0.1-1.9,0.1l-2.2,0.1h-2.2H67v0.8h1.8l2.2-0.1l2.2-0.1
			l1.9-0.1L74.9,227.4z M74.2,227.8h0.7v-3.3h-0.7V227.8z M74.9,224.1l-1.9,0.1l-2.2,0.1l-2.2,0.1h-1.9l0.1,0.8h1.8l2.2-0.1l2.2,0
			l1.9-0.1L74.9,224.1z M70.6,205.7c-1.1,0.1-2.2,0.1-3.3,0.1c-1.1,0-2.1,0.1-3.2,0.1l0.1,0.8c0.9,0,1.9,0,2.9-0.1l2.9-0.1
			L70.6,205.7z M63.7,214.9c0.8-0.4,1.6-1,2.3-1.6c0.8-0.6,1.5-1.4,2.1-2.1c0.3-0.4,0.6-0.8,0.8-1.3c0.3-0.5,0.5-0.9,0.7-1.4
			c0.2-0.5,0.4-1,0.6-1.4c0.2-0.5,0.3-0.9,0.4-1.4l-0.9,0.3c-0.2,0.8-0.4,1.6-0.8,2.4c-0.4,0.9-0.8,1.7-1.4,2.4
			c-0.6,0.7-1.3,1.4-2,2c-0.7,0.6-1.5,1.1-2.3,1.5L63.7,214.9z M74.1,218.6h0.7V202h-0.7V218.6z M78.2,209.9h-3.3l-0.4,0.4l0.4,0.4
			h3.3L78.2,209.9z M61.9,186.3h3.9l4.1-0.1l4.1-0.1l3.8-0.1v-0.8l-3.8,0.1c-1.3,0-2.7,0.1-4.1,0.1l-4.1,0.1h-3.9L61.9,186.3z
			 M75.8,190.3l-2,0.1c-0.8,0-1.6,0.1-2.4,0.1h-2.4c-0.8,0-1.5,0-2,0v0.8c0.5,0,1.2,0,2,0h2.4l2.4-0.1c0.8,0,1.4-0.1,2-0.1
			L75.8,190.3z M66.9,191.3h0.7v-3.7h-0.7V191.3z M75.4,182.3l-1.9,0.1c-0.7,0-1.5,0.1-2.2,0.1H69c-0.7,0-1.4,0-1.9,0v0.8
			c0.5,0,1.2,0,1.9,0h2.2l2.2-0.1l1.9-0.1V182.3z M67.1,182.9h0.7v-2.8h-0.7V182.9z M74.9,179.5c-0.5,0-1.1,0.1-1.8,0.1l-2.1,0.1
			h-2.1h-1.8v0.8h1.8h2.1l2.1-0.1l1.9-0.1L74.9,179.5z M74.2,179.9h0.7V177h-0.7V179.9z M74.9,176.7l-1.9,0.1l-2.2,0.1l-2.2,0.1
			h-1.8l0.1,0.8h1.8h2.2l2.2-0.1l1.9-0.1V176.7z M70.2,159.8c-0.9,0.1-1.9,0.1-2.9,0.1c-1,0-2,0-2.9,0v0.8h1.4h1.5h1.5l1.4-0.1
			V159.8z M71.8,166.2c-1.1,0.4-2.3,0.7-3.4,0.9c-1.3,0.2-2.6,0.3-3.9,0.2v0.7c1.3,0,2.7-0.1,4-0.3c1.2-0.2,2.4-0.5,3.6-0.9
			L71.8,166.2z M64.4,168.1l0.7-0.2v-7.3h-0.7V168.1z M78.2,163.8h-3.3l-0.4,0.4l0.4,0.4h3.3V163.8z M74.1,172.6h0.7V156h-0.7V172.6
			z M73.6,145.5c0.2,0.5,0.6,0.9,1.1,1.1c0.5,0.2,1.1,0.2,1.6,0c0.2-0.1,0.5-0.3,0.7-0.4c0.2-0.2,0.3-0.4,0.4-0.7
			c0.2-0.5,0.2-1.1,0-1.6c-0.1-0.2-0.3-0.5-0.4-0.7c-0.2-0.2-0.4-0.3-0.7-0.4c-0.8-0.3-1.7-0.1-2.3,0.4
			C73.5,143.9,73.3,144.8,73.6,145.5 M76.5,145.7c-0.5,0.5-1.4,0.5-1.9,0c-0.5-0.5-0.5-1.4,0-1.9c0.5-0.5,1.4-0.5,1.9,0
			C77,144.3,77,145.2,76.5,145.7 M70.2,125.1c-0.9,0.1-1.9,0.1-2.9,0.2c-1,0-2,0-2.9,0v0.8h1.4h1.5h1.5l1.4-0.1V125.1z M71.8,131.5
			c-1.1,0.4-2.3,0.7-3.4,0.9c-1.3,0.2-2.6,0.3-3.9,0.2v0.7c1.3,0,2.7-0.1,4-0.3c1.2-0.2,2.4-0.5,3.6-0.9L71.8,131.5z M64.4,133.3
			l0.7-0.2v-7.2h-0.7V133.3z M78.2,129.1h-3.3l-0.4,0.4l0.4,0.4h3.3L78.2,129.1z M74.1,137.9h0.7v-16.6h-0.7V137.9z M72,111.3
			c-1.2,0.4-2.4,0.7-3.6,0.9c-1.3,0.2-2.6,0.4-3.9,0.4v0.7c1.3-0.1,2.7-0.2,4-0.5c1.3-0.2,2.5-0.5,3.7-0.9L72,111.3z M64.5,113.3
			l0.7-0.2v-8h-0.7V113.3z M74.2,117.9h0.7v-16.6h-0.7V117.9z M61.8,88.8h3.9l4.1-0.1c1.4,0,2.7,0,4.1-0.1l3.8-0.2v0.8L74,89.4
			l-4.1,0.1l-4.1,0.1h-3.9L61.8,88.8z M76,85.9l-4.2-2.2l-0.4,0.7l2,1.1l2.1,1.1L76,85.9z M66.3,86.7c1.3-0.4,2.6-1.1,3.6-2.1
			c1-1,1.6-2.2,1.9-3.6l-0.7-0.2c-0.2,0.6-0.4,1.3-0.7,1.8c-0.3,0.5-0.6,1-1,1.4c-0.4,0.4-0.9,0.8-1.4,1.1c-0.6,0.3-1.3,0.6-2,0.8
			L66.3,86.7z M74.8,97.1h-7.4v-0.8h7.4L74.8,97.1z M74.8,93.8l-1.7,0.1h-2h-2h-1.6v-0.8h1.7h2l2-0.1l1.7-0.1L74.8,93.8z M74.8,96.6
			h-0.7V91h0.7V96.6z M67.4,91.3h0.7v5.4h-0.7V91.3z M74.6,64.1h-3.3v0.8h3.3V64.1z M74.6,67.5h-3.3v0.8h3.3V67.5z M71.2,75
			l-1.9-1.4l-0.4,0.6l1.7,1.3L71.2,75z M65,76.9c2.1-0.9,3.7-2.8,4.3-5.1l-0.8-0.2c-0.2,1-0.7,2-1.4,2.8c-0.7,0.8-1.6,1.4-2.6,1.8
			L65,76.9z M77.1,76.6L74,74.3l-0.5,0.6l0.8,0.6L75,76l0.7,0.6l0.8,0.6L77.1,76.6z M70.4,77.3c0.5-0.3,1-0.6,1.4-1
			c0.4-0.4,0.8-0.8,1.1-1.3c0.3-0.5,0.6-1,0.8-1.5c0.2-0.5,0.4-1,0.5-1.6l-0.8-0.2c-0.2,1-0.6,2-1.2,2.9c-0.6,0.8-1.4,1.5-2.3,2
			L70.4,77.3z M71.3,69c-1.1,0.2-2.2,0.3-3.3,0.4c-1.1,0.1-2.2,0.1-3.3,0.1v-3H64v3.8c0.6,0,1.2,0,1.8,0s1.3,0,1.9-0.1
			c0.7,0,1.3-0.1,1.9-0.2s1.2-0.2,1.8-0.3L71.3,69z M69.9,66c-1.1,0.1-2.1,0.2-3,0.2L64,66.3V67c1,0,2,0,2.9-0.1
			c0.9,0,1.9-0.1,3-0.2L69.9,66z M69.2,66.4h0.7v-3.2h-0.7V66.4z M69.9,62.9L68.3,63l-1.5,0h-1.5h-1.5l0.1,0.8l2.9-0.1
			c0.9,0,1.9,0,3-0.1L69.9,62.9z M74.1,70.8h0.7v-9.5h-0.7V70.8z M62.4,55h3.8l3.9-0.1l3.9-0.1l3.7-0.1v-0.8L74,54
			c-1.3,0-2.6,0.1-3.9,0.1l-4,0.1h-3.8L62.4,55z M75,43.7l-2,0.1l-2.3,0.1h-2.3h-2l0.1,0.8h1.9h2.1h2.1l1.8-0.1L75,43.7z M73.8,52.5
			c0.1-0.6,0.3-1.3,0.4-2s0.3-1.5,0.4-2.3c0.1-0.8,0.2-1.5,0.3-2.3c0.1-0.8,0.1-1.5,0.2-2.3L74.2,44c0,0.6,0,1.3-0.1,2
			c-0.1,0.7-0.2,1.4-0.3,2.2c-0.1,0.7-0.2,1.5-0.4,2.2s-0.3,1.4-0.4,2L73.8,52.5z"/>
		<path class="st1" d="M93.5,377.5c0.7-0.5,1.4-1.1,1.9-1.8c0.5-0.7,1-1.4,1.4-2.2c0.4-0.8,0.7-1.7,0.9-2.5c0.2-0.9,0.4-1.8,0.5-2.8
			l-0.8-0.1c-0.1,0.9-0.2,1.8-0.4,2.7c-0.2,0.8-0.5,1.6-0.8,2.4c-0.4,0.7-0.8,1.4-1.3,2.1c-0.5,0.7-1.2,1.2-1.9,1.7L93.5,377.5z
			 M101.2,377.2l-2.9-4.1l-0.6,0.5c0.5,0.6,0.9,1.3,1.4,2s1,1.4,1.4,2.1L101.2,377.2z M104.2,371.6h-3.9v0.8h3.9V371.6z
			 M104.1,381.9h0.7v-16.7h-0.7V381.9z M93.7,354.4c0.2,0.4,0.4,0.8,0.7,1.2c0.3,0.3,0.7,0.6,1.1,0.8c0.9,0.4,1.8,0.4,2.7,0
			c0.4-0.2,0.8-0.5,1.1-0.8c0.3-0.3,0.6-0.7,0.7-1.2c0.4-0.9,0.4-2,0-2.9c-0.2-0.4-0.4-0.8-0.7-1.2c-0.3-0.3-0.7-0.6-1.1-0.8
			c-0.9-0.4-1.8-0.4-2.7,0c-0.4,0.2-0.8,0.5-1.1,0.8c-0.3,0.3-0.6,0.7-0.7,1.2C93.3,352.4,93.3,353.5,93.7,354.4 M94.3,351.8
			c0.1-0.4,0.3-0.7,0.6-1c0.2-0.3,0.5-0.5,0.8-0.6c0.3-0.2,0.7-0.2,1.1-0.2c0.4,0,0.7,0.1,1.1,0.2c0.3,0.2,0.6,0.4,0.8,0.6
			c0.2,0.3,0.4,0.6,0.6,1c0.3,0.8,0.3,1.6,0,2.4c-0.1,0.4-0.3,0.7-0.6,1c-0.2,0.3-0.5,0.5-0.8,0.6c-0.3,0.2-0.7,0.2-1.1,0.2
			c-0.4,0-0.7-0.1-1.1-0.2c-0.3-0.2-0.6-0.4-0.8-0.6c-0.3-0.3-0.4-0.6-0.6-1C94.1,353.4,94.1,352.5,94.3,351.8 M104.6,350.3h-3.5
			v0.8h3.5V350.3z M104.6,354.9h-3.5v0.8h3.5V354.9z M104.1,361.9h0.7v-16.6h-0.7V361.9z M91.9,332.7h3.9l4.1-0.1l4.1-0.1l3.8-0.1
			v-0.8l-3.8,0.1c-1.3,0-2.7,0.1-4.1,0.1l-4.1,0.1h-3.9L91.9,332.7z M105,325.5l-1.9,0.1l-2.2,0.1h-2.2h-1.9l0.1,0.8h1.9l2.2,0
			l2.2-0.1l1.9-0.1V325.5z M105.7,329.6l-4.2-1.6l-0.3,0.7l2.1,0.8l2.1,0.8L105.7,329.6z M96.3,330.5c1.3-0.3,2.5-0.8,3.5-1.7
			c0.8-0.7,1.4-1.7,1.7-2.7l-0.7-0.2c-0.2,1-0.8,1.9-1.6,2.5c-0.9,0.7-2,1.2-3.2,1.4L96.3,330.5z M100.8,335.2h0.7v-3.1h-0.7V335.2z
			 M106,340.2l-2,0.1c-0.8,0-1.6,0.1-2.4,0.1h-2.4c-0.8,0-1.5,0-2,0v0.8c0.5,0,1.2,0,2,0h2.4l2.4-0.1c0.8,0,1.4-0.1,2-0.1L106,340.2
			z M97.1,340.8h0.7V338h-0.7V340.8z M104.9,337.4c-0.5,0-1.1,0.1-1.8,0.1l-2.1,0.1h-2.1h-1.8v0.8h1.7h2.1l2.1-0.1l1.8-0.1
			L104.9,337.4z M104.1,337.8h0.7V335h-0.7V337.8z M104.9,334.7l-1.9,0.1l-2.2,0.1l-2.1,0.1h-1.8l0.1,0.8h1.8l2.1,0l2.1-0.1l1.9-0.1
			L104.9,334.7z M91.9,307.9h3.9l4.1-0.1l4.1-0.1l3.8-0.1v-0.8l-3.8,0.1c-1.3,0-2.7,0.1-4.1,0.1l-4.1,0.1h-3.9L91.9,307.9z
			 M105.4,304.3l-1.9,0.1c-0.7,0-1.5,0.1-2.2,0.1H99c-0.7,0-1.4,0-1.9,0v0.8c0.5,0,1.2,0,1.9,0h2.2l2.2-0.1l1.9-0.1V304.3z
			 M97.1,304.9h0.7v-2.5h-0.7V304.9z M104.9,301.8c-0.5,0-1.1,0.1-1.8,0.1L101,302h-2.1h-1.8v0.8h1.8l2.1,0l2.1-0.1l1.9-0.1
			L104.9,301.8z M104.2,302.2h0.7v-2.5h-0.7V302.2z M104.9,299.4l-1.9,0.1l-2.2,0.1l-2.2,0h-1.8l0.1,0.8h1.8l2.2,0l2.2-0.1l1.9-0.1
			V299.4z M105.9,314.4l-2,0.1c-0.8,0-1.6,0.1-2.4,0.1h-2.4c-0.8,0-1.5,0-2,0v0.8c0.5,0,1.2,0,2,0h2.4l2.4-0.1c0.8,0,1.4,0,2-0.1
			L105.9,314.4z M97.1,315h0.7v-2.5h-0.7V315z M104.8,311.9c-0.5,0-1.1,0.1-1.8,0.1l-2,0h-2.1h-1.8v0.8h1.7l2.1,0l2.1-0.1l1.8-0.1
			L104.8,311.9z M104.1,312.2h0.7v-2.5h-0.7V312.2z M104.8,309.4l-1.9,0.1l-2.2,0.1l-2.1,0h-1.8l0.1,0.8h1.8l2.1,0l2.1-0.1l1.9-0.1
			L104.8,309.4z M100.5,283c-1.1,0.1-2.2,0.1-3.3,0.1l-3.2,0.1L94,284l2.9-0.1l2.9-0.1L100.5,283z M93.5,292.2
			c0.9-0.4,1.7-1,2.4-1.6c0.8-0.7,1.5-1.4,2.1-2.2c0.3-0.4,0.6-0.8,0.8-1.3c0.3-0.5,0.5-0.9,0.7-1.4c0.2-0.5,0.4-1,0.6-1.4
			c0.2-0.5,0.3-0.9,0.4-1.4l-0.9,0.3c-0.2,0.8-0.4,1.6-0.8,2.4c-0.4,0.9-0.9,1.7-1.5,2.4c-0.6,0.7-1.3,1.4-2,2
			c-0.7,0.6-1.5,1.1-2.3,1.5L93.5,292.2z M104.1,296h0.7v-16.7h-0.7V296z M92.4,273h3.8l3.9-0.1l3.9-0.1l3.7-0.1v-0.8L104,272
			c-1.3,0-2.6,0.1-3.9,0.1l-3.9,0.1h-3.8L92.4,273z M104.3,265.7c-0.7,0.1-1.4,0.3-2.1,0.4s-1.5,0.2-2.2,0.3l-2.2,0.2
			c-0.7,0.1-1.5,0.1-2.1,0.1l0.1,0.7c0.7,0,1.4-0.1,2.1-0.2l2.2-0.2c0.7-0.1,1.5-0.2,2.2-0.3c0.7-0.1,1.4-0.2,2.1-0.3L104.3,265.7z
			 M105,261.6l-2,0.1l-2.4,0.1h-2.4h-2l0.1,0.8h1.9h2.2h2.2l1.8-0.1L105,261.6z M103.7,270.6c0.2-0.6,0.3-1.3,0.4-2.1
			c0.1-0.8,0.3-1.5,0.4-2.3c0.1-0.8,0.2-1.6,0.3-2.4s0.1-1.5,0.2-2.3l-0.8,0.3c0,0.6,0,1.3-0.1,2s-0.2,1.5-0.3,2.3
			c-0.1,0.8-0.2,1.5-0.3,2.2c-0.1,0.7-0.3,1.4-0.4,2L103.7,270.6z M94.8,240.1c0.2,0.4,0.4,0.7,0.7,1c0.3,0.3,0.6,0.5,1,0.7
			c0.8,0.3,1.7,0.3,2.6,0c0.4-0.2,0.7-0.4,1-0.7c0.3-0.3,0.5-0.6,0.7-1c0.3-0.8,0.3-1.7,0-2.5c-0.2-0.4-0.4-0.7-0.7-1
			c-0.3-0.3-0.6-0.5-1-0.7c-0.8-0.3-1.7-0.3-2.6,0c-0.4,0.2-0.7,0.4-1,0.7c-0.6,0.6-0.9,1.4-0.9,2.3
			C94.6,239.3,94.7,239.8,94.8,240.1 M95.5,237.9c0.1-0.3,0.3-0.6,0.5-0.8c0.2-0.2,0.5-0.4,0.8-0.5c0.6-0.3,1.4-0.3,2,0
			c0.3,0.1,0.6,0.3,0.8,0.5c1,1,1,2.5,0,3.5c-0.2,0.2-0.5,0.4-0.8,0.5c-0.6,0.3-1.4,0.3-2,0c-0.3-0.1-0.6-0.3-0.8-0.5
			C95.4,239.9,95.1,238.9,95.5,237.9 M104.1,249.9h0.7v-16.7h-0.7V249.9z M103,244.5c-1,0.2-1.9,0.3-2.8,0.4
			c-0.9,0.1-1.7,0.2-2.5,0.3c-0.8,0.1-1.7,0.1-2.5,0.2c-0.8,0.1-1.8,0.1-2.8,0.1l0.2,0.8c1,0,1.9-0.1,2.8-0.2
			c0.8-0.1,1.7-0.1,2.5-0.2c0.8-0.1,1.6-0.2,2.5-0.3l2.7-0.4L103,244.5z M93.8,225.8c1.3-1,2.3-2.2,3.2-3.6c0.8-1.4,1.4-2.9,1.8-4.5
			l-0.8-0.1c-0.2,0.8-0.4,1.5-0.7,2.3c-0.3,0.7-0.6,1.4-1,2c-0.4,0.6-0.8,1.2-1.3,1.7c-0.5,0.6-1.1,1.1-1.7,1.7L93.8,225.8z
			 M108.2,221h-3.3l-0.4,0.4l0.4,0.4h3.3V221z M102.3,224.9l-3.9-3.6l-0.5,0.6l0.9,0.8l1,0.9l1,1l0.9,0.9L102.3,224.9z M101.5,217
			l-1.7,0.1l-2.1,0.1h-2.1H94l0.1,0.8h1.7l2-0.1l2.1-0.1l1.7-0.1L101.5,217z M104.1,229.9h0.7v-16.6h-0.7V229.9z M91.9,200.1h3.9
			l4.1-0.1l4.1-0.1c1.3,0,2.6-0.1,3.8-0.1V199l-3.8,0.1c-1.3,0-2.7,0.1-4.1,0.1l-4.1,0.1h-3.9L91.9,200.1z M105,193.7l-1.9,0.1
			l-2.2,0.1h-2.2h-1.8l0.1,0.8h1.7h2h2l1.7-0.1L105,193.7z M104.3,198.3c0.1-0.4,0.2-0.8,0.3-1.2c0.1-0.4,0.1-0.7,0.2-1.1
			c0.1-0.3,0.1-0.7,0.1-1.1c0-0.4,0.1-0.8,0.1-1.3l-0.8,0.3c0,0.4-0.1,0.8-0.1,1.1s-0.1,0.7-0.1,1s-0.1,0.6-0.2,1s-0.2,0.7-0.3,1.1
			L104.3,198.3z M106,207.9l-2,0.1c-0.8,0-1.6,0.1-2.4,0.1h-2.4c-0.8,0-1.5,0-2,0v0.8c0.5,0,1.2,0,2,0h2.4l2.4-0.1
			c0.8,0,1.4,0,2-0.1L106,207.9z M97.2,208.5h0.7v-2.9h-0.7V208.5z M104.9,205c-0.5,0-1.1,0.1-1.8,0.1l-2.1,0.1h-2.1h-1.8v0.8h1.7
			l2.1-0.1l2.1-0.1l1.8-0.1L104.9,205z M104.2,205.4h0.7v-2.9h-0.7V205.4z M104.9,202.2l-1.9,0.1l-2.2,0.1l-2.1,0.1h-1.8l0.1,0.8
			h1.8h2.1l2.1-0.1l1.9-0.1L104.9,202.2z M101.3,179.2c-0.5,0.1-1,0.3-1.5,0.4c-0.6,0.1-1.1,0.2-1.8,0.3c-0.6,0.1-1.2,0.1-1.8,0.2
			c-0.6,0-1.1,0.1-1.6,0.1v0.7c0.5,0,1,0,1.6-0.1c0.6,0,1.2-0.1,1.8-0.2c0.6-0.1,1.2-0.2,1.8-0.3c0.6-0.1,1.1-0.2,1.6-0.3
			L101.3,179.2z M94.7,180.5h0.7v-5.4h-0.7V180.5z M98.8,186.3h1.6l1.6-0.1l1.6-0.1l1.5-0.1v-0.8c-0.9,0.1-1.9,0.1-3,0.1l-3.2,0.1
			L98.8,186.3z M105.9,187.9L104,188c-0.7,0-1.5,0.1-2.2,0.1h-2.3c-0.7,0-1.4,0-1.9,0v0.9c0.5,0,1.2,0,1.9,0h2.3l2.3-0.1l1.9-0.1
			V187.9z M97.6,188.5h0.7v-5.5l-0.7-0.2V188.5z M105.3,182.6l-1.8,0.1l-2.1,0.1l-2,0.1h-1.8l0.1,0.8h1.8l2-0.1l2-0.1l1.8-0.1
			L105.3,182.6z M108.3,177.7h-3.3l-0.4,0.4l0.4,0.4h3.3V177.7z M104.2,181.4h0.7v-8.2h-0.7V181.4z M93.7,156.4
			c0.2,0.4,0.4,0.8,0.7,1.2c0.3,0.3,0.7,0.6,1.1,0.8c0.9,0.4,1.8,0.4,2.7,0c0.4-0.2,0.8-0.5,1.1-0.8c0.3-0.3,0.6-0.7,0.7-1.2
			c0.4-0.9,0.4-2,0-2.9c-0.2-0.4-0.4-0.8-0.7-1.2c-0.3-0.3-0.7-0.6-1.1-0.8c-0.9-0.4-1.8-0.4-2.7,0c-0.4,0.2-0.8,0.5-1.1,0.8
			c-0.3,0.3-0.6,0.7-0.7,1.2C93.3,154.4,93.3,155.5,93.7,156.4 M94.3,153.8c0.1-0.4,0.3-0.7,0.6-1c0.2-0.3,0.5-0.5,0.8-0.6
			c0.3-0.2,0.7-0.2,1.1-0.2c0.4,0,0.7,0.1,1.1,0.2c0.3,0.2,0.6,0.4,0.8,0.6c0.3,0.3,0.4,0.6,0.6,1c0.3,0.8,0.3,1.6,0,2.4
			c-0.1,0.3-0.3,0.7-0.6,0.9c-0.2,0.3-0.5,0.5-0.8,0.6c-0.3,0.2-0.7,0.2-1.1,0.2c-0.4,0-0.7-0.1-1.1-0.2c-0.3-0.2-0.6-0.4-0.8-0.6
			c-0.2-0.3-0.4-0.6-0.6-0.9C94.1,155.4,94.1,154.5,94.3,153.8 M104.6,152.3h-3.5v0.8h3.5V152.3z M104.6,156.9h-3.5v0.8h3.5V156.9z
			 M104.1,163.9h0.7v-16.6h-0.7V163.9z M92.4,140.9h3.8l3.9-0.1l3.9-0.1l3.7-0.1v-0.8l-3.8,0.1c-1.3,0-2.6,0.1-3.9,0.1l-3.9,0.1
			h-3.8L92.4,140.9z M104.8,135.5h-7.4v0.8h7.4V135.5z M104.8,131.6l-1.7,0.1l-2,0.1h-2h-1.7v0.8h1.7h2h2l1.7-0.1L104.8,131.6z
			 M104.8,128.7h-0.7v7h0.7V128.7z M97.4,136h0.7v-6.9h-0.7V136z M100.8,140.2h0.7v-3.1h-0.7V140.2z M104.6,112.8h-4.4v0.8h4.4
			V112.8z M94.9,106.6c0.2,0.3,0.4,0.6,0.6,0.9c0.3,0.3,0.6,0.5,1,0.6c0.8,0.3,1.6,0.3,2.4,0c0.4-0.1,0.7-0.3,1-0.6
			c0.3-0.3,0.5-0.6,0.6-0.9c0.4-1,0.2-2.2-0.6-3c-0.3-0.3-0.6-0.5-1-0.6c-0.8-0.3-1.6-0.3-2.4,0c-0.4,0.1-0.7,0.3-1,0.6
			C94.7,104.3,94.5,105.5,94.9,106.6 M99.3,107c-1,0.8-2.4,0.8-3.3,0c-0.8-0.8-0.9-2-0.1-2.8c0,0,0.1-0.1,0.1-0.1
			c1-0.8,2.3-0.8,3.3,0C100.1,104.8,100.2,106.1,99.3,107C99.4,106.9,99.3,107,99.3,107 M96.9,110.5c-0.1,1-0.3,2.1-0.5,3.1
			c-0.2,1-0.6,2-1,3l0.7,0.3c0.4-1,0.7-2.1,1-3.1c0.3-1.1,0.5-2.2,0.5-3.3L96.9,110.5z M104.1,117.9h0.7v-16.6h-0.7V117.9z
			 M101.8,109.7c-1.6,0.2-3.2,0.4-4.8,0.6c-1.6,0.1-3.2,0.2-5,0.3l0.2,0.8c1.7-0.1,3.4-0.2,4.9-0.4c1.6-0.1,3.1-0.3,4.7-0.5
			L101.8,109.7z M92.4,95.3h3.8l3.9-0.1l3.9-0.1l3.7-0.1v-0.8l-3.8,0.2c-1.3,0-2.6,0.1-3.9,0.1l-3.9,0.1h-3.8L92.4,95.3z
			 M100.8,94.6h0.7v-3.1h-0.7V94.6z M105.4,90l-1.9,0.1c-0.7,0-1.5,0.1-2.3,0.1h-2.3c-0.7,0-1.4,0-1.9,0V91c0.5,0,1.2,0,1.9,0h2.3
			l2.3-0.1l1.9-0.1L105.4,90z M96.9,90.6h0.7v-3.3h-0.7V90.6z M104.9,86.7c-0.5,0-1.2,0.1-1.9,0.1l-2.2,0.1h-2.2H97v0.8h1.8h2.2
			l2.2-0.1l1.9-0.1L104.9,86.7z M104.2,87h0.7v-3.3h-0.7V87z M104.9,83.4l-1.9,0.1l-2.2,0.1l-2.2,0.1h-1.9l0.1,0.8h1.8l2.2-0.1
			l2.2-0.1l1.9-0.1V83.4z M97.7,74.7h0.7v-2.1h-0.7V74.7z M101.6,65.4l-1.7,0.1l-2.2,0.1h-2.2h-1.7l0.1,0.8h1.7h2.1l2.2-0.1l1.7-0.1
			L101.6,65.4z M100.3,63.8c-0.7-0.2-1.4-0.5-2.1-0.8c-0.7-0.3-1.4-0.6-2.1-0.8L95.9,63c0.7,0.3,1.4,0.6,2.1,0.8l2.1,0.7L100.3,63.8
			z M108.2,69.2h-3.3l-0.4,0.4l0.4,0.4h3.3V69.2z M104.1,77.9h0.7V61.2h-0.7V77.9z M95.4,70.7c0.1,0.3,0.3,0.6,0.5,0.8
			c0.2,0.2,0.5,0.4,0.9,0.6c0.8,0.3,1.6,0.3,2.3,0c0.3-0.1,0.6-0.3,0.9-0.6c0.2-0.2,0.4-0.5,0.5-0.8c0.2-0.6,0.2-1.2,0-1.8
			c-0.1-0.3-0.3-0.6-0.5-0.8c-0.2-0.2-0.5-0.4-0.9-0.6c-0.8-0.3-1.6-0.3-2.3,0c-0.3,0.1-0.6,0.3-0.9,0.6c-0.2,0.2-0.4,0.5-0.5,0.8
			C95.2,69.5,95.2,70.1,95.4,70.7 M96.1,69.2c0.1-0.2,0.2-0.4,0.4-0.6c0.2-0.2,0.4-0.3,0.6-0.4c0.6-0.2,1.2-0.2,1.8,0
			c0.2,0.1,0.4,0.2,0.6,0.4c0.2,0.2,0.3,0.4,0.4,0.6c0.2,0.4,0.2,0.8,0,1.2c-0.2,0.5-0.5,0.8-1,1c-0.6,0.2-1.2,0.2-1.8,0
			c-0.5-0.2-0.8-0.5-1-1C95.9,70,95.9,69.6,96.1,69.2 M102.9,73.7c-1,0.2-1.9,0.3-2.8,0.4c-0.9,0.1-1.7,0.2-2.5,0.3
			s-1.7,0.1-2.5,0.2s-1.8,0.1-2.8,0.1l0.2,0.8c1,0,1.9-0.1,2.8-0.2c0.8-0.1,1.7-0.1,2.5-0.2c0.8-0.1,1.6-0.2,2.5-0.3l2.7-0.4
			L102.9,73.7z M92.4,55.2h3.8l3.9-0.1L104,55l3.7-0.1v-0.8l-3.8,0.2c-1.3,0-2.6,0.1-3.9,0.1l-3.9,0.1h-3.8L92.4,55.2z M105,43.6
			l-2,0.1l-2.3,0.1h-2.3h-2l0.1,0.8h1.9l2.3,0l2.3-0.1l2-0.1L105,43.6z M106.1,49.6l-4.5-3l-0.4,0.7l1.1,0.7l1.2,0.8l1.2,0.8
			l1.1,0.7L106.1,49.6z M95.9,50.5c1.4-0.5,2.7-1.3,3.7-2.4c1-1.1,1.7-2.5,1.9-3.9l-0.7-0.2c-0.2,1.4-0.9,2.6-1.8,3.7
			c-1,1-2.1,1.7-3.4,2.2L95.9,50.5z M100.6,54.5h0.7v-4.1h-0.7V54.5z"/>
		<path class="st1" d="M130.6,342.9c-1.1,0.1-2.2,0.1-3.3,0.1l-3.2,0.1l0.1,0.8l2.9-0.1l2.9-0.1L130.6,342.9z M123.6,352.1
			c0.9-0.4,1.7-1,2.4-1.6c0.8-0.6,1.5-1.4,2.1-2.1c0.3-0.4,0.6-0.8,0.8-1.3c0.3-0.5,0.5-0.9,0.7-1.4c0.2-0.5,0.4-1,0.6-1.4
			c0.2-0.5,0.3-0.9,0.4-1.4l-0.9,0.3c-0.2,0.8-0.4,1.6-0.8,2.4c-0.4,0.9-0.8,1.7-1.4,2.4c-0.6,0.7-1.3,1.4-2,2
			c-0.7,0.6-1.5,1.1-2.3,1.5L123.6,352.1z M134.1,355.9h0.7v-16.7h-0.7V355.9z M138.2,347.2h-3.3l-0.4,0.4l0.4,0.4h3.3V347.2z
			 M128.4,330.3c0.4-0.2,0.8-0.5,1.1-0.8c0.3-0.3,0.6-0.7,0.7-1.2c0.3-0.9,0.3-1.9,0-2.9c-0.2-0.4-0.4-0.8-0.7-1.2
			c-1.3-1.4-3.5-1.4-4.8-0.2c-0.1,0-0.1,0.1-0.2,0.2c-0.3,0.3-0.6,0.7-0.7,1.2c-0.3,0.9-0.3,1.9,0,2.9c0.2,0.4,0.4,0.8,0.7,1.2
			c0.3,0.3,0.7,0.6,1.1,0.8C126.6,330.7,127.6,330.7,128.4,330.3 M128.2,324.2c0.3,0.1,0.6,0.4,0.9,0.6c0.2,0.3,0.4,0.6,0.6,0.9
			c0.3,0.8,0.3,1.6,0,2.3c-0.1,0.3-0.3,0.7-0.6,0.9c-0.2,0.3-0.5,0.5-0.9,0.6c-0.7,0.3-1.5,0.3-2.3,0c-0.4-0.2-0.7-0.4-0.9-0.7
			c-0.2-0.3-0.4-0.6-0.6-0.9c-0.3-0.8-0.3-1.6,0-2.3c0.1-0.3,0.3-0.7,0.6-0.9c0.2-0.3,0.5-0.5,0.9-0.6
			C126.6,323.9,127.4,323.9,128.2,324.2 M134.1,335.9h0.7v-16.6h-0.7V335.9z M123.5,311.4c1.4-1,2.6-2.4,3.3-3.9
			c0.8-1.7,1.3-3.4,1.5-5.3l-0.8-0.1c-0.1,1.7-0.6,3.4-1.3,5c-0.7,1.5-1.8,2.8-3.2,3.7L123.5,311.4z M138.2,306.8h-3.3l-0.4,0.4
			l0.4,0.4h3.3V306.8z M131.6,310.8l-3.3-4l-0.6,0.5l1.6,1.9c0.6,0.7,1.1,1.4,1.6,2.1L131.6,310.8z M134.1,315.9h0.7v-16.7h-0.7
			V315.9z M123.8,291.8c1.2-1,2.3-2.2,3.2-3.6c0.8-1.4,1.4-2.9,1.8-4.5l-0.8-0.1c-0.2,0.8-0.4,1.5-0.7,2.3c-0.3,0.7-0.6,1.4-1,2
			c-0.4,0.6-0.8,1.2-1.3,1.8c-0.5,0.6-1.1,1.1-1.7,1.7L123.8,291.8z M138.2,287h-3.3l-0.4,0.4l0.4,0.4h3.3V287z M132.3,290.9
			l-3.9-3.6l-0.5,0.6l0.9,0.8l1,0.9l1,1l0.9,0.9L132.3,290.9z M131.5,283l-1.7,0.1l-2.1,0.1h-2.1H124l0.1,0.8h1.7l2,0l2.1-0.1
			l1.7-0.1L131.5,283z M134.1,295.9h0.7v-16.6h-0.7V295.9z M121.9,266.1h3.9l4.1-0.1l4.1-0.1l3.8-0.1V265l-3.9,0.1
			c-1.3,0-2.7,0.1-4.1,0.1l-4.1,0.1h-3.9L121.9,266.1z M135,259.7l-1.9,0.1l-2.2,0.1h-2.2h-1.8l0.1,0.8h1.7h2h2l1.7-0.1L135,259.7z
			 M134.3,264.3c0.1-0.4,0.2-0.8,0.3-1.2c0.1-0.4,0.1-0.7,0.2-1.1c0.1-0.3,0.1-0.7,0.1-1.1c0-0.4,0.1-0.8,0.1-1.3l-0.8,0.3
			c0,0.4-0.1,0.8-0.1,1.1s-0.1,0.7-0.1,1s-0.1,0.6-0.2,1s-0.2,0.7-0.3,1.1L134.3,264.3z M136,273.9l-2,0.1c-0.8,0-1.6,0.1-2.4,0.1
			h-2.4c-0.8,0-1.5,0-2,0v0.8c0.5,0,1.2,0,2,0h2.4l2.4-0.1c0.8,0,1.4,0,2-0.1L136,273.9z M127.2,274.5h0.7v-2.9h-0.7V274.5z
			 M134.9,271c-0.5,0-1.1,0.1-1.8,0.1l-2.1,0.1h-2.1h-1.8v0.8h1.7l2.1,0l2.1-0.1l1.8-0.1L134.9,271z M134.2,271.4h0.7v-2.9h-0.7
			V271.4z M134.9,268.2l-1.9,0.1l-2.2,0.1l-2.1,0h-1.8l0.1,0.8h1.8l2.1,0l2.1-0.1l1.9-0.1L134.9,268.2z M138.1,242.9h-3.2l-0.4,0.4
			l0.4,0.4h3.2V242.9z M138.1,238.6h-3.2l-0.4,0.4l0.4,0.4h3.2V238.6z M128.5,244.3c0.4-0.2,0.8-0.4,1.1-0.8
			c0.3-0.3,0.5-0.7,0.7-1.2c0.3-0.9,0.3-1.9,0-2.9c-0.2-0.4-0.4-0.8-0.7-1.2c-0.3-0.3-0.7-0.6-1.1-0.8c-0.9-0.4-1.9-0.4-2.8,0
			c-0.4,0.2-0.8,0.5-1.1,0.8c-0.3,0.3-0.5,0.7-0.7,1.2c-0.3,0.9-0.3,1.9,0,2.9c0.2,0.4,0.4,0.8,0.7,1.2c0.3,0.3,0.7,0.6,1.1,0.8
			C126.6,244.7,127.6,244.7,128.5,244.3 M128.3,238.2c0.3,0.1,0.6,0.4,0.8,0.6c0.2,0.3,0.4,0.6,0.5,0.9c0.3,0.7,0.3,1.6,0,2.3
			c-0.1,0.3-0.3,0.7-0.5,0.9c-0.2,0.3-0.5,0.5-0.8,0.6c-0.7,0.3-1.5,0.3-2.3,0c-0.3-0.1-0.6-0.4-0.8-0.6c-0.2-0.3-0.4-0.6-0.5-0.9
			c-0.3-0.7-0.3-1.6,0-2.3c0.1-0.3,0.3-0.7,0.5-0.9c0.2-0.3,0.5-0.5,0.8-0.6C126.7,237.9,127.5,237.9,128.3,238.2 M134.2,249.9h0.7
			v-16.7h-0.7V249.9z M123.7,222.4c0.2,0.4,0.4,0.8,0.7,1.2c0.3,0.3,0.7,0.6,1.1,0.8c0.9,0.4,1.8,0.4,2.7,0c0.4-0.2,0.8-0.5,1.1-0.8
			c0.3-0.3,0.6-0.7,0.7-1.2c0.4-0.9,0.4-2,0-2.9c-0.2-0.4-0.4-0.8-0.7-1.2c-0.3-0.3-0.7-0.6-1.1-0.8c-0.9-0.4-1.8-0.4-2.7,0
			c-0.4,0.2-0.8,0.5-1.1,0.8c-0.3,0.3-0.6,0.7-0.7,1.2C123.4,220.4,123.4,221.5,123.7,222.4 M124.4,219.8c0.1-0.3,0.3-0.7,0.6-0.9
			c0.2-0.3,0.5-0.5,0.8-0.6c0.3-0.2,0.7-0.2,1.1-0.2c0.4,0,0.7,0.1,1.1,0.2c0.3,0.2,0.6,0.4,0.8,0.6c0.2,0.3,0.4,0.6,0.6,0.9
			c0.3,0.8,0.3,1.6,0,2.4c-0.1,0.3-0.3,0.7-0.6,0.9c-0.2,0.3-0.5,0.5-0.8,0.6c-0.3,0.2-0.7,0.2-1.1,0.2c-0.4,0-0.7-0.1-1.1-0.2
			c-0.3-0.2-0.6-0.4-0.8-0.6c-0.2-0.3-0.4-0.6-0.6-0.9C124.1,221.4,124.1,220.5,124.4,219.8 M134.6,218.3h-3.5v0.8h3.5V218.3z
			 M134.6,222.9h-3.5v0.8h3.5V222.9z M134.2,229.9h0.7v-16.6h-0.7V229.9z M130.6,196.9c-1.1,0.1-2.2,0.1-3.3,0.1
			c-1.1,0-2.2,0.1-3.2,0.1l0.1,0.8l2.9-0.1l2.9-0.1L130.6,196.9z M123.6,206.1c0.9-0.4,1.7-1,2.4-1.6c0.8-0.6,1.5-1.4,2.1-2.1
			c0.3-0.4,0.6-0.8,0.8-1.3c0.3-0.5,0.5-0.9,0.7-1.4c0.2-0.5,0.4-1,0.6-1.4c0.2-0.5,0.3-0.9,0.4-1.4l-0.9,0.3
			c-0.2,0.8-0.4,1.6-0.8,2.4c-0.4,0.9-0.9,1.7-1.5,2.4c-0.6,0.7-1.3,1.4-2,2c-0.7,0.6-1.5,1.1-2.3,1.5L123.6,206.1z M134.1,209.8
			h0.7v-16.6h-0.7V209.8z M122.4,187h3.8l3.9-0.1l3.9-0.1l3.7-0.1v-0.8L134,186c-1.3,0-2.6,0.1-3.9,0.1l-4,0.1h-3.8L122.4,187z
			 M134.3,179.7c-0.7,0.1-1.4,0.3-2.1,0.4c-0.7,0.1-1.5,0.2-2.2,0.3c-0.7,0.1-1.5,0.2-2.2,0.2c-0.7,0.1-1.5,0.1-2.1,0.1l0.1,0.7
			c0.7,0,1.4-0.1,2.1-0.1l2.2-0.2c0.7-0.1,1.5-0.2,2.2-0.3c0.7-0.1,1.4-0.2,2.1-0.3L134.3,179.7z M135,175.6l-2,0.1l-2.4,0.1h-2.4
			h-2l0.1,0.8h1.9h2.2h2.2l1.8-0.1L135,175.6z M133.7,184.6c0.2-0.6,0.3-1.3,0.4-2.1c0.1-0.8,0.3-1.5,0.4-2.3s0.2-1.6,0.3-2.4
			s0.1-1.5,0.2-2.3l-0.8,0.3c0,0.6,0,1.3-0.1,2.1c-0.1,0.7-0.2,1.5-0.3,2.3c-0.1,0.8-0.2,1.5-0.4,2.2c-0.1,0.7-0.3,1.4-0.4,2
			L133.7,184.6z M121.9,156.5h3.9l4.1-0.1l4.1-0.1c1.3,0,2.6-0.1,3.8-0.1v-0.8l-3.9,0.1c-1.3,0-2.7,0.1-4.1,0.1l-4.1,0.1h-3.9
			L121.9,156.5z M132.5,153.3c0.4-0.1,0.8-0.3,1.1-0.6c1-0.8,1.3-2.2,0.7-3.4c-0.2-0.4-0.4-0.7-0.7-0.9c-0.3-0.3-0.7-0.5-1.1-0.6
			c-0.9-0.3-1.9-0.3-2.8,0c-0.4,0.1-0.8,0.3-1.1,0.6c-1,0.8-1.3,2.2-0.7,3.4c0.2,0.4,0.4,0.7,0.7,0.9c0.3,0.3,0.7,0.5,1.1,0.6
			C130.7,153.6,131.6,153.6,132.5,153.3 M129.2,152.2c-0.9-0.7-1.1-2-0.3-3c0.1-0.1,0.2-0.2,0.3-0.3c1.2-0.8,2.8-0.8,4,0
			c0.9,0.7,1.1,2,0.3,3c-0.1,0.1-0.2,0.2-0.3,0.3C131.9,153,130.4,153,129.2,152.2 M135.8,161.4l-2,0.1c-0.8,0-1.6,0.1-2.4,0.1h-2.4
			c-0.8,0-1.5,0-2,0v0.8c0.5,0,1.2,0,2,0h2.4l2.4-0.1c0.8,0,1.4,0,2-0.1L135.8,161.4z M126.9,162.4h0.7v-4.3h-0.7V162.4z M132,135.7
			l-3.5-2.9l-0.5,0.6c0.6,0.5,1.1,0.9,1.7,1.4c0.5,0.5,1.1,1,1.7,1.5L132,135.7z M131.3,129.4l-1.6,0.1l-1.9,0.1l-1.9,0.1h-1.6
			l0.1,0.8h1.6l1.9-0.1l1.9-0.1l1.6-0.1V129.4z M124,137.2c1.2-0.8,2.2-1.8,2.9-3c0.7-1.3,1.2-2.7,1.5-4.1l-0.8-0.1
			c-0.1,0.7-0.3,1.4-0.5,2.1c-0.2,0.6-0.5,1.2-0.8,1.7c-0.3,0.5-0.7,1-1.2,1.5c-0.5,0.5-1,0.9-1.6,1.3L124,137.2z M134.1,137.2h0.7
			v-10h-0.7V137.2z M134.8,138.5l-2,0.1l-2.4,0.1l-2.3,0.1h-1.9l0.1,0.8h1.9l2.3-0.1l2.3-0.1l2-0.1L134.8,138.5z M134.1,143.7h0.7
			V139h-0.7V143.7z M138.2,132.7h-3.3l-0.4,0.4l0.4,0.4h3.3V132.7z M130.9,108.9h3.6v-0.8h-3.6V108.9z M130.9,105.5h3.6v-0.8h-3.6
			V105.5z M124.1,109.2h0.7v-5.6h-0.7V109.2z M129.9,103.5c-0.9,0.1-1.9,0.1-2.9,0.1h-2.9l0.1,0.8h2.9c1,0,1.9,0,2.9-0.1V103.5z
			 M129.2,109.3h0.8V104h-0.7L129.2,109.3z M129.9,108.9h-5.8v0.8h5.9L129.9,108.9z M134.1,113.1h0.7v-11.9h-0.7V113.1z
			 M135.9,115.5l-1.9,0.1c-0.8,0-1.5,0.1-2.3,0.1h-2.4c-0.8,0-1.4,0-2,0v0.8c0.5,0,1.2,0,2,0h2.4l2.4-0.1l1.9-0.1L135.9,115.5z
			 M127.3,116.3h0.7v-4.3h-0.7V116.3z M128.8,94.2c0.7-0.3,1.2-0.9,1.5-1.6c0.3-0.7,0.3-1.4,0-2.1c-0.3-0.7-0.8-1.3-1.5-1.6
			c-0.8-0.3-1.7-0.3-2.6,0c-0.7,0.3-1.2,0.9-1.5,1.6c-0.3,0.7-0.3,1.4,0,2.1c0.3,0.7,0.8,1.3,1.5,1.6C127,94.5,128,94.5,128.8,94.2
			 M126.5,93.6c-0.3-0.1-0.5-0.3-0.7-0.5c-0.2-0.2-0.3-0.4-0.4-0.7c-0.1-0.2-0.1-0.5-0.1-0.8c0-0.3,0-0.5,0.1-0.8
			c0.1-0.3,0.2-0.5,0.4-0.7c0.2-0.2,0.4-0.4,0.7-0.5c0.6-0.3,1.4-0.3,2,0c0.3,0.1,0.5,0.3,0.7,0.5c0.2,0.2,0.3,0.4,0.4,0.7
			c0.1,0.2,0.1,0.5,0.1,0.8c0,0.3,0,0.5-0.1,0.8c-0.1,0.3-0.2,0.5-0.4,0.7c-0.2,0.2-0.4,0.4-0.7,0.5
			C127.9,93.8,127.1,93.8,126.5,93.6 M138.2,89.2h-3.3l-0.4,0.4l0.4,0.4h3.3V89.2z M131.3,86.3l-1.8,0.1l-2.3,0.1h-2.3h-1.8l0.1,0.8
			h1.1h1.4h1.6h1.6h1.4l1.1-0.1V86.3z M129.7,84.1c-0.7-0.2-1.4-0.5-2.1-0.7c-0.7-0.3-1.4-0.5-2.1-0.8l-0.3,0.8
			c0.7,0.3,1.4,0.6,2.1,0.8l2.1,0.7L129.7,84.1z M134.1,97.9h0.7V81.2h-0.7V97.9z M122.4,75.1h3.8l3.9-0.1l3.9-0.1l3.7-0.1V74
			l-3.8,0.2c-1.3,0-2.6,0.1-3.9,0.1l-4,0.1h-3.8L122.4,75.1z M135,63.6l-2,0.1l-2.4,0.1h-2.4h-1.9l0.1,0.8h1.8h2.2h2.2
			c0.7,0,1.3,0,1.9-0.1L135,63.6z M134.3,70.5c0.2-1.1,0.3-2.3,0.5-3.4c0.1-1.1,0.2-2.3,0.2-3.5l-0.8,0.3c0,1-0.1,2.1-0.2,3.2
			s-0.3,2.2-0.4,3.3L134.3,70.5z M128.1,74.5l-0.2-5.5h-0.8l0.2,5.5L128.1,74.5z M131.1,74.4h0.7v-5.5h-0.7V74.4z M130.5,52.2h-6.3
			V53h6.3V52.2z M130.5,47.9c-1,0.1-2,0.1-3.1,0.1s-2.1,0-3.1,0v0.8h1.5h1.6l1.6,0l1.5-0.1V47.9z M130.5,44.3h-0.7v8.3h0.7V44.3z
			 M124.2,52.6h0.7v-8h-0.7V52.6z M134.2,57.9h0.7V41.2h-0.7V57.9z"/>
		<path class="st1" d="M163,379.1l-2.6,0.4c-0.8,0.1-1.7,0.2-2.5,0.3c-0.9,0.1-1.7,0.2-2.6,0.2l-2.8,0.1l0.2,0.8
			c1,0,1.9-0.1,2.8-0.1c0.9-0.1,1.7-0.1,2.6-0.2c0.8-0.1,1.7-0.2,2.5-0.3c0.8-0.1,1.7-0.2,2.6-0.4L163,379.1z M161.3,371.2
			c-1.1,0.1-2.3,0.1-3.5,0.2c-1.2,0-2.4,0.1-3.4,0.1l0.1,0.8c1,0,2,0,3.1,0c1.1,0,2.1,0,3.1-0.1L161.3,371.2z M160.2,377.5
			c0.3-1,0.5-2,0.7-3.1c0.2-1,0.3-2.1,0.4-3.3l-0.8,0.3c-0.1,0.9-0.2,1.9-0.4,2.9c-0.2,1-0.4,2-0.7,2.9L160.2,377.5z M156.2,380.2
			h0.7v-4.5h-0.7V380.2z M168.2,377.5h-3.3l-0.4,0.4l0.4,0.4h3.3V377.5z M164.1,384.6h0.7V368h-0.7V384.6z M159.7,356.4l0.3-4.5
			h-0.8l-0.2,4.4L159.7,356.4z M156.2,356.7l-0.3-4.5l-0.8,0.1l0.4,4.5L156.2,356.7z M162.3,355.7c-1.5,0.2-3,0.4-4.5,0.5
			c-1.5,0.1-3.1,0.2-4.8,0.2l0.1,0.8c1.6-0.1,3.2-0.1,4.7-0.3c1.5-0.1,3-0.3,4.6-0.5L162.3,355.7z M161.2,350l-1.7,0.1l-2,0.1
			l-2,0.1h-1.7l0.1,0.8h1.7l2-0.1l2-0.1l1.7-0.1L161.2,350z M168.2,353.7h-3.3l-0.4,0.4l0.4,0.4h3.3V353.7z M164.1,359.8h0.7V348
			h-0.7V359.8z M165.9,362.3l-1.9,0.1c-0.8,0-1.5,0.1-2.3,0.1h-2.4c-0.8,0-1.4,0-2,0v0.8c0.5,0,1.2,0,2,0h2.4l2.4-0.1l1.9-0.1
			L165.9,362.3z M157.3,363.1h0.7v-3.9h-0.7V363.1z M152.3,341.9h3.8l3.9-0.1l3.9-0.1l3.7-0.1v-0.8l-3.8,0.1c-1.3,0-2.6,0.1-3.9,0.1
			l-4,0.1h-3.9L152.3,341.9z M165,330.3l-2,0.1l-2.3,0.1h-2.3h-2l0.1,0.8h1.9h2.3l2.3-0.1l2-0.1L165,330.3z M166.1,336.4l-4.5-3
			l-0.4,0.7l1.1,0.7l1.1,0.8l1.1,0.8l1.1,0.7L166.1,336.4z M155.9,337.2c1.4-0.5,2.7-1.3,3.7-2.4c1-1.1,1.7-2.5,1.9-3.9l-0.7-0.2
			c-0.2,1.4-0.9,2.6-1.8,3.7c-1,1-2.1,1.7-3.4,2.2L155.9,337.2z M160.6,341.2h0.7v-4.1h-0.7V341.2z M160.5,305.7
			c-1.1,0.1-2.2,0.1-3.3,0.1l-3.2,0.1l0.1,0.8l2.9-0.1l2.9-0.1L160.5,305.7z M153.5,314.9c0.9-0.4,1.7-1,2.4-1.6
			c0.8-0.6,1.5-1.4,2.1-2.1c0.3-0.4,0.6-0.8,0.8-1.3c0.3-0.5,0.5-0.9,0.7-1.4c0.2-0.5,0.4-1,0.6-1.4c0.2-0.5,0.3-0.9,0.4-1.4
			l-0.9,0.3c-0.2,0.8-0.4,1.6-0.8,2.4c-0.4,0.9-0.9,1.7-1.5,2.4c-0.6,0.7-1.3,1.4-2,2c-0.7,0.6-1.5,1.1-2.3,1.5L153.5,314.9z
			 M164.1,318.6h0.7V302h-0.7V318.6z M158,291.6l-1.7-2.5l-0.6,0.5c0.3,0.5,0.7,0.9,1,1.4c0.3,0.4,0.6,0.9,0.9,1.4L158,291.6z
			 M163.2,293.5l-2.7-3.8l-0.6,0.5l0.6,0.9l0.7,1l0.7,1l0.6,0.9L163.2,293.5z M157.4,294.7c0.4-0.6,0.8-1.2,1.1-1.9
			c0.3-0.7,0.6-1.4,0.9-2.1c0.3-0.7,0.5-1.5,0.6-2.2c0.2-0.7,0.3-1.5,0.4-2.2h-0.8c-0.1,1.4-0.4,2.8-0.9,4.2
			c-0.5,1.3-1.1,2.6-1.9,3.8L157.4,294.7z M162.2,285.8l-1.1,0.1h-1h-1h-1.1l0.1,0.8h1.1h1h1l1.1-0.1L162.2,285.8z M157.6,285.8
			l-1.2,0.1h-1h-1h-1.2l0.1,0.8h1.1h1h1l1.2-0.1L157.6,285.8z M153.3,293.9c0.8-1.1,1.5-2.3,1.9-3.6c0.4-1.3,0.7-2.6,0.9-4h-0.8
			c-0.1,0.7-0.2,1.3-0.3,2c-0.1,0.6-0.3,1.2-0.5,1.8c-0.2,0.6-0.5,1.2-0.8,1.7c-0.3,0.6-0.7,1.2-1.1,1.7L153.3,293.9z M164.1,298.6
			h0.7V282h-0.7V298.6z M168.2,289.7h-3.3l-0.4,0.4l0.4,0.4h3.3V289.7z M152.4,276h3.8l3.9-0.1l3.9-0.1l3.7-0.1v-0.8L164,275
			c-1.3,0-2.6,0.1-3.9,0.1l-4,0.1h-3.9L152.4,276z M160.8,275.3h0.7v-3.1h-0.7V275.3z M165.4,270.7l-1.9,0.1c-0.7,0-1.5,0.1-2.3,0.1
			h-2.3c-0.7,0-1.4,0-1.9,0v0.8c0.5,0,1.2,0,1.9,0h2.3l2.3-0.1l1.9-0.1V270.7z M156.9,271.3h0.7V268h-0.7V271.3z M164.9,267.4
			c-0.5,0-1.2,0.1-1.9,0.1l-2.2,0.1h-2.1H157v0.8h1.8l2.1,0l2.2-0.1l1.9-0.1V267.4z M164.2,267.8h0.7v-3.3h-0.7V267.8z M164.9,264.1
			l-1.9,0.1l-2.2,0.1l-2.2,0h-1.9l0.1,0.8h1.8l2.2,0l2.2,0l1.9-0.1L164.9,264.1z M160.6,245.7c-1.1,0.1-2.2,0.1-3.3,0.1l-3.2,0.1
			l0.1,0.8l2.9-0.1l2.9-0.1L160.6,245.7z M153.7,254.9c0.9-0.4,1.7-1,2.4-1.6c0.8-0.6,1.5-1.4,2.1-2.1c0.3-0.4,0.6-0.8,0.8-1.3
			c0.3-0.5,0.5-0.9,0.7-1.4c0.2-0.5,0.4-1,0.6-1.4c0.2-0.5,0.3-0.9,0.4-1.4l-0.9,0.3c-0.2,0.8-0.4,1.6-0.8,2.4
			c-0.4,0.9-0.8,1.7-1.4,2.4c-0.6,0.7-1.3,1.4-2,2c-0.7,0.6-1.5,1.1-2.3,1.5L153.7,254.9z M164.1,258.6h0.7V242h-0.7V258.6z
			 M168.2,249.9h-3.3l-0.4,0.4l0.4,0.4h3.3V249.9z M163.6,231.6c0.4,1,1.6,1.5,2.7,1.1c0.2-0.1,0.5-0.3,0.7-0.4
			c0.2-0.2,0.3-0.4,0.4-0.7c0.3-0.8,0.1-1.7-0.4-2.3c-0.8-0.8-2-0.9-2.8-0.1c-0.2,0.2-0.4,0.5-0.5,0.8
			C163.4,230.5,163.4,231,163.6,231.6 M166.5,231.7c-0.5,0.5-1.4,0.5-1.9,0c-0.5-0.5-0.5-1.4,0-1.9c0.5-0.5,1.4-0.5,1.9,0
			C167,230.3,167,231.2,166.5,231.7 M160.3,211.1c-0.9,0.1-1.9,0.1-2.9,0.1c-1,0-2,0-2.9,0v0.8h1.4h1.5l1.5-0.1l1.4-0.1V211.1z
			 M161.8,217.5c-1.1,0.4-2.3,0.7-3.4,0.9c-1.3,0.2-2.6,0.3-3.9,0.2v0.7c1.3,0,2.7-0.1,4-0.3c1.2-0.2,2.4-0.5,3.6-0.9L161.8,217.5z
			 M154.4,219.4l0.7-0.2v-7.3h-0.7V219.4z M168.2,215.1h-3.3l-0.4,0.4l0.4,0.4h3.3V215.1z M164.1,223.9h0.7v-16.7h-0.7V223.9z
			 M162,197.3c-1.2,0.4-2.4,0.7-3.6,0.9c-1.3,0.2-2.6,0.4-3.9,0.4v0.7c1.3-0.1,2.7-0.2,4-0.5c1.3-0.2,2.5-0.5,3.7-0.9L162,197.3z
			 M154.5,199.3l0.7-0.2v-8h-0.7V199.3z M164.2,203.9h0.7v-16.6h-0.7V203.9z M151.8,174.8h3.9l4.1-0.1c1.4,0,2.7,0,4.1-0.1l3.9-0.1
			v0.8c-1.2,0.1-2.5,0.1-3.8,0.1l-4.1,0.1l-4.1,0.1h-3.9L151.8,174.8z M166,171.9l-4.2-2.2l-0.4,0.7l2,1.1l2.1,1.1L166,171.9z
			 M156.3,172.7c1.3-0.4,2.6-1.1,3.6-2.1c1-1,1.6-2.2,1.9-3.6l-0.7-0.2c-0.2,0.6-0.4,1.3-0.7,1.9c-0.3,0.5-0.6,1-1,1.4
			c-0.4,0.4-0.9,0.8-1.4,1.1c-0.6,0.3-1.3,0.6-1.9,0.8L156.3,172.7z M164.8,183.1h-7.4v-0.8h7.4V183.1z M164.8,179.8l-1.7,0.1h-2h-2
			h-1.6v-0.8h1.7h2l2-0.1l1.7-0.1L164.8,179.8z M164.8,182.6h-0.7V177h0.7V182.6z M157.4,177.3h0.7v5.4h-0.7V177.3z M154.9,162.9
			c1.2-0.4,2.2-1.2,2.9-2.2c0.8-1,1.3-2.1,1.5-3.4l-0.8-0.2c-0.2,1.1-0.6,2.2-1.3,3.1c-0.7,0.9-1.7,1.6-2.8,1.9L154.9,162.9z
			 M161.4,160.7l-2-1.4l-0.4,0.6l1.8,1.3L161.4,160.7z M167,162.6l-3-2.3l-0.5,0.6c0.3,0.2,0.5,0.4,0.8,0.6l0.7,0.6l0.7,0.6l0.8,0.6
			L167,162.6z M160.2,163.3c0.6-0.3,1.1-0.6,1.5-1c0.5-0.4,0.9-0.9,1.2-1.4c0.4-0.5,0.6-1.1,0.9-1.6c0.2-0.6,0.4-1.2,0.4-1.8
			l-0.8-0.2c-0.1,1.1-0.5,2.2-1.2,3.2c-0.7,1-1.5,1.7-2.6,2.2L160.2,163.3z M154.1,153.7c0.2,0.4,0.4,0.7,0.7,1
			c0.3,0.3,0.6,0.5,1,0.7c0.8,0.3,1.7,0.3,2.6,0c0.4-0.2,0.7-0.4,1-0.7c0.3-0.3,0.5-0.6,0.7-1c0.3-0.8,0.3-1.7,0-2.5
			c-0.2-0.4-0.4-0.7-0.7-1c-0.3-0.3-0.6-0.5-1-0.7c-0.8-0.3-1.7-0.3-2.6,0c-0.4,0.2-0.7,0.4-1,0.7c-0.3,0.3-0.5,0.6-0.7,1
			C153.8,152,153.8,152.9,154.1,153.7 M154.8,151.5c0.1-0.3,0.3-0.6,0.5-0.8c0.2-0.2,0.5-0.4,0.8-0.6c0.6-0.3,1.4-0.3,2,0
			c0.3,0.1,0.6,0.3,0.8,0.6c0.2,0.2,0.4,0.5,0.5,0.8c0.3,0.6,0.3,1.3,0,1.9c-0.1,0.3-0.3,0.6-0.5,0.8c-0.2,0.2-0.5,0.4-0.8,0.6
			c-0.6,0.3-1.4,0.3-2,0c-0.3-0.1-0.6-0.3-0.8-0.6c-0.2-0.2-0.4-0.5-0.5-0.8C154.6,152.8,154.6,152.1,154.8,151.5 M164.6,153.7h-3.4
			v0.8h3.4V153.7z M164.6,150h-3.4v0.8h3.4V150z M164.1,156.2h0.7v-8.9h-0.7V156.2z M158.8,140.2c0.7-0.3,1.2-0.9,1.5-1.6
			c0.3-0.7,0.3-1.4,0-2.1c-0.3-0.7-0.8-1.3-1.5-1.6c-0.8-0.3-1.7-0.3-2.6,0c-0.7,0.3-1.2,0.9-1.5,1.6c-0.3,0.7-0.3,1.4,0,2.1
			c0.3,0.7,0.8,1.3,1.5,1.6C157,140.5,157.9,140.5,158.8,140.2 M156.5,139.5c-0.3-0.1-0.5-0.3-0.7-0.5c-0.2-0.2-0.3-0.4-0.4-0.7
			c-0.1-0.2-0.1-0.5-0.1-0.8c0-0.3,0-0.5,0.1-0.8c0.1-0.3,0.2-0.5,0.4-0.7c0.2-0.2,0.4-0.4,0.7-0.5c0.6-0.3,1.4-0.3,2,0
			c0.3,0.1,0.5,0.3,0.7,0.5c0.2,0.2,0.3,0.4,0.4,0.7c0.1,0.2,0.1,0.5,0.1,0.8c0,0.3,0,0.5-0.1,0.8c-0.1,0.3-0.2,0.5-0.4,0.7
			c-0.2,0.2-0.4,0.4-0.7,0.5C157.8,139.8,157.1,139.8,156.5,139.5 M168.1,135.2h-3.3l-0.4,0.4l0.4,0.4h3.3V135.2z M161.3,132.3
			l-1.8,0.1l-2.3,0.1h-2.3h-1.8l0.1,0.8h1.1h1.4h1.6h1.6h1.4l1.1-0.1V132.3z M159.6,130c-0.7-0.2-1.4-0.5-2.1-0.7
			c-0.7-0.3-1.4-0.5-2.1-0.9l-0.3,0.8c0.7,0.3,1.4,0.6,2.1,0.8l2.1,0.7L159.6,130z M164.1,143.9h0.7v-16.6h-0.7V143.9z M154,116.3
			c1.1-0.7,2-1.7,2.8-2.8c0.7-1.1,1.2-2.4,1.4-3.8l-0.8-0.1c-0.1,0.6-0.3,1.3-0.5,1.9c-0.2,0.5-0.5,1.1-0.8,1.6
			c-0.3,0.5-0.7,0.9-1.1,1.3c-0.5,0.4-1,0.8-1.5,1.2L154,116.3z M164.4,111.8h-3.8v0.8h3.8V111.8z M161.1,109.2l-1.6,0.1l-1.9,0.1
			l-1.9,0.1H154l0.1,0.8h1.6l1.9-0.1l1.9-0.1l1.6-0.1V109.2z M161.2,115.1l-2.9-2.5l-0.5,0.6l1.4,1.2c0.4,0.4,0.9,0.8,1.4,1.3
			L161.2,115.1z M166,122.1l-1.9,0.1c-0.8,0-1.5,0.1-2.3,0.1h-2.4c-0.8,0-1.4,0-2,0v0.7c0.5,0,1.2,0,2,0h2.4l2.4-0.1
			c0.8,0,1.4,0,1.9-0.1L166,122.1z M157.3,122.7h0.7V120h-0.7V122.7z M164.9,119.4l-1.8,0.1l-2,0.1h-2h-1.7v0.8h1.7l2-0.1l2-0.1
			l1.8-0.1L164.9,119.4z M164.1,119.8h0.7V117h-0.7V119.8z M164.9,116.6l-1.9,0.1l-2.1,0.1l-2.1,0.1h-1.8l0.1,0.8h1.8h2l2.1-0.1
			l1.8-0.1L164.9,116.6z M164.1,115.9h0.7v-8.7h-0.7V115.9z M152.4,101.2h3.8l3.9-0.1l3.9-0.1l3.7-0.1v-0.8l-3.8,0.2
			c-1.3,0-2.6,0.1-3.9,0.1l-4,0.1h-3.9L152.4,101.2z M165,89.6l-2,0.1l-2.3,0.1h-2.3h-2l0.1,0.8h1.9l2.3-0.1l2.3-0.1l2-0.1L165,89.6
			z M166.1,95.6l-4.5-3l-0.4,0.7l1.1,0.7l1.1,0.8l1.1,0.8l1.1,0.7L166.1,95.6z M155.9,96.5c1.4-0.5,2.7-1.3,3.7-2.4
			c1-1.1,1.7-2.5,1.9-3.9l-0.7-0.2c-0.2,1.4-0.9,2.6-1.8,3.7c-1,1-2.1,1.7-3.4,2.2L155.9,96.5z M160.6,100.5h0.7v-4.1h-0.7V100.5z
			 M161.7,72.5l-1.7,0.2l-1.8,0.2l-1.8,0.2c-0.6,0-1.2,0.1-1.7,0.1v-3.9H154V74c0.5,0,1.2,0,1.8-0.1l2.1-0.2
			c0.7-0.1,1.4-0.1,2.1-0.2l1.8-0.2L161.7,72.5z M160.5,68.6c-1.1,0.1-2.2,0.2-3.3,0.2l-3.3,0.1v0.8l3.3-0.1c1.2,0,2.3,0,3.3-0.2
			V68.6z M159.8,69h0.7v-4h-0.7V69z M160.5,64.7c-1.1,0.1-2.2,0.1-3.4,0.1l-3.3,0.1l0.1,0.8l3.3-0.1c1.2,0,2.3,0,3.4-0.1L160.5,64.7
			z M168.2,68.8h-3.3l-0.4,0.4l0.4,0.4h3.3V68.8z M164.1,77.9h0.7V61.2h-0.7V77.9z M168.2,48.8h-3.3l-0.4,0.4l0.4,0.4h3.3V48.8z
			 M162.2,45h-0.9h-0.8h-1.8l0.1,0.8h1.7h0.8h0.9V45z M162.9,52c-0.7,0.2-1.4,0.3-2.1,0.4c-0.7,0.1-1.4,0.1-2.1,0.1v0.7
			c1.5,0,3-0.2,4.4-0.5L162.9,52z M158.7,53.3l0.7-0.2v-7.6l-0.7-0.4V53.3z M157.7,51.8c-0.6,0.3-1.2,0.5-1.8,0.7
			c-0.6,0.1-1.3,0.2-1.9,0.2v0.7c0.7,0,1.4-0.1,2.1-0.2c0.7-0.2,1.4-0.4,2-0.7L157.7,51.8z M154,53.4l0.7-0.2v-7.8L154,45V53.4z
			 M157.4,45h-0.9h-0.7H154l0.1,0.8h1.7h0.7h0.9V45z M164.1,57.9h0.7V41.2h-0.7V57.9z"/>
		<path class="st1" d="M183.2,348.6c0.1,0.4,0.4,0.8,0.6,1.1c0.3,0.3,0.6,0.6,1,0.7c0.8,0.3,1.7,0.3,2.4,0c0.4-0.2,0.7-0.4,1-0.7
			c0.3-0.3,0.5-0.7,0.6-1.1c0.3-0.9,0.3-1.9,0-2.9c-0.1-0.4-0.4-0.8-0.6-1.1c-0.3-0.3-0.6-0.6-1-0.7c-0.8-0.3-1.7-0.3-2.4,0
			c-0.4,0.2-0.7,0.4-1,0.7c-0.3,0.3-0.5,0.7-0.6,1.1C182.9,346.6,182.9,347.6,183.2,348.6 M184.4,345.1c0.8-0.9,2.2-1,3.1-0.2
			c0.1,0.1,0.1,0.1,0.2,0.2c0.9,1.2,0.9,2.8,0,4.1c-0.8,0.9-2.2,1-3.1,0.2c-0.1-0.1-0.1-0.1-0.2-0.2
			C183.5,348,183.5,346.3,184.4,345.1 M191.8,346.6h-2.3v0.8h2.3V346.6z M191.3,353.9h0.7v-13.5h-0.7V353.9z M194.1,355.9h0.7v-16.7
			h-0.7V355.9z M188.4,330.3c0.4-0.2,0.8-0.5,1.1-0.8c0.3-0.3,0.6-0.7,0.7-1.2c0.3-0.9,0.3-1.9,0-2.9c-0.2-0.4-0.4-0.8-0.7-1.2
			c-1.3-1.4-3.5-1.4-4.8-0.2c-0.1,0-0.1,0.1-0.2,0.2c-0.3,0.3-0.6,0.7-0.7,1.2c-0.3,0.9-0.3,1.9,0,2.9c0.2,0.4,0.4,0.8,0.7,1.2
			c0.3,0.3,0.7,0.6,1.1,0.8C186.6,330.7,187.6,330.7,188.4,330.3 M188.2,324.2c0.3,0.1,0.6,0.4,0.9,0.6c0.2,0.3,0.4,0.6,0.6,0.9
			c0.3,0.8,0.3,1.6,0,2.3c-0.1,0.3-0.3,0.7-0.6,0.9c-0.2,0.3-0.5,0.5-0.9,0.6c-0.7,0.3-1.5,0.3-2.3,0c-0.4-0.2-0.7-0.4-0.9-0.7
			c-0.2-0.3-0.4-0.6-0.6-0.9c-0.3-0.8-0.3-1.6,0-2.3c0.1-0.3,0.3-0.7,0.6-0.9c0.2-0.3,0.5-0.5,0.9-0.6
			C186.6,323.9,187.4,323.9,188.2,324.2 M194.1,335.9h0.7v-16.6h-0.7V335.9z M183.5,311.4c1.4-1,2.6-2.4,3.4-3.9
			c0.8-1.7,1.3-3.4,1.4-5.3l-0.8-0.1c-0.1,1.7-0.6,3.4-1.3,5c-0.7,1.5-1.8,2.8-3.2,3.7L183.5,311.4z M198.2,306.8h-3.3l-0.4,0.4
			l0.4,0.4h3.3V306.8z M191.6,310.8l-3.3-4l-0.6,0.5l1.6,1.9c0.6,0.7,1.1,1.4,1.6,2.1L191.6,310.8z M194.1,315.9h0.7v-16.7h-0.7
			V315.9z M183.8,291.8c1.2-1,2.3-2.2,3.2-3.6c0.8-1.4,1.4-2.9,1.8-4.5l-0.8-0.1c-0.2,0.8-0.4,1.5-0.7,2.3c-0.3,0.7-0.6,1.4-1,2
			c-0.4,0.6-0.8,1.2-1.3,1.8c-0.5,0.6-1.1,1.1-1.7,1.7L183.8,291.8z M198.2,287h-3.3l-0.4,0.4l0.4,0.4h3.3V287z M192.3,290.9
			l-3.9-3.6l-0.5,0.6l0.9,0.8l1,0.9l1,1l0.9,0.9L192.3,290.9z M191.5,283l-1.7,0.1l-2.1,0.1h-2.1H184l0.1,0.8h1.6l2,0l2.1-0.1
			l1.7-0.1L191.5,283z M194.1,295.9h0.7v-16.6h-0.7V295.9z M181.9,266.1h3.9l4.1-0.1l4.1-0.1l3.8-0.1V265l-3.9,0.1
			c-1.3,0-2.7,0.1-4.1,0.1l-4.1,0.1h-3.9L181.9,266.1z M195,259.7l-1.9,0.1l-2.2,0.1h-2.2h-1.8l0.1,0.8h1.7h2h2l1.7-0.1L195,259.7z
			 M194.3,264.3c0.1-0.4,0.2-0.8,0.3-1.2c0.1-0.4,0.1-0.7,0.2-1.1c0.1-0.3,0.1-0.7,0.1-1.1c0-0.4,0.1-0.8,0.1-1.3l-0.8,0.3
			c0,0.4-0.1,0.8-0.1,1.1s-0.1,0.7-0.1,1s-0.1,0.6-0.2,1s-0.2,0.7-0.3,1.1L194.3,264.3z M196,273.9l-2,0.1c-0.8,0-1.6,0.1-2.4,0.1
			h-2.4c-0.8,0-1.5,0-2,0v0.8c0.5,0,1.2,0,2,0h2.4l2.4-0.1c0.8,0,1.4,0,2-0.1L196,273.9z M187.2,274.5h0.7v-2.9h-0.7V274.5z
			 M194.9,271c-0.5,0-1.1,0.1-1.8,0.1l-2.1,0.1h-2.1h-1.8v0.8h1.7l2.1,0l2.1-0.1l1.8-0.1V271z M194.2,271.4h0.7v-2.9h-0.7V271.4z
			 M194.9,268.2l-1.9,0.1l-2.2,0.1l-2.1,0h-1.8l0.1,0.8h1.8l2.1,0l2.1-0.1l1.9-0.1L194.9,268.2z M184.9,240.2c0.2,0.4,0.4,0.7,0.7,1
			c0.3,0.3,0.6,0.5,1,0.7c0.8,0.3,1.8,0.3,2.6,0c0.4-0.2,0.7-0.4,1-0.7c0.3-0.3,0.5-0.6,0.7-1c0.3-0.8,0.3-1.7,0-2.5
			c-0.2-0.4-0.4-0.7-0.7-1c-0.3-0.3-0.6-0.5-1-0.7c-0.8-0.3-1.8-0.3-2.6,0c-0.4,0.2-0.7,0.4-1,0.7c-0.3,0.3-0.5,0.6-0.7,1
			C184.6,238.5,184.6,239.4,184.9,240.2 M185.6,238c0.2-0.6,0.7-1.1,1.3-1.3c0.6-0.2,1.4-0.2,2,0c1.2,0.5,1.8,1.9,1.3,3.2
			c-0.2,0.6-0.7,1.1-1.3,1.3c-0.6,0.2-1.4,0.2-2,0c-0.3-0.1-0.6-0.3-0.8-0.5c-0.2-0.2-0.4-0.5-0.5-0.8
			C185.3,239.3,185.3,238.6,185.6,238 M187.7,245.5h0.7v-2.8h-0.7V245.5z M194.1,249.9h0.7v-16.6h-0.7V249.9z M193,244.4
			c-1,0.2-1.9,0.3-2.8,0.4c-0.9,0.1-1.7,0.2-2.5,0.3c-0.8,0.1-1.7,0.1-2.5,0.2c-0.8,0.1-1.8,0.1-2.8,0.1l0.2,0.8
			c1,0,1.9-0.1,2.8-0.1s1.7-0.1,2.5-0.2c0.8-0.1,1.6-0.2,2.5-0.3l2.7-0.4L193,244.4z M198.2,241.4h-3.3l-0.4,0.4l0.4,0.4h3.3V241.4z
			 M183.8,225.8c1.2-1,2.3-2.2,3.2-3.6c0.8-1.4,1.4-2.9,1.8-4.5l-0.8-0.1c-0.2,0.8-0.4,1.5-0.7,2.3c-0.3,0.7-0.6,1.4-1,2
			c-0.4,0.6-0.8,1.2-1.3,1.8c-0.5,0.6-1.1,1.1-1.7,1.7L183.8,225.8z M198.2,221h-3.3l-0.4,0.4l0.4,0.4h3.3V221z M192.3,224.9
			l-3.9-3.6l-0.5,0.6l0.9,0.8l1,0.9l1,1l0.9,0.9L192.3,224.9z M191.5,217l-1.7,0.1l-2.1,0.1h-2.1H184l0.1,0.8h1.6l2-0.1l2.1-0.1
			l1.7-0.1L191.5,217z M194.1,229.9h0.7v-16.6h-0.7V229.9z M181.9,200.1h3.9l4.1-0.1l4.1-0.1c1.3,0,2.6-0.1,3.8-0.1V199l-3.9,0.1
			c-1.3,0-2.7,0.1-4.1,0.1l-4.1,0.1h-3.9L181.9,200.1z M195,193.7l-1.9,0.1l-2.2,0.1h-2.2h-1.8l0.1,0.8h1.7h2h2l1.7-0.1L195,193.7z
			 M194.3,198.3c0.1-0.4,0.2-0.8,0.3-1.2c0.1-0.4,0.1-0.7,0.2-1.1c0.1-0.3,0.1-0.7,0.1-1.1c0-0.4,0.1-0.8,0.1-1.3l-0.8,0.3
			c0,0.4-0.1,0.8-0.1,1.1s-0.1,0.7-0.1,1s-0.1,0.6-0.2,1s-0.2,0.7-0.3,1.1L194.3,198.3z M196,207.9l-2,0.1c-0.8,0-1.6,0.1-2.4,0.1
			h-2.4c-0.8,0-1.5,0-2,0v0.8c0.5,0,1.2,0,2,0h2.4l2.4-0.1c0.8,0,1.4,0,2-0.1L196,207.9z M187.2,208.5h0.7v-2.9h-0.7V208.5z
			 M194.9,205c-0.5,0-1.1,0.1-1.8,0.1l-2.1,0.1h-2.1h-1.8v0.8h1.7l2.1-0.1l2.1-0.1l1.8-0.1V205z M194.2,205.4h0.7v-2.9h-0.7V205.4z
			 M194.9,202.2l-1.9,0.1l-2.2,0.1l-2.1,0.1h-1.8l0.1,0.8h1.8h2.1l2.1-0.1l1.9-0.1L194.9,202.2z M181.9,176.3h3.9l4.1-0.1l4.1-0.1
			c1.3,0,2.6-0.1,3.8-0.1v-0.8l-3.9,0.1c-1.3,0-2.7,0.1-4.1,0.1l-4.1,0.1h-3.9L181.9,176.3z M195.8,181.5l-2,0.1
			c-0.8,0-1.6,0.1-2.4,0.1H189c-0.8,0-1.5,0-2,0v0.8c0.5,0,1.2,0,2,0h2.4l2.4-0.1c0.8,0,1.4,0,2-0.1L195.8,181.5z M195.6,171.7
			l-1.9,0.1c-0.8,0-1.5,0.1-2.3,0.1H189c-0.8,0-1.4,0-2,0v0.8c0.5,0,1.2,0,2,0h2.4l2.4-0.1c0.8,0,1.4,0,1.9-0.1L195.6,171.7z
			 M187,172.7h0.7v-4.8H187V172.7z M187,182.5h0.7v-4.3H187V182.5z M190.6,150.9c-1.1,0.1-2.2,0.1-3.3,0.1s-2.2,0.1-3.2,0.1l0.1,0.8
			l2.9-0.1l2.9-0.1L190.6,150.9z M183.6,160.1c0.9-0.4,1.7-1,2.4-1.6c0.8-0.6,1.5-1.4,2.1-2.1c0.3-0.4,0.6-0.8,0.8-1.3
			c0.3-0.5,0.5-0.9,0.7-1.4c0.2-0.5,0.4-1,0.6-1.4c0.2-0.5,0.3-0.9,0.4-1.4l-0.9,0.3c-0.2,0.8-0.4,1.6-0.8,2.4
			c-0.4,0.9-0.9,1.7-1.5,2.4c-0.6,0.7-1.3,1.4-2,2c-0.7,0.6-1.5,1.1-2.3,1.5L183.6,160.1z M194.1,163.9h0.7v-16.7h-0.7V163.9z
			 M182.4,141h3.8l3.9-0.1l3.9-0.1l3.7-0.1v-0.8L194,140c-1.3,0-2.6,0.1-3.9,0.1l-4,0.1h-3.9L182.4,141z M194.3,133.7
			c-0.7,0.1-1.4,0.3-2.1,0.4c-0.7,0.1-1.5,0.2-2.2,0.3c-0.7,0.1-1.5,0.2-2.2,0.2c-0.7,0.1-1.4,0.1-2.1,0.1l0.1,0.7
			c0.7,0,1.4-0.1,2.1-0.1l2.2-0.2c0.7-0.1,1.5-0.2,2.2-0.3c0.7-0.1,1.4-0.2,2.1-0.3L194.3,133.7z M195,129.6l-2,0.1l-2.4,0.1h-2.4
			h-2l0.1,0.8h1.9h2.2h2.2l1.8-0.1L195,129.6z M193.7,138.6c0.2-0.6,0.3-1.3,0.4-2.1c0.1-0.8,0.3-1.5,0.4-2.3
			c0.1-0.8,0.2-1.6,0.3-2.4s0.1-1.5,0.2-2.3l-0.8,0.3c0,0.6,0,1.3-0.1,2.1c-0.1,0.7-0.2,1.5-0.3,2.3c-0.1,0.8-0.2,1.5-0.4,2.2
			c-0.1,0.7-0.3,1.4-0.4,2L193.7,138.6z M184.9,108.1c0.3,0.8,0.9,1.4,1.7,1.7c0.8,0.3,1.7,0.3,2.6,0c0.4-0.2,0.7-0.4,1-0.7
			c0.3-0.3,0.5-0.6,0.7-1c0.3-0.8,0.3-1.7,0-2.5c-0.2-0.4-0.4-0.7-0.7-1c-0.3-0.3-0.6-0.5-1-0.7c-0.8-0.3-1.7-0.3-2.6,0
			C184.9,104.7,184.2,106.5,184.9,108.1 M185.5,106c0.1-0.3,0.3-0.6,0.5-0.8c0.2-0.2,0.5-0.4,0.8-0.5c0.6-0.3,1.4-0.3,2,0
			c0.3,0.1,0.6,0.3,0.8,0.5c1,1,1,2.5,0,3.5c-0.2,0.2-0.5,0.4-0.8,0.5c-0.6,0.3-1.4,0.3-2,0c-0.3-0.1-0.6-0.3-0.8-0.5
			C185.4,108,185.1,106.9,185.5,106 M194.1,118h0.7v-16.7h-0.7V118z M193,112.5c-1,0.2-1.9,0.3-2.8,0.4c-0.9,0.1-1.7,0.2-2.5,0.3
			c-0.8,0.1-1.7,0.1-2.5,0.2c-0.8,0.1-1.8,0.1-2.8,0.1l0.2,0.8c1,0,1.9-0.1,2.8-0.2c0.8-0.1,1.7-0.1,2.5-0.2
			c0.8-0.1,1.6-0.2,2.5-0.3l2.7-0.4L193,112.5z M183.8,93.8c1.3-1,2.3-2.2,3.2-3.6c0.8-1.4,1.4-2.9,1.8-4.5l-0.8-0.1
			c-0.2,0.8-0.4,1.5-0.7,2.3c-0.3,0.7-0.6,1.4-1,2c-0.4,0.6-0.8,1.2-1.3,1.7c-0.5,0.6-1.1,1.1-1.7,1.7L183.8,93.8z M198.2,89h-3.3
			l-0.4,0.4l0.4,0.4h3.3V89z M192.3,92.9l-3.9-3.6l-0.5,0.6l0.9,0.8l1,0.9l1,1l0.9,0.9L192.3,92.9z M191.5,85l-1.7,0.1l-2.1,0.1
			h-2.1H184l0.1,0.8h1.6l2-0.1l2.1-0.1l1.7-0.1L191.5,85z M194.1,97.9h0.7V81.2h-0.7V97.9z M181.9,68.1h3.9l4.1-0.1l4.1-0.1l3.8-0.1
			V67l-3.9,0.2c-1.3,0-2.7,0.1-4.1,0.1l-4.1,0.1h-3.9L181.9,68.1z M195,61.7l-1.9,0.1l-2.2,0.1h-2.2h-1.8l0.1,0.8h1.7h2h2l1.7-0.1
			L195,61.7z M194.3,66.3c0.1-0.4,0.2-0.8,0.3-1.2s0.1-0.7,0.2-1.1c0.1-0.3,0.1-0.7,0.1-1.1c0-0.4,0.1-0.8,0.1-1.3l-0.8,0.3
			c0,0.4-0.1,0.8-0.1,1.1s-0.1,0.7-0.1,1c-0.1,0.3-0.1,0.7-0.2,1s-0.2,0.7-0.3,1.1L194.3,66.3z M196,75.9l-2,0.1
			c-0.8,0-1.6,0.1-2.4,0.1h-2.4c-0.8,0-1.5,0-2,0v0.8c0.5,0,1.2,0,2,0h2.4l2.4-0.1c0.8,0,1.4-0.1,2-0.1L196,75.9z M187.2,76.5h0.7
			v-2.9h-0.7V76.5z M194.9,73c-0.5,0-1.1,0.1-1.8,0.1l-2.1,0.1h-2.1h-1.8V74h1.7h2.1l2-0.1l1.8-0.1L194.9,73z M194.2,73.4h0.7v-2.9
			h-0.7V73.4z M194.9,70.2l-1.9,0.1l-2.2,0.1l-2.1,0.1h-1.8l0.1,0.8h1.8l2.1-0.1L193,71l1.9-0.1L194.9,70.2z M191.3,47.2
			c-0.5,0.1-1,0.3-1.5,0.4c-0.6,0.1-1.1,0.2-1.8,0.3c-0.6,0.1-1.2,0.1-1.8,0.2c-0.6,0-1.1,0.1-1.6,0.1v0.7c0.5,0,1,0,1.6-0.1
			c0.6,0,1.2-0.1,1.8-0.2s1.2-0.2,1.8-0.3s1.1-0.2,1.6-0.3L191.3,47.2z M184.7,48.5h0.7v-5.4h-0.7V48.5z M188.8,54.3h1.6h1.6
			l1.6-0.1l1.5-0.1v-0.8c-0.9,0.1-1.9,0.1-3,0.1l-3.2,0.1L188.8,54.3z M195.9,55.9L194,56c-0.7,0-1.5,0.1-2.2,0.1h-2.3
			c-0.7,0-1.4,0-1.9,0V57c0.5,0,1.2,0,1.9,0h2.3l2.3-0.1l1.9-0.1L195.9,55.9z M187.6,56.5h0.7v-5.4l-0.7-0.2V56.5z M195.3,50.6
			l-1.8,0.1l-2.1,0.1l-2,0h-1.8l0.1,0.8h1.8l2-0.1l2-0.1l1.8-0.1L195.3,50.6z M198.3,45.7h-3.3l-0.4,0.4l0.4,0.4h3.3V45.7z
			 M194.2,49.4h0.7v-8.2h-0.7V49.4z"/>
		<path class="st1" d="M253.6,171.6c0.4,1,1.6,1.5,2.7,1.1c0.2-0.1,0.5-0.3,0.7-0.4c0.2-0.2,0.3-0.4,0.4-0.7
			c0.3-0.8,0.1-1.7-0.4-2.3c-0.8-0.8-2-0.9-2.8-0.1c-0.2,0.2-0.4,0.5-0.5,0.8C253.4,170.5,253.4,171,253.6,171.6 M256.5,171.7
			c-0.5,0.5-1.4,0.5-1.9,0c-0.5-0.5-0.5-1.4,0-1.9c0.5-0.5,1.4-0.5,1.9,0C257,170.3,257,171.2,256.5,171.7 M250.5,150.9
			c-1.1,0.1-2.2,0.1-3.3,0.1c-1.1,0-2.2,0.1-3.2,0.1l0.1,0.8l2.9-0.1l2.9-0.1L250.5,150.9z M243.5,160.1c0.9-0.4,1.7-1,2.4-1.6
			c0.8-0.6,1.5-1.4,2.1-2.1c0.3-0.4,0.6-0.8,0.8-1.3c0.3-0.5,0.5-0.9,0.7-1.4c0.2-0.5,0.4-1,0.6-1.4c0.2-0.5,0.3-0.9,0.4-1.4
			l-0.9,0.3c-0.2,0.8-0.4,1.6-0.8,2.4c-0.4,0.9-0.9,1.7-1.5,2.4c-0.6,0.7-1.3,1.4-2,2c-0.7,0.6-1.5,1.1-2.3,1.5L243.5,160.1z
			 M254.1,163.9h0.7v-16.7h-0.7V163.9z M242.4,141h3.8l3.9-0.1l3.9-0.1l3.7-0.1v-0.8L254,140c-1.3,0-2.6,0.1-3.9,0.1l-4,0.1h-3.9
			L242.4,141z M254.3,133.7c-0.7,0.1-1.4,0.3-2.1,0.4c-0.7,0.1-1.5,0.2-2.2,0.3c-0.7,0.1-1.5,0.2-2.2,0.2c-0.7,0.1-1.4,0.1-2.1,0.1
			l0.1,0.7c0.7,0,1.4-0.1,2.1-0.1l2.2-0.2c0.7-0.1,1.5-0.2,2.2-0.3c0.7-0.1,1.4-0.2,2.1-0.3L254.3,133.7z M255,129.6l-2,0.1
			l-2.4,0.1h-2.4h-2l0.1,0.8h1.9h2.2h2.2l1.8-0.1L255,129.6z M253.7,138.6c0.2-0.6,0.3-1.3,0.4-2.1c0.1-0.8,0.3-1.5,0.4-2.3
			c0.1-0.8,0.2-1.6,0.3-2.4s0.1-1.5,0.2-2.3l-0.8,0.3c0,0.6,0,1.3-0.1,2.1c-0.1,0.7-0.2,1.5-0.3,2.3c-0.1,0.8-0.2,1.5-0.4,2.2
			c-0.1,0.7-0.3,1.4-0.4,2L253.7,138.6z M244.9,108.1c0.3,0.8,0.9,1.4,1.7,1.7c0.8,0.3,1.7,0.3,2.6,0c0.4-0.2,0.7-0.4,1-0.7
			c0.3-0.3,0.5-0.6,0.7-1c0.3-0.8,0.3-1.7,0-2.5c-0.2-0.4-0.4-0.7-0.7-1c-0.3-0.3-0.6-0.5-1-0.7c-0.8-0.3-1.7-0.3-2.6,0
			C244.9,104.7,244.2,106.5,244.9,108.1 M245.5,106c0.1-0.3,0.3-0.6,0.5-0.8c0.2-0.2,0.5-0.4,0.8-0.5c0.6-0.3,1.4-0.3,2,0
			c0.3,0.1,0.6,0.3,0.8,0.5c1,1,1,2.5,0,3.5c-0.2,0.2-0.5,0.4-0.8,0.5c-0.6,0.3-1.4,0.3-2,0c-0.3-0.1-0.6-0.3-0.8-0.5
			C245.4,108,245.1,106.9,245.5,106 M254.1,118h0.7v-16.7h-0.7V118z M253,112.5c-1,0.2-1.9,0.3-2.8,0.4c-0.9,0.1-1.7,0.2-2.5,0.3
			c-0.8,0.1-1.7,0.1-2.5,0.2c-0.8,0.1-1.8,0.1-2.8,0.1l0.2,0.8c1,0,1.9-0.1,2.8-0.2c0.8-0.1,1.7-0.1,2.5-0.2
			c0.8-0.1,1.6-0.2,2.5-0.3l2.7-0.4L253,112.5z M243.8,93.8c1.3-1,2.3-2.2,3.2-3.6c0.8-1.4,1.4-2.9,1.8-4.5l-0.8-0.1
			c-0.2,0.8-0.4,1.5-0.7,2.3c-0.3,0.7-0.6,1.4-1,2c-0.4,0.6-0.8,1.2-1.3,1.7c-0.5,0.6-1.1,1.1-1.7,1.7L243.8,93.8z M258.2,89h-3.3
			l-0.4,0.4l0.4,0.4h3.3V89z M252.3,92.9l-3.9-3.6l-0.5,0.6l0.9,0.8l1,0.9l1,1l0.9,0.9L252.3,92.9z M251.5,85l-1.7,0.1l-2.1,0.1
			h-2.1H244l0.1,0.8h1.6l2-0.1l2.1-0.1l1.7-0.1L251.5,85z M254.1,97.9h0.7V81.2h-0.7V97.9z M241.9,68.1h3.9l4.1-0.1l4.1-0.1l3.8-0.1
			V67l-3.9,0.2c-1.3,0-2.7,0.1-4.1,0.1l-4.1,0.1h-3.9L241.9,68.1z M255,61.7l-1.9,0.1l-2.2,0.1h-2.2h-1.8l0.1,0.8h1.7h2h2l1.7-0.1
			L255,61.7z M254.3,66.3c0.1-0.4,0.2-0.8,0.3-1.2s0.1-0.7,0.2-1.1c0.1-0.3,0.1-0.7,0.1-1.1c0-0.4,0.1-0.8,0.1-1.3l-0.8,0.3
			c0,0.4-0.1,0.8-0.1,1.1s-0.1,0.7-0.1,1c-0.1,0.3-0.1,0.7-0.2,1s-0.2,0.7-0.3,1.1L254.3,66.3z M256,75.9l-2,0.1
			c-0.8,0-1.6,0.1-2.4,0.1h-2.4c-0.8,0-1.5,0-2,0v0.8c0.5,0,1.2,0,2,0h2.4l2.4-0.1c0.8,0,1.4-0.1,2-0.1L256,75.9z M247.2,76.5h0.7
			v-2.9h-0.7V76.5z M254.9,73c-0.5,0-1.1,0.1-1.8,0.1l-2.1,0.1h-2.1h-1.8V74h1.7h2.1l2-0.1l1.8-0.1L254.9,73z M254.2,73.4h0.7v-2.9
			h-0.7V73.4z M254.9,70.2l-1.9,0.1l-2.2,0.1l-2.1,0.1h-1.8l0.1,0.8h1.8l2.1-0.1L253,71l1.9-0.1L254.9,70.2z M251.3,47.2
			c-0.5,0.1-1,0.3-1.5,0.4c-0.6,0.1-1.1,0.2-1.8,0.3c-0.6,0.1-1.2,0.1-1.8,0.2c-0.6,0-1.1,0.1-1.6,0.1v0.7c0.5,0,1,0,1.6-0.1
			c0.6,0,1.2-0.1,1.8-0.2s1.2-0.2,1.8-0.3s1.1-0.2,1.6-0.3L251.3,47.2z M244.7,48.5h0.7v-5.4h-0.7V48.5z M248.8,54.3h1.6h1.6
			l1.6-0.1l1.5-0.1v-0.8c-0.9,0.1-1.9,0.1-3,0.1l-3.2,0.1L248.8,54.3z M255.9,55.9L254,56c-0.7,0-1.5,0.1-2.2,0.1h-2.3
			c-0.7,0-1.4,0-1.9,0V57c0.5,0,1.2,0,1.9,0h2.3l2.3-0.1l1.9-0.1L255.9,55.9z M247.6,56.5h0.7v-5.4l-0.7-0.2V56.5z M255.3,50.6
			l-1.8,0.1l-2.1,0.1l-2,0h-1.8l0.1,0.8h1.8l2-0.1l2-0.1l1.8-0.1L255.3,50.6z M258.3,45.7h-3.3l-0.4,0.4l0.4,0.4h3.3V45.7z
			 M254.2,49.4h0.7v-8.2h-0.7V49.4z"/>
		<line class="st2" x1="288.2" y1="40.4" x2="288.2" y2="460.4"/>
		<line class="st2" x1="0" y1="0.3" x2="943.3" y2="0.3"/>
	</g>
</g>
<rect x="316.7" y="40.4" class="st3" width="626.6" height="420"/>
<g>
	<defs>
		<rect id="SVGID_3_" width="943.3" height="460.4"/>
	</defs>
	<clipPath id="SVGID_4_">
		<use xlink:href="#SVGID_3_"  style="overflow:visible;"/>
	</clipPath>
	<g class="st4">
		<path class="st5" d="M764.3,186.2c3.5-8.8,6.4-17.9,8.5-27.2c2.1-9.8,3.3-19.7,3.5-29.8l-10.8,5.5c-0.2,4.5-0.5,8.8-0.9,12.7
			c-0.4,3.8-1.1,7.6-2,11.4c-0.9,3.8-2,7.5-3.2,11.1c-1.3,3.8-3,7.8-4.8,12.2L764.3,186.2z M845.3,125.6c-4.7,0.4-9.2,0.7-13.4,0.9
			c-4.2,0.3-8.3,0.5-12.5,0.7c-4.1,0.2-8.3,0.3-12.5,0.4s-8.7,0.2-13.6,0.4l0.8,10.2c16.9-0.5,34-1.3,51.1-2.4L845.3,125.6z
			 M776.4,128.5c-8.4,0.4-17.3,0.6-26.7,0.7s-18,0.2-25.7,0.4l0.8,10.2c7-0.2,14.5-0.3,22.7-0.4c8.1-0.1,16.9-0.3,26.3-0.6
			L776.4,128.5z M863.4,321.4l-65.5-28.8l-4.7,10.2l15.6,6.7c5.5,2.4,11.1,4.8,16.9,7.2c5.8,2.4,11.4,4.9,17,7.5
			c5.6,2.5,10.9,4.9,16,7.2L863.4,321.4z M727.3,331.6c18.5-4.9,33.8-12.2,45.7-22c12-9.8,20.9-23.2,26.9-40.4l-10.8-2.6
			c-2.5,7.6-5.9,15-10.1,21.9c-3.6,5.8-8.1,11-13.4,15.3c-5.5,4.4-11.6,8-18.1,10.8c-7.9,3.3-16,6-24.3,8.1L727.3,331.6z
			 M822.5,236.5c-10-0.5-19.6-1.4-29-2.5c-9.4-1.1-19-2.6-29-4.3l-0.8,11.5c9.4,1.4,19,2.6,28.7,3.7c9.7,1,19.2,1.8,28.4,2.4
			L822.5,236.5z M673.6,215.5c16.3,0,33.3-0.1,51.3-0.4c17.9-0.3,35.9-0.6,53.9-1c18-0.4,35.8-1,53.5-1.7s34.3-1.6,50.1-2.6
			l0.3-10.2c-15.9,1-32.7,1.9-50.5,2.6s-35.6,1.3-53.7,1.7c-18.1,0.4-36.1,0.8-54.1,1c-18,0.2-35.2,0.4-51.6,0.4L673.6,215.5z
			 M844,262.2c-7.2,0.3-15.5,0.7-25,1.1l-29.1,1.2c-9.9,0.4-19.5,0.7-28.8,1c-9.4,0.3-17.4,0.4-24.3,0.4l0.8,10.2
			c6.8,0,14.8-0.1,24-0.4c9.2-0.3,18.7-0.6,28.6-1c9.9-0.4,19.5-0.8,29-1.2c9.5-0.4,17.8-0.7,24.9-1L844,262.2z M835.6,180.6h9.7
			v-50.3h-9.7V180.6z M794.5,207.9h9.7v-43.8h-9.7V207.9z"/>
		<path class="st5" d="M494.5,213.3v-46.7h-8.6v46.7H380.8v7.9h208.9v-7.9H494.5z M489.3,267.3h71.3v-7.9h-71.3v-28.3h-8.6v28.3
			h-71.3v7.9h71.3v0.8c0,33-50.3,57.1-80.7,62.9l4.2,7.1c28.6-6.3,69.2-25.2,80.7-53.7c11.8,28.6,52.2,47.5,81,53.7l4.2-7.1
			c-30.4-5.8-80.7-29.9-80.7-62.9L489.3,267.3z M459.4,194.4c6.3-23,9.4-46.7,9.2-70.5v-5.5h-68.4v7.9h60c0,12.3-0.5,34.3-9.4,66.6
			L459.4,194.4z M556.7,194.9c4.2-23.4,6.2-47.1,6-70.8v-5.8h-72.8v7.9h64.5c0.1,22.6-2,45.1-6,67.4L556.7,194.9z"/>
		<line class="st6" x1="316.4" y1="97.3" x2="943.3" y2="97.3"/>
		<line class="st6" x1="316.4" y1="358.9" x2="943.3" y2="358.9"/>
		<path class="st5" d="M674.6,411.9c0.5,0,0.9-0.4,0.9-0.9c0,0,0,0,0,0c0.1-0.5-0.3-0.9-0.8-1c-0.5-0.1-0.9,0.3-1,0.8
			c0,0.1,0,0.1,0,0.2C673.7,411.5,674.1,411.9,674.6,411.9C674.6,411.9,674.6,411.9,674.6,411.9 M671.9,404.6h-2.7v-6.2h-0.9v15.1
			h0.9v-8.2h2.7V404.6z M659.4,408.9v-8.2h6.1V400h-7v9.8h1.1c2.4,0.1,4.9-0.1,7.2-0.5l-0.1-0.8c-2.3,0.4-4.7,0.6-7.1,0.5
			L659.4,408.9z M653.4,413.5h0.9v-15.1h-0.9V413.5z M644.1,408.8v-8.8h-0.9v9.6h1.2c2.5,0,5-0.2,7.4-0.8l-0.1-0.8
			c-2.4,0.5-4.8,0.7-7.3,0.7H644.1z M630.7,400c1.5,0.1,2.5,1.5,2.4,2.9s-1.5,2.5-2.9,2.4c-1.4-0.1-2.4-1.3-2.4-2.7
			c0-1.5,1.3-2.7,2.8-2.7C630.6,400,630.7,400,630.7,400 M630.7,399.2c-2.2,0-3.8,1.4-3.8,3.4s1.6,3.4,3.8,3.4s3.8-1.4,3.8-3.4
			S633,399.2,630.7,399.2 M630.1,410.2h7.8v2.4h-7.8V410.2z M629.2,407.4v6h9.5v-6h-0.9v2.1h-7.8v-2.1H629.2z M637.9,406.6h0.9v-8.1
			h-0.9V406.6z M619.1,410.5v-5.1h-0.9v5.1h-2.8v-5.1h-0.9v5.1h-3.7v0.8h13.7v-0.8H619.1z M621.8,401.9c0.1,2.2-0.1,4.3-0.5,6.4
			l0.9,0.1c0.4-2.2,0.6-4.3,0.5-6.5v-1.8h-10.4v0.8h9.5L621.8,401.9z M597,404.7h5.1v4.4H597V404.7z M596.1,399.8v10.1h6.9v-10.1
			h-0.9v4.2H597v-4.2L596.1,399.8z M606.5,413.6h0.9v-15.1h-0.9V413.6z M586.1,413.6h0.9v-15.1h-0.9V413.6z M575.7,400.1v0.8h6
			c-0.2,3.7-2.5,6.9-6.7,8.9l0.5,0.8c4.9-2.4,7.1-6.2,7.1-10.5H575.7z M559.1,411.3h13.7v-0.8h-13.6L559.1,411.3z M560.4,404.8
			l0.2,0.8l9.4-0.6c-0.1,1.4-0.3,2.8-0.6,4.1l0.9,0.1c0.5-2.4,0.7-4.8,0.7-7.2v-1.9h-10.1v0.8h9.2v1.2c0,0.8,0,1.5,0,2.3
			L560.4,404.8z M557.6,404.8H555v-6.3h-0.9v15.1h0.9v-8h2.7L557.6,404.8z M548.3,400.9h3.5v-0.8h-8.1v0.8h3.6v2.5
			c-0.2,2.7-1.8,5.1-4.1,6.5l0.6,0.8c1.9-1.2,3.4-3.1,4-5.3c0.7,2.1,2.1,3.8,3.9,4.9l0.5-0.7c-2.3-1.2-3.8-3.5-4-6.1V400.9z
			 M539.3,404.3c0.3-1.4,0.4-2.8,0.4-4.2v-1h-10v0.8h9.2v0.2c0,1.4-0.1,2.8-0.4,4.2h-10.6v0.8h13.7v-0.8L539.3,404.3z M530.4,410.4
			h9.3v-3.5h-10.2v0.8h9.4v2.1h-9.3v3.7h10.6v-0.8h-9.7L530.4,410.4z M507.7,410.1c3.3,0.1,6.7-0.1,10-0.6l-0.1-0.7
			c-3.3,0.4-6.7,0.6-10,0.5L507.7,410.1z M518.7,413.6h0.9v-15.2h-0.9V413.6z M512.4,400.4c1.5,0.2,2.5,1.6,2.3,3.1
			c-0.2,1.5-1.6,2.5-3.1,2.3c-1.3-0.2-2.3-1.3-2.3-2.7c0.1-1.6,1.4-2.8,3-2.7C512.3,400.4,512.3,400.4,512.4,400.4 M512.4,399.7
			c-2.4,0-4,1.4-4,3.5s1.6,3.5,4,3.5s4-1.4,4-3.5S514.8,399.7,512.4,399.7 M505.9,405h-2.6v-6.6h-0.9v15.1h0.9v-7.7h2.6V405z
			 M496.9,407.7c1.8-0.1,3-1.2,3-2.7s-1.4-2.8-3.5-2.8s-3.4,1.1-3.4,2.8s1.2,2.6,3,2.7v1.9c-1.6,0.1-3.1,0.1-4.4,0.1l0.2,0.8
			c3.2,0.1,6.4-0.1,9.6-0.6l-0.1-0.7c-1.4,0.2-2.9,0.3-4.5,0.4L496.9,407.7z M493.9,405c0-1.2,1-2,2.6-2s2.6,0.8,2.6,2s-1.1,2-2.6,2
			S493.9,406.1,493.9,405 M501,400.4h-4.1v-1.9H496v1.9h-4.1v0.8h9.1L501,400.4z M489.9,407.2h-13.7v0.8h3.8v5.6h0.9V408h4.3v5.6
			h0.9V408h3.8L489.9,407.2z M483,405.6c3.1,0,5.2-1.3,5.2-3.3s-2.1-3.2-5.2-3.2s-5.2,1.2-5.2,3.2S479.9,405.6,483,405.6 M483,399.8
			c2.5,0,4.3,1,4.3,2.5s-1.8,2.5-4.3,2.5s-4.3-1-4.3-2.5S480.5,399.8,483,399.8 M472.2,403.2v-4.8h-0.9v11.2h0.9V404h2.4v-0.8
			L472.2,403.2z M464,408.6h-0.9v4.6h9.9v-0.8h-9L464,408.6z M469.3,406.3c-2.1-0.8-3.9-2.7-3.9-4.9v-2.1h-0.9v2
			c-0.1,2.4-1.6,4.6-3.9,5.4l0.5,0.7c1.8-0.7,3.3-2.3,3.9-4.2c0.7,1.7,2.1,3,3.8,3.7L469.3,406.3z M454.3,404.9h-2.7v-6.4h-0.9v15.1
			h0.9v-7.9h2.6L454.3,404.9z M445.3,406.4c1.9,0,3.4-1.5,3.5-3.4c0-2.1-1.6-3.5-3.9-3.5s-3.9,1.4-3.9,3.5c0,1.9,1.6,3.4,3.5,3.4
			c0,0,0,0,0,0v2.9c-1.5,0-3,0.1-4.3,0.1l0.2,0.8c3.2,0.1,6.4-0.1,9.5-0.6l-0.1-0.7c-1.4,0.2-2.9,0.3-4.5,0.4L445.3,406.4z
			 M441.8,402.9c-0.2-1.7,1-3.2,2.7-3.4c1.7-0.2,3.2,1,3.4,2.7s-1,3.2-2.7,3.4c-0.1,0-0.3,0-0.4,0c-1.5,0.1-2.9-1-3-2.5
			C441.8,403.1,441.8,403,441.8,402.9 M424.6,411.4h13.7v-0.8h-13.7V411.4z M437.5,406.3c-2.1-0.4-5.6-2.7-5.6-5.5v-1.2H431v1.2
			c0,2.8-3.4,5-5.6,5.5l0.4,0.8c2-0.5,4.7-2.2,5.6-4.6c0.9,2.4,3.7,4,5.7,4.6L437.5,406.3z M420.6,403.2v-4.8h-0.9v11.2h0.9V404h2.4
			v-0.8L420.6,403.2z M412.4,408.6h-0.9v4.6h9.9v-0.8h-9L412.4,408.6z M417.7,406.3c-2.1-0.8-3.9-2.7-3.9-4.9v-2.1h-0.9v2
			c-0.1,2.4-1.6,4.6-3.9,5.4l0.5,0.7c1.8-0.7,3.3-2.3,3.9-4.2c0.7,1.7,2.1,3.1,3.8,3.8L417.7,406.3z M395.9,410.8v-3.5h4.8v-0.8
			h-9.3v-2.7h8.8v-0.8h-8.8v-2.5h9.1v-0.8h-10.2v7.5h4.5v3.5h-6.4v0.8h13.7v-0.8H395.9z M380.2,410.7v-4.4h4.8v-0.8h-9.4v-5.7h-0.9
			v6.5h4.6v4.4H373v0.8h13.7v-0.8H380.2z M367,403.8l1.3-1.6l1.2,1.6l0.6-0.4l-1-1.7l1.7-0.7l-0.2-0.6l-1.8,0.5l-0.1-1.9h-0.7
			l-0.1,2l-1.8-0.5l-0.2,0.6l1.7,0.7l-1,1.7L367,403.8z"/>
	</g>
</g>
</svg>
