<svg xmlns="http://www.w3.org/2000/svg" xmlns:xlink="http://www.w3.org/1999/xlink" viewBox="0 0 943.31 538.99"><defs><style>.cls-1,.cls-11,.cls-4,.cls-5,.cls-9{fill:none;}.cls-2{clip-path:url(#clip-path);}.cls-3{fill:#231916;}.cls-4,.cls-5{stroke:#231916;}.cls-4{stroke-width:0.3px;}.cls-5{stroke-width:1.2px;}.cls-6{fill:#44403f;}.cls-7{fill:#1d2087;}.cls-8{fill:#f4f4f4;}.cls-9{stroke:#44403f;stroke-width:2.87px;}.cls-10{fill:#fff;}.cls-11{stroke:#fff;stroke-width:0.22px;}</style><clipPath id="clip-path"><rect class="cls-1" width="943.31" height="538.99"/></clipPath></defs><title>columns-8</title><g id="Layer_2" data-name="Layer 2"><g id="Layer_1-2" data-name="Layer 1"><g class="cls-2"><path class="cls-3" d="M520.43,185.16a2.09,2.09,0,0,0,.43.66,2.12,2.12,0,0,0,.66.44,2,2,0,0,0,.8.16,1.92,1.92,0,0,0,.79-.16,2,2,0,0,0,1.1-1.1,2.08,2.08,0,0,0,0-1.6,2,2,0,0,0-1.1-1.1,1.92,1.92,0,0,0-.79-.16,2,2,0,0,0-.8.16,2.12,2.12,0,0,0-.66.44,2.09,2.09,0,0,0-.43.66,2.08,2.08,0,0,0,0,1.6m2.83.14a1.37,1.37,0,0,1-1.89,0,1.35,1.35,0,0,1,0-1.88,1.37,1.37,0,0,1,1.89,0,1.33,1.33,0,0,1,0,1.88m-6.21-20.56c-.91.06-1.88.11-2.92.15s-2,0-2.9,0v.76h1.4l1.49,0,1.5,0,1.43-.07Zm1.54,6.34a15.91,15.91,0,0,1-3.45.92,22,22,0,0,1-3.87.24l0,.74a22.39,22.39,0,0,0,4-.28,18.92,18.92,0,0,0,3.6-.92ZM511.23,173l.74-.2V165.5h-.74ZM525,168.68h-3.32l-.38.36.38.42,3.32,0Zm-4.06,8.82h.74V160.84h-.74Zm-2.16-26.62a31.37,31.37,0,0,1-3.56.88,29.29,29.29,0,0,1-3.88.44l0,.74a29.22,29.22,0,0,0,4-.46c1.26-.24,2.48-.53,3.67-.88Zm-7.48,2,.74-.2v-8h-.74Zm9.64,4.58h.74V140.84h-.74Zm1.92-31.74-4.16-2.16-.36.68,2,1.07,2.07,1.13Zm-9.68.8a8.35,8.35,0,0,0,3.57-2.1,7.59,7.59,0,0,0,1.91-3.56l-.72-.18a9.51,9.51,0,0,1-.7,1.85,5.77,5.77,0,0,1-1,1.43,6.93,6.93,0,0,1-1.45,1.08,11.3,11.3,0,0,1-1.91.82Zm8.5,10.4h-7.42v-.78h7.42Zm0-3.28q-.75,0-1.71.06l-2,0-2,0h-1.68v-.76H516l2,0,2-.06,1.7-.07Zm0,2.82h-.74v-5.64h.74Zm-7.42-5.34H515v5.44h-.74Zm-5.66-2.5,3.94,0,4.13-.08c1.38,0,2.74-.08,4.1-.13s2.63-.12,3.85-.2l0,.78c-1.2.08-2.48.15-3.82.2s-2.71.1-4.08.13l-4.11.08-3.91,0Zm13.08-12.76h-7.6v.78h7.6ZM525,105.78h-3.32l-.38.36.38.42,3.32,0Zm-13.84,2.46.74-.2v-4.86h-.74Zm5.86-5.18c-.92,0-1.9.09-2.92.1l-2.94,0,.06.76,2.89,0c1,0,2,0,2.91-.08Zm-.74,5.3H517v-4.78h-.74Zm.74-.42h-5.86v.78H517Zm3.92,1.4h.74v-8.5h-.74Zm.74,3.14-1.73.07-2,.06-2,0h-1.73v.76h1.71l2,0,2-.05q1,0,1.74-.06Zm0-2.16h-.74v6h.74Zm-7.6,6.12.74,0v-6h-.74Zm7.7-32.8-2,.08q-1.17,0-2.4.06l-2.37,0-1.92,0,.06.78,1.75,0,2.19,0,2.21,0q1.07,0,1.83-.06Zm-1.14,7.12c.13-.52.26-1.08.38-1.67s.23-1.2.33-1.82.18-1.24.26-1.86.13-1.21.17-1.77l-.8.26c0,.47-.08,1-.14,1.56s-.15,1.16-.24,1.76-.2,1.19-.32,1.77-.25,1.12-.38,1.61ZM509.19,95,513,95l3.93-.08c1.3,0,2.6-.08,3.9-.13s2.54-.12,3.74-.2l0-.78c-1.22.08-2.47.15-3.77.2s-2.61.1-3.93.13l-3.95.08-3.85,0Zm6.62-.48h.74V88.44h-.74Z"/><path class="cls-3" d="M560.66,127.77a3.13,3.13,0,0,0,.68,1,3.37,3.37,0,0,0,1,.69,3.25,3.25,0,0,0,1.28.25,3.2,3.2,0,0,0,1.27-.25,3.26,3.26,0,0,0,1-.69,3.33,3.33,0,0,0,.69-1,3.25,3.25,0,0,0,0-2.5,3.33,3.33,0,0,0-.69-1,3.26,3.26,0,0,0-1-.69,3.2,3.2,0,0,0-1.27-.25,3.25,3.25,0,0,0-1.28.25,3.37,3.37,0,0,0-1,.69,3.13,3.13,0,0,0-.68,1,3.25,3.25,0,0,0,0,2.5m.68-2.22a2.49,2.49,0,0,1,.53-.79,2.47,2.47,0,0,1,1.79-.74,2.47,2.47,0,0,1,1,.2,2.41,2.41,0,0,1,.79.54,2.52,2.52,0,0,1,.54.79,2.57,2.57,0,0,1,0,1.94,2.52,2.52,0,0,1-.54.79,2.41,2.41,0,0,1-.79.54,2.47,2.47,0,0,1-1,.2,2.51,2.51,0,0,1-2.32-1.53,2.57,2.57,0,0,1,0-1.94m8.59,12h.74V120.84h-.74Zm-1.16-5.44c-1,.17-1.93.32-2.78.43s-1.69.21-2.51.29-1.66.15-2.5.2-1.77.1-2.77.14l.16.78c1,0,1.9-.09,2.75-.16s1.67-.14,2.49-.23l2.48-.3,2.74-.39Zm-8.7-23.32h.74v-5.5h-.74Zm5.86-5.62c-.92,0-1.9.09-2.92.1l-2.94,0,.06.76,2.89,0c1,0,2,0,2.91-.08Zm-.74,5.74h.74v-5.22h-.74Zm.74-.42h-5.86v.78h5.86Zm4,4.26h.74V100.84h-.74Zm1.84,2.44-1.93.12q-1.14.06-2.34.09l-2.35,0q-1.14,0-2,0v.78c.54,0,1.2,0,2,0l2.35,0,2.35-.08c.76,0,1.4-.07,1.94-.11Zm-8.6.8h.74v-4.26h-.74ZM568.24,97a3.71,3.71,0,0,0,1.06-.5,2.4,2.4,0,0,0,.7-.76,2.17,2.17,0,0,0,0-2,2.3,2.3,0,0,0-.7-.76,3.46,3.46,0,0,0-1.06-.5,4.7,4.7,0,0,0-1.33-.18,4.65,4.65,0,0,0-1.33.18,3.35,3.35,0,0,0-1.06.5,2.2,2.2,0,0,0-.7.76,2.17,2.17,0,0,0,0,2,2.29,2.29,0,0,0,.7.76,3.59,3.59,0,0,0,1.06.5,4.65,4.65,0,0,0,1.33.18,4.7,4.7,0,0,0,1.33-.18m.53-3.55a1.48,1.48,0,0,1,0,2.56A4.09,4.09,0,0,1,565,96a1.49,1.49,0,0,1,0-2.56,4.09,4.09,0,0,1,3.73,0m-2.26-2.83h.74v-1.7h-.74Zm-2.6-3.27a2.29,2.29,0,0,0,.64.68,3.25,3.25,0,0,0,1,.44,4.51,4.51,0,0,0,1.19.15,4.43,4.43,0,0,0,1.18-.15,3,3,0,0,0,1-.44,2.33,2.33,0,0,0,.65-.68,1.73,1.73,0,0,0,.24-.9,1.79,1.79,0,0,0-.24-.91,2.24,2.24,0,0,0-.65-.69,3,3,0,0,0-1-.45,4.06,4.06,0,0,0-1.18-.16,4.13,4.13,0,0,0-1.19.16,3.27,3.27,0,0,0-1,.45,2.21,2.21,0,0,0-.64.69,1.79,1.79,0,0,0-.24.91,1.73,1.73,0,0,0,.24.9m1.19-2a3.8,3.8,0,0,1,3.23,0,1.2,1.2,0,0,1,.66,1.13,1.16,1.16,0,0,1-.66,1.11,4,4,0,0,1-3.23,0,1.17,1.17,0,0,1-.65-1.11,1.21,1.21,0,0,1,.65-1.13m3.95-4.58c-.76,0-1.5-.1-2.21-.19s-1.45-.2-2.21-.33l-.06.88c.72.11,1.45.2,2.19.28s1.46.14,2.17.18Zm2,1.7-2.13.08-2.61.08-2.58.05-2.06,0,.06.78,1.28,0,1.59,0,1.75,0,1.75-.05,1.62,0,1.33,0Zm-13.4,8.64,3.91,0,4.11-.08c1.37,0,2.73-.08,4.08-.13s2.62-.12,3.82-.2l0-.78c-1.22.08-2.5.15-3.85.2s-2.72.1-4.1.13l-4.13.08-3.94,0Z"/><path class="cls-3" d="M593.93,237.16a2.09,2.09,0,0,0,.43.66,2.12,2.12,0,0,0,.66.44,2,2,0,0,0,.8.16,1.92,1.92,0,0,0,.79-.16,2,2,0,0,0,1.1-1.1,2.08,2.08,0,0,0,0-1.6,2,2,0,0,0-1.1-1.1,1.92,1.92,0,0,0-.79-.16,2,2,0,0,0-.8.16,2.12,2.12,0,0,0-.66.44,2.09,2.09,0,0,0-.43.66,2.08,2.08,0,0,0,0,1.6m2.83.14a1.37,1.37,0,0,1-1.89,0,1.35,1.35,0,0,1,0-1.88,1.37,1.37,0,0,1,1.89,0,1.33,1.33,0,0,1,0,1.88m-8-18.08,1.62,0,1.67-.05,1.62-.06,1.47-.07v-.8l-1.47.08-1.62.07-1.67.05-1.62,0Zm6.84,2.16-1.9.12c-.74,0-1.49.07-2.27.09l-2.28,0q-1.11,0-2,0v.78c.54,0,1.19,0,1.93,0l2.28,0,2.28-.08c.74,0,1.37-.07,1.91-.11Zm-.24-6.46-1.79.08-2.3.06-2.3,0h-1.77v.76H589l2.3,0,2.31,0c.74,0,1.33,0,1.79-.07Zm-8.16,7.46.74-.2v-6.7h-.74Zm-4.56,4.42,3.83,0,3.93-.08c1.3,0,2.6-.08,3.9-.13s2.54-.12,3.74-.2l0-.78c-1.22.08-2.47.15-3.77.2s-2.61.1-3.93.13l-3.95.08-3.85,0Zm6.06-22.87a3.36,3.36,0,0,0,1.1-.79,3.46,3.46,0,0,0,.71-1.17,4.21,4.21,0,0,0,0-2.86,3.46,3.46,0,0,0-.71-1.17,3.36,3.36,0,0,0-1.1-.79,3.42,3.42,0,0,0-1.41-.29,3.47,3.47,0,0,0-1.42.29,3.36,3.36,0,0,0-1.1.79,3.44,3.44,0,0,0-.7,1.17,4.21,4.21,0,0,0,0,2.86,3.44,3.44,0,0,0,.7,1.17,3.36,3.36,0,0,0,1.1.79,3.47,3.47,0,0,0,1.42.29,3.42,3.42,0,0,0,1.41-.29m-.29-6.12a2.46,2.46,0,0,1,.86.63,2.7,2.7,0,0,1,.56.94,3.64,3.64,0,0,1,0,2.32,2.7,2.7,0,0,1-.56.94,2.46,2.46,0,0,1-.86.63,2.7,2.7,0,0,1-1.12.23,2.75,2.75,0,0,1-1.13-.23,2.55,2.55,0,0,1-.86-.63,2.68,2.68,0,0,1-.55-.94,3.64,3.64,0,0,1,0-2.32,2.68,2.68,0,0,1,.55-.94,2.55,2.55,0,0,1,.86-.63,2.75,2.75,0,0,1,1.13-.23,2.7,2.7,0,0,1,1.12.23m6,11.69h.74V192.84h-.74ZM583.81,185a10.45,10.45,0,0,0,3.35-3.94,15.28,15.28,0,0,0,1.45-5.28l-.76-.1a14.62,14.62,0,0,1-1.33,5,10,10,0,0,1-3.21,3.71Zm14.68-4.62h-3.32l-.38.36.38.42,3.32,0Zm-6.6,4-3.34-4-.6.54,1.64,1.93c.58.7,1.13,1.39,1.64,2.07Zm2.54,5.16h.74V172.84h-.74Zm-8-29.08a18,18,0,0,1-.29,1.85,12.44,12.44,0,0,1-.53,1.71l.74.3a11.6,11.6,0,0,0,.57-1.86c.12-.61.22-1.25.29-1.92Zm1.88-1.69a2.94,2.94,0,0,0,.89-.5,2.32,2.32,0,0,0,.59-.73,2,2,0,0,0,0-1.82,2.32,2.32,0,0,0-.59-.73,2.94,2.94,0,0,0-.89-.5,3.08,3.08,0,0,0-1.11-.19,3.18,3.18,0,0,0-1.12.19,2.94,2.94,0,0,0-.89.5,2.29,2.29,0,0,0-.58.73,2,2,0,0,0,0,1.82,2.29,2.29,0,0,0,.58.73,2.94,2.94,0,0,0,.89.5,3.18,3.18,0,0,0,1.12.19,3.08,3.08,0,0,0,1.11-.19m.38-3.28a1.41,1.41,0,0,1,0,2.28,2.61,2.61,0,0,1-3,0,1.43,1.43,0,0,1,0-2.28,2.61,2.61,0,0,1,3,0m3.78,6.13h-3v.78h3Zm-2.08-2c-1.26.24-2.57.44-3.94.59s-2.72.26-4,.31l.1.78c1.29-.05,2.63-.16,4-.32s2.7-.35,4-.6Zm1.68,3.54h.74V154h-.74Zm2.38-.2h.74V152.84h-.74Zm.74,5.4h-7.52v.78h7.52Zm0-2.82-1.73.07-2,.06-2,0h-1.72v.76h1.7l2,0,2-.05c.66,0,1.23,0,1.73-.06Zm0-1.66h-.76v4.8h.76Zm-7.52,4.92.74-.16v-4.52h-.74Zm-3.1-34.56.74-.2v-4.86h-.74Zm5.94-5.18c-.92.05-1.91.09-3,.1l-3,0,.06.76,2.93,0c1,0,2,0,3-.08Zm-.74,5.3h.74v-4.78h-.74Zm.74-.42h-5.94v.78h5.94Zm3.92,1.42h.74v-8.46h-.74Zm1.72,7-4.46-1.8-.22.68,2.11.9c.71.31,1.45.63,2.21,1Zm-9.68.8a11,11,0,0,0,3.3-1.4,8,8,0,0,0,1.09-1,6,6,0,0,0,1-1.69l-.82-.2a5.43,5.43,0,0,1-.77,1.35,5.19,5.19,0,0,1-1.09,1,7.54,7.54,0,0,1-1.34.71,14.76,14.76,0,0,1-1.68.53Zm7.06-6.58c-.76,0-1.5-.1-2.21-.19s-1.45-.2-2.21-.33l-.06.88c.72.11,1.45.2,2.19.28s1.46.14,2.17.18Zm1.64,1.94-1.91.08-2.22.1-2.2.07-1.85,0,.06.78,1.83,0,2.18-.08,2.21-.09,1.9-.08Zm-2.76-30-3.54-2.68-.44.62q.9.68,1.71,1.32l1.77,1.4ZM584.29,110a11.5,11.5,0,0,0,1.82-1.51,8.88,8.88,0,0,0,1.33-1.78,11,11,0,0,0,.89-2.1,16.77,16.77,0,0,0,.52-2.47l-.72-.12a17,17,0,0,1-.49,2.37,9.56,9.56,0,0,1-.81,1.93,8.05,8.05,0,0,1-1.23,1.62,12.57,12.57,0,0,1-1.75,1.44Zm10.14-.06h.74v-9.08h-.74Zm-5.34,5.21a2.9,2.9,0,0,0,.7,1,3.37,3.37,0,0,0,3.53.65,3.53,3.53,0,0,0,1-.65,3.21,3.21,0,0,0,.7-1,2.85,2.85,0,0,0,0-2.38,3.21,3.21,0,0,0-.7-1,3.53,3.53,0,0,0-1-.65,3.31,3.31,0,0,0-1.25-.24,3.36,3.36,0,0,0-2.28.89,2.9,2.9,0,0,0-.7,1,2.85,2.85,0,0,0,0,2.38m5.27-.28a2.21,2.21,0,0,1-.54.74,2.45,2.45,0,0,1-.79.49,2.58,2.58,0,0,1-1,.18,2.63,2.63,0,0,1-1-.18,2.56,2.56,0,0,1-.79-.49,2.24,2.24,0,0,1,0-3.3,2.56,2.56,0,0,1,.79-.49,2.63,2.63,0,0,1,1-.18,2.58,2.58,0,0,1,1,.18,2.45,2.45,0,0,1,.79.49,2.21,2.21,0,0,1,.54.74,2.27,2.27,0,0,1,0,1.82m4.13-8.87h-3.32l-.38.36.38.42,3.32,0ZM595,87.2h-3.36V88H595Zm0-3.5h-3.36v.78H595Zm-5.86,11.47a2.86,2.86,0,0,0,.7,1,3.07,3.07,0,0,0,1,.63,3.47,3.47,0,0,0,1.25.23,3.51,3.51,0,0,0,1.25-.23,3.28,3.28,0,0,0,1-.63,3.17,3.17,0,0,0,.7-1,2.85,2.85,0,0,0,0-2.38,3.17,3.17,0,0,0-.7-1,3.28,3.28,0,0,0-1-.63,3.51,3.51,0,0,0-1.25-.23,3.47,3.47,0,0,0-1.25.23,3.07,3.07,0,0,0-1,.63,2.86,2.86,0,0,0-.7,1,2.85,2.85,0,0,0,0,2.38m5.27-.29A2.38,2.38,0,0,1,593,96.09a2.78,2.78,0,0,1-1,.17,2.84,2.84,0,0,1-1-.17,2.36,2.36,0,0,1-.79-.48,2.25,2.25,0,0,1-.53-.73,2.23,2.23,0,0,1,0-1.8,2.25,2.25,0,0,1,.53-.73,2.36,2.36,0,0,1,.79-.48,2.84,2.84,0,0,1,1-.17,2.78,2.78,0,0,1,1,.17,2.22,2.22,0,0,1,1.33,3m-9.86-7.76a3.18,3.18,0,0,0,.67,1,3.28,3.28,0,0,0,1,.69,3.11,3.11,0,0,0,1.25.26,3.06,3.06,0,0,0,1.24-.26,3.17,3.17,0,0,0,1-.69,3.39,3.39,0,0,0,.68-1,3.1,3.1,0,0,0,0-2.44,3.39,3.39,0,0,0-.68-1,3.17,3.17,0,0,0-1-.69,3.06,3.06,0,0,0-1.24-.26,3.11,3.11,0,0,0-1.25.26,3.28,3.28,0,0,0-1,.69,3.18,3.18,0,0,0-.67,1,3.1,3.1,0,0,0,0,2.44m.68-2.15a2.47,2.47,0,0,1,.52-.79,2.44,2.44,0,0,1,.77-.54,2.4,2.4,0,0,1,1-.2,2.36,2.36,0,0,1,1,.2,2.33,2.33,0,0,1,.77.54,2.43,2.43,0,0,1,0,3.44,2.33,2.33,0,0,1-.77.54,2.36,2.36,0,0,1-1,.2,2.4,2.4,0,0,1-1-.2,2.44,2.44,0,0,1-.77-.54,2.47,2.47,0,0,1-.52-.79,2.37,2.37,0,0,1,0-1.86m9.25,5h.74V80.84h-.74Z"/><path class="cls-3" d="M633.59,147.4a3.1,3.1,0,0,0,.7,1,3.42,3.42,0,0,0,1.05.69,3.19,3.19,0,0,0,1.26.26,3.15,3.15,0,0,0,1.25-.26,3.42,3.42,0,0,0,1-.69,3.29,3.29,0,0,0,.71-1,3.09,3.09,0,0,0,0-2.48,3.29,3.29,0,0,0-.71-1,3.42,3.42,0,0,0-1-.69,3.15,3.15,0,0,0-1.25-.26,3.19,3.19,0,0,0-1.26.26,3.42,3.42,0,0,0-1.05.69,3.1,3.1,0,0,0-.7,1,3.09,3.09,0,0,0,0,2.48m.68-2.19a2.52,2.52,0,0,1,.54-.79,2.46,2.46,0,0,1,.8-.54,2.53,2.53,0,0,1,2,0,2.36,2.36,0,0,1,.8.54,2.73,2.73,0,0,1,.55.79,2.36,2.36,0,0,1,0,1.9,2.73,2.73,0,0,1-.55.79,2.36,2.36,0,0,1-.8.54,2.53,2.53,0,0,1-2,0,2.46,2.46,0,0,1-.8-.54,2.52,2.52,0,0,1-.54-.79,2.36,2.36,0,0,1,0-1.9m11,9.93-1.95.12c-.77,0-1.56.07-2.38.09l-2.39,0c-.78,0-1.44,0-2,0v.78q.81,0,2,0l2.39,0,2.39-.08c.77,0,1.42-.07,2-.11Zm-8.72.8h.74V151.7h-.74Zm6.88-3.24h.74V140.84h-.74Zm-10.3-19.3a14.59,14.59,0,0,0,3.16-3.62,16.42,16.42,0,0,0,1.8-4.52l-.78-.06a20.1,20.1,0,0,1-.7,2.26,11.91,11.91,0,0,1-1,2,12.91,12.91,0,0,1-1.33,1.76,18.56,18.56,0,0,1-1.74,1.66Zm14.36-4.82h-3.32l-.38.36.38.42,3.32,0Zm-5.86,3.88-3.86-3.64-.52.58.86.79,1,.94,1,1,.91.94Zm-.82-7.84-1.68.08-2.06.08-2.06,0-1.68,0,.06.78,1.65,0,2,0,2-.07,1.68-.08Zm2.62,12.88h.74V120.84h-.74Zm-3.94-32.76c-.91.06-1.88.11-2.92.15s-2,0-2.9,0v.76h1.4l1.49,0,1.5,0,1.43-.07Zm1.54,6.34a15.91,15.91,0,0,1-3.45.92,22,22,0,0,1-3.87.24l0,.74a22.39,22.39,0,0,0,4-.28,18.92,18.92,0,0,0,3.6-.92ZM633.67,113l.74-.2V105.5h-.74Zm9.76,4.54h.74V100.84h-.74Zm-6.12-32.56a2.47,2.47,0,0,0,.77.9,3.77,3.77,0,0,0,1.14.55,4.88,4.88,0,0,0,1.4.19,4.81,4.81,0,0,0,1.39-.19,3.66,3.66,0,0,0,1.14-.55,2.57,2.57,0,0,0,0-4.18,3.66,3.66,0,0,0-1.14-.55,4.81,4.81,0,0,0-1.39-.19,4.88,4.88,0,0,0-1.4.19,3.77,3.77,0,0,0-1.14.55,2.63,2.63,0,0,0-.77,3.28m.68-2.1a1.72,1.72,0,0,1,.6-.63,3,3,0,0,1,.91-.38,4.47,4.47,0,0,1,1.12-.13,4.33,4.33,0,0,1,1.11.13,3,3,0,0,1,.91.38,1.84,1.84,0,0,1,.61.63,1.88,1.88,0,0,1,.22.91,1.91,1.91,0,0,1-.22.91,1.84,1.84,0,0,1-.61.63,3,3,0,0,1-.91.38,4.33,4.33,0,0,1-1.11.13,4.47,4.47,0,0,1-1.12-.13,3,3,0,0,1-.91-.38,1.72,1.72,0,0,1-.6-.63,1.8,1.8,0,0,1-.22-.91,1.78,1.78,0,0,1,.22-.91m.12,6.2a8.88,8.88,0,0,1-1.19,1.72,7.35,7.35,0,0,1-1.71,1.44l.54.58a7.27,7.27,0,0,0,.89-.68,11.36,11.36,0,0,0,.85-.85c.26-.3.51-.61.74-.93a8.74,8.74,0,0,0,.56-.92Zm5.32,3.66h.76V87.92h-.76Zm.76-5.1c-1.07.06-2.16.1-3.27.14l-3.34.09-3.31.07-3.16,0,.08.78,3.14,0,3.28-.06,3.32-.1,3.26-.12Zm.88,7.64-1.84.12c-.7,0-1.41.07-2.14.09l-2.15,0q-1.05,0-1.89,0v.78c.54,0,1.17,0,1.87,0l2.15,0,2.15-.08c.7,0,1.31-.07,1.85-.11Zm-8,1,.76-.4V92.68h-.76Z"/><path class="cls-3" d="M667.43,165.16a2.09,2.09,0,0,0,.43.66,2.12,2.12,0,0,0,.66.44,2,2,0,0,0,.8.16,1.92,1.92,0,0,0,.79-.16,2,2,0,0,0,1.1-1.1,2.08,2.08,0,0,0,0-1.6,2,2,0,0,0-1.1-1.1,1.92,1.92,0,0,0-.79-.16,2,2,0,0,0-.8.16,2.12,2.12,0,0,0-.66.44,2.09,2.09,0,0,0-.43.66,2.08,2.08,0,0,0,0,1.6m2.83.14a1.37,1.37,0,0,1-1.89,0,1.35,1.35,0,0,1,0-1.88,1.37,1.37,0,0,1,1.89,0,1.33,1.33,0,0,1,0,1.88m-7.75-22.89a2.31,2.31,0,0,1,.71.38,2.08,2.08,0,0,1,.5.6,1.78,1.78,0,0,1,0,1.6,2.08,2.08,0,0,1-.5.6,2.31,2.31,0,0,1-.71.38,2.63,2.63,0,0,1-.84.13,2.55,2.55,0,0,1-.84-.13,2.11,2.11,0,0,1-.71-.38,1.81,1.81,0,0,1-.5-.6,1.78,1.78,0,0,1,0-1.6,1.81,1.81,0,0,1,.5-.6,2.11,2.11,0,0,1,.71-.38,2.55,2.55,0,0,1,.84-.13,2.63,2.63,0,0,1,.84.13m.27,4.22a3.26,3.26,0,0,0,.93-.53,2.64,2.64,0,0,0,.64-.83,2.55,2.55,0,0,0,0-2.16,2.64,2.64,0,0,0-.64-.83,3.17,3.17,0,0,0-2-.72,3.16,3.16,0,0,0-1.11.19,3,3,0,0,0-.93.53,2.5,2.5,0,0,0-.64.83,2.55,2.55,0,0,0,0,2.16,2.5,2.5,0,0,0,.64.83,3,3,0,0,0,.93.53,3.16,3.16,0,0,0,1.11.19,3.24,3.24,0,0,0,1.11-.19m-2.65,6c.13-.36.25-.7.35-1s.18-.64.25-1,.12-.65.17-1,.08-.73.11-1.14l-.82.3c0,.35-.06.66-.1.95s-.09.57-.15.85-.14.56-.23.84-.21.59-.34.92Zm9.64,2.78-1.91.12q-1.11.06-2.28.09l-2.28,0q-1.11,0-1.95,0v.78c.54,0,1.19,0,1.94,0l2.29,0,2.28-.08c.74,0,1.37-.07,1.91-.11Zm-8.42,1h.74v-4h-.74Zm7.1-5.94h-4.24v.78h4.24Zm-2.94-2.74c-.64.11-1.36.2-2.16.29s-1.62.16-2.44.23-1.65.12-2.47.16-1.57.06-2.25.06l.06.78q1,0,2.22-.06c.81,0,1.64-.09,2.48-.16s1.66-.14,2.46-.23,1.52-.18,2.16-.29Zm2.42,5.84h.74V140.84h-.74Zm-1.86-21.14-3.84-3.64-.54.58.86.79,1,.94,1,1,.91.94Zm-8.5.94a14.59,14.59,0,0,0,3.16-3.62,16.42,16.42,0,0,0,1.8-4.52l-.78-.06a20.1,20.1,0,0,1-.7,2.26,11.91,11.91,0,0,1-1,2,12.91,12.91,0,0,1-1.33,1.76,18.56,18.56,0,0,1-1.74,1.66Zm7.68-8.78-1.68.08-2.06.08-2.06,0-1.68,0,.06.78,1.65,0,2,0,2.05-.07,1.68-.08ZM668,137.5h.74V120.84H668Zm-2.12-28.16-3.48-2.88-.48.62c.57.47,1.13.93,1.67,1.4s1.11,1,1.71,1.52Zm-.66-6.32-1.62.08-1.93.09-1.92,0-1.61,0,.06.78,1.58,0,1.9-.06,1.92-.08,1.62-.08Zm-7.3,7.8a10,10,0,0,0,2.93-3,11.83,11.83,0,0,0,1.47-4.13l-.82-.06a14,14,0,0,1-.53,2.1,9.29,9.29,0,0,1-.82,1.74,7.91,7.91,0,0,1-1.18,1.48,13.58,13.58,0,0,1-1.59,1.32Zm10.06,0h.74v-10h-.74Zm.74,1.3-2,.07-2.35.07-2.32.05-1.9,0,.06.78,1.89,0,2.3,0,2.33-.07,2-.08Zm-.74,5.18h.74v-4.66h-.74Zm4.06-11h-3.32l-.38.35.38.41,3.32,0Zm-8.78-14.14-2.42-3.5-.62.46c.4.56.8,1.14,1.22,1.75s.79,1.19,1.14,1.75Zm-.4-7.54c-.91.06-1.89.11-2.95.14s-2.05,0-3,0l.06.76h1.4l1.5,0,1.51,0,1.43-.07Zm-6,8.06A14.45,14.45,0,0,0,658.29,91a13.91,13.91,0,0,0,1.09-1.76,12.56,12.56,0,0,0,.78-1.93,16.49,16.49,0,0,0,.49-2.17l-.78,0a11.64,11.64,0,0,1-3.6,7Zm8.62-5.1h-3.16v.78h3.16ZM665,95.1h.74V82H665Zm3,2.4h.74V80.84H668Z"/><path class="cls-3" d="M721,146.58h-3.32l-.38.36.38.42,3.32,0Zm-7.7-3.44-1.57.07-1.47,0-1.44,0h-1.5l.06.78,2.63,0c.82,0,1.7,0,2.65-.08Zm-6.4,8.34a15.57,15.57,0,0,0,2.16-1.66,18.48,18.48,0,0,0,1.9-2.06,14.72,14.72,0,0,0,1.47-2.28,10.46,10.46,0,0,0,.87-2.34l-.92.26a8.47,8.47,0,0,1-.76,2,12.48,12.48,0,0,1-1.33,2,16.52,16.52,0,0,1-1.79,1.87,18.2,18.2,0,0,1-2.12,1.61Zm10,1h.74V140.84h-.74Zm1.84,2.64-1.93.12q-1.14.06-2.34.09l-2.35,0q-1.14,0-2,0v.78c.54,0,1.2,0,2,0l2.35,0,2.35-.08c.76,0,1.4-.07,1.94-.11Zm-8.6.8h.74v-4.26h-.74Zm2.08-26.9H713v-3.92h-.74Zm5.54-7.34-1.9.08q-1.08,0-2.19.06l-2.16,0-1.83,0,.06.78,1.66,0,2,0,2,0q1,0,1.74-.06Zm-.72,4.8.26-1.18c.08-.37.14-.75.2-1.13s.1-.77.14-1.17.08-.84.12-1.32l-.8.26q0,.58-.09,1.11l-.12,1c0,.34-.11.69-.19,1l-.26,1.13Zm-12.38,3.1,3.91,0,4.11-.08c1.37,0,2.73-.08,4.08-.13s2.62-.12,3.82-.2l0-.78c-1.22.08-2.5.15-3.85.2s-2.72.1-4.1.13l-4.13.08-3.94,0ZM715.23,137a3.34,3.34,0,0,0,1.1-.6,2.87,2.87,0,0,0,.75-.92,2.8,2.8,0,0,0,0-2.4,2.87,2.87,0,0,0-.75-.92,3.34,3.34,0,0,0-1.1-.6,4.24,4.24,0,0,0-1.35-.21,4.3,4.3,0,0,0-1.36.21,3.34,3.34,0,0,0-1.1.6,2.84,2.84,0,0,0-.74.92,2.8,2.8,0,0,0,0,2.4,2.84,2.84,0,0,0,.74.92,3.34,3.34,0,0,0,1.1.6,4.3,4.3,0,0,0,1.36.21,4.24,4.24,0,0,0,1.35-.21m-2.42-.66a2.85,2.85,0,0,1-.87-.44,2,2,0,0,1-.58-.7,1.92,1.92,0,0,1-.21-.92,2,2,0,0,1,.79-1.62,2.85,2.85,0,0,1,.87-.44,3.64,3.64,0,0,1,1.07-.15,3.6,3.6,0,0,1,1,.15,2.69,2.69,0,0,1,.88.44,2.12,2.12,0,0,1,.59.71,2,2,0,0,1,.21.91,1.92,1.92,0,0,1-.21.92,2.19,2.19,0,0,1-.59.7,2.69,2.69,0,0,1-.88.44,3.6,3.6,0,0,1-1,.15,3.64,3.64,0,0,1-1.07-.15m-6.18-22.89a14.59,14.59,0,0,0,3.16-3.62,16.42,16.42,0,0,0,1.8-4.52l-.78-.06a20.1,20.1,0,0,1-.7,2.26,11.91,11.91,0,0,1-1,2,12.91,12.91,0,0,1-1.33,1.76,18.56,18.56,0,0,1-1.74,1.66ZM721,108.58h-3.32l-.38.36.38.42,3.32,0Zm-5.86,3.88-3.86-3.64-.52.58.86.79,1,.94,1,1,.91.94Zm-.82-7.84-1.68.08-2.06.08-2.06,0-1.68,0,.06.78,1.65,0,2,0,2-.07,1.68-.08Zm2.62,12.88h.74V100.84h-.74Zm-4-29.83a1.63,1.63,0,0,0,0-2.74,4.17,4.17,0,0,0-4.14,0,1.63,1.63,0,0,0,0,2.74,4.17,4.17,0,0,0,4.14,0m-.52-2.23a1,1,0,0,1,0,1.72,3.7,3.7,0,0,1-3.1,0,1,1,0,0,1,0-1.72,3.7,3.7,0,0,1,3.1,0m.53-4.1c-.74-.13-1.41-.27-2-.42s-1.31-.33-2.05-.56l-.16.84q1.05.3,2,.51c.65.14,1.32.28,2,.41Zm1.56,1.32-1.77.08-2.17.08-2.17,0-1.77,0,.06.78,1.74,0,2.15,0,2.16-.07,1.77-.08Zm-4,7.22h.74v-1.4h-.74Zm5.18-1q-1,.2-2.31.39c-.9.13-1.83.24-2.78.34s-1.9.19-2.82.26-1.74.12-2.43.13l.08.78c.7,0,1.52-.08,2.45-.16s1.86-.17,2.81-.27,1.86-.21,2.76-.33,1.66-.24,2.32-.36Zm5.4-2.7h-3.32l-.38.36.38.42L721,87Zm-2.22,9.68-1.92.12q-1.12.06-2.31.09l-2.32,0c-.76,0-1.41,0-2,0v.78q.81,0,2,0l2.32,0,2.32-.08c.75,0,1.39-.07,1.93-.11Zm-8.52.6H711V94.2h-.74Zm7.42-2.86c-.54,0-1.13.07-1.78.09l-2,.07-1.95,0-1.71,0v.78l1.69,0,2,0,2-.07,1.79-.08Zm-.74.38h.74V91.64h-.74Zm.74-2.68-1.8.07-2,.07-2,0-1.74,0,.06.78,1.73,0,1.94,0,2-.07,1.79-.08Zm-.74-1h.74V80.84h-.74Z"/><path class="cls-3" d="M740.93,185.16a2.09,2.09,0,0,0,.43.66,2.12,2.12,0,0,0,.66.44,2,2,0,0,0,.8.16,1.92,1.92,0,0,0,.79-.16,2,2,0,0,0,1.1-1.1,2.08,2.08,0,0,0,0-1.6,2,2,0,0,0-1.1-1.1,1.92,1.92,0,0,0-.79-.16,2,2,0,0,0-.8.16,2.12,2.12,0,0,0-.66.44,2.09,2.09,0,0,0-.43.66,2.08,2.08,0,0,0,0,1.6m2.83.14a1.37,1.37,0,0,1-1.89,0,1.35,1.35,0,0,1,0-1.88,1.37,1.37,0,0,1,1.89,0,1.33,1.33,0,0,1,0,1.88m-8-18.08,1.62,0,1.67-.05,1.62-.06,1.47-.07v-.8l-1.47.08-1.62.07-1.67.05-1.62,0Zm6.84,2.16-1.9.12c-.74,0-1.49.07-2.27.09l-2.28,0q-1.11,0-2,0v.78c.54,0,1.19,0,1.93,0l2.28,0,2.28-.08c.74,0,1.37-.07,1.91-.11Zm-.24-6.46-1.79.08-2.3.06-2.3,0h-1.77v.76H736l2.3,0,2.31,0c.74,0,1.33,0,1.79-.07Zm-8.16,7.46.74-.2v-6.7h-.74Zm-4.56,4.42,3.83,0,3.93-.08c1.3,0,2.6-.08,3.9-.13s2.54-.12,3.74-.2l0-.78c-1.22.08-2.47.15-3.77.2s-2.61.1-3.93.13l-3.95.08-3.85,0Zm6.06-22.87a3.36,3.36,0,0,0,1.1-.79,3.46,3.46,0,0,0,.71-1.17,4.21,4.21,0,0,0,0-2.86,3.46,3.46,0,0,0-.71-1.17,3.36,3.36,0,0,0-1.1-.79,3.42,3.42,0,0,0-1.41-.29,3.47,3.47,0,0,0-1.42.29,3.36,3.36,0,0,0-1.1.79,3.44,3.44,0,0,0-.7,1.17,4.21,4.21,0,0,0,0,2.86,3.44,3.44,0,0,0,.7,1.17,3.36,3.36,0,0,0,1.1.79,3.47,3.47,0,0,0,1.42.29,3.42,3.42,0,0,0,1.41-.29m-.29-6.12a2.46,2.46,0,0,1,.86.63,2.7,2.7,0,0,1,.56.94,3.64,3.64,0,0,1,0,2.32,2.7,2.7,0,0,1-.56.94,2.46,2.46,0,0,1-.86.63,2.7,2.7,0,0,1-1.12.23,2.75,2.75,0,0,1-1.13-.23,2.55,2.55,0,0,1-.86-.63,2.68,2.68,0,0,1-.55-.94,3.64,3.64,0,0,1,0-2.32,2.68,2.68,0,0,1,.55-.94,2.55,2.55,0,0,1,.86-.63,2.75,2.75,0,0,1,1.13-.23,2.7,2.7,0,0,1,1.12.23m6,11.69h.74V140.84h-.74Zm-5-25.56c-.52.07-1,.12-1.41.16l-1.21.1c-.39,0-.78,0-1.17.05h-1.33v-3.48h-.74V133h1.55c.48,0,1,0,1.44-.05s1-.06,1.43-.11,1-.1,1.52-.16Zm-.94-3.76-1.35.1-1.14.07c-.37,0-.74,0-1.12,0h-1.31v.77l1.3,0,1.13,0,1.14,0,1.35-.09Zm-.74.38h.74v-3.78h-.74Zm.74-4.12-1.41.06-1.17,0-1.15,0-1.35,0,.06.78,1.32,0,1.14,0,1.16,0,1.4-.07Zm3.46,3.82h-2.7V129h2.7Zm-.46,7.24h.74V122h-.74Zm3,2h.74V120.84h-.74ZM737,107.58h4.84v-.78H737Zm1.64,3.9a25.53,25.53,0,0,1-3.43.64,33.81,33.81,0,0,1-3.77.2l0,.74a34,34,0,0,0,3.88-.21,31.86,31.86,0,0,0,3.56-.61ZM731.43,113l.74-.2v-8.28h-.74Zm10,4.46h.74V100.84h-.74Zm-4.72-25.34-2.42-3.5-.62.46c.4.56.8,1.14,1.22,1.75s.79,1.19,1.14,1.75Zm-.4-7.54c-.91.06-1.89.11-2.95.14s-2.05,0-3,0l.06.76h1.4l1.5,0,1.51,0,1.43-.07Zm-6,8.06A14.45,14.45,0,0,0,731.79,91a13.91,13.91,0,0,0,1.09-1.76,12.56,12.56,0,0,0,.78-1.93,16.49,16.49,0,0,0,.49-2.17l-.78,0a11.64,11.64,0,0,1-3.6,7Zm8.62-5.1h-3.16v.78H739Zm-.5,7.52h.74V82h-.74Zm3,2.4h.74V80.84h-.74Z"/><path class="cls-3" d="M789.93,237.16a2.09,2.09,0,0,0,.43.66,2.12,2.12,0,0,0,.66.44,2,2,0,0,0,.8.16,1.92,1.92,0,0,0,.79-.16,2,2,0,0,0,1.1-1.1,2.08,2.08,0,0,0,0-1.6,2,2,0,0,0-1.1-1.1,1.92,1.92,0,0,0-.79-.16,2,2,0,0,0-.8.16,2.12,2.12,0,0,0-.66.44,2.09,2.09,0,0,0-.43.66,2.08,2.08,0,0,0,0,1.6m2.83.14a1.37,1.37,0,0,1-1.89,0,1.35,1.35,0,0,1,0-1.88,1.37,1.37,0,0,1,1.89,0,1.33,1.33,0,0,1,0,1.88m-6.21-20.56c-.91.06-1.88.11-2.92.15s-2,0-2.9,0v.76h1.4l1.49,0,1.5,0,1.43-.07Zm1.54,6.34a15.91,15.91,0,0,1-3.45.92,22,22,0,0,1-3.87.24l0,.74a22.39,22.39,0,0,0,4-.28,18.92,18.92,0,0,0,3.6-.92ZM780.73,225l.74-.2V217.5h-.74Zm13.76-4.28h-3.32l-.38.36.38.42,3.32,0Zm-4.06,8.82h.74V212.84h-.74Zm-2.16-26.62a31.37,31.37,0,0,1-3.56.88,29.29,29.29,0,0,1-3.88.44l0,.74a29.22,29.22,0,0,0,4-.46c1.26-.24,2.48-.53,3.67-.88Zm-7.48,2,.74-.2v-8h-.74Zm9.64,4.58h.74V192.84h-.74Zm1.92-31.74-4.16-2.16-.36.68,2,1.07,2.07,1.13Zm-9.68.8a8.35,8.35,0,0,0,3.57-2.1,7.59,7.59,0,0,0,1.91-3.56l-.72-.18a9.51,9.51,0,0,1-.7,1.85,5.77,5.77,0,0,1-1,1.43,6.93,6.93,0,0,1-1.45,1.08,11.3,11.3,0,0,1-1.91.82Zm8.5,10.4h-7.42v-.78h7.42Zm0-3.28q-.75,0-1.71.06l-2,0-2,0h-1.68v-.76h1.7l2,0,2-.06,1.7-.07Zm0,2.82h-.74v-5.64h.74Zm-7.42-5.34h.74v5.44h-.74Zm-5.66-2.5,3.94,0,4.13-.08c1.38,0,2.74-.08,4.1-.13s2.63-.12,3.85-.2l0,.78c-1.2.08-2.48.15-3.82.2s-2.71.1-4.08.13l-4.11.08-3.91,0Zm3.26-12.12a6.75,6.75,0,0,0,2.92-2.19,7.84,7.84,0,0,0,1.46-3.39l-.76-.16a7.44,7.44,0,0,1-1.31,3.17,6.34,6.34,0,0,1-2.75,2Zm6.44-2.28-2-1.4-.4.6,1.8,1.32Zm5.6,1.94-3.06-2.34-.46.64.75.57.7.55.72.57.81.65Zm-6.82.66a7,7,0,0,0,1.54-1.05,8.3,8.3,0,0,0,1.23-1.41,7.92,7.92,0,0,0,.86-1.66,8.16,8.16,0,0,0,.45-1.78l-.76-.16a8.05,8.05,0,0,1-1.16,3.22,6.38,6.38,0,0,1-2.6,2.24Zm-6-9.59a3.26,3.26,0,0,0,.67,1,3.33,3.33,0,0,0,1,.71,3.26,3.26,0,0,0,1.31.26,3.21,3.21,0,0,0,1.3-.26,3.11,3.11,0,0,0,1-.71,3.29,3.29,0,0,0,0-4.58,3.11,3.11,0,0,0-1-.71,3.21,3.21,0,0,0-1.3-.26,3.26,3.26,0,0,0-1.31.26,3.33,3.33,0,0,0-1,.71,3.35,3.35,0,0,0-.67,3.54m.68-2.21a2.42,2.42,0,0,1,.51-.81,2.51,2.51,0,0,1,.79-.56,2.61,2.61,0,0,1,2.05,0,2.51,2.51,0,0,1,.79.56,2.45,2.45,0,0,1,.52.81,2.65,2.65,0,0,1,0,1.92,2.45,2.45,0,0,1-.52.81,2.51,2.51,0,0,1-.79.56,2.61,2.61,0,0,1-2.05,0,2.51,2.51,0,0,1-.79-.56,2.42,2.42,0,0,1-.51-.81,2.65,2.65,0,0,1,0-1.92m9.72.58h-3.18v.78H791Zm-.52,4.08h.74v-8.88h-.74Zm-9.12-13.18a6.79,6.79,0,0,0,2.92-2.17,7.74,7.74,0,0,0,1.46-3.39l-.76-.16a7.34,7.34,0,0,1-1.31,3.17,6.39,6.39,0,0,1-2.75,1.95Zm9.12-6.74h.74v-9h-.74Zm-2.78,4.64L785.79,145l-.44.6,1.74,1.42Zm5.76,1.74-3-2.4-.48.64.73.58.69.56.7.58.78.66Zm-6.74.68a7.6,7.6,0,0,0,2.7-2.52,8.68,8.68,0,0,0,1.3-3.4l-.76-.16a8.56,8.56,0,0,1-1.18,3.2,6.83,6.83,0,0,1-2.5,2.28Zm-6.11-9.76a3,3,0,0,0,.68,1,3.42,3.42,0,0,0,1,.68,3.1,3.1,0,0,0,1.25.25,3.05,3.05,0,0,0,1.24-.25,3.19,3.19,0,0,0,1-.68,3.15,3.15,0,0,0,0-4.5,3.19,3.19,0,0,0-1-.68,3.05,3.05,0,0,0-1.24-.25,3.1,3.1,0,0,0-1.25.25,3.42,3.42,0,0,0-1,.68,3.19,3.19,0,0,0-.68,3.49m.68-2.19a2.47,2.47,0,0,1,.52-.79,2.35,2.35,0,0,1,.78-.53,2.6,2.6,0,0,1,2,0,2.35,2.35,0,0,1,.78.53,2.67,2.67,0,0,1,.53.79,2.56,2.56,0,0,1,.19,1,2.49,2.49,0,0,1-.19,1,2.76,2.76,0,0,1-.53.78,2.35,2.35,0,0,1-.78.53,2.6,2.6,0,0,1-2,0,2.35,2.35,0,0,1-.78-.53,2.54,2.54,0,0,1-.52-.78,2.32,2.32,0,0,1-.19-1,2.37,2.37,0,0,1,.19-1m11-24.59-4-2.24-.36.66,1.92,1.11,2,1.19Zm-9.6.86a9.2,9.2,0,0,0,3.76-2.36,8.43,8.43,0,0,0,2-4.08l-.72-.18a12.55,12.55,0,0,1-.76,2.16,6.86,6.86,0,0,1-1.09,1.62,7,7,0,0,1-1.52,1.22,11.64,11.64,0,0,1-2,.94Zm-4.5,2.66,3.94,0,4.13-.08c1.38,0,2.74-.08,4.1-.13s2.63-.12,3.85-.2l0,.78c-1.2.08-2.48.15-3.82.2s-2.71.1-4.08.13l-4.11.08-3.91,0Zm9.14.14H788v7.12h-.74Zm-6.78-26.1a10.62,10.62,0,0,0,2.81-2.73,9.58,9.58,0,0,0,1.45-3.71l-.82-.06a12.07,12.07,0,0,1-.52,1.9,7.39,7.39,0,0,1-.8,1.53,7.22,7.22,0,0,1-1.14,1.28,17.17,17.17,0,0,1-1.52,1.19Zm7.76-1.8-3.3-2.24-.44.68,1.58,1.09c.5.35,1.06.76,1.66,1.21Zm-.6-5.26L786,82.9l-1.93.09-1.92.05-1.61,0,.06.78,1.58,0,1.9-.06,1.92-.08,1.62-.08Zm4.66,12.72-1.94.12q-1.14.06-2.34.09l-2.35,0c-.77,0-1.43,0-2,0v.78c.54,0,1.2,0,2,0l2.36,0,2.35-.08c.76,0,1.4-.07,1.94-.11Zm-8.62.6h.74v-2.7h-.74Zm7.52-3.3c-.54,0-1.13.07-1.79.09l-2,.07-2,0-1.73,0v.78l1.71,0,2,0,2-.07,1.81-.08Zm-.74.38h.74V90.4h-.74Zm.74-3.16-1.85.07-2.09.07-2.06,0-1.78,0,.06.78,1.77,0,2-.05,2.07-.07,1.84-.08Zm-.74-.68h.74V80.84h-.74Z"/><path class="cls-3" d="M815.37,280.12H812v.78h3.38Zm-6.24,3.81a3.36,3.36,0,0,0,1.1-.79A3.49,3.49,0,0,0,811,282a4.06,4.06,0,0,0,0-2.86,3.49,3.49,0,0,0-.72-1.17,3.35,3.35,0,0,0-2.49-1.08,3.4,3.4,0,0,0-1.4.29,3.47,3.47,0,0,0-1.1.79,3.63,3.63,0,0,0-.71,1.17,4.06,4.06,0,0,0,0,2.86,3.63,3.63,0,0,0,.71,1.17,3.47,3.47,0,0,0,1.1.79,3.4,3.4,0,0,0,1.4.29,3.36,3.36,0,0,0,1.39-.29m-.29-6.12a2.46,2.46,0,0,1,.86.63,2.89,2.89,0,0,1,.57.94,3.46,3.46,0,0,1,0,2.32,2.89,2.89,0,0,1-.57.94,2.46,2.46,0,0,1-.86.63,2.64,2.64,0,0,1-1.1.23,2.72,2.72,0,0,1-1.11-.23,2.55,2.55,0,0,1-.86-.63,2.86,2.86,0,0,1-.56-.94,3.46,3.46,0,0,1,0-2.32,2.86,2.86,0,0,1,.56-.94,2.55,2.55,0,0,1,.86-.63,2.72,2.72,0,0,1,1.11-.23,2.64,2.64,0,0,1,1.1.23m6.09,11.69h.74V272.84h-.74Zm1.22-32.72-1.86.12c-.71,0-1.43.07-2.17.09L810,257c-.71,0-1.34,0-1.9,0v.78q.81,0,1.89,0l2.18,0,2.17-.08c.7,0,1.32-.07,1.86-.11Zm-.44-3.48-1.71.08-2.13.06-2.13,0h-1.69v.76h1.68l2.12,0,2.14,0c.69,0,1.26,0,1.72-.07Zm-7.66,4.48.74-.2v-3.52h-.74Zm-5.38,2.84,3.91,0,4.11-.08c1.37,0,2.73-.08,4.08-.13s2.62-.12,3.82-.2l0-.78c-1.22.08-2.5.15-3.85.2s-2.72.1-4.1.13l-4.13.08-3.94,0Zm14.1,7.38-2,.12c-.78,0-1.59.07-2.41.09l-2.42,0c-.79,0-1.46,0-2,0V269c.54,0,1.21,0,2,0l2.43,0,2.42-.08c.78,0,1.43-.07,2-.11Zm-8.82.6h.74v-2.76H808Zm7.72-3.36c-.54,0-1.14.07-1.82.09l-2.08.07-2.06,0-1.76,0v.78l1.74,0,2.06-.05,2.08-.07,1.84-.08Zm-.74.38h.74v-2.76h-.74Zm.74-3.1-1.88.07-2.16.07-2.13,0-1.81,0,.06.78,1.8,0,2.11-.05,2.14-.07,1.87-.08Zm-10.52-21.78h.74v-5.5h-.74Zm5.82-5.62c-.92,0-1.89.09-2.9.1l-2.92,0,.06.76,2.87,0c1,0,1.95,0,2.89-.08Zm-.74,5.74H811v-5.22h-.74Zm.74-.42h-5.82v.78H811Zm8-1.86h-3.32l-.38.36.38.42,3.32,0Zm-4.06,6.12h.74V232.84h-.74Zm1.84,2.44-1.93.12q-1.14.06-2.34.09l-2.35,0q-1.14,0-2,0v.78c.54,0,1.2,0,2,0l2.35,0,2.35-.08c.76,0,1.4-.07,1.94-.11Zm-8.6.8h.74v-4.26h-.74Zm-5-27.16,3.83,0,3.93-.08c1.3,0,2.6-.08,3.9-.13s2.54-.12,3.74-.2l0-.78c-1.22.08-2.47.15-3.77.2s-2.61.1-3.93.13L807,220l-3.85,0Zm8.38-.68h.74V217h-.74Zm4.6-4.64-1.91.12q-1.11.06-2.28.09l-2.28,0q-1.11,0-2,0v.78c.54,0,1.19,0,1.94,0l2.29,0,2.28-.08c.74,0,1.37-.07,1.91-.11Zm-8.42.6h.74v-3.3h-.74Zm8-3.9q-.81.06-1.86.09l-2.17.07-2.15,0-1.8,0v.78l1.78,0,2.15,0,2.17-.07,1.88-.08Zm-.74.38h.74v-3.3H815Zm.74-3.64-1.92.07-2.24.07-2.22.05-1.86,0,.06.78,1.84,0,2.2,0,2.23-.07,1.91-.08ZM808.08,194a3.3,3.3,0,0,0,.81,1.14,3.85,3.85,0,0,0,1.21.75,4.36,4.36,0,0,0,3,0,3.68,3.68,0,0,0,1.22-.75,3.46,3.46,0,0,0,.82-1.14,3.43,3.43,0,0,0,.29-1.39,3.39,3.39,0,0,0-.29-1.39,3.46,3.46,0,0,0-.82-1.14,3.68,3.68,0,0,0-1.22-.75,4.36,4.36,0,0,0-3,0,3.85,3.85,0,0,0-1.21.75,3.3,3.3,0,0,0-.81,1.14,3.48,3.48,0,0,0,0,2.78m.69-2.49a2.88,2.88,0,0,1,.64-.87,2.85,2.85,0,0,1,1-.59,3.53,3.53,0,0,1,1.23-.21,3.47,3.47,0,0,1,1.22.21,2.76,2.76,0,0,1,1,.59,2.92,2.92,0,0,1,.65.87,2.64,2.64,0,0,1,0,2.2,2.92,2.92,0,0,1-.65.87,2.76,2.76,0,0,1-1,.59,3.47,3.47,0,0,1-1.22.21,3.53,3.53,0,0,1-1.23-.21,2.85,2.85,0,0,1-1-.59,2.88,2.88,0,0,1-.64-.87,2.64,2.64,0,0,1,0-2.2M803.19,201l3.83,0,3.93-.08c1.3,0,2.6-.08,3.9-.13s2.54-.12,3.74-.2l0-.78c-1.22.08-2.47.15-3.77.2s-2.61.1-3.93.13l-3.95.08-3.85,0Zm8.44-22.38h.74v-3.28h-.74Zm1.81-5.71a3.3,3.3,0,0,0,1.1-.59,2.76,2.76,0,0,0,.74-.92,3,3,0,0,0,0-2.49,2.7,2.7,0,0,0-.74-.93,3.13,3.13,0,0,0-1.1-.59,4.67,4.67,0,0,0-2.77,0,3.22,3.22,0,0,0-1.1.59,2.67,2.67,0,0,0-.73.93,3,3,0,0,0,0,2.49,2.73,2.73,0,0,0,.73.92,3.41,3.41,0,0,0,1.1.59,4.67,4.67,0,0,0,2.77,0m-2.48-.66a3,3,0,0,1-.87-.43,2,2,0,0,1-.57-.71,2.3,2.3,0,0,1,0-1.92,2,2,0,0,1,.57-.71A2.72,2.72,0,0,1,811,168a3.8,3.8,0,0,1,1.1-.15,3.73,3.73,0,0,1,1.09.15,2.72,2.72,0,0,1,.87.43,1.91,1.91,0,0,1,.58.71,2.3,2.3,0,0,1,0,1.92,1.91,1.91,0,0,1-.58.71,3,3,0,0,1-.87.43,3.73,3.73,0,0,1-1.09.15,3.8,3.8,0,0,1-1.1-.15m-8.29,3.51,3.91,0,4.11-.08c1.37,0,2.73-.08,4.08-.13s2.62-.12,3.82-.2l0-.78c-1.22.08-2.5.15-3.85.2s-2.72.1-4.1.13l-4.13.08-3.94,0Zm5.76,6.59.74-.2v-3.91h-.74Zm7.26-4.25-1.68.07-2,0-2,0h-1.69l.06.76h1.66l1.94,0,1.93,0c.63,0,1.19,0,1.69-.06Zm-.76,4.4h.76v-3.86h-.76Zm.76-.42h-7.26v.78h7.26ZM803.19,161l3.83,0,3.93-.08c1.3,0,2.6-.08,3.9-.13s2.54-.12,3.74-.2l0-.78c-1.22.08-2.47.15-3.77.2s-2.61.1-3.93.13l-3.95.08-3.85,0Zm13-6.8-1.89.12c-.73,0-1.47.07-2.23.09l-2.24,0c-.74,0-1.38,0-1.94,0v.78q.81,0,1.92,0l2.25,0,2.24-.08c.72,0,1.35-.07,1.89-.11Zm-.24-5.2c-.31,0-.68.05-1.1.06l-1.39,0-1.55,0-1.54,0h-2.48v.78h1.75l2.26,0,2.27-.05c.73,0,1.32,0,1.78-.07Zm-8.06,6.2.74-.2v-5.42h-.74Zm3.76,5.18h.74v-4.44h-.74ZM813.77,132c-.91.15-1.78.28-2.62.4s-1.69.22-2.54.31-1.73.16-2.61.21l-2.79.14.16.78c1,0,1.9-.09,2.78-.15s1.73-.13,2.57-.22l2.5-.3q1.24-.17,2.61-.39ZM812.05,124c-1.11.07-2.27.12-3.47.16s-2.36.06-3.45.06l.06.78c1,0,2,0,3.1,0s2.12-.07,3.12-.14ZM811,130.38c.26-1,.49-2,.67-3.07s.31-2.14.41-3.27l-.8.26c-.07,1-.19,1.92-.36,2.93s-.4,2-.66,2.93Zm-4,2.72h.74v-4.52H807Zm12-2.72h-3.32l-.38.36.38.42,3.32,0Zm-4.06,7.12h.74V120.84h-.74ZM809,103.84a2.36,2.36,0,0,1,.77.55,2.47,2.47,0,0,1,.53.81,2.65,2.65,0,0,1,.19,1,2.58,2.58,0,0,1-.19,1,2.54,2.54,0,0,1-.53.8,2.36,2.36,0,0,1-.77.55,2.32,2.32,0,0,1-1,.2,2.4,2.4,0,0,1-1-.2,2.47,2.47,0,0,1-.77-.55,2.51,2.51,0,0,1-.52-.8,2.4,2.4,0,0,1-.19-1,2.55,2.55,0,0,1,1.48-2.32,2.4,2.4,0,0,1,1-.2,2.32,2.32,0,0,1,1,.2m.28,5.3a3.19,3.19,0,0,0,1-.7,3.48,3.48,0,0,0,.68-1,3.25,3.25,0,0,0,0-2.5,3.48,3.48,0,0,0-.68-1,3.19,3.19,0,0,0-1-.7,3.11,3.11,0,0,0-2.49,0,3.31,3.31,0,0,0-1,.7,3.27,3.27,0,0,0-.67,1,3.25,3.25,0,0,0,0,2.5,3.27,3.27,0,0,0,.67,1,3.31,3.31,0,0,0,1,.7,3.11,3.11,0,0,0,2.49,0m6.15-3.48h-3.16v.78h3.16Zm1.32,9.48-1.95.12c-.77,0-1.56.07-2.38.09l-2.39,0c-.78,0-1.44,0-2,0v.78q.81,0,2,0l2.39,0,2.39-.08c.77,0,1.42-.07,2-.11Zm-8.72.8h.74V111.8h-.74Zm6.88-3.24h.74V100.84h-.74Zm.88-29.32-2,.08-2.27.07-2.26,0c-.74,0-1.39,0-2,0l.06.77,1.94,0,2.25,0,2.25-.06,2-.07Zm1.1,6.06-4.5-3-.42.66,1.07.72,1.15.78,1.15.79,1.07.73Zm-10.2.88a9.7,9.7,0,0,0,3.69-2.38A8.35,8.35,0,0,0,812.33,84l-.74-.2a7.49,7.49,0,0,1-1.77,3.66,8.64,8.64,0,0,1-3.45,2.16ZM803.19,95,807,95l3.93-.08c1.3,0,2.6-.08,3.9-.13s2.54-.12,3.74-.2l0-.78c-1.22.08-2.47.15-3.77.2s-2.61.1-3.93.13l-3.95.08-3.85,0Zm8.24-.68h.74V90.24h-.74Z"/><path class="cls-3" d="M830.16,268.49a3.13,3.13,0,0,0,.68,1,3.37,3.37,0,0,0,1,.69,3.25,3.25,0,0,0,1.28.25,3.2,3.2,0,0,0,1.27-.25,3.26,3.26,0,0,0,1-.69,3.33,3.33,0,0,0,.69-1,3.25,3.25,0,0,0,0-2.5,3.33,3.33,0,0,0-.69-1,3.26,3.26,0,0,0-1-.69,3.2,3.2,0,0,0-1.27-.25,3.25,3.25,0,0,0-1.28.25,3.37,3.37,0,0,0-1,.69,3.13,3.13,0,0,0-.68,1,3.25,3.25,0,0,0,0,2.5m.68-2.22a2.49,2.49,0,0,1,.53-.79,2.47,2.47,0,0,1,1.79-.74,2.47,2.47,0,0,1,1,.2,2.41,2.41,0,0,1,.79.54,2.52,2.52,0,0,1,.54.79,2.57,2.57,0,0,1,0,1.94,2.52,2.52,0,0,1-.54.79,2.41,2.41,0,0,1-.79.54,2.47,2.47,0,0,1-1,.2,2.51,2.51,0,0,1-2.32-1.53,2.57,2.57,0,0,1,0-1.94m8.59,12h.74V261.56h-.74Zm-1.16-5.44c-1,.17-1.93.32-2.78.43s-1.69.21-2.51.29-1.66.15-2.5.2-1.77.1-2.77.14l.16.78c1,0,1.9-.09,2.75-.16s1.67-.14,2.49-.23l2.48-.3,2.74-.39ZM836.53,248c-.46.13-1,.25-1.54.36s-1.16.2-1.76.28-1.2.14-1.78.19-1.12.07-1.6.07v.72c.49,0,1,0,1.64-.07s1.21-.11,1.83-.19,1.22-.17,1.82-.28,1.12-.22,1.59-.34Zm-6.68,1.28h.74v-5.68h-.74Zm2.72,7.61.74-.2v-4.61h-.74Zm7.6-5c-.48,0-1.06.05-1.73.07l-2.07,0-2.06,0h-1.74l.06.76h1.71l2,0,2,0q1,0,1.74-.06Zm-.74,5.08h.74v-4.56h-.74Zm.74-.42h-7.6v.78h7.6Zm-.74-6.16h.74v-8.86h-.74ZM833.75,236a2.84,2.84,0,0,0,.71.91,3.25,3.25,0,0,0,1.06.6,4.14,4.14,0,0,0,1.34.21,4.08,4.08,0,0,0,1.33-.21,3.15,3.15,0,0,0,1.06-.6A2.87,2.87,0,0,0,840,236a2.7,2.7,0,0,0,0-2.31,2.91,2.91,0,0,0-.72-.92,3.15,3.15,0,0,0-1.06-.6,4.08,4.08,0,0,0-1.33-.21,4.14,4.14,0,0,0-1.34.21,3.25,3.25,0,0,0-1.06.6,2.88,2.88,0,0,0-.71.92,2.7,2.7,0,0,0,0,2.31m.68-2a2,2,0,0,1,.54-.68,2.57,2.57,0,0,1,.82-.44,3.49,3.49,0,0,1,2.09,0,2.47,2.47,0,0,1,.82.44,2.14,2.14,0,0,1,.55.68,2,2,0,0,1,0,1.76,2.14,2.14,0,0,1-.55.68,2.47,2.47,0,0,1-.82.44,3.49,3.49,0,0,1-2.09,0,2.57,2.57,0,0,1-.82-.44,2,2,0,0,1-.54-.68,2,2,0,0,1,0-1.76m.88-3.58-2.54-2.82-.54.52c.42.47.84.93,1.24,1.39l1.24,1.45Zm-6.76.92a13.27,13.27,0,0,0,1.79-1.62A7.7,7.7,0,0,0,831.5,228a8.89,8.89,0,0,0,.68-2,20.49,20.49,0,0,0,.35-2.43l-.78-.08a17.38,17.38,0,0,1-.29,2.29,7.83,7.83,0,0,1-.63,1.86,7,7,0,0,1-1.09,1.59,11.91,11.91,0,0,1-1.67,1.48Zm11.38-4.94h-3.3v.78h3.3Zm-3.76,4.36h.74v-7.94h-.74Zm3.28.5h.74v-9.64h-.74Zm-10.58-19.78a11.6,11.6,0,0,0,3.23-3.71,14.82,14.82,0,0,0,1.55-4.87l-.72-.14a19.84,19.84,0,0,1-.54,2.5,11.23,11.23,0,0,1-.89,2.13,10.86,10.86,0,0,1-1.31,1.85,12.51,12.51,0,0,1-1.8,1.64Zm8.2-1-3.24-3.36-.52.54q.78.8,1.56,1.62l1.62,1.74Zm4.2,5.4-2,.12c-.78,0-1.57.07-2.39.09l-2.4,0q-1.17,0-2,0v.78c.54,0,1.21,0,2,0l2.41,0,2.4-.08c.77,0,1.42-.07,2-.11Zm-1.5-10.16h-3.7v.78h3.7Zm-7.26,11h.74v-4.24h-.74Zm6.92-3.24h.74V201.56h-.74Zm-2.9-30h3.34v-.78h-3.34Zm.24,3.56c-.52.08-1.08.16-1.66.23l-1.78.2-1.78.16q-.88.07-1.68.09v-4h-.74v4.82c.54,0,1.15,0,1.82-.09l2-.15q1-.09,2-.21c.67-.08,1.28-.15,1.83-.23Zm2.66,5.26h.74V175.56h-.74ZM835.55,183q-1.59.14-3.24.18l-3.18.06V184c1,0,2.06,0,3.18-.07s2.2-.08,3.24-.15Zm-.74.4h.74v-4.14h-.74Zm.74-4.48c-1.11.06-2.22.1-3.34.13l-3.24.05.06.78,3.22-.06q1.65,0,3.3-.12ZM829,164.72a3.89,3.89,0,0,0,.72,1.18,3.43,3.43,0,0,0,1.09.79,3.24,3.24,0,0,0,1.35.29,3.2,3.2,0,0,0,1.34-.29,3.43,3.43,0,0,0,1.09-.79,3.73,3.73,0,0,0,.73-1.18,4.08,4.08,0,0,0,0-2.92,3.73,3.73,0,0,0-.73-1.18,3.43,3.43,0,0,0-1.09-.79,3.2,3.2,0,0,0-1.34-.29,3.24,3.24,0,0,0-1.35.29,3.43,3.43,0,0,0-1.09.79,4,4,0,0,0-.72,4.1m.67-2.65a2.81,2.81,0,0,1,.56-.95,2.62,2.62,0,0,1,.85-.63,2.58,2.58,0,0,1,1.08-.23,2.54,2.54,0,0,1,1.9.86,2.86,2.86,0,0,1,.58.95,3.48,3.48,0,0,1,0,2.38,2.86,2.86,0,0,1-.58,1,2.54,2.54,0,0,1-1.9.86,2.58,2.58,0,0,1-1.08-.23,2.62,2.62,0,0,1-.85-.63,2.81,2.81,0,0,1-.56-1,3.64,3.64,0,0,1,0-2.38m10.22-1.45h-3.5v.78h3.5Zm0,4.56h-3.5V166h3.5Zm-.44,7h.74V155.56h-.74Zm-.5-27.06a2.09,2.09,0,0,0,.43.66,2.12,2.12,0,0,0,.66.44,2,2,0,0,0,.8.16,1.92,1.92,0,0,0,.79-.16,2,2,0,0,0,.66-.44,2.12,2.12,0,0,0,.44-.66,2.08,2.08,0,0,0,0-1.6,2.12,2.12,0,0,0-.44-.66,2,2,0,0,0-.66-.44,1.92,1.92,0,0,0-.79-.16,2,2,0,0,0-.8.16,2.12,2.12,0,0,0-.66.44,2.09,2.09,0,0,0-.43.66,2.08,2.08,0,0,0,0,1.6m2.83.14a1.29,1.29,0,0,1-.94.38,1.31,1.31,0,0,1-1-.38,1.35,1.35,0,0,1,0-1.88,1.31,1.31,0,0,1,1-.38,1.29,1.29,0,0,1,.94.38,1.33,1.33,0,0,1,0,1.88M840,127.2h-3.36V128H840Zm0-3.5h-3.36v.78H840Zm-5.86,11.47a2.86,2.86,0,0,0,.7,1,3.07,3.07,0,0,0,1,.63,3.47,3.47,0,0,0,1.25.23,3.51,3.51,0,0,0,1.25-.23,3.28,3.28,0,0,0,1-.63,3.17,3.17,0,0,0,.7-1,2.85,2.85,0,0,0,0-2.38,3.17,3.17,0,0,0-.7-.95,3.28,3.28,0,0,0-1-.63,3.51,3.51,0,0,0-1.25-.23,3.47,3.47,0,0,0-1.25.23,3.07,3.07,0,0,0-1,.63,2.86,2.86,0,0,0-.7.95,2.85,2.85,0,0,0,0,2.38m5.27-.29a2.38,2.38,0,0,1-1.33,1.21,2.78,2.78,0,0,1-1,.17,2.84,2.84,0,0,1-1-.17,2.36,2.36,0,0,1-.79-.48,2.25,2.25,0,0,1-.53-.73,2.23,2.23,0,0,1,0-1.8,2.25,2.25,0,0,1,.53-.73,2.36,2.36,0,0,1,.79-.48,2.84,2.84,0,0,1,1-.17,2.78,2.78,0,0,1,1,.17,2.22,2.22,0,0,1,1.33,3m-9.86-7.76a3.18,3.18,0,0,0,.67,1,3.28,3.28,0,0,0,1,.69,3.11,3.11,0,0,0,1.25.26,3.06,3.06,0,0,0,1.24-.26,3.17,3.17,0,0,0,1-.69,3.21,3.21,0,0,0,.68-1,3.1,3.1,0,0,0,0-2.44,3.21,3.21,0,0,0-.68-1,3.17,3.17,0,0,0-1-.69,3.06,3.06,0,0,0-1.24-.26,3.11,3.11,0,0,0-1.25.26,3.28,3.28,0,0,0-1,.69,3.18,3.18,0,0,0-.67,1,3.1,3.1,0,0,0,0,2.44m.68-2.15a2.64,2.64,0,0,1,.52-.79,2.44,2.44,0,0,1,.77-.54,2.4,2.4,0,0,1,1-.2,2.38,2.38,0,0,1,1.73.74,2.43,2.43,0,0,1,0,3.44,2.38,2.38,0,0,1-1.73.74,2.4,2.4,0,0,1-1-.2,2.44,2.44,0,0,1-.77-.54,2.64,2.64,0,0,1-.52-.79,2.37,2.37,0,0,1,0-1.86m9.25,5h.74v-9.14h-.74Zm1.76-23.66-4-2.24-.36.66,1.92,1.11,2,1.19Zm-9.6.86a9.2,9.2,0,0,0,3.76-2.36,8.43,8.43,0,0,0,2-4.08l-.72-.18a12.55,12.55,0,0,1-.76,2.16,6.86,6.86,0,0,1-1.09,1.62,7,7,0,0,1-1.52,1.22,11.64,11.64,0,0,1-2,.94Zm-4.5,2.66,3.94,0,4.13-.08c1.38,0,2.74-.08,4.1-.13s2.63-.12,3.85-.2l0,.78c-1.2.08-2.48.15-3.82.2s-2.71.1-4.08.13l-4.11.08-3.91,0Zm9.14.14H837v7.12h-.74Zm-6.72-19.32a9.53,9.53,0,0,0,2.88-3,11.25,11.25,0,0,0,1.38-4l-.82-.06a13.31,13.31,0,0,1-.48,2,8,8,0,0,1-.78,1.7,8.33,8.33,0,0,1-1.15,1.45A10.92,10.92,0,0,1,829,90.06Zm7.32-1.54-3.2-2.56-.48.64,1.52,1.23c.48.39,1,.85,1.6,1.37Zm-2.74,6a2.86,2.86,0,0,0,.7.95,3.41,3.41,0,0,0,2.28.88,3.31,3.31,0,0,0,1.25-.24,3.5,3.5,0,0,0,1-.64,3.17,3.17,0,0,0,.7-.95,2.83,2.83,0,0,0,0-2.37,3.21,3.21,0,0,0-.7-1,3.5,3.5,0,0,0-1-.64,3.31,3.31,0,0,0-1.25-.24,3.41,3.41,0,0,0-2.28.88,2.9,2.9,0,0,0-.7,1,2.83,2.83,0,0,0,0,2.37m5.27-.29a2.28,2.28,0,0,1-.54.73,2.45,2.45,0,0,1-.79.49,2.58,2.58,0,0,1-1,.18,2.63,2.63,0,0,1-1-.18,2.56,2.56,0,0,1-.79-.49,2.25,2.25,0,0,1-.53-.73,2.23,2.23,0,0,1,0-1.8,2.25,2.25,0,0,1,.53-.73,2.56,2.56,0,0,1,.79-.49,2.63,2.63,0,0,1,1-.18,2.58,2.58,0,0,1,1,.18,2.45,2.45,0,0,1,.79.49,2.2,2.2,0,0,1,.54,2.53M836.67,83l-1.62.08-1.93.09-1.92,0-1.61,0,.06.78,1.58,0,1.9-.06,1.92-.08,1.62-.08Zm2.76,7.58h.74V80.84h-.74Zm4.06-4.42h-3.32l-.38.36.38.42,3.32,0Z"/><path class="cls-3" d="M863.77,292.44l.87.72c.31.27.62.54.93.83l.9.86.78.79.78-.8-.84-.78-1-.84-1-.82q-.5-.4-.93-.72Zm-4.56-10.84-2.42-3.5-.62.46c.4.56.8,1.14,1.22,1.75s.79,1.19,1.14,1.75Zm-.4-7.54c-.91.06-1.89.11-2.95.14l-3,0,.06.77h1.4l1.5,0,1.51,0,1.43-.07Zm-6,8.06a14.45,14.45,0,0,0,1.44-1.64,13.91,13.91,0,0,0,1.09-1.76,12.56,12.56,0,0,0,.78-1.93,16.49,16.49,0,0,0,.49-2.17l-.78,0a11.64,11.64,0,0,1-3.6,7Zm8.62-5.1h-3.16v.78h3.16Zm-.5,7.52h.74V271.48H861Zm3,2.4h.74V270.28H864Zm-4.8-27.42-.12-2.64-.78,0,.16,2.66Zm3.78-.12h.74v-2.68h-.74Zm-.58-3.47a3.81,3.81,0,0,0,1.09-.61,2.81,2.81,0,0,0,.72-.9,2.48,2.48,0,0,0,0-2.17,2.74,2.74,0,0,0-.72-.91,3.59,3.59,0,0,0-1.09-.61,4.25,4.25,0,0,0-2.76,0,3.79,3.79,0,0,0-1.08.61,2.71,2.71,0,0,0-.71.91,2.48,2.48,0,0,0,0,2.17,2.78,2.78,0,0,0,.71.9,4,4,0,0,0,1.08.61,4.25,4.25,0,0,0,2.76,0m-.28-4.54a2.4,2.4,0,0,1,.85.47,2.32,2.32,0,0,1,.55.67,1.72,1.72,0,0,1,.2.8,1.76,1.76,0,0,1-.2.8,2.32,2.32,0,0,1-.55.67,2.4,2.4,0,0,1-.85.47,3.41,3.41,0,0,1-1.09.17,3.48,3.48,0,0,1-1.1-.17,2.59,2.59,0,0,1-.85-.47,2.28,2.28,0,0,1-.54-.67,1.64,1.64,0,0,1-.2-.8,1.61,1.61,0,0,1,.2-.8,2.28,2.28,0,0,1,.54-.67,2.59,2.59,0,0,1,.85-.47,3.48,3.48,0,0,1,1.1-.17,3.41,3.41,0,0,1,1.09.17m.27,15a3.18,3.18,0,0,0,1-.58,2.48,2.48,0,0,0,.69-.86,2.46,2.46,0,0,0,0-2.12,2.48,2.48,0,0,0-.69-.86,3.18,3.18,0,0,0-1-.58,4.05,4.05,0,0,0-1.34-.21,4.17,4.17,0,0,0-1.36.21,3.08,3.08,0,0,0-1,.58,2.54,2.54,0,0,0-.67.86,2.46,2.46,0,0,0,0,2.12,2.54,2.54,0,0,0,.67.86,3.08,3.08,0,0,0,1,.58,4.17,4.17,0,0,0,1.36.21,4.05,4.05,0,0,0,1.34-.21m.53-3.92a1.79,1.79,0,0,1,0,2.84,2.86,2.86,0,0,1-1.87.57,2.89,2.89,0,0,1-1.88-.57,1.81,1.81,0,0,1,0-2.84,2.89,2.89,0,0,1,1.88-.57,2.86,2.86,0,0,1,1.87.57m-11.2-2.65,3.91,0,4.11-.08c1.37,0,2.73-.08,4.08-.13s2.62-.12,3.82-.2l0-.78c-1.22.08-2.5.15-3.85.2s-2.72.1-4.1.13l-4.13.08-3.94,0Zm6.58-18.43a3.36,3.36,0,0,0,1.1-.79,3.46,3.46,0,0,0,.71-1.17,4.21,4.21,0,0,0,0-2.86,3.46,3.46,0,0,0-.71-1.17,3.35,3.35,0,0,0-2.51-1.08,3.47,3.47,0,0,0-1.42.29,3.36,3.36,0,0,0-1.1.79,3.44,3.44,0,0,0-.7,1.17,4.21,4.21,0,0,0,0,2.86,3.44,3.44,0,0,0,.7,1.17,3.36,3.36,0,0,0,1.1.79,3.47,3.47,0,0,0,1.42.29,3.38,3.38,0,0,0,1.41-.29m-.29-6.12a2.46,2.46,0,0,1,.86.63,2.7,2.7,0,0,1,.56.94,3.64,3.64,0,0,1,0,2.32,2.7,2.7,0,0,1-.56.94,2.46,2.46,0,0,1-.86.63,2.7,2.7,0,0,1-1.12.23,2.75,2.75,0,0,1-1.13-.23,2.55,2.55,0,0,1-.86-.63,2.68,2.68,0,0,1-.55-.94,3.64,3.64,0,0,1,0-2.32,2.68,2.68,0,0,1,.55-.94,2.55,2.55,0,0,1,.86-.63,2.75,2.75,0,0,1,1.13-.23,2.7,2.7,0,0,1,1.12.23m6,11.69h.74V230.28h-.74Zm-.16-29.22.87.72c.31.27.62.54.93.83l.9.86.78.79.78-.8-.84-.78-1-.84-1-.82q-.5-.41-.93-.72Zm.68-16.16h-3.36v.78h3.36Zm0-3.2h-3.36v.78h3.36ZM854,201.63a3,3,0,0,0,.67,1,3.43,3.43,0,0,0,1,.65,3.22,3.22,0,0,0,1.24.24,3.14,3.14,0,0,0,1.23-.24,3.31,3.31,0,0,0,1-.65,3.15,3.15,0,0,0,.68-1,2.93,2.93,0,0,0,0-2.37,3.2,3.2,0,0,0-.68-1,3.31,3.31,0,0,0-1-.65,3.14,3.14,0,0,0-1.23-.24,3.22,3.22,0,0,0-1.24.24,3.43,3.43,0,0,0-1,.65,3,3,0,0,0-.67,1,2.93,2.93,0,0,0,0,2.37m.68-2.09a2.39,2.39,0,0,1,.51-.74,2.34,2.34,0,0,1,.76-.5,2.58,2.58,0,0,1,1-.18,2.55,2.55,0,0,1,.95.18,2.28,2.28,0,0,1,.77.5,2.42,2.42,0,0,1,.52.74,2.23,2.23,0,0,1,0,1.8,2.42,2.42,0,0,1-.52.74,2.28,2.28,0,0,1-.77.5,2.55,2.55,0,0,1-.95.18,2.58,2.58,0,0,1-1-.18,2.34,2.34,0,0,1-.76-.5,2.39,2.39,0,0,1-.51-.74,2.23,2.23,0,0,1,0-1.8m11,10.84-1.94.12q-1.14.06-2.34.09l-2.35,0c-.77,0-1.43,0-2,0v.78c.54,0,1.2,0,2,0l2.36,0,2.35-.08c.76,0,1.4-.07,1.94-.11Zm-8.62.6h.74V208.3h-.74Zm7.52-3.28c-.54,0-1.13.07-1.79.09l-2,.07-2,0-1.73,0v.78l1.71,0,2-.05,2-.07,1.81-.08Zm-.74.38h.74v-2.8h-.74Zm.74-3.14-1.85.07-2.09.07-2.06,0-1.78,0,.06.78,1.77,0,2,0,2.07-.07,1.84-.08Zm-.74-.68h.74v-8.7h-.74Zm-10-19.72a9.55,9.55,0,0,0,3-3.28,14,14,0,0,0,1.42-4.36l-.72-.14a19.54,19.54,0,0,1-.51,2.21,10.59,10.59,0,0,1-.79,1.89,8.46,8.46,0,0,1-1.17,1.64,9.79,9.79,0,0,1-1.65,1.44Zm7.88-1-3.22-3-.52.58,1.53,1.46c.48.47,1,1,1.61,1.58Zm-4.7,7.37.74-.2v-4.29h-.74Zm7.6-4.63c-.48,0-1.06,0-1.73.07l-2.07,0-2.06,0h-1.74l.06.76h1.71l2,0,2,0q1,0,1.74-.06Zm-.74,4.76h.74v-4.24h-.74Zm.74-.42h-7.6v.78h7.6Zm-.74-5.84h.74v-9.18h-.74ZM868,180.5h-3.32l-.38.36.38.42,3.32,0Zm0-19.2h-3.32l-.38.36.38.42,3.32,0Zm-13.84.82a3.1,3.1,0,0,0,.7,1,3.42,3.42,0,0,0,1,.69,3.19,3.19,0,0,0,1.26.26,3.11,3.11,0,0,0,1.25-.26,3.42,3.42,0,0,0,1.05-.69,3.29,3.29,0,0,0,.71-1,3.09,3.09,0,0,0,0-2.48,3.29,3.29,0,0,0-.71-1,3.42,3.42,0,0,0-1.05-.69,3.11,3.11,0,0,0-1.25-.26,3.19,3.19,0,0,0-1.26.26,3.42,3.42,0,0,0-1,.69,3.1,3.1,0,0,0-.7,1,3.09,3.09,0,0,0,0,2.48m.68-2.19a2.52,2.52,0,0,1,.54-.79,2.46,2.46,0,0,1,.8-.54,2.54,2.54,0,0,1,1-.2,2.49,2.49,0,0,1,1,.2,2.36,2.36,0,0,1,.8.54,2.73,2.73,0,0,1,.55.79,2.36,2.36,0,0,1,0,1.9,2.73,2.73,0,0,1-.55.79,2.36,2.36,0,0,1-.8.54,2.49,2.49,0,0,1-1,.2,2.54,2.54,0,0,1-1-.2,2.46,2.46,0,0,1-.8-.54,2.52,2.52,0,0,1-.54-.79,2.36,2.36,0,0,1,0-1.9m10.94,9.93-1.95.12c-.77,0-1.56.07-2.38.09l-2.39,0c-.78,0-1.44,0-2,0v.78q.81,0,2,0l2.39,0,2.39-.08c.77,0,1.42-.07,2-.11Zm-8.72.8h.74v-4.24h-.74Zm6.88-3.24h.74V155.56h-.74ZM863.77,143l.87.72c.31.27.62.54.93.83l.9.86.78.79.78-.8-.84-.78-1-.84-1-.82q-.5-.41-.93-.72Zm-5.26-20.59a2.31,2.31,0,0,1,.71.38,2.08,2.08,0,0,1,.5.6,1.78,1.78,0,0,1,0,1.6,2.08,2.08,0,0,1-.5.6,2.31,2.31,0,0,1-.71.38,2.63,2.63,0,0,1-.84.13,2.55,2.55,0,0,1-.84-.13,2.11,2.11,0,0,1-.71-.38,1.81,1.81,0,0,1-.5-.6,1.78,1.78,0,0,1,0-1.6,1.81,1.81,0,0,1,.5-.6,2.11,2.11,0,0,1,.71-.38,2.55,2.55,0,0,1,.84-.13,2.63,2.63,0,0,1,.84.13m.27,4.22a3.26,3.26,0,0,0,.93-.53,2.64,2.64,0,0,0,.64-.83,2.55,2.55,0,0,0,0-2.16,2.64,2.64,0,0,0-.64-.83,3.17,3.17,0,0,0-2-.72,3.16,3.16,0,0,0-1.11.19,3,3,0,0,0-.93.53,2.5,2.5,0,0,0-.64.83,2.55,2.55,0,0,0,0,2.16,2.5,2.5,0,0,0,.64.83,3,3,0,0,0,.93.53,3.16,3.16,0,0,0,1.11.19,3.24,3.24,0,0,0,1.11-.19m-2.65,6c.13-.36.25-.7.35-1s.18-.64.25-1,.12-.65.17-1,.08-.73.11-1.14l-.82.3c0,.35-.06.66-.1.95s-.09.57-.15.85-.14.56-.23.84-.21.59-.34.92Zm9.64,2.78-1.91.12q-1.11.06-2.28.09l-2.28,0q-1.11,0-1.95,0v.78c.54,0,1.19,0,1.94,0l2.29,0,2.28-.08c.74,0,1.37-.07,1.91-.11Zm-8.42,1h.74v-4h-.74Zm7.1-5.94h-4.24v.78h4.24Zm-2.94-2.74c-.64.11-1.36.2-2.16.29s-1.62.16-2.44.23-1.65.12-2.47.16-1.57.06-2.25.06l.06.78q1,0,2.22-.06c.81,0,1.64-.09,2.48-.16s1.66-.14,2.46-.23,1.52-.18,2.16-.29Zm2.42,5.84h.74V120.84h-.74Zm-4.24-21.76L857,108.4l-.58.48c.44.53.89,1.1,1.36,1.7s.89,1.17,1.28,1.72Zm-.68-7.16c-.91.06-1.89.11-3,.14s-2,0-2.95,0l.06.76h1.4l1.5,0,1.51,0,1.43-.07Zm-5.9,7.94a15.3,15.3,0,0,0,1.44-1.63,13,13,0,0,0,1.08-1.72,12.55,12.55,0,0,0,.77-1.88,15.83,15.83,0,0,0,.49-2.15l-.78,0a16.19,16.19,0,0,1-.47,2,11.69,11.69,0,0,1-.72,1.77,11.36,11.36,0,0,1-1,1.6,13.55,13.55,0,0,1-1.37,1.51Zm11.06-4.7h-3.1v.78h3.1Zm-3.36,7.58h.74V102h-.74Zm3.14,2h.74V100.84H864ZM853.47,90.34a17.16,17.16,0,0,0,1.86-1.68,10.4,10.4,0,0,0,1.37-1.83,10.28,10.28,0,0,0,.92-2.11,15.73,15.73,0,0,0,.53-2.52l-.74-.16a15.06,15.06,0,0,1-.48,2.39,9.86,9.86,0,0,1-.85,2,10.1,10.1,0,0,1-1.29,1.73,15.25,15.25,0,0,1-1.8,1.61Zm10.8-5.44h-3.7v.78h3.7Zm-3.08,4.24-3-2.66-.48.58.76.67.68.62.7.65.82.76Zm2.74,1.3h.74v-9.6h-.74Zm.74,1.48-1.94.07-2.29.07-2.27,0-1.88,0,.06.78,1.87,0,2.25-.05,2.27-.07,1.93-.08Zm-.74,5.16h.74V92.44h-.74Z"/><path class="cls-3" d="M888.27,303.72l.87.72c.31.27.62.54.93.83l.9.86.78.79.78-.8-.84-.78-1-.84-1-.82q-.5-.4-.93-.72Zm-4.08-11.16-2.7-3.44-.58.48c.44.53.89,1.1,1.36,1.7s.89,1.17,1.28,1.72Zm-.68-7.16c-.91.06-1.89.11-3,.14l-2.95,0,.06.77h1.4l1.5,0,1.51-.05,1.43-.07Zm-5.9,7.94a15.3,15.3,0,0,0,1.44-1.63,13,13,0,0,0,1.08-1.72,12.55,12.55,0,0,0,.77-1.88,15.83,15.83,0,0,0,.49-2.15l-.78,0a16.19,16.19,0,0,1-.47,2,11.69,11.69,0,0,1-.72,1.77,11.36,11.36,0,0,1-1,1.6,13.55,13.55,0,0,1-1.37,1.51Zm11.06-4.7h-3.1v.78h3.1Zm-3.36,7.58h.74V282.76h-.74Zm3.14,2h.74V281.56h-.74Zm-9.88-28.76h.74V264h-.74Zm5.86-5.62c-.92.05-1.9.09-2.92.1l-2.94,0,.06.76,2.89,0c1,0,2,0,2.91-.08Zm-.74,5.74h.74v-5.22h-.74Zm.74-.42h-5.86v.78h5.86Zm4,4.26h.74V261.56h-.74Zm1.84,2.44-1.93.12q-1.14.06-2.34.09l-2.35,0q-1.14,0-2,0v.78c.54,0,1.2,0,2,0l2.35,0,2.35-.08c.76,0,1.4-.07,1.94-.11Zm-8.6.8h.74V272.4h-.74Zm-3.36-24.92a12.37,12.37,0,0,0,2.22-1.5,14.73,14.73,0,0,0,1.87-1.92,13.52,13.52,0,0,0,1.42-2.2,10.72,10.72,0,0,0,.87-2.34l-.92.26a8.69,8.69,0,0,1-.73,2,10.15,10.15,0,0,1-1.29,1.93A14.05,14.05,0,0,1,880,249.7a12.86,12.86,0,0,1-2.18,1.44Zm3.46,5,.74-.2v-4.39h-.74Zm7.4-4.73c-.48,0-1,0-1.7.07l-2,0-2,0h-1.71l.06.76h1.68l2,0,2,0q1,0,1.71-.06Zm-.74,4.88h.74v-4.36h-.74Zm.74-.42h-7.4v.78h7.4Zm-4.48-12.7-1.57.07-1.47.05-1.44,0h-1.5l.06.78,2.63,0c.82,0,1.7,0,2.65-.08Zm3.74,6.74h.74v-9h-.74ZM888.27,229l.87.72c.31.27.62.54.93.83l.9.86.78.79.78-.8-.84-.78-1-.84-1-.82q-.5-.41-.93-.72Zm-1.41-15.88a3.4,3.4,0,0,0,1.12-.58,2.83,2.83,0,0,0,.74-.91,2.77,2.77,0,0,0-.74-3.39,3.22,3.22,0,0,0-1.12-.58,4.86,4.86,0,0,0-1.39-.2,4.73,4.73,0,0,0-1.4.2,3.09,3.09,0,0,0-1.11.58,2.64,2.64,0,0,0-.74.92,3,3,0,0,0,0,2.47,2.7,2.7,0,0,0,.74.91,3.26,3.26,0,0,0,1.11.58,4.73,4.73,0,0,0,1.4.2,4.86,4.86,0,0,0,1.39-.2m-3.4-1.08a2.12,2.12,0,0,1,0-3.3,3.83,3.83,0,0,1,4,0,2.1,2.1,0,0,1,0,3.3,3.83,3.83,0,0,1-4,0m-7.29,4.26,3.91,0,4.11-.08c1.37,0,2.73-.08,4.08-.13s2.62-.12,3.82-.2l0-.78c-1.22.08-2.5.15-3.85.2s-2.72.1-4.1.13l-4.13.08-3.94,0Zm13.9,4.94-2,.12c-.78,0-1.59.07-2.41.09l-2.42,0c-.79,0-1.46,0-2,0v.78c.54,0,1.21,0,2,0l2.43,0,2.42-.08c.78,0,1.43-.07,2-.11Zm-8.82,1H882V217.9h-.74Zm-3.12-22.84a14.59,14.59,0,0,0,3.16-3.62,16.42,16.42,0,0,0,1.8-4.52l-.78-.06a20.1,20.1,0,0,1-.7,2.26,11.91,11.91,0,0,1-1,2,12.91,12.91,0,0,1-1.33,1.76,18.56,18.56,0,0,1-1.74,1.66Zm14.36-4.82h-3.32l-.38.36.38.42,3.32,0Zm-5.86,3.88-3.86-3.64-.52.58.86.79,1,.94,1,1,.91.94Zm-.82-7.84-1.68.08-2.06.08-2.06,0-1.68,0,.06.78,1.65,0,2,0,2-.07,1.68-.08Zm2.62,12.88h.74V186.84h-.74Zm-12.26-27.72,3.91,0,4.11-.08c1.37,0,2.73-.08,4.08-.13s2.62-.12,3.82-.2l0-.78c-1.22.08-2.5.15-3.85.2s-2.72.1-4.1.13L880,175l-3.94,0Zm9.06,7.32H886V175h-.74Zm4-15.4-1.88.08q-1.07,0-2.16.06l-2.13,0-1.81,0,.06.78,1.64,0,2,0,2,0c.64,0,1.21,0,1.72-.06Zm-1.2,6a28.19,28.19,0,0,0,.75-2.95c.2-1.05.35-2.07.45-3.07l-.8.26c0,.4-.08.83-.14,1.3s-.15.94-.25,1.42-.22,1-.34,1.44-.27.94-.41,1.38ZM876.17,150l3.91,0,4.11-.08c1.37,0,2.73-.08,4.08-.13s2.62-.12,3.82-.2l0-.78c-1.22.08-2.5.15-3.85.2s-2.72.1-4.1.13l-4.13.08-3.94,0Zm13.9,5.16-2,.12c-.78,0-1.59.07-2.41.09l-2.42,0c-.79,0-1.46,0-2,0v.78c.54,0,1.21,0,2,0l2.43,0,2.42-.08c.78,0,1.43-.07,2-.11Zm-.2-9.84-1.94.12q-1.14.06-2.34.09l-2.35,0c-.77,0-1.43,0-2,0v.78c.54,0,1.2,0,2,0l2.36,0,2.35-.08c.76,0,1.4-.07,1.94-.11Zm-8.62,1H882v-4.84h-.74Zm0,9.84H882v-4.34h-.74Zm.78-21.86h.74v-2.1H882Zm3.84-9.36-1.72.08-2.17.07-2.17,0c-.7,0-1.27,0-1.72,0l.06.77,1.69,0,2.14,0,2.16-.06c.7,0,1.27,0,1.73-.07Zm-1.28-1.6c-.72-.23-1.42-.47-2.08-.73s-1.36-.54-2.06-.85l-.28.82c.68.29,1.36.56,2.06.81s1.38.48,2.06.71Zm7.9,5.4h-3.32l-.38.36.38.42,3.32,0Zm-4.06,8.72h.74V120.84h-.74Zm-8.75-7.22a2.13,2.13,0,0,0,.52.79,2.8,2.8,0,0,0,.86.57,3.22,3.22,0,0,0,2.34,0,2.93,2.93,0,0,0,.86-.57,2.41,2.41,0,0,0,.52-.79,2.36,2.36,0,0,0,0-1.76,2.41,2.41,0,0,0-.52-.79,2.93,2.93,0,0,0-.86-.57,3.22,3.22,0,0,0-2.34,0,2.8,2.8,0,0,0-.86.57,2.13,2.13,0,0,0-.52.79,2.36,2.36,0,0,0,0,1.76m.69-1.47a1.68,1.68,0,0,1,.36-.56,1.84,1.84,0,0,1,.61-.42,2.14,2.14,0,0,1,.89-.17,2.21,2.21,0,0,1,.89.17,1.94,1.94,0,0,1,.61.42,1.68,1.68,0,0,1,.36.56,1.51,1.51,0,0,1,0,1.18,1.72,1.72,0,0,1-.36.57,1.94,1.94,0,0,1-.61.42,2.21,2.21,0,0,1-.89.16,2.15,2.15,0,0,1-.89-.16,1.84,1.84,0,0,1-.61-.42,1.72,1.72,0,0,1-.36-.57,1.51,1.51,0,0,1,0-1.18m6.9,4.47c-1,.17-1.93.32-2.78.43s-1.69.21-2.51.29-1.66.15-2.5.2-1.77.1-2.77.14l.16.78c1,0,1.9-.09,2.75-.15s1.67-.14,2.49-.23,1.64-.19,2.48-.31l2.74-.39Zm-5.17-27.65a3,3,0,0,0,.79,1,3.61,3.61,0,0,0,1.18.64,4.53,4.53,0,0,0,1.44.23,4.62,4.62,0,0,0,1.44-.23,3.83,3.83,0,0,0,1.18-.64,3.21,3.21,0,0,0,.79-1,3,3,0,0,0,0-2.56,3.21,3.21,0,0,0-.79-1,3.83,3.83,0,0,0-1.18-.64,4.62,4.62,0,0,0-1.44-.23,4.53,4.53,0,0,0-1.44.23,3.61,3.61,0,0,0-1.18.64,3,3,0,0,0-.79,1,3,3,0,0,0,0,2.56m.68-2.26a2.13,2.13,0,0,1,.63-.74,3,3,0,0,1,1-.48,4,4,0,0,1,1.16-.17,3.9,3.9,0,0,1,1.15.17,2.88,2.88,0,0,1,.94.48,2.27,2.27,0,0,1,.64.74,2.12,2.12,0,0,1,0,2,2.27,2.27,0,0,1-.64.74,2.88,2.88,0,0,1-.94.48,3.9,3.9,0,0,1-1.15.17,4,4,0,0,1-1.16-.17,3,3,0,0,1-1-.48,2.13,2.13,0,0,1-.63-.74,2.2,2.2,0,0,1,0-2m5.65,13.73h.74v-7.26h-.74ZM883,111.54a14.12,14.12,0,0,1-1.16,2.6,16,16,0,0,1-1.72,2.44l.68.42a20.87,20.87,0,0,0,1.71-2.54,16.12,16.12,0,0,0,1.21-2.68Zm6.16-2c-1.07.06-2.16.1-3.27.14l-3.34.09-3.31.07-3.16,0,.08.78,3.14,0,3.28-.06,3.32-.1,3.26-.12ZM878.25,90.6a11.65,11.65,0,0,0,3.09-3.6,14.83,14.83,0,0,0,1.51-4.74l-.72-.14a19.66,19.66,0,0,1-.55,2.46,10.91,10.91,0,0,1-.84,2,9.73,9.73,0,0,1-1.24,1.77A13.52,13.52,0,0,1,877.77,90Zm8-1.36-3.46-3.08-.5.58c.56.49,1.11,1,1.66,1.49l1.72,1.61Zm2.18,3.46h.74V80.84h-.74Zm1.84,2.44-1.94.12q-1.14.06-2.34.09l-2.35,0c-.77,0-1.43,0-2,0v.78c.54,0,1.2,0,2,0l2.36,0,2.35-.08c.76,0,1.4-.07,1.94-.11Zm-8.62.8h.74V91.5h-.74Zm10.84-9h-3.32l-.38.36.38.42,3.32,0Z"/><path class="cls-3" d="M936.93,217.16a2.09,2.09,0,0,0,.43.66,2.12,2.12,0,0,0,.66.44,2,2,0,0,0,.8.16,1.92,1.92,0,0,0,.79-.16,2,2,0,0,0,1.1-1.1,2.08,2.08,0,0,0,0-1.6,2,2,0,0,0-1.1-1.1,1.92,1.92,0,0,0-.79-.16,2,2,0,0,0-.8.16,2.12,2.12,0,0,0-.66.44,2.09,2.09,0,0,0-.43.66,2.08,2.08,0,0,0,0,1.6m2.83.14a1.37,1.37,0,0,1-1.89,0,1.35,1.35,0,0,1,0-1.88,1.37,1.37,0,0,1,1.89,0,1.33,1.33,0,0,1,0,1.88m-1.11-20.52-1.86.12c-.71,0-1.43.07-2.17.09l-2.17,0c-.71,0-1.34,0-1.9,0v.78q.81,0,1.89,0l2.18,0,2.17-.08c.7,0,1.32-.07,1.86-.11Zm-.44-3.48-1.71.08-2.13.06-2.13,0h-1.69v.76h1.68l2.12,0,2.14,0c.69,0,1.26,0,1.72-.07Zm-7.66,4.48.74-.2v-3.52h-.74Zm-5.38,2.84,3.91,0,4.11-.08c1.37,0,2.73-.08,4.08-.13s2.62-.12,3.82-.2l0-.78c-1.22.08-2.5.15-3.85.2s-2.72.1-4.1.13l-4.13.08-3.94,0Zm14.1,7.38-2,.12c-.78,0-1.59.07-2.41.09l-2.42,0c-.79,0-1.46,0-2,0V209c.54,0,1.21,0,2,0l2.43,0,2.42-.08c.78,0,1.43-.07,2-.11Zm-8.82.6h.74v-2.76h-.74Zm7.72-3.36c-.54,0-1.14.07-1.82.09l-2.08.07-2.06,0-1.76,0v.78l1.74,0,2.06-.05,2.08-.07,1.84-.08Zm-.74.38h.74v-2.76h-.74Zm.74-3.1-1.88.07-2.16.07-2.13.05-1.81,0,.06.78,1.8,0,2.11-.05,2.14-.07,1.87-.08Zm-.06-23.86h-7.32v.78h7.32Zm0-3.28-1.69.07-1.94.06-1.94,0h-1.69v.76h1.67l2,0,1.95-.05c.63,0,1.19,0,1.69-.06Zm0-2.4h-.74v5.92h.74Zm-7.32,6.18h.74v-5.84h-.74Zm3.54,6.2h.74v-3.58h-.74Zm-9.16-3,3.91,0,4.11-.08c1.37,0,2.73-.08,4.08-.13s2.62-.12,3.82-.2l0-.78c-1.22.08-2.5.15-3.85.2s-2.72.1-4.1.13l-4.13.08-3.94,0Zm13.9,4.86-2,.12c-.78,0-1.59.07-2.41.09l-2.42,0c-.79,0-1.46,0-2,0v.78c.54,0,1.21,0,2,0l2.43,0,2.42-.08c.78,0,1.43-.07,2-.11Zm-8.82,1H931V184.2h-.74Zm-3.1-31.66a11.65,11.65,0,0,0,3.09-3.6,14.83,14.83,0,0,0,1.51-4.74l-.72-.14a19.66,19.66,0,0,1-.55,2.46,10.91,10.91,0,0,1-.84,2,9.73,9.73,0,0,1-1.24,1.77,13.52,13.52,0,0,1-1.73,1.61Zm8-1.36-3.46-3.1-.5.6c.56.49,1.11,1,1.66,1.49l1.72,1.61Zm2.24,3.46h.74V146.84h-.74Zm1.84,2.44-1.94.12q-1.14.06-2.34.09l-2.35,0c-.77,0-1.43,0-2,0v.78c.54,0,1.2,0,2,0l2.36,0,2.35-.08c.76,0,1.4-.07,1.94-.11Zm-8.62.8h.74V157.5h-.74Zm-1.38-28.14a9.87,9.87,0,0,0,3.56-2.3,8.41,8.41,0,0,0,2-3.3l-.76-.22a7.52,7.52,0,0,1-1.88,3.07,9,9,0,0,1-3.32,2Zm9-6.22-2,.08-2.27.07-2.26,0c-.74,0-1.39,0-2,0l.06.77,1.94,0,2.25,0,2.25-.06,2-.07Zm.72,5.26-4.22-2.5-.4.7c.68.39,1.37.79,2.08,1.22l2.1,1.28Zm-13.86,3.8,3.91,0,4.11-.08c1.37,0,2.73-.08,4.08-.13s2.62-.12,3.82-.2l0-.78c-1.22.08-2.5.15-3.85.2s-2.72.1-4.1.13l-4.13.08-3.94,0Zm9.06,6.46H935v-7.2h-.74Zm-.1-30.5h.74v-3.28h-.74Zm1.81-5.71a3.13,3.13,0,0,0,1.1-.59,2.76,2.76,0,0,0,.74-.92,3,3,0,0,0,0-2.49A2.7,2.7,0,0,0,937,102a3.13,3.13,0,0,0-1.1-.59,4.67,4.67,0,0,0-2.77,0,3.22,3.22,0,0,0-1.1.59,2.67,2.67,0,0,0-.73.93,3,3,0,0,0,0,2.49,2.73,2.73,0,0,0,.73.92,3.22,3.22,0,0,0,1.1.59,4.67,4.67,0,0,0,2.77,0m-2.48-.66a3,3,0,0,1-.87-.43,2,2,0,0,1-.57-.71,2.3,2.3,0,0,1,0-1.92,2,2,0,0,1,.57-.71,2.72,2.72,0,0,1,.87-.43,3.8,3.8,0,0,1,1.1-.15,3.73,3.73,0,0,1,1.09.15,2.72,2.72,0,0,1,.87.43,1.91,1.91,0,0,1,.58.71,2.3,2.3,0,0,1,0,1.92,1.91,1.91,0,0,1-.58.71,3,3,0,0,1-.87.43,3.73,3.73,0,0,1-1.09.15,3.8,3.8,0,0,1-1.1-.15m-8.29,3.51,3.91,0,4.11-.08c1.37,0,2.73-.08,4.08-.13s2.62-.12,3.82-.2l0-.78c-1.22.08-2.5.15-3.85.2s-2.72.1-4.1.13l-4.13.08-3.94,0Zm5.76,6.59.74-.2v-3.91h-.74Zm7.26-4.25c-.48,0-1,0-1.68.07l-2,0-2,0h-1.69l.06.76h1.66l1.94,0,1.93,0c.63,0,1.19,0,1.69-.06Zm-.76,4.4h.76v-3.86h-.76Zm.76-.42h-7.26v.78h7.26ZM925.69,95l3.83,0,3.93-.08c1.3,0,2.6-.08,3.9-.13s2.54-.12,3.74-.2l0-.78c-1.22.08-2.47.15-3.77.2s-2.61.1-3.93.13l-3.95.08-3.85,0Zm13-6.8-1.89.12c-.73,0-1.47.07-2.23.09l-2.24,0c-.74,0-1.38,0-1.94,0v.78q.81,0,1.92,0l2.25,0,2.24-.08c.72,0,1.35-.07,1.89-.11Zm-.24-5.2c-.31,0-.68,0-1.1.06l-1.39,0-1.55,0-1.54,0h-2.48v.78h1.75l2.26,0,2.27-.05c.73,0,1.32,0,1.78-.07Zm-8.06,6.2.74-.2V83.56h-.74Zm3.76,5.18h.74V89.92h-.74Z"/><line class="cls-4" x1="478.31" y1="40" x2="478.31" y2="538.99"/><line class="cls-4" x1="685.09" y1="400" x2="685.09" y2="538.99"/><line class="cls-4" y1="0.15" x2="943.31" y2="0.15"/></g><line class="cls-4" x1="514.17" y1="360.15" x2="943.31" y2="360.15"/><g class="cls-2"><path class="cls-3" d="M871.34,509.64a.92.92,0,0,0,.92-1,.93.93,0,1,0-1.85,0,.91.91,0,0,0,.93,1M864.5,509c-1.49,0-2.33-1.21-2.33-3.21s1.07-3.22,2.45-3.22a3,3,0,0,1,2.07.9v4.38A3,3,0,0,1,864.5,509m-.26,1a3.67,3.67,0,0,0,2.51-1.17h0l.12,1h1V497.91h-1.21v3.18l.06,1.41a3.43,3.43,0,0,0-2.33-1c-1.86,0-3.52,1.65-3.52,4.28s1.3,4.23,3.34,4.23m-10.4-4.86a2.63,2.63,0,0,1,2.44-2.66c1.32,0,2.1.92,2.1,2.66Zm2.65,4.86a4.71,4.71,0,0,0,2.65-.83l-.45-.81a3.53,3.53,0,0,1-2.05.66,2.8,2.8,0,0,1-2.78-3h5.53a3.16,3.16,0,0,0,.06-.73c0-2.34-1.16-3.8-3.19-3.8-1.86,0-3.61,1.64-3.61,4.28s1.7,4.23,3.84,4.23m-9.09-.2h1.42l2.89-8.1h-1.19l-1.61,4.71c-.24.8-.52,1.62-.76,2.39h-.06c-.26-.77-.53-1.59-.77-2.39l-1.6-4.71h-1.28Zm-7.88,0h1.22v-5.28c.55-1.41,1.39-1.92,2.08-1.92a2.11,2.11,0,0,1,.77.14l.24-1.07a1.82,1.82,0,0,0-.86-.18,2.8,2.8,0,0,0-2.29,1.7h0l-.12-1.49h-1Zm-7.66-4.66a2.61,2.61,0,0,1,2.43-2.66c1.32,0,2.1.92,2.1,2.66Zm2.64,4.86a4.71,4.71,0,0,0,2.65-.83l-.45-.81a3.53,3.53,0,0,1-2.05.66,2.81,2.81,0,0,1-2.78-3h5.54a3.84,3.84,0,0,0,.06-.73c0-2.34-1.17-3.8-3.2-3.8-1.86,0-3.61,1.64-3.61,4.28s1.71,4.23,3.84,4.23m-8.09,0c1.88,0,2.9-1.08,2.9-2.37,0-1.55-1.32-2-2.51-2.48-.93-.33-1.83-.64-1.83-1.45s.5-1.23,1.58-1.23a3.08,3.08,0,0,1,1.87.72l.59-.8a4.07,4.07,0,0,0-2.46-.9c-1.74,0-2.75,1-2.75,2.27s1.29,1.92,2.45,2.34c.91.33,1.89.72,1.89,1.59s-.56,1.35-1.68,1.35a3.62,3.62,0,0,1-2.45-1l-.61.83a4.86,4.86,0,0,0,3,1.11m-9.73-4.86a2.61,2.61,0,0,1,2.43-2.66c1.32,0,2.1.92,2.1,2.66Zm2.64,4.86a4.71,4.71,0,0,0,2.65-.83l-.45-.81a3.53,3.53,0,0,1-2,.66,2.81,2.81,0,0,1-2.78-3h5.54a3.84,3.84,0,0,0,.06-.73c0-2.34-1.17-3.8-3.2-3.8-1.86,0-3.61,1.64-3.61,4.28s1.71,4.23,3.84,4.23m-8.73-.2h1.21v-5.28c.56-1.41,1.4-1.92,2.09-1.92a2.1,2.1,0,0,1,.76.14l.24-1.07a1.8,1.8,0,0,0-.85-.18,2.81,2.81,0,0,0-2.3,1.7h0l-.12-1.49h-1Zm-9.08.2c1.88,0,2.9-1.08,2.9-2.37,0-1.55-1.32-2-2.51-2.48-.93-.33-1.83-.64-1.83-1.45s.5-1.23,1.58-1.23a3.08,3.08,0,0,1,1.87.72l.59-.8a4.07,4.07,0,0,0-2.46-.9c-1.74,0-2.75,1-2.75,2.27s1.29,1.92,2.45,2.34c.91.33,1.89.72,1.89,1.59s-.56,1.35-1.68,1.35a3.62,3.62,0,0,1-2.45-1l-.61.83a4.86,4.86,0,0,0,3,1.11m-5,0a4.94,4.94,0,0,0,1.44-.3l-.24-.92a2.74,2.74,0,0,1-.94.21c-1,0-1.28-.6-1.28-1.59v-4.69h2.24v-1h-2.24v-2.29h-1l-.14,2.29-1.27.08v.93h1.23v4.65c0,1.59.54,2.64,2.23,2.64m-11.49-.2h1.22v-5.92a3.19,3.19,0,0,1,2.31-1.32c1.12,0,1.6.69,1.6,2.25v5h1.23v-5.14c0-2.07-.78-3.17-2.47-3.17a3.94,3.94,0,0,0-2.72,1.38l0-1.69v-3.32H785Zm-5.49,2.91c-1.53,0-2.43-.58-2.43-1.48a1.82,1.82,0,0,1,.89-1.46,4.9,4.9,0,0,0,1,.14h1.49c1.11,0,1.69.27,1.69,1.06s-1.05,1.74-2.67,1.74m-.19-6.31a1.88,1.88,0,0,1-1.82-2,1.82,1.82,0,1,1,3.63,0,1.88,1.88,0,0,1-1.81,2m0,7.17c2.46,0,4-1.31,4-2.78s-.93-1.92-2.79-1.92H779c-1.11,0-1.44-.39-1.44-.91a1.27,1.27,0,0,1,.54-1,2.91,2.91,0,0,0,1.25.3,2.77,2.77,0,0,0,2.92-2.84,2.46,2.46,0,0,0-.7-1.75h1.71v-.95h-2.81a3.33,3.33,0,0,0-1.12-.21,2.86,2.86,0,0,0-2,5.07v.06a2,2,0,0,0-.9,1.5,1.5,1.5,0,0,0,.73,1.34v.06a2.34,2.34,0,0,0-1.2,1.86c0,1.39,1.35,2.19,3.35,2.19M773.27,500a.84.84,0,0,0,.88-.82.89.89,0,1,0-.88.82m-.62,9.84h1.22v-8.1h-1.22Zm-5.68,0h1.21v-5.28c.56-1.41,1.4-1.92,2.09-1.92a2.1,2.1,0,0,1,.76.14l.24-1.07a1.8,1.8,0,0,0-.85-.18,2.81,2.81,0,0,0-2.3,1.7h0l-.12-1.49h-1Zm-7.07.2a2.26,2.26,0,0,0,.74-.11l-.18-.94a1.21,1.21,0,0,1-.29,0c-.21,0-.37-.17-.37-.57V497.91h-1.22v10.46c0,1.08.39,1.68,1.32,1.68m-4.18,0a2.2,2.2,0,0,0,.73-.11l-.18-.94a1.18,1.18,0,0,1-.28,0c-.21,0-.38-.17-.38-.57V497.91H754.4v10.46c0,1.08.39,1.68,1.32,1.68m-7.55-1a1.32,1.32,0,0,1-1.5-1.37c0-1.11,1-1.8,3.84-2.13v2.37a3.46,3.46,0,0,1-2.34,1.13m-.33,1a4.35,4.35,0,0,0,2.73-1.19h0l.1,1h1v-5c0-1.95-.78-3.29-2.75-3.29a5.88,5.88,0,0,0-3.15,1.07l.5.85a4.39,4.39,0,0,1,2.46-.9c1.39,0,1.74,1.08,1.72,2.18-3.48.39-5,1.26-5,3a2.17,2.17,0,0,0,2.35,2.28"/><path class="cls-3" d="M917.06,492.24a3.3,3.3,0,0,0,2.06-3.05c0-.91-.4-1.5-1.07-1.5a.89.89,0,0,0-1,.9.87.87,0,0,0,.93.89.55.55,0,0,0,.18,0,2.25,2.25,0,0,1-1.46,2Zm-5.18.52c-1.53,0-2.43-.58-2.43-1.48a1.83,1.83,0,0,1,.88-1.46,5,5,0,0,0,1,.14h1.48c1.12,0,1.7.27,1.7,1.06s-1,1.74-2.67,1.74m-.2-6.31a1.88,1.88,0,0,1-1.81-2,1.81,1.81,0,0,1,1.81-2,1.83,1.83,0,0,1,1.82,2,1.88,1.88,0,0,1-1.82,2m0,7.17c2.47,0,4-1.31,4-2.78s-.93-1.92-2.79-1.92h-1.62c-1.11,0-1.44-.39-1.44-.91a1.27,1.27,0,0,1,.54-1,2.87,2.87,0,0,0,1.24.3,2.78,2.78,0,0,0,2.93-2.84,2.43,2.43,0,0,0-.71-1.75h1.71v-.95h-2.8a3.45,3.45,0,0,0-1.13-.21,2.86,2.86,0,0,0-1.95,5.07v.06a2,2,0,0,0-.89,1.5,1.5,1.5,0,0,0,.73,1.34v.06a2.34,2.34,0,0,0-1.2,1.86c0,1.39,1.35,2.19,3.34,2.19m-11.77-3.77h1.21v-5.92a3.21,3.21,0,0,1,2.31-1.32c1.13,0,1.61.69,1.61,2.25v5h1.23v-5.14c0-2.07-.78-3.17-2.48-3.17a3.91,3.91,0,0,0-2.73,1.4h0l-.12-1.19h-1ZM894,489c-1.46,0-2.46-1.29-2.46-3.21s1-3.24,2.46-3.24,2.48,1.3,2.48,3.24-1,3.21-2.48,3.21m0,1c2,0,3.73-1.56,3.73-4.23s-1.75-4.28-3.73-4.28-3.72,1.56-3.72,4.28,1.74,4.23,3.72,4.23m-10.69,3.34c1.57,0,2.41-1.24,3-2.79l3.09-8.85h-1.2l-1.52,4.64c-.22.7-.46,1.54-.69,2.28h-.07c-.27-.74-.56-1.58-.81-2.28l-1.72-4.64h-1.28l3.27,8.15-.18.63c-.36,1.05-1,1.83-1.89,1.83a2,2,0,0,1-.63-.12l-.25,1a2.54,2.54,0,0,0,.93.16m-6.17-3.54h1.21v-5.28c.56-1.41,1.4-1.92,2.09-1.92a2.1,2.1,0,0,1,.76.14l.24-1.07a1.8,1.8,0,0,0-.85-.18,2.81,2.81,0,0,0-2.3,1.7h0l-.12-1.49h-1Zm-5.89-5.23h3.8v-.95h-3.8Zm-6.94.57a2.62,2.62,0,0,1,2.44-2.66c1.32,0,2.1.92,2.1,2.66Zm2.65,4.86a4.71,4.71,0,0,0,2.65-.83l-.45-.81a3.53,3.53,0,0,1-2,.66,2.8,2.8,0,0,1-2.78-3h5.53a3.16,3.16,0,0,0,.06-.73c0-2.34-1.16-3.8-3.19-3.8-1.86,0-3.61,1.64-3.61,4.28s1.7,4.23,3.84,4.23m-9.44-1c-.83,0-1.5-.39-1.5-1.37s1-1.8,3.84-2.13v2.37a3.46,3.46,0,0,1-2.34,1.13m-.33,1a4.35,4.35,0,0,0,2.73-1.19H860l.1,1h1v-5c0-1.95-.77-3.29-2.74-3.29a5.82,5.82,0,0,0-3.15,1.07l.49.85a4.46,4.46,0,0,1,2.47-.9c1.39,0,1.74,1.08,1.72,2.18-3.48.39-5,1.26-5,3a2.17,2.17,0,0,0,2.35,2.28m-4.55,0a4.94,4.94,0,0,0,1.44-.3l-.24-.92a2.74,2.74,0,0,1-.94.21c-1,0-1.28-.6-1.28-1.59v-4.69h2.24v-1h-2.24v-2.29h-1l-.13,2.29-1.28.08v.93h1.23v4.65c0,1.59.54,2.64,2.23,2.64m-11,2.19a3.29,3.29,0,0,0,2.07-3.05c0-.91-.4-1.5-1.08-1.5a.89.89,0,0,0-1,.9.88.88,0,0,0,.93.89.55.55,0,0,0,.18,0,2.24,2.24,0,0,1-1.45,2Zm-13.47-2.39h1.21v-5.92a3.09,3.09,0,0,1,2.12-1.32c1.1,0,1.59.69,1.59,2.25v5h1.21v-5.92a3.08,3.08,0,0,1,2.14-1.32c1.08,0,1.57.69,1.57,2.25v5h1.23v-5.14c0-2.07-.81-3.17-2.46-3.17a4,4,0,0,0-2.7,1.58,2.11,2.11,0,0,0-2.23-1.58A3.65,3.65,0,0,0,829.3,483h0l-.12-1.2h-1ZM824.73,480a.84.84,0,0,0,.88-.82.82.82,0,0,0-.88-.84.81.81,0,0,0-.88.84.82.82,0,0,0,.88.82m-.61,9.84h1.21v-8.1h-1.21Zm-8.15,0h1.18v-2.14l1.59-1.86,2.45,4h1.33L819.45,485l2.7-3.24H820.8l-3.6,4.43h-.05v-8.27H816Zm-7.28.2a4.94,4.94,0,0,0,1.44-.3l-.24-.92a2.74,2.74,0,0,1-.94.21c-1,0-1.28-.6-1.28-1.59v-4.69h2.24v-1h-2.24v-2.29h-1l-.13,2.29-1.28.08v.93h1.23v4.65c0,1.59.54,2.64,2.23,2.64m-11.48-.2h1.21v-5.92a3.21,3.21,0,0,1,2.31-1.32c1.13,0,1.61.69,1.61,2.25v5h1.22v-5.14c0-2.07-.77-3.17-2.47-3.17a4,4,0,0,0-2.72,1.38l0-1.69v-3.32h-1.21Zm-5.49,2.91c-1.53,0-2.43-.58-2.43-1.48a1.83,1.83,0,0,1,.88-1.46,5,5,0,0,0,1,.14h1.48c1.11,0,1.7.27,1.7,1.06s-1,1.74-2.67,1.74m-.2-6.31a1.88,1.88,0,0,1-1.81-2,1.81,1.81,0,0,1,1.81-2,1.83,1.83,0,0,1,1.82,2,1.88,1.88,0,0,1-1.82,2m0,7.17c2.46,0,4-1.31,4-2.78s-.93-1.92-2.79-1.92h-1.62c-1.11,0-1.44-.39-1.44-.91a1.27,1.27,0,0,1,.54-1,2.87,2.87,0,0,0,1.24.3,2.78,2.78,0,0,0,2.93-2.84,2.43,2.43,0,0,0-.71-1.75h1.71v-.95h-2.8a3.45,3.45,0,0,0-1.13-.21,2.86,2.86,0,0,0-1.95,5.07v.06a2,2,0,0,0-.9,1.5,1.5,1.5,0,0,0,.74,1.34v.06a2.34,2.34,0,0,0-1.2,1.86c0,1.39,1.35,2.19,3.34,2.19M785.43,480a.85.85,0,0,0,.89-.82.83.83,0,0,0-.89-.84.81.81,0,0,0-.88.84.82.82,0,0,0,.88.82m-.61,9.84H786v-8.1h-1.21Zm-5.69,0h1.22v-5.28c.55-1.41,1.39-1.92,2.08-1.92a2.11,2.11,0,0,1,.77.14l.24-1.07a1.82,1.82,0,0,0-.86-.18,2.8,2.8,0,0,0-2.29,1.7h0l-.12-1.49h-1Zm-7.66,3.54c1.57,0,2.41-1.24,2.95-2.79l3.09-8.85h-1.2l-1.51,4.64c-.23.7-.47,1.54-.69,2.28H774c-.27-.74-.55-1.58-.81-2.28l-1.72-4.64h-1.28l3.27,8.15-.18.63c-.36,1.05-1,1.83-1.89,1.83a2,2,0,0,1-.63-.12l-.25,1a2.54,2.54,0,0,0,.93.16m-5.9-4.38a3.26,3.26,0,0,1-2.07-.88v-4.38a3.51,3.51,0,0,1,2.27-1.17c1.62,0,2.25,1.27,2.25,3.1,0,2.06-1,3.33-2.45,3.33m-3.28,4.32h1.21v-2.8l0-1.43a3.81,3.81,0,0,0,2.28.95c1.88,0,3.54-1.61,3.54-4.38,0-2.49-1.12-4.13-3.24-4.13a4.46,4.46,0,0,0-2.61,1.16h0l-.12-.95h-1Zm-5.94-4.3c-1.46,0-2.46-1.29-2.46-3.21s1-3.24,2.46-3.24,2.47,1.3,2.47,3.24-1,3.21-2.47,3.21m0,1c2,0,3.73-1.56,3.73-4.23s-1.75-4.28-3.73-4.28-3.72,1.56-3.72,4.28,1.74,4.23,3.72,4.23m-7.2,0a3.87,3.87,0,0,0,2.61-1l-.54-.81a3,3,0,0,1-2,.83c-1.56,0-2.61-1.29-2.61-3.21s1.13-3.24,2.64-3.24a2.38,2.38,0,0,1,1.68.75l.65-.81a3.35,3.35,0,0,0-2.37-1c-2.06,0-3.86,1.56-3.86,4.28s1.64,4.23,3.77,4.23"/><path class="cls-3" d="M873.47,469.85h1.21v-5.92a3.05,3.05,0,0,1,2.12-1.32c1.09,0,1.59.69,1.59,2.25v5h1.21v-5.92a3.07,3.07,0,0,1,2.13-1.32c1.08,0,1.58.69,1.58,2.25v5h1.22v-5.14c0-2.07-.8-3.17-2.45-3.17a4,4,0,0,0-2.71,1.58,2.11,2.11,0,0,0-2.23-1.58,3.61,3.61,0,0,0-2.52,1.41h0l-.12-1.2h-1Zm-5.94-.82c-1.46,0-2.47-1.29-2.47-3.21s1-3.24,2.47-3.24,2.47,1.3,2.47,3.24-1,3.21-2.47,3.21m0,1c2,0,3.73-1.56,3.73-4.23s-1.75-4.28-3.73-4.28-3.72,1.56-3.72,4.28,1.73,4.23,3.72,4.23m-7.21,0a3.87,3.87,0,0,0,2.61-1l-.54-.81a3,3,0,0,1-2,.83c-1.56,0-2.61-1.29-2.61-3.21s1.12-3.24,2.64-3.24a2.4,2.4,0,0,1,1.68.75l.64-.81a3.33,3.33,0,0,0-2.37-1c-2,0-3.85,1.56-3.85,4.28s1.63,4.23,3.76,4.23m-6.58-.41a.92.92,0,0,0,.93-1,.94.94,0,0,0-.93-1,.93.93,0,0,0-.93,1,.91.91,0,0,0,.93,1m-6.28.21h1.21v-5.28c.55-1.41,1.39-1.92,2.08-1.92a2.11,2.11,0,0,1,.77.14l.24-1.07a1.82,1.82,0,0,0-.86-.18,2.8,2.8,0,0,0-2.29,1.7h-.05l-.12-1.49h-1Zm-7.67-4.66a2.61,2.61,0,0,1,2.43-2.66c1.32,0,2.1.92,2.1,2.66Zm2.64,4.86a4.75,4.75,0,0,0,2.66-.83l-.45-.81a3.54,3.54,0,0,1-2.06.66,2.81,2.81,0,0,1-2.78-3h5.54a3.84,3.84,0,0,0,.06-.73c0-2.34-1.17-3.8-3.19-3.8s-3.62,1.64-3.62,4.28,1.71,4.23,3.84,4.23m-9.09-.2h1.43l2.89-8.1h-1.2l-1.6,4.71c-.24.8-.53,1.62-.77,2.39H834c-.25-.77-.52-1.59-.76-2.39l-1.61-4.71h-1.27Zm-8-.79a1.32,1.32,0,0,1-1.5-1.37c0-1.11,1-1.8,3.84-2.13v2.37a3.46,3.46,0,0,1-2.34,1.13m-.33,1a4.35,4.35,0,0,0,2.73-1.19h.05l.1,1h1v-5c0-1.95-.77-3.29-2.74-3.29a5.88,5.88,0,0,0-3.15,1.07l.5.85a4.39,4.39,0,0,1,2.46-.9c1.39,0,1.74,1.08,1.72,2.18-3.48.39-5,1.26-5,3a2.17,2.17,0,0,0,2.35,2.28m-10.9-.2h1.21v-5.92a3.21,3.21,0,0,1,2.31-1.32c1.13,0,1.61.69,1.61,2.25v5h1.22v-5.14c0-2.07-.77-3.17-2.47-3.17a3.91,3.91,0,0,0-2.73,1.4h0l-.12-1.19h-1ZM805.05,468c-.69,0-1.22-.43-1.22-1.56,0-1.29.85-2.89,2.2-2.89a1.2,1.2,0,0,1,1.12.72l-.49,2.71a2.2,2.2,0,0,1-1.61,1m.33,4.38a6.12,6.12,0,0,0,3.17-.85l-.35-.75a5.35,5.35,0,0,1-2.73.76,4.77,4.77,0,0,1-5-5.14,6.15,6.15,0,0,1,5.89-6.48,4.33,4.33,0,0,1,4.63,4.69c0,2.22-1.23,3.51-2.28,3.51s-1.27-.64-.93-2l.65-3.29h-.84l-.17.68h0a1.46,1.46,0,0,0-1.35-.81c-2,0-3.19,2.1-3.19,3.84,0,1.51.87,2.35,2,2.35a2.93,2.93,0,0,0,2-1.15h0c.1.85.79,1.26,1.71,1.26,1.48,0,3.26-1.52,3.26-4.41a5.12,5.12,0,0,0-5.42-5.49,7,7,0,0,0-6.9,7.36,5.53,5.53,0,0,0,5.83,5.94m-11.91-2.55h1.27c.18-4.29.67-6.9,3.26-10.24v-.74h-6.79v1.05h5.38c-2.16,3-2.94,5.7-3.12,9.93m-3.48-4h-1.5v-6.95h-1.3L782.52,466v.79h4.82v3.06h1.15v-3.06H790Zm-6.16,0,2.65-3.93c.3-.53.6-1.07.87-1.59h.08c0,.54-.09,1.41-.09,1.95v3.57ZM777.42,469c-1.48,0-2.32-1.21-2.32-3.21s1.06-3.22,2.44-3.22a3,3,0,0,1,2.07.9v4.38a3,3,0,0,1-2.19,1.15m-.25,1a3.62,3.62,0,0,0,2.5-1.17h0l.12,1h1V457.91h-1.22v3.18l.06,1.41a3.39,3.39,0,0,0-2.32-1c-1.86,0-3.53,1.65-3.53,4.28s1.31,4.23,3.35,4.23m-10.34,3.34c1.58,0,2.42-1.24,3-2.79l3.09-8.85h-1.2l-1.52,4.64c-.22.7-.46,1.54-.69,2.28h-.07c-.27-.74-.56-1.58-.81-2.28l-1.73-4.64h-1.27l3.27,8.15-.18.63c-.36,1.05-1,1.83-1.89,1.83a1.91,1.91,0,0,1-.63-.12l-.26,1a2.58,2.58,0,0,0,.93.16m-1-15.4a3.21,3.21,0,0,0-1.3-.27c-1.55,0-2.3,1-2.3,2.62v1.41l-1.11.08v.93h1.11v7.09h1.23v-7.09h1.74v-1h-1.74v-1.39c0-1.08.38-1.65,1.17-1.65a2.18,2.18,0,0,1,.93.22Zm-9.72,11c-1.45,0-2.46-1.29-2.46-3.21s1-3.24,2.46-3.24,2.48,1.3,2.48,3.24-1,3.21-2.48,3.21m0,1c2,0,3.74-1.56,3.74-4.23s-1.76-4.28-3.74-4.28-3.72,1.56-3.72,4.28,1.74,4.23,3.72,4.23m-11.31-.2h1.29l1.16-2c.28-.5.55-1,.85-1.47h.08c.3.48.6,1,.88,1.47l1.25,2h1.33L749,465.74l2.46-4h-1.26l-1.06,1.85c-.26.45-.5.9-.75,1.35h-.06c-.29-.45-.57-.9-.83-1.35l-1.14-1.85H745l2.48,3.87Z"/><path class="cls-3" d="M841.92,452.76c-1.53,0-2.43-.58-2.43-1.48a1.83,1.83,0,0,1,.88-1.46,5.07,5.07,0,0,0,1,.14h1.49c1.11,0,1.69.27,1.69,1.06s-1.05,1.74-2.67,1.74m-.19-6.31a1.88,1.88,0,0,1-1.82-2,1.82,1.82,0,1,1,3.63,0,1.88,1.88,0,0,1-1.81,2m0,7.17c2.46,0,4-1.31,4-2.78s-.93-1.92-2.79-1.92h-1.62c-1.11,0-1.44-.39-1.44-.91a1.27,1.27,0,0,1,.54-1,2.87,2.87,0,0,0,1.25.3,2.77,2.77,0,0,0,2.92-2.84,2.46,2.46,0,0,0-.7-1.75h1.7v-.95h-2.8a3.33,3.33,0,0,0-1.12-.21,2.86,2.86,0,0,0-2,5.07v.06a2,2,0,0,0-.89,1.5,1.5,1.5,0,0,0,.73,1.34v.06a2.34,2.34,0,0,0-1.2,1.86c0,1.39,1.35,2.19,3.35,2.19M830,449.85h1.21v-5.92a3.21,3.21,0,0,1,2.32-1.32c1.12,0,1.6.69,1.6,2.25v5h1.23v-5.14c0-2.07-.78-3.17-2.47-3.17a3.93,3.93,0,0,0-2.74,1.4h0l-.12-1.19h-1ZM824,449c-1.45,0-2.46-1.29-2.46-3.21s1-3.24,2.46-3.24,2.48,1.3,2.48,3.24S825.5,449,824,449m0,1c2,0,3.73-1.56,3.73-4.23s-1.75-4.28-3.73-4.28-3.72,1.56-3.72,4.28,1.74,4.23,3.72,4.23m-10.69,3.34c1.57,0,2.41-1.24,2.95-2.79l3.09-8.85h-1.2l-1.51,4.64c-.23.7-.47,1.54-.69,2.28h-.08c-.27-.74-.55-1.58-.81-2.28l-1.72-4.64H812.1l3.27,8.15-.18.63c-.36,1.05-1,1.83-1.89,1.83a2,2,0,0,1-.63-.12l-.25,1a2.54,2.54,0,0,0,.93.16m-6.17-3.54h1.21v-5.28c.56-1.41,1.4-1.92,2.09-1.92a2.1,2.1,0,0,1,.76.14l.24-1.07a1.8,1.8,0,0,0-.85-.18,2.79,2.79,0,0,0-2.29,1.7h-.05l-.12-1.49h-1Zm-5.89-5.23h3.8v-.95h-3.8Zm-6.93.57a2.61,2.61,0,0,1,2.43-2.66c1.32,0,2.1.92,2.1,2.66Zm2.64,4.86a4.71,4.71,0,0,0,2.65-.83l-.45-.81a3.53,3.53,0,0,1-2.05.66,2.81,2.81,0,0,1-2.78-3h5.54a3.84,3.84,0,0,0,.06-.73c0-2.34-1.17-3.8-3.2-3.8-1.86,0-3.61,1.64-3.61,4.28s1.71,4.23,3.84,4.23m-9.44-1a1.32,1.32,0,0,1-1.5-1.37c0-1.11,1-1.8,3.84-2.13v2.37a3.46,3.46,0,0,1-2.34,1.13m-.33,1a4.35,4.35,0,0,0,2.73-1.19h0l.1,1h1v-5c0-1.95-.78-3.29-2.75-3.29a5.88,5.88,0,0,0-3.15,1.07l.5.85a4.39,4.39,0,0,1,2.46-.9c1.39,0,1.74,1.08,1.72,2.18-3.48.39-5,1.26-5,3a2.17,2.17,0,0,0,2.35,2.28m-4.54,0a4.94,4.94,0,0,0,1.44-.3l-.24-.92a2.79,2.79,0,0,1-.95.21c-1,0-1.27-.6-1.27-1.59v-4.69h2.23v-1h-2.23v-2.29h-1l-.13,2.29-1.28.08v.93h1.23v4.65c0,1.59.54,2.64,2.24,2.64m-11,2.19a3.29,3.29,0,0,0,2.07-3.05c0-.91-.4-1.5-1.08-1.5a.89.89,0,0,0-1,.9.88.88,0,0,0,.93.89.55.55,0,0,0,.18,0,2.24,2.24,0,0,1-1.45,2Zm-13.47-2.39h1.22v-5.92a3.06,3.06,0,0,1,2.11-1.32c1.1,0,1.59.69,1.59,2.25v5h1.22v-5.92a3.07,3.07,0,0,1,2.13-1.32c1.08,0,1.57.69,1.57,2.25v5h1.23v-5.14c0-2.07-.81-3.17-2.46-3.17a4,4,0,0,0-2.7,1.58,2.11,2.11,0,0,0-2.23-1.58,3.61,3.61,0,0,0-2.52,1.41h-.05l-.12-1.2h-1ZM754.77,440a.85.85,0,0,0,.89-.82.83.83,0,0,0-.89-.84.81.81,0,0,0-.88.84.82.82,0,0,0,.88.82m-.61,9.84h1.21v-8.1h-1.21Zm-8.15,0h1.19v-2.14l1.59-1.86,2.44,4h1.34L749.49,445l2.7-3.24h-1.35l-3.6,4.43h0v-8.27H746Z"/><path class="cls-3" d="M867.2,429.85h2.21V420.6h3.15v-1.85h-8.48v1.85h3.12Zm-11.43,0h7V428H858v-3h3.9v-1.86H858V420.6h4.59v-1.85h-6.8Zm-6,.21c2.57,0,4.08-1.54,4.08-3.36a3.06,3.06,0,0,0-2.23-3l-1.46-.62c-.94-.37-1.74-.66-1.74-1.45s.63-1.17,1.61-1.17a3.55,3.55,0,0,1,2.35.91l1.12-1.39a4.87,4.87,0,0,0-3.47-1.43c-2.25,0-3.84,1.4-3.84,3.21a3.23,3.23,0,0,0,2.24,3l1.49.63c1,.42,1.67.67,1.67,1.5s-.62,1.27-1.77,1.27a4.32,4.32,0,0,1-2.82-1.23l-1.28,1.53a5.88,5.88,0,0,0,4.05,1.62M835,429.85h2.21V420.6h3.15v-1.85h-8.48v1.85H835Zm-13.44,0h2.09V425.4c0-1.28-.16-2.67-.26-3.87h.07l1.13,2.38,3.21,5.94h2.24v-11.1H828v4.43c0,1.26.16,2.73.28,3.88h-.07l-1.11-2.4-3.23-5.91H821.6Zm-9.23,0h7V428h-4.75v-3h3.9v-1.86h-3.9V420.6h4.59v-1.85h-6.81Zm-11.23,0h2.1V425.4c0-1.28-.17-2.67-.27-3.87H803l1.13,2.38,3.21,5.94h2.25v-11.1h-2.1v4.43c0,1.26.16,2.73.28,3.88h-.07l-1.11-2.4-3.23-5.91h-2.26ZM794,428.14c-1.65,0-2.7-1.51-2.7-3.88s1.05-3.81,2.7-3.81,2.7,1.42,2.7,3.81-1.05,3.88-2.7,3.88m0,1.92c2.94,0,5-2.2,5-5.8s-2-5.72-5-5.72-5,2.1-5,5.72,2,5.8,5,5.8m-12.2-5.91v-3.64h1.26c1.53,0,2.34.43,2.34,1.72s-.73,1.92-2.26,1.92Zm-2.22,5.7h2.22v-3.94h1.49c2.38,0,4.29-1.14,4.29-3.68s-1.89-3.48-4.35-3.48h-3.65Zm-12.81,0h2v-4.63c0-1.05-.18-2.6-.29-3.65h.06l.89,2.61,1.72,4.67h1.28l1.71-4.67.9-2.61h.06c-.11,1.05-.27,2.6-.27,3.65v4.63h2v-11.1h-2.46l-1.84,5.19c-.24.69-.44,1.43-.68,2.15h-.07c-.23-.72-.44-1.46-.68-2.15l-1.89-5.19h-2.46Zm-7.14-1.71c-1.65,0-2.7-1.51-2.7-3.88s1.05-3.81,2.7-3.81,2.7,1.42,2.7,3.81-1.05,3.88-2.7,3.88m0,1.92c2.94,0,5-2.2,5-5.8s-2-5.72-5-5.72-5,2.1-5,5.72,2,5.8,5,5.8m-9.15,0a4.5,4.5,0,0,0,3.54-1.63l-1.17-1.38a3.1,3.1,0,0,1-2.29,1.09c-1.76,0-2.9-1.45-2.9-3.87s1.26-3.82,2.94-3.82a2.85,2.85,0,0,1,2,.93l1.17-1.41a4.52,4.52,0,0,0-3.25-1.43c-2.81,0-5.16,2.15-5.16,5.81s2.28,5.71,5.08,5.71"/><circle class="cls-5" cx="581.7" cy="470" r="49.4" transform="translate(-115.4 199.21) rotate(-17.71)"/><path class="cls-3" d="M556,484.93a34.32,34.32,0,0,0,5.29,11.17,23.54,23.54,0,0,0,8.58,7.19,26.08,26.08,0,0,0,11.68,2.53,24.78,24.78,0,0,0,10.64-2.24,23.23,23.23,0,0,0,8.11-6.28l3.8,3.34,1.38-1.73,1.15-13.34-2.42-2.07-13.11,2.87-1.38,1.73,3.91,3.34q-4.14,4.94-12.08,4.94a16.56,16.56,0,0,1-8.23-1.9,15.27,15.27,0,0,1-5.58-5.35,25.16,25.16,0,0,1-3.23-8.17,53.42,53.42,0,0,1,0-20.88,25.24,25.24,0,0,1,3.23-8.23,15.44,15.44,0,0,1,5.58-5.35,16.56,16.56,0,0,1,8.23-1.9q7.94,0,12.08,4.95l-3.91,3.34,1.38,1.72,13.11,2.88,2.42-2.07-1.15-13.35-1.38-1.73-3.8,3.34a23.2,23.2,0,0,0-8.11-6.27,24.64,24.64,0,0,0-10.64-2.25,26,26,0,0,0-11.68,2.54,23.35,23.35,0,0,0-8.58,7.19A34.36,34.36,0,0,0,556,456.05a57.58,57.58,0,0,0,0,28.88m2.19-28a31.34,31.34,0,0,1,4.71-10.41,20.81,20.81,0,0,1,7.77-6.62,24.35,24.35,0,0,1,10.88-2.3,21.92,21.92,0,0,1,10.64,2.48,22.52,22.52,0,0,1,7.65,6.84l3.57-3.1.92,11.39-11.16-2.42,3.45-3q-4.83-7.48-15.07-7.48a18.85,18.85,0,0,0-9.33,2.13,17.33,17.33,0,0,0-6.21,5.92,28,28,0,0,0-3.57,9,50.32,50.32,0,0,0,0,22.38,27.87,27.87,0,0,0,3.57,8.92,17.36,17.36,0,0,0,6.21,5.93,18.85,18.85,0,0,0,9.33,2.12q10.23,0,15.07-7.48l-3.45-3,11.16-2.41-.92,11.39-3.57-3.11a22.45,22.45,0,0,1-7.65,6.85,21.92,21.92,0,0,1-10.64,2.47,24.21,24.21,0,0,1-10.88-2.3,20.72,20.72,0,0,1-7.77-6.62,31.16,31.16,0,0,1-4.71-10.41,54.16,54.16,0,0,1,0-27.16"/></g><rect class="cls-6" y="80" width="450.39" height="418.99"/><path class="cls-7" d="M93,247.55Z"/><path class="cls-7" d="M336.14,331.44h0Z"/><path class="cls-7" d="M336.14,367.87Z"/><g class="cls-2"><path class="cls-8" d="M223.2,278.06l-.63.64v5.08l.63.63,75.58-9.52.64-1.27v-3.81l-.64-1.28Zm92.73,149.26H199.7V408.26H315.93ZM190.81,181.52c0-11.43,1.27-17.78,9.53-17.78s9.53,6.35,9.53,17.78l1.9,58.43a6,6,0,0,0,6.35,6.36h2.54A6,6,0,0,0,227,240l1.91-83.83c0-11.43,1.27-17.79,9.53-17.79s9.52,6.36,9.52,17.79l1.91,80.66a6,6,0,0,0,6.35,6.35h2.54a6,6,0,0,0,6.35-6.35L267,143.41c0-11.43,1.27-17.78,9.52-17.78s9.53,6.35,9.53,17.78L288,233.6a6,6,0,0,0,6.35,6.35h2.54a6,6,0,0,0,6.35-6.35l1.9-71.13c0-11.43,1.27-17.78,9.53-17.78s9.53,6.35,9.53,17.78v57.16q-4.77,5.72-5.72,19.05L312.76,280c-1.27,8.25-3.18,11.43-7.63,14L263.22,316.8c-4.45,3.18-7,7-7,12.71v31.75l.63.64,5.09-.64.63-.63V331.41c0-3.81,1.27-7.62,4.45-9.52L308.31,299c6.35-3.17,8.89-8.89,10.16-17.78l6.35-42.56c1.91-11.43,2.54-17.78,10.8-17.78s10.8,6.35,10.8,17.78V255.2c0,13.33,0,24.77,1.27,38.1.63,4.45-.64,11.44-3.81,16.52l-27.95,45.09c-4.44,7.62-6.35,19.69-6.35,27.31v19.69l-102.89.64V389.84l-.64-3.17c-6.35-19.06-15.24-54-15.24-71.77Zm65.42,55.26-1.91-80.66c-.63-17.15-4.44-24.77-15.87-24.77-10.17,0-15.88,8.25-15.88,24.77L220.66,240h-2.54l-1.9-58.43c-.64-17.15-4.45-24.77-15.88-24.77-10.16,0-15.88,8.26-15.88,24.77V312.36c0,18.42,7.62,52.71,15.24,74.31l.64,3.17v12.71H194l-.64.63v24.14h-2.54l-.63.63v31.76l.63.63h134l.64-.63V428l-.64-.63h-2.54V402.55l-.63-.64h-5.72V381c0-9.52,2.54-17.15,7.62-26l24.77-40A37.07,37.07,0,0,0,354,292c-1.27-13.33-1.27-24.13-1.27-36.83V238.68c-.64-17.14-5.72-24.77-17.15-24.77-1.9,0-3.81,0-5.08.64V162.47c-.64-17.15-4.45-24.77-15.88-24.77-10.16,0-15.88,8.26-15.88,24.77l-1.9,71.13h-2.54l-1.91-90.19c-.63-17.14-4.44-24.77-15.88-24.77-10.16,0-15.87,8.26-15.87,24.77l-1.91,93.37Z"/><path class="cls-9" d="M223.2,278.06l-.63.64v5.08l.63.63,75.58-9.52.64-1.27v-3.81l-.64-1.28Zm92.73,149.26H199.7V408.26H315.93ZM190.81,181.52c0-11.43,1.27-17.78,9.53-17.78s9.53,6.35,9.53,17.78l1.9,58.43a6,6,0,0,0,6.35,6.36h2.54A6,6,0,0,0,227,240l1.91-83.83c0-11.43,1.27-17.79,9.53-17.79s9.52,6.36,9.52,17.79l1.91,80.66a6,6,0,0,0,6.35,6.35h2.54a6,6,0,0,0,6.35-6.35L267,143.41c0-11.43,1.27-17.78,9.52-17.78s9.53,6.35,9.53,17.78L288,233.6a6,6,0,0,0,6.35,6.35h2.54a6,6,0,0,0,6.35-6.35l1.9-71.13c0-11.43,1.27-17.78,9.53-17.78s9.53,6.35,9.53,17.78v57.16q-4.77,5.72-5.72,19.05L312.76,280c-1.27,8.25-3.18,11.43-7.63,14L263.22,316.8c-4.45,3.18-7,7-7,12.71v31.75l.63.64,5.09-.64.63-.63V331.41c0-3.81,1.27-7.62,4.45-9.52L308.31,299c6.35-3.17,8.89-8.89,10.16-17.78l6.35-42.56c1.91-11.43,2.54-17.78,10.8-17.78s10.8,6.35,10.8,17.78V255.2c0,13.33,0,24.77,1.27,38.1.63,4.45-.64,11.44-3.81,16.52l-27.95,45.09c-4.44,7.62-6.35,19.69-6.35,27.31v19.69l-102.89.64V389.84l-.64-3.17c-6.35-19.06-15.24-54-15.24-71.77Zm65.42,55.26-1.91-80.66c-.63-17.15-4.44-24.77-15.87-24.77-10.17,0-15.88,8.25-15.88,24.77L220.66,240h-2.54l-1.9-58.43c-.64-17.15-4.45-24.77-15.88-24.77-10.16,0-15.88,8.26-15.88,24.77V312.36c0,18.42,7.62,52.71,15.24,74.31l.64,3.17v12.71H194l-.64.63v24.14h-2.54l-.63.63v31.76l.63.63h134l.64-.63V428l-.64-.63h-2.54V402.55l-.63-.64h-5.72V381c0-9.52,2.54-17.15,7.62-26l24.77-40A37.07,37.07,0,0,0,354,292c-1.27-13.33-1.27-24.13-1.27-36.83V238.68c-.64-17.14-5.72-24.77-17.15-24.77-1.9,0-3.81,0-5.08.64V162.47c-.64-17.15-4.45-24.77-15.88-24.77-10.16,0-15.88,8.26-15.88,24.77l-1.9,71.13h-2.54l-1.91-90.19c-.63-17.14-4.44-24.77-15.88-24.77-10.16,0-15.87,8.26-15.87,24.77l-1.91,93.37Z"/><path class="cls-10" d="M70.8,326.38a4.35,4.35,0,0,0,.94,1.42,4.46,4.46,0,0,0,3.15,1.28,4.4,4.4,0,0,0,1.72-.34A4.45,4.45,0,0,0,78,327.8,4.43,4.43,0,0,0,79,323a4.25,4.25,0,0,0-.94-1.41,4.45,4.45,0,0,0-1.42-.94,4.55,4.55,0,0,0-3.45,0,4.45,4.45,0,0,0-1.42.94,4.48,4.48,0,0,0-1.29,3.13,4.32,4.32,0,0,0,.35,1.71m6.11.33a2.91,2.91,0,0,1-4,0,2.95,2.95,0,0,1,0-4.08,2.91,2.91,0,0,1,4,0,2.95,2.95,0,0,1,0,4.08M65.67,284.78q-2.93.21-6.28.32t-6.24.06v1.64c.94,0,2,0,3,0l3.21-.06,3.22-.11c1.08,0,2.11-.09,3.08-.15ZM69,298.43a34.1,34.1,0,0,1-7.43,2,49.62,49.62,0,0,1-8.33.52l-.08,1.59a47.9,47.9,0,0,0,8.65-.6,41.55,41.55,0,0,0,7.75-2Zm-15.84,4.05,1.59-.44V286.42H53.15Zm29.61-9.22H75.62l-.82.78.82.9,7.14.09Zm-8.74,19h1.6V276.39H74ZM69.38,255a66.61,66.61,0,0,1-7.67,1.89,63.56,63.56,0,0,1-8.35,1l-.09,1.59a60.77,60.77,0,0,0,8.64-1q4.07-.78,7.9-1.89Zm-16.11,4.39,1.6-.43V241.64h-1.6ZM74,269.2h1.6V233.33H74Zm4.14-68.33-9-4.65-.77,1.47c1.55.8,3,1.57,4.37,2.3s2.85,1.54,4.45,2.43ZM57.32,202.6A18.1,18.1,0,0,0,65,198.08a16.19,16.19,0,0,0,4.12-7.67L67.57,190a20.51,20.51,0,0,1-1.51,4,12.36,12.36,0,0,1-2.24,3.08,13.92,13.92,0,0,1-3.12,2.32,24.63,24.63,0,0,1-4.11,1.77ZM75.62,225h-16V223.3h16Zm0-7.06c-1.06.06-2.29.1-3.68.13l-4.29.11-4.26.09-3.62,0v-1.64l3.66,0c1.38,0,2.8,0,4.27-.09l4.26-.13q2.07-.06,3.66-.15Zm0,6.07H74V211.85h1.6Zm-16-11.49h1.59v11.71H59.65Zm-12.19-5.38q4,0,8.48-.07t8.89-.17c3-.07,5.92-.16,8.83-.28s5.67-.26,8.29-.43l0,1.68q-3.87.26-8.22.43c-2.9.11-5.83.21-8.78.28s-5.91.13-8.85.17-5.75.07-8.42.07Zm28.16-27.47H59.26v1.68H75.62Zm7.14-21.78H75.62l-.82.77.82.9,7.14.09ZM53,163.16l1.59-.43V152.27H53ZM65.59,152q-3,.18-6.29.22t-6.33,0l.13,1.64q3,0,6.22,0c2.17,0,4.26-.08,6.27-.17ZM64,163.42h1.6V153.13H64Zm1.6-.9H53v1.67H65.59Zm8.43,3h1.6v-18.3H74Zm1.6,6.76-3.73.15-4.39.12-4.39.09-3.72,0v1.64l3.68,0c1.42,0,2.88,0,4.39-.09l4.41-.1c1.44,0,2.69-.08,3.75-.13Zm0-4.65H74v12.87h1.6ZM59.26,180.81l1.59.05V167.94H59.26Zm16.57-70.6c-1.18.06-2.6.11-4.28.17s-3.4.1-5.17.13l-5.1.09c-1.63,0-3,0-4.13,0l.13,1.68c1,0,2.26,0,3.76,0l4.72-.08,4.76-.09c1.53,0,2.84-.07,3.94-.13Zm-2.45,15.32c.29-1.11.56-2.31.82-3.59s.49-2.58.71-3.92.4-2.67.56-4,.28-2.61.36-3.81l-1.72.56q-.09,1.5-.3,3.36c-.14,1.23-.32,2.49-.52,3.78s-.43,2.57-.69,3.81-.53,2.41-.81,3.47Zm-24.63,9.09q4,0,8.25-.07t8.46-.17q4.22-.1,8.39-.28c2.79-.11,5.47-.26,8.05-.43L82,132c-2.62.17-5.32.32-8.12.43s-5.62.21-8.46.28-5.68.13-8.5.17-5.59.07-8.29.07Zm14.25-1h1.6v-13H63Z"/></g><line class="cls-11" x1="122.08" y1="80" x2="122.08" y2="498.99"/><line class="cls-11" x1="413.52" y1="80" x2="413.52" y2="498.99"/></g></g></svg>