<svg xmlns="http://www.w3.org/2000/svg" viewBox="0 0 1650.33 141.3"><defs><style>.cls-1{fill:#231815;}</style></defs><title>Asset 1</title><g id="Layer_2" data-name="Layer 2"><g id="레이어_1" data-name="레이어 1"><path class="cls-1" d="M0,71.89A104.45,104.45,0,0,1,3.61,43.52,67.36,67.36,0,0,1,14,21.59,46.23,46.23,0,0,1,30.86,7.46a51.17,51.17,0,0,1,22.94-5A48.52,48.52,0,0,1,74.71,6.9,45.67,45.67,0,0,1,90.65,19.22l7.46-6.55,2.71,3.39,2.27,26.22-4.75,4.07L72.56,40.7l-2.71-3.4,7.69-6.55Q69.41,21,53.8,21q-9.49,0-16.16,3.73a30.46,30.46,0,0,0-11,10.51,49.89,49.89,0,0,0-6.33,16.16,97.06,97.06,0,0,0-2,20.46,96.54,96.54,0,0,0,2,20.58,49.79,49.79,0,0,0,6.33,16,30.57,30.57,0,0,0,11,10.52q6.66,3.72,16.16,3.72,15.6,0,23.74-9.72l-7.69-6.55,2.71-3.39,25.78-5.66,4.75,4.07-2.27,26.22-2.71,3.4-7.46-6.56a45.55,45.55,0,0,1-15.94,12.32A48.52,48.52,0,0,1,53.8,141.3a51.17,51.17,0,0,1-22.94-5A46.23,46.23,0,0,1,14,122.2a67.36,67.36,0,0,1-10.4-21.93A104.42,104.42,0,0,1,0,71.89Zm4.52,0A111,111,0,0,0,7.91,98.57,61.68,61.68,0,0,0,17.18,119a40.79,40.79,0,0,0,15.26,13q9.16,4.53,21.36,4.52,12,0,20.91-4.86a44,44,0,0,0,15-13.45l7,6.1L98.57,102l-21.93,4.75,6.78,5.88q-9.49,14.7-29.62,14.7-10.84,0-18.31-4.18a34.19,34.19,0,0,1-12.21-11.65,54.58,54.58,0,0,1-7-17.52,109.1,109.1,0,0,1-2.49-22A109.81,109.81,0,0,1,16.28,50a54.54,54.54,0,0,1,7-17.64A34.16,34.16,0,0,1,35.49,20.69q7.45-4.17,18.31-4.18,20.13,0,29.62,14.69l-6.78,5.88,21.93,4.75L96.76,19.44l-7,6.11a44.23,44.23,0,0,0-15-13.45Q65.79,7.24,53.8,7.24q-12.21,0-21.36,4.52a40.82,40.82,0,0,0-15.26,13A61.53,61.53,0,0,0,7.91,45.22,111.16,111.16,0,0,0,4.52,71.89Z"/><path class="cls-1" d="M226.52,92.7q-2.72,16.72-12.2,25.65t-26,8.94q-10.41,0-17.64-3.85a32.45,32.45,0,0,1-11.87-10.74,46.36,46.36,0,0,1-6.66-16.62,116.53,116.53,0,0,1-2.27-21.7h9L145.58,56.52,132.25,74.38h8.59a107.15,107.15,0,0,0,3.17,25A58.76,58.76,0,0,0,152.82,119a41.75,41.75,0,0,0,14.69,12.88c5.89,3.09,12.81,4.63,20.81,4.63q19,0,31.08-11.19T235.33,92.7h5q-3.84,23.28-17.18,35.94T188.32,141.3q-12.67,0-22-4.52A44,44,0,0,1,150.45,124a60.08,60.08,0,0,1-9.95-19.78,104.42,104.42,0,0,1-4.18-25.54h-9.5v-4.3l15.6-21.25h6.33l15.6,21.25v4.3h-9.72A99.19,99.19,0,0,0,157,97a41,41,0,0,0,5.88,13.91,26.2,26.2,0,0,0,10.17,8.81q6.22,3,15.27,3.05,28.49,0,33.22-30.06ZM150.11,51.1q2.71-16.73,12.21-25.67t26-8.92c6.92,0,12.81,1.28,17.63,3.84a32.54,32.54,0,0,1,11.87,10.74,46.68,46.68,0,0,1,6.67,16.73,119.35,119.35,0,0,1,2.26,21.59H217.7L231,87.27l13.35-17.86h-8.6a107.77,107.77,0,0,0-3.16-25,59,59,0,0,0-8.82-19.67,41.63,41.63,0,0,0-14.7-12.89q-8.82-4.62-20.79-4.63-19,0-31.09,11.19T141.29,51.1h-5q3.84-23.29,17.18-35.95T188.32,2.49A50.5,50.5,0,0,1,210.24,7a43.91,43.91,0,0,1,15.94,12.77,60.38,60.38,0,0,1,9.95,19.78,105.06,105.06,0,0,1,4.18,25.55h9.49v4.3L234.21,90.66h-6.33l-15.6-21.25v-4.3H222a99.19,99.19,0,0,0-2.37-18.31,41,41,0,0,0-5.88-13.9,26.1,26.1,0,0,0-10.18-8.82q-6.21-3-15.25-3-28.5,0-33.24,30.07Z"/><path class="cls-1" d="M416.65,118l-15.6,21.26h-6.33L379.12,118v-4.29h9.27V72.8l.46-23.06-45.22,88.39L298.42,49.74l.45,23.06v40.92h9.26V118l-15.6,21.26H286.2L270.61,118v-4.29h9.26V5.2h17.41l46.35,91.11L390,5.2h17.41V113.72h9.27ZM391.1,34.37h2V118h-8.59l13.34,17.86L411.22,118h-8.58V9.5h-9.5l-49.51,97.21L294.12,9.5h-9.49V118H276l13.34,17.86L302.71,118h-8.59V34.37h2l47.48,93.14Z"/><path class="cls-1" d="M469.1,38.21h4.75V64.89h29.84A18.53,18.53,0,0,0,517,59.69a17.66,17.66,0,0,0,5.42-13.34q0-8.35-5.42-13.45a18.73,18.73,0,0,0-13.34-5.09H480.4v9.72h-4.29l-21.25-15.6V15.6L476.11,0h4.29V9.72h24A41.08,41.08,0,0,1,519,12.33,37.3,37.3,0,0,1,531,19.67a33.24,33.24,0,0,1,8.14,11.53,37.74,37.74,0,0,1,3,15.15,37.13,37.13,0,0,1-3,14.92A34.39,34.39,0,0,1,531,72.92,36.4,36.4,0,0,1,519,80.37,40.86,40.86,0,0,1,504.37,83H473.85v30.74h9.27V118l-15.6,21.26h-6.33L445.59,118v-4.29h9.27V27.81h4.74V118H451l13.34,17.86L477.69,118H469.1V78.68h35.49a34.27,34.27,0,0,0,12.78-2.38A34.87,34.87,0,0,0,528,69.75a29.16,29.16,0,0,0,7.22-10.18,32.7,32.7,0,0,0,2.61-13.22,32.82,32.82,0,0,0-2.61-13.23A29.31,29.31,0,0,0,528,23a34.87,34.87,0,0,0-10.63-6.55A34.27,34.27,0,0,0,504.59,14H476.11V5.43L458.25,18.77l17.86,13.34v-8.6h27.13a24,24,0,0,1,16.62,6.22q6.89,6.23,6.89,16.62,0,10.17-6.89,16.51a23.77,23.77,0,0,1-16.62,6.32H469.1Z"/><path class="cls-1" d="M661.49,92.7q-2.72,16.72-12.21,25.65t-26,8.94q-10.39,0-17.63-3.85a32.29,32.29,0,0,1-11.87-10.74,46.55,46.55,0,0,1-6.67-16.62,116.58,116.58,0,0,1-2.26-21.7h9L580.56,56.52,567.21,74.38h8.59a107.68,107.68,0,0,0,3.17,25A58.77,58.77,0,0,0,587.79,119a41.7,41.7,0,0,0,14.7,12.88q8.81,4.64,20.79,4.63,19,0,31.09-11.19T670.31,92.7h5q-3.85,23.28-17.2,35.94T623.28,141.3q-12.66,0-22-4.52A44,44,0,0,1,585.41,124a60.28,60.28,0,0,1-9.95-19.78,105.87,105.87,0,0,1-4.18-25.54h-9.49v-4.3l15.6-21.25h6.33l15.6,21.25v4.3h-9.73A100,100,0,0,0,592,97a41,41,0,0,0,5.88,13.91A26.13,26.13,0,0,0,608,119.71q6.21,3,15.26,3.05,28.49,0,33.24-30.06ZM585.08,51.1q2.71-16.73,12.2-25.67t26-8.92q10.41,0,17.64,3.84a32.54,32.54,0,0,1,11.87,10.74,47,47,0,0,1,6.67,16.73,116.75,116.75,0,0,1,2.25,21.59h-9L666,87.27l13.34-17.86h-8.59a107.75,107.75,0,0,0-3.17-25,59,59,0,0,0-8.81-19.67,41.63,41.63,0,0,0-14.7-12.89q-8.8-4.62-20.8-4.63-19,0-31.08,11.19T576.26,51.1h-5q3.86-23.29,17.19-35.95T623.28,2.49A50.56,50.56,0,0,1,645.22,7a44.07,44.07,0,0,1,15.94,12.77,60.56,60.56,0,0,1,9.94,19.78,106,106,0,0,1,4.19,25.55h9.49v4.3l-15.6,21.25h-6.33l-15.6-21.25v-4.3H657a99.15,99.15,0,0,0-2.38-18.31,41,41,0,0,0-5.87-13.9,26.21,26.21,0,0,0-10.17-8.82,34.57,34.57,0,0,0-15.27-3q-28.47,0-33.23,30.07Z"/><path class="cls-1" d="M705.57,113.72h9.26V5.2h16.51L794,99.25V26.91H784.7v-4.3L800.3,1.36h6.33l15.59,21.25v4.3H813V139.27h-16.5L733.83,45.22v68.5h9.26V118L727.5,139.27h-6.33L705.57,118ZM798.94,135h9.27V22.61h8.59L803.46,4.75,790.12,22.61h8.59V115.3h-.22L728.63,9.5h-9V118H711l13.34,17.86L737.67,118h-8.59V29.16h.22Z"/><path class="cls-1" d="M941.82,137H860.2V9.72H919V0h4.29l21.25,15.6v6.33l-21.25,15.6H919V27.81H879.2V64.66h37.52V54.94H921l21.25,15.6v6.33L921,92.47h-4.3V82.75H879.2v36.17h62.62ZM874.45,23.51h48.83v8.6l17.86-13.34L923.28,5.43V14H865V132.71h72.11v-9.49H874.45V78.45H921v8.6L938.88,73.7,921,60.37V69H874.45Z"/><path class="cls-1" d="M975.05,113.72h9.27V5.2h16.5l62.62,94.05V26.91h-9.26v-4.3l15.6-21.25h6.33l15.59,21.25v4.3h-9.26V139.27h-16.51l-62.62-94.05v68.5h9.26V118L997,139.27h-6.33L975.05,118ZM1068.42,135h9.27V22.61h8.59L1072.94,4.75,1059.6,22.61h8.6V115.3H1068L998.11,9.5h-9V118h-8.6l13.35,17.86L1007.15,118h-8.59V29.16h.22Z"/><path class="cls-1" d="M1203.16,0l21.25,15.6v6.33l-21.25,15.6h-4.29V27.81h-21v85.91h9.27V118l-15.6,21.26h-6.33L1149.58,118v-4.29h9.27V27.81h-41.6V9.72h81.62V0ZM1163.6,118H1155l13.34,17.86L1181.68,118h-8.59V23.51h30.07v8.6L1221,18.77,1203.16,5.43V14H1122v9.49h41.6Z"/><path class="cls-1" d="M1310.54,104.68h-9v-4.3l15.6-21.25h6.33l15.6,21.25v4.3h-9.49q0,18.76,20.34,18.76a27.2,27.2,0,0,0,14.36-3.62,11.66,11.66,0,0,0,6-10.62,12.68,12.68,0,0,0-2.71-7.69,54.58,54.58,0,0,0-6.34-7L1328,64.44a75.39,75.39,0,0,1-11.31-13.79,28.35,28.35,0,0,1-4.75-15.38,29.78,29.78,0,0,1,11-23.62,38.58,38.58,0,0,1,11.87-6.56,44.3,44.3,0,0,1,14.7-2.37q17,0,26.91,8.93t9.94,25h9v4.29l-15.59,21.25h-6.34L1357.8,40.92V36.63h9.49V34.37c0-4.82-1.62-8.41-4.86-10.74s-7.5-3.5-12.77-3.5a23.82,23.82,0,0,0-13.12,3.61,11.84,11.84,0,0,0-5.65,10.63,13.31,13.31,0,0,0,2.49,7.68,43.42,43.42,0,0,0,6.1,7l33.23,30.07a83.52,83.52,0,0,1,11.54,13.79,27.41,27.41,0,0,1,5,15.37,29.07,29.07,0,0,1-3,13.45,30.91,30.91,0,0,1-8.25,10.18,39.15,39.15,0,0,1-12.44,6.55,48.83,48.83,0,0,1-15.37,2.38,48,48,0,0,1-17.3-2.83,36.56,36.56,0,0,1-12.32-7.57,30,30,0,0,1-7.35-10.74,36.34,36.34,0,0,1-2.6-12.1Zm25.78-52.45a44.23,44.23,0,0,1-7-8.48,17.36,17.36,0,0,1-2.94-9.38,16.44,16.44,0,0,1,1.92-8,17.61,17.61,0,0,1,5.2-5.87,24.25,24.25,0,0,1,7.57-3.62,31.54,31.54,0,0,1,8.82-1.25q9.94,0,16.06,5t6.1,14.24v6.1h-8.82l13.34,17.87,13.34-17.87h-8.37V36.63q0-14-8.48-21.6T1349.2,7.46a40.78,40.78,0,0,0-13.22,2,31.33,31.33,0,0,0-10.29,5.65,26.68,26.68,0,0,0-6.78,8.7,25.66,25.66,0,0,0-2.49,11.42,24.17,24.17,0,0,0,4.18,13.57,69.66,69.66,0,0,0,10.74,12.43l33,30.07a52.28,52.28,0,0,1,7.24,8.47,16.58,16.58,0,0,1,3.16,9.39,15.6,15.6,0,0,1-2,8,17.92,17.92,0,0,1-5.53,5.88,27.11,27.11,0,0,1-8,3.61,35.63,35.63,0,0,1-9.49,1.24q-24.87,0-24.87-23.28v-4.3h8.82l-13.35-17.86-13.33,17.86h8.36v7.69a30,30,0,0,0,2.27,10.17,25.4,25.4,0,0,0,6.21,8.93,31.59,31.59,0,0,0,10.74,6.44,44.41,44.41,0,0,0,15.82,2.49q15.15,0,24.76-7.57t9.61-20.24a22.4,22.4,0,0,0-4.52-13.44,105.64,105.64,0,0,0-10.86-12.55Z"/><path class="cls-1" d="M1513.11,137h-81.62V9.72h58.79V0h4.29l21.25,15.6v6.33l-21.25,15.6h-4.29V27.81h-39.79V64.66H1488V54.94h4.3l21.25,15.6v6.33l-21.25,15.6H1488V82.75h-37.52v36.17h62.62Zm-67.37-113.5h48.83v8.6l17.86-13.34L1494.57,5.43V14h-58.32V132.71h72.11v-9.49h-62.62V78.45h46.57v8.6l17.86-13.35-17.86-13.33V69h-46.57Z"/><path class="cls-1" d="M1629.09,0l21.24,15.6v6.33l-21.24,15.6h-4.3V27.81h-21v85.91H1613V118l-15.6,21.26h-6.33L1575.51,118v-4.29h9.27V27.81h-41.6V9.72h81.61V0Zm-39.56,118h-8.6l13.34,17.86L1607.61,118H1599V23.51h30.07v8.6L1647,18.77,1629.09,5.43V14h-81.17v9.49h41.61Z"/></g></g></svg>