<?xml version="1.0" encoding="utf-8"?>
<!-- Generator: Adobe Illustrator 22.0.1, SVG Export Plug-In . SVG Version: 6.00 Build 0)  -->
<svg version="1.1" id="Layer_1" xmlns="http://www.w3.org/2000/svg" xmlns:xlink="http://www.w3.org/1999/xlink" x="0px" y="0px"
	 viewBox="0 0 943.3 500.7" style="enable-background:new 0 0 943.3 500.7;" xml:space="preserve">
<style type="text/css">
	.st0{fill:#231815;}
	.st1{fill:none;stroke:#231815;stroke-width:0.3;}
	.st2{clip-path:url(#SVGID_2_);}
	.st3{fill:none;stroke:#231815;stroke-width:1.2;}
	.st4{fill:#433F3F;}
	.st5{fill:#1D2087;}
	.st6{clip-path:url(#SVGID_4_);}
	.st7{fill:#F4F4F4;}
	.st8{fill:none;stroke:#433F3F;stroke-width:2.87;}
	.st9{fill:#FFFFFF;}
	.st10{fill:none;stroke:#FFFFFF;stroke-width:0.22;}
</style>
<title>columns-8</title>
<g id="Layer_2_1_">
	<g id="레이어_1">
		<g>
			<g>
				<path class="st0" d="M511.7,87.4c0.2,0.4,0.4,0.7,0.7,1c0.3,0.3,0.6,0.5,1,0.7c0.4,0.2,0.8,0.3,1.3,0.2c0.4,0,0.9-0.1,1.3-0.2
					c0.4-0.2,0.7-0.4,1-0.7c0.3-0.3,0.5-0.6,0.7-1c0.3-0.8,0.3-1.7,0-2.5c-0.2-0.4-0.4-0.7-0.7-1c-0.3-0.3-0.6-0.5-1-0.7
					c-0.4-0.2-0.8-0.3-1.3-0.2c-0.4,0-0.9,0.1-1.3,0.2c-0.4,0.2-0.7,0.4-1,0.7c-0.3,0.3-0.5,0.6-0.7,1
					C511.3,85.7,511.3,86.6,511.7,87.4 M512.3,85.2c0.1-0.3,0.3-0.6,0.5-0.8c0.5-0.5,1.1-0.7,1.8-0.7c0.3,0,0.7,0.1,1,0.2
					c0.3,0.1,0.6,0.3,0.8,0.5c0.2,0.2,0.4,0.5,0.5,0.8c0.3,0.6,0.3,1.3,0,1.9c-0.1,0.3-0.3,0.6-0.5,0.8c-0.2,0.2-0.5,0.4-0.8,0.5
					c-0.3,0.1-0.7,0.2-1,0.2c-1,0-1.9-0.6-2.3-1.5C512.1,86.5,512.1,85.8,512.3,85.2 M520.9,97.2h0.7V80.5h-0.7V97.2z M519.8,91.8
					c-1,0.2-1.9,0.3-2.8,0.4s-1.7,0.2-2.5,0.3s-1.7,0.1-2.5,0.2s-1.8,0.1-2.8,0.1l0.2,0.8c1,0,1.9-0.1,2.8-0.2
					c0.9-0.1,1.7-0.1,2.5-0.2l2.5-0.3l2.7-0.4L519.8,91.8z M511.1,68.5h0.7V63h-0.7V68.5z M516.9,62.8c-0.9,0-1.9,0.1-2.9,0.1h-2.9
					l0.1,0.8h2.9c1,0,2,0,2.9-0.1V62.8z M516.2,68.6h0.7v-5.2h-0.7V68.6z M516.9,68.2h-5.9v0.8h5.9V68.2z M520.9,72.4h0.7V60.5h-0.7
					V72.4z M522.8,74.9l-1.9,0.1c-0.8,0-1.5,0.1-2.3,0.1h-2.3c-0.8,0-1.4,0-2,0v0.8c0.5,0,1.2,0,2,0h2.3l2.3-0.1
					c0.8,0,1.4-0.1,1.9-0.1L522.8,74.9z M514.2,75.7h0.7v-4.3h-0.7V75.7z M519.2,56.7c0.4-0.1,0.7-0.3,1.1-0.5
					c0.3-0.2,0.5-0.5,0.7-0.8c0.3-0.6,0.3-1.4,0-2c-0.2-0.3-0.4-0.6-0.7-0.8c-0.3-0.2-0.7-0.4-1.1-0.5c-0.4-0.1-0.9-0.2-1.3-0.2
					c-0.4,0-0.9,0.1-1.3,0.2c-0.4,0.1-0.7,0.3-1.1,0.5c-0.3,0.2-0.5,0.5-0.7,0.8c-0.3,0.6-0.3,1.4,0,2c0.2,0.3,0.4,0.6,0.7,0.8
					c0.3,0.2,0.7,0.4,1.1,0.5c0.4,0.1,0.9,0.2,1.3,0.2C518.4,56.9,518.8,56.8,519.2,56.7 M519.8,53.1c0.7,0.4,0.9,1.3,0.5,2
					c-0.1,0.2-0.3,0.4-0.5,0.5c-1.2,0.6-2.6,0.6-3.8,0c-0.7-0.4-0.9-1.3-0.5-2c0.1-0.2,0.3-0.4,0.5-0.5
					C517.2,52.5,518.6,52.5,519.8,53.1 M517.5,50.3h0.7v-1.7h-0.7V50.3z M514.9,47c0.2,0.3,0.4,0.5,0.6,0.7c0.3,0.2,0.6,0.4,1,0.4
					c0.4,0.1,0.8,0.2,1.2,0.2c0.4,0,0.8,0,1.2-0.2c0.4-0.1,0.7-0.2,1-0.4c0.3-0.2,0.5-0.4,0.7-0.7c0.2-0.3,0.2-0.6,0.2-0.9
					c0-0.3-0.1-0.6-0.2-0.9c-0.2-0.3-0.4-0.5-0.7-0.7c-0.3-0.2-0.6-0.4-1-0.4c-0.4-0.1-0.8-0.2-1.2-0.2c-0.4,0-0.8,0-1.2,0.2
					c-0.4,0.1-0.7,0.2-1,0.4c-0.3,0.2-0.5,0.4-0.6,0.7c-0.2,0.3-0.2,0.6-0.2,0.9C514.6,46.4,514.7,46.7,514.9,47 M516.1,45
					c1-0.5,2.2-0.5,3.2,0c0.4,0.2,0.7,0.7,0.7,1.1c0,0.5-0.2,0.9-0.7,1.1c-1,0.5-2.2,0.5-3.2,0c-0.4-0.2-0.7-0.6-0.7-1.1
					C515.4,45.7,515.6,45.2,516.1,45 M520,40.4c-0.8,0-1.5-0.1-2.2-0.2s-1.5-0.2-2.2-0.3l-0.1,0.9c0.7,0.1,1.5,0.2,2.2,0.3
					s1.5,0.1,2.2,0.2L520,40.4z M522,42.1l-2.1,0.1l-2.6,0.1l-2.6,0.1h-2.1l0.1,0.8h1.3h1.6h1.8l1.8-0.1h1.6h1.3L522,42.1z
					 M508.6,50.8h3.9l4.1-0.1c1.4,0,2.7-0.1,4.1-0.1s2.6-0.1,3.8-0.2v-0.8c-1.2,0.1-2.5,0.2-3.8,0.2s-2.7,0.1-4.1,0.1l-4.1,0.1h-3.9
					L508.6,50.8z"/>
				<path class="st0" d="M544.9,196.8c0.1,0.2,0.2,0.5,0.4,0.7c0.2,0.2,0.4,0.3,0.7,0.4c0.3,0.1,0.5,0.2,0.8,0.2
					c0.3,0,0.5-0.1,0.8-0.2c0.5-0.2,0.9-0.6,1.1-1.1c0.2-0.5,0.2-1.1,0-1.6c-0.2-0.5-0.6-0.9-1.1-1.1c-0.2-0.1-0.5-0.2-0.8-0.2
					c-0.3,0-0.5,0.1-0.8,0.2c-0.2,0.1-0.5,0.3-0.7,0.4c-0.2,0.2-0.3,0.4-0.4,0.7C544.7,195.7,544.7,196.3,544.9,196.8 M547.8,197
					c-0.5,0.5-1.4,0.5-1.9,0c-0.5-0.5-0.5-1.4,0-1.9c0.5-0.5,1.4-0.5,1.9,0C548.3,195.6,548.3,196.4,547.8,197 M539.8,178.9h1.6
					l1.7-0.1l1.6-0.1l1.5-0.1v-0.8l-1.5,0.1l-1.6,0.1l-1.7,0.1h-1.6V178.9z M546.6,181l-1.9,0.1c-0.7,0-1.5,0.1-2.3,0.1h-2.3
					c-0.7,0-1.4,0-2,0v0.8c0.5,0,1.2,0,1.9,0h2.3l2.3-0.1c0.7,0,1.4-0.1,1.9-0.1L546.6,181z M546.4,174.6l-1.8,0.1l-2.3,0.1H540
					h-1.8v0.8h1.8h2.3h2.3c0.7,0,1.3,0,1.8-0.1L546.4,174.6z M538.2,182l0.7-0.2v-6.7h-0.7V182z M533.6,186.5h3.8l3.9-0.1
					c1.3,0,2.6-0.1,3.9-0.1s2.5-0.1,3.7-0.2v-0.8c-1.2,0.1-2.5,0.1-3.8,0.2s-2.6,0.1-3.9,0.1l-4,0.1h-3.8L533.6,186.5z M539.7,163.6
					c0.4-0.2,0.8-0.5,1.1-0.8c0.3-0.3,0.6-0.7,0.7-1.2c0.3-0.9,0.3-1.9,0-2.9c-0.2-0.4-0.4-0.8-0.7-1.2c-0.6-0.7-1.6-1.1-2.5-1.1
					c-1.4,0-2.7,0.9-3.2,2.2c-0.3,0.9-0.3,1.9,0,2.9c0.5,1.4,1.8,2.3,3.2,2.2C538.8,163.9,539.3,163.8,539.7,163.6 M539.4,157.5
					c0.3,0.1,0.6,0.4,0.9,0.6c0.2,0.3,0.4,0.6,0.6,0.9c0.3,0.8,0.3,1.6,0,2.3c-0.1,0.3-0.3,0.7-0.6,0.9c-0.2,0.3-0.5,0.5-0.9,0.6
					c-0.4,0.2-0.7,0.2-1.1,0.2c-0.4,0-0.8-0.1-1.1-0.2c-0.3-0.1-0.6-0.4-0.9-0.6c-0.2-0.3-0.4-0.6-0.5-0.9c-0.3-0.8-0.3-1.6,0-2.3
					c0.1-0.3,0.3-0.7,0.5-0.9c0.2-0.3,0.5-0.5,0.9-0.6c0.4-0.2,0.7-0.2,1.1-0.2C538.7,157.2,539.1,157.3,539.4,157.5 M545.4,169.2
					h0.7v-16.7h-0.7V169.2z M534.8,144.7c1.4-1,2.6-2.4,3.3-3.9c0.8-1.7,1.3-3.4,1.5-5.3l-0.8-0.1c-0.1,1.7-0.6,3.4-1.3,5
					c-0.7,1.5-1.8,2.8-3.2,3.7L534.8,144.7z M549.5,140h-3.3l-0.4,0.4l0.4,0.4h3.3V140z M542.9,144l-3.3-4l-0.6,0.5l1.6,1.9
					c0.6,0.7,1.1,1.4,1.6,2.1L542.9,144z M545.4,149.2h0.7v-16.7h-0.7V149.2z M537.4,120.1c-0.1,0.6-0.2,1.2-0.3,1.9
					c-0.1,0.6-0.3,1.2-0.5,1.7l0.7,0.3c0.2-0.6,0.4-1.2,0.6-1.9c0.1-0.6,0.2-1.2,0.3-1.9L537.4,120.1z M539.3,118.4
					c0.3-0.1,0.6-0.3,0.9-0.5c0.2-0.2,0.4-0.5,0.6-0.7c0.1-0.3,0.2-0.6,0.2-0.9c0-0.3-0.1-0.6-0.2-0.9c-0.1-0.3-0.3-0.5-0.6-0.7
					c-0.3-0.2-0.6-0.4-0.9-0.5c-0.4-0.1-0.7-0.2-1.1-0.2c-0.4,0-0.8,0.1-1.1,0.2c-0.3,0.1-0.6,0.3-0.9,0.5c-0.2,0.2-0.4,0.4-0.6,0.7
					c-0.1,0.3-0.2,0.6-0.2,0.9c0,0.3,0.1,0.6,0.2,0.9c0.1,0.3,0.3,0.5,0.6,0.7c0.3,0.2,0.6,0.4,0.9,0.5c0.4,0.1,0.7,0.2,1.1,0.2
					C538.6,118.6,539,118.6,539.3,118.4 M539.7,115.2c0.6,0.5,0.8,1.3,0.3,2c-0.1,0.1-0.2,0.2-0.3,0.3c-0.9,0.6-2.1,0.6-3,0
					c-0.6-0.5-0.8-1.4-0.3-2c0.1-0.1,0.2-0.2,0.3-0.3C537.6,114.5,538.8,114.5,539.7,115.2 M543.5,121.3h-3v0.8h3V121.3z
					 M541.4,119.3c-1.3,0.2-2.6,0.4-3.9,0.6s-2.7,0.3-4,0.3l0.1,0.8c1.3-0.1,2.6-0.2,4-0.3s2.7-0.4,4-0.6L541.4,119.3z M543.1,122.8
					h0.7v-9.2h-0.7V122.8z M545.5,122.6h0.7v-10.1h-0.7V122.6z M546.2,128h-7.5v0.8h7.5V128z M546.2,125.2l-1.7,0.1l-2,0.1h-2h-1.7
					v0.8h1.7h2l2-0.1c0.7,0,1.2,0,1.7-0.1L546.2,125.2z M546.2,123.5h-0.8v4.8h0.8V123.5z M538.7,128.5l0.7-0.2v-4.5h-0.7V128.5z
					 M535.6,93.9l0.7-0.2v-4.9h-0.7V93.9z M541.5,88.7c-0.9,0.1-1.9,0.1-3,0.1h-3l0.1,0.8h2.9c1,0,2,0,3-0.1L541.5,88.7z M540.8,94
					h0.7v-4.8h-0.7V94z M541.5,93.6h-5.9v0.8h5.9V93.6z M545.4,95h0.7v-8.5h-0.7V95z M547.1,102l-4.5-1.8l-0.2,0.7l2.1,0.9
					c0.7,0.3,1.5,0.6,2.2,1L547.1,102z M537.5,102.8c1.2-0.3,2.3-0.8,3.3-1.4c0.4-0.3,0.8-0.6,1.1-1c0.4-0.5,0.8-1.1,1-1.7l-0.8-0.2
					c-0.2,0.5-0.4,0.9-0.8,1.4c-0.3,0.4-0.7,0.7-1.1,1c-0.4,0.3-0.9,0.5-1.3,0.7c-0.5,0.2-1.1,0.4-1.7,0.5L537.5,102.8z M544.5,96.2
					c-0.8,0-1.5-0.1-2.2-0.2s-1.5-0.2-2.2-0.3l-0.1,0.9c0.7,0.1,1.5,0.2,2.2,0.3s1.5,0.1,2.2,0.2L544.5,96.2z M546.2,98.2l-1.9,0.1
					l-2.2,0.1l-2.2,0.1H538l0.1,0.8h1.8l2.2-0.1l2.2-0.1l1.9-0.1L546.2,98.2z M543.4,68.2l-3.5-2.7l-0.4,0.6
					c0.6,0.5,1.2,0.9,1.7,1.3l1.8,1.4L543.4,68.2z M535.3,69.7c0.7-0.4,1.3-0.9,1.8-1.5c0.5-0.5,1-1.1,1.3-1.8
					c0.4-0.7,0.7-1.4,0.9-2.1c0.2-0.8,0.4-1.6,0.5-2.5l-0.7-0.1c-0.1,0.8-0.3,1.6-0.5,2.4c-0.2,0.7-0.5,1.3-0.8,1.9
					c-0.3,0.6-0.8,1.1-1.2,1.6c-0.5,0.5-1.1,1-1.8,1.4L535.3,69.7z M545.4,69.6h0.7v-9.1h-0.7V69.6z M540.1,74.8
					c0.2,0.4,0.4,0.7,0.7,1c1,0.9,2.3,1.1,3.5,0.7c0.4-0.2,0.7-0.4,1-0.7c0.3-0.3,0.5-0.6,0.7-1c0.3-0.8,0.3-1.6,0-2.4
					c-0.2-0.4-0.4-0.7-0.7-1c-0.3-0.3-0.6-0.5-1-0.7c-0.4-0.2-0.8-0.2-1.2-0.2c-0.8,0-1.7,0.3-2.3,0.9c-0.3,0.3-0.5,0.6-0.7,1
					C539.7,73.2,539.7,74.1,540.1,74.8 M545.4,74.5c-0.1,0.3-0.3,0.5-0.5,0.7c-0.2,0.2-0.5,0.4-0.8,0.5c-0.3,0.1-0.7,0.2-1,0.2
					c-0.3,0-0.7-0.1-1-0.2c-0.3-0.1-0.6-0.3-0.8-0.5c-0.9-0.8-1-2.3-0.1-3.2c0,0,0.1-0.1,0.1-0.1c0.2-0.2,0.5-0.4,0.8-0.5
					c0.3-0.1,0.7-0.2,1-0.2c0.3,0,0.7,0.1,1,0.2c0.3,0.1,0.6,0.3,0.8,0.5c0.2,0.2,0.4,0.5,0.5,0.7C545.6,73.3,545.6,74,545.4,74.5
					 M549.5,65.7h-3.3l-0.4,0.4l0.4,0.4h3.3V65.7z M546,46.9h-3.4v0.8h3.4V46.9z M546,43.4h-3.4v0.8h3.4V43.4z M540.1,54.8
					c0.2,0.4,0.4,0.7,0.7,1c0.3,0.3,0.6,0.5,1,0.6c0.4,0.2,0.8,0.2,1.2,0.2c0.4,0,0.9-0.1,1.2-0.2c0.4-0.1,0.7-0.4,1-0.6
					c0.3-0.3,0.5-0.6,0.7-1c0.3-0.8,0.3-1.6,0-2.4c-0.2-0.4-0.4-0.7-0.7-1c-0.3-0.3-0.6-0.5-1-0.6c-0.4-0.2-0.8-0.2-1.2-0.2
					c-0.4,0-0.9,0.1-1.2,0.2c-0.4,0.1-0.7,0.4-1,0.6c-0.3,0.3-0.5,0.6-0.7,1C539.8,53.2,539.8,54.1,540.1,54.8 M545.4,54.5
					c-0.3,0.6-0.8,1-1.4,1.2c-0.3,0.1-0.7,0.2-1,0.2c-0.3,0-0.7-0.1-1-0.2c-0.3-0.1-0.6-0.3-0.8-0.5c-0.2-0.2-0.4-0.5-0.5-0.7
					c-0.3-0.6-0.3-1.2,0-1.8c0.1-0.3,0.3-0.5,0.5-0.7c0.2-0.2,0.5-0.4,0.8-0.5c0.3-0.1,0.7-0.2,1-0.2c0.3,0,0.7,0.1,1,0.2
					c1.2,0.4,1.8,1.6,1.4,2.8C545.4,54.4,545.4,54.5,545.4,54.5 M535.5,46.8c0.2,0.4,0.4,0.7,0.7,1c0.3,0.3,0.6,0.5,1,0.7
					c0.4,0.2,0.8,0.3,1.2,0.3c0.4,0,0.8-0.1,1.2-0.3c0.4-0.2,0.7-0.4,1-0.7c0.3-0.3,0.5-0.6,0.7-1c0.3-0.8,0.3-1.7,0-2.4
					c-0.2-0.4-0.4-0.7-0.7-1c-0.3-0.3-0.6-0.5-1-0.7c-0.4-0.2-0.8-0.3-1.2-0.3c-0.4,0-0.9,0.1-1.2,0.3c-0.4,0.2-0.7,0.4-1,0.7
					c-0.3,0.3-0.5,0.6-0.7,1C535.1,45.1,535.1,46,535.5,46.8 M536.2,44.6c0.1-0.3,0.3-0.6,0.5-0.8c0.2-0.2,0.5-0.4,0.8-0.5
					c0.3-0.1,0.7-0.2,1-0.2c0.3,0,0.7,0.1,1,0.2c0.3,0.1,0.6,0.3,0.8,0.5c0.9,0.9,1,2.5,0,3.4c0,0,0,0,0,0c-0.2,0.2-0.5,0.4-0.8,0.5
					c-0.3,0.1-0.7,0.2-1,0.2c-0.3,0-0.7-0.1-1-0.2c-0.3-0.1-0.6-0.3-0.8-0.5c-0.2-0.2-0.4-0.5-0.5-0.8
					C535.9,45.9,535.9,45.2,536.2,44.6 M545.4,49.6h0.7v-9.1h-0.7V49.6z"/>
				<path class="st0" d="M584.6,107.1c0.2,0.4,0.4,0.7,0.7,1c0.3,0.3,0.7,0.5,1,0.7c0.4,0.2,0.8,0.3,1.3,0.3c0.4,0,0.9-0.1,1.2-0.3
					c0.4-0.2,0.7-0.4,1-0.7c0.3-0.3,0.5-0.6,0.7-1c0.3-0.8,0.3-1.7,0-2.5c-0.2-0.4-0.4-0.7-0.7-1c-0.3-0.3-0.6-0.5-1-0.7
					c-0.4-0.2-0.8-0.3-1.2-0.3c-0.4,0-0.9,0.1-1.3,0.3c-0.4,0.2-0.7,0.4-1,0.7c-0.3,0.3-0.5,0.6-0.7,1
					C584.2,105.4,584.2,106.3,584.6,107.1 M585.3,104.9c0.1-0.3,0.3-0.6,0.5-0.8c0.2-0.2,0.5-0.4,0.8-0.5c0.3-0.1,0.7-0.2,1-0.2
					c0.3,0,0.7,0.1,1,0.2c0.3,0.1,0.6,0.3,0.8,0.5c0.2,0.2,0.4,0.5,0.5,0.8c0.3,0.6,0.3,1.3,0,1.9c-0.1,0.3-0.3,0.6-0.5,0.8
					c-0.2,0.2-0.5,0.4-0.8,0.5c-0.3,0.1-0.7,0.2-1,0.2c-0.3,0-0.7-0.1-1-0.2c-0.3-0.1-0.6-0.3-0.8-0.5c-0.2-0.2-0.4-0.5-0.5-0.8
					C585,106.2,585,105.5,585.3,104.9 M596.3,114.8l-2,0.1c-0.8,0-1.6,0.1-2.4,0.1h-2.4c-0.8,0-1.4,0-2,0v0.8c0.5,0,1.2,0,2,0h2.4
					l2.4-0.1c0.8,0,1.4-0.1,2-0.1L596.3,114.8z M587.6,115.6h0.7v-4.2h-0.7V115.6z M594.4,112.4h0.7v-11.9h-0.7V112.4z M584.1,93.1
					c1.2-1,2.3-2.2,3.2-3.6c0.8-1.4,1.4-2.9,1.8-4.5l-0.8-0.1c-0.2,0.8-0.4,1.5-0.7,2.3c-0.3,0.7-0.6,1.4-1,2
					c-0.4,0.6-0.8,1.2-1.3,1.8c-0.5,0.6-1.1,1.1-1.7,1.7L584.1,93.1z M598.5,88.2h-3.3l-0.4,0.4l0.4,0.4h3.3V88.2z M592.6,92.1
					l-3.9-3.6l-0.5,0.6l0.9,0.8l1,0.9l1,1l0.9,0.9L592.6,92.1z M591.8,84.3l-1.7,0.1l-2.1,0.1H586h-1.7l0.1,0.8h1.7h2l2-0.1l1.7-0.1
					L591.8,84.3z M594.4,97.2h0.7V80.5h-0.7V97.2z M590.5,64.4c-0.9,0.1-1.9,0.1-2.9,0.2s-2,0-2.9,0v0.8h1.4h1.5h1.5l1.4-0.1V64.4z
					 M592,70.7c-1.1,0.4-2.3,0.7-3.5,0.9c-1.3,0.2-2.6,0.3-3.9,0.2v0.7c1.3,0,2.7-0.1,4-0.3c1.2-0.2,2.4-0.5,3.6-0.9L592,70.7z
					 M584.7,72.7l0.7-0.2v-7.3h-0.7V72.7z M594.4,77.2h0.7V60.5h-0.7V77.2z M588.3,44.6c0.2,0.4,0.4,0.7,0.8,0.9
					c0.3,0.2,0.7,0.4,1.1,0.6c0.5,0.1,0.9,0.2,1.4,0.2c0.5,0,0.9-0.1,1.4-0.2c0.4-0.1,0.8-0.3,1.1-0.6c1.2-0.8,1.4-2.4,0.6-3.6
					c-0.2-0.2-0.4-0.4-0.6-0.6c-0.3-0.2-0.7-0.4-1.1-0.6c-0.5-0.1-0.9-0.2-1.4-0.2c-0.5,0-0.9,0.1-1.4,0.2c-0.4,0.1-0.8,0.3-1.1,0.6
					C588.1,42.1,587.7,43.5,588.3,44.6 M589,42.5c0.1-0.3,0.3-0.5,0.6-0.6c0.3-0.2,0.6-0.3,0.9-0.4c0.4-0.1,0.7-0.1,1.1-0.1
					c0.4,0,0.7,0,1.1,0.1c0.3,0.1,0.6,0.2,0.9,0.4c0.3,0.2,0.5,0.4,0.6,0.6c0.1,0.3,0.2,0.6,0.2,0.9c0,0.3-0.1,0.6-0.2,0.9
					c-0.1,0.3-0.4,0.5-0.6,0.6c-0.3,0.2-0.6,0.3-0.9,0.4c-0.4,0.1-0.7,0.1-1.1,0.1c-0.4,0-0.8,0-1.1-0.1c-0.3-0.1-0.6-0.2-0.9-0.4
					c-0.3-0.2-0.5-0.4-0.6-0.6c-0.2-0.3-0.2-0.6-0.2-0.9C588.8,43.1,588.8,42.8,589,42.5 M589.1,48.7c-0.3,0.6-0.7,1.2-1.2,1.7
					c-0.5,0.6-1.1,1.1-1.7,1.4l0.5,0.6c0.3-0.2,0.6-0.4,0.9-0.7c0.3-0.3,0.6-0.6,0.8-0.8c0.3-0.3,0.5-0.6,0.7-0.9
					c0.2-0.3,0.4-0.6,0.6-0.9L589.1,48.7z M594.4,52.4h0.8v-4.8h-0.8V52.4z M595.2,47.3c-1.1,0.1-2.2,0.1-3.3,0.1l-3.3,0.1l-3.3,0.1
					h-3.2l0.1,0.8h3.1l3.3-0.1l3.3-0.1l3.3-0.1L595.2,47.3z M596.1,54.9l-1.8,0.1c-0.7,0-1.4,0.1-2.1,0.1h-2.2c-0.7,0-1.3,0-1.9,0
					v0.8c0.5,0,1.2,0,1.9,0h2.2l2.2-0.1c0.7,0,1.3-0.1,1.8-0.1L596.1,54.9z M588.1,55.9l0.8-0.4v-3.2h-0.8V55.9z"/>
				<path class="st0" d="M618.4,124.8c0.1,0.2,0.2,0.5,0.4,0.7c0.2,0.2,0.4,0.3,0.7,0.4c0.3,0.1,0.5,0.2,0.8,0.2
					c0.3,0,0.5-0.1,0.8-0.2c0.5-0.2,0.9-0.6,1.1-1.1c0.2-0.5,0.2-1.1,0-1.6c-0.2-0.5-0.6-0.9-1.1-1.1c-0.2-0.1-0.5-0.2-0.8-0.2
					c-0.3,0-0.5,0.1-0.8,0.2c-0.2,0.1-0.5,0.3-0.7,0.4c-0.2,0.2-0.3,0.4-0.4,0.7C618.2,123.7,618.2,124.3,618.4,124.8 M621.3,125
					c-0.5,0.5-1.4,0.5-1.9,0c-0.5-0.5-0.5-1.4,0-1.9c0.5-0.5,1.4-0.5,1.9,0C621.8,123.6,621.8,124.4,621.3,125 M613.5,102.1
					c0.3,0.1,0.5,0.2,0.7,0.4c0.2,0.2,0.4,0.4,0.5,0.6c0.3,0.5,0.3,1.1,0,1.6c-0.1,0.2-0.3,0.4-0.5,0.6c-0.2,0.2-0.5,0.3-0.7,0.4
					c-0.3,0.1-0.6,0.1-0.8,0.1c-0.3,0-0.6,0-0.8-0.1c-0.3-0.1-0.5-0.2-0.7-0.4c-0.2-0.2-0.4-0.4-0.5-0.6c-0.3-0.5-0.3-1.1,0-1.6
					c0.1-0.2,0.3-0.4,0.5-0.6c0.2-0.2,0.4-0.3,0.7-0.4c0.3-0.1,0.6-0.1,0.8-0.1C613,101.9,613.2,102,613.5,102.1 M613.8,106.3
					c0.3-0.1,0.7-0.3,0.9-0.5c0.3-0.2,0.5-0.5,0.6-0.8c0.3-0.7,0.3-1.5,0-2.2c-0.2-0.3-0.4-0.6-0.6-0.8c-0.3-0.2-0.6-0.4-0.9-0.5
					c-0.4-0.1-0.7-0.2-1.1-0.2c-0.4,0-0.8,0.1-1.1,0.2c-0.3,0.1-0.7,0.3-0.9,0.5c-0.3,0.2-0.5,0.5-0.6,0.8c-0.3,0.7-0.3,1.5,0,2.2
					c0.2,0.3,0.4,0.6,0.6,0.8c0.3,0.2,0.6,0.4,0.9,0.5c0.4,0.1,0.7,0.2,1.1,0.2C613,106.5,613.4,106.4,613.8,106.3 M611.1,112.3
					c0.1-0.4,0.2-0.7,0.3-1s0.2-0.6,0.2-1s0.1-0.6,0.2-1s0.1-0.7,0.1-1.1l-0.8,0.3c0,0.4-0.1,0.7-0.1,0.9s-0.1,0.6-0.2,0.9
					s-0.1,0.6-0.2,0.8s-0.2,0.6-0.3,0.9L611.1,112.3z M620.8,115.1l-1.9,0.1c-0.7,0-1.5,0.1-2.3,0.1h-2.3c-0.7,0-1.4,0-2,0v0.8
					c0.5,0,1.2,0,1.9,0h2.3l2.3-0.1c0.7,0,1.4-0.1,1.9-0.1L620.8,115.1z M612.4,116.1h0.7v-4h-0.7V116.1z M619.5,110.1h-4.2v0.8h4.2
					V110.1z M616.5,107.4c-0.6,0.1-1.4,0.2-2.2,0.3s-1.6,0.2-2.4,0.2s-1.7,0.1-2.5,0.2s-1.6,0.1-2.2,0.1l0.1,0.8
					c0.7,0,1.4,0,2.2-0.1c0.8,0,1.6-0.1,2.5-0.2s1.7-0.1,2.5-0.2s1.5-0.2,2.2-0.3L616.5,107.4z M618.9,113.2h0.7v-12.7h-0.7V113.2z
					 M617.1,92.1l-3.8-3.6l-0.5,0.6l0.9,0.8l1,0.9l1,1l0.9,0.9L617.1,92.1z M608.6,93c1.2-1,2.3-2.2,3.2-3.6
					c0.8-1.4,1.4-2.9,1.8-4.5l-0.8-0.1c-0.2,0.8-0.4,1.5-0.7,2.3c-0.3,0.7-0.6,1.4-1,2c-0.4,0.6-0.8,1.2-1.3,1.8
					c-0.5,0.6-1.1,1.1-1.7,1.7L608.6,93z M616.2,84.3l-1.7,0.1l-2.1,0.1h-2.1h-1.7l0.1,0.8h1.7h2l2-0.1l1.7-0.1L616.2,84.3z
					 M619,97.2h0.7V80.5H619V97.2z M616.9,69l-3.5-2.9l-0.5,0.6c0.6,0.5,1.1,0.9,1.7,1.4s1.1,1,1.7,1.5L616.9,69z M616.2,62.7
					l-1.6,0.1l-1.9,0.1h-1.9h-1.6l0.1,0.8h1.6l1.9-0.1l1.9-0.1l1.6-0.1L616.2,62.7z M608.9,70.5c1.2-0.8,2.2-1.8,2.9-3
					c0.7-1.3,1.2-2.7,1.5-4.1l-0.8-0.1c-0.1,0.7-0.3,1.4-0.5,2.1c-0.2,0.6-0.5,1.2-0.8,1.7c-0.3,0.5-0.7,1-1.2,1.5
					c-0.5,0.5-1,0.9-1.6,1.3L608.9,70.5z M619,70.5h0.7v-10H619V70.5z M619.7,71.8l-2,0.1l-2.3,0.1l-2.3,0.1h-1.9l0.1,0.8h1.9h2.3
					l2.3-0.1l2-0.1L619.7,71.8z M619,77h0.7v-4.7H619V77z M623,66h-3.3l-0.4,0.3l0.4,0.4h3.3V66z M614.3,51.8l-2.4-3.5l-0.6,0.5
					c0.4,0.6,0.8,1.1,1.2,1.8s0.8,1.2,1.1,1.8L614.3,51.8z M613.9,44.3c-0.9,0.1-1.9,0.1-3,0.1h-3l0.1,0.8h1.4h1.5h1.5l1.4-0.1
					L613.9,44.3z M607.9,52.3c0.5-0.5,1-1.1,1.4-1.7c0.4-0.6,0.8-1.1,1.1-1.8c0.3-0.6,0.6-1.3,0.8-1.9c0.2-0.7,0.4-1.4,0.5-2.2h-0.8
					c-0.4,2.7-1.6,5.2-3.6,7L607.9,52.3z M616.5,47.2h-3.2V48h3.2V47.2z M616,54.8h0.7V41.7H616V54.8z M619,57.2h0.7V40.5H619V57.2z
					"/>
				<path class="st0" d="M672,106.2h-3.3l-0.4,0.4l0.4,0.4h3.3V106.2z M664.3,102.8l-1.6,0.1h-1.5h-1.4h-1.5l0.1,0.8h2.6
					c0.8,0,1.7,0,2.7-0.1L664.3,102.8z M657.9,111.1c0.8-0.5,1.5-1,2.2-1.7c0.7-0.6,1.3-1.3,1.9-2.1c0.6-0.7,1.1-1.5,1.5-2.3
					c0.4-0.7,0.7-1.5,0.9-2.3l-0.9,0.3c-0.2,0.7-0.4,1.4-0.8,2c-0.4,0.7-0.8,1.4-1.3,2c-0.5,0.7-1.1,1.3-1.8,1.9
					c-0.7,0.6-1.4,1.1-2.1,1.6L657.9,111.1z M667.9,112.1h0.7v-11.6h-0.7V112.1z M669.7,114.8l-1.9,0.1c-0.8,0-1.5,0.1-2.3,0.1h-2.3
					c-0.8,0-1.4,0-2,0v0.8c0.5,0,1.2,0,2,0h2.3l2.3-0.1c0.8,0,1.4-0.1,1.9-0.1L669.7,114.8z M661.1,115.6h0.7v-4.3h-0.7V115.6z
					 M663.2,88.7h0.8v-3.9h-0.7L663.2,88.7z M668.8,81.3l-1.9,0.1c-0.7,0-1.5,0-2.2,0.1h-2.2h-1.8l0.1,0.8h1.7h2h2
					c0.7,0,1.2,0,1.7-0.1L668.8,81.3z M668,86.1l0.3-1.2c0.1-0.4,0.1-0.8,0.2-1.1s0.1-0.8,0.1-1.2s0.1-0.8,0.1-1.3l-0.8,0.3
					c0,0.4,0,0.8-0.1,1.1l-0.1,1c0,0.3-0.1,0.7-0.2,1l-0.3,1.1L668,86.1z M655.7,89.2h3.9l4.1-0.1c1.4,0,2.7-0.1,4.1-0.1
					s2.6-0.1,3.8-0.2v-0.8c-1.2,0.1-2.5,0.1-3.8,0.2s-2.7,0.1-4.1,0.1l-4.1,0.1h-3.9L655.7,89.2z M666.2,96.7
					c0.4-0.1,0.8-0.3,1.1-0.6c0.3-0.3,0.6-0.6,0.8-0.9c0.4-0.8,0.4-1.6,0-2.4c-0.2-0.4-0.4-0.7-0.8-0.9c-0.3-0.3-0.7-0.5-1.1-0.6
					c-0.4-0.1-0.9-0.2-1.3-0.2c-0.5,0-0.9,0.1-1.4,0.2c-0.4,0.1-0.8,0.3-1.1,0.6c-0.3,0.3-0.6,0.6-0.7,0.9c-0.4,0.8-0.4,1.6,0,2.4
					c0.2,0.4,0.4,0.7,0.7,0.9c0.3,0.3,0.7,0.5,1.1,0.6c0.4,0.1,0.9,0.2,1.4,0.2C665.3,96.9,665.8,96.8,666.2,96.7 M663.8,96
					c-0.3-0.1-0.6-0.2-0.9-0.4c-0.2-0.2-0.4-0.4-0.6-0.7c-0.3-0.6-0.3-1.3,0-1.8c0.1-0.3,0.3-0.5,0.6-0.7c0.3-0.2,0.6-0.3,0.9-0.4
					c0.3-0.1,0.7-0.2,1.1-0.1c0.3,0,0.7,0.1,1,0.1c0.3,0.1,0.6,0.2,0.9,0.4c0.2,0.2,0.4,0.4,0.6,0.7c0.3,0.6,0.3,1.3,0,1.8
					c-0.1,0.3-0.3,0.5-0.6,0.7c-0.3,0.2-0.6,0.3-0.9,0.4c-0.3,0.1-0.7,0.1-1,0.1C664.5,96.2,664.2,96.1,663.8,96 M657.6,73.1
					c1.2-1,2.3-2.2,3.2-3.6c0.8-1.4,1.4-2.9,1.8-4.5l-0.8-0.1c-0.2,0.8-0.4,1.5-0.7,2.3c-0.3,0.7-0.6,1.4-1,2
					c-0.4,0.6-0.8,1.2-1.3,1.8c-0.5,0.6-1.1,1.1-1.7,1.7L657.6,73.1z M672,68.2h-3.3l-0.4,0.4l0.4,0.4h3.3V68.2z M666.1,72.1
					l-3.9-3.6l-0.5,0.6l0.9,0.8l1,0.9l1,1l0.9,0.9L666.1,72.1z M665.3,64.3l-1.7,0.1l-2.1,0.1h-2.1h-1.7l0.1,0.8h1.7h2l2-0.1
					l1.7-0.1L665.3,64.3z M667.9,77.2h0.7V60.5h-0.7V77.2z M663.9,47.3c0.8-0.5,1-1.5,0.5-2.3c-0.1-0.2-0.3-0.4-0.5-0.5
					c-1.3-0.7-2.9-0.7-4.1,0c-0.8,0.5-1,1.5-0.5,2.3c0.1,0.2,0.3,0.4,0.5,0.5C661.1,48.1,662.7,48.1,663.9,47.3 M663.4,45.1
					c0.5,0.3,0.6,0.9,0.3,1.4c-0.1,0.1-0.2,0.3-0.3,0.3c-1,0.5-2.1,0.5-3.1,0c-0.5-0.3-0.6-0.9-0.3-1.4c0.1-0.1,0.2-0.3,0.3-0.3
					C661.3,44.7,662.4,44.7,663.4,45.1 M664,41c-0.7-0.1-1.4-0.3-2-0.4s-1.3-0.3-2-0.6l-0.2,0.8c0.7,0.2,1.4,0.4,2,0.5
					c0.7,0.1,1.3,0.3,2,0.4L664,41z M665.5,42.3l-1.8,0.1l-2.2,0.1h-2.2h-1.8l0.1,0.8h1.7h2.2l2.2-0.1l1.8-0.1V42.3z M661.5,49.5
					h0.7v-1.4h-0.7V49.5z M666.7,48.5c-0.7,0.1-1.4,0.3-2.3,0.4c-0.9,0.1-1.8,0.2-2.8,0.3s-1.9,0.2-2.8,0.3s-1.7,0.1-2.4,0.1
					l0.1,0.8c0.7,0,1.5-0.1,2.5-0.2s1.9-0.2,2.8-0.3s1.9-0.2,2.8-0.3s1.7-0.2,2.3-0.4L666.7,48.5z M672.1,45.8h-3.3l-0.4,0.4
					l0.4,0.4l3.2,0L672.1,45.8z M669.9,55.5l-1.9,0.1c-0.7,0-1.5,0.1-2.3,0.1h-2.3c-0.8,0-1.4,0-2,0v0.8c0.5,0,1.2,0,2,0h2.3
					l2.3-0.1c0.8,0,1.4-0.1,1.9-0.1L669.9,55.5z M661.4,56.1h0.6v-2.3h-0.7L661.4,56.1z M668.8,53.3c-0.5,0-1.1,0.1-1.8,0.1l-2,0.1
					h-2h-1.7v0.8h1.7h2l2-0.1l1.8-0.1L668.8,53.3z M668,53.6h0.7v-2.3H668V53.6z M668.8,51L667,51l-2,0.1h-2h-1.7l0.1,0.8h1.7h1.9
					l2-0.1l1.8-0.1L668.8,51z M668,50h0.7v-9.5H668V50z"/>
				<path class="st0" d="M691.9,144.8c0.1,0.2,0.2,0.5,0.4,0.7c0.2,0.2,0.4,0.3,0.7,0.4c0.3,0.1,0.5,0.2,0.8,0.2
					c0.3,0,0.5-0.1,0.8-0.2c0.5-0.2,0.9-0.6,1.1-1.1c0.2-0.5,0.2-1.1,0-1.6c-0.2-0.5-0.6-0.9-1.1-1.1c-0.2-0.1-0.5-0.2-0.8-0.2
					c-0.3,0-0.5,0.1-0.8,0.2c-0.2,0.1-0.5,0.3-0.7,0.4c-0.2,0.2-0.3,0.4-0.4,0.7C691.7,143.7,691.7,144.3,691.9,144.8 M694.8,145
					c-0.5,0.5-1.4,0.5-1.9,0c-0.5-0.5-0.5-1.4,0-1.9c0.5-0.5,1.4-0.5,1.9,0C695.3,143.6,695.3,144.4,694.8,145 M686.8,126.9h1.6
					l1.7-0.1l1.6-0.1l1.5-0.1v-0.8l-1.5,0.1l-1.6,0.1l-1.7,0.1h-1.6V126.9z M693.6,129l-1.9,0.1c-0.7,0-1.5,0.1-2.3,0.1h-2.3
					c-0.7,0-1.4,0-2,0v0.8c0.5,0,1.2,0,1.9,0h2.3l2.3-0.1c0.7,0,1.4-0.1,1.9-0.1L693.6,129z M693.4,122.6l-1.8,0.1l-2.3,0.1H687
					h-1.8v0.8h1.8h2.3h2.3c0.7,0,1.3,0,1.8-0.1L693.4,122.6z M685.2,130l0.7-0.2v-6.7h-0.7V130z M680.6,134.5h3.8l3.9-0.1
					c1.3,0,2.6-0.1,3.9-0.1s2.5-0.1,3.7-0.2v-0.8c-1.2,0.1-2.5,0.1-3.8,0.2s-2.6,0.1-3.9,0.1l-4,0.1h-3.8L680.6,134.5z M686.7,111.6
					c0.4-0.2,0.8-0.5,1.1-0.8c0.3-0.3,0.6-0.7,0.7-1.2c0.3-0.9,0.3-1.9,0-2.9c-0.2-0.4-0.4-0.8-0.7-1.2c-0.6-0.7-1.6-1.1-2.5-1.1
					c-1.4,0-2.7,0.9-3.2,2.2c-0.3,0.9-0.3,1.9,0,2.9c0.5,1.4,1.8,2.3,3.2,2.2C685.8,111.9,686.3,111.8,686.7,111.6 M686.4,105.5
					c0.3,0.1,0.6,0.4,0.9,0.6c0.2,0.3,0.4,0.6,0.6,0.9c0.3,0.8,0.3,1.6,0,2.3c-0.1,0.3-0.3,0.7-0.6,0.9c-0.2,0.3-0.5,0.5-0.9,0.6
					c-0.4,0.2-0.7,0.2-1.1,0.2c-0.4,0-0.8-0.1-1.1-0.2c-0.3-0.1-0.6-0.4-0.9-0.6c-0.2-0.3-0.4-0.6-0.5-0.9c-0.3-0.8-0.3-1.6,0-2.3
					c0.1-0.3,0.3-0.7,0.5-0.9c0.2-0.3,0.5-0.5,0.9-0.6c0.4-0.2,0.7-0.2,1.1-0.2C685.7,105.2,686.1,105.3,686.4,105.5 M692.4,117.2
					h0.7v-16.7h-0.7V117.2z M687.4,91.6c-0.5,0.1-1,0.1-1.4,0.2l-1.2,0.1c-0.4,0-0.8,0-1.2,0.1h-1.3v-3.5h-0.7v4.2h1.5
					c0.5,0,1,0,1.4-0.1s1-0.1,1.4-0.1s1-0.1,1.5-0.2L687.4,91.6z M686.5,87.8l-1.3,0.1L684,88c-0.4,0-0.7,0-1.1,0h-1.3v0.8h1.3h1.1
					h1.1l1.3-0.1V87.8z M685.7,88.2h0.7v-3.8h-0.7V88.2z M686.5,84.1l-1.4,0.1h-1.2h-1.2h-1.3l0.1,0.8h1.3h1.1h1.2l1.4-0.1
					L686.5,84.1z M689.9,87.9h-2.7v0.7h2.7V87.9z M689.5,95.2h0.7V81.7h-0.7V95.2z M692.5,97.2h0.7V80.5h-0.7V97.2z M688,67.2h4.8
					v-0.8H688V67.2z M689.6,71.1c-1.1,0.3-2.3,0.5-3.4,0.6c-1.3,0.1-2.5,0.2-3.8,0.2v0.7c1.3,0,2.6-0.1,3.9-0.2
					c1.2-0.1,2.4-0.3,3.6-0.6L689.6,71.1z M682.4,72.7l0.7-0.2v-8.3h-0.7V72.7z M692.4,77.1h0.7V60.5h-0.7V77.1z M687.7,51.8
					l-2.4-3.5l-0.6,0.5c0.4,0.6,0.8,1.1,1.2,1.8s0.8,1.2,1.1,1.8L687.7,51.8z M687.3,44.2c-0.9,0.1-1.9,0.1-3,0.1h-3l0.1,0.8h1.4
					h1.5h1.5l1.4-0.1L687.3,44.2z M681.3,52.3c0.5-0.5,1-1.1,1.5-1.6c0.4-0.6,0.8-1.1,1.1-1.8c0.3-0.6,0.6-1.3,0.8-1.9
					c0.2-0.7,0.4-1.4,0.5-2.2h-0.8c-0.4,2.7-1.6,5.2-3.6,7L681.3,52.3z M689.9,47.2h-3.2V48h3.2L689.9,47.2z M689.4,54.7h0.7V41.7
					h-0.7V54.7z M692.4,57.1h0.7V40.5h-0.7V57.1z"/>
				<path class="st0" d="M740.9,270.8c0.1,0.2,0.2,0.5,0.4,0.7c0.2,0.2,0.4,0.3,0.7,0.4c0.3,0.1,0.5,0.2,0.8,0.2
					c0.3,0,0.5-0.1,0.8-0.2c0.2-0.1,0.5-0.3,0.7-0.4c0.2-0.2,0.3-0.4,0.4-0.7c0.2-0.5,0.2-1.1,0-1.6c-0.1-0.2-0.3-0.5-0.4-0.7
					c-0.2-0.2-0.4-0.3-0.7-0.4c-0.2-0.1-0.5-0.2-0.8-0.2c-0.3,0-0.5,0.1-0.8,0.2c-0.2,0.1-0.5,0.3-0.7,0.4c-0.2,0.2-0.3,0.4-0.4,0.7
					C740.7,269.7,740.7,270.3,740.9,270.8 M743.8,271c-0.2,0.2-0.6,0.4-0.9,0.4c-0.4,0-0.7-0.1-1-0.4c-0.5-0.5-0.5-1.4,0-1.9
					c0.3-0.3,0.6-0.4,1-0.4c0.4,0,0.7,0.1,0.9,0.4C744.3,269.6,744.3,270.4,743.8,271 M737.5,250.4c-0.9,0.1-1.9,0.1-2.9,0.1
					s-2,0-2.9,0v0.8h1.4h1.5l1.5,0l1.4-0.1V250.4z M739.1,256.7c-1.1,0.4-2.3,0.7-3.5,0.9c-1.3,0.2-2.6,0.3-3.9,0.2v0.7
					c1.3,0,2.7-0.1,4-0.3c1.2-0.2,2.4-0.5,3.6-0.9L739.1,256.7z M731.7,258.7l0.7-0.2v-7.3h-0.7V258.7z M745.5,254.4h-3.3l-0.4,0.4
					l0.4,0.4h3.3V254.4z M741.4,263.2h0.7v-16.7h-0.7V263.2z M739.3,236.6c-1.2,0.4-2.4,0.7-3.6,0.9c-1.3,0.2-2.6,0.4-3.9,0.4v0.7
					c1.3-0.1,2.7-0.2,4-0.5c1.3-0.2,2.5-0.5,3.7-0.9L739.3,236.6z M731.8,238.6l0.7-0.2v-8h-0.7V238.6z M741.4,243.2h0.7v-16.7h-0.7
					V243.2z M743.4,211.4l-4.2-2.2l-0.4,0.7l2,1.1l2.1,1.1L743.4,211.4z M733.7,212.2c1.3-0.4,2.6-1.1,3.6-2.1
					c0.9-1,1.6-2.2,1.9-3.6l-0.7-0.2c-0.2,0.6-0.4,1.3-0.7,1.9c-0.3,0.5-0.6,1-1,1.4c-0.4,0.4-0.9,0.8-1.5,1.1
					c-0.6,0.3-1.2,0.6-1.9,0.8L733.7,212.2z M742.2,222.6h-7.4v-0.8h7.4V222.6z M742.2,219.3c-0.5,0-1.1,0-1.7,0.1l-2,0h-2h-1.7
					v-0.8h1.7h2l2-0.1l1.7-0.1L742.2,219.3z M742.2,222.2h-0.7v-5.6h0.7V222.2z M734.8,216.8h0.7v5.4h-0.7V216.8z M729.1,214.3h3.9
					l4.1-0.1c1.4,0,2.7-0.1,4.1-0.1s2.6-0.1,3.8-0.2v0.8c-1.2,0.1-2.5,0.1-3.8,0.2s-2.7,0.1-4.1,0.1l-4.1,0.1h-3.9L729.1,214.3z
					 M730.8,195.7c0.7-0.5,1.3-1,1.8-1.6c0.5-0.6,1-1.2,1.3-1.8c0.4-0.7,0.7-1.4,0.9-2.1c0.3-0.8,0.4-1.6,0.5-2.5l-0.7-0.2
					c-0.1,0.8-0.3,1.6-0.5,2.3c-0.2,0.7-0.5,1.4-0.8,2c-0.4,0.6-0.8,1.2-1.3,1.7c-0.5,0.6-1.1,1.1-1.8,1.5L730.8,195.7z M738.7,200
					l-1.9-1.5l-0.4,0.6l1.7,1.4L738.7,200z M744.4,201.8l-3-2.4l-0.5,0.6l0.7,0.6l0.7,0.6l0.7,0.6l0.8,0.7L744.4,201.8z
					 M732.4,202.2c1.1-0.5,2.1-1.2,2.9-2.2c0.8-1,1.3-2.2,1.5-3.4l-0.8-0.2c-0.2,1.2-0.6,2.3-1.3,3.2c-0.7,0.9-1.7,1.6-2.7,2
					L732.4,202.2z M737.7,202.5c1.1-0.6,2-1.4,2.7-2.5c0.7-1,1.1-2.1,1.3-3.3l-0.8-0.2c-0.2,1.1-0.5,2.2-1.1,3.1
					c-0.6,0.9-1.5,1.7-2.5,2.2L737.7,202.5z M741.8,192.8h-3.6v0.8h3.6V192.8z M738.1,194.8l-2.8-2.6l-0.5,0.6l0.7,0.7l0.6,0.6
					l0.6,0.6c0.2,0.2,0.5,0.5,0.8,0.8L738.1,194.8z M741.8,189.5h-3.6v0.8h3.6V189.5z M741.4,195.5h0.7v-9h-0.7V195.5z M733.3,173.5
					c1.3-0.5,2.6-1.3,3.6-2.3c0.9-0.9,1.6-2.1,2-3.3l-0.8-0.2c-0.4,1.2-1,2.2-1.9,3.1c-0.9,0.9-2.1,1.6-3.3,2L733.3,173.5z
					 M742.3,167.3l-2,0.1l-2.3,0.1h-2.3c-0.7,0-1.4,0-2,0l0.1,0.8h1.9h2.2l2.2-0.1l2-0.1L742.3,167.3z M743,172.6l-4.2-2.5l-0.4,0.7
					c0.7,0.4,1.4,0.8,2.1,1.2l2.1,1.3L743,172.6z M729.1,176.4h3.9l4.1-0.1c1.4,0,2.7-0.1,4.1-0.1s2.6-0.1,3.8-0.2v-0.8
					c-1.2,0.1-2.5,0.1-3.8,0.2s-2.7,0.1-4.1,0.1l-4.1,0.1H729L729.1,176.4z M738.2,182.8h0.8v-7.2h-0.7L738.2,182.8z M732.2,153.6
					c0.2,0.4,0.4,0.7,0.7,1c0.3,0.3,0.6,0.5,1,0.7c0.8,0.3,1.8,0.3,2.6,0c0.4-0.2,0.7-0.4,1-0.7c0.3-0.3,0.5-0.6,0.7-1
					c0.3-0.8,0.3-1.7,0-2.5c-0.2-0.4-0.4-0.7-0.7-1c-0.6-0.6-1.5-0.9-2.3-0.9c-0.4,0-0.9,0.1-1.3,0.2c-0.4,0.2-0.7,0.4-1,0.7
					c-0.3,0.3-0.5,0.6-0.7,1C731.8,151.9,731.8,152.8,732.2,153.6 M732.8,151.4c0.1-0.3,0.3-0.6,0.5-0.8c0.2-0.2,0.5-0.4,0.8-0.5
					c0.6-0.2,1.4-0.2,2,0c0.3,0.1,0.6,0.3,0.8,0.5c0.2,0.2,0.4,0.5,0.5,0.8c0.3,0.6,0.3,1.3,0,1.9c-0.1,0.3-0.3,0.6-0.5,0.8
					c-0.2,0.2-0.5,0.4-0.8,0.5c-0.6,0.2-1.4,0.2-2,0c-0.3-0.1-0.6-0.3-0.8-0.5c-0.2-0.2-0.4-0.5-0.5-0.8
					C732.6,152.7,732.6,152,732.8,151.4 M735,158.8h0.7V156H735V158.8z M741.4,163.2h0.7v-16.7h-0.7V163.2z M740.3,157.7
					c-1,0.2-1.9,0.3-2.8,0.4s-1.7,0.2-2.5,0.3s-1.7,0.1-2.5,0.2s-1.8,0.1-2.8,0.1l0.2,0.8c1,0,1.9-0.1,2.8-0.1s1.7-0.1,2.5-0.2
					l2.5-0.3l2.7-0.4L740.3,157.7z M745.5,154.7h-3.3l-0.4,0.4l0.4,0.4h3.3V154.7z M729.7,140.7h3.8l3.9-0.1c1.3,0,2.6-0.1,3.9-0.1
					s2.5-0.1,3.7-0.2v-0.8c-1.2,0.1-2.5,0.1-3.8,0.2s-2.6,0.1-3.9,0.1l-4,0.1h-3.8L729.7,140.7z M742.7,133.9l-1.9,0.1
					c-0.7,0-1.5,0.1-2.2,0.1h-2.2c-0.7,0-1.4,0-1.9,0v0.8c0.5,0,1.2,0,1.9,0h2.2l2.2-0.1c0.7,0,1.3-0.1,1.9-0.1V133.9z M742.5,128.7
					c-0.3,0-0.7,0.1-1.1,0.1H740h-1.5h-1.5h-2.5v0.8h1.8h2.3l2.3-0.1c0.7,0,1.3,0,1.8-0.1L742.5,128.7z M734.4,134.9l0.7-0.2v-5.4
					h-0.7V134.9z M738.2,140h0.7v-4.4h-0.7V140z M735.8,111.6c0.4-0.2,0.8-0.5,1.1-0.8c0.3-0.3,0.6-0.7,0.7-1.2
					c0.3-0.9,0.3-1.9,0-2.9c-0.2-0.4-0.4-0.8-0.7-1.2c-0.6-0.7-1.6-1.1-2.5-1.1c-1.4,0-2.7,0.9-3.2,2.2c-0.3,0.9-0.3,1.9,0,2.9
					c0.5,1.4,1.8,2.3,3.2,2.2C734.9,111.9,735.4,111.8,735.8,111.6 M735.5,105.5c0.3,0.1,0.6,0.4,0.9,0.6c0.2,0.3,0.4,0.6,0.6,0.9
					c0.3,0.8,0.3,1.6,0,2.3c-0.1,0.3-0.3,0.7-0.6,0.9c-0.2,0.3-0.5,0.5-0.9,0.6c-0.4,0.2-0.7,0.2-1.1,0.2c-0.4,0-0.8-0.1-1.1-0.2
					c-0.3-0.1-0.6-0.4-0.9-0.6c-0.2-0.3-0.4-0.6-0.5-0.9c-0.3-0.8-0.3-1.6,0-2.3c0.1-0.3,0.3-0.7,0.5-0.9c0.2-0.3,0.5-0.5,0.9-0.6
					c0.4-0.2,0.7-0.2,1.1-0.2C734.8,105.3,735.2,105.3,735.5,105.5 M741.5,117.2h0.7v-16.7h-0.7V117.2z M738.6,86.9
					c-0.5,0.1-1,0.2-1.5,0.4s-1.2,0.2-1.8,0.3c-0.6,0.1-1.2,0.1-1.8,0.2s-1.1,0.1-1.6,0.1v0.7c0.5,0,1,0,1.6-0.1s1.2-0.1,1.8-0.2
					s1.2-0.2,1.8-0.3s1.1-0.2,1.6-0.3L738.6,86.9z M731.9,88.2h0.7v-5.7h-0.7V88.2z M734.6,95.8l0.7-0.2V91h-0.7V95.8z M742.2,90.8
					c-0.5,0-1.1,0.1-1.7,0.1h-2.1h-2.1h-1.7l0.1,0.8h1.7h2h2c0.7,0,1.2,0,1.7-0.1L742.2,90.8z M741.5,95.9h0.7v-4.6h-0.7V95.9z
					 M742.2,95.5h-7.6v0.8h7.6V95.5z M741.5,89.3h0.7v-8.9h-0.7V89.3z M743.3,66l-4-2.2l-0.4,0.7l1.9,1.1l2,1.2L743.3,66z
					 M733.7,66.8c1.4-0.5,2.7-1.3,3.8-2.4c1-1.2,1.7-2.6,2-4.1l-0.7-0.2c-0.2,0.7-0.4,1.5-0.8,2.2c-0.3,0.6-0.7,1.1-1.1,1.6
					c-0.4,0.5-1,0.9-1.5,1.2c-0.6,0.4-1.3,0.7-2,0.9L733.7,66.8z M729.2,69.5h3.9l4.1-0.1c1.4,0,2.7-0.1,4.1-0.1s2.6-0.1,3.8-0.2
					v0.8c-1.2,0.1-2.5,0.2-3.8,0.2s-2.7,0.1-4.1,0.1l-4.1,0.1h-3.9L729.2,69.5z M738.3,69.6h0.7v7.1h-0.7L738.3,69.6z M742.3,43.2
					l-2,0.1c-0.8,0-1.6,0-2.4,0.1h-2.4h-1.9l0.1,0.8h1.8h2.2h2.2c0.7,0,1.3,0,1.8-0.1L742.3,43.2z M741.6,50.1
					c0.2-1.2,0.3-2.3,0.5-3.4s0.2-2.3,0.2-3.5l-0.8,0.3c0,1-0.1,2.1-0.2,3.2s-0.3,2.2-0.5,3.3L741.6,50.1z M735.4,54.1l-0.2-5.4
					h-0.8l0.2,5.4L735.4,54.1z M738.4,54h0.7v-5.5h-0.7V54z M729.7,54.7h3.8l3.9-0.1c1.3,0,2.6-0.1,3.9-0.1s2.5-0.1,3.7-0.2v-0.8
					c-1.2,0.1-2.5,0.2-3.8,0.2s-2.6,0.1-3.9,0.1l-4,0.1h-3.8L729.7,54.7z"/>
				<path class="st0" d="M762.8,242.6h0.7v-4.2h-0.7V242.6z M764.4,236.1c0.4-0.1,0.8-0.3,1.1-0.6c0.3-0.2,0.6-0.6,0.8-0.9
					c0.2-0.4,0.3-0.8,0.3-1.2c0-0.4-0.1-0.8-0.3-1.2c-0.2-0.4-0.4-0.7-0.8-0.9c-0.3-0.3-0.7-0.5-1.1-0.6c-0.9-0.3-1.9-0.3-2.8,0
					c-0.4,0.1-0.8,0.3-1.1,0.6c-0.7,0.5-1,1.3-1,2.1c0,0.4,0.1,0.8,0.3,1.2c0.2,0.4,0.4,0.7,0.7,0.9c0.3,0.3,0.7,0.5,1.1,0.6
					C762.5,236.3,763.4,236.3,764.4,236.1 M761,235c-0.9-0.7-1.1-2-0.4-2.9c0.1-0.1,0.2-0.3,0.4-0.4c1.2-0.7,2.8-0.7,4,0
					c0.9,0.7,1.1,2,0.4,2.9c-0.1,0.1-0.2,0.3-0.4,0.4C763.7,235.7,762.2,235.7,761,235 M753.7,238.9h3.9l4.1-0.1
					c1.4,0,2.7-0.1,4.1-0.1s2.6-0.1,3.8-0.2v-0.8c-1.2,0.1-2.5,0.1-3.8,0.2s-2.7,0.1-4.1,0.1l-4.1,0.1h-3.9L753.7,238.9z
					 M767.6,244.4l-2,0.1c-0.8,0-1.6,0.1-2.4,0.1h-2.4c-0.8,0-1.5,0-2,0v0.8c0.5,0,1.2,0,2,0h2.4l2.4-0.1c0.8,0,1.4-0.1,2-0.1
					L767.6,244.4z M758.8,245.4h0.7V241h-0.7V245.4z M761.7,220.9l-2.7-3.4l-0.6,0.5c0.4,0.5,0.9,1.1,1.4,1.7s0.9,1.2,1.3,1.7
					L761.7,220.9z M761,213.8c-0.9,0.1-1.9,0.1-3,0.1h-3l0.1,0.8h1.4h1.5l1.5-0.1l1.4-0.1L761,213.8z M755.1,221.7
					c0.5-0.5,1-1.1,1.4-1.6c0.4-0.5,0.8-1.1,1.1-1.7c0.3-0.6,0.6-1.2,0.8-1.9c0.2-0.7,0.4-1.4,0.5-2.1h-0.8c-0.1,0.7-0.3,1.3-0.5,2
					c-0.2,0.6-0.4,1.2-0.7,1.8c-0.3,0.6-0.6,1.1-1,1.6c-0.4,0.5-0.9,1-1.4,1.5L755.1,221.7z M766.2,217h-3.1v0.8h3.1V217z
					 M762.8,224.6h0.7v-13.5h-0.7V224.6z M766,226.6h0.7v-16.7H766L766,226.6z M755.7,200.1c1.2-0.8,2.2-1.8,3-3
					c0.8-1.3,1.3-2.7,1.5-4.1l-0.8-0.1c-0.1,0.7-0.3,1.4-0.5,2.1c-0.2,0.6-0.5,1.1-0.9,1.7c-0.4,0.5-0.8,1-1.2,1.5
					c-0.5,0.5-1,0.9-1.6,1.3L755.7,200.1z M766.1,195.2h-3.6v0.8h3.6V195.2z M763.3,199.5l-3.2-3.2l-0.5,0.6c0.5,0.5,1,1,1.5,1.5
					l1.6,1.7L763.3,199.5z M762.9,192.3l-1.6,0.1l-1.9,0.1h-1.9h-1.6l0.1,0.8h1.6l1.9-0.1l1.9-0.1l1.6-0.1L762.9,192.3z
					 M767.8,204.2l-2,0.1c-0.8,0-1.6,0.1-2.4,0.1h-2.4c-0.8,0-1.4,0-2,0v0.8c0.5,0,1.2,0,2,0h2.4l2.4-0.1l2-0.1L767.8,204.2z
					 M759.1,205h0.7v-4.3h-0.7V205z M765.9,201.8h0.7v-11.9h-0.7V201.8z M765.8,177.4l0.9,0.7c0.3,0.3,0.6,0.5,0.9,0.8l0.9,0.9
					l0.8,0.8l0.8-0.8l-0.8-0.8l-1-0.8l-1-0.8c-0.3-0.3-0.6-0.5-0.9-0.7L765.8,177.4z M761.6,156.7c-0.7-0.1-1.4-0.3-2-0.4
					s-1.3-0.3-2-0.6l-0.2,0.8c0.7,0.2,1.3,0.4,2,0.5c0.7,0.1,1.3,0.3,2,0.4L761.6,156.7z M756.9,163.8c0.1,0.3,0.3,0.6,0.6,0.8
					c0.3,0.2,0.6,0.4,0.9,0.6c0.4,0.1,0.8,0.2,1.2,0.2c0.4,0,0.8-0.1,1.2-0.2c0.3-0.1,0.6-0.3,0.9-0.6c0.2-0.2,0.4-0.5,0.6-0.8
					c0.3-0.6,0.3-1.4,0-2c-0.1-0.3-0.3-0.6-0.6-0.8c-0.3-0.2-0.6-0.4-0.9-0.5c-0.4-0.1-0.8-0.2-1.2-0.2c-0.4,0-0.8,0.1-1.2,0.2
					c-0.3,0.1-0.6,0.3-0.9,0.5c-0.2,0.2-0.4,0.5-0.6,0.8C756.6,162.4,756.6,163.1,756.9,163.8 M761,164.1c-0.9,0.7-2.2,0.7-3.1,0
					c-0.3-0.3-0.5-0.8-0.5-1.3c0-0.5,0.2-0.9,0.5-1.3c0.9-0.7,2.2-0.7,3.1,0c0.3,0.3,0.5,0.8,0.5,1.3
					C761.6,163.3,761.4,163.8,761,164.1 M763,158.3l-1.8,0.1l-2.1,0.1H757h-1.8l0.1,0.8h1.7h2.1l2.1-0.1l1.8-0.1L763,158.3z
					 M770,161h-3.3l-0.4,0.4l0.4,0.4h3.3V161z M766,165.4h0.7v-10.1H766V165.4z M766.7,166.9l-1.9,0.1l-2.3,0.1l-2.3,0.1h-1.9
					l0.1,0.8h1.9l2.2-0.1l2.3-0.1l1.9-0.1V166.9z M766,171.5h0.7v-4H766V171.5z M760.3,149.7c0.2,0.3,0.4,0.6,0.7,0.9
					c0.3,0.3,0.7,0.4,1.1,0.6c0.4,0.1,0.9,0.2,1.3,0.2c0.5,0,0.9-0.1,1.3-0.2c0.4-0.1,0.8-0.3,1.1-0.6c0.3-0.2,0.5-0.5,0.7-0.9
					c0.4-0.7,0.4-1.5,0-2.2c-0.2-0.3-0.4-0.6-0.7-0.9c-0.3-0.2-0.7-0.4-1.1-0.6c-0.4-0.1-0.9-0.2-1.3-0.2c-0.5,0-0.9,0.1-1.3,0.2
					c-0.4,0.1-0.8,0.3-1.1,0.6c-0.3,0.2-0.6,0.5-0.7,0.9C759.9,148.2,759.9,149.1,760.3,149.7 M760.9,147.8c0.1-0.3,0.3-0.5,0.6-0.6
					c0.3-0.2,0.5-0.3,0.8-0.4c0.7-0.2,1.4-0.2,2.1,0c0.3,0.1,0.6,0.2,0.8,0.4c0.2,0.2,0.4,0.4,0.6,0.6c0.3,0.5,0.3,1.1,0,1.7
					c-0.1,0.3-0.3,0.5-0.6,0.6c-0.3,0.2-0.5,0.3-0.8,0.4c-0.7,0.2-1.4,0.2-2.1,0c-0.3-0.1-0.6-0.2-0.8-0.4c-0.2-0.2-0.4-0.4-0.6-0.6
					C760.7,149,760.7,148.3,760.9,147.8 M762.9,142.8h3.5V142h-3.5V142.8z M762.9,139.6h3.5v-0.8h-3.5V139.6z M762,143.3h-6v0.8h6
					V143.3z M761.6,139.5c-1,0-1.9,0.1-2.8,0.1s-1.9,0.1-2.8,0.1v0.8c0.9,0,1.9,0,2.8-0.1l2.8-0.1V139.5z M762,136.7h-0.7v7.1h0.7
					V136.7z M756,143.8h0.7V137H756V143.8z M766,144.7h0.7v-9.5H766V144.7z M770,121h-3.3l-0.4,0.4l0.4,0.4h3.3V121z M756.2,121.8
					c0.2,0.4,0.4,0.7,0.7,1c0.3,0.3,0.6,0.5,1,0.7c0.4,0.2,0.8,0.3,1.3,0.3c0.4,0,0.9-0.1,1.2-0.3c0.4-0.2,0.7-0.4,1-0.7
					c0.3-0.3,0.5-0.6,0.7-1c0.3-0.8,0.3-1.7,0-2.5c-0.2-0.4-0.4-0.7-0.7-1c-0.3-0.3-0.7-0.5-1-0.7c-0.4-0.2-0.8-0.3-1.2-0.3
					c-0.4,0-0.9,0.1-1.3,0.3c-0.4,0.2-0.7,0.4-1,0.7c-0.3,0.3-0.5,0.6-0.7,1C755.8,120.1,755.8,121,756.2,121.8 M756.8,119.6
					c0.1-0.3,0.3-0.6,0.5-0.8c0.2-0.2,0.5-0.4,0.8-0.5c0.3-0.1,0.7-0.2,1-0.2c0.3,0,0.7,0.1,1,0.2c0.3,0.1,0.6,0.3,0.8,0.5
					c0.2,0.2,0.4,0.5,0.5,0.8c0.3,0.6,0.3,1.3,0,1.9c-0.1,0.3-0.3,0.6-0.5,0.8c-0.2,0.2-0.5,0.4-0.8,0.5c-0.3,0.1-0.7,0.2-1,0.2
					c-0.3,0-0.7-0.1-1-0.2c-0.3-0.1-0.6-0.3-0.8-0.5c-0.2-0.2-0.4-0.5-0.5-0.8C756.6,120.9,756.6,120.2,756.8,119.6 M767.8,129.5
					l-2,0.1c-0.8,0-1.6,0.1-2.4,0.1h-2.4c-0.8,0-1.4,0-2,0v0.8c0.5,0,1.2,0,2,0h2.4l2.4-0.1c0.8,0,1.4-0.1,2-0.1L767.8,129.5z
					 M759.1,130.3h0.7v-4.2h-0.7V130.3z M765.9,127.1h0.7v-11.9h-0.7V127.1z M765.8,102.7l0.9,0.7c0.3,0.3,0.6,0.5,0.9,0.8l0.9,0.9
					l0.8,0.8l0.8-0.8l-0.8-0.8l-1-0.8l-1-0.8c-0.3-0.3-0.6-0.5-0.9-0.7L765.8,102.7z M760.5,82.1c0.3,0.1,0.5,0.2,0.7,0.4
					c0.2,0.2,0.4,0.4,0.5,0.6c0.3,0.5,0.3,1.1,0,1.6c-0.1,0.2-0.3,0.4-0.5,0.6c-0.2,0.2-0.5,0.3-0.7,0.4c-0.3,0.1-0.6,0.1-0.8,0.1
					c-0.3,0-0.6,0-0.8-0.1c-0.3-0.1-0.5-0.2-0.7-0.4c-0.2-0.2-0.4-0.4-0.5-0.6c-0.3-0.5-0.3-1.1,0-1.6c0.1-0.2,0.3-0.4,0.5-0.6
					c0.2-0.2,0.4-0.3,0.7-0.4c0.3-0.1,0.6-0.1,0.8-0.1C760,81.9,760.2,82,760.5,82.1 M760.8,86.3c0.3-0.1,0.7-0.3,0.9-0.5
					c0.3-0.2,0.5-0.5,0.6-0.8c0.3-0.7,0.3-1.5,0-2.2c-0.2-0.3-0.4-0.6-0.6-0.8c-0.3-0.2-0.6-0.4-0.9-0.5c-0.4-0.1-0.7-0.2-1.1-0.2
					c-0.4,0-0.8,0.1-1.1,0.2c-0.3,0.1-0.7,0.3-0.9,0.5c-0.3,0.2-0.5,0.5-0.6,0.8c-0.3,0.7-0.3,1.5,0,2.2c0.2,0.3,0.4,0.6,0.6,0.8
					c0.3,0.2,0.6,0.4,0.9,0.5c0.4,0.1,0.7,0.2,1.1,0.2C760,86.5,760.4,86.4,760.8,86.3 M758.1,92.3c0.1-0.4,0.2-0.7,0.3-1
					s0.2-0.6,0.2-1s0.1-0.6,0.2-1s0.1-0.7,0.1-1.1l-0.8,0.3c0,0.4-0.1,0.7-0.1,0.9s-0.1,0.6-0.2,0.9s-0.1,0.6-0.2,0.8
					s-0.2,0.6-0.3,0.9L758.1,92.3z M767.8,95.1l-1.9,0.1c-0.7,0-1.5,0.1-2.3,0.1h-2.3c-0.7,0-1.4,0-2,0v0.8c0.5,0,1.2,0,1.9,0h2.3
					l2.3-0.1c0.7,0,1.4-0.1,1.9-0.1L767.8,95.1z M759.4,96.1h0.7v-4h-0.7V96.1z M766.5,90.1h-4.2v0.8h4.2V90.1z M763.5,87.4
					c-0.6,0.1-1.4,0.2-2.2,0.3c-0.8,0.1-1.6,0.2-2.4,0.2s-1.7,0.1-2.5,0.2s-1.6,0.1-2.2,0.1l0.1,0.8c0.7,0,1.4,0,2.2-0.1
					c0.8,0,1.6-0.1,2.5-0.2s1.7-0.1,2.5-0.2s1.5-0.2,2.2-0.3L763.5,87.4z M765.9,93.2h0.7V80.5h-0.7V93.2z M761.7,71.5l-2.7-3.4
					l-0.6,0.5c0.4,0.5,0.9,1.1,1.4,1.7s0.9,1.2,1.3,1.7L761.7,71.5z M761,64.3c-0.9,0.1-1.9,0.1-3,0.1s-2,0-3,0l0.1,0.8h1.4h1.5h1.5
					l1.4-0.1L761,64.3z M755.1,72.3c0.5-0.5,1-1.1,1.4-1.6c0.4-0.5,0.8-1.1,1.1-1.7c0.3-0.6,0.6-1.2,0.8-1.9
					c0.2-0.7,0.4-1.4,0.5-2.2h-0.8c-0.1,0.7-0.3,1.3-0.5,2c-0.2,0.6-0.4,1.2-0.7,1.8c-0.3,0.6-0.6,1.1-1,1.6c-0.4,0.5-0.9,1-1.4,1.5
					L755.1,72.3z M766.2,67.6h-3.1v0.8h3.1V67.6z M762.8,75.1h0.7V61.7h-0.7V75.1z M766,77.1h0.7V60.5H766L766,77.1z M755.5,50
					c0.7-0.5,1.3-1.1,1.9-1.7c0.5-0.6,1-1.2,1.4-1.8c0.4-0.7,0.7-1.4,0.9-2.1c0.2-0.8,0.4-1.7,0.5-2.5l-0.7-0.2
					c-0.1,0.8-0.3,1.6-0.5,2.4c-0.2,0.7-0.5,1.4-0.8,2c-0.4,0.6-0.8,1.2-1.3,1.7c-0.6,0.6-1.2,1.1-1.8,1.6L755.5,50z M766.3,44.6
					h-3.7v0.8h3.7V44.6z M763.2,48.8l-3-2.7l-0.5,0.6l0.8,0.7l0.7,0.6l0.7,0.7l0.8,0.8L763.2,48.8z M765.9,50.1h0.7v-9.6h-0.7V50.1z
					 M766.7,51.6l-1.9,0.1l-2.3,0.1h-2.3h-1.9l0.1,0.8h1.9l2.2-0.1l2.3-0.1l1.9-0.1V51.6z M765.9,56.7h0.7v-4.6h-0.7V56.7z"/>
				<path class="st0" d="M779.5,227.8c0.1,0.4,0.4,0.8,0.6,1.1c0.3,0.3,0.6,0.5,1,0.7c0.4,0.2,0.8,0.3,1.2,0.2
					c0.4,0,0.8-0.1,1.2-0.2c0.4-0.2,0.7-0.4,1-0.7c0.3-0.3,0.5-0.7,0.6-1.1c0.3-0.9,0.3-1.9,0-2.9c-0.1-0.4-0.4-0.8-0.6-1.1
					c-0.3-0.3-0.6-0.6-1-0.7c-0.4-0.2-0.8-0.3-1.2-0.2c-0.4,0-0.8,0.1-1.2,0.2c-0.4,0.2-0.7,0.4-1,0.7c-0.3,0.3-0.5,0.7-0.6,1.1
					C779.2,225.9,779.2,226.9,779.5,227.8 M780.7,224.4c0.8-0.9,2.2-1,3.1-0.2c0.1,0.1,0.1,0.1,0.2,0.2c0.9,1.2,0.9,2.8,0,4.1
					c-0.8,0.9-2.2,1-3.1,0.2c-0.1-0.1-0.1-0.1-0.2-0.2C779.8,227.2,779.8,225.6,780.7,224.4 M788.1,225.9h-2.3v0.8h2.3V225.9z
					 M787.6,233.2h0.7v-13.5h-0.7V233.2z M790.5,235.2h0.7v-16.7h-0.7V235.2z M779.8,210.7c1.4-1,2.6-2.4,3.3-3.9
					c0.8-1.7,1.3-3.4,1.5-5.3l-0.8-0.1c-0.1,1.7-0.6,3.4-1.3,5c-0.7,1.5-1.8,2.8-3.2,3.7L779.8,210.7z M794.5,206h-3.3l-0.4,0.4
					l0.4,0.4h3.3V206z M787.9,210l-3.3-4l-0.6,0.5l1.6,1.9c0.6,0.7,1.1,1.4,1.6,2.1L787.9,210z M790.4,215.2h0.7v-16.7h-0.7V215.2z
					 M780.3,187.5c1.2-0.8,2.3-2,3-3.3c0.7-1.4,1.2-2.8,1.4-4.4l-0.7-0.2c-0.1,0.7-0.3,1.5-0.5,2.2c-0.2,0.7-0.5,1.3-0.8,1.9
					c-0.3,0.6-0.7,1.1-1.2,1.6c-0.5,0.5-1,1-1.7,1.4L780.3,187.5z M788.2,186.5l-3.2-3l-0.5,0.6l1.5,1.4c0.5,0.5,1,1,1.6,1.6
					L788.2,186.5z M783.6,193.9l0.7-0.2v-4.3h-0.7V193.9z M791.2,189.3c-0.5,0-1.1,0-1.7,0.1h-2.1h-2.1h-1.7l0.1,0.8h1.7h2h2
					c0.7,0,1.2,0,1.7-0.1L791.2,189.3z M790.4,194h0.7v-4.4h-0.7V194z M791.2,193.6h-7.6v0.8h7.6V193.6z M790.4,187.8h0.7v-9.2h-0.7
					V187.8z M780.6,159.9l0.7-0.2v-4.9h-0.7V159.9z M786.5,154.7c-0.9,0.1-1.9,0.1-3,0.1h-3l0.1,0.8h2.9c1,0,2,0,3-0.1L786.5,154.7z
					 M785.8,160h0.7v-4.8h-0.7V160z M786.5,159.6h-5.9v0.8h5.9V159.6z M790.4,161h0.7v-8.5h-0.7V161z M792.1,168l-4.5-1.8l-0.2,0.7
					l2.1,0.9c0.7,0.3,1.5,0.6,2.2,1L792.1,168z M782.5,168.8c1.2-0.3,2.3-0.8,3.3-1.4c0.4-0.3,0.8-0.6,1.1-1c0.4-0.5,0.8-1.1,1-1.7
					l-0.8-0.2c-0.2,0.5-0.4,0.9-0.8,1.4c-0.3,0.4-0.7,0.7-1.1,1c-0.4,0.3-0.9,0.5-1.3,0.7c-0.5,0.2-1.1,0.4-1.7,0.5L782.5,168.8z
					 M789.5,162.3c-0.8,0-1.5-0.1-2.2-0.2s-1.5-0.2-2.2-0.3l-0.1,0.9c0.7,0.1,1.5,0.2,2.2,0.3s1.5,0.1,2.2,0.2L789.5,162.3z
					 M791.2,164.2l-1.9,0.1l-2.2,0.1l-2.2,0.1H783l0.1,0.8h1.8l2.2-0.1l2.2-0.1l1.9-0.1L791.2,164.2z M778.7,140.7h3.8l3.9-0.1
					c1.3,0,2.6-0.1,3.9-0.1s2.5-0.1,3.7-0.2v-0.8c-1.2,0.1-2.5,0.1-3.8,0.2s-2.6,0.1-3.9,0.1l-4,0.1h-3.8L778.7,140.7z M791.7,133.9
					l-1.9,0.1c-0.7,0-1.5,0.1-2.2,0.1h-2.2c-0.7,0-1.4,0-1.9,0v0.8c0.5,0,1.2,0,1.9,0h2.2l2.2-0.1c0.7,0,1.3-0.1,1.9-0.1V133.9z
					 M791.5,128.7c-0.3,0-0.7,0.1-1.1,0.1H789h-1.5h-1.5h-2.5v0.8h1.8h2.3l2.3-0.1c0.7,0,1.3,0,1.8-0.1L791.5,128.7z M783.4,134.9
					l0.7-0.2v-5.4h-0.7V134.9z M787.2,140h0.7v-4.4h-0.7V140z M788.6,118.1l-3.8-3.6l-0.5,0.6l0.9,0.8l1,0.9l1,1l0.9,0.9
					L788.6,118.1z M780.1,119.1c1.2-1,2.3-2.2,3.2-3.6c0.8-1.4,1.4-2.9,1.8-4.5l-0.8-0.1c-0.2,0.8-0.4,1.5-0.7,2.3
					c-0.3,0.7-0.6,1.4-1,2c-0.4,0.6-0.8,1.2-1.3,1.8c-0.5,0.6-1.1,1.1-1.7,1.7L780.1,119.1z M787.8,110.3l-1.7,0.1l-2.1,0.1H782
					h-1.7l0.1,0.8h1.7h2l2-0.1l1.7-0.1L787.8,110.3z M790.5,123.2h0.7v-16.7h-0.7V123.2z M791.3,83.3l-2,0.1c-0.8,0-1.6,0-2.4,0.1
					h-2.4h-1.9l0.1,0.8h1.8h2.2h2.2c0.7,0,1.3,0,1.8-0.1L791.3,83.3z M790.2,90.4c0.1-0.5,0.3-1.1,0.4-1.7s0.2-1.2,0.3-1.8
					s0.2-1.2,0.3-1.9s0.1-1.2,0.2-1.8l-0.8,0.3c0,0.5-0.1,1-0.1,1.6s-0.2,1.2-0.2,1.8s-0.2,1.2-0.3,1.8s-0.2,1.1-0.4,1.6L790.2,90.4
					z M778.7,94.7h3.8l3.9-0.1c1.3,0,2.6-0.1,3.9-0.1s2.5-0.1,3.7-0.2v-0.8c-1.2,0.1-2.5,0.1-3.8,0.2s-2.6,0.1-3.9,0.1l-4,0.1h-3.8
					L778.7,94.7z M785.3,94.2h0.7v-6.1h-0.7V94.2z M788,71.8c-0.5,0.1-1.1,0.2-1.7,0.2l-1.8,0.2l-1.8,0.2c-0.6,0-1.2,0.1-1.7,0.1
					v-3.9h-0.7v4.7c0.5,0,1.2,0,1.8-0.1l2.1-0.2c0.7-0.1,1.4-0.1,2.1-0.2s1.3-0.2,1.8-0.2L788,71.8z M790.5,77.2h0.7V60.5h-0.7V77.2
					z M786.8,67.9c-1.1,0.1-2.2,0.2-3.3,0.2l-3.3,0.1v0.8h1.6h1.7l1.7-0.1c0.6,0,1.1,0,1.6-0.1V67.9z M786.1,68.3h0.7v-4h-0.7V68.3z
					 M786.8,63.9c-1.1,0.1-2.2,0.1-3.4,0.1h-3.3l0.1,0.8l3.3-0.1c1.2,0,2.3,0,3.4-0.1V63.9z M791.3,43.4l-1.9,0.1
					c-0.7,0-1.5,0-2.3,0.1h-2.3h-2l0.1,0.8h1.9h2.1h2c0.7,0,1.2,0,1.8-0.1L791.3,43.4z M790,52.2c0.1-0.6,0.3-1.3,0.4-2
					c0.1-0.7,0.3-1.5,0.4-2.2c0.1-0.8,0.2-1.5,0.3-2.3s0.1-1.5,0.2-2.2l-0.8,0.3c0,0.6-0.1,1.3-0.1,2s-0.2,1.5-0.3,2.2
					s-0.2,1.5-0.4,2.2s-0.3,1.4-0.4,2L790,52.2z M778.7,54.7h3.8l3.9-0.1c1.3,0,2.6-0.1,3.9-0.1s2.5-0.1,3.7-0.2v-0.8
					c-1.2,0.1-2.5,0.2-3.8,0.2s-2.6,0.1-3.9,0.1l-4,0.1h-3.8L778.7,54.7z"/>
				<path class="st0" d="M838.9,236.8c0.1,0.2,0.2,0.5,0.4,0.7c0.2,0.2,0.4,0.3,0.7,0.4c0.3,0.1,0.5,0.2,0.8,0.2
					c0.3,0,0.5-0.1,0.8-0.2c0.5-0.2,0.9-0.6,1.1-1.1c0.2-0.5,0.2-1.1,0-1.6c-0.2-0.5-0.6-0.9-1.1-1.1c-0.2-0.1-0.5-0.2-0.8-0.2
					c-0.3,0-0.5,0.1-0.8,0.2c-0.2,0.1-0.5,0.3-0.7,0.4c-0.2,0.2-0.3,0.4-0.4,0.7C838.7,235.7,838.7,236.3,838.9,236.8 M841.8,237
					c-0.5,0.5-1.4,0.5-1.9,0c-0.5-0.5-0.5-1.4,0-1.9c0.5-0.5,1.4-0.5,1.9,0C842.3,235.6,842.3,236.4,841.8,237 M836.5,219
					c-0.5,0.1-1,0.2-1.5,0.4s-1.2,0.2-1.8,0.3s-1.2,0.1-1.8,0.2s-1.1,0.1-1.6,0.1v0.7c0.5,0,1,0,1.6-0.1s1.2-0.1,1.8-0.2
					s1.2-0.2,1.8-0.3s1.1-0.2,1.6-0.3L836.5,219z M829.9,220.2h0.7v-5.7h-0.7V220.2z M832.6,227.9l0.7-0.2V223h-0.7V227.9z
					 M840.2,222.9c-0.5,0-1.1,0-1.7,0.1h-2.1h-2.1h-1.7l0.1,0.8h1.7h2h2c0.7,0,1.2,0,1.7-0.1L840.2,222.9z M839.4,228h0.7v-4.6h-0.7
					V228z M840.2,227.6h-7.6v0.8h7.6V227.6z M839.4,221.4h0.7v-8.9h-0.7V221.4z M833.7,199.4l-1.2,0.1l-1.1,0.1h-1.1h-1.2v0.8h1.2
					h1.1l1.1-0.1l1.2-0.1V199.4z M839.9,199.7h-3.2v0.8h3.2V199.7z M836.2,207.2h0.8v-13.5h-0.7L836.2,207.2z M839.4,209.2h0.7
					v-16.7h-0.7V209.2z M834.1,203.3h-5.3v0.8h5.3V203.3z M834.1,196.1h-0.7v7.6h0.7V196.1z M828.8,203.8h0.7v-7.3h-0.7V203.8z
					 M828.8,182.4c1.3-1,2.5-2.3,3.3-3.7c0.8-1.5,1.3-3.2,1.5-4.9l-0.7-0.1c-0.1,0.8-0.3,1.7-0.5,2.5c-0.2,0.7-0.5,1.5-0.9,2.1
					c-0.4,0.7-0.8,1.3-1.3,1.9c-0.5,0.6-1.1,1.2-1.8,1.6L828.8,182.4z M837,181.4l-3.2-3.4l-0.5,0.5c0.5,0.5,1,1.1,1.6,1.6l1.6,1.7
					L837,181.4z M841.2,186.8l-2,0.1c-0.8,0-1.6,0.1-2.4,0.1h-2.4c-0.8,0-1.4,0-2,0v0.8c0.5,0,1.2,0,2,0h2.4l2.4-0.1
					c0.8,0,1.4-0.1,2-0.1L841.2,186.8z M839.8,176.7h-3.7v0.8h3.7V176.7z M832.5,187.7h0.7v-4.3h-0.7V187.7z M839.4,184.4h0.7v-11.9
					h-0.7V184.4z M838.3,157.7c-0.9,0.1-1.8,0.3-2.6,0.4s-1.7,0.2-2.5,0.3s-1.7,0.2-2.6,0.2l-2.8,0.1l0.2,0.8c1,0,1.9-0.1,2.8-0.1
					s1.7-0.1,2.6-0.2l2.5-0.3c0.8-0.1,1.7-0.2,2.6-0.4L838.3,157.7z M836.5,149.7c-1.1,0.1-2.3,0.1-3.5,0.2s-2.4,0.1-3.5,0.1
					l0.1,0.8c1,0,2,0,3.1,0s2.1-0.1,3.1-0.1L836.5,149.7z M835.5,156c0.3-1,0.5-2,0.7-3.1s0.3-2.1,0.4-3.3l-0.8,0.3
					c-0.1,0.9-0.2,1.9-0.4,2.9s-0.4,2-0.7,2.9L835.5,156z M831.5,158.7h0.7v-4.5h-0.7V158.7z M843.5,156h-3.3l-0.4,0.4l0.4,0.4h3.3
					V156z M839.4,163.1h0.7v-16.6h-0.7V163.1z M836.5,132.9c-0.5,0.1-1,0.2-1.5,0.4s-1.2,0.2-1.8,0.3s-1.2,0.1-1.8,0.2
					s-1.1,0.1-1.6,0.1v0.7c0.5,0,1,0,1.6-0.1s1.2-0.1,1.8-0.2s1.2-0.2,1.8-0.3s1.1-0.2,1.6-0.3L836.5,132.9z M829.8,134.2h0.7v-5.7
					h-0.7V134.2z M832.5,141.8l0.7-0.2V137h-0.7V141.8z M840.1,136.8c-0.5,0-1.1,0.1-1.7,0.1h-2.1h-2.1h-1.7l0.1,0.8h1.7h2h2
					c0.7,0,1.2,0,1.7-0.1L840.1,136.8z M839.4,141.9h0.7v-4.6h-0.7V141.9z M840.1,141.4h-7.6v0.8h7.6V141.4z M839.4,135.3h0.7v-8.9
					h-0.7V135.3z M833.7,120.8c0.2,0.3,0.4,0.7,0.7,0.9c0.3,0.3,0.7,0.5,1.1,0.6c0.4,0.1,0.9,0.2,1.3,0.2c0.5,0,0.9-0.1,1.3-0.2
					c0.4-0.1,0.7-0.3,1.1-0.6c0.3-0.3,0.5-0.6,0.7-0.9c0.3-0.7,0.3-1.6,0-2.3c-0.2-0.4-0.4-0.7-0.7-0.9c-0.3-0.3-0.7-0.5-1.1-0.6
					c-0.4-0.1-0.9-0.2-1.3-0.2c-0.5,0-0.9,0.1-1.3,0.2c-0.4,0.1-0.7,0.3-1.1,0.6c-0.3,0.3-0.5,0.6-0.7,0.9
					C833.4,119.3,833.4,120.1,833.7,120.8 M834.4,118.8c0.1-0.3,0.3-0.5,0.5-0.7c0.2-0.2,0.5-0.3,0.8-0.4c0.7-0.2,1.4-0.2,2.1,0
					c0.3,0.1,0.6,0.2,0.8,0.4c0.2,0.2,0.4,0.4,0.5,0.7c0.3,0.6,0.3,1.2,0,1.8c-0.1,0.3-0.3,0.5-0.5,0.7c-0.2,0.2-0.5,0.3-0.8,0.4
					c-0.7,0.2-1.4,0.2-2.1,0c-0.3-0.1-0.6-0.2-0.8-0.4c-0.2-0.2-0.4-0.4-0.5-0.7C834.1,120,834.1,119.4,834.4,118.8 M835.3,115.3
					l-2.5-2.8l-0.5,0.5c0.4,0.5,0.8,0.9,1.2,1.4l1.2,1.4L835.3,115.3z M828.5,116.2c0.6-0.5,1.2-1,1.8-1.6c0.5-0.5,0.9-1.1,1.2-1.7
					c0.3-0.6,0.5-1.3,0.7-2c0.2-0.8,0.3-1.6,0.3-2.4l-0.8-0.1c0,0.8-0.1,1.5-0.3,2.3c-0.1,0.6-0.3,1.3-0.6,1.9
					c-0.3,0.6-0.7,1.1-1.1,1.6c-0.5,0.5-1.1,1-1.7,1.5L828.5,116.2z M839.9,111.2h-3.3v0.8h3.3V111.2z M836.2,115.7h0.7v-8h-0.7
					V115.7z M839.5,116.2h0.7v-9.6h-0.7V116.2z M828.9,96.4c1.3-1,2.4-2.3,3.2-3.7c0.8-1.5,1.3-3.2,1.5-4.9l-0.7-0.1
					c-0.1,0.8-0.3,1.7-0.5,2.5c-0.2,0.7-0.5,1.5-0.9,2.1c-0.4,0.7-0.8,1.3-1.3,1.9c-0.5,0.6-1.1,1.2-1.8,1.6L828.9,96.4z
					 M837.1,95.4l-3.2-3.4l-0.5,0.5c0.5,0.5,1,1.1,1.6,1.6l1.6,1.7L837.1,95.4z M841.3,100.8l-2,0.1c-0.8,0-1.6,0.1-2.4,0.1h-2.4
					c-0.8,0-1.4,0-2,0v0.8c0.5,0,1.2,0,2,0h2.4l2.4-0.1c0.8,0,1.4-0.1,2-0.1L841.3,100.8z M839.8,90.7h-3.7v0.8h3.7V90.7z
					 M832.5,101.7h0.7v-4.3h-0.7V101.7z M839.4,98.4h0.7V86.5h-0.7V98.4z M836.5,68.4h3.3v-0.8h-3.3V68.4z M836.8,72
					c-0.5,0.1-1.1,0.2-1.7,0.2l-1.8,0.2l-1.8,0.2c-0.6,0.1-1.1,0.1-1.7,0.1v-4h-0.7v4.8c0.5,0,1.2,0,1.8-0.1l2-0.2
					c0.7-0.1,1.3-0.1,2-0.2c0.7-0.1,1.3-0.2,1.8-0.2L836.8,72z M839.4,77.2h0.7V60.5h-0.7V77.2z M835.5,68c-1.1,0.1-2.1,0.2-3.2,0.2
					l-3.2,0.1V69c1,0,2.1,0,3.2-0.1s2.2-0.1,3.2-0.2V68z M834.8,68.4h0.7v-4.2h-0.7V68.4z M835.5,63.9c-1.1,0.1-2.2,0.1-3.3,0.1H829
					l0.1,0.8l3.2-0.1c1.1,0,2.2,0,3.3-0.1L835.5,63.9z M829,49.7c0.2,0.4,0.4,0.8,0.7,1.2c0.3,0.3,0.7,0.6,1.1,0.8
					c0.4,0.2,0.9,0.3,1.3,0.3c0.5,0,0.9-0.1,1.3-0.3c0.4-0.2,0.8-0.5,1.1-0.8c0.3-0.3,0.5-0.7,0.7-1.2c0.4-0.9,0.4-2,0-2.9
					c-0.2-0.4-0.4-0.8-0.7-1.2c-0.3-0.3-0.7-0.6-1.1-0.8c-0.4-0.2-0.9-0.3-1.3-0.3c-0.5,0-0.9,0.1-1.3,0.3c-0.4,0.2-0.8,0.5-1.1,0.8
					C828.7,46.7,828.4,48.3,829,49.7 M829.7,47c0.1-0.4,0.3-0.7,0.6-0.9c0.2-0.3,0.5-0.5,0.8-0.6c0.3-0.2,0.7-0.2,1.1-0.2
					c0.7,0,1.4,0.3,1.9,0.9c0.3,0.3,0.4,0.6,0.6,0.9c0.3,0.8,0.3,1.6,0,2.4c-0.1,0.4-0.3,0.7-0.6,1c-0.5,0.5-1.2,0.9-1.9,0.9
					c-0.4,0-0.7-0.1-1.1-0.2c-0.3-0.1-0.6-0.4-0.8-0.6c-0.3-0.3-0.4-0.6-0.6-1C829.4,48.6,829.4,47.8,829.7,47 M839.9,45.6h-3.5v0.8
					h3.5V45.6z M839.9,50.1h-3.5v0.8h3.5V50.1z M839.4,57.1h0.7V40.5h-0.7V57.1z"/>
				<path class="st0" d="M865.2,260.5l-1.9,0.1c-0.7,0-1.4,0.1-2.2,0.1H859c-0.7,0-1.3,0-1.9,0v0.8c0.5,0,1.2,0,1.9,0h2.2l2.2-0.1
					c0.7,0,1.3-0.1,1.9-0.1V260.5z M864.7,256.5l-1.7,0.1l-2.1,0.1h-2.1H857v0.8h1.7h2.1l2.1,0l1.7-0.1L864.7,256.5z M857.1,261.5
					l0.7-0.2v-4h-0.7V261.5z M851.7,264.8h3.9l4.1-0.1l4.1-0.1c1.3-0.1,2.6-0.1,3.8-0.2v-0.8c-1.2,0.1-2.5,0.1-3.8,0.2l-4.1,0.1
					l-4.1,0.1h-3.9L851.7,264.8z M862.3,272.1c0.4-0.1,0.8-0.3,1.1-0.6c0.3-0.2,0.6-0.5,0.8-0.9c0.2-0.4,0.3-0.8,0.3-1.2
					c0-0.4-0.1-0.8-0.3-1.2c-0.2-0.3-0.4-0.6-0.8-0.9c-0.3-0.3-0.7-0.5-1.1-0.6c-0.9-0.3-1.9-0.3-2.8,0c-0.4,0.1-0.8,0.3-1.1,0.6
					c-0.3,0.2-0.6,0.5-0.7,0.9c-0.2,0.4-0.3,0.8-0.3,1.2c0,0.4,0.1,0.8,0.3,1.2c0.2,0.3,0.4,0.7,0.7,0.9c0.3,0.3,0.7,0.5,1.1,0.6
					C860.4,272.3,861.4,272.3,862.3,272.1 M862,267.4c0.3,0.1,0.6,0.2,0.9,0.4c0.5,0.4,0.8,1,0.8,1.6c0,0.3-0.1,0.6-0.2,0.9
					c-0.1,0.3-0.3,0.5-0.6,0.7c-0.3,0.2-0.6,0.3-0.9,0.4c-0.7,0.2-1.5,0.2-2.2,0c-0.3-0.1-0.6-0.2-0.9-0.4c-0.2-0.2-0.4-0.4-0.6-0.7
					c-0.1-0.3-0.2-0.6-0.2-0.9c0-0.3,0.1-0.6,0.2-0.9c0.1-0.3,0.3-0.5,0.6-0.7c0.3-0.2,0.6-0.3,0.9-0.4
					C860.5,267.2,861.2,267.2,862,267.4 M864.5,236.3h-3.4v0.8h3.4V236.3z M864.5,232.8h-3.4v0.8h3.4V232.8z M858.6,244.3
					c0.2,0.4,0.4,0.7,0.7,1c0.3,0.3,0.6,0.5,1,0.6c0.4,0.2,0.8,0.2,1.2,0.2c0.4,0,0.9-0.1,1.2-0.2c0.4-0.1,0.7-0.4,1-0.6
					c0.3-0.3,0.5-0.6,0.7-1c0.3-0.8,0.3-1.6,0-2.4c-0.2-0.4-0.4-0.7-0.7-1c-0.3-0.3-0.6-0.5-1-0.6c-0.4-0.2-0.8-0.2-1.2-0.2
					c-0.4,0-0.9,0.1-1.2,0.2c-0.4,0.1-0.7,0.4-1,0.6c-0.3,0.3-0.5,0.6-0.7,1C858.2,242.7,858.2,243.5,858.6,244.3 M863.9,244
					c-0.3,0.6-0.7,1-1.3,1.2c-0.3,0.1-0.7,0.2-1,0.2c-0.3,0-0.7-0.1-1-0.2c-0.3-0.1-0.6-0.3-0.8-0.5c-0.2-0.2-0.4-0.5-0.5-0.7
					c-0.3-0.6-0.3-1.2,0-1.8c0.1-0.3,0.3-0.5,0.5-0.7c0.2-0.2,0.5-0.4,0.8-0.5c0.3-0.1,0.7-0.2,1-0.2c0.3,0,0.7,0.1,1,0.2
					c1.2,0.4,1.8,1.6,1.4,2.8C863.9,243.8,863.9,243.9,863.9,244 M854,236.2c0.2,0.4,0.4,0.7,0.7,1c0.3,0.3,0.6,0.5,1,0.7
					c0.4,0.2,0.8,0.3,1.2,0.3c0.4,0,0.8-0.1,1.2-0.3c0.4-0.2,0.7-0.4,1-0.7c0.3-0.3,0.5-0.6,0.7-1c0.3-0.8,0.3-1.7,0-2.4
					c-0.2-0.4-0.4-0.7-0.7-1c-0.3-0.3-0.6-0.5-1-0.7c-0.4-0.2-0.8-0.3-1.2-0.3c-0.4,0-0.9,0.1-1.2,0.3c-0.4,0.2-0.7,0.4-1,0.7
					c-0.3,0.3-0.5,0.6-0.7,1C853.7,234.6,853.7,235.4,854,236.2 M854.7,234.1c0.1-0.3,0.3-0.6,0.5-0.8c0.2-0.2,0.5-0.4,0.8-0.5
					c0.3-0.1,0.7-0.2,1-0.2c0.3,0,0.7,0.1,1,0.2c0.3,0.1,0.6,0.3,0.8,0.5c0.9,0.9,1,2.5,0,3.4c0,0,0,0,0,0c-0.2,0.2-0.5,0.4-0.8,0.5
					c-0.3,0.1-0.7,0.2-1,0.2c-0.3,0-0.7-0.1-1-0.2c-0.3-0.1-0.6-0.3-0.8-0.5c-0.2-0.2-0.4-0.5-0.5-0.8
					C854.4,235.3,854.4,234.7,854.7,234.1 M863.9,239.1h0.7v-9.1h-0.7V239.1z M865.7,215.4l-4-2.2l-0.4,0.7l1.9,1.1l2,1.2
					L865.7,215.4z M856.1,216.3c1.4-0.5,2.7-1.3,3.8-2.4c1-1.2,1.7-2.6,2-4.1l-0.7-0.2c-0.2,0.7-0.4,1.5-0.8,2.2
					c-0.3,0.6-0.7,1.1-1.1,1.6c-0.4,0.5-1,0.9-1.5,1.2c-0.6,0.4-1.3,0.7-2,0.9L856.1,216.3z M851.6,218.9h3.9l4.1-0.1
					c1.4,0,2.7-0.1,4.1-0.1s2.6-0.1,3.8-0.2v0.8c-1.2,0.1-2.5,0.1-3.8,0.2s-2.7,0.1-4.1,0.1l-4.1,0.1h-3.9L851.6,218.9z
					 M860.7,219.1h0.7v7.1h-0.7V219.1z M854,199.8c1.2-0.8,2.2-1.8,2.9-3c0.7-1.2,1.2-2.6,1.4-4l-0.8-0.1c-0.1,0.7-0.3,1.3-0.5,2
					c-0.2,0.6-0.5,1.2-0.8,1.7c-0.3,0.5-0.7,1-1.2,1.4c-0.5,0.5-1,0.9-1.6,1.3L854,199.8z M861.3,198.2l-3.2-2.6l-0.5,0.6l1.5,1.2
					c0.5,0.4,1,0.9,1.6,1.4L861.3,198.2z M858.6,204.2c0.2,0.4,0.4,0.7,0.7,0.9c0.3,0.3,0.6,0.5,1,0.6c0.4,0.2,0.8,0.2,1.2,0.2
					c0.4,0,0.9-0.1,1.2-0.2c0.4-0.2,0.7-0.4,1-0.6c0.3-0.3,0.5-0.6,0.7-0.9c0.3-0.8,0.3-1.6,0-2.4c-0.2-0.4-0.4-0.7-0.7-1
					c-0.3-0.3-0.6-0.5-1-0.6c-0.4-0.2-0.8-0.2-1.2-0.2c-0.8,0-1.7,0.3-2.3,0.9c-0.3,0.3-0.5,0.6-0.7,1
					C858.2,202.6,858.2,203.5,858.6,204.2 M863.8,203.9c-0.1,0.3-0.3,0.5-0.5,0.7c-0.2,0.2-0.5,0.4-0.8,0.5c-0.3,0.1-0.7,0.2-1,0.2
					c-0.3,0-0.7-0.1-1-0.2c-0.3-0.1-0.6-0.3-0.8-0.5c-0.2-0.2-0.4-0.5-0.5-0.7c-0.3-0.6-0.3-1.2,0-1.8c0.1-0.3,0.3-0.5,0.5-0.7
					c0.2-0.2,0.5-0.4,0.8-0.5c0.3-0.1,0.7-0.2,1-0.2c0.3,0,0.7,0.1,1,0.2c0.3,0.1,0.6,0.3,0.8,0.5C864,202,864.2,203.1,863.8,203.9
					 M861.1,192.1l-1.6,0.1l-1.9,0.1l-1.9,0.1h-1.6l0.1,0.8h1.6l1.9-0.1l1.9-0.1l1.6-0.1L861.1,192.1z M863.9,199.7h0.7v-9.8h-0.7
					V199.7z M868,195.3h-3.3l-0.4,0.4l0.4,0.4h3.3V195.3z M863.7,177.4l0.9,0.7c0.3,0.3,0.6,0.5,0.9,0.8l0.9,0.9l0.8,0.8l0.8-0.8
					l-0.8-0.8l-1-0.8l-1-0.8c-0.3-0.3-0.6-0.5-0.9-0.7L863.7,177.4z M859.2,166.5l-2.4-3.5l-0.6,0.5c0.4,0.6,0.8,1.1,1.2,1.8
					s0.8,1.2,1.1,1.8L859.2,166.5z M858.8,159c-0.9,0.1-1.9,0.1-3,0.1s-2,0-3,0l0.1,0.8h1.4h1.5l1.5-0.1l1.4-0.1L858.8,159z
					 M852.8,167c0.5-0.5,1-1.1,1.4-1.6c0.4-0.6,0.8-1.1,1.1-1.8c0.3-0.6,0.6-1.3,0.8-1.9c0.2-0.7,0.4-1.4,0.5-2.2h-0.8
					c-0.4,2.7-1.6,5.2-3.6,7L852.8,167z M861.4,161.9h-3.2v0.8h3.2V161.9z M860.9,169.5h0.7v-13H861L860.9,169.5z M863.9,171.9h0.7
					v-16.6H864L863.9,171.9z M859.1,144.4l-0.1-2.6h-0.8l0.2,2.7L859.1,144.4z M862.9,144.3h0.7v-2.7h-0.7V144.3z M862.3,140.8
					c0.4-0.1,0.8-0.3,1.1-0.6c0.3-0.2,0.5-0.6,0.7-0.9c0.2-0.3,0.2-0.7,0.2-1.1c0-0.4-0.1-0.7-0.2-1.1c-0.2-0.3-0.4-0.7-0.7-0.9
					c-0.3-0.3-0.7-0.5-1.1-0.6c-0.9-0.3-1.9-0.3-2.8,0c-0.4,0.1-0.8,0.3-1.1,0.6c-0.3,0.2-0.5,0.6-0.7,0.9c-0.2,0.3-0.3,0.7-0.2,1.1
					c0,0.4,0.1,0.8,0.2,1.1c0.2,0.3,0.4,0.7,0.7,0.9c0.3,0.3,0.7,0.5,1.1,0.6C860.4,141.2,861.4,141.2,862.3,140.8 M862,136.3
					c0.3,0.1,0.6,0.3,0.8,0.5c0.2,0.2,0.4,0.4,0.5,0.7c0.1,0.2,0.2,0.5,0.2,0.8c0,0.3-0.1,0.5-0.2,0.8c-0.1,0.3-0.3,0.5-0.5,0.7
					c-0.2,0.2-0.5,0.4-0.8,0.5c-0.4,0.1-0.7,0.2-1.1,0.2c-0.4,0-0.7-0.1-1.1-0.2c-0.3-0.1-0.6-0.3-0.8-0.5c-0.2-0.2-0.4-0.4-0.5-0.7
					c-0.1-0.2-0.2-0.5-0.2-0.8c0-0.3,0.1-0.6,0.2-0.8c0.1-0.3,0.3-0.5,0.5-0.7c0.3-0.2,0.5-0.4,0.8-0.5c0.4-0.1,0.7-0.2,1.1-0.2
					C861.3,136.1,861.7,136.2,862,136.3 M862.3,151.3c0.4-0.1,0.7-0.3,1-0.6c0.3-0.2,0.5-0.5,0.7-0.9c0.2-0.3,0.2-0.7,0.2-1.1
					c0-0.4-0.1-0.7-0.2-1.1c-0.2-0.3-0.4-0.6-0.7-0.9c-0.3-0.3-0.6-0.4-1-0.6c-0.4-0.1-0.9-0.2-1.3-0.2c-0.5,0-0.9,0.1-1.4,0.2
					c-0.4,0.1-0.7,0.3-1,0.6c-0.3,0.2-0.5,0.5-0.7,0.9c-0.2,0.3-0.2,0.7-0.2,1.1c0,0.4,0.1,0.7,0.2,1.1c0.2,0.3,0.4,0.6,0.7,0.9
					c0.3,0.3,0.6,0.5,1,0.6c0.4,0.1,0.9,0.2,1.4,0.2C861.4,151.5,861.8,151.5,862.3,151.3 M862.8,147.4c0.8,0.6,0.9,1.7,0.3,2.5
					c-0.1,0.1-0.2,0.2-0.3,0.3c-0.5,0.4-1.2,0.6-1.9,0.6c-0.7,0-1.3-0.2-1.9-0.6c-0.8-0.6-0.9-1.8-0.3-2.5c0.1-0.1,0.2-0.2,0.3-0.3
					c0.5-0.4,1.2-0.6,1.9-0.6C861.6,146.8,862.3,147,862.8,147.4 M851.6,144.7h3.9l4.1-0.1c1.4,0,2.7-0.1,4.1-0.1s2.6-0.1,3.8-0.2
					v-0.8c-1.2,0.1-2.5,0.1-3.8,0.2s-2.7,0.1-4.1,0.1l-4.1,0.1h-3.9L851.6,144.7z M858.2,126.3c0.4-0.2,0.8-0.5,1.1-0.8
					c0.3-0.3,0.6-0.7,0.7-1.2c0.3-0.9,0.3-1.9,0-2.9c-0.2-0.4-0.4-0.8-0.7-1.2c-0.6-0.7-1.6-1.1-2.5-1.1c-1.4,0-2.7,0.9-3.2,2.2
					c-0.3,0.9-0.3,1.9,0,2.9c0.5,1.4,1.8,2.3,3.2,2.2C857.3,126.6,857.7,126.5,858.2,126.3 M857.9,120.2c0.3,0.1,0.6,0.4,0.9,0.6
					c0.2,0.3,0.4,0.6,0.6,0.9c0.3,0.8,0.3,1.6,0,2.3c-0.1,0.3-0.3,0.7-0.6,0.9c-0.2,0.3-0.5,0.5-0.9,0.6c-0.4,0.2-0.7,0.2-1.1,0.2
					c-0.4,0-0.8-0.1-1.1-0.2c-0.3-0.1-0.6-0.4-0.9-0.6c-0.2-0.3-0.4-0.6-0.5-0.9c-0.3-0.8-0.3-1.6,0-2.3c0.1-0.3,0.3-0.7,0.5-0.9
					c0.2-0.3,0.5-0.5,0.9-0.6c0.4-0.2,0.7-0.2,1.1-0.2C857.2,120,857.5,120,857.9,120.2 M863.9,131.9h0.7v-16.7h-0.7V131.9z
					 M863.8,102.7l0.9,0.7c0.3,0.3,0.6,0.5,0.9,0.8l0.9,0.9l0.8,0.8l0.8-0.8l-0.8-0.8l-1-0.8l-1-0.8c-0.3-0.3-0.6-0.5-0.9-0.7
					L863.8,102.7z M864.5,86.5h-3.4v0.8h3.4V86.5z M864.5,83.3h-3.4v0.8h3.4V83.3z M854,86.6c0.2,0.4,0.4,0.7,0.7,1
					c0.3,0.3,0.6,0.5,1,0.6c0.4,0.2,0.8,0.2,1.2,0.2c0.4,0,0.8-0.1,1.2-0.2c0.4-0.2,0.7-0.4,1-0.7c0.3-0.3,0.5-0.6,0.7-1
					c0.3-0.8,0.3-1.6,0-2.4c-0.2-0.4-0.4-0.7-0.7-1c-0.3-0.3-0.6-0.5-1-0.7c-0.4-0.2-0.8-0.2-1.2-0.2c-0.4,0-0.8,0.1-1.2,0.2
					c-0.4,0.2-0.7,0.4-1,0.7c-0.3,0.3-0.5,0.6-0.7,1C853.7,85,853.7,85.8,854,86.6 M854.7,84.5c0.1-0.3,0.3-0.5,0.5-0.7
					c0.2-0.2,0.5-0.4,0.8-0.5c0.3-0.1,0.7-0.2,1-0.2c0.3,0,0.6,0.1,1,0.2c0.3,0.1,0.5,0.3,0.8,0.5c0.2,0.2,0.4,0.5,0.5,0.7
					c0.3,0.6,0.3,1.2,0,1.8c-0.1,0.3-0.3,0.5-0.5,0.7c-0.2,0.2-0.5,0.4-0.8,0.5c-0.3,0.1-0.6,0.2-1,0.2c-0.3,0-0.7-0.1-1-0.2
					c-0.3-0.1-0.5-0.3-0.8-0.5c-0.2-0.2-0.4-0.5-0.5-0.7C854.4,85.7,854.4,85.1,854.7,84.5 M865.7,95.3l-1.9,0.1
					c-0.8,0-1.5,0.1-2.3,0.1H859c-0.8,0-1.4,0-2,0v0.8c0.5,0,1.2,0,2,0h2.4l2.3-0.1c0.8,0,1.4-0.1,1.9-0.1L865.7,95.3z M857.1,95.9
					h0.7v-2.7h-0.7V95.9z M864.6,92.6c-0.5,0-1.1,0.1-1.8,0.1l-2,0.1h-2h-1.7v0.9h1.7l2-0.1l2-0.1l1.8-0.1L864.6,92.6z M863.8,93
					h0.7v-2.8h-0.7V93z M864.6,89.9l-1.8,0.1l-2.1,0.1h-2.1h-1.8l0.1,0.8h1.8h2l2.1-0.1l1.8-0.1L864.6,89.9z M863.8,89.2h0.7v-8.7
					h-0.7V89.2z M853.8,69.5c1.2-0.8,2.3-2,3-3.3c0.7-1.4,1.2-2.8,1.4-4.4l-0.7-0.1c-0.1,0.7-0.3,1.5-0.5,2.2
					c-0.2,0.7-0.5,1.3-0.8,1.9c-0.3,0.6-0.7,1.1-1.2,1.6c-0.5,0.5-1,1-1.7,1.4L853.8,69.5z M861.7,68.5l-3.2-3l-0.5,0.6l1.5,1.5
					c0.5,0.5,1,1,1.6,1.6L861.7,68.5z M857,75.9l0.7-0.2v-4.3H857V75.9z M864.6,71.2c-0.5,0-1.1,0-1.7,0.1h-2.1h-2.1H857l0.1,0.8
					h1.7h2h2c0.7,0,1.2,0,1.7-0.1L864.6,71.2z M863.9,76h0.7v-4.3h-0.7V76z M864.6,75.6H857v0.8h7.6V75.6z M863.9,69.7h0.7v-9.2
					h-0.7V69.7z M867.9,65.5h-3.3l-0.4,0.4l0.4,0.4h3.3V65.5z M867.9,46.3h-3.3l-0.4,0.4l0.4,0.4h3.3V46.3z M854.1,47.1
					c0.2,0.4,0.4,0.7,0.7,1c0.3,0.3,0.6,0.5,1,0.7c0.4,0.2,0.8,0.3,1.3,0.3c0.4,0,0.9-0.1,1.2-0.3c0.4-0.2,0.7-0.4,1-0.7
					c0.3-0.3,0.5-0.6,0.7-1c0.3-0.8,0.3-1.7,0-2.5c-0.2-0.4-0.4-0.7-0.7-1c-0.3-0.3-0.7-0.5-1-0.7c-0.4-0.2-0.8-0.3-1.2-0.3
					c-0.4,0-0.9,0.1-1.3,0.3c-0.4,0.2-0.7,0.4-1,0.7c-0.3,0.3-0.5,0.6-0.7,1C853.8,45.4,853.8,46.3,854.1,47.1 M854.8,44.9
					c0.1-0.3,0.3-0.6,0.5-0.8c0.2-0.2,0.5-0.4,0.8-0.5c0.3-0.1,0.7-0.2,1-0.2c0.3,0,0.7,0.1,1,0.2c0.3,0.1,0.6,0.3,0.8,0.5
					c0.2,0.2,0.4,0.5,0.5,0.8c0.3,0.6,0.3,1.3,0,1.9c-0.1,0.3-0.3,0.6-0.5,0.8c-0.2,0.2-0.5,0.4-0.8,0.5c-0.3,0.1-0.7,0.2-1,0.2
					c-0.3,0-0.7-0.1-1-0.2c-0.3-0.1-0.6-0.3-0.8-0.5c-0.2-0.2-0.4-0.5-0.5-0.8C854.5,46.2,854.5,45.5,854.8,44.9 M865.7,54.8l-2,0.1
					c-0.8,0-1.6,0.1-2.4,0.1H859c-0.8,0-1.4,0-2,0v0.8c0.5,0,1.2,0,2,0h2.4l2.4-0.1c0.8,0,1.4-0.1,2-0.1L865.7,54.8z M857,55.6h0.7
					v-4.3H857V55.6z M863.9,52.4h0.7V40.5h-0.7V52.4z"/>
				<path class="st0" d="M888.3,269.4l0.9,0.7c0.3,0.3,0.6,0.5,0.9,0.8l0.9,0.9l0.8,0.8l0.8-0.8l-0.8-0.8l-1-0.8l-1-0.8
					c-0.3-0.3-0.6-0.5-0.9-0.7L888.3,269.4z M884.2,258.2l-2.7-3.4l-0.6,0.5c0.4,0.5,0.9,1.1,1.4,1.7s0.9,1.2,1.3,1.7L884.2,258.2z
					 M883.5,251.1c-0.9,0.1-1.9,0.1-3,0.1h-3l0.1,0.8h1.4h1.5l1.5,0l1.4-0.1L883.5,251.1z M877.6,259c0.5-0.5,1-1.1,1.4-1.6
					c0.4-0.5,0.8-1.1,1.1-1.7c0.3-0.6,0.6-1.2,0.8-1.9c0.2-0.7,0.4-1.4,0.5-2.1h-0.8c-0.1,0.7-0.3,1.3-0.5,2
					c-0.2,0.6-0.4,1.2-0.7,1.8c-0.3,0.6-0.6,1.1-1,1.6c-0.4,0.5-0.9,1-1.4,1.5L877.6,259z M888.7,254.3h-3.1v0.8h3.1V254.3z
					 M885.3,261.9h0.7v-13.5h-0.7V261.9z M888.5,263.9h0.7v-16.7h-0.7V263.9z M878.6,235.1h0.7v-5.5h-0.7V235.1z M884.4,229.5
					c-0.9,0-1.9,0.1-2.9,0.1h-2.9l0.1,0.8h2.9c1,0,2,0,2.9-0.1V229.5z M883.7,235.2h0.7V230h-0.7V235.2z M884.4,234.8h-5.9v0.8h5.9
					V234.8z M888.4,239.1h0.7v-11.9h-0.7V239.1z M890.3,241.5l-1.9,0.1c-0.8,0-1.5,0.1-2.3,0.1h-2.3c-0.8,0-1.4,0-2,0v0.8
					c0.5,0,1.2,0,2,0h2.3l2.3-0.1l1.9-0.1L890.3,241.5z M881.7,242.3h0.7v-4.3h-0.7V242.3z M878.3,217.4c0.8-0.4,1.5-0.9,2.2-1.5
					c0.7-0.6,1.3-1.2,1.9-1.9c0.5-0.7,1-1.4,1.4-2.2c0.4-0.7,0.7-1.5,0.9-2.3l-0.9,0.3c-0.2,0.7-0.4,1.4-0.7,2
					c-0.4,0.7-0.8,1.3-1.3,1.9c-0.5,0.6-1.1,1.2-1.8,1.7c-0.7,0.6-1.4,1-2.2,1.4L878.3,217.4z M881.8,222.4l0.7-0.2v-4.4h-0.7V222.4
					z M889.2,217.7c-0.5,0-1,0-1.7,0.1h-2h-2h-1.7l0.1,0.8h1.7h2h2c0.7,0,1.2,0,1.7-0.1L889.2,217.7z M888.4,222.6h0.7v-4.4h-0.7
					V222.6z M889.2,222.1h-7.4v0.8h7.4V222.1z M884.7,209.4l-1.6,0.1l-1.5,0.1h-1.4h-1.5l0.1,0.8h2.6c0.8,0,1.7,0,2.7-0.1
					L884.7,209.4z M888.4,216.2h0.7v-9h-0.7V216.2z M888.3,194.7l0.9,0.7c0.3,0.3,0.6,0.5,0.9,0.8l0.9,0.9l0.8,0.8l0.8-0.8l-0.8-0.8
					l-1-0.8l-1-0.8c-0.3-0.3-0.6-0.5-0.9-0.7L888.3,194.7z M886.9,178.8c0.4-0.1,0.8-0.3,1.1-0.6c0.3-0.2,0.6-0.6,0.7-0.9
					c0.2-0.4,0.3-0.8,0.3-1.2c0-0.8-0.3-1.6-1-2.1c-0.3-0.3-0.7-0.5-1.1-0.6c-0.5-0.1-0.9-0.2-1.4-0.2c-0.5,0-0.9,0.1-1.4,0.2
					c-0.4,0.1-0.8,0.3-1.1,0.6c-0.3,0.2-0.6,0.6-0.7,0.9c-0.2,0.4-0.3,0.8-0.3,1.2c0,0.4,0.1,0.8,0.3,1.2c0.2,0.4,0.4,0.7,0.7,0.9
					c0.3,0.3,0.7,0.5,1.1,0.6c0.5,0.1,0.9,0.2,1.4,0.2C886,179,886.4,178.9,886.9,178.8 M883.5,177.7c-0.9-0.7-1.1-2.1-0.3-3
					c0.1-0.1,0.2-0.2,0.3-0.3c1.2-0.8,2.8-0.8,4,0c0.9,0.7,1.1,2,0.4,2.9c-0.1,0.1-0.2,0.2-0.4,0.4
					C886.2,178.5,884.7,178.5,883.5,177.7 M876.2,182h3.9l4.1-0.1c1.4,0,2.7-0.1,4.1-0.1s2.6-0.1,3.8-0.2v-0.8
					c-1.2,0.1-2.5,0.1-3.8,0.2s-2.7,0.1-4.1,0.1l-4.1,0.1h-3.9L876.2,182z M890.1,186.9l-2,0.1c-0.8,0-1.6,0.1-2.4,0.1h-2.4
					c-0.8,0-1.5,0-2,0v0.8c0.5,0,1.2,0,2,0h2.4l2.4-0.1c0.8,0,1.4-0.1,2-0.1L890.1,186.9z M881.3,187.9h0.7v-4.3h-0.7L881.3,187.9z
					 M878.1,165.1c1.2-1,2.3-2.2,3.2-3.6c0.8-1.4,1.4-2.9,1.8-4.5l-0.8-0.1c-0.2,0.8-0.4,1.5-0.7,2.3c-0.3,0.7-0.6,1.4-1,2
					c-0.4,0.6-0.8,1.2-1.3,1.8c-0.5,0.6-1.1,1.1-1.7,1.7L878.1,165.1z M892.5,160.2h-3.3l-0.4,0.4l0.4,0.4h3.3V160.2z M886.6,164.1
					l-3.9-3.6l-0.5,0.6l0.9,0.8l1,0.9l1,1l0.9,0.9L886.6,164.1z M885.8,156.3l-1.7,0.1c-0.7,0-1.4,0.1-2.1,0.1H880h-1.7l0.1,0.8h1.7
					h2l2-0.1l1.7-0.1L885.8,156.3z M888.4,169.2h0.7v-16.7h-0.7V169.2z M876.2,141.4h3.9l4.1-0.1c1.4,0,2.7-0.1,4.1-0.1
					s2.6-0.1,3.8-0.2v-0.8c-1.2,0.1-2.5,0.1-3.8,0.2s-2.7,0.1-4.1,0.1l-4.2,0.1h-3.9L876.2,141.4z M885.2,148.8h0.8v-8.1h-0.7
					L885.2,148.8z M889.2,133.4l-1.9,0.1c-0.7,0-1.4,0-2.2,0.1h-2.1h-1.8l0.1,0.8h1.6h2h2c0.6,0,1.2,0,1.7-0.1L889.2,133.4z
					 M888,139.4c0.3-1,0.6-2,0.8-2.9c0.2-1.1,0.3-2.1,0.5-3.1l-0.8,0.3c0,0.4-0.1,0.8-0.1,1.3s-0.2,0.9-0.2,1.4s-0.2,1-0.3,1.4
					s-0.3,0.9-0.4,1.4L888,139.4z M886.8,112.8c0.4-0.1,0.8-0.3,1.1-0.6c0.3-0.2,0.6-0.6,0.7-0.9c0.2-0.4,0.3-0.8,0.3-1.2
					c0-0.8-0.3-1.6-1-2.1c-0.3-0.3-0.7-0.5-1.1-0.6c-0.5-0.1-0.9-0.2-1.4-0.2c-0.5,0-0.9,0.1-1.4,0.2c-0.4,0.1-0.8,0.3-1.1,0.6
					c-0.3,0.2-0.6,0.6-0.7,0.9c-0.2,0.4-0.3,0.8-0.3,1.2c0,0.4,0.1,0.8,0.3,1.2c0.2,0.4,0.4,0.7,0.7,0.9c0.3,0.3,0.7,0.5,1.1,0.6
					c0.5,0.1,0.9,0.2,1.4,0.2C885.9,113,886.4,112.9,886.8,112.8 M883.4,111.7c-0.9-0.7-1.1-2.1-0.3-3c0.1-0.1,0.2-0.2,0.3-0.3
					c1.2-0.8,2.8-0.8,4,0c0.9,0.7,1.1,2,0.4,2.9c-0.1,0.1-0.2,0.2-0.4,0.4C886.2,112.4,884.7,112.4,883.4,111.7 M876.2,115.9h3.9
					l4.1-0.1c1.4,0,2.7-0.1,4.1-0.1s2.6-0.1,3.8-0.2v-0.8c-1.2,0.1-2.5,0.1-3.8,0.2s-2.7,0.1-4.1,0.1l-4.1,0.1h-3.9L876.2,115.9z
					 M890.1,120.9l-2,0.1c-0.8,0-1.6,0.1-2.4,0.1h-2.4c-0.8,0-1.5,0-2,0v0.8c0.5,0,1.2,0,2,0h2.4l2.4-0.1c0.8,0,1.4-0.1,2-0.1
					L890.1,120.9z M881.2,121.9h0.8v-4.3h-0.7L881.2,121.9z M889.2,87.1l-1,0.1h-1h-1h-1l0.1,0.8c1.3,0,2.6-0.1,3.9-0.2L889.2,87.1z
					 M884,87.3c-0.6,0-1.3,0-2,0h-2l0.1,0.8h1.7c0.6,0,1.3,0,2-0.1L884,87.3z M883.2,91.9c0.3-0.7,0.5-1.4,0.6-2.1
					c0.1-0.8,0.2-1.6,0.2-2.4l-0.8,0.4c0,0.7-0.1,1.3-0.2,2c-0.1,0.6-0.3,1.2-0.5,1.8L883.2,91.9z M876.2,94h3.9l4.1-0.1
					c1.4,0,2.7-0.1,4.1-0.1s2.6-0.1,3.8-0.2v-0.8c-1.2,0.1-2.5,0.1-3.8,0.2s-2.7,0.1-4.1,0.1l-4.1,0.1h-3.9L876.2,94z M888.5,91.3
					h0.7v-4.1h-0.7V91.3z M885.4,93.5h0.7V90h-0.7V93.5z M890.2,101.6l-2,0.1c-0.8,0-1.6,0.1-2.4,0.1h-2.4c-0.8,0-1.5,0-2,0v0.8
					c0.5,0,1.2,0,2,0h2.4l2.4-0.1c0.8,0,1.4-0.1,2-0.1L890.2,101.6z M881.4,102.2h0.7v-2.9h-0.7V102.2z M889.1,98.7
					c-0.5,0-1.1,0.1-1.8,0.1l-2.1,0.1h-2.1h-1.8v0.8h1.7l2.1-0.1l2.1-0.1l1.8-0.1V98.7z M888.4,99.1h0.7v-2.9h-0.7V99.1z
					 M889.1,95.8l-1.9,0.1l-2.2,0.1L883,96h-1.8l0.1,0.8h1.8h2.1l2.1-0.1l1.9-0.1V95.8z M889.2,67.2l-1.9,0.1c-0.7,0-1.5,0-2.2,0.1
					H883h-1.8l0.1,0.8h1.7h2h2c0.7,0,1.2,0,1.7-0.1L889.2,67.2z M888.6,71.9c0.1-0.4,0.2-0.8,0.2-1.2s0.1-0.7,0.2-1.1
					s0.1-0.7,0.1-1.1s0.1-0.8,0.1-1.3l-0.8,0.3c0,0.4-0.1,0.8-0.1,1.1s-0.1,0.7-0.1,1s-0.1,0.7-0.2,1s-0.2,0.7-0.2,1.1L888.6,71.9z
					 M890.2,81.5l-2,0.1c-0.8,0-1.6,0.1-2.4,0.1h-2.4c-0.8,0-1.5,0-2,0v0.8c0.5,0,1.2,0,2,0h2.4l2.4-0.1c0.8,0,1.4-0.1,2-0.1
					L890.2,81.5z M881.4,82.1h0.7v-2.9h-0.7V82.1z M889.1,78.6c-0.5,0-1.1,0.1-1.8,0.1l-2.1,0.1h-2.1h-1.8v0.8h1.7h2.1l2.1-0.1
					l1.8-0.1V78.6z M888.4,79h0.7v-2.9h-0.7V79z M889.1,75.7l-1.9,0.1l-2.2,0.1H883h-1.8l0.1,0.8h1.8h2.1l2.1-0.1l1.9-0.1V75.7z
					 M876.1,73.7h3.9l4.1-0.1c1.4,0,2.7-0.1,4.1-0.1s2.6-0.1,3.8-0.2v-0.8c-1.2,0.1-2.5,0.2-3.8,0.2s-2.7,0.1-4.1,0.1l-4.1,0.1H876
					L876.1,73.7z M882.7,51.6c0.4-0.2,0.8-0.5,1.1-0.8c0.3-0.3,0.6-0.7,0.7-1.2c0.3-0.9,0.3-1.9,0-2.9c-0.2-0.4-0.4-0.8-0.7-1.2
					c-0.6-0.7-1.6-1.1-2.5-1.1c-1.4,0-2.7,0.9-3.2,2.2c-0.3,0.9-0.3,1.9,0,2.9c0.5,1.4,1.8,2.3,3.2,2.2
					C881.8,51.9,882.3,51.8,882.7,51.6 M882.4,45.5c0.3,0.1,0.6,0.4,0.9,0.6c0.2,0.3,0.4,0.6,0.6,0.9c0.3,0.8,0.3,1.6,0,2.3
					c-0.1,0.3-0.3,0.7-0.6,0.9c-0.2,0.3-0.5,0.5-0.9,0.6c-0.4,0.2-0.7,0.2-1.1,0.2c-0.4,0-0.8-0.1-1.1-0.2c-0.3-0.1-0.6-0.4-0.9-0.6
					c-0.2-0.3-0.4-0.6-0.5-0.9c-0.3-0.8-0.3-1.6,0-2.3c0.1-0.3,0.3-0.7,0.5-0.9c0.2-0.3,0.5-0.5,0.9-0.6c0.4-0.2,0.7-0.2,1.1-0.2
					C881.7,45.2,882.1,45.3,882.4,45.5 M888.4,57.1h0.7V40.5h-0.7V57.1z"/>
				<path class="st0" d="M936.9,176.8c0.1,0.2,0.2,0.5,0.4,0.7c0.2,0.2,0.4,0.3,0.7,0.4c0.3,0.1,0.5,0.2,0.8,0.2
					c0.3,0,0.5-0.1,0.8-0.2c0.5-0.2,0.9-0.6,1.1-1.1c0.2-0.5,0.2-1.1,0-1.6c-0.2-0.5-0.6-0.9-1.1-1.1c-0.2-0.1-0.5-0.2-0.8-0.2
					c-0.3,0-0.5,0.1-0.8,0.2c-0.2,0.1-0.5,0.3-0.7,0.4c-0.2,0.2-0.3,0.4-0.4,0.7C936.7,175.7,936.7,176.3,936.9,176.8 M939.8,177
					c-0.5,0.5-1.4,0.5-1.9,0c-0.5-0.5-0.5-1.4,0-1.9c0.5-0.5,1.4-0.5,1.9,0C940.3,175.6,940.3,176.4,939.8,177 M938.7,156.4
					l-1.9,0.1c-0.7,0-1.4,0.1-2.2,0.1h-2.2c-0.7,0-1.3,0-1.9,0v0.8c0.5,0,1.2,0,1.9,0h2.2l2.2-0.1c0.7,0,1.3-0.1,1.9-0.1V156.4z
					 M938.2,153l-1.7,0.1l-2.1,0.1h-2.1h-1.7v0.8h1.7h2.1h2.1c0.7,0,1.3,0,1.7-0.1L938.2,153z M930.6,157.4l0.7-0.2v-3.5h-0.7V157.4
					z M925.2,160.3h3.9l4.1-0.1c1.4,0,2.7-0.1,4.1-0.1s2.6-0.1,3.8-0.2v-0.8c-1.2,0.1-2.5,0.1-3.8,0.2s-2.7,0.1-4.1,0.1l-4.1,0.1
					h-3.9L925.2,160.3z M939.3,167.7l-2,0.1c-0.8,0-1.6,0.1-2.4,0.1h-2.4c-0.8,0-1.5,0-2,0v0.8c0.5,0,1.2,0,2,0h2.4l2.4-0.1
					c0.8,0,1.4-0.1,2-0.1L939.3,167.7z M930.5,168.3h0.7v-2.8h-0.7V168.3z M938.2,164.9c-0.5,0-1.1,0.1-1.8,0.1s-1.4,0-2.1,0.1
					l-2.1,0.1h-1.8v0.8h1.7l2.1-0.1l2.1-0.1l1.8-0.1V164.9z M937.4,165.3h0.7v-2.8h-0.7V165.3z M938.2,162.2l-1.9,0.1l-2.2,0.1
					l-2.1,0.1h-1.8l0.1,0.8h1.8l2.1-0.1l2.1-0.1l1.9-0.1V162.2z M938.1,138.3h-7.3v0.8h7.3V138.3z M938.1,135l-1.7,0.1l-1.9,0.1
					h-1.9h-1.7v0.8h1.7h2l2-0.1c0.6,0,1.2,0,1.7-0.1L938.1,135z M938.1,132.6h-0.7v5.9h0.7V132.6z M930.8,138.8h0.7V133h-0.7V138.8z
					 M934.3,145h0.7v-3.6h-0.7V145z M925.2,142h3.9l4.1-0.1c1.4,0,2.7-0.1,4.1-0.1s2.6-0.1,3.8-0.2v-0.8c-1.2,0.1-2.5,0.1-3.8,0.2
					s-2.7,0.1-4.1,0.1l-4.1,0.1h-3.9L925.2,142z M939.1,146.9l-2,0.1c-0.8,0-1.6,0.1-2.4,0.1h-2.4c-0.8,0-1.5,0-2,0v0.8
					c0.5,0,1.2,0,2,0h2.4l2.4-0.1c0.8,0,1.4-0.1,2-0.1L939.1,146.9z M930.2,147.9h0.8v-4h-0.7L930.2,147.9z M927.2,116.2
					c1.3-1,2.3-2.2,3.1-3.6c0.8-1.5,1.3-3.1,1.5-4.7l-0.7-0.1c-0.1,0.8-0.3,1.7-0.5,2.5c-0.2,0.7-0.5,1.4-0.8,2
					c-0.3,0.6-0.8,1.2-1.2,1.8c-0.5,0.6-1.1,1.1-1.7,1.6L927.2,116.2z M935.2,114.9l-3.5-3.1l-0.5,0.6c0.6,0.5,1.1,1,1.7,1.5
					l1.7,1.6L935.2,114.9z M937.4,118.3h0.7v-11.8h-0.7V118.3z M939.2,120.8l-1.9,0.1c-0.8,0-1.5,0.1-2.3,0.1h-2.3c-0.8,0-1.4,0-2,0
					v0.8c0.5,0,1.2,0,2,0h2.4l2.3-0.1c0.8,0,1.4-0.1,1.9-0.1L939.2,120.8z M930.6,121.6h0.7v-4.4h-0.7V121.6z M929.2,93.4
					c1.3-0.5,2.6-1.3,3.6-2.3c0.9-0.9,1.6-2.1,2-3.3l-0.8-0.2c-0.4,1.2-1,2.2-1.9,3.1c-0.9,0.9-2.1,1.6-3.3,2L929.2,93.4z
					 M938.2,87.2l-2,0.1l-2.3,0.1h-2.3c-0.7,0-1.4,0-2,0l0.1,0.8h1.9h2.2l2.2-0.1l2-0.1L938.2,87.2z M939,92.5l-4.2-2.5l-0.4,0.7
					c0.7,0.4,1.4,0.8,2.1,1.2l2.1,1.3L939,92.5z M925.1,96.3h3.9l4.1-0.1c1.4,0,2.7-0.1,4.1-0.1s2.6-0.1,3.8-0.2v-0.8
					c-1.2,0.1-2.5,0.1-3.8,0.2s-2.7,0.1-4.1,0.1l-4.1,0.1H925L925.1,96.3z M934.2,102.7h0.8v-7.2h-0.7L934.2,102.7z M934.1,72.2h0.7
					v-3.3h-0.7V72.2z M935.9,66.5c0.4-0.1,0.8-0.3,1.1-0.6c0.3-0.2,0.6-0.6,0.7-0.9c0.2-0.4,0.3-0.8,0.3-1.2c0-0.4-0.1-0.9-0.3-1.2
					c-0.2-0.3-0.4-0.6-0.7-0.9c-0.3-0.3-0.7-0.5-1.1-0.6c-0.9-0.3-1.9-0.3-2.8,0c-0.4,0.1-0.8,0.3-1.1,0.6c-0.3,0.3-0.6,0.6-0.7,0.9
					c-0.2,0.4-0.3,0.8-0.3,1.2c0,0.4,0.1,0.9,0.3,1.2c0.2,0.4,0.4,0.7,0.7,0.9c0.3,0.3,0.7,0.5,1.1,0.6
					C934,66.9,935,66.9,935.9,66.5 M933.4,65.9c-0.3-0.1-0.6-0.2-0.9-0.4c-0.2-0.2-0.4-0.4-0.6-0.7c-0.3-0.6-0.3-1.3,0-1.9
					c0.1-0.3,0.3-0.5,0.6-0.7c0.3-0.2,0.6-0.3,0.9-0.4c0.4-0.1,0.7-0.2,1.1-0.2c0.4,0,0.7,0,1.1,0.2c0.3,0.1,0.6,0.2,0.9,0.4
					c0.2,0.2,0.4,0.4,0.6,0.7c0.3,0.6,0.3,1.3,0,1.9c-0.1,0.3-0.3,0.5-0.6,0.7c-0.3,0.2-0.6,0.3-0.9,0.4c-0.4,0.1-0.7,0.2-1.1,0.2
					C934.1,66.1,933.8,66,933.4,65.9 M925.1,69.4h3.9l4.1-0.1c1.4,0,2.7-0.1,4.1-0.1s2.6-0.1,3.8-0.2v-0.8c-1.2,0.1-2.5,0.2-3.8,0.2
					s-2.7,0.1-4.1,0.1l-4.1,0.1H925L925.1,69.4z M930.9,76l0.7-0.2v-3.9h-0.7V76z M938.2,71.8c-0.5,0-1,0-1.7,0.1h-2h-2h-1.7
					l0.1,0.8h1.7h1.9h1.9c0.6,0,1.2,0,1.7-0.1L938.2,71.8z M937.4,76.2h0.8v-3.9h-0.8V76.2z M938.2,75.8h-7.3v0.8h7.3V75.8z
					 M925.7,54.7h3.8l3.9-0.1c1.3,0,2.6-0.1,3.9-0.1s2.5-0.1,3.7-0.2v-0.8c-1.2,0.1-2.5,0.2-3.8,0.2s-2.6,0.1-3.9,0.1l-4,0.1h-3.8
					L925.7,54.7z M938.7,47.9l-1.9,0.1c-0.7,0-1.5,0.1-2.2,0.1h-2.2c-0.7,0-1.4,0-1.9,0v0.8c0.5,0,1.2,0,1.9,0h2.2l2.2-0.1
					c0.7,0,1.3-0.1,1.9-0.1V47.9z M938.5,42.7c-0.3,0-0.7,0-1.1,0.1H936h-1.5h-1.5h-2.5v0.8h1.8h2.3l2.3-0.1c0.7,0,1.3,0,1.8-0.1
					L938.5,42.7z M930.4,48.9l0.7-0.2v-5.4h-0.7V48.9z M934.2,54h0.7v-4.5h-0.7V54z"/>
			</g>
		</g>
		<line class="st1" x1="478.3" y1="-0.3" x2="478.3" y2="498.7"/>
		<line class="st1" x1="685.1" y1="359.7" x2="685.1" y2="498.7"/>
		<line class="st1" x1="514.2" y1="319.8" x2="943.3" y2="319.8"/>
		<g>
			<defs>
				<polygon id="SVGID_1_" points="0,-0.3 943.3,-0.3 943.3,498.7 0,500.7 				"/>
			</defs>
			<clipPath id="SVGID_2_">
				<use xlink:href="#SVGID_1_"  style="overflow:visible;"/>
			</clipPath>
			<g class="st2">
				<path class="st0" d="M871.3,452.7c0.5,0,0.9-0.4,0.9-0.9c0,0,0-0.1,0-0.1c0.1-0.5-0.3-1-0.8-1s-1,0.3-1,0.8c0,0.1,0,0.1,0,0.2
					C870.4,452.2,870.7,452.6,871.3,452.7C871.3,452.7,871.3,452.7,871.3,452.7 M864.5,452c-1.5,0-2.3-1.2-2.3-3.2s1.1-3.2,2.5-3.2
					c0.8,0,1.5,0.3,2.1,0.9v4.4C866.2,451.6,865.4,452,864.5,452 M864.2,453c1,0,1.9-0.5,2.5-1.2l0,0l0.1,1h1v-11.9h-1.2v3.2
					l0.1,1.4c-0.6-0.6-1.5-1-2.3-1c-1.9,0-3.5,1.6-3.5,4.3S862.2,453,864.2,453 M853.8,448.2c0-1.4,1.1-2.6,2.4-2.7
					c1.3,0,2.1,0.9,2.1,2.7H853.8z M856.5,453c0.9,0,1.9-0.3,2.7-0.8l-0.5-0.8c-0.6,0.4-1.3,0.7-2,0.7c-1.5,0-2.8-1.3-2.8-2.8
					c0-0.1,0-0.1,0-0.2h5.5c0-0.2,0.1-0.5,0.1-0.7c0-2.4-1.2-3.8-3.2-3.8c-1.9,0-3.6,1.6-3.6,4.3S854.3,453,856.5,453 M847.4,452.8
					h1.4l2.9-8.1h-1.2l-1.6,4.7c-0.2,0.8-0.5,1.6-0.8,2.4h-0.1c-0.3-0.8-0.5-1.6-0.8-2.4l-1.6-4.7h-1.3L847.4,452.8z M839.5,452.8
					h1.2v-5.3c0.5-1.4,1.4-1.9,2.1-1.9c0.3,0,0.5,0,0.8,0.1l0.2-1.1c-0.3-0.1-0.6-0.2-0.9-0.2c-1,0.1-1.9,0.8-2.3,1.7l0,0l-0.1-1.5
					h-1L839.5,452.8z M831.8,448.2c0-1.4,1-2.6,2.4-2.7c1.3,0,2.1,0.9,2.1,2.7H831.8z M834.5,453c0.9,0,1.9-0.3,2.7-0.8l-0.5-0.8
					c-0.6,0.4-1.3,0.7-2,0.7c-1.6,0-2.8-1.3-2.8-2.8c0-0.1,0-0.1,0-0.2h5.5c0-0.2,0.1-0.5,0.1-0.7c0-2.4-1.2-3.8-3.2-3.8
					c-1.9,0-3.6,1.6-3.6,4.3S832.3,453,834.5,453 M826.4,453c1.9,0,2.9-1.1,2.9-2.4c0-1.5-1.3-2-2.5-2.5c-0.9-0.3-1.8-0.6-1.8-1.5
					c0-0.7,0.5-1.2,1.6-1.2c0.7,0,1.3,0.3,1.9,0.7l0.6-0.8c-0.7-0.6-1.6-0.9-2.5-0.9c-1.7,0-2.8,1-2.8,2.3s1.3,1.9,2.5,2.4
					c0.9,0.3,1.9,0.7,1.9,1.6s-0.6,1.4-1.7,1.4c-0.9,0-1.8-0.4-2.5-1l-0.6,0.8C824.2,452.6,825.3,453,826.4,453 M816.6,448.1
					c0-1.4,1-2.6,2.4-2.7c1.3,0,2.1,0.9,2.1,2.7H816.6z M819.3,453c0.9,0,1.9-0.3,2.7-0.8l-0.5-0.8c-0.6,0.4-1.3,0.6-2,0.7
					c-1.6,0-2.8-1.3-2.8-2.8c0-0.1,0-0.1,0-0.2h5.5c0-0.2,0.1-0.5,0.1-0.7c0-2.4-1.2-3.8-3.2-3.8c-1.9,0-3.6,1.6-3.6,4.3
					S817.2,453,819.3,453 M810.6,452.8h1.2v-5.3c0.6-1.4,1.4-1.9,2.1-1.9c0.3,0,0.5,0,0.8,0.1l0.2-1.1c-0.3-0.1-0.6-0.2-0.8-0.2
					c-1,0.1-1.9,0.8-2.3,1.7l0,0l-0.1-1.5h-1L810.6,452.8z M801.5,453c1.9,0,2.9-1.1,2.9-2.4c0-1.5-1.3-2-2.5-2.5
					c-0.9-0.3-1.8-0.6-1.8-1.5c0-0.7,0.5-1.2,1.6-1.2c0.7,0,1.3,0.3,1.9,0.7l0.6-0.8c-0.7-0.6-1.6-0.9-2.5-0.9c-1.7,0-2.8,1-2.8,2.3
					s1.3,1.9,2.5,2.4c0.9,0.3,1.9,0.7,1.9,1.6s-0.6,1.4-1.7,1.4c-0.9,0-1.8-0.4-2.5-1l-0.6,0.8C799.4,452.6,800.4,453,801.5,453
					 M796.5,453c0.5,0,1-0.1,1.4-0.3l-0.2-0.9c-0.3,0.1-0.6,0.2-0.9,0.2c-1,0-1.3-0.6-1.3-1.6v-4.7h2.2v-1h-2.2v-2.3h-1l-0.1,2.3
					l-1.3,0.1v0.9h1.2v4.7C794.3,451.9,794.9,453,796.5,453 M785,452.9h1.2v-5.9c0.5-0.8,1.4-1.2,2.3-1.3c1.1,0,1.6,0.7,1.6,2.2v5
					h1.2v-5.1c0-2.1-0.8-3.2-2.5-3.2c-1.1,0.1-2,0.6-2.7,1.4v-1.7v-3.3H785V452.9z M779.5,455.8c-1.5,0-2.4-0.6-2.4-1.5
					c0-0.6,0.4-1.2,0.9-1.5c0.3,0.1,0.7,0.1,1,0.1h1.5c1.1,0,1.7,0.3,1.7,1.1S781.1,455.8,779.5,455.8 M779.3,449.5
					c-1,0-1.9-0.9-1.8-1.9c0,0,0,0,0-0.1c-0.1-1,0.7-1.9,1.7-1.9c1-0.1,1.9,0.7,1.9,1.7c0,0.1,0,0.2,0,0.3
					C781.2,448.5,780.4,449.4,779.3,449.5C779.3,449.5,779.3,449.5,779.3,449.5 M779.3,456.6c2.5,0,4-1.3,4-2.8s-0.9-1.9-2.8-1.9
					H779c-1.1,0-1.4-0.4-1.4-0.9c0-0.4,0.2-0.8,0.5-1c0.4,0.2,0.8,0.3,1.2,0.3c1.5,0.1,2.8-1.1,2.9-2.6c0-0.1,0-0.2,0-0.2
					c0-0.7-0.2-1.3-0.7-1.8h1.7v-0.9h-2.8c-0.4-0.1-0.7-0.2-1.1-0.2c-1.6-0.1-2.9,1.1-3,2.7c-0.1,0.9,0.3,1.8,1,2.4v0
					c-0.5,0.3-0.8,0.9-0.9,1.5c0,0.5,0.3,1.1,0.7,1.3v0.1c-0.7,0.4-1.1,1.1-1.2,1.9C776,455.8,777.3,456.6,779.3,456.6 M773.2,443
					c0.5,0,0.9-0.3,0.9-0.8c0,0,0,0,0,0c-0.1-0.5-0.5-0.8-1-0.8c-0.4,0-0.7,0.4-0.8,0.8C772.3,442.7,772.7,443,773.2,443
					C773.2,443,773.2,443,773.2,443 M772.6,452.8h1.2v-8.1h-1.2V452.8z M766.9,452.8h1.2v-5.3c0.6-1.4,1.4-1.9,2.1-1.9
					c0.3,0,0.5,0,0.8,0.1l0.2-1.1c-0.3-0.1-0.6-0.2-0.8-0.2c-1,0.1-1.9,0.8-2.3,1.7l0,0l-0.1-1.5h-1L766.9,452.8z M759.8,453
					c0.3,0,0.5,0,0.7-0.1l-0.2-0.9c-0.1,0-0.2,0-0.3,0c-0.2,0-0.4-0.2-0.4-0.6v-10.5h-1.2v10.5C758.5,452.5,758.9,453.1,759.8,453
					 M755.7,453.1c0.2,0,0.5,0,0.7-0.1l-0.2-0.9c-0.1,0-0.2,0-0.3,0c-0.2,0-0.4-0.2-0.4-0.6v-10.5h-1.1v10.5
					C754.4,452.5,754.8,453.1,755.7,453.1 M748.2,452.1c-0.7,0.1-1.4-0.4-1.5-1.1c0-0.1,0-0.2,0-0.2c0-1.1,1-1.8,3.8-2.1v2.4
					C749.9,451.6,749.1,452,748.2,452.1 M747.8,453.1c1-0.1,2-0.5,2.7-1.2l0,0l0.1,1h1v-5c0-2-0.8-3.3-2.8-3.3
					c-1.1,0-2.2,0.4-3.2,1.1l0.5,0.9c0.7-0.5,1.6-0.9,2.5-0.9c1.4,0,1.7,1.1,1.7,2.2c-3.5,0.4-5,1.3-5,3c-0.1,1.2,0.9,2.2,2,2.3
					C747.6,453.1,747.7,453.1,747.8,453.1"/>
				<path class="st0" d="M917.1,435.2c1.2-0.5,2-1.7,2.1-3c0-0.9-0.4-1.5-1.1-1.5c-0.5-0.1-0.9,0.3-1,0.8c0,0,0,0.1,0,0.1
					c0,0.5,0.4,0.9,0.8,0.9c0,0,0.1,0,0.1,0h0.2c0,0.9-0.6,1.7-1.5,2L917.1,435.2z M911.9,435.8c-1.5,0-2.4-0.6-2.4-1.5
					c0-0.6,0.4-1.1,0.9-1.5c0.3,0.1,0.7,0.1,1,0.1h1.5c1.1,0,1.7,0.3,1.7,1.1S913.5,435.8,911.9,435.8 M911.6,429.5
					c-1,0-1.8-0.9-1.8-1.9c0,0,0,0,0-0.1c-0.1-1,0.6-1.9,1.6-2c0.1,0,0.1,0,0.2,0c1,0,1.8,0.8,1.8,1.9c0,0,0,0.1,0,0.1
					C913.5,428.5,912.7,429.4,911.6,429.5C911.7,429.5,911.7,429.5,911.6,429.5 M911.6,436.6c2.5,0,4-1.3,4-2.8s-0.9-1.9-2.8-1.9
					h-1.6c-1.1,0-1.4-0.4-1.4-0.9c0-0.4,0.2-0.8,0.5-1c0.4,0.2,0.8,0.3,1.2,0.3c1.5,0.1,2.8-1.1,2.9-2.6c0-0.1,0-0.2,0-0.2
					c0-0.7-0.2-1.3-0.7-1.8h1.7v-0.9h-2.8c-0.4-0.1-0.7-0.2-1.1-0.2c-1.6-0.1-2.9,1.1-3,2.7c0,0.9,0.3,1.8,1,2.4v0
					c-0.5,0.3-0.8,0.9-0.9,1.5c0,0.5,0.3,1.1,0.7,1.3v0.1c-0.7,0.4-1.1,1.1-1.2,1.9C908.3,435.8,909.6,436.6,911.6,436.6
					 M899.8,432.8h1.2v-5.9c0.5-0.8,1.4-1.2,2.3-1.3c1.1,0,1.6,0.7,1.6,2.2v5h1.2v-5.1c0-2.1-0.8-3.2-2.5-3.2
					c-1.1,0.1-2,0.6-2.7,1.4l0,0l-0.1-1.2h-1L899.8,432.8z M893.9,432c-1.5,0-2.5-1.3-2.5-3.2s1-3.2,2.5-3.2s2.5,1.3,2.5,3.2
					S895.4,432,893.9,432 M893.9,433c2,0,3.7-1.5,3.7-4.2s-1.8-4.3-3.7-4.3s-3.7,1.6-3.7,4.3S891.9,433,893.9,433 M883.2,436.4
					c1.6,0,2.4-1.2,3-2.8l3.1-8.9h-1.2l-1.5,4.6c-0.2,0.7-0.5,1.5-0.7,2.3h-0.1c-0.3-0.7-0.6-1.6-0.8-2.3l-1.7-4.6H882l3.3,8.1
					l-0.2,0.6c-0.4,1-1,1.8-1.9,1.8c-0.2,0-0.4,0-0.6-0.1l-0.2,1C882.6,436.3,882.9,436.4,883.2,436.4 M877.1,432.9h1.2v-5.3
					c0.6-1.4,1.4-1.9,2.1-1.9c0.3,0,0.5,0,0.8,0.1l0.2-1.1c-0.3-0.1-0.6-0.2-0.8-0.2c-1,0.1-1.9,0.8-2.3,1.7l0,0l-0.1-1.5h-1
					L877.1,432.9z M871.2,427.7h3.8v-1h-3.8V427.7z M864.3,428.2c0-1.4,1-2.6,2.4-2.7c1.3,0,2.1,0.9,2.1,2.7H864.3z M867,433.1
					c0.9,0,1.9-0.3,2.7-0.8l-0.5-0.8c-0.6,0.4-1.3,0.6-2,0.7c-1.5,0-2.8-1.3-2.8-2.8c0-0.1,0-0.1,0-0.2h5.5c0-0.2,0.1-0.5,0.1-0.7
					c0-2.4-1.2-3.8-3.2-3.8c-1.9,0-3.6,1.6-3.6,4.3S864.9,433.1,867,433.1 M857.6,432.1c-0.8,0-1.5-0.4-1.5-1.4s1-1.8,3.8-2.1v2.4
					C859.3,431.6,858.5,432,857.6,432.1 M857.2,433.1c1-0.1,2-0.5,2.7-1.2h0l0.1,1h1v-5c0-2-0.8-3.3-2.7-3.3c-1.1,0-2.2,0.4-3.2,1.1
					l0.5,0.9c0.7-0.5,1.6-0.9,2.5-0.9c1.4,0,1.7,1.1,1.7,2.2c-3.5,0.4-5,1.3-5,3c-0.1,1.2,0.8,2.2,2,2.3
					C857,433.1,857.1,433.1,857.2,433.1 M852.7,433.1c0.5,0,1-0.1,1.4-0.3l-0.2-0.9c-0.3,0.1-0.6,0.2-0.9,0.2c-1,0-1.3-0.6-1.3-1.6
					v-4.7h2.2v-1h-2.2v-2.3h-1l-0.1,2.3l-1.3,0.1v0.9h1.2v4.7C850.5,432.1,851,433.1,852.7,433.1 M841.7,435.3
					c1.2-0.5,2.1-1.7,2.1-3c0-0.9-0.4-1.5-1.1-1.5c-0.5-0.1-0.9,0.3-1,0.8c0,0,0,0.1,0,0.1c0,0.5,0.4,0.9,0.9,0.9c0,0,0,0,0.1,0h0.2
					c0,0.9-0.6,1.7-1.5,2L841.7,435.3z M828.2,432.9h1.2V427c0.5-0.7,1.3-1.2,2.1-1.3c1.1,0,1.6,0.7,1.6,2.2v5h1.2V427
					c0.5-0.7,1.3-1.2,2.1-1.3c1.1,0,1.6,0.7,1.6,2.2v5h1.2v-5.1c0-2.1-0.8-3.2-2.5-3.2c-1.1,0.1-2,0.7-2.7,1.6
					c-0.3-1-1.2-1.7-2.2-1.6c-1,0.1-1.9,0.6-2.5,1.4l0,0l-0.1-1.2h-1L828.2,432.9z M824.8,423.1c0.5,0,0.9-0.3,0.9-0.8c0,0,0,0,0,0
					c0-0.5-0.3-0.8-0.8-0.8c0,0-0.1,0-0.1,0c-0.4,0-0.8,0.3-0.9,0.7c0,0,0,0.1,0,0.1C824,422.7,824.3,423.1,824.8,423.1
					C824.8,423.1,824.8,423.1,824.8,423.1 M824.2,432.9h1.2v-8.1h-1.2V432.9z M816.1,432.9h1.2v-2.1l1.6-1.9l2.5,4h1.3l-3.1-4.9
					l2.7-3.2h-1.4l-3.6,4.4h0V421H816L816.1,432.9z M808.8,433.1c0.5,0,1-0.1,1.4-0.3l-0.2-0.9c-0.3,0.1-0.6,0.2-0.9,0.2
					c-1,0-1.3-0.6-1.3-1.6v-4.7h2.2v-1h-2.2v-2.3h-1l-0.1,2.3l-1.3,0.1v0.9h1.2v4.7C806.6,432.1,807.1,433.1,808.8,433.1
					 M797.3,432.9h1.2V427c0.5-0.8,1.4-1.2,2.3-1.3c1.1,0,1.6,0.7,1.6,2.2v5h1.2v-5.1c0-2.1-0.8-3.2-2.5-3.2c-1.1,0.1-2,0.6-2.7,1.4
					v-1.7V421h-1.2L797.3,432.9z M791.8,435.8c-1.5,0-2.4-0.6-2.4-1.5c0-0.6,0.4-1.1,0.9-1.5c0.3,0.1,0.7,0.1,1,0.1h1.5
					c1.1,0,1.7,0.3,1.7,1.1S793.5,435.8,791.8,435.8 M791.6,429.5c-1,0-1.8-0.9-1.8-1.9c0,0,0,0,0-0.1c-0.1-1,0.6-1.9,1.6-2
					c0.1,0,0.1,0,0.2,0c1,0,1.8,0.8,1.8,1.9c0,0,0,0.1,0,0.1C793.5,428.6,792.7,429.4,791.6,429.5
					C791.7,429.5,791.6,429.5,791.6,429.5 M791.6,436.7c2.5,0,4-1.3,4-2.8s-0.9-1.9-2.8-1.9h-1.6c-1.1,0-1.4-0.4-1.4-0.9
					c0-0.4,0.2-0.8,0.5-1c0.4,0.2,0.8,0.3,1.2,0.3c1.5,0.1,2.8-1.1,2.9-2.6c0-0.1,0-0.2,0-0.2c0-0.7-0.2-1.3-0.7-1.8h1.7v-0.9h-2.8
					c-0.4-0.1-0.7-0.2-1.1-0.2c-1.6-0.1-2.9,1.1-3,2.7c0,0.9,0.3,1.8,1,2.4v0c-0.5,0.3-0.8,0.9-0.9,1.5c0,0.5,0.3,1.1,0.7,1.3v0.1
					c-0.7,0.4-1.1,1.1-1.2,1.9C788.2,435.8,789.6,436.6,791.6,436.7 M785.4,423c0.5,0,0.9-0.3,0.9-0.8c0,0,0,0,0,0
					c0-0.5-0.4-0.8-0.8-0.8c0,0,0,0-0.1,0c-0.4,0-0.8,0.3-0.9,0.7c0,0,0,0.1,0,0.1C784.6,422.6,784.9,423,785.4,423
					C785.4,423,785.4,423,785.4,423 M784.8,432.8h1.2v-8.1h-1.2L784.8,432.8z M779.1,432.8h1.2v-5.3c0.5-1.4,1.4-1.9,2.1-1.9
					c0.3,0,0.5,0,0.8,0.1l0.2-1.1c-0.3-0.1-0.6-0.2-0.9-0.2c-1,0.1-1.9,0.8-2.3,1.7l0,0l-0.1-1.5h-1L779.1,432.8z M771.5,436.4
					c1.6,0,2.4-1.2,3-2.8l3.1-8.9h-1.2l-1.5,4.6c-0.2,0.7-0.5,1.5-0.7,2.3H774c-0.3-0.7-0.5-1.6-0.8-2.3l-1.7-4.6h-1.3l3.3,8.1
					l-0.2,0.6c-0.4,1-1,1.8-1.9,1.8c-0.2,0-0.4,0-0.6-0.1l-0.2,1C770.8,436.4,771.1,436.4,771.5,436.4 M765.5,432
					c-0.8,0-1.5-0.4-2.1-0.9v-4.4c0.6-0.7,1.4-1.1,2.3-1.2c1.6,0,2.2,1.3,2.2,3.1C768,430.8,767,432,765.5,432 M762.3,436.3h1.2
					v-2.8v-1.4c0.6,0.6,1.4,0.9,2.3,0.9c1.9,0,3.5-1.6,3.5-4.4c0-2.5-1.1-4.1-3.2-4.1c-1,0.1-1.9,0.5-2.6,1.1l0,0l-0.1-0.9h-1
					L762.3,436.3z M756.3,432c-1.5,0-2.5-1.3-2.5-3.2s1-3.2,2.5-3.2s2.5,1.3,2.5,3.2S757.8,432,756.3,432 M756.3,433
					c2,0,3.7-1.5,3.7-4.2s-1.8-4.3-3.7-4.3s-3.7,1.6-3.7,4.3S754.3,433,756.3,433 M749.1,433c1,0,1.9-0.4,2.6-1l-0.5-0.8
					c-0.5,0.5-1.3,0.8-2,0.8c-1.6,0-2.6-1.3-2.6-3.2s1.1-3.2,2.6-3.2c0.6,0,1.2,0.3,1.7,0.8l0.7-0.8c-0.6-0.6-1.5-1-2.4-1
					c-2.1,0-3.9,1.6-3.9,4.3S747,433,749.1,433"/>
				<path class="st0" d="M873.5,412.9h1.2v-5.9c0.5-0.7,1.3-1.2,2.1-1.3c1.1,0,1.6,0.7,1.6,2.2v5h1.2V407c0.5-0.7,1.3-1.2,2.1-1.3
					c1.1,0,1.6,0.7,1.6,2.2v5h1.2v-5.1c0-2.1-0.8-3.2-2.5-3.2c-1.1,0.1-2.1,0.7-2.7,1.6c-0.3-1-1.2-1.7-2.2-1.6
					c-1,0.1-1.9,0.6-2.5,1.4l0,0l-0.1-1.2h-1L873.5,412.9z M867.5,412c-1.5,0-2.5-1.3-2.5-3.2s1-3.2,2.5-3.2s2.5,1.3,2.5,3.2
					S869,412,867.5,412 M867.5,413c2,0,3.7-1.5,3.7-4.2s-1.8-4.3-3.7-4.3s-3.7,1.6-3.7,4.3S865.5,413,867.5,413 M860.3,413
					c1,0,1.9-0.4,2.6-1l-0.5-0.8c-0.5,0.5-1.3,0.8-2,0.8c-1.6,0-2.6-1.3-2.6-3.2s1.1-3.2,2.6-3.2c0.6,0,1.2,0.3,1.7,0.8l0.6-0.8
					c-0.6-0.6-1.5-1-2.4-1c-2,0-3.8,1.6-3.8,4.3S858.2,413,860.3,413 M853.7,412.6c0.5,0,0.9-0.4,0.9-0.9c0,0,0,0,0-0.1
					c0-0.5-0.4-1-0.9-1c0,0,0,0-0.1,0c-0.5,0-0.9,0.4-0.9,0.9c0,0,0,0,0,0.1C852.7,412.2,853.1,412.6,853.7,412.6
					C853.6,412.6,853.7,412.6,853.7,412.6 M847.4,412.9h1.2v-5.3c0.5-1.4,1.4-1.9,2.1-1.9c0.3,0,0.5,0,0.8,0.1l0.2-1.1
					c-0.3-0.1-0.6-0.2-0.9-0.2c-1,0.1-1.9,0.8-2.3,1.7h0l-0.1-1.5h-1L847.4,412.9z M839.8,408.2c0-1.4,1-2.6,2.4-2.7
					c1.3,0,2.1,0.9,2.1,2.7H839.8z M842.4,413c0.9,0,1.9-0.3,2.7-0.8l-0.5-0.8c-0.6,0.4-1.3,0.7-2.1,0.7c-1.6,0-2.8-1.3-2.8-2.8
					c0-0.1,0-0.1,0-0.2h5.5c0-0.2,0.1-0.5,0.1-0.7c0-2.4-1.2-3.8-3.2-3.8s-3.6,1.6-3.6,4.3S840.3,413,842.4,413 M833.3,412.9h1.4
					l2.9-8.1h-1.2l-1.6,4.7c-0.2,0.8-0.5,1.6-0.8,2.4h0c-0.2-0.8-0.5-1.6-0.8-2.4l-1.6-4.7h-1.3L833.3,412.9z M825.3,412.1
					c-0.7,0.1-1.4-0.4-1.5-1.1c0-0.1,0-0.2,0-0.2c0-1.1,1-1.8,3.8-2.1v2.4C827,411.6,826.2,412,825.3,412.1 M825,413.1
					c1-0.1,2-0.5,2.7-1.2h0l0.1,1h1v-5c0-2-0.8-3.3-2.7-3.3c-1.1,0-2.2,0.4-3.2,1.1l0.5,0.9c0.7-0.5,1.6-0.9,2.5-0.9
					c1.4,0,1.7,1.1,1.7,2.2c-3.5,0.4-5,1.3-5,3c-0.1,1.2,0.9,2.2,2,2.3C824.8,413.1,824.9,413.1,825,413.1 M814.1,412.9h1.2V407
					c0.5-0.8,1.4-1.2,2.3-1.3c1.1,0,1.6,0.7,1.6,2.2v5h1.2v-5.1c0-2.1-0.8-3.2-2.5-3.2c-1.1,0.1-2,0.6-2.7,1.4l0,0l-0.1-1.2h-1
					L814.1,412.9z M805,411.1c-0.7,0-1.2-0.4-1.2-1.6c0-1.3,0.8-2.9,2.2-2.9c0.5,0,0.9,0.3,1.1,0.7l-0.5,2.7
					C806.2,410.6,805.6,411,805,411.1 M805.3,415.4c1.1,0,2.2-0.3,3.2-0.9l-0.3-0.8c-0.8,0.5-1.8,0.8-2.7,0.8
					c-2.6,0.1-4.9-1.9-5-4.5c0-0.2,0-0.4,0-0.6c-0.2-3.4,2.4-6.3,5.8-6.5c0,0,0,0,0.1,0c2.4-0.2,4.5,1.5,4.7,3.9c0,0.3,0,0.5,0,0.8
					c0,2.2-1.2,3.5-2.3,3.5s-1.3-0.6-0.9-2l0.7-3.3h-0.8l-0.2,0.7l0,0c-0.3-0.5-0.8-0.8-1.3-0.8c-2,0-3.2,2.1-3.2,3.8
					c0,1.5,0.9,2.4,2,2.4c0.8-0.1,1.5-0.5,2-1.1l0,0c0.1,0.9,0.8,1.2,1.7,1.2c1.5,0,3.3-1.5,3.3-4.4c0.2-2.8-1.9-5.3-4.7-5.5
					c-0.2,0-0.5,0-0.7,0c-3.9,0.1-7,3.2-6.9,7.1c0,0.1,0,0.2,0,0.3c-0.2,3,2,5.7,5.1,5.9C804.9,415.5,805.1,415.5,805.3,415.4
					 M793.5,412.9h1.3c0.2-4.3,0.7-6.9,3.3-10.2v-0.7h-6.8v1h5.4C794.4,405.9,793.6,408.6,793.5,412.9 M790,408.9h-1.5v-7h-1.3
					l-4.7,7.1v0.8h4.8v3.1h1.2v-3.1h1.5L790,408.9z M783.8,408.9l2.7-3.9c0.3-0.5,0.6-1.1,0.9-1.6h0.1c0,0.5-0.1,1.4-0.1,2v3.6
					L783.8,408.9z M777.4,412c-1.5,0-2.3-1.2-2.3-3.2s1.1-3.2,2.4-3.2c0.8,0,1.5,0.3,2.1,0.9v4.4C779.1,411.6,778.3,412,777.4,412
					 M777.2,413c1,0,1.9-0.5,2.5-1.2l0,0l0.1,1h1v-12h-1.2v3.2l0.1,1.4c-0.6-0.6-1.4-1-2.3-1c-1.9,0-3.5,1.6-3.5,4.3
					S775.1,413,777.2,413 M766.8,416.4c1.6,0,2.4-1.2,3-2.8l3.1-8.9h-1.2l-1.5,4.6c-0.2,0.7-0.5,1.5-0.7,2.3h-0.1
					c-0.3-0.7-0.6-1.6-0.8-2.3l-1.7-4.6h-1.3l3.3,8.1l-0.2,0.6c-0.4,1-1,1.8-1.9,1.8c-0.2,0-0.4,0-0.6-0.1l-0.3,1
					C766.2,416.3,766.5,416.4,766.8,416.4 M765.8,401c-0.4-0.2-0.9-0.3-1.3-0.3c-1.5,0-2.3,1-2.3,2.6v1.4l-1.1,0.1v0.9h1.1v7.1h1.2
					v-7.1h1.7v-1h-1.7v-1.4c0-1.1,0.4-1.7,1.2-1.7c0.3,0,0.6,0.1,0.9,0.2L765.8,401z M756.1,412c-1.5,0-2.5-1.3-2.5-3.2
					s1-3.2,2.5-3.2s2.5,1.3,2.5,3.2S757.6,412,756.1,412 M756.1,413c2,0,3.7-1.5,3.7-4.2s-1.8-4.3-3.7-4.3s-3.7,1.6-3.7,4.3
					S754.1,413,756.1,413 M744.8,412.8h1.3l1.2-2c0.3-0.5,0.5-1,0.8-1.5h0.1c0.3,0.5,0.6,1,0.9,1.5l1.2,2h1.3l-2.6-4l2.5-4h-1.3
					l-1.1,1.9c-0.3,0.5-0.5,0.9-0.8,1.4h-0.1c-0.3-0.5-0.6-0.9-0.8-1.4l-1.1-1.9H745l2.5,3.9L744.8,412.8z"/>
				<path class="st0" d="M841.9,395.8c-1.5,0-2.4-0.6-2.4-1.5c0-0.6,0.4-1.1,0.9-1.5c0.3,0.1,0.7,0.1,1,0.1h1.5
					c1.1,0,1.7,0.3,1.7,1.1S843.5,395.8,841.9,395.8 M841.7,389.5c-1,0-1.9-0.9-1.8-1.9c0,0,0,0,0-0.1c-0.1-1,0.7-1.9,1.7-1.9
					c1-0.1,1.9,0.7,1.9,1.7c0,0.1,0,0.2,0,0.3C843.6,388.5,842.8,389.4,841.7,389.5C841.7,389.5,841.7,389.5,841.7,389.5
					 M841.7,396.6c2.5,0,4-1.3,4-2.8s-0.9-1.9-2.8-1.9h-1.6c-1.1,0-1.4-0.4-1.4-0.9c0-0.4,0.2-0.8,0.5-1c0.4,0.2,0.8,0.3,1.2,0.3
					c1.5,0.1,2.8-1.1,2.9-2.6c0-0.1,0-0.2,0-0.2c0.1-0.7-0.1-1.3-0.5-1.8h1.7v-0.9h-2.8c-0.4-0.1-0.7-0.2-1.1-0.2
					c-1.6-0.1-2.9,1.1-3,2.7c-0.1,0.9,0.3,1.8,1,2.4v0.1c-0.5,0.3-0.8,0.9-0.9,1.5c0,0.5,0.3,1.1,0.7,1.3v0.1
					c-0.7,0.4-1.1,1.1-1.2,1.9C838.4,395.8,839.8,396.6,841.7,396.6 M830,392.9h1.2v-5.9c0.5-0.8,1.4-1.2,2.3-1.3
					c1.1,0,1.6,0.7,1.6,2.2v5h1.2v-5.1c0-2.1-0.8-3.2-2.5-3.2c-1.1,0.1-2,0.6-2.7,1.4l0,0l-0.2-1.2h-1V392.9z M824.1,392
					c-1.5,0-2.5-1.3-2.5-3.2s1-3.2,2.5-3.2s2.5,1.3,2.5,3.2S825.5,392,824.1,392 M824.1,393c2,0,3.7-1.5,3.7-4.2s-1.8-4.3-3.7-4.3
					s-3.7,1.6-3.7,4.3S822.1,393,824.1,393 M813.4,396.4c1.6,0,2.4-1.2,3-2.8l3.1-8.9h-1.2l-1.5,4.6c-0.2,0.7-0.5,1.5-0.7,2.3h-0.1
					c-0.3-0.7-0.5-1.6-0.8-2.3l-1.7-4.6h-1.3l3.3,8.1l-0.2,0.6c-0.4,1-1,1.8-1.9,1.8c-0.2,0-0.4,0-0.6-0.1l-0.2,1
					C812.7,396.4,813,396.4,813.4,396.4 M807.2,392.9h1.2v-5.3c0.6-1.4,1.4-1.9,2.1-1.9c0.3,0,0.5,0,0.8,0.1l0.2-1.1
					c-0.3-0.1-0.6-0.2-0.8-0.2c-1,0.1-1.9,0.8-2.3,1.7h0l-0.1-1.5h-1L807.2,392.9z M801.3,387.7h3.8v-1h-3.8V387.7z M794.4,388.2
					c0-1.4,1-2.6,2.4-2.7c1.3,0,2.1,0.9,2.1,2.7H794.4z M797,393.1c0.9,0,1.9-0.3,2.7-0.8l-0.5-0.8c-0.6,0.4-1.3,0.7-2,0.7
					c-1.6,0-2.8-1.3-2.8-2.8c0-0.1,0-0.1,0-0.2h5.5c0-0.2,0.1-0.5,0.1-0.7c0-2.4-1.2-3.8-3.2-3.8c-1.9,0-3.6,1.6-3.6,4.3
					S794.9,393.1,797,393.1 M787.6,392.1c-0.7,0.1-1.4-0.4-1.5-1.1c0-0.1,0-0.2,0-0.2c0-1.1,1-1.8,3.8-2.1v2.4
					C789.3,391.6,788.5,392,787.6,392.1 M787.2,393.1c1-0.1,2-0.5,2.7-1.2l0,0l0.1,1h1v-5c0-2-0.8-3.3-2.8-3.3
					c-1.1,0-2.2,0.4-3.2,1.1l0.5,0.9c0.7-0.5,1.6-0.9,2.5-0.9c1.4,0,1.7,1.1,1.7,2.2c-3.5,0.4-5,1.3-5,3c-0.1,1.2,0.9,2.2,2,2.3
					C787,393.1,787.1,393.1,787.2,393.1 M782.6,393.1c0.5,0,1-0.1,1.4-0.3l-0.2-0.9c-0.3,0.1-0.6,0.2-1,0.2c-1,0-1.3-0.6-1.3-1.6
					v-4.7h2.2v-1h-2.2v-2.3h-1l-0.1,2.3l-1.3,0.1v0.9h1.2v4.7C780.4,392.1,781,393.1,782.6,393.1 M771.7,395.3
					c1.2-0.5,2.1-1.7,2.1-3c0-0.9-0.4-1.5-1.1-1.5c-0.5-0.1-0.9,0.3-1,0.8c0,0,0,0.1,0,0.1c0,0.5,0.4,0.9,0.9,0.9c0,0,0,0,0.1,0h0.2
					c0,0.9-0.6,1.7-1.5,2L771.7,395.3z M758.2,392.9h1.2V387c0.5-0.7,1.3-1.2,2.1-1.3c1.1,0,1.6,0.7,1.6,2.2v5h1.2V387
					c0.5-0.7,1.3-1.2,2.1-1.3c1.1,0,1.6,0.7,1.6,2.2v5h1.2v-5.1c0-2.1-0.8-3.2-2.5-3.2c-1.1,0.1-2,0.7-2.7,1.6
					c-0.3-1-1.2-1.7-2.2-1.6c-1,0.1-1.9,0.6-2.5,1.4h0l-0.1-1.2h-1L758.2,392.9z M754.8,383.1c0.5,0,0.9-0.3,0.9-0.8c0,0,0,0,0,0
					c0-0.5-0.4-0.8-0.8-0.8c0,0,0,0-0.1,0c-0.4,0-0.8,0.3-0.9,0.7c0,0,0,0.1,0,0.1C753.9,382.7,754.3,383.1,754.8,383.1
					C754.8,383.1,754.8,383.1,754.8,383.1 M754.2,392.9h1.2v-8.1h-1.2V392.9z M746,392.9h1.2v-2.1l1.6-1.9l2.4,4h1.3l-3.1-4.9
					l2.7-3.2h-1.3l-3.6,4.4l0,0V381H746L746,392.9z"/>
				<path class="st0" d="M867.2,372.9h2.2v-9.3h3.2v-1.8h-8.5v1.8h3.1L867.2,372.9z M855.8,372.9h7V371H858v-3h3.9v-1.9H858v-2.6
					h4.6v-1.8h-6.8L855.8,372.9z M849.8,373.1c2.6,0,4.1-1.5,4.1-3.4c0-1.4-0.9-2.6-2.2-3l-1.5-0.6c-0.9-0.4-1.7-0.7-1.7-1.5
					s0.6-1.2,1.6-1.2c0.9,0,1.7,0.3,2.3,0.9l1.1-1.4c-0.9-0.9-2.2-1.4-3.5-1.4c-2.2,0-3.8,1.4-3.8,3.2c0,1.4,0.9,2.6,2.2,3l1.5,0.6
					c1,0.4,1.7,0.7,1.7,1.5s-0.6,1.3-1.8,1.3c-1.1-0.1-2.1-0.5-2.8-1.2l-1.3,1.5C846.8,372.5,848.3,373.1,849.8,373.1 M835,372.9
					h2.2v-9.3h3.2v-1.8h-8.5v1.8h3.1V372.9z M821.6,372.9h2.1v-4.5c0-1.3-0.2-2.7-0.3-3.9h0.1l1.1,2.4l3.2,5.9h2.2v-11.1h-2v4.4
					c0,1.3,0.2,2.7,0.3,3.9h-0.1l-1.1-2.4l-3.2-5.9h-2.3L821.6,372.9z M812.3,372.9h7V371h-4.8v-3h3.9v-1.9h-3.9v-2.6h4.6v-1.8h-6.8
					L812.3,372.9z M801.1,372.9h2.1v-4.5c0-1.3-0.2-2.7-0.3-3.9h0.1l1.1,2.4l3.2,5.9h2.2v-11.1h-2.1v4.4c0,1.3,0.2,2.7,0.3,3.9h-0.1
					l-1.1-2.4l-3.2-5.9h-2.3L801.1,372.9z M794,371.2c-1.7,0-2.7-1.5-2.7-3.9s1-3.8,2.7-3.8s2.7,1.4,2.7,3.8S795.7,371.2,794,371.2
					 M794,373.1c2.9,0,5-2.2,5-5.8s-2-5.7-5-5.7s-5,2.1-5,5.7S791,373.1,794,373.1 M781.8,367.2v-3.6h1.3c1.5,0,2.3,0.4,2.3,1.7
					s-0.7,1.9-2.3,1.9L781.8,367.2z M779.6,372.9h2.2v-4h1.5c2.4,0,4.3-1.1,4.3-3.7s-1.9-3.5-4.3-3.5h-3.7L779.6,372.9z
					 M766.8,372.9h2v-4.6c0-1-0.2-2.6-0.3-3.6h0.1l0.9,2.6l1.7,4.7h1.3l1.7-4.7l0.9-2.6h0.1c-0.1,1-0.3,2.6-0.3,3.6v4.6h2v-11.1
					h-2.5l-1.8,5.2c-0.2,0.7-0.4,1.4-0.7,2.1h-0.1c-0.2-0.7-0.4-1.5-0.7-2.1l-1.9-5.2h-2.5L766.8,372.9z M759.6,371.2
					c-1.7,0-2.7-1.5-2.7-3.9s1-3.8,2.7-3.8s2.7,1.4,2.7,3.8S761.3,371.2,759.6,371.2 M759.6,373.1c2.9,0,5-2.2,5-5.8s-2-5.7-5-5.7
					s-5,2.1-5,5.7S756.6,373.1,759.6,373.1 M750.5,373.1c1.4,0,2.7-0.6,3.5-1.6l-1.2-1.4c-0.6,0.7-1.4,1.1-2.3,1.1
					c-1.8,0-2.9-1.5-2.9-3.9s1.3-3.8,2.9-3.8c0.8,0,1.5,0.4,2,0.9l1.2-1.4c-0.8-0.9-2-1.4-3.2-1.4c-2.8,0-5.2,2.1-5.2,5.8
					S747.6,373.1,750.5,373.1"/>
				
					<ellipse transform="matrix(0.9347 -0.3554 0.3554 0.9347 -108.8014 233.7265)" class="st3" cx="581.7" cy="413" rx="49.4" ry="49.4"/>
				<path class="st0" d="M556,427.9c1.1,4,2.9,7.8,5.3,11.2c2.2,3.1,5.2,5.5,8.6,7.2c3.6,1.7,7.6,2.6,11.7,2.5
					c3.7,0.1,7.3-0.7,10.6-2.2c3.1-1.5,5.9-3.6,8.1-6.3l3.8,3.3l1.4-1.7l1.2-13.3l-2.4-2.1l-13.1,2.9l-1.4,1.7l3.9,3.3
					c-2.8,3.3-6.8,5-12.1,5c-2.9,0.1-5.7-0.6-8.2-1.9c-2.3-1.3-4.2-3.1-5.6-5.4c-1.5-2.5-2.6-5.3-3.2-8.2c-1.4-6.9-1.4-14,0-20.9
					c0.6-2.9,1.7-5.7,3.2-8.2c1.4-2.2,3.3-4.1,5.6-5.4c2.5-1.3,5.4-2,8.2-1.9c5.3,0,9.3,1.6,12.1,5l-3.9,3.3l1.4,1.7l13.1,2.9
					l2.4-2.1l-1.2-13.4l-1.4-1.7l-3.8,3.3c-2.2-2.7-5-4.8-8.1-6.3c-3.3-1.5-7-2.3-10.6-2.2c-4-0.1-8,0.8-11.7,2.5
					c-3.4,1.7-6.3,4.1-8.6,7.2c-2.4,3.4-4.2,7.2-5.3,11.2C553.5,408.5,553.5,418.5,556,427.9 M558.2,399.9c0.9-3.7,2.5-7.3,4.7-10.4
					c2-2.8,4.7-5.1,7.8-6.6c3.4-1.6,7.1-2.4,10.9-2.3c3.7-0.1,7.4,0.8,10.6,2.5c3,1.7,5.7,4,7.7,6.9l3.6-3.1l0.9,11.4l-11.2-2.4
					l3.5-3c-3.2-5-8.2-7.5-15.1-7.5c-3.2-0.1-6.5,0.6-9.3,2.1c-2.5,1.4-4.7,3.4-6.2,5.9c-1.7,2.8-2.9,5.8-3.6,9
					c-1.7,7.4-1.7,15,0,22.4c0.7,3.2,1.9,6.2,3.6,8.9c1.5,2.5,3.7,4.5,6.2,5.9c2.9,1.5,6.1,2.2,9.3,2.1c6.8,0,11.8-2.5,15.1-7.5
					l-3.5-3l11.2-2.4l-0.9,11.4l-3.6-3.1c-2,2.8-4.6,5.2-7.7,6.9c-3.3,1.7-6.9,2.6-10.6,2.5c-3.8,0.1-7.5-0.7-10.9-2.3
					c-3.1-1.5-5.8-3.8-7.8-6.6c-2.2-3.2-3.8-6.7-4.7-10.4C555.9,418.2,555.9,408.8,558.2,399.9"/>
			</g>
		</g>
		<rect y="39.7" class="st4" width="450.4" height="419"/>
		<path class="st5" d="M93,207.2"/>
		<path class="st5" d="M336.1,291.1L336.1,291.1z"/>
		<path class="st5" d="M336.1,327.5"/>
		<g>
			<defs>
				<polygon id="SVGID_3_" points="0,-0.3 943.3,-0.3 943.3,498.7 0,500.7 				"/>
			</defs>
			<clipPath id="SVGID_4_">
				<use xlink:href="#SVGID_3_"  style="overflow:visible;"/>
			</clipPath>
			<g class="st6">
				<path class="st7" d="M223.2,237.7l-0.6,0.6v5.1l0.6,0.6l75.6-9.5l0.6-1.3v-3.8l-0.6-1.3L223.2,237.7z M315.9,387H199.7v-19.1
					h116.2V387z M190.8,141.2c0-11.4,1.3-17.8,9.5-17.8s9.5,6.4,9.5,17.8l1.9,58.4c-0.2,3.3,2.3,6.2,5.6,6.4c0.2,0,0.5,0,0.7,0h2.5
					c3.3,0.2,6.1-2.3,6.3-5.6c0-0.2,0-0.4,0-0.7l1.9-83.8c0-11.4,1.3-17.8,9.5-17.8s9.5,6.4,9.5,17.8l1.9,80.7
					c-0.2,3.3,2.3,6.2,5.6,6.4c0.2,0,0.5,0,0.7,0h2.5c3.3,0.2,6.2-2.3,6.4-5.6c0-0.2,0-0.5,0-0.7l1.9-93.4c0-11.4,1.3-17.8,9.5-17.8
					s9.5,6.4,9.5,17.8l2,90.2c-0.2,3.3,2.3,6.2,5.6,6.4c0.2,0,0.5,0,0.7,0h2.5c3.3,0.2,6.2-2.3,6.4-5.6c0-0.2,0-0.5,0-0.7l1.9-71.1
					c0-11.4,1.3-17.8,9.5-17.8s9.5,6.4,9.5,17.8v57.2c-3.2,3.8-5.1,10.2-5.7,19.1l-5.7,41.3c-1.3,8.2-3.2,11.4-7.6,14l-41.9,22.8
					c-4.5,3.2-7,7-7,12.7v31.8l0.6,0.6l5.1-0.6l0.6-0.6v-29.2c0-3.8,1.3-7.6,4.5-9.5l41.3-22.9c6.4-3.2,8.9-8.9,10.2-17.8l6.4-42.6
					c1.9-11.4,2.5-17.8,10.8-17.8s10.8,6.4,10.8,17.8v16.5c0,13.3,0,24.8,1.3,38.1c0.6,4.4-0.6,11.4-3.8,16.5l-28,45.1
					c-4.4,7.6-6.4,19.7-6.4,27.3v19.7l-102.9,0.6v-12.7l-0.6-3.2c-6.4-19.1-15.2-54-15.2-71.8L190.8,141.2z M256.2,196.4l-1.9-80.7
					c-0.6-17.1-4.4-24.8-15.9-24.8c-10.2,0-15.9,8.2-15.9,24.8l-1.9,83.9h-2.5l-1.9-58.4c-0.6-17.2-4.4-24.8-15.9-24.8
					c-10.2,0-15.9,8.3-15.9,24.8V272c0,18.4,7.6,52.7,15.2,74.3l0.6,3.2v12.7H194l-0.6,0.6V387h-2.5l-0.6,0.6v31.8l0.6,0.6h134
					l0.6-0.6v-31.7l-0.6-0.6h-2.5v-24.8l-0.6-0.6h-5.7v-20.9c0-9.5,2.5-17.1,7.6-26l24.8-40c4.4-6.8,6.4-14.9,5.7-23
					c-1.3-13.3-1.3-24.1-1.3-36.8v-16.5c-0.6-17.1-5.7-24.8-17.1-24.8c-1.9,0-3.8,0-5.1,0.6v-52.1c-0.6-17.1-4.5-24.8-15.9-24.8
					c-10.2,0-15.9,8.3-15.9,24.8l-1.9,71.1h-2.5l-1.9-90.2c-0.6-17.1-4.4-24.8-15.9-24.8c-10.2,0-15.9,8.3-15.9,24.8l-1.9,93.4
					H256.2z"/>
				<path class="st8" d="M223.2,237.7l-0.6,0.6v5.1l0.6,0.6l75.6-9.5l0.6-1.3v-3.8l-0.6-1.3L223.2,237.7z M315.9,387H199.7v-19.1
					h116.2V387z M190.8,141.2c0-11.4,1.3-17.8,9.5-17.8s9.5,6.4,9.5,17.8l1.9,58.4c-0.2,3.3,2.3,6.2,5.6,6.4c0.2,0,0.5,0,0.7,0h2.5
					c3.3,0.2,6.1-2.3,6.3-5.6c0-0.2,0-0.4,0-0.7l1.9-83.8c0-11.4,1.3-17.8,9.5-17.8s9.5,6.4,9.5,17.8l1.9,80.7
					c-0.2,3.3,2.3,6.2,5.6,6.4c0.2,0,0.5,0,0.7,0h2.5c3.3,0.2,6.2-2.3,6.4-5.6c0-0.2,0-0.5,0-0.7l1.9-93.4c0-11.4,1.3-17.8,9.5-17.8
					s9.5,6.4,9.5,17.8l2,90.2c-0.2,3.3,2.3,6.2,5.6,6.4c0.2,0,0.5,0,0.7,0h2.5c3.3,0.2,6.2-2.3,6.4-5.6c0-0.2,0-0.5,0-0.7l1.9-71.1
					c0-11.4,1.3-17.8,9.5-17.8s9.5,6.4,9.5,17.8v57.2c-3.2,3.8-5.1,10.2-5.7,19.1l-5.7,41.3c-1.3,8.2-3.2,11.4-7.6,14l-41.9,22.8
					c-4.5,3.2-7,7-7,12.7v31.8l0.6,0.6l5.1-0.6l0.6-0.6v-29.2c0-3.8,1.3-7.6,4.5-9.5l41.3-22.9c6.4-3.2,8.9-8.9,10.2-17.8l6.4-42.6
					c1.9-11.4,2.5-17.8,10.8-17.8s10.8,6.4,10.8,17.8v16.5c0,13.3,0,24.8,1.3,38.1c0.6,4.4-0.6,11.4-3.8,16.5l-28,45.1
					c-4.4,7.6-6.4,19.7-6.4,27.3v19.7l-102.9,0.6v-12.7l-0.6-3.2c-6.4-19.1-15.2-54-15.2-71.8L190.8,141.2z M256.2,196.4l-1.9-80.7
					c-0.6-17.1-4.4-24.8-15.9-24.8c-10.2,0-15.9,8.2-15.9,24.8l-1.9,83.9h-2.5l-1.9-58.4c-0.6-17.2-4.4-24.8-15.9-24.8
					c-10.2,0-15.9,8.3-15.9,24.8V272c0,18.4,7.6,52.7,15.2,74.3l0.6,3.2v12.7H194l-0.6,0.6V387h-2.5l-0.6,0.6v31.8l0.6,0.6h134
					l0.6-0.6v-31.7l-0.6-0.6h-2.5v-24.8l-0.6-0.6h-5.7v-20.9c0-9.5,2.5-17.1,7.6-26l24.8-40c4.4-6.8,6.4-14.9,5.7-23
					c-1.3-13.3-1.3-24.1-1.3-36.8v-16.5c-0.6-17.1-5.7-24.8-17.1-24.8c-1.9,0-3.8,0-5.1,0.6v-52.1c-0.6-17.1-4.5-24.8-15.9-24.8
					c-10.2,0-15.9,8.3-15.9,24.8l-1.9,71.1h-2.5l-1.9-90.2c-0.6-17.1-4.4-24.8-15.9-24.8c-10.2,0-15.9,8.3-15.9,24.8l-1.9,93.4
					H256.2z"/>
				<path class="st9" d="M70.8,286c0.7,1.6,2.3,2.7,4.1,2.7c0.6,0,1.2-0.1,1.7-0.3c0.5-0.2,1-0.5,1.4-0.9c0.4-0.4,0.7-0.9,0.9-1.4
					c0.2-0.5,0.4-1.1,0.3-1.7c0-1.2-0.5-2.3-1.3-3.1c-0.4-0.4-0.9-0.7-1.4-0.9c-1.1-0.5-2.3-0.5-3.4,0c-0.5,0.2-1,0.5-1.4,0.9
					c-0.8,0.8-1.3,2-1.3,3.1C70.4,284.9,70.5,285.5,70.8,286 M76.9,286.4c-1.1,1.1-2.9,1.1-4,0c-1.1-1.1-1.1-2.9,0-4.1
					c1.1-1.1,2.9-1.1,4,0C78,283.4,78,285.2,76.9,286.4 M65.7,244.4c-2,0.1-4,0.2-6.3,0.3c-2.2,0.1-4.3,0.1-6.2,0.1v1.6
					c0.9,0,2,0,3,0l3.2-0.1l3.2-0.1c1.1,0,2.1-0.1,3.1-0.1L65.7,244.4z M69,258.1c-2.4,0.9-4.9,1.6-7.4,2c-2.8,0.4-5.5,0.6-8.3,0.5
					l-0.1,1.6c2.9,0.1,5.8-0.1,8.7-0.6c2.6-0.4,5.2-1.1,7.8-2L69,258.1z M53.2,262.1l1.6-0.4v-15.6h-1.6L53.2,262.1z M82.8,252.9
					h-7.2l-0.8,0.8l0.8,0.9l7.1,0.1L82.8,252.9z M74,271.9h1.6v-35.9H74L74,271.9z M69.4,214.7c-2.5,0.8-5.1,1.4-7.7,1.9
					c-2.8,0.5-5.5,0.9-8.3,1l-0.1,1.6c2.9-0.1,5.8-0.5,8.6-1c2.7-0.5,5.3-1.2,7.9-1.9L69.4,214.7z M53.3,219.1l1.6-0.4v-17.3h-1.6
					V219.1z M74,228.9h1.6V193H74V228.9z M78.1,160.5l-9-4.6l-0.8,1.5c1.6,0.8,3,1.6,4.4,2.3s2.8,1.6,4.4,2.4L78.1,160.5z
					 M57.3,162.3c2.9-0.8,5.5-2.4,7.7-4.5c2-2.1,3.5-4.8,4.1-7.7l-1.6-0.4c-0.4,1.4-0.9,2.7-1.5,4c-0.6,1.1-1.3,2.2-2.2,3.1
					c-0.9,0.9-2,1.7-3.1,2.3c-1.3,0.7-2.7,1.3-4.1,1.8L57.3,162.3z M75.6,184.7h-16V183h16V184.7z M75.6,177.6
					c-1.1,0.1-2.3,0.1-3.7,0.1l-4.3,0.1c-1.5,0-2.9,0.1-4.3,0.1h-3.6v-1.6h3.7c1.4,0,2.8,0,4.3-0.1l4.3-0.1c1.4,0,2.6-0.1,3.7-0.1
					V177.6z M75.6,183.7H74v-12.2h1.6L75.6,183.7z M59.6,172.2h1.6v11.7h-1.6L59.6,172.2z M47.4,166.8c2.7,0,5.5,0,8.5-0.1
					c3,0,6-0.1,8.9-0.2c3-0.1,5.9-0.2,8.8-0.3s5.7-0.3,8.3-0.4v1.7c-2.6,0.2-5.3,0.3-8.2,0.4c-2.9,0.1-5.8,0.2-8.8,0.3
					s-5.9,0.1-8.8,0.2s-5.8,0.1-8.4,0.1L47.4,166.8z M75.6,139.3H59.3v1.7h16.4L75.6,139.3z M82.7,117.6h-7.1l-0.8,0.8l0.8,0.9
					l7.1,0.1L82.7,117.6z M53,122.8l1.6-0.4v-10.5H53V122.8z M65.6,111.7c-2,0.1-4.1,0.2-6.3,0.2c-2.2,0-4.3,0-6.3,0l0.1,1.6
					c2,0,4.1,0,6.2,0c2.2,0,4.3-0.1,6.3-0.2V111.7z M64,123.1h1.6v-10.3H64V123.1z M65.6,122.2H53v1.7h12.6L65.6,122.2z M74,125.2
					h1.6v-18.3H74L74,125.2z M75.6,131.9c-1.1,0.1-2.3,0.1-3.7,0.1l-4.4,0.1c-1.5,0-3,0.1-4.4,0.1h-3.7v1.6h3.7c1.4,0,2.9,0,4.4-0.1
					s3-0.1,4.4-0.1s2.7-0.1,3.8-0.1L75.6,131.9z M75.6,127.3H74v12.9h1.6L75.6,127.3z M59.3,140.5l1.6,0.1v-12.9h-1.6V140.5z
					 M75.8,69.9c-1.2,0.1-2.6,0.1-4.3,0.2s-3.4,0.1-5.2,0.1l-5.1,0.1c-1.6,0-3,0-4.1,0l0.1,1.7c1,0,2.3,0,3.8,0l4.7-0.1l4.8-0.1
					c1.5,0,2.8-0.1,3.9-0.1L75.8,69.9z M73.4,85.2c0.3-1.1,0.6-2.3,0.8-3.6s0.5-2.6,0.7-3.9s0.4-2.7,0.6-4s0.3-2.6,0.4-3.8l-1.7,0.6
					c-0.1,1-0.2,2.1-0.3,3.4c-0.1,1.2-0.3,2.5-0.5,3.8s-0.4,2.6-0.7,3.8s-0.5,2.4-0.8,3.5L73.4,85.2z M48.8,94.3
					c2.7,0,5.4,0,8.2-0.1c2.8,0,5.7-0.1,8.5-0.2c2.8-0.1,5.6-0.2,8.4-0.3c2.8-0.1,5.5-0.3,8.1-0.4l0.1-1.7c-2.6,0.2-5.3,0.3-8.1,0.4
					s-5.6,0.2-8.5,0.3s-5.7,0.1-8.5,0.2s-5.6,0.1-8.3,0.1L48.8,94.3z M63,93.3h1.6v-13H63L63,93.3z"/>
			</g>
		</g>
		<line class="st10" x1="122.1" y1="39.7" x2="122.1" y2="458.7"/>
		<line class="st10" x1="413.5" y1="39.7" x2="413.5" y2="458.7"/>
	</g>
</g>
</svg>
